<svg width="234" height="175" viewBox="0 0 234 175" fill="none" xmlns="http://www.w3.org/2000/svg">
<g opacity="0.5">
<path opacity="0.32" d="M49.6895 100.607C49.6895 84.0224 56.2778 68.1168 68.005 56.3896C79.7323 44.6623 95.6379 38.074 112.223 38.074H121.889C138.472 38.0755 154.377 44.6645 166.103 56.3916C177.829 68.1187 184.416 84.0235 184.416 100.607V101.191" stroke="#A5A5A5" stroke-width="1.16667" stroke-linecap="round" stroke-linejoin="round" stroke-dasharray="1.17 5.83"/>
<path d="M56.6135 118.02C56.6135 118.02 54.4669 116.316 52.2269 116.853C49.9869 117.39 51.6902 118.912 51.6902 118.912C51.6902 118.912 49.001 117.932 48.6394 120.172C48.2777 122.412 56.6135 121.87 56.6135 121.87V118.02Z" fill="#F4A28C"/>
<path d="M104.021 61.6406C104.021 61.6406 86.7954 63.7523 84.7012 84.9273C82.607 106.102 72.2062 119.216 55.7212 117.139V122.681C55.7212 122.681 94.4312 128.584 100.165 91.1806L104.021 61.6406Z" fill="#6B56CA"/>
<path opacity="0.46" d="M104.021 61.6406C104.021 61.6406 86.7954 63.7523 84.7012 84.9273C82.607 106.102 72.2062 119.216 55.7212 117.139V122.681C55.7212 122.681 94.4312 128.584 100.165 91.1806L104.021 61.6406Z" fill="white"/>
<path d="M180.45 118.02C180.45 118.02 182.602 116.316 184.842 116.853C187.082 117.39 185.379 118.912 185.379 118.912C185.379 118.912 188.068 117.932 188.424 120.172C188.78 122.412 180.45 121.87 180.45 121.87V118.02Z" fill="#F4A28C"/>
<path d="M133.048 61.6406C133.048 61.6406 150.268 63.7523 152.368 84.9273C154.468 106.102 164.857 119.216 181.348 117.139V122.681C181.348 122.681 142.638 128.584 136.898 91.1806L133.048 61.6406Z" fill="#6B56CA"/>
<path opacity="0.46" d="M133.048 61.6406C133.048 61.6406 150.268 63.7523 152.368 84.9273C154.468 106.102 164.857 119.216 181.348 117.139V122.681C181.348 122.681 142.638 128.584 136.898 91.1806L133.048 61.6406Z" fill="white"/>
<path d="M113.897 60.9931C113.897 60.9931 93.1183 59.1439 90.3883 73.1731C87.6583 87.2023 107.375 109.497 107.375 109.497H133.876C133.876 109.497 175.847 53.8239 113.897 60.9931Z" fill="#6B56CA"/>
<path opacity="0.45" d="M122.6 166.67C149.772 166.67 171.799 163.141 171.799 158.789C171.799 154.437 149.772 150.908 122.6 150.908C95.4287 150.908 73.4019 154.437 73.4019 158.789C73.4019 163.141 95.4287 166.67 122.6 166.67Z" fill="#E6E6E6"/>
<path opacity="0.15" d="M116.778 37.4032C124.852 37.4032 131.397 30.8583 131.397 22.7848C131.397 14.7114 124.852 8.1665 116.778 8.1665C108.705 8.1665 102.16 14.7114 102.16 22.7848C102.16 30.8583 108.705 37.4032 116.778 37.4032Z" fill="#FFD200"/>
<path d="M114.305 144.853C114.305 144.853 115.472 146.393 114.708 147.852C113.944 149.31 115.046 150.547 116.207 149.532C117.368 148.517 117.834 144.282 117.834 144.282L115.227 142.759L114.305 144.853Z" fill="#6B56CA"/>
<path d="M125.458 157.313C125.458 157.313 124.292 158.859 125.062 160.317C125.832 161.776 124.718 163.012 123.563 161.997C122.408 160.982 121.929 156.747 121.929 156.747L124.537 155.225L125.458 157.313Z" fill="#6B56CA"/>
<path d="M113.302 60.859C113.302 60.859 110.677 64.989 113.25 66.4648C115.822 67.9407 116.645 66.2548 116.645 66.2548C116.645 66.2548 118.558 68.5182 120.273 66.7623C121.988 65.0065 121.743 61.5123 119.999 59.914C118.255 58.3157 113.302 60.859 113.302 60.859Z" fill="white"/>
<path d="M113.897 60.9931C114.016 61.7524 114.092 62.5178 114.125 63.2856C114.16 64.3414 114.498 65.9106 116.166 66.2023C118.733 66.6748 119.415 62.6148 119.415 62.6148C119.415 62.6148 121.031 58.8114 118.249 58.2864C115.746 57.8373 113.39 57.4989 113.897 60.9931Z" fill="#F4A28C"/>
<path d="M119.252 62.8014C119.252 62.8014 119.404 61.5647 120.477 61.6347C121.55 61.7047 121.13 63.9739 119.252 62.8014Z" fill="#F4A28C"/>
<path d="M114.516 62.1133C114.516 62.1133 114.895 60.9467 113.897 60.5325C112.9 60.1183 112.322 62.405 114.516 62.1133Z" fill="#F4A28C"/>
<path d="M113.897 60.9932C113.897 60.9932 109.738 60.4099 111.599 57.3357C113.46 54.2616 113.868 56.5716 114.749 54.1974C115.63 51.8232 116.417 51.3682 117.706 52.3832C118.995 53.3982 117.747 55.5157 119.695 54.9207C121.644 54.3257 122.974 53.7541 123.341 55.3816C123.709 57.0091 123.341 57.7674 122.087 58.2982C120.833 58.8291 122.805 61.0224 119.649 61.9091C116.493 62.7957 114.889 59.3891 114.889 59.3891L113.897 60.9932Z" fill="#24285B"/>
<path d="M107.387 109.497C107.387 109.497 93.025 122.039 100.387 132.171C107.748 142.304 113.803 145.524 113.803 145.524L116.242 142.642C116.242 142.642 99.1092 123.871 117.852 116.036L133.893 109.497H107.387Z" fill="#24285B"/>
<path d="M133.888 109.497C133.888 109.497 149.055 142.164 125.78 157.955L123.481 154.472C123.481 154.472 142.06 134.703 117.648 114.333L133.888 109.497Z" fill="#24285B"/>
<path d="M126.993 22.0908C126.988 20.4364 126.579 18.8084 125.8 17.3487C125.022 15.8891 123.898 14.6421 122.526 13.7166C121.155 12.7911 119.578 12.2153 117.933 12.0392C116.288 11.8632 114.625 12.0924 113.089 12.7068C111.553 13.3212 110.191 14.3022 109.121 15.5641C108.051 16.826 107.307 18.3305 106.952 19.9463C106.597 21.5622 106.643 23.2403 107.086 24.8342C107.529 26.4282 108.355 27.8895 109.493 29.0908C110.934 30.623 111.728 32.6519 111.71 34.7549V35.1049H121.772V34.8483C121.781 32.716 122.618 30.6706 124.105 29.1433C125.954 27.2609 126.99 24.7289 126.993 22.0908Z" fill="#FFD200"/>
<path d="M114.13 35.1224C114.046 35.1232 113.965 35.0934 113.902 35.0386C113.838 34.9839 113.797 34.9079 113.786 34.8249L111.663 21.9916C111.655 21.9022 111.681 21.813 111.735 21.742C111.79 21.671 111.87 21.6234 111.958 21.6086C112.047 21.5938 112.138 21.6131 112.213 21.6625C112.288 21.7119 112.341 21.7877 112.363 21.8749L114.48 34.7082C114.488 34.7538 114.486 34.8005 114.475 34.8454C114.465 34.8904 114.445 34.9328 114.418 34.9702C114.391 35.0077 114.357 35.0393 114.317 35.0635C114.278 35.0876 114.234 35.1036 114.188 35.1107L114.13 35.1224Z" fill="white"/>
<path d="M119.421 35.1224H119.363C119.317 35.1154 119.273 35.0993 119.234 35.0752C119.194 35.0511 119.16 35.0194 119.133 34.982C119.106 34.9445 119.086 34.9021 119.076 34.8572C119.065 34.8122 119.064 34.7655 119.071 34.7199L121.189 21.8866C121.193 21.8378 121.207 21.7905 121.231 21.7475C121.254 21.7046 121.287 21.6669 121.325 21.637C121.364 21.6071 121.409 21.5854 121.456 21.5735C121.504 21.5615 121.553 21.5595 121.601 21.5676C121.65 21.5756 121.696 21.5936 121.737 21.6203C121.778 21.647 121.813 21.6819 121.84 21.7228C121.867 21.7637 121.885 21.8097 121.894 21.858C121.902 21.9062 121.9 21.9557 121.889 22.0033L119.765 34.8366C119.751 34.9175 119.709 34.9907 119.646 35.0431C119.583 35.0955 119.503 35.1236 119.421 35.1224Z" fill="white"/>
<path d="M122.6 33.5415H111.108V42.6123H122.6V33.5415Z" fill="#24285B"/>
<path d="M117.893 24.599C117.637 24.5707 117.391 24.4846 117.174 24.3472C116.957 24.2097 116.773 24.0245 116.638 23.8056C116.469 23.5898 116.306 23.4848 116.16 23.5023C115.816 23.5315 115.431 24.0856 115.291 24.3481C115.248 24.4309 115.175 24.4934 115.086 24.5218C114.997 24.5503 114.901 24.5423 114.818 24.4998C114.736 24.4572 114.673 24.3836 114.645 24.295C114.616 24.2063 114.624 24.1101 114.667 24.0273C114.725 23.9106 115.25 22.8606 116.09 22.7965C116.31 22.7874 116.528 22.8366 116.723 22.9391C116.917 23.0415 117.081 23.1935 117.198 23.3798C117.391 23.6365 117.683 23.9631 117.968 23.9048C118.254 23.8465 118.581 23.4206 118.657 23.2631C118.677 23.2211 118.705 23.1834 118.739 23.1523C118.774 23.1213 118.815 23.0974 118.859 23.0822C118.903 23.067 118.949 23.0607 118.996 23.0637C119.042 23.0668 119.088 23.079 119.129 23.0998C119.171 23.1191 119.209 23.1467 119.24 23.1808C119.271 23.215 119.295 23.255 119.31 23.2985C119.325 23.3421 119.331 23.3882 119.328 23.4342C119.325 23.4803 119.313 23.5252 119.293 23.5665C119.179 23.8246 119.008 24.0528 118.791 24.2331C118.574 24.4133 118.319 24.5406 118.044 24.6048L117.893 24.599Z" fill="white"/>
<path opacity="0.21" d="M123.289 17.7727C123.829 16.5253 122.974 14.9532 121.378 14.2611C119.782 13.5691 118.049 14.0193 117.509 15.2666C116.968 16.514 117.823 18.0861 119.419 18.7782C121.015 19.4702 122.748 19.02 123.289 17.7727Z" fill="white"/>
<path d="M119.882 42.6123H113.827V45.6456H119.882V42.6123Z" fill="#24285B"/>
<path opacity="0.17" d="M119.882 42.6123H113.827V45.6456H119.882V42.6123Z" fill="white"/>
<path d="M49.6895 111.049C53.4298 111.049 56.462 108.017 56.462 104.277C56.462 100.536 53.4298 97.5042 49.6895 97.5042C45.9491 97.5042 42.917 100.536 42.917 104.277C42.917 108.017 45.9491 111.049 49.6895 111.049Z" fill="#FFD200"/>
<path d="M184.44 107.975C188.18 107.975 191.212 104.943 191.212 101.202C191.212 97.4621 188.18 94.4299 184.44 94.4299C180.699 94.4299 177.667 97.4621 177.667 101.202C177.667 104.943 180.699 107.975 184.44 107.975Z" fill="#FFD200"/>
<path d="M71.3313 65.1756C76.4924 65.1756 80.6763 60.9917 80.6763 55.8306C80.6763 50.6695 76.4924 46.4856 71.3313 46.4856C66.1702 46.4856 61.9863 50.6695 61.9863 55.8306C61.9863 60.9917 66.1702 65.1756 71.3313 65.1756Z" fill="#24285B"/>
<path d="M163.259 64.3358C168.42 64.3358 172.604 60.1519 172.604 54.9908C172.604 49.8296 168.42 45.6458 163.259 45.6458C158.097 45.6458 153.914 49.8296 153.914 54.9908C153.914 60.1519 158.097 64.3358 163.259 64.3358Z" fill="#24285B"/>
<path d="M138.753 75.3083H128.206V78.9542H138.753V75.3083Z" fill="white"/>
<path opacity="0.08" d="M146.972 83.259C146.972 83.259 131.636 109.346 101.833 102.439L107.393 109.497H133.894C133.894 109.497 144.714 94.4299 146.972 83.259Z" fill="black"/>
</g>
</svg>
