<svg width="81" height="80" viewBox="0 0 81 80" fill="none" xmlns="http://www.w3.org/2000/svg">
<g id="close-circle">
<path id="Vector" d="M40.5 5C21.1719 5 5.5 20.6719 5.5 40C5.5 59.3281 21.1719 75 40.5 75C59.8281 75 75.5 59.3281 75.5 40C75.5 20.6719 59.8281 5 40.5 5ZM53.4219 53.2969L48.2656 53.2734L40.5 44.0156L32.7422 53.2656L27.5781 53.2891C27.2344 53.2891 26.9531 53.0156 26.9531 52.6641C26.9531 52.5156 27.0078 52.375 27.1016 52.2578L37.2656 40.1484L27.1016 28.0469C27.0072 27.9324 26.9548 27.789 26.9531 27.6406C26.9531 27.2969 27.2344 27.0156 27.5781 27.0156L32.7422 27.0391L40.5 36.2969L48.2578 27.0469L53.4141 27.0234C53.7578 27.0234 54.0391 27.2969 54.0391 27.6484C54.0391 27.7969 53.9844 27.9375 53.8906 28.0547L43.7422 40.1562L53.8984 52.2656C53.9922 52.3828 54.0469 52.5234 54.0469 52.6719C54.0469 53.0156 53.7656 53.2969 53.4219 53.2969Z" fill="#FF4D4F"/>
</g>
</svg>
