<svg width="16" height="16" viewBox="0 0 16 16" fill="none" xmlns="http://www.w3.org/2000/svg">
<g id="Camera">
<path id="Vector" d="M14.2856 3.28906H11.8571L11.2785 1.66763C11.2385 1.55668 11.1653 1.46078 11.0688 1.39302C10.9722 1.32526 10.8571 1.28896 10.7392 1.28906H5.26064C5.01957 1.28906 4.8035 1.44085 4.72314 1.66763L4.14279 3.28906H1.71422C0.92493 3.28906 0.285645 3.92835 0.285645 4.71763V12.8605C0.285645 13.6498 0.92493 14.2891 1.71422 14.2891H14.2856C15.0749 14.2891 15.7142 13.6498 15.7142 12.8605V4.71763C15.7142 3.92835 15.0749 3.28906 14.2856 3.28906ZM14.4285 12.8605C14.4285 12.9391 14.3642 13.0034 14.2856 13.0034H1.71422C1.63564 13.0034 1.57136 12.9391 1.57136 12.8605V4.71763C1.57136 4.63906 1.63564 4.57478 1.71422 4.57478H5.04814L5.3535 3.72121L5.76243 2.57478H10.2356L10.6446 3.72121L10.9499 4.57478H14.2856C14.3642 4.57478 14.4285 4.63906 14.4285 4.71763V12.8605ZM7.99993 5.71763C6.42136 5.71763 5.14279 6.99621 5.14279 8.57478C5.14279 10.1533 6.42136 11.4319 7.99993 11.4319C9.5785 11.4319 10.8571 10.1533 10.8571 8.57478C10.8571 6.99621 9.5785 5.71763 7.99993 5.71763ZM7.99993 10.2891C7.0535 10.2891 6.28565 9.52121 6.28565 8.57478C6.28565 7.62835 7.0535 6.86049 7.99993 6.86049C8.94636 6.86049 9.71422 7.62835 9.71422 8.57478C9.71422 9.52121 8.94636 10.2891 7.99993 10.2891Z" fill="white"/>
</g>
</svg>
