<svg width="15" height="14" viewBox="0 0 15 14" fill="none" xmlns="http://www.w3.org/2000/svg">
<g id="Car" clip-path="url(#clip0_3131_6496)">
<path id="Vector" d="M5.43763 9.99752H9.56263C9.63138 9.99752 9.68763 9.94127 9.68763 9.87252V8.56002C9.68763 8.49127 9.63138 8.43502 9.56263 8.43502H8.93763C8.86888 8.43502 8.81263 8.49127 8.81263 8.56002V9.12252H6.18763V8.56002C6.18763 8.49127 6.13138 8.43502 6.06263 8.43502H5.43763C5.36888 8.43502 5.31263 8.49127 5.31263 8.56002V9.87252C5.31263 9.94127 5.36888 9.99752 5.43763 9.99752ZM10.7501 8.07565C10.7501 8.24141 10.816 8.40038 10.9332 8.51759C11.0504 8.6348 11.2094 8.70065 11.3751 8.70065C11.5409 8.70065 11.6999 8.6348 11.8171 8.51759C11.9343 8.40038 12.0001 8.24141 12.0001 8.07565C12.0001 7.90989 11.9343 7.75092 11.8171 7.63371C11.6999 7.5165 11.5409 7.45065 11.3751 7.45065C11.2094 7.45065 11.0504 7.5165 10.9332 7.63371C10.816 7.75092 10.7501 7.90989 10.7501 8.07565ZM14.4845 5.4569L14.1142 4.81002C14.0975 4.78151 14.0703 4.76074 14.0384 4.75225C14.0065 4.74376 13.9725 4.74824 13.9439 4.76471L13.1517 5.22721L11.9283 1.84908C11.8637 1.64751 11.7367 1.47169 11.5656 1.34699C11.3946 1.22229 11.1884 1.15518 10.9767 1.15533H4.20638C3.66419 1.15533 3.18294 1.50533 3.01575 2.02252L1.85012 5.22877L1.05637 4.76627C1.02776 4.7498 0.993785 4.74532 0.961875 4.75381C0.929964 4.7623 0.90271 4.78307 0.886062 4.81159L0.51575 5.4569C0.481375 5.51627 0.501687 5.59127 0.561062 5.62565L1.50481 6.17565L1.27825 6.80065C1.2595 6.85065 1.25012 6.90377 1.25012 6.9569V12.3975C1.25012 12.6428 1.4345 12.8413 1.66106 12.8413H2.71731C2.9095 12.8413 3.07669 12.696 3.11731 12.4928L3.23762 11.9038H11.7626L11.8829 12.4928C11.9251 12.696 12.0908 12.8413 12.2829 12.8413H13.3392C13.5658 12.8413 13.7501 12.6428 13.7501 12.3975V6.9569C13.7501 6.90377 13.7408 6.85065 13.722 6.80065L13.4954 6.17565L14.4376 5.62565C14.466 5.60927 14.4868 5.58241 14.4956 5.55085C14.5043 5.5193 14.5004 5.48556 14.4845 5.4569ZM12.6251 7.07565V10.7788H2.37513V7.07565L2.61888 6.40377H12.3814L12.6251 7.07565ZM4.07356 2.40533L4.08138 2.38502L4.08763 2.36471C4.10481 2.31315 4.15169 2.27877 4.20638 2.27877H10.8876L12.0658 5.52877H2.93762L4.07356 2.40533ZM3.00012 8.07565C3.00012 8.24141 3.06597 8.40038 3.18318 8.51759C3.30039 8.6348 3.45936 8.70065 3.62513 8.70065C3.79089 8.70065 3.94986 8.6348 4.06707 8.51759C4.18428 8.40038 4.25013 8.24141 4.25013 8.07565C4.25013 7.90989 4.18428 7.75092 4.06707 7.63371C3.94986 7.5165 3.79089 7.45065 3.62513 7.45065C3.45936 7.45065 3.30039 7.5165 3.18318 7.63371C3.06597 7.75092 3.00012 7.90989 3.00012 8.07565Z" fill="#513FAD"/>
</g>
<defs>
<clipPath id="clip0_3131_6496">
<rect width="14" height="14" fill="white" transform="translate(0.5)"/>
</clipPath>
</defs>
</svg>
