<svg width="11" height="10" viewBox="0 0 11 10" fill="none" xmlns="http://www.w3.org/2000/svg">
<g id="Group">
<path id="Vector" d="M0.499898 4.99804C0.507679 2.23105 2.75239 -0.0068536 5.51306 -4.55429e-05C8.25913 0.00627622 10.5111 2.26704 10.5 5.00533C10.4888 7.79323 8.2392 10.0156 5.44303 10.002C2.72808 9.98883 0.492118 7.72564 0.499898 4.99804ZM5.48096 9.09211C7.74367 9.09843 9.58184 7.26998 9.58962 5.00533C9.5974 2.76646 7.76555 0.917096 5.53348 0.910775C3.263 0.903967 1.41655 2.72123 1.40975 4.96983C1.40294 7.24421 3.22166 9.08579 5.48096 9.09211Z" fill="#EBF6FE"/>
<path id="Vector_2" d="M5.04865 3.6384C5.04865 3.17691 5.04525 2.71591 5.05011 2.25442C5.05254 2.03267 5.22372 1.85031 5.43477 1.826C5.6677 1.79876 5.87291 1.92763 5.93321 2.14743C5.95072 2.21114 5.95169 2.28068 5.95169 2.3473C5.95267 3.12828 5.95364 3.90877 5.95072 4.68975C5.95072 4.77437 5.9726 4.83467 6.03388 4.89448C6.41026 5.26552 6.78228 5.64142 7.15672 6.01489C7.28121 6.1389 7.34005 6.28478 7.29969 6.45888C7.21994 6.80074 6.8168 6.92912 6.55372 6.69521C6.45306 6.60573 6.36164 6.50605 6.26632 6.41073C5.91765 6.06206 5.57044 5.71145 5.21934 5.36521C5.10069 5.2485 5.04428 5.11574 5.04622 4.94797C5.05108 4.51129 5.04768 4.07508 5.04768 3.6384H5.04865Z" fill="#EBF6FE"/>
</g>
</svg>
