<svg width="13" height="12" viewBox="0 0 13 12" fill="none" xmlns="http://www.w3.org/2000/svg">
<g id="Group">
<path id="Vector" d="M0.499883 5.9976C0.50922 2.67721 3.20287 -0.00827314 6.51567 -0.00010348C9.81097 0.00748264 12.5134 2.72039 12.5 6.00635C12.4865 9.35183 9.78704 12.0186 6.43164 12.0023C3.1737 11.9865 0.490546 9.27071 0.499883 5.9976ZM6.47716 10.9105C9.19241 10.9181 11.3982 8.72393 11.4076 6.00635C11.4169 3.3197 9.21867 1.10047 6.54018 1.09288C3.8156 1.08471 1.59987 3.26543 1.5917 5.96375C1.58353 8.693 3.766 10.9029 6.47716 10.9105Z" fill="#4B515C"/>
<path id="Vector_2" d="M5.95839 4.36598C5.95839 3.81219 5.9543 3.25899 5.96014 2.7052C5.96305 2.4391 6.16846 2.22027 6.42172 2.1911C6.70124 2.15842 6.9475 2.31306 7.01986 2.57682C7.04087 2.65327 7.04203 2.73671 7.04203 2.81666C7.0432 3.75384 7.04437 4.69043 7.04087 5.62761C7.04087 5.72914 7.06713 5.8015 7.14065 5.87328C7.59232 6.31853 8.03873 6.76961 8.48806 7.21777C8.63745 7.36658 8.70806 7.54164 8.65963 7.75055C8.56393 8.16079 8.08016 8.31484 7.76446 8.03416C7.64367 7.92678 7.53396 7.80716 7.41959 7.69278C7.00119 7.27438 6.58453 6.85364 6.16321 6.43815C6.02083 6.2981 5.95313 6.13879 5.95547 5.93747C5.9613 5.41345 5.95722 4.89 5.95722 4.36598H5.95839Z" fill="#4B515C"/>
</g>
</svg>
