<svg width="30" height="30" viewBox="0 0 30 30" fill="none" xmlns="http://www.w3.org/2000/svg">
<g id="CloseCircle" clip-path="url(#clip0_1848_3982)">
<g id="Vector" opacity="0.9">
<path d="M20.5453 9.5838C20.5453 9.43832 20.4262 9.31929 20.2808 9.31929L18.0986 9.32921L14.812 13.2472L11.5288 9.33252L9.34331 9.3226C9.19783 9.3226 9.0788 9.43832 9.0788 9.58711C9.0788 9.64993 9.10195 9.70944 9.14162 9.75904L13.4432 14.8839L9.14162 20.0054C9.10167 20.0539 9.0795 20.1146 9.0788 20.1774C9.0788 20.3229 9.19783 20.4419 9.34331 20.4419L11.5288 20.432L14.812 16.5139L18.0953 20.4287L20.2775 20.4386C20.4229 20.4386 20.542 20.3229 20.542 20.1741C20.542 20.1113 20.5188 20.0517 20.4791 20.0021L16.1842 14.8806L20.4858 9.75573C20.5254 9.70944 20.5453 9.64662 20.5453 9.5838Z" fill="white"/>
<path d="M14.8125 0C6.63256 0 0 6.63256 0 14.8125C0 22.9924 6.63256 29.625 14.8125 29.625C22.9924 29.625 29.625 22.9924 29.625 14.8125C29.625 6.63256 22.9924 0 14.8125 0ZM14.8125 27.1122C8.02123 27.1122 2.51283 21.6038 2.51283 14.8125C2.51283 8.02123 8.02123 2.51283 14.8125 2.51283C21.6038 2.51283 27.1122 8.02123 27.1122 14.8125C27.1122 21.6038 21.6038 27.1122 14.8125 27.1122Z" fill="white"/>
</g>
</g>
<defs>
<clipPath id="clip0_1848_3982">
<rect width="29.625" height="29.625" fill="white"/>
</clipPath>
</defs>
</svg>
