<svg width="12" height="12" viewBox="0 0 12 12" fill="none" xmlns="http://www.w3.org/2000/svg">
<g id="wrapper">
<path id="Union" d="M9.76806 10.3334C9.62361 10.3334 9.47917 10.2769 9.36613 10.1702L5.99994 6.80397L2.63376 10.1702C2.41395 10.39 2.05598 10.39 1.83617 10.1702C1.61637 9.95035 1.61637 9.59238 1.83617 9.37257L5.20236 6.00011L1.82989 2.63392C1.61009 2.41412 1.61009 2.05615 1.82989 1.83006C2.0497 1.60397 2.41395 1.61025 2.63376 1.83006L5.99994 5.20252L9.36613 1.83006C9.58593 1.61025 9.9439 1.61025 10.1637 1.83006C10.3835 2.04987 10.3835 2.40784 10.1637 2.62764L6.79753 5.99383L10.1637 9.36001C10.3835 9.57982 10.3835 9.93779 10.1637 10.1576C10.0507 10.2706 9.90622 10.3209 9.76178 10.3209L9.76806 10.3334Z" fill="#BBBEC2"/>
</g>
</svg>
