<svg width="25" height="24" viewBox="0 0 25 24" fill="none" xmlns="http://www.w3.org/2000/svg">
<g id="Edit">
<path id="Vector" d="M16.4775 22.6667H5.91788C4.16801 22.6667 2.75 21.2487 2.75 19.4988V8.93917C2.75 7.18929 4.16801 5.77129 5.91788 5.77129H10.6949C11.1977 5.77129 11.6 6.17356 11.6 6.6764C11.6 7.17924 11.1977 7.58151 10.6949 7.58151H5.91788C5.17368 7.58151 4.56022 8.19497 4.56022 8.93917V19.4988C4.56022 20.243 5.17368 20.8564 5.91788 20.8564H16.4775C17.2217 20.8564 17.8352 20.243 17.8352 19.4988V14.7218C17.8352 14.219 18.2374 13.8167 18.7403 13.8167C19.2431 13.8167 19.6454 14.219 19.6454 14.7218V19.4988C19.6454 21.2487 18.2274 22.6667 16.4775 22.6667ZM6.67214 19.6496C6.43078 19.6496 6.20953 19.5591 6.02851 19.3882C5.7972 19.1569 5.70669 18.8049 5.7972 18.4931L6.60174 15.7878C6.85316 14.923 7.32583 14.1385 7.96947 13.4949L18.6498 2.8146C19.7359 1.72847 21.5059 1.72847 22.592 2.8146C23.6781 3.90073 23.6781 5.67072 22.592 6.75685L11.9218 17.4472C11.2882 18.0808 10.4937 18.5534 9.62883 18.8149L6.92356 19.6195C6.84311 19.6496 6.7526 19.6597 6.66209 19.6597L6.67214 19.6496ZM17.5938 6.43504L9.25673 14.7721C8.83435 15.1945 8.52259 15.7275 8.35162 16.3007L8.01975 17.3969L9.11594 17.0751C9.68917 16.9041 10.2222 16.5924 10.6446 16.1599L18.9816 7.82287L17.5938 6.43504ZM18.871 5.15783L20.2588 6.54566L21.3148 5.4897C21.697 5.10754 21.697 4.48402 21.3148 4.10187C20.9326 3.71971 20.3091 3.71971 19.927 4.10187L18.871 5.15783Z" fill="#917FDD"/>
</g>
</svg>
