<svg width="22" height="22" viewBox="0 0 22 22" fill="none" xmlns="http://www.w3.org/2000/svg">
<g id="edit">
<path id="Vector" d="M18.9238 3.07622C18.6305 2.78298 18.2327 2.61825 17.8179 2.61825C17.4031 2.61825 17.0053 2.783 16.712 3.07627C16.712 3.07628 16.712 3.07629 16.7119 3.07631L16.2112 3.57706L18.4231 5.78896L18.9238 5.2882C18.9238 5.28819 18.9239 5.28817 18.9239 5.28816C19.2171 4.99482 19.3819 4.59701 19.3819 4.18221C19.3819 3.76744 19.2172 3.36964 18.9239 3.07631C18.9239 3.07628 18.9239 3.07625 18.9238 3.07622ZM18.9238 3.07622L19.4247 2.5754L18.9238 3.07622ZM7.51942 12.2688L7.51955 12.2687L14.2909 5.49735L16.5028 7.70924L9.73144 14.4806L9.73132 14.4807C9.28052 14.9317 8.72441 15.2633 8.11328 15.4454L5.89329 16.1069L6.55474 13.8869C6.55474 13.8869 6.55474 13.8869 6.55474 13.8868C6.73685 13.2757 7.0684 12.7196 7.51942 12.2688Z" fill="white" stroke="white" stroke-width="1.41667"/>
<path id="Vector_2" d="M5.15582 5.15625C4.46699 5.15625 3.80638 5.42989 3.3193 5.91696C2.83223 6.40403 2.55859 7.06465 2.55859 7.75347V16.8437C2.55859 17.5326 2.83223 18.1932 3.3193 18.6803C3.80638 19.1673 4.46699 19.441 5.15582 19.441H14.2461C14.9349 19.441 15.5955 19.1673 16.0826 18.6803C16.5697 18.1932 16.8433 17.5326 16.8433 16.8437V12.2986C16.8433 12.1264 16.7749 11.9613 16.6531 11.8395C16.5314 11.7177 16.3662 11.6493 16.194 11.6493C16.0218 11.6493 15.8567 11.7177 15.7349 11.8395C15.6131 11.9613 15.5447 12.1264 15.5447 12.2986V16.8437C15.5447 17.1882 15.4079 17.5185 15.1644 17.762C14.9208 18.0055 14.5905 18.1424 14.2461 18.1424H5.15582C4.8114 18.1424 4.4811 18.0055 4.23756 17.762C3.99402 17.5185 3.8572 17.1882 3.8572 16.8437V7.75347C3.8572 7.40906 3.99402 7.07875 4.23756 6.83522C4.4811 6.59168 4.8114 6.45486 5.15582 6.45486H9.70096C9.87316 6.45486 10.0383 6.38645 10.1601 6.26468C10.2819 6.14292 10.3503 5.97776 10.3503 5.80556C10.3503 5.63335 10.2819 5.4682 10.1601 5.34643C10.0383 5.22466 9.87316 5.15625 9.70096 5.15625H5.15582Z" fill="white"/>
</g>
</svg>
