<svg width="32" height="32" viewBox="0 0 32 32" fill="none" xmlns="http://www.w3.org/2000/svg">
<path d="M19.1116 31.9962V20.5131H22.2411C22.4802 19.004 22.7111 17.5197 22.9503 15.9982H18.221C18.2086 15.8869 18.1963 15.8045 18.1963 15.722C18.1963 14.7737 18.188 13.8253 18.1963 12.877C18.2086 11.5988 18.9797 10.7082 20.2455 10.6092C21.2309 10.535 22.2246 10.5639 23.2142 10.5474C23.342 10.5474 23.4657 10.5474 23.6059 10.5474V6.58502C23.0039 6.51493 22.4101 6.42834 21.8123 6.37474C20.5135 6.26341 19.2106 6.18507 17.9241 6.51905C15.6399 7.10867 14.1308 8.75794 13.8051 11.0875C13.7061 11.7885 13.6896 12.5018 13.6731 13.211C13.6525 14.1139 13.669 15.0169 13.669 15.9611H10.0489V20.4843H13.6484V31.9756C6.95647 31.1097 0.0831283 25.3331 0.00066468 16.1343C-0.0776757 7.39317 6.77917 0.437362 15.174 0.0209213C24.1707 -0.428505 31.2997 6.42422 31.9471 14.6665C32.7263 24.5373 25.4242 30.8005 19.1075 31.9962H19.1116Z" fill="#513FAD"/>
</svg>
