<svg width="101" height="94" viewBox="0 0 101 94" fill="none" xmlns="http://www.w3.org/2000/svg">
<g id="illustration" clip-path="url(#clip0_2710_62646)">
<path id="Vector" opacity="0.18" d="M100.5 56.9567C100.5 58.9749 100.284 60.9869 99.8546 62.9561C96.0396 80.5629 75.7044 94 51.197 94C41.0862 94 31.6868 91.7123 23.8652 87.7906C18.4678 85.0845 13.8203 81.6001 10.2092 77.549C8.67387 76.0487 7.32266 74.3605 6.18575 72.5221C-4.18424 55.9526 -0.295686 26.3865 17.2488 26.6327C19.3417 26.6752 21.4348 26.565 23.5125 26.3028C28.4422 25.6476 31.4322 24.113 33.2431 22.4489C33.6876 22.0418 34.0928 21.5913 34.4529 21.1038C36.9732 17.6545 40.689 15.3397 44.826 14.6418C81.4207 8.60604 94.747 27.3906 98.8778 43.218C100 47.4857 100.542 51.8931 100.486 56.3141C100.497 56.5273 100.5 56.742 100.5 56.9567Z" fill="#6B56CA"/>
<path id="Vector_2" opacity="0.05" d="M26.8385 80.9908L7.31288 74.202C7.31288 74.202 0.127634 65.0244 0.527837 49.5901L29.5847 61.8368C29.5847 61.8368 42.2194 58.0982 49.7466 57.7241C57.2738 57.3499 90.6439 53.7423 90.6439 53.7423C90.6439 53.7423 97.0839 61.3442 94.2196 63.6698C91.3554 65.9954 70.7396 66.3869 70.7396 66.3869L56.4028 57.7351L44.3523 67.3279L35.1522 76.2544L26.8385 80.9908Z" fill="#000405"/>
<path id="Vector_3" d="M58.8477 46.9109L58.541 47.7129C58.541 47.7129 59.461 48.5513 58.8477 48.9112C58.8477 48.9112 62.0401 48.7076 58.8477 46.9109Z" fill="#3F3D56"/>
<path id="Vector_4" d="M22.3613 72.8835L21.9902 73.9666L25.0324 75.4333C25.0324 75.4333 27.8599 75.7996 28.7293 75.0323C29.2567 74.5537 29.6421 73.9315 29.8409 73.2372L22.3613 72.8835Z" fill="#333333"/>
<path id="Vector_5" d="M30.3395 62.7224C30.3395 62.7224 33.9244 62.6577 34.9732 63.9981C36.022 65.3385 32.2531 69.3076 32.2531 69.3076L23.5605 69.9391L30.3395 62.7224Z" fill="#6B56CA"/>
<path id="Vector_6" d="M30.3395 62.7224C30.3395 62.7224 33.9244 62.6577 34.9732 63.9981C36.022 65.3385 32.2531 69.3076 32.2531 69.3076L23.5605 69.9391L30.3395 62.7224Z" fill="url(#paint0_linear_2710_62646)"/>
<path id="Vector_7" d="M30.2104 68.4771C30.2104 68.4771 37.7421 69.1766 39.0516 69.6739C41.5264 70.6322 40.7904 74.2129 39.6649 74.595C38.7311 74.9186 31.6287 77.5947 29.3578 78.452C29.1696 78.522 28.9624 78.515 28.779 78.4325C28.5955 78.35 28.4498 78.1982 28.3719 78.0083L27.5929 76.0964C27.5502 75.9917 27.5293 75.879 27.5317 75.7655C27.534 75.6519 27.5595 75.5402 27.6065 75.4375C27.6535 75.3347 27.7209 75.2433 27.8044 75.1692C27.8879 75.095 27.9857 75.0398 28.0913 75.0071L32.5594 73.6382C32.5594 73.6382 25.9262 74.3266 24.5861 74.0203C21.619 73.3509 18.6934 69.4418 20.2513 66.0284C21.8092 62.6151 30.2104 68.4771 30.2104 68.4771Z" fill="#6B56CA"/>
<path id="Vector_8" d="M30.2104 68.4771C30.2104 68.4771 37.7421 69.1766 39.0516 69.6739C41.5264 70.6322 40.7904 74.2129 39.6649 74.595C38.7311 74.9186 31.6287 77.5947 29.3578 78.452C29.1696 78.522 28.9624 78.515 28.779 78.4325C28.5955 78.35 28.4498 78.1982 28.3719 78.0083L27.5929 76.0964C27.5502 75.9917 27.5293 75.879 27.5317 75.7655C27.534 75.6519 27.5595 75.5402 27.6065 75.4375C27.6535 75.3347 27.7209 75.2433 27.8044 75.1692C27.8879 75.095 27.9857 75.0398 28.0913 75.0071L32.5594 73.6382C32.5594 73.6382 25.9262 74.3266 24.5861 74.0203C21.619 73.3509 18.6934 69.4418 20.2513 66.0284C21.8092 62.6151 30.2104 68.4771 30.2104 68.4771Z" fill="url(#paint1_linear_2710_62646)"/>
<path id="Vector_9" d="M49.8852 49.1794L49.5371 50.5814L51.3219 52.2092C51.3219 52.2092 50.8113 52.2092 50.4019 53.0301L50.2394 54.8252C50.2394 54.8252 51.4385 57.4965 54.7474 55.1615L60.1141 60.0463L72.0174 55.7299L72.272 54.0595L49.8852 49.1794Z" fill="#3F3D56"/>
<path id="Vector_10" d="M82.1574 50.52L76.2356 48.125C75.8702 47.9142 75.4607 47.7975 75.0421 47.7848C74.6235 47.7722 74.2081 47.864 73.8313 48.0523C73.4977 48.2148 73.2135 48.468 73.0095 48.7847C72.8055 49.1013 72.6893 49.4694 72.6736 49.849C72.4697 52.1541 73.6749 62.7636 73.6749 62.7636C74.1193 62.9407 74.5826 63.0631 75.0549 63.1283C75.4692 63.2132 75.8966 63.2037 76.3069 63.1003C76.7173 62.9969 77.1006 62.8022 77.4301 62.5299L77.5451 54.5491C77.5451 54.5491 84.2197 58.7945 86.601 58.4408C89.2659 58.0461 93.5532 55.7948 90.6567 50.5737C87.7602 45.3526 82.1574 50.52 82.1574 50.52Z" fill="#6B56CA"/>
<path id="Vector_11" d="M82.1574 50.52L76.2356 48.125C75.8702 47.9142 75.4607 47.7975 75.0421 47.7848C74.6235 47.7722 74.2081 47.864 73.8313 48.0523C73.4977 48.2148 73.2135 48.468 73.0095 48.7847C72.8055 49.1013 72.6893 49.4694 72.6736 49.849C72.4697 52.1541 73.6749 62.7636 73.6749 62.7636C74.1193 62.9407 74.5826 63.0631 75.0549 63.1283C75.4692 63.2132 75.8966 63.2037 76.3069 63.1003C76.7173 62.9969 77.1006 62.8022 77.4301 62.5299L77.5451 54.5491C77.5451 54.5491 84.2197 58.7945 86.601 58.4408C89.2659 58.0461 93.5532 55.7948 90.6567 50.5737C87.7602 45.3526 82.1574 50.52 82.1574 50.52Z" fill="url(#paint2_linear_2710_62646)"/>
<path id="Vector_12" d="M77.2506 36.4812C77.2506 36.4812 75.5117 42.1807 75.0425 43.4027C74.5733 44.6246 66.3516 45.6414 66.3516 45.6414L66.6582 49.2995L76.0208 48.1027L78.836 43.911L77.2506 36.4812Z" fill="#6B56CA"/>
<path id="Vector_13" opacity="0.61" d="M77.2506 36.4812C77.2506 36.4812 75.5117 42.1807 75.0425 43.4027C74.5733 44.6246 66.3516 45.6414 66.3516 45.6414L66.6582 49.2995L76.0208 48.1027L78.836 43.911L77.2506 36.4812Z" fill="url(#paint3_linear_2710_62646)"/>
<path id="Vector_14" d="M81.9333 34.59L83.8392 35.6793C87.3797 37.3071 88.6662 40.9304 90.6595 50.599C90.6595 50.599 88.9851 54.4544 82.8211 51.862C82.8211 51.862 78.6381 45.5689 77.9481 43.2102C77.2581 40.8515 75.5208 36.7924 78.7148 35.2404C81.9087 33.6885 81.9333 34.59 81.9333 34.59Z" fill="#6B56CA"/>
<path id="Vector_15" opacity="0.05" d="M86.0188 42.8911L88.3403 51.9108C88.3403 51.9108 85.9713 53.398 82.805 51.8571C79.6386 50.3162 80.7595 48.7832 79.7383 46.9107L82.8402 45.1741L86.0188 42.8911Z" fill="#000405"/>
<path id="Vector_16" d="M81.6642 34.2C81.5451 34.4656 81.3762 34.7044 81.1674 34.9028C80.9585 35.1011 80.7137 35.2552 80.4469 35.3561C80.1802 35.4569 79.8968 35.5027 79.6128 35.4907C79.3289 35.4787 79.0501 35.4092 78.7923 35.2862L78.7033 35.242C78.7033 35.242 76.9124 38.458 79.47 38.0743C80.8255 37.8707 82.0123 35.793 82.2392 34.7399L81.6642 34.2Z" fill="#333333"/>
<path id="Vector_17" d="M81.7784 31.6201C81.7784 31.6564 81.6972 33.2431 81.6343 34.3862C81.5884 35.2706 81.2198 36.1046 80.6024 36.7212C80.2445 37.1039 79.8146 37.4075 79.3389 37.6132C79.2241 37.6572 79.0998 37.6676 78.9797 37.6434C78.8595 37.6192 78.7482 37.5612 78.6581 37.4759C78.5676 37.3901 78.5018 37.2804 78.4677 37.1588C78.4336 37.0371 78.4327 36.9081 78.4649 36.7859C78.5262 36.5475 78.5875 36.2728 78.6366 35.9855C78.7378 35.3887 78.7899 34.743 78.6259 34.2867C78.6212 34.2696 78.6156 34.2527 78.609 34.2362C78.517 34.0009 78.609 33.7436 78.8252 33.4847C79.1227 33.1216 79.644 32.7537 80.1654 32.4427C80.6879 32.138 81.2264 31.8634 81.7784 31.6201Z" fill="url(#paint4_linear_2710_62646)"/>
<path id="Vector_18" d="M78.9793 35.8639C78.873 35.9193 78.7602 35.9602 78.6435 35.9855C78.7447 35.3887 78.7969 34.7429 78.6328 34.2867L78.8321 33.4846L78.9855 32.8879L80.1784 32.4426L81.3852 31.9927C81.0846 34.1998 79.9392 35.4013 78.9793 35.8639Z" fill="url(#paint5_linear_2710_62646)"/>
<path id="Vector_19" d="M78.6749 25.3334C77.768 25.3891 76.9196 25.8131 76.3159 26.5122C75.7122 27.2114 75.4025 28.1286 75.4549 29.0625C75.4549 29.1525 75.4687 29.2425 75.481 29.3325C75.5882 30.7654 75.9456 32.1667 76.5359 33.4689C77.6537 35.433 80.4751 33.8163 80.9213 33.0079C81.3675 32.1996 83.0542 28.5415 82.3473 27.5011C81.8796 26.7938 80.5058 25.2592 78.6749 25.3334Z" fill="url(#paint6_linear_2710_62646)"/>
<path id="Vector_20" d="M75.6961 23.944L76.2757 24.2503C75.9299 24.242 75.5871 24.3186 75.2757 24.4737C74.9643 24.6288 74.6932 24.858 74.4848 25.1423C73.9555 25.6875 73.654 26.424 73.6445 27.1948L74.6305 26.7211C74.6305 26.7211 74.5553 27.9715 76.4199 28.0678C78.2844 28.1641 80.2609 28.2415 80.2609 28.2415L79.6322 27.3384C79.6322 27.3384 80.7899 27.8121 80.9938 28.2604C81.1767 28.9683 81.3079 29.6891 81.3864 30.4171C81.3864 30.4171 81.8464 29.1825 82.0411 29.4524C82.2358 29.7224 81.8387 30.8418 81.5949 31.0865C81.3511 31.3312 81.3925 32.0685 81.3695 32.1285C81.3465 32.1885 82.5287 31.1812 82.5808 30.8355C82.633 30.4897 83.8075 26.9864 83.0409 26.257L83.5009 26.2222C83.2254 26.0293 82.9107 25.904 82.5808 25.8559C82.5808 25.8559 79.531 21.7053 75.6961 23.944Z" fill="#333333"/>
<path id="Vector_21" d="M66.3398 46.0994C65.7496 45.9931 65.1694 45.8346 64.6056 45.6258C63.7021 45.3842 62.7776 45.2356 61.8456 45.1821C61.8456 45.1821 61.6662 45.8136 62.1522 45.9431C62.6383 46.0726 63.1949 46.2841 63.1949 46.2841L61.1678 46.4941L59.291 46.7578C59.291 46.7578 59.4704 47.3893 59.9749 47.3893C60.1208 47.6613 60.3172 47.9011 60.553 48.095C60.9098 48.4274 61.241 48.7879 61.5435 49.1733C61.7982 49.3804 62.0695 49.5648 62.3546 49.7243C62.4589 49.7243 66.4103 49.2507 66.648 48.8623L66.3398 46.0994Z" fill="url(#paint7_linear_2710_62646)"/>
<path id="Vector_22" d="M82.8237 51.8618C82.8237 51.8618 83.4371 55.0052 84.3463 55.7962C84.3463 55.7962 78.3847 60.5862 78.1072 64.0517C77.7192 68.8418 92.3887 61.4135 92.3887 61.4135L91.3736 58.7675L85.0133 61.6709C85.0133 61.6709 88.8835 58.9774 90.8124 56.2824C92.3243 54.1447 91.5024 52.1776 90.6591 50.6493C90.6438 50.5988 86.9929 53.7058 82.8237 51.8618Z" fill="#6B56CA"/>
<path id="Vector_23" d="M82.8237 51.8618C82.8237 51.8618 83.4371 55.0052 84.3463 55.7962C84.3463 55.7962 78.3847 60.5862 78.1072 64.0517C77.7192 68.8418 92.3887 61.4135 92.3887 61.4135L91.3736 58.7675L85.0133 61.6709C85.0133 61.6709 88.8835 58.9774 90.8124 56.2824C92.3243 54.1447 91.5024 52.1776 90.6591 50.6493C90.6438 50.5988 86.9929 53.7058 82.8237 51.8618Z" fill="url(#paint8_linear_2710_62646)"/>
<path id="Vector_24" d="M91.3574 58.7659L92.4584 58.376L93.0027 59.8616L91.7868 60.7173L91.3574 58.7659Z" fill="url(#paint9_linear_2710_62646)"/>
<path id="Vector_25" d="M75.1726 63.7818L75.0684 63.1235C75.4829 63.1911 75.9065 63.1725 76.3139 63.0686C76.7213 62.9647 77.1044 62.7778 77.4404 62.5188L77.5048 63.5971C77.1596 63.8199 76.7671 63.9531 76.3608 63.9853C75.9546 64.0174 75.5469 63.9476 75.1726 63.7818Z" fill="url(#paint10_linear_2710_62646)"/>
<path id="Vector_26" d="M75.1455 63.5796L72.5388 64.549C72.5388 64.549 71.0898 64.1843 70.8 65.0226C70.61 65.4528 70.5912 65.9425 70.7479 66.3867C70.7479 66.3867 71.4317 67.0182 73.1353 66.6504C74.8388 66.2825 77.6249 65.3873 77.6249 65.3873L77.5206 63.6333C77.1463 63.8089 76.7383 63.8952 76.3271 63.8859C75.9159 63.8767 75.512 63.7719 75.1455 63.5796Z" fill="#333333"/>
<path id="Vector_27" d="M92.6657 58.0351C92.6657 58.0351 92.0109 58.3114 92.0861 58.4898C92.1612 58.6682 92.3928 58.2751 92.9785 59.8681L92.6028 60.1507L93.4186 61.9458C93.2042 62.1124 93.0341 62.332 92.9239 62.5842C92.8138 62.8364 92.7671 63.1131 92.7884 63.3888C92.8696 63.8262 93.6225 63.8861 94.2251 63.6714C94.8277 63.4567 95.0884 62.0784 95.0884 62.0784C95.0884 62.0784 94.6943 58.774 93.8832 58.223C93.072 57.672 92.6657 58.0351 92.6657 58.0351Z" fill="#333333"/>
<path id="Vector_28" d="M73.0083 54.6768L60.7017 58.6696L55.059 53.8448C52.785 56.2383 50.048 54.4432 50.4237 53.0459C50.7993 51.6487 53.3217 52.1539 53.3217 52.1539L49.9023 49.1968L56.2994 47.5391C56.3393 47.7712 56.6061 48.8969 58.1594 48.9868C59.8967 49.0895 60.2907 47.6338 58.8479 46.9218L62.9051 45.834L73.0083 54.6768Z" fill="#6B56CA"/>
<path id="Vector_29" opacity="0.05" d="M69.7204 53.1091C69.6363 53.1323 69.5568 53.1708 69.4858 53.2228C69.4202 53.2876 69.3616 53.3596 69.311 53.4375C69.0841 53.728 68.7146 53.8432 68.3788 53.9806C67.9993 54.135 67.6389 54.3353 67.3054 54.5774C67.2553 54.6067 67.216 54.6522 67.1935 54.7068C67.1429 54.8758 67.3974 54.9594 67.4833 55.1126C67.5086 55.1702 67.5171 55.2341 67.5079 55.2966C67.4986 55.3591 67.472 55.4174 67.4311 55.4647C67.3486 55.5578 67.2505 55.6348 67.1413 55.692C66.5573 56.0591 66.0472 56.5382 65.6387 57.1034C67.4938 56.1098 69.4277 55.2806 71.4194 54.6247C71.5745 54.5849 71.72 54.5129 71.8472 54.4132C71.91 54.3623 71.9562 54.2928 71.9795 54.214C72.0028 54.1353 72.0021 54.051 71.9775 53.9727C71.9438 53.8953 72.0618 53.8748 72.0005 53.8148C71.7015 53.5401 71.1986 53.0807 70.7984 52.7444C70.8045 52.7475 70.0348 53.0017 69.7204 53.1091Z" fill="#000405"/>
<path id="Vector_30" d="M86.0738 37.386C85.8552 37.1211 85.5718 36.9212 85.2529 36.8072C84.9339 36.6932 84.5912 36.6691 84.2602 36.7376C83.9292 36.8061 83.6221 36.9646 83.3707 37.1966C83.1194 37.4286 82.9329 37.7257 82.8307 38.057C82.7203 38.4217 82.6038 38.859 82.4888 39.3974C81.8755 42.3071 79.0986 48.6349 79.0986 48.6349L71.0332 53.1203L73.2412 56.03L82.6866 51.24C82.6866 51.24 86.8696 41.7261 86.7944 39.9121C86.8191 39.0129 86.5668 38.1286 86.0738 37.386Z" fill="#6B56CA"/>
<path id="Vector_31" opacity="0.61" d="M86.0738 37.386C85.8552 37.1211 85.5718 36.9212 85.2529 36.8072C84.9339 36.6932 84.5912 36.6691 84.2602 36.7376C83.9292 36.8061 83.6221 36.9646 83.3707 37.1966C83.1194 37.4286 82.9329 37.7257 82.8307 38.057C82.7203 38.4217 82.6038 38.859 82.4888 39.3974C81.8755 42.3071 79.0986 48.6349 79.0986 48.6349L71.0332 53.1203L73.2412 56.03L82.6866 51.24C82.6866 51.24 86.8696 41.7261 86.7944 39.9121C86.8191 39.0129 86.5668 38.1286 86.0738 37.386Z" fill="url(#paint11_linear_2710_62646)"/>
<path id="Vector_32" d="M71.7231 53.5276C71.1403 53.689 70.5453 53.7988 69.9444 53.856C69.0254 54.0277 68.1251 54.2921 67.2564 54.6454C67.2564 54.6454 67.3484 55.2927 67.836 55.2027C68.3236 55.1127 68.9186 55.0717 68.9186 55.0717L67.1813 56.1437L65.582 57.1967C65.582 57.1967 65.9991 57.694 66.456 57.4714C66.7014 57.6547 66.9789 57.7871 67.2733 57.8614C67.7303 58.0078 68.1757 58.1899 68.6058 58.4061C68.9215 58.4843 69.2431 58.5345 69.5672 58.5561C69.6607 58.5134 73.0847 56.3584 73.1077 55.91L71.7231 53.5276Z" fill="url(#paint12_linear_2710_62646)"/>
<path id="Vector_33" d="M44.776 52.3718L47.72 53.5686V55.3652C47.72 55.3652 44.1933 55.4426 44.1933 57.0166C44.1933 58.5907 47.5192 59.8253 49.7486 57.7239L54.824 60.7237L54.64 62.2614L39.2084 68.0098L30.3672 56.903V55.1079L44.776 52.3718Z" fill="#3F3D56"/>
<path id="Vector_34" d="M44.776 50.5989L47.7262 53.5623C47.7262 53.5623 44.1995 53.6412 44.1995 55.2153C44.1995 56.7893 47.5253 58.024 49.7548 55.921L54.8301 60.7111L39.371 66.3221L30.3672 55.1379L36.4331 53.2276C36.4331 53.2276 34.5041 51.8919 36.358 50.9999C36.7004 50.8266 37.0722 50.7232 37.4528 50.6952C38.9079 50.6352 39.1394 51.4072 39.3311 52.2519V52.3182L44.776 50.5989Z" fill="#6B56CA"/>
<path id="Vector_35" opacity="0.05" d="M32.8179 54.366C32.8179 54.366 35.2713 59.857 36.4382 60.768C37.0883 61.2764 41.5825 62.7857 45.399 62.9988C45.7563 63.0194 46.8726 61.9537 47.4 62.0942C48.1667 62.301 47.2605 63.0099 47.4384 63.0194C49.7384 63.1315 51.0126 62.0942 51.0126 62.0942L38.8992 66.5969L30.7832 54.6138L32.8179 54.366Z" fill="#000405"/>
<path id="Vector_36" d="M44.6364 64.1954C45.0474 63.6418 45.5175 63.1377 46.0379 62.6924C46.4635 62.4307 46.9216 62.2294 47.3995 62.094C47.3995 62.094 47.6142 62.765 47.2462 62.8913C46.8782 63.0176 46.6666 63.6807 46.6666 63.6807C46.6666 63.6807 49.3438 64.208 49.6673 64.0454C49.9909 63.8828 50.0215 64.399 49.3898 64.4953C48.7581 64.5916 48.7765 65.5247 48.3471 65.6005C47.9178 65.6763 47.2814 66.0978 46.6497 66.2541C45.9175 66.319 45.1803 66.2839 44.457 66.1499L44.6364 64.1954Z" fill="url(#paint13_linear_2710_62646)"/>
<path id="Vector_37" d="M32.3546 56.2272C32.7018 54.2831 32.4711 52.2764 31.6928 50.4694C30.9145 48.6624 29.6248 47.1393 27.9923 46.0992C27.411 45.6892 26.7446 45.4248 26.0465 45.3272C23.242 45.1598 20.252 66.0252 20.252 66.0252C20.252 66.0252 21.6028 70.0669 25.6923 70.4553C29.4704 70.8153 30.2064 68.4739 30.2064 68.4739L32.3546 56.2272Z" fill="#6B56CA"/>
<path id="Vector_38" opacity="0.61" d="M32.3546 56.2272C32.7018 54.2831 32.4711 52.2764 31.6928 50.4694C30.9145 48.6624 29.6248 47.1393 27.9923 46.0992C27.411 45.6892 26.7446 45.4248 26.0465 45.3272C23.242 45.1598 20.252 66.0252 20.252 66.0252C20.252 66.0252 21.6028 70.0669 25.6923 70.4553C29.4704 70.8153 30.2064 68.4739 30.2064 68.4739L32.3546 56.2272Z" fill="url(#paint14_linear_2710_62646)"/>
<path id="Vector_39" d="M26.0449 45.3241C26.0449 45.3241 26.4559 42.176 26.6245 40.1283C26.7932 38.0806 27.4464 35.3382 30.7845 35.6966C34.1226 36.055 34.121 41.254 33.1934 43.4327C32.2657 45.6115 31.0329 45.5404 31.0329 45.5404C31.0329 45.5404 29.3707 45.1631 29.4275 47.2234L26.0449 45.3241Z" fill="url(#paint15_linear_2710_62646)"/>
<path id="Vector_40" d="M27.3074 35.2545C26.8211 35.7346 26.469 36.3404 26.2877 37.0085C26.1374 37.5505 26.0348 38.1053 25.9811 38.6663L26.323 38.2842C26.3036 39.2454 26.232 40.2047 26.1083 41.1576C25.9822 42.046 25.9309 42.944 25.955 43.8416L26.5683 43.8116L27.335 44.7999L28.1983 44.1999L28.8469 43.8479L29.4265 42.3796C29.2853 42.273 29.1818 42.1219 29.1317 41.9492C29.0816 41.7765 29.0877 41.5917 29.1489 41.4228C29.3636 40.8245 29.8895 40.6855 30.0122 41.0392C30.1062 41.4797 30.1575 41.9287 30.1655 42.3796L31.0856 39.6956C31.0856 39.6956 31.6652 38.862 32.1696 39.4383C32.4716 39.7859 32.854 40.0493 33.2813 40.204L32.9746 39.3057L33.8088 39.5267L33.7444 38.5036L34.3577 38.952C34.3577 38.952 34.6352 37.2943 34.1078 36.557C33.5803 35.8197 31.5149 32.8894 27.3074 35.2545Z" fill="#333333"/>
<path id="Vector_41" d="M44.7223 63.6635L37.8928 62.9025C36.9698 62.7198 36.1257 62.2438 35.4791 61.5415C34.8324 60.8391 34.4159 59.9458 34.2879 58.9871L31.7625 51.0536C31.6097 50.5559 31.3246 50.1121 30.9395 49.7725C30.5545 49.4329 30.0848 49.2112 29.5836 49.1322C29.1882 49.0713 28.7842 49.1147 28.4095 49.2584C28.0348 49.402 27.7017 49.6412 27.4412 49.9535C27.1808 50.2659 27.0016 50.6411 26.9203 51.0442C26.8391 51.4473 26.8586 51.865 26.9769 52.2583L29.5836 61.8368C29.7063 62.8886 30.1761 63.865 30.9144 64.6027C31.6526 65.3405 32.6146 65.7948 33.6393 65.8896L44.3512 67.3279L44.7223 63.6635Z" fill="#6B56CA"/>
<path id="Vector_42" opacity="0.61" d="M44.7223 63.6635L37.8928 62.9025C36.9698 62.7198 36.1257 62.2438 35.4791 61.5415C34.8324 60.8391 34.4159 59.9458 34.2879 58.9871L31.7625 51.0536C31.6097 50.5559 31.3246 50.1121 30.9395 49.7725C30.5545 49.4329 30.0848 49.2112 29.5836 49.1322C29.1882 49.0713 28.7842 49.1147 28.4095 49.2584C28.0348 49.402 27.7017 49.6412 27.4412 49.9535C27.1808 50.2659 27.0016 50.6411 26.9203 51.0442C26.8391 51.4473 26.8586 51.865 26.9769 52.2583L29.5836 61.8368C29.7063 62.8886 30.1761 63.865 30.9144 64.6027C31.6526 65.3405 32.6146 65.7948 33.6393 65.8896L44.3512 67.3279L44.7223 63.6635Z" fill="url(#paint16_linear_2710_62646)"/>
<path id="Vector_43" d="M27.8637 75.3071L25.8535 75.7808L26.6585 78.1758L28.7623 77.6753C28.7623 77.6753 29.325 75.8234 27.8637 75.3071Z" fill="url(#paint17_linear_2710_62646)"/>
<path id="Vector_44" d="M25.0322 75.4334C25.0322 75.4334 26.3478 75.1461 26.5655 75.6071C26.7833 76.0681 26.084 76.0381 26.2236 76.6917C26.3405 77.1889 26.4854 77.6786 26.6575 78.1584L27.3061 78.0085L27.4395 78.7979C27.4682 78.9336 27.5416 79.0549 27.6472 79.1412C27.7529 79.2275 27.8843 79.2736 28.0191 79.2715C29.5371 79.3615 29.3347 80.7793 28.8011 80.8329L26.8369 80.9908L25.7988 80.0909C25.6746 80.002 25.5764 79.8797 25.5152 79.7372C25.1364 78.9715 23.9726 76.1218 25.0322 75.4334Z" fill="#333333"/>
<path id="Vector_45" opacity="0.4" d="M56.9876 26.6091C56.8872 26.7586 56.7999 26.9171 56.7269 27.0827C56.2869 28.0521 54.798 31.5191 54.5803 34.5236C54.537 35.2547 54.2346 35.944 53.7303 36.4606C53.226 36.9772 52.555 37.2851 51.8448 37.3259L49.186 37.4838L48.3166 37.5312C47.6182 37.5737 46.9284 37.3546 46.3746 36.9144C45.8208 36.4742 45.4404 35.8426 45.3035 35.1362C44.7592 32.3701 43.6 28.1437 41.3475 26.2759C41.3475 26.2759 31.4161 16.9121 38.0386 6.46993C38.4837 5.76441 38.9815 5.09561 39.5274 4.4696C46.4781 -3.45281 57.9506 0.156324 60.7075 7.5151C63.4645 14.8739 58.084 25.0224 56.9876 26.6091Z" fill="#6B56CA"/>
<path id="Vector_46" d="M54.9622 38.6189C54.7306 39.2173 54.4638 39.5046 54.6954 39.9009C54.9269 40.2972 55.5939 41.3629 52.2098 41.8365C51.5088 41.9362 50.8028 41.9942 50.0953 42.0102H48.9883L48.3396 41.9802C47.599 41.9328 47.001 41.8554 46.6024 41.7891C46.3857 41.7564 46.1781 41.6771 45.9932 41.5564C45.8083 41.4356 45.6501 41.276 45.529 41.0882C45.4698 40.9469 45.4498 40.7915 45.4715 40.6392C45.4932 40.487 45.5556 40.3439 45.6517 40.2261C45.6948 40.1849 45.7296 40.1353 45.7541 40.0802C45.7786 40.0251 45.7924 39.9656 45.7945 39.905C45.7966 39.8445 45.7871 39.7841 45.7666 39.7273C45.746 39.6705 45.7148 39.6184 45.6747 39.5741C45.6289 39.5248 45.5735 39.4861 45.5122 39.4604C45.3292 39.2832 45.2207 39.0395 45.2098 38.7811C45.1989 38.5227 45.2865 38.2702 45.4539 38.0774C45.5368 37.9891 45.6056 37.8878 45.6578 37.7774C45.7302 37.6067 45.7561 37.4189 45.7326 37.2342C45.7091 37.0495 45.6371 36.8748 45.5244 36.7291L45.4309 36.6107C45.3017 36.431 45.2075 36.2273 45.1534 36.0107C45.097 35.862 45.0802 35.7005 45.1047 35.5428C45.1292 35.3852 45.1942 35.2371 45.2929 35.114C45.4297 35.82 45.81 36.4512 46.3635 36.8911C46.917 37.331 47.6064 37.5499 48.3044 37.5074L49.1738 37.4538C49.1986 37.419 49.2182 37.3807 49.2321 37.3401C49.3854 36.958 49.0404 36.5144 49.2152 35.9192L49.8684 35.8892C51.4744 35.7903 53.0605 35.4717 54.585 34.9419C54.7515 35.0838 54.8654 35.2804 54.9076 35.4987C54.9498 35.7169 54.9176 35.9435 54.8165 36.1402C54.7563 36.2728 54.7155 36.4137 54.6954 36.5586C54.6557 36.862 54.7059 37.1707 54.8395 37.4443C54.8548 37.4775 54.8722 37.5097 54.8916 37.5406C54.9846 37.7021 55.0394 37.8838 55.0517 38.0711C55.0639 38.2584 55.0332 38.446 54.9622 38.6189Z" fill="#6B56CA"/>
<path id="Vector_47" d="M45.2988 35.1108C48.332 34.3014 51.5081 34.2419 54.5679 34.9371C54.5679 34.9371 49.5447 37.0558 45.2988 35.1108Z" fill="#333333"/>
<path id="Vector_48" d="M49.7458 41.9534C49.4934 42.0043 49.2358 42.0223 48.9791 42.0071L48.329 41.9771C47.5884 41.9297 46.9919 41.8523 46.5917 41.786C46.375 41.7533 46.1674 41.674 45.9825 41.5532C45.7976 41.4325 45.6394 41.2729 45.5183 41.085C45.4587 40.944 45.4384 40.7886 45.4598 40.6363C45.4812 40.484 45.5434 40.3409 45.6395 40.223C45.6939 40.1693 45.7347 40.1026 45.7583 40.0288C45.7818 39.955 45.7873 39.8764 45.7744 39.7999C45.7605 39.7236 45.728 39.6521 45.6801 39.5922C45.6321 39.5323 45.5701 39.4859 45.4999 39.4573C45.3168 39.2801 45.2084 39.0362 45.1978 38.7777C45.1872 38.5192 45.2753 38.2667 45.4432 38.0743C45.6141 37.8981 45.7156 37.6631 45.7284 37.4145C45.7411 37.1659 45.6641 36.9212 45.5122 36.7276C45.342 36.5205 45.2194 36.2766 45.1534 36.0139C45.0971 35.8653 45.0803 35.7039 45.1045 35.5463C45.1288 35.3888 45.1933 35.2406 45.2914 35.1172C46.7448 35.6902 48.2967 35.9508 49.8516 35.8829L49.9267 35.9192C49.9267 35.9192 49.3471 36.1466 49.4974 36.6676C49.6476 37.1886 49.8684 38.128 49.3701 38.7389C48.8718 39.3499 49.8301 39.5173 49.6492 40.2056V40.272C49.5755 40.4771 49.519 40.6884 49.4805 40.9035C49.3762 41.445 49.4253 41.906 49.7458 41.9534Z" fill="url(#paint18_linear_2710_62646)"/>
<path id="Vector_49" opacity="0.49" d="M49.8637 35.8766C48.3072 35.9461 46.7535 35.6855 45.2989 35.1109C44.7592 32.3622 43.6 28.1358 41.3475 26.2697C41.3475 26.2697 31.4161 16.9058 38.0386 6.46366C38.4837 5.75813 38.9815 5.08934 39.5274 4.46332L40.4198 4.37965C40.4198 4.37965 46.36 1.15732 48.8793 4.68436C51.3986 8.21139 45.9 12.1979 45.6117 18.6393C45.3235 25.0808 52.4796 26.2728 49.8637 35.8766Z" fill="white"/>
<path id="Vector_50" d="M54.1794 40.2766C53.7501 40.564 52.2091 41.1039 49.4629 40.9081C48.1756 40.8027 46.9011 40.5701 45.6571 40.2135C45.7002 40.1722 45.7351 40.1227 45.7596 40.0676C45.7841 40.0125 45.7978 39.9529 45.7999 39.8924C45.802 39.8318 45.7926 39.7714 45.772 39.7146C45.7515 39.6578 45.7202 39.6058 45.6801 39.5614C45.6343 39.5122 45.5789 39.4735 45.5176 39.4478C46.8512 39.9182 48.2481 40.1707 49.6576 40.1961C51.24 40.2417 52.8199 40.04 54.3435 39.5977C54.3435 39.5977 54.8219 39.8456 54.1794 40.2766Z" fill="url(#paint19_linear_2710_62646)"/>
<path id="Vector_51" d="M54.8337 37.4507C54.3185 37.8943 52.3711 38.7137 49.5559 38.4327C48.2339 38.3833 46.9235 38.16 45.6566 37.768C45.7291 37.5976 45.7549 37.41 45.7314 37.2255C45.7079 37.0411 45.6359 36.8667 45.5232 36.7213L45.4297 36.6013C45.6152 36.6739 45.928 36.775 46.3497 36.8886C47.2999 37.1362 48.2698 37.2947 49.2477 37.3623H49.6985C51.4011 37.4328 53.1005 37.1559 54.6987 36.5476C54.6522 36.8558 54.6994 37.1712 54.8337 37.4507Z" fill="url(#paint20_linear_2710_62646)"/>
<path id="Vector_52" d="M35.5527 51.9109L35.588 53.4897L36.439 53.2197C36.439 53.2197 35.5527 52.5866 35.5527 51.9109Z" fill="#3F3D56"/>
<path id="Vector_53" d="M54.2056 19.9118L54.0201 19.7824C54.2996 18.9117 54.3984 17.9903 54.3099 17.0779C54.0891 15.1454 52.7643 13.9661 50.5838 13.7624C47.2412 13.4356 45.9179 15.2118 45.4272 16.298C44.0104 19.334 45.2923 24.2504 47.3347 26.4559C49.8524 29.162 48.8803 34.2647 48.5246 35.7708C48.5124 35.8076 48.5047 35.8458 48.5016 35.8845V35.9856L49.0152 36.1655L49.052 36.0171C49.3568 34.8116 49.5337 33.5755 49.5795 32.3306C49.67 29.6467 49.0459 27.4758 47.7686 26.0549C45.8826 24.0199 44.6575 19.3214 45.9593 16.5411C46.749 14.8755 48.3421 14.1082 50.57 14.3213C52.9943 14.5581 53.6643 15.9901 53.7993 17.1442C53.8695 17.9348 53.7856 18.732 53.5524 19.4887C53.0112 19.2072 52.3896 19.1355 51.8013 19.2866C50.6528 19.6119 49.9276 20.837 49.5212 21.8032C49.4196 22.0434 49.3883 22.3089 49.4311 22.5672C49.4738 22.8255 49.5888 23.0653 49.762 23.2573C49.931 23.4451 50.1491 23.5788 50.39 23.6424C50.6309 23.706 50.8846 23.6967 51.1205 23.6157C52.1555 23.2384 53.235 21.9311 53.8422 20.3365L53.902 20.3792C55.5887 21.6011 54.385 23.4846 53.0004 25.6681C52.0144 27.198 50.7908 29.102 50.659 30.9776C50.5056 32.6575 50.5762 33.9852 50.6866 35.6761L50.6942 35.8103H51.2462L51.2386 35.6524C51.1312 33.9647 51.0668 32.6527 51.211 31.0202C51.329 29.3025 52.4561 27.5358 53.4497 25.9681L53.4941 25.897C54.9324 23.6188 56.2925 21.4559 54.2056 19.9118ZM50.9181 23.0694C50.7847 23.1165 50.6408 23.122 50.5045 23.0852C50.3681 23.0484 50.2453 22.971 50.1514 22.8626C50.0503 22.7521 49.9832 22.6131 49.9586 22.4634C49.9341 22.3136 49.9532 22.1597 50.0134 22.0211C50.3048 21.3249 50.9426 20.1108 51.9347 19.8266C52.0767 19.787 52.2231 19.7668 52.3702 19.7666C52.7088 19.7784 53.0406 19.8668 53.3423 20.0255C52.7643 21.5301 51.7814 22.7726 50.9181 23.0726V23.0694Z" fill="white"/>
</g>
<defs>
<linearGradient id="paint0_linear_2710_62646" x1="23.5605" y1="66.33" x2="35.1572" y2="66.33" gradientUnits="userSpaceOnUse">
<stop stop-opacity="0"/>
<stop offset="0.91" stop-opacity="0.8"/>
<stop offset="1"/>
</linearGradient>
<linearGradient id="paint1_linear_2710_62646" x1="39.7079" y1="58.8796" x2="25.5968" y2="74.5416" gradientUnits="userSpaceOnUse">
<stop stop-opacity="0"/>
<stop offset="0.91" stop-opacity="0.8"/>
<stop offset="1"/>
</linearGradient>
<linearGradient id="paint2_linear_2710_62646" x1="64.2586" y1="51.6473" x2="86.3422" y2="56.5922" gradientUnits="userSpaceOnUse">
<stop stop-opacity="0"/>
<stop offset="0.91" stop-opacity="0.8"/>
<stop offset="1"/>
</linearGradient>
<linearGradient id="paint3_linear_2710_62646" x1="82.0867" y1="48.9632" x2="72.6981" y2="43.6554" gradientUnits="userSpaceOnUse">
<stop offset="0.36" stop-color="#00272E"/>
<stop offset="1" stop-color="#69B9EB" stop-opacity="0"/>
</linearGradient>
<linearGradient id="paint4_linear_2710_62646" x1="78.448" y1="34.6388" x2="81.7846" y2="34.6388" gradientUnits="userSpaceOnUse">
<stop stop-color="#ECC4D7"/>
<stop offset="0.42" stop-color="#EFD4D1"/>
<stop offset="1" stop-color="#F2EAC9"/>
</linearGradient>
<linearGradient id="paint5_linear_2710_62646" x1="80.643" y1="32.149" x2="74.5036" y2="42.0696" gradientUnits="userSpaceOnUse">
<stop stop-color="#ECC4D7"/>
<stop offset="0.42" stop-color="#EFD4D1"/>
<stop offset="1" stop-color="#F2EAC9"/>
</linearGradient>
<linearGradient id="paint6_linear_2710_62646" x1="75.4457" y1="29.8677" x2="82.5129" y2="29.8677" gradientUnits="userSpaceOnUse">
<stop stop-color="#ECC4D7"/>
<stop offset="0.42" stop-color="#EFD4D1"/>
<stop offset="1" stop-color="#F2EAC9"/>
</linearGradient>
<linearGradient id="paint7_linear_2710_62646" x1="59.2833" y1="47.4524" x2="66.6403" y2="47.4524" gradientUnits="userSpaceOnUse">
<stop stop-color="#ECC4D7"/>
<stop offset="0.42" stop-color="#EFD4D1"/>
<stop offset="1" stop-color="#F2EAC9"/>
</linearGradient>
<linearGradient id="paint8_linear_2710_62646" x1="78.305" y1="54.8789" x2="92.5094" y2="61.4696" gradientUnits="userSpaceOnUse">
<stop stop-opacity="0"/>
<stop offset="0.91" stop-opacity="0.8"/>
<stop offset="1"/>
</linearGradient>
<linearGradient id="paint9_linear_2710_62646" x1="91.3574" y1="59.5474" x2="93.0027" y2="59.5474" gradientUnits="userSpaceOnUse">
<stop stop-color="#ECC4D7"/>
<stop offset="0.42" stop-color="#EFD4D1"/>
<stop offset="1" stop-color="#F2EAC9"/>
</linearGradient>
<linearGradient id="paint10_linear_2710_62646" x1="75.0653" y1="63.2608" x2="77.5048" y2="63.2608" gradientUnits="userSpaceOnUse">
<stop stop-color="#ECC4D7"/>
<stop offset="0.42" stop-color="#EFD4D1"/>
<stop offset="1" stop-color="#F2EAC9"/>
</linearGradient>
<linearGradient id="paint11_linear_2710_62646" x1="93.0811" y1="53.7739" x2="75.8919" y2="45.1389" gradientUnits="userSpaceOnUse">
<stop offset="0.36" stop-color="#00272E"/>
<stop offset="1" stop-color="#69B9EB" stop-opacity="0"/>
</linearGradient>
<linearGradient id="paint12_linear_2710_62646" x1="65.582" y1="56.0426" x2="73.1077" y2="56.0426" gradientUnits="userSpaceOnUse">
<stop stop-color="#ECC4D7"/>
<stop offset="0.42" stop-color="#EFD4D1"/>
<stop offset="1" stop-color="#F2EAC9"/>
</linearGradient>
<linearGradient id="paint13_linear_2710_62646" x1="44.457" y1="64.1906" x2="49.8927" y2="64.1906" gradientUnits="userSpaceOnUse">
<stop stop-color="#ECC4D7"/>
<stop offset="0.42" stop-color="#EFD4D1"/>
<stop offset="1" stop-color="#F2EAC9"/>
</linearGradient>
<linearGradient id="paint14_linear_2710_62646" x1="16.2177" y1="56.6961" x2="28.8781" y2="58.1761" gradientUnits="userSpaceOnUse">
<stop offset="0.36" stop-color="#00272E"/>
<stop offset="1" stop-color="#69B9EB" stop-opacity="0"/>
</linearGradient>
<linearGradient id="paint15_linear_2710_62646" x1="26.0449" y1="41.4435" x2="33.7239" y2="41.4435" gradientUnits="userSpaceOnUse">
<stop stop-color="#ECC4D7"/>
<stop offset="0.42" stop-color="#EFD4D1"/>
<stop offset="1" stop-color="#F2EAC9"/>
</linearGradient>
<linearGradient id="paint16_linear_2710_62646" x1="21.8126" y1="68.7362" x2="37.9654" y2="57.7632" gradientUnits="userSpaceOnUse">
<stop offset="0.36" stop-color="#00272E"/>
<stop offset="1" stop-color="#69B9EB" stop-opacity="0"/>
</linearGradient>
<linearGradient id="paint17_linear_2710_62646" x1="25.8535" y1="76.7423" x2="28.8665" y2="76.7423" gradientUnits="userSpaceOnUse">
<stop stop-color="#ECC4D7"/>
<stop offset="0.42" stop-color="#EFD4D1"/>
<stop offset="1" stop-color="#F2EAC9"/>
</linearGradient>
<linearGradient id="paint18_linear_2710_62646" x1="50.675" y1="38.6947" x2="41.4068" y2="38.3671" gradientUnits="userSpaceOnUse">
<stop stop-opacity="0"/>
<stop offset="0.91" stop-opacity="0.8"/>
<stop offset="1"/>
</linearGradient>
<linearGradient id="paint19_linear_2710_62646" x1="49.6668" y1="34.3609" x2="50.7703" y2="50.116" gradientUnits="userSpaceOnUse">
<stop stop-color="#68E1FD" stop-opacity="0"/>
<stop offset="0.02" stop-color="#66DAF6" stop-opacity="0.04"/>
<stop offset="0.18" stop-color="#58A1BC" stop-opacity="0.39"/>
<stop offset="0.35" stop-color="#4D758F" stop-opacity="0.66"/>
<stop offset="0.53" stop-color="#45566F" stop-opacity="0.85"/>
<stop offset="0.73" stop-color="#40435C" stop-opacity="0.96"/>
<stop offset="0.99" stop-color="#3F3D56"/>
</linearGradient>
<linearGradient id="paint20_linear_2710_62646" x1="49.9546" y1="34.342" x2="51.0581" y2="50.0956" gradientUnits="userSpaceOnUse">
<stop stop-color="#68E1FD" stop-opacity="0"/>
<stop offset="0.02" stop-color="#66DAF6" stop-opacity="0.04"/>
<stop offset="0.18" stop-color="#58A1BC" stop-opacity="0.39"/>
<stop offset="0.35" stop-color="#4D758F" stop-opacity="0.66"/>
<stop offset="0.53" stop-color="#45566F" stop-opacity="0.85"/>
<stop offset="0.73" stop-color="#40435C" stop-opacity="0.96"/>
<stop offset="0.99" stop-color="#3F3D56"/>
</linearGradient>
<clipPath id="clip0_2710_62646">
<rect width="100" height="94" fill="white" transform="translate(0.5)"/>
</clipPath>
</defs>
</svg>
