<svg width="101" height="94" viewBox="0 0 101 94" fill="none" xmlns="http://www.w3.org/2000/svg">
<g id="illustration" clip-path="url(#clip0_2710_62649)">
<path id="Vector" opacity="0.24" d="M47.6394 93.5522C60.1435 94.3472 73.004 94.5033 84.8387 90.3968C88.0785 89.2731 91.2524 87.8105 93.8703 85.6021C99.9915 80.4377 102.214 71.1708 99.0997 63.8041C97.4334 59.8681 94.3975 56.3512 94.1421 52.0947C93.9197 48.3846 95.8619 44.9458 97.2687 41.5028C101.077 32.1886 100.855 20.7545 94.6921 12.8024C88.0991 4.27707 76.5301 1.4627 65.789 0.523888C57.6457 -0.153656 49.4609 -0.174953 41.3142 0.460205C38.1321 0.696448 34.8923 1.03335 31.9778 2.32755C27.5537 4.2935 24.3427 8.26649 21.9288 12.4531C19.722 16.281 18.0407 20.3873 16.9301 24.6617C16.0815 27.926 15.5604 31.2991 14.2381 34.4032C12.1126 39.4053 8.08388 43.3085 5.21891 47.9286C-0.467776 57.0845 -2.14021 74.1228 6.60917 82.2187C16.6932 91.5493 34.7254 92.7284 47.6394 93.5522Z" fill="#6B56CA"/>
<path id="Vector_2" d="M78.2578 25.3293C79.2073 23.6366 79.8664 21.533 79.0117 19.7828C78.9278 19.5605 78.76 19.3798 78.5441 19.2795C78.4224 19.2445 78.2945 19.2361 78.1693 19.2548C76.0973 19.4602 74.7152 21.4837 73.982 23.4271C73.2488 25.3704 72.8039 27.5356 71.3374 29.0106C70.6969 29.6536 69.8957 30.1261 69.2778 30.7999C67.9452 32.2728 67.7577 34.4257 67.696 36.4101C67.63 38.5158 67.7227 42.3409 70.7113 41.9156C72.2869 41.6897 74.3486 39.7175 74.9953 38.298C75.7451 36.6546 75.432 34.5859 75.4814 32.8357C75.5762 29.7974 76.8099 27.9013 78.2578 25.3293Z" fill="#6B56CA"/>
<path id="Vector_3" d="M78.2578 25.3293C79.2073 23.6366 79.8664 21.533 79.0117 19.7828C78.9278 19.5605 78.76 19.3798 78.5441 19.2795C78.4224 19.2445 78.2945 19.2361 78.1693 19.2548C76.0973 19.4602 74.7152 21.4837 73.982 23.4271C73.2488 25.3704 72.8039 27.5356 71.3374 29.0106C70.6969 29.6536 69.8957 30.1261 69.2778 30.7999C67.9452 32.2728 67.7577 34.4257 67.696 36.4101C67.63 38.5158 67.7227 42.3409 70.7113 41.9156C72.2869 41.6897 74.3486 39.7175 74.9953 38.298C75.7451 36.6546 75.432 34.5859 75.4814 32.8357C75.5762 29.7974 76.8099 27.9013 78.2578 25.3293Z" fill="url(#paint0_linear_2710_62649)"/>
<path id="Vector_4" d="M80.2312 33.2609C81.5143 33.1376 83.1147 33.4478 83.4957 34.6783C83.7202 35.4117 83.3968 36.1944 83.0241 36.8661C81.5329 39.5614 79.2013 41.7225 77.7225 44.4259C77.3959 44.9605 77.1854 45.5574 77.1046 46.1782C77.0119 47.3245 77.6607 48.3804 78.1777 49.4096C79.4588 51.959 79.9202 55.3218 78.0273 57.4583C77.1026 58.4998 75.737 59.1017 74.9255 60.2378C74.0152 61.5073 73.976 63.1815 73.5208 64.6771C73.0657 66.1726 71.7495 67.7112 70.2254 67.3702C70.4101 63.388 70.3413 59.3981 70.0194 55.4246C69.6075 50.4635 68.5468 45.223 70.6003 40.5228C72.283 36.6463 75.9347 33.6758 80.2312 33.2609Z" fill="#6B56CA"/>
<path id="Vector_5" d="M80.2312 33.2609C81.5143 33.1376 83.1147 33.4478 83.4957 34.6783C83.7202 35.4117 83.3968 36.1944 83.0241 36.8661C81.5329 39.5614 79.2013 41.7225 77.7225 44.4259C77.3959 44.9605 77.1854 45.5574 77.1046 46.1782C77.0119 47.3245 77.6607 48.3804 78.1777 49.4096C79.4588 51.959 79.9202 55.3218 78.0273 57.4583C77.1026 58.4998 75.737 59.1017 74.9255 60.2378C74.0152 61.5073 73.976 63.1815 73.5208 64.6771C73.0657 66.1726 71.7495 67.7112 70.2254 67.3702C70.4101 63.388 70.3413 59.3981 70.0194 55.4246C69.6075 50.4635 68.5468 45.223 70.6003 40.5228C72.283 36.6463 75.9347 33.6758 80.2312 33.2609Z" fill="url(#paint1_linear_2710_62649)"/>
<path id="Vector_6" d="M64.9341 13.0981H42.2512C38.9843 13.0981 36.3359 15.7396 36.3359 18.9981V71.9493C36.3359 75.2077 38.9843 77.8492 42.2512 77.8492H64.9341C68.2011 77.8492 70.8494 75.2077 70.8494 71.9493V18.9981C70.8494 15.7396 68.2011 13.0981 64.9341 13.0981Z" fill="#6B56CA"/>
<path id="Vector_7" d="M64.9341 13.0981H42.2512C38.9843 13.0981 36.3359 15.7396 36.3359 18.9981V71.9493C36.3359 75.2077 38.9843 77.8492 42.2512 77.8492H64.9341C68.2011 77.8492 70.8494 75.2077 70.8494 71.9493V18.9981C70.8494 15.7396 68.2011 13.0981 64.9341 13.0981Z" fill="url(#paint2_linear_2710_62649)"/>
<path id="Vector_8" d="M26.115 80.2629C24.7824 80.3738 23.0852 80.8319 22.9761 82.1611C22.8669 83.4902 24.4508 84.2153 25.7483 84.4557C28.8378 85.0453 31.9994 85.072 35.1424 85.0946C45.8937 85.1562 56.6451 85.0946 67.3965 84.9097C70.2656 84.8604 73.4456 84.6755 75.46 82.6397C75.7957 82.3008 76.1026 81.8673 76.0593 81.3928C75.9749 80.495 74.8236 80.2074 73.9132 80.1499C57.8109 79.1372 42.1987 78.9153 26.115 80.2629Z" fill="url(#paint3_linear_2710_62649)"/>
<path id="Vector_9" d="M31.2641 82.4899H21.4746L22.6239 70.3778L29.7523 70.197L31.2641 82.4899Z" fill="#6B56CA"/>
<path id="Vector_10" d="M31.2641 82.4899H21.4746L22.6239 70.3778L29.7523 70.197L31.2641 82.4899Z" fill="url(#paint4_linear_2710_62649)"/>
<path id="Vector_11" d="M29.6312 82.4899H19.8438L20.991 70.3778L28.1194 70.197L29.6312 82.4899Z" fill="#6B56CA"/>
<path id="Vector_12" d="M29.6312 82.4899H19.8438L20.991 70.3778L28.1194 70.197L29.6312 82.4899Z" fill="url(#paint5_linear_2710_62649)"/>
<path id="Vector_13" d="M27.2875 70.464L27.1721 70.4516C27.1927 69.9196 27.1721 68.4302 26.4719 67.5756C26.3208 67.3835 26.1296 67.2265 25.9116 67.1154C25.6936 67.0044 25.4539 66.942 25.2093 66.9326C24.976 66.9157 24.7418 66.9494 24.5228 67.0313C24.3038 67.1132 24.1052 67.2415 23.9405 67.4072C23.0776 68.2494 22.8922 69.9442 22.8531 70.4886H22.7109C22.7109 70.392 22.7954 68.2083 23.8705 67.2264C24.0489 67.056 24.2617 66.9255 24.4947 66.8437C24.7277 66.7618 24.9756 66.7305 25.2216 66.7519C25.4765 66.759 25.727 66.8197 25.9567 66.9302C26.1863 67.0406 26.39 67.1983 26.5542 67.3928C27.4564 68.4302 27.3019 70.3818 27.2875 70.464Z" fill="#6B56CA"/>
<path id="Vector_14" d="M28.3558 70.4641L28.2405 70.4517C28.259 69.9197 28.2405 68.4303 27.5382 67.5757C27.3877 67.3834 27.1969 67.2263 26.9792 67.1152C26.7615 67.0041 26.522 66.9419 26.2777 66.9327C26.0444 66.9157 25.8101 66.9493 25.5911 67.0312C25.3721 67.1132 25.1735 67.2415 25.0089 67.4073C24.1459 68.2495 23.9585 69.9443 23.9214 70.4887H23.7793C23.7793 70.3922 23.8637 68.2085 24.9389 67.2265C25.1176 67.0545 25.3313 66.9228 25.5655 66.8403C25.7996 66.7577 26.0488 66.7262 26.2962 66.7479C26.551 66.7552 26.8014 66.8161 27.031 66.9265C27.2607 67.037 27.4643 67.1945 27.6288 67.3888C28.5268 68.4303 28.3723 70.3819 28.3558 70.4641Z" fill="#6B56CA"/>
<path id="Vector_15" d="M63.3033 13.0981H40.6204C37.3534 13.0981 34.7051 15.7396 34.7051 18.9981V71.9493C34.7051 75.2077 37.3534 77.8492 40.6204 77.8492H63.3033C66.5702 77.8492 69.2186 75.2077 69.2186 71.9493V18.9981C69.2186 15.7396 66.5702 13.0981 63.3033 13.0981Z" fill="#6B56CA"/>
<path id="Vector_16" d="M62.2034 17.2046H42.3113C39.4459 17.2046 37.123 19.5214 37.123 22.3793V68.8185C37.123 71.6765 39.4459 73.9933 42.3113 73.9933H62.2034C65.0688 73.9933 67.3916 71.6765 67.3916 68.8185V22.3793C67.3916 19.5214 65.0688 17.2046 62.2034 17.2046Z" fill="white"/>
<path id="Vector_17" d="M59.2961 50.25H45.7601C44.0254 50.25 42.6191 51.6526 42.6191 53.3828V53.3848C42.6191 55.115 44.0254 56.5176 45.7601 56.5176H59.2961C61.0308 56.5176 62.4371 55.115 62.4371 53.3848V53.3828C62.4371 51.6526 61.0308 50.25 59.2961 50.25Z" fill="#6B56CA"/>
<path id="Vector_18" d="M47.099 53.9477C47.1004 53.9716 47.1004 53.9956 47.099 54.0196C47.1004 54.0367 47.1004 54.0538 47.099 54.0709C47.0958 54.0838 47.091 54.0963 47.0846 54.1079C47.0767 54.1203 47.0677 54.1319 47.0578 54.1428C47.0356 54.1618 47.0115 54.1783 46.9858 54.1921C46.9435 54.2155 46.8994 54.2355 46.8539 54.2517C46.5941 54.3394 46.3126 54.3394 46.0527 54.2517C45.9352 54.208 45.8294 54.1377 45.7438 54.0463C45.6503 53.9479 45.5799 53.83 45.5378 53.7012C45.4431 53.3814 45.4431 53.0411 45.5378 52.7213C45.5801 52.587 45.6503 52.4631 45.7438 52.3577C45.8322 52.2588 45.9421 52.1815 46.0651 52.1317C46.1964 52.0808 46.3361 52.0551 46.477 52.0557C46.5364 52.056 46.5957 52.0615 46.6541 52.0721C46.7072 52.0812 46.7595 52.0943 46.8107 52.1111C46.8557 52.1262 46.8991 52.1454 46.9404 52.1687C46.9702 52.1825 46.9973 52.2012 47.0208 52.2241C47.0336 52.2347 47.0447 52.2472 47.0537 52.2611C47.0594 52.2736 47.0635 52.2867 47.0661 52.3001C47.0675 52.3193 47.0675 52.3385 47.0661 52.3577C47.0661 52.3782 47.0661 52.4049 47.0661 52.4357C47.0661 52.4665 47.0661 52.4994 47.0661 52.5241C47.0646 52.5437 47.0604 52.5631 47.0537 52.5816C47.0496 52.5934 47.0425 52.604 47.0331 52.6124C47.0296 52.6159 47.0255 52.6186 47.0208 52.6204C47.0162 52.6222 47.0113 52.6229 47.0063 52.6227C46.982 52.6197 46.9591 52.6097 46.9404 52.5939C46.9089 52.569 46.8751 52.547 46.8395 52.5282C46.7924 52.5008 46.7428 52.4781 46.6912 52.4604C46.6245 52.4401 46.555 52.4304 46.4853 52.4316C46.4038 52.4303 46.3233 52.4487 46.2505 52.485C46.1808 52.5211 46.1208 52.5732 46.0754 52.637C46.0244 52.7097 45.9874 52.7912 45.9662 52.8774C45.9387 52.9812 45.9255 53.0884 45.9271 53.1958C45.9254 53.3088 45.9392 53.4215 45.9683 53.5307C45.99 53.6155 46.0285 53.6951 46.0816 53.7648C46.1292 53.8241 46.1907 53.8707 46.2608 53.9004C46.335 53.9317 46.415 53.9471 46.4956 53.9456C46.5652 53.9474 46.6347 53.9384 46.7015 53.9189C46.7533 53.9019 46.8036 53.8806 46.8519 53.8552L46.9528 53.7957C46.971 53.7803 46.9931 53.7704 47.0166 53.7669C47.0253 53.7639 47.0347 53.7639 47.0434 53.7669C47.0519 53.7736 47.0578 53.783 47.0599 53.7936C47.0618 53.8127 47.0618 53.832 47.0599 53.8511C47.099 53.8737 47.099 53.9066 47.099 53.9477Z" fill="white"/>
<path id="Vector_19" d="M49.3818 53.1567C49.3842 53.3222 49.3613 53.4871 49.3138 53.6456C49.2727 53.781 49.2024 53.9058 49.1079 54.0113C49.0167 54.1135 48.9023 54.1924 48.7742 54.2414C48.628 54.2956 48.4729 54.3221 48.317 54.3194C48.1645 54.3224 48.0127 54.2995 47.868 54.2516C47.7456 54.2117 47.6356 54.141 47.5487 54.0462C47.4598 53.9453 47.3944 53.8261 47.3572 53.697C47.3114 53.5332 47.2899 53.3637 47.2933 53.1937C47.2912 53.0309 47.3141 52.8688 47.3613 52.713C47.4038 52.5794 47.474 52.4562 47.5673 52.3514C47.6598 52.2508 47.7738 52.1722 47.9009 52.1213C48.0485 52.067 48.205 52.0405 48.3623 52.0433C48.5119 52.04 48.6609 52.0622 48.803 52.109C48.9254 52.1489 49.0354 52.2197 49.1223 52.3145C49.2125 52.4143 49.2794 52.5329 49.318 52.6616C49.3638 52.8226 49.3853 52.9894 49.3818 53.1567ZM48.9122 53.1814C48.9135 53.0753 48.9046 52.9693 48.8854 52.865C48.8701 52.7791 48.8386 52.6969 48.7927 52.6226C48.75 52.5554 48.6894 52.5013 48.6177 52.4665C48.5327 52.4267 48.4396 52.4077 48.3458 52.411C48.2501 52.4078 48.1551 52.4291 48.0698 52.4726C47.9971 52.5124 47.9355 52.5696 47.8906 52.639C47.8435 52.7129 47.8113 52.7952 47.7959 52.8814C47.7766 52.9775 47.7669 53.0752 47.767 53.1731C47.7667 53.2819 47.7757 53.3905 47.7938 53.4977C47.8092 53.5843 47.8406 53.6672 47.8865 53.7422C47.9289 53.8089 47.9887 53.8629 48.0595 53.8983C48.1457 53.9361 48.2393 53.9544 48.3334 53.9517C48.4292 53.9551 48.5243 53.9339 48.6094 53.8901C48.6821 53.8503 48.7437 53.7932 48.7886 53.7237C48.8361 53.649 48.8689 53.5661 48.8854 53.4792C48.904 53.381 48.913 53.2813 48.9122 53.1814Z" fill="white"/>
<path id="Vector_20" d="M51.5761 54.1242C51.5763 54.1467 51.572 54.1689 51.5635 54.1897C51.5551 54.2105 51.5425 54.2294 51.5267 54.2454C51.51 54.2582 51.4912 54.2679 51.4711 54.2742C51.4504 54.2807 51.4289 54.2842 51.4072 54.2844H51.2198C51.1851 54.2852 51.1504 54.281 51.1168 54.2721C51.0873 54.2635 51.0599 54.2488 51.0365 54.229C51.0084 54.2046 50.9842 54.1762 50.9644 54.1448C50.9418 54.1078 50.9171 54.0626 50.8882 54.0051L50.3404 52.9779C50.3095 52.9163 50.2765 52.8506 50.2435 52.7725C50.2106 52.6944 50.1818 52.6328 50.155 52.5671C50.155 52.6492 50.155 52.7314 50.1653 52.8115C50.1756 52.8916 50.1653 52.9759 50.1653 53.0621V54.2125C50.165 54.223 50.1614 54.233 50.155 54.2413C50.1476 54.2526 50.1367 54.2612 50.1241 54.266C50.104 54.2726 50.0833 54.2775 50.0623 54.2803H49.9614H49.8625C49.8414 54.2779 49.8207 54.2731 49.8007 54.266C49.7881 54.2612 49.7772 54.2526 49.7698 54.2413C49.7668 54.2319 49.7668 54.2219 49.7698 54.2125V52.2363C49.7683 52.2142 49.7717 52.192 49.7799 52.1714C49.7881 52.1507 49.8008 52.1322 49.8172 52.1172C49.8495 52.0905 49.8906 52.0766 49.9325 52.0781H50.1715C50.2077 52.0733 50.2444 52.0733 50.2806 52.0781C50.3087 52.0858 50.3352 52.0983 50.3589 52.1151C50.3853 52.1337 50.4078 52.1575 50.4248 52.185C50.448 52.2208 50.4693 52.2579 50.4886 52.2959L50.917 53.0991L50.9912 53.2429C51.0159 53.2902 51.0386 53.3374 51.0612 53.3847L51.1292 53.5223L51.191 53.6579C51.191 53.5778 51.191 53.4956 51.191 53.4093C51.191 53.323 51.191 53.2429 51.191 53.1649V52.1377C51.191 52.1266 51.1946 52.1158 51.2013 52.1069C51.2111 52.0963 51.223 52.0879 51.2363 52.0822C51.2563 52.0751 51.277 52.0703 51.2981 52.0679H51.399H51.4958C51.5162 52.0702 51.5363 52.0751 51.5555 52.0822C51.5674 52.0883 51.5779 52.0967 51.5864 52.1069C51.5897 52.1169 51.5897 52.1277 51.5864 52.1377L51.5761 54.1242Z" fill="white"/>
<path id="Vector_21" d="M53.2911 52.2671C53.2911 52.2999 53.2911 52.3287 53.2911 52.3533C53.2896 52.3719 53.2847 52.39 53.2767 52.4068C53.2725 52.4186 53.2654 52.4292 53.2561 52.4376C53.2526 52.4411 53.2484 52.4438 53.2438 52.4456C53.2392 52.4473 53.2342 52.4481 53.2293 52.4478H52.5084V53.0395H53.184C53.1934 53.0365 53.2034 53.0365 53.2128 53.0395C53.2211 53.048 53.2281 53.0577 53.2334 53.0682C53.2402 53.0862 53.245 53.1048 53.2478 53.1237C53.2478 53.1463 53.2478 53.173 53.2478 53.2079C53.2478 53.2429 53.2478 53.2696 53.2478 53.2922C53.245 53.3111 53.2402 53.3297 53.2334 53.3476C53.229 53.3599 53.222 53.3712 53.2128 53.3805C53.2034 53.3835 53.1934 53.3835 53.184 53.3805H52.5084V54.2022C52.5089 54.2078 52.5082 54.2134 52.5064 54.2187C52.5047 54.224 52.5018 54.2289 52.4981 54.233C52.489 54.2453 52.4759 54.254 52.461 54.2577C52.4389 54.2647 52.4162 54.2695 52.3931 54.2721H52.2839H52.1768C52.1531 54.2695 52.1296 54.2647 52.1068 54.2577C52.0924 54.2529 52.0796 54.2444 52.0697 54.233C52.063 54.2241 52.0594 54.2133 52.0594 54.2022V52.2095C52.0572 52.1899 52.0596 52.1701 52.0664 52.1515C52.0731 52.133 52.0842 52.1163 52.0985 52.1027C52.124 52.0803 52.1572 52.0685 52.1912 52.0699H53.221C53.2297 52.0669 53.2391 52.0669 53.2478 52.0699C53.2572 52.0782 53.2643 52.0888 53.2684 52.1007C53.2764 52.1189 53.2812 52.1384 53.2828 52.1582C53.289 52.2034 53.2911 52.2321 53.2911 52.2671Z" fill="white"/>
<path id="Vector_22" d="M54.1033 54.2189C54.1033 54.23 54.0997 54.2408 54.093 54.2497C54.0829 54.2604 54.0701 54.2682 54.0559 54.2723C54.0338 54.2794 54.011 54.2842 53.988 54.2867H53.8788H53.7717C53.7479 54.2844 53.7244 54.2795 53.7017 54.2723C53.6875 54.2682 53.6747 54.2604 53.6646 54.2497C53.6579 54.2408 53.6543 54.23 53.6543 54.2189V52.142C53.6546 52.1316 53.6582 52.1215 53.6646 52.1132C53.6747 52.1025 53.6875 52.0947 53.7017 52.0906C53.7245 52.0838 53.748 52.079 53.7717 52.0763C53.8074 52.074 53.8431 52.074 53.8788 52.0763C53.9151 52.0739 53.9516 52.0739 53.988 52.0763C54.011 52.0788 54.0338 52.0836 54.0559 52.0906C54.0701 52.0947 54.0829 52.1025 54.093 52.1132C54.0994 52.1215 54.103 52.1316 54.1033 52.142V54.2189Z" fill="white"/>
<path id="Vector_23" d="M56.2202 54.2229C56.2235 54.2329 56.2235 54.2437 56.2202 54.2537C56.2129 54.2647 56.2019 54.2727 56.1893 54.2763C56.1642 54.2817 56.1387 54.2852 56.1131 54.2866C56.0685 54.2891 56.0238 54.2891 55.9792 54.2866C55.9414 54.2891 55.9036 54.2891 55.8659 54.2866C55.8428 54.2856 55.8199 54.2815 55.7979 54.2743C55.7844 54.27 55.7723 54.2622 55.7629 54.2517C55.7562 54.2406 55.7507 54.2289 55.7464 54.2167L55.5405 53.7258C55.5158 53.6703 55.4931 53.621 55.4704 53.5779C55.4501 53.5383 55.4245 53.5016 55.3942 53.469C55.3672 53.4407 55.3341 53.4189 55.2974 53.4053C55.2577 53.3888 55.2148 53.3811 55.1718 53.3827H55.0338V54.2188C55.034 54.2245 55.033 54.2302 55.0309 54.2355C55.0287 54.2408 55.0255 54.2456 55.0214 54.2496C55.0121 54.2612 54.999 54.2692 54.9844 54.2722C54.9622 54.2793 54.9395 54.2841 54.9164 54.2866H54.8072H54.7001C54.677 54.2841 54.6543 54.2793 54.6322 54.2722C54.6175 54.2692 54.6044 54.2612 54.5951 54.2496C54.5884 54.2407 54.5848 54.2299 54.5848 54.2188V52.2241C54.5826 52.2045 54.585 52.1846 54.5917 52.1661C54.5985 52.1475 54.6095 52.1308 54.6239 52.1173C54.65 52.0945 54.684 52.0827 54.7187 52.0844H55.4313H55.5343C55.6165 52.0955 55.6969 52.1176 55.7732 52.1501C55.8399 52.1784 55.9006 52.2188 55.9524 52.2693C56.0026 52.3184 56.0413 52.378 56.0657 52.4439C56.0932 52.5181 56.1064 52.5969 56.1048 52.676C56.1063 52.7455 56.0972 52.8147 56.078 52.8815C56.0598 52.9397 56.032 52.9946 55.9957 53.0437C55.9574 53.092 55.9115 53.1337 55.8597 53.167C55.8033 53.2035 55.7424 53.2325 55.6785 53.2533C55.7117 53.2685 55.7428 53.2878 55.7711 53.3108C55.8016 53.335 55.8293 53.3626 55.8535 53.393C55.8806 53.4272 55.9047 53.4636 55.9256 53.5018C55.9483 53.545 55.9689 53.5902 55.9915 53.6436L56.1769 54.075C56.1896 54.1059 56.2006 54.1374 56.2099 54.1695C56.216 54.1867 56.2195 54.2047 56.2202 54.2229ZM55.6414 52.7315C55.6435 52.667 55.6263 52.6033 55.592 52.5487C55.5531 52.4953 55.4959 52.458 55.4313 52.4439L55.353 52.4295H55.2336H55.0276V53.0458H55.2542C55.3106 53.0465 55.3668 53.0389 55.421 53.0232C55.4656 53.0113 55.5075 52.9911 55.5446 52.9636C55.5762 52.9362 55.6009 52.9017 55.6167 52.863C55.6338 52.8213 55.6422 52.7765 55.6414 52.7315Z" fill="white"/>
<path id="Vector_24" d="M59.1147 54.2186C59.118 54.2286 59.118 54.2394 59.1147 54.2495C59.1058 54.2606 59.0935 54.2685 59.0797 54.272C59.0589 54.2789 59.0375 54.2837 59.0158 54.2864H58.9108H58.8099C58.7874 54.284 58.7653 54.2791 58.7439 54.272C58.7307 54.2685 58.719 54.2605 58.711 54.2495C58.7073 54.2453 58.7044 54.2404 58.7027 54.2351C58.7009 54.2298 58.7002 54.2242 58.7007 54.2186V52.4314L58.0622 54.2186C58.0584 54.2323 58.0505 54.2445 58.0395 54.2536C58.0284 54.265 58.014 54.2729 57.9983 54.2762C57.9764 54.2834 57.9535 54.2875 57.9304 54.2885H57.8336H57.7347C57.7115 54.287 57.6886 54.2821 57.6667 54.2741C57.6514 54.27 57.6373 54.2622 57.6256 54.2515C57.6151 54.2441 57.6077 54.2332 57.605 54.2207L56.9871 52.4335V54.2207C56.9871 54.2318 56.9834 54.2426 56.9768 54.2515C56.9683 54.2631 56.9558 54.2712 56.9417 54.2741C56.921 54.281 56.8996 54.2858 56.8779 54.2885H56.7749H56.6719C56.6496 54.2858 56.6275 54.281 56.606 54.2741C56.5928 54.2706 56.5811 54.2626 56.5731 54.2515C56.5664 54.2426 56.5628 54.2318 56.5628 54.2207V52.263C56.5602 52.2149 56.5764 52.1678 56.6081 52.1315C56.6245 52.116 56.644 52.104 56.6652 52.0962C56.6865 52.0884 56.7091 52.0851 56.7317 52.0863H57.0241C57.0691 52.0856 57.114 52.0898 57.158 52.0986C57.1933 52.106 57.2268 52.1199 57.2569 52.1397C57.2847 52.1615 57.3079 52.1888 57.3248 52.2198C57.3443 52.258 57.3602 52.2979 57.3722 52.339L57.848 53.6475L58.3423 52.341C58.3544 52.2996 58.371 52.2597 58.3917 52.2219C58.4065 52.1917 58.4268 52.1645 58.4515 52.1418C58.4759 52.121 58.5048 52.1062 58.5359 52.0986C58.5716 52.0899 58.6083 52.0857 58.6451 52.0863H58.9478C58.9738 52.0829 59.0001 52.0829 59.0261 52.0863C59.0466 52.0932 59.0651 52.1052 59.0797 52.1212C59.0949 52.1376 59.1062 52.1573 59.1126 52.1787C59.1206 52.2025 59.124 52.2276 59.1229 52.2527L59.1147 54.2186Z" fill="white"/>
<path id="Vector_25" d="M27.6058 60.6465C27.1386 60.5981 26.6664 60.6543 26.2237 60.8108C25.4885 61.1272 25.0765 61.9058 24.8088 62.6597C24.3762 63.8779 24.1806 65.1659 23.9849 66.4437C23.8984 67.0086 23.814 67.59 23.952 68.1426C23.9899 68.3366 24.0853 68.5147 24.2259 68.6541C24.3738 68.7652 24.5448 68.8417 24.7264 68.878C27.4091 69.6118 30.218 69.7652 32.965 69.3279C33.3125 69.3053 33.6444 69.1754 33.9145 68.9561C34.1822 68.6911 34.2461 68.2884 34.2831 67.9145C34.4431 66.2367 34.2881 64.5438 33.8259 62.9226C33.6858 62.4337 33.4984 61.9222 33.0968 61.6079C32.4521 61.1087 31.4099 61.197 30.6499 61.008C29.6497 60.7876 28.63 60.6665 27.6058 60.6465Z" fill="#6B56CA"/>
<path id="Vector_26" opacity="0.26" d="M34.2824 67.9168C34.2433 68.2886 34.1794 68.6872 33.9158 68.9563C33.6522 69.2254 33.2979 69.2706 32.9622 69.3281C30.2152 69.7648 27.4064 69.6114 24.7236 68.8782C24.5452 68.8381 24.377 68.7619 24.2293 68.6543C24.1356 68.5633 24.065 68.4513 24.0233 68.3277C23.998 68.2666 23.976 68.2042 23.9574 68.1407C23.8235 67.5881 23.9059 67.0047 23.9904 66.4398C24.1963 65.162 24.3838 63.8781 24.8142 62.6578C25.0593 61.9758 25.4198 61.2774 26.0315 60.924C26.0958 60.8802 26.1649 60.8437 26.2374 60.8151C26.6803 60.656 27.1533 60.5984 27.6215 60.6467C28.6456 60.6672 29.6651 60.7876 30.6657 61.0062C31.4257 61.1931 32.4679 61.1027 33.1125 61.604C33.5101 61.9183 33.6975 62.4257 33.8396 62.9208C34.2979 64.5441 34.4481 66.2385 34.2824 67.9168Z" fill="url(#paint6_linear_2710_62649)"/>
<path id="Vector_27" d="M28.848 51.6509C28.0406 53.0396 27.3424 54.5885 27.4804 56.1868C27.57 57.0455 27.8939 57.8634 28.4167 58.5515C28.9396 59.2396 29.6416 59.7717 30.4463 60.0899C31.2166 59.4736 31.301 58.354 31.3237 57.37C31.3731 55.0877 31.678 52.6226 31.4411 50.3526C31.3814 49.7733 32.059 47.0246 31.2228 47.3369C30.7182 47.532 29.1302 51.1661 28.848 51.6509Z" fill="#6B56CA"/>
<path id="Vector_28" opacity="0.26" d="M28.848 51.6509C28.0406 53.0396 27.3424 54.5885 27.4804 56.1868C27.57 57.0455 27.8939 57.8634 28.4167 58.5515C28.9396 59.2396 29.6416 59.7717 30.4463 60.0899C31.2166 59.4736 31.301 58.354 31.3237 57.37C31.3731 55.0877 31.678 52.6226 31.4411 50.3526C31.3814 49.7733 32.059 47.0246 31.2228 47.3369C30.7182 47.532 29.1302 51.1661 28.848 51.6509Z" fill="url(#paint7_linear_2710_62649)"/>
<path id="Vector_29" opacity="0.26" d="M40.6053 62.208C40.6227 61.6407 40.7514 61.0824 40.9843 60.5645C41.7629 59.0896 43.7978 58.9211 45.1633 57.9659C46.2611 57.1914 46.8934 55.891 47.1385 54.5722C47.3836 53.2533 47.2848 51.9016 47.1838 50.5602C47.1571 50.1801 47.1159 49.7713 46.8605 49.4878C46.3023 48.8715 45.291 49.3112 44.5949 49.7795L42.7741 51.0368C42.3869 51.3018 41.8576 51.5647 41.4889 51.2751C41.2459 51.0861 41.2047 50.7409 41.182 50.4328L40.836 45.6176C40.7392 44.2884 40.5106 42.7416 39.3407 42.0986C38.1708 41.4556 36.6632 42.1438 35.9238 43.2366C35.1843 44.3295 35.0505 45.7018 34.9557 47.0145C34.4633 53.9081 34.5667 60.8313 35.2647 67.7073C35.2914 67.9785 35.3409 68.2845 35.5654 68.4386C35.7423 68.5316 35.9438 68.5675 36.1421 68.5413C37.4252 68.5002 39.7279 68.9809 40.352 67.6436C40.9761 66.3063 40.4735 63.6973 40.6053 62.208Z" fill="url(#paint8_linear_2710_62649)"/>
<path id="Vector_30" d="M46.633 52.9902C46.7081 52.4473 46.6956 51.8959 46.5959 51.357C46.5872 51.2723 46.5605 51.1903 46.5177 51.1167C46.3632 50.8927 45.9945 50.9811 45.8133 51.1844C45.632 51.3878 45.5579 51.6672 45.3848 51.8767C45.2427 52.0493 45.045 52.1664 44.8864 52.3246C44.6342 52.6123 44.4654 52.9631 44.3983 53.3394C44.3708 53.4333 44.3603 53.5314 44.3674 53.629C44.3944 53.7675 44.4537 53.8977 44.5404 54.0091C44.8205 54.4343 45.2963 55.0198 45.8236 54.6254C46.2952 54.2535 46.5444 53.551 46.633 52.9902Z" fill="url(#paint9_linear_2710_62649)"/>
<path id="Vector_31" d="M39.1165 60.5645L37.8807 81.1073L35.6357 81.436L34.6059 65.8419L33.6749 81.399L31.4526 81.4709C31.4526 81.4709 30.4227 65.7577 30.6472 64.6073C30.8717 63.4569 30.6472 59.7859 30.6472 59.7859L39.1165 60.5645Z" fill="url(#paint10_linear_2710_62649)"/>
<path id="Vector_32" d="M39.479 58.5595C40.5665 57.9041 41.619 55.1144 41.1514 54.4386C40.5871 53.6168 39.7467 47.9902 39.0032 47.3431C38.2597 46.696 37.3205 46.2296 36.3442 46.2666C35.1888 46.3098 33.9138 45.7715 32.8428 46.207C32.2249 46.4536 31.7306 46.9014 31.2383 47.3431C30.466 48.0312 29.8646 59.6523 30.7296 60.9157C31.8377 62.5304 34.1177 62.5838 36.0476 62.4729C36.7129 62.4338 37.407 62.3886 37.9899 62.062C39.4419 61.2074 39.6252 60.2727 39.479 58.5595Z" fill="#6B56CA"/>
<path id="Vector_33" d="M39.2722 42.3532C39.2722 42.3532 39.2722 42.3717 39.2722 42.3799C39.3154 42.6496 39.4024 42.9105 39.5297 43.1523C39.5811 43.2571 39.6388 43.3824 39.5811 43.4851C39.5235 43.5878 39.3752 43.6104 39.2784 43.6906C38.955 44.0049 39.301 44.7054 38.988 45.0916C38.782 45.3319 38.4566 45.3977 38.1641 45.5024C37.9437 45.5846 37.6616 45.7531 37.608 46.0037C37.5544 46.2543 37.6636 46.5748 37.6471 46.8439C37.6245 47.1849 37.4247 47.569 37.0828 47.5999C36.9593 47.6047 36.8366 47.5779 36.7265 47.5218C36.3506 47.305 36.0469 46.9829 35.8532 46.5953C35.2064 45.4819 34.8028 44.1774 35.0025 42.8976C35.2023 41.6178 36.1024 40.4201 37.3547 40.1099C38.0508 39.9374 38.6543 40.1572 38.9756 40.8125C39.1188 41.1299 39.2159 41.4661 39.264 41.8109C39.2758 41.9914 39.2786 42.1724 39.2722 42.3532Z" fill="url(#paint11_linear_2710_62649)"/>
<path id="Vector_34" d="M39.2043 40.0812C39.0292 40.7098 38.4999 41.1782 37.9397 41.5192C37.5586 41.7472 37.225 41.9115 37.0066 42.308C36.7818 42.7232 36.6345 43.1756 36.5721 43.6433C36.5721 43.7111 36.5432 43.7912 36.4794 43.8118C36.4155 43.8323 36.3352 43.7481 36.3084 43.6721C36.2549 43.5118 36.2343 43.3187 36.0922 43.2283C36.0378 43.1979 35.9756 43.184 35.9134 43.1884C35.8512 43.1927 35.7916 43.2152 35.742 43.253C35.6435 43.331 35.578 43.4433 35.5587 43.5673C35.5327 43.7181 35.5546 43.8733 35.6215 44.0111C35.6884 44.1489 35.7968 44.2624 35.9315 44.3356C36.0051 44.3661 36.0744 44.4062 36.1375 44.4547C36.4093 44.7074 36.1478 44.993 36.0407 45.2292C35.9107 45.5615 35.8674 45.9213 35.915 46.2748C35.9624 46.7699 36.0901 47.265 36.018 47.758C35.965 48.1586 35.7573 48.5227 35.4393 48.7729C35.2791 48.8939 35.0904 48.9719 34.8913 48.9992C34.6922 49.0266 34.4893 49.0024 34.3023 48.929C34.0325 48.8119 33.8183 48.5818 33.5361 48.4996C32.8853 48.3065 32.22 48.9762 31.5568 48.8222C31.182 48.7338 30.9183 48.4113 30.7185 48.0744C30.536 47.8065 30.4215 47.4985 30.3849 47.1767C30.354 46.6426 30.6753 46.1495 30.9801 45.7181C31.4126 45.0875 31.8472 44.428 31.9914 43.6762C32.1026 43.0845 32.0285 42.4662 32.1726 41.8828C32.3312 41.2398 32.805 40.7776 33.0336 40.1839C33.2395 39.6313 33.5094 39.091 34.0861 38.8301C34.6236 38.5836 35.2518 38.6884 35.8409 38.6247C36.6647 38.5343 37.3135 37.9591 38.16 38.2796C38.8603 38.5384 39.4144 39.3293 39.2043 40.0812Z" fill="#606161"/>
<path id="Vector_35" d="M43.9742 53.547C44.133 53.4642 44.3157 53.4388 44.4911 53.4751C44.5881 53.5166 44.6746 53.5791 44.7445 53.6579C45.1029 54.0247 45.3832 54.46 45.5683 54.9377C45.6761 55.161 45.7002 55.4153 45.6363 55.6547C45.5085 55.9039 45.2982 56.1013 45.0411 56.2134C43.3213 57.1995 41.2616 58.6067 39.2864 58.4156C39.1484 58.4013 39.1958 57.9904 39.0928 57.898C38.9793 57.7677 38.9184 57.6 38.9218 57.4275C38.8334 56.8022 38.8148 56.1691 38.8662 55.5396C38.9204 54.9057 39.1849 54.3079 39.618 53.8407C39.7863 53.6506 40.0186 53.5286 40.2709 53.4977C40.654 53.4751 40.6252 53.7668 40.8538 53.9085C41.136 54.0749 41.5541 54.0749 41.8836 54.0667C42.6047 54.0113 43.3114 53.8356 43.9742 53.547Z" fill="#6B56CA"/>
<path id="Vector_36" opacity="0.26" d="M37.1082 52.1787C37.1082 52.1787 37.7508 57.259 39.4685 58.5593C39.4685 58.5593 40.0596 61.7065 37.3409 62.257C37.3409 62.257 36.5706 62.5734 35.2812 62.4625C35.2812 62.4625 37.9258 63.2616 37.4274 57.9739C36.929 52.6861 37.1082 52.1787 37.1082 52.1787Z" fill="url(#paint12_linear_2710_62649)"/>
<path id="Vector_37" d="M39.4973 82.5125C39.5354 82.545 39.5663 82.5849 39.5883 82.6298C39.6102 82.6746 39.6227 82.7235 39.625 82.7734C39.6135 82.8451 39.577 82.9106 39.5221 82.9583C39.323 83.1204 39.0782 83.2167 38.8218 83.2335C37.9971 83.356 37.1561 83.3091 36.3502 83.0959C36.1474 83.0598 35.9602 82.9639 35.8126 82.8206C35.6652 82.6058 35.5968 82.3467 35.619 82.0873L35.5943 81.1936C35.5873 81.1243 35.595 81.0543 35.617 80.9882C35.6849 80.8259 35.895 80.7828 36.0722 80.7725C36.4964 80.7414 36.922 80.7338 37.3471 80.7499C37.4974 80.7499 37.691 80.7273 37.8105 80.8218C37.93 80.9163 37.9711 81.1033 38.0515 81.2019C38.449 81.7236 39.0545 82.0318 39.4973 82.5125Z" fill="#606161"/>
<path id="Vector_38" d="M35.2432 82.5165C35.2796 82.548 35.3092 82.5864 35.3304 82.6294C35.3517 82.6724 35.364 82.7193 35.3668 82.7672C35.3563 82.8371 35.3204 82.9007 35.2659 82.9459C35.0741 83.103 34.8379 83.1963 34.5903 83.213C33.7926 83.3319 32.9789 83.2872 32.1991 83.0815C32.0027 83.0459 31.8213 82.953 31.678 82.8144C31.5368 82.6062 31.4707 82.3563 31.4906 82.1057L31.4679 81.2429C31.4599 81.1736 31.4676 81.1034 31.4906 81.0375C31.5565 80.8813 31.7583 80.8423 31.9293 80.832C32.3405 80.8028 32.753 80.7953 33.1651 80.8094C33.3113 80.8094 33.4987 80.7889 33.6141 80.8813C33.7294 80.9738 33.7685 81.1525 33.8468 81.2491C34.2381 81.7462 34.8148 82.0523 35.2432 82.5165Z" fill="#606161"/>
<path id="Vector_39" opacity="0.26" d="M26.5901 65.6548C26.5777 66.4129 26.5633 67.1832 26.3326 67.9022C26.2972 68.0548 26.2316 68.1989 26.1396 68.3258C26.0476 68.4528 25.9312 68.5602 25.7971 68.6418C25.3728 68.8472 24.4789 68.6418 24.0155 68.3275C23.9902 68.2664 23.9682 68.204 23.9496 68.1405C23.8157 67.5879 23.8981 67.0045 23.9825 66.4396C24.1885 65.1618 24.3759 63.8779 24.8064 62.6576C25.0515 61.9756 25.4119 61.2772 26.0237 60.9238C26.0737 60.9356 26.1216 60.955 26.1658 60.9813C26.5262 61.1991 26.5777 61.6942 26.5901 62.1112C26.621 63.2924 26.6024 64.4675 26.5901 65.6548Z" fill="url(#paint13_linear_2710_62649)"/>
<path id="Vector_40" d="M28.151 59.8188C28.2385 59.5574 28.3589 59.3083 28.5094 59.0772C28.6624 58.8454 28.898 58.6802 29.1685 58.615C29.146 58.7405 29.0938 58.8588 29.0161 58.9601C28.6988 59.4641 28.4625 60.0144 28.3158 60.5912C28.2705 60.7679 27.9039 61.4129 27.7535 60.9589C27.6794 60.698 28.0666 60.0633 28.151 59.8188Z" fill="#6B56CA"/>
<path id="Vector_41" d="M37.0404 60.3898C37.6757 60.3854 38.308 60.479 38.9147 60.6672C39.0832 60.7147 39.2333 60.8121 39.3451 60.9465C39.4233 61.0743 39.4706 61.2185 39.4831 61.3677C39.8951 63.9848 39.4131 66.6533 39.4646 69.3013C39.4831 70.3161 39.582 71.3248 39.6603 72.3355C39.6736 72.3952 39.6741 72.457 39.6616 72.5168C39.6492 72.5767 39.6242 72.6332 39.5882 72.6827C39.5165 72.741 39.4273 72.7735 39.3348 72.7751C38.7084 72.8367 38.0778 72.8429 37.4503 72.7936C34.9787 72.6601 31.7059 73.0586 29.2673 72.6971C28.9027 69.6156 29.7904 65.8419 30.2724 62.7769C30.3692 62.1606 30.2971 61.3184 30.5484 60.7493C30.7997 60.1803 31.4175 60.2768 31.9778 60.2789C33.6653 60.2844 35.3528 60.3213 37.0404 60.3898Z" fill="#606161"/>
<path id="Vector_42" d="M52.2253 44.5842C57.8639 44.5842 62.435 40.0251 62.435 34.4011C62.435 28.7771 57.8639 24.218 52.2253 24.218C46.5866 24.218 42.0156 28.7771 42.0156 34.4011C42.0156 40.0251 46.5866 44.5842 52.2253 44.5842Z" fill="#6B56CA"/>
<path id="Vector_43" d="M55.1928 37.1516H48.293L48.9603 31.1572H54.303L55.1928 37.1516Z" fill="white"/>
<path id="Vector_44" d="M52.768 31.5087C52.768 31.4923 52.527 29.8653 51.5508 29.9885C50.5312 30.1179 50.4962 31.3444 50.4962 31.3957H49.8516C49.8516 30.7609 50.2079 29.5201 51.4684 29.3599C52.766 29.2017 53.3015 30.6438 53.4045 31.4306L52.768 31.5087Z" fill="white"/>
<path id="Vector_45" d="M55.4824 39.2369C56.7962 39.2369 57.8613 38.1746 57.8613 36.8642C57.8613 35.5537 56.7962 34.4915 55.4824 34.4915C54.1686 34.4915 53.1035 35.5537 53.1035 36.8642C53.1035 38.1746 54.1686 39.2369 55.4824 39.2369Z" fill="#6B56CA"/>
<path id="Vector_46" d="M55.8008 39.4629C57.1146 39.4629 58.1797 38.4006 58.1797 37.0902C58.1797 35.7798 57.1146 34.7175 55.8008 34.7175C54.4869 34.7175 53.4219 35.7798 53.4219 37.0902C53.4219 38.4006 54.4869 39.4629 55.8008 39.4629Z" fill="white"/>
<path id="Vector_47" d="M55.4294 38.4891C55.3444 38.4886 55.263 38.4546 55.2029 38.3946L54.1607 37.3511C54.1003 37.2909 54.0664 37.2092 54.0664 37.1241C54.0664 37.0389 54.1003 36.9573 54.1607 36.8971C54.221 36.8369 54.3029 36.803 54.3883 36.803C54.4736 36.803 54.5555 36.8369 54.6159 36.8971L55.4129 37.6941L57.0442 35.8288C57.1019 35.7766 57.1767 35.747 57.2547 35.7457C57.3326 35.7443 57.4084 35.7713 57.4679 35.8216C57.5274 35.8719 57.5665 35.942 57.578 36.0189C57.5895 36.0959 57.5725 36.1743 57.5303 36.2397L55.6766 38.3638C55.6474 38.3972 55.6117 38.4242 55.5717 38.4433C55.5317 38.4623 55.4882 38.4731 55.4438 38.4748L55.4294 38.4891Z" fill="#6B56CA"/>
<path id="Vector_48" d="M52.1664 82.4899H42.3789L43.5261 70.3778L50.6566 70.197L52.1664 82.4899Z" fill="#6B56CA"/>
<path id="Vector_49" d="M52.1664 82.4899H42.3789L43.5261 70.3778L50.6566 70.197L52.1664 82.4899Z" fill="url(#paint14_linear_2710_62649)"/>
<path id="Vector_50" d="M50.5355 82.4899H40.748L41.8953 70.3778L49.0258 70.197L50.5355 82.4899Z" fill="#6B56CA"/>
<path id="Vector_51" d="M50.5355 82.4899H40.748L41.8953 70.3778L49.0258 70.197L50.5355 82.4899Z" fill="url(#paint15_linear_2710_62649)"/>
<path id="Vector_52" d="M48.1937 70.4641L48.0784 70.4518C48.0969 69.9198 48.0784 68.4304 47.376 67.5758C47.2256 67.3835 47.0348 67.2264 46.8171 67.1153C46.5994 67.0042 46.3599 66.9419 46.1155 66.9328C45.8822 66.9158 45.648 66.9494 45.429 67.0313C45.21 67.1132 45.0113 67.2415 44.8468 67.4074C43.9838 68.2496 43.7964 69.9444 43.7593 70.4888H43.6172C43.6172 70.3922 43.6996 68.2085 44.7747 67.2266C44.9536 67.0562 45.1668 66.9258 45.4001 66.844C45.6334 66.7622 45.8815 66.7308 46.1279 66.752C46.3827 66.7594 46.6331 66.8203 46.8627 66.9307C47.0924 67.0412 47.2961 67.1987 47.4605 67.393C48.3606 68.4304 48.2061 70.382 48.1937 70.4641Z" fill="#6B56CA"/>
<path id="Vector_53" d="M49.2661 70.464L49.1487 70.4516C49.1693 69.9196 49.1487 68.4302 48.4484 67.5756C48.2974 67.3835 48.1062 67.2265 47.8881 67.1154C47.6701 67.0044 47.4305 66.942 47.1859 66.9326C46.9526 66.9157 46.7184 66.9494 46.4994 67.0313C46.2804 67.1132 46.0817 67.2415 45.9171 67.4072C45.0562 68.2494 44.8687 69.9442 44.8296 70.4886H44.6875C44.6875 70.392 44.7719 68.2083 45.8471 67.2264C46.0255 67.056 46.2383 66.9255 46.4713 66.8437C46.7043 66.7618 46.9521 66.7305 47.1982 66.7519C47.4531 66.7588 47.7036 66.8195 47.9333 66.93C48.163 67.0405 48.3666 67.1982 48.5308 67.3928C49.4329 68.4302 49.2785 70.3818 49.2661 70.464Z" fill="#6B56CA"/>
<path id="Vector_54" d="M57.0609 82.4899H47.2734L48.4207 70.3778L55.5512 70.197L57.0609 82.4899Z" fill="#6B56CA"/>
<path id="Vector_55" d="M57.0609 82.4899H47.2734L48.4207 70.3778L55.5512 70.197L57.0609 82.4899Z" fill="url(#paint16_linear_2710_62649)"/>
<path id="Vector_56" d="M55.43 82.4899H45.6426L46.7898 70.3778L53.9203 70.197L55.43 82.4899Z" fill="#6B56CA"/>
<path id="Vector_57" d="M55.43 82.4899H45.6426L46.7898 70.3778L53.9203 70.197L55.43 82.4899Z" fill="url(#paint17_linear_2710_62649)"/>
<path id="Vector_58" d="M53.088 70.4641L52.9727 70.4517C52.9912 69.9197 52.9727 68.4303 52.2704 67.5757C52.1203 67.384 51.9302 67.2271 51.7133 67.1161C51.4963 67.005 51.2577 66.9425 51.014 66.9327C50.7807 66.9157 50.5465 66.9493 50.3274 67.0312C50.1084 67.1132 49.9098 67.2415 49.7452 67.4073C48.8822 68.2495 48.6948 69.9443 48.6577 70.4887H48.5156C48.5156 70.3922 48.6001 68.2085 49.6731 67.2265C49.8502 67.057 50.0612 66.9268 50.2923 66.8443C50.5234 66.7618 50.7693 66.729 51.014 66.7479C51.2688 66.7552 51.5192 66.8161 51.7488 66.9265C51.9785 67.037 52.1821 67.1945 52.3466 67.3888C53.2549 68.4303 53.1004 70.3819 53.088 70.4641Z" fill="#6B56CA"/>
<path id="Vector_59" d="M54.1605 70.4641L54.0452 70.4518C54.0637 69.9197 54.0452 68.4304 53.3428 67.5758C53.1918 67.3837 53.0006 67.2266 52.7826 67.1156C52.5645 67.0046 52.3249 66.9422 52.0803 66.9328C51.8473 66.9159 51.6134 66.9496 51.3948 67.0316C51.1761 67.1135 50.9778 67.2417 50.8136 67.4073C49.9506 68.2496 49.7632 69.9444 49.724 70.4888H49.584C49.584 70.3922 49.6664 68.2085 50.7415 67.2266C50.92 67.0563 51.1328 66.9259 51.3658 66.844C51.5988 66.7622 51.8465 66.7308 52.0926 66.752C52.3475 66.759 52.5981 66.8197 52.8277 66.9302C53.0574 67.0406 53.261 67.1984 53.4252 67.393C54.3274 68.4304 54.1729 70.382 54.1605 70.4641Z" fill="#6B56CA"/>
</g>
<defs>
<linearGradient id="paint0_linear_2710_62649" x1="73.7719" y1="27.5315" x2="65.7155" y2="63.3365" gradientUnits="userSpaceOnUse">
<stop stop-color="#010101" stop-opacity="0"/>
<stop offset="0.95" stop-color="#010101"/>
</linearGradient>
<linearGradient id="paint1_linear_2710_62649" x1="77.1149" y1="48.3167" x2="57.0943" y2="63.5523" gradientUnits="userSpaceOnUse">
<stop stop-color="#010101" stop-opacity="0"/>
<stop offset="0.95" stop-color="#010101"/>
</linearGradient>
<linearGradient id="paint2_linear_2710_62649" x1="51.6226" y1="45.0382" x2="142.952" y2="65.386" gradientUnits="userSpaceOnUse">
<stop stop-color="#010101" stop-opacity="0"/>
<stop offset="0.95" stop-color="#010101"/>
</linearGradient>
<linearGradient id="paint3_linear_2710_62649" x1="50.013" y1="64.1963" x2="45.6857" y2="219.669" gradientUnits="userSpaceOnUse">
<stop stop-color="#010101" stop-opacity="0"/>
<stop offset="0.95" stop-color="#010101"/>
</linearGradient>
<linearGradient id="paint4_linear_2710_62649" x1="25.6227" y1="76.3455" x2="41.9311" y2="80.8869" gradientUnits="userSpaceOnUse">
<stop stop-color="#010101" stop-opacity="0"/>
<stop offset="0.95" stop-color="#010101"/>
</linearGradient>
<linearGradient id="paint5_linear_2710_62649" x1="26.3172" y1="75.9511" x2="-4.10281" y2="90.5963" gradientUnits="userSpaceOnUse">
<stop stop-color="#010101" stop-opacity="0"/>
<stop offset="0.95" stop-color="#010101"/>
</linearGradient>
<linearGradient id="paint6_linear_2710_62649" x1="27.914" y1="62.1504" x2="30.1687" y2="70.0132" gradientUnits="userSpaceOnUse">
<stop stop-color="#010101" stop-opacity="0"/>
<stop offset="0.95" stop-color="#010101"/>
</linearGradient>
<linearGradient id="paint7_linear_2710_62649" x1="27.2415" y1="51.9549" x2="31.6777" y2="54.0901" gradientUnits="userSpaceOnUse">
<stop stop-color="#010101" stop-opacity="0"/>
<stop offset="0.95" stop-color="#010101"/>
</linearGradient>
<linearGradient id="paint8_linear_2710_62649" x1="52.611" y1="49.3255" x2="6.0064" y2="68.8167" gradientUnits="userSpaceOnUse">
<stop stop-color="#010101" stop-opacity="0"/>
<stop offset="0.95" stop-color="#010101"/>
</linearGradient>
<linearGradient id="paint9_linear_2710_62649" x1="46.6824" y1="52.8669" x2="44.3633" y2="52.8669" gradientUnits="userSpaceOnUse">
<stop stop-color="#E4C5D5"/>
<stop offset="0.42" stop-color="#E9D3CF"/>
<stop offset="1" stop-color="#EFE8CA"/>
</linearGradient>
<linearGradient id="paint10_linear_2710_62649" x1="30.6246" y1="70.614" x2="39.1165" y2="70.614" gradientUnits="userSpaceOnUse">
<stop stop-color="#E4C5D5"/>
<stop offset="0.42" stop-color="#E9D3CF"/>
<stop offset="1" stop-color="#EFE8CA"/>
</linearGradient>
<linearGradient id="paint11_linear_2710_62649" x1="40.0954" y1="45.0077" x2="35.4511" y2="44.5887" gradientUnits="userSpaceOnUse">
<stop stop-color="#E4C5D5"/>
<stop offset="0.42" stop-color="#E9D3CF"/>
<stop offset="1" stop-color="#EFE8CA"/>
</linearGradient>
<linearGradient id="paint12_linear_2710_62649" x1="34.2041" y1="61.0265" x2="42.5871" y2="51.5777" gradientUnits="userSpaceOnUse">
<stop stop-color="#010101" stop-opacity="0"/>
<stop offset="0.95" stop-color="#010101"/>
</linearGradient>
<linearGradient id="paint13_linear_2710_62649" x1="23.8796" y1="64.8229" x2="26.6065" y2="64.8229" gradientUnits="userSpaceOnUse">
<stop stop-color="#010101" stop-opacity="0"/>
<stop offset="0.95" stop-color="#010101"/>
</linearGradient>
<linearGradient id="paint14_linear_2710_62649" x1="46.527" y1="76.3455" x2="62.8333" y2="80.8868" gradientUnits="userSpaceOnUse">
<stop stop-color="#010101" stop-opacity="0"/>
<stop offset="0.95" stop-color="#010101"/>
</linearGradient>
<linearGradient id="paint15_linear_2710_62649" x1="47.2236" y1="75.9511" x2="16.8015" y2="90.5963" gradientUnits="userSpaceOnUse">
<stop stop-color="#010101" stop-opacity="0"/>
<stop offset="0.95" stop-color="#010101"/>
</linearGradient>
<linearGradient id="paint16_linear_2710_62649" x1="51.4216" y1="76.3455" x2="67.7279" y2="80.8868" gradientUnits="userSpaceOnUse">
<stop stop-color="#010101" stop-opacity="0"/>
<stop offset="0.95" stop-color="#010101"/>
</linearGradient>
<linearGradient id="paint17_linear_2710_62649" x1="52.1181" y1="75.9511" x2="21.696" y2="90.5963" gradientUnits="userSpaceOnUse">
<stop stop-color="#010101" stop-opacity="0"/>
<stop offset="0.95" stop-color="#010101"/>
</linearGradient>
<clipPath id="clip0_2710_62649">
<rect width="100" height="94" fill="white" transform="translate(0.5)"/>
</clipPath>
</defs>
</svg>
