<svg width="32" height="32" viewBox="0 0 32 32" fill="none" xmlns="http://www.w3.org/2000/svg">
<g id="heart" clip-path="url(#clip0_3070_6213)">
<g id="Vector" filter="url(#filter0_d_3070_6213)">
<path d="M16.4448 28.4443C16.1782 28.4443 15.9527 28.3506 15.7682 28.1631L6.17294 18.7568C6.07043 18.6735 5.92948 18.5381 5.75008 18.3506C5.57068 18.1631 5.28621 17.8219 4.89665 17.3271C4.5071 16.8324 4.15856 16.3245 3.85102 15.8037C3.54348 15.2829 3.26926 14.6527 3.02835 13.9131C2.78745 13.1735 2.66699 12.4548 2.66699 11.7568C2.66699 9.46517 3.31795 7.6735 4.61987 6.38184C5.92179 5.09017 7.72089 4.44434 10.0172 4.44434C10.6528 4.44434 11.3012 4.55632 11.9624 4.78027C12.6236 5.00423 13.2387 5.30632 13.8076 5.68652C14.3766 6.06673 14.8661 6.4235 15.2761 6.75684C15.6862 7.09017 16.0757 7.44434 16.4448 7.81934C16.8138 7.44434 17.2034 7.09017 17.6134 6.75684C18.0235 6.4235 18.513 6.06673 19.0819 5.68652C19.6509 5.30632 20.266 5.00423 20.9272 4.78027C21.5884 4.55632 22.2368 4.44434 22.8723 4.44434C25.1686 4.44434 26.9678 5.09017 28.2697 6.38184C29.5716 7.6735 30.2225 9.46517 30.2225 11.7568C30.2225 14.0589 29.0488 16.4027 26.7012 18.7881L17.1214 28.1631C16.9368 28.3506 16.7113 28.4443 16.4448 28.4443Z" fill="white" fill-opacity="0.7" shape-rendering="crispEdges"/>
<path d="M16.1246 27.8124L16.1246 27.8123L16.1182 27.806L6.52296 18.3998L6.50637 18.3835L6.48833 18.3689C6.41081 18.3058 6.28727 18.1888 6.11135 18.0049C5.95039 17.8367 5.67914 17.5127 5.28951 17.0179C4.91317 16.5398 4.57733 16.0504 4.28156 15.5495C3.99695 15.0675 3.73641 14.4724 3.50377 13.7582C3.2773 13.063 3.16699 12.3965 3.16699 11.7568C3.16699 9.56328 3.78708 7.91239 4.97202 6.73678C6.15803 5.56011 7.81775 4.94434 10.0172 4.94434C10.5931 4.94434 11.1874 5.04567 11.802 5.25385C12.4225 5.46403 12.998 5.74687 13.5298 6.10224C14.0894 6.47617 14.5657 6.82368 14.9607 7.14482C15.3565 7.46655 15.7324 7.80828 16.0884 8.17005L16.4448 8.53217L16.8011 8.17005C17.1572 7.80828 17.533 7.46655 17.9288 7.14482C18.3239 6.82368 18.8002 6.47617 19.3597 6.10224C19.8915 5.74687 20.467 5.46403 21.0876 5.25385C21.7022 5.04567 22.2964 4.94434 22.8723 4.94434C25.0718 4.94434 26.7315 5.56011 27.9175 6.73678C29.1025 7.91239 29.7225 9.56328 29.7225 11.7568C29.7225 13.8773 28.6431 16.101 26.3481 18.4341L16.7716 27.8057L16.7716 27.8057L16.765 27.8124C16.6758 27.903 16.5793 27.9443 16.4448 27.9443C16.3102 27.9443 16.2137 27.903 16.1246 27.8124Z" stroke="white" shape-rendering="crispEdges"/>
</g>
</g>
<defs>
<filter id="filter0_d_3070_6213" x="-0.333008" y="2.44434" width="33.5557" height="30" filterUnits="userSpaceOnUse" color-interpolation-filters="sRGB">
<feFlood flood-opacity="0" result="BackgroundImageFix"/>
<feColorMatrix in="SourceAlpha" type="matrix" values="0 0 0 0 0 0 0 0 0 0 0 0 0 0 0 0 0 0 127 0" result="hardAlpha"/>
<feOffset dy="1"/>
<feGaussianBlur stdDeviation="1.5"/>
<feComposite in2="hardAlpha" operator="out"/>
<feColorMatrix type="matrix" values="0 0 0 0 0 0 0 0 0 0 0 0 0 0 0 0 0 0 0.1 0"/>
<feBlend mode="normal" in2="BackgroundImageFix" result="effect1_dropShadow_3070_6213"/>
<feBlend mode="normal" in="SourceGraphic" in2="effect1_dropShadow_3070_6213" result="shape"/>
</filter>
<clipPath id="clip0_3070_6213">
<rect width="32" height="32" fill="white"/>
</clipPath>
</defs>
</svg>
