<svg width="32" height="32" viewBox="0 0 32 32" fill="none" xmlns="http://www.w3.org/2000/svg">
<g id="heart" clip-path="url(#clip0_3075_17846)">
<g id="Vector" filter="url(#filter0_d_3075_17846)">
<path d="M16.4438 28.4443C16.1773 28.4443 15.9517 28.3506 15.7672 28.1631L6.17197 18.7568C6.06945 18.6735 5.9285 18.5381 5.7491 18.3506C5.5697 18.1631 5.28523 17.8219 4.89568 17.3271C4.50613 16.8324 4.15758 16.3245 3.85004 15.8037C3.5425 15.2829 3.26828 14.6527 3.02737 13.9131C2.78647 13.1735 2.66602 12.4548 2.66602 11.7568C2.66602 9.46517 3.31697 7.6735 4.61889 6.38184C5.92081 5.09017 7.71992 4.44434 10.0162 4.44434C10.6518 4.44434 11.3002 4.55632 11.9614 4.78027C12.6226 5.00423 13.2377 5.30632 13.8066 5.68652C14.3756 6.06673 14.8651 6.4235 15.2751 6.75684C15.6852 7.09017 16.0747 7.44434 16.4438 7.81934C16.8128 7.44434 17.2024 7.09017 17.6124 6.75684C18.0225 6.4235 18.512 6.06673 19.0809 5.68652C19.6499 5.30632 20.265 5.00423 20.9262 4.78027C21.5874 4.55632 22.2358 4.44434 22.8714 4.44434C25.1677 4.44434 26.9668 5.09017 28.2687 6.38184C29.5706 7.6735 30.2216 9.46517 30.2216 11.7568C30.2216 14.0589 29.0478 16.4027 26.7002 18.7881L17.1204 28.1631C16.9359 28.3506 16.7103 28.4443 16.4438 28.4443Z" fill="#FF4D4F"/>
<path d="M16.1236 27.8124L16.1236 27.8123L16.1172 27.806L6.52199 18.3998L6.50539 18.3835L6.48736 18.3689C6.40983 18.3058 6.28629 18.1888 6.11037 18.0049C5.94942 17.8367 5.67816 17.5127 5.28853 17.0179C4.9122 16.5398 4.57635 16.0504 4.28059 15.5495C3.99597 15.0675 3.73543 14.4724 3.50279 13.7582C3.27633 13.063 3.16602 12.3965 3.16602 11.7568C3.16602 9.56328 3.78611 7.91239 4.97105 6.73678C6.15706 5.56011 7.81677 4.94434 10.0162 4.94434C10.5921 4.94434 11.1864 5.04567 11.801 5.25385C12.4216 5.46403 12.997 5.74687 13.5288 6.10224C14.0884 6.47617 14.5647 6.82368 14.9598 7.14482C15.3555 7.46655 15.7314 7.80828 16.0874 8.17005L16.4438 8.53217L16.8002 8.17005C17.1562 7.80828 17.5321 7.46655 17.9278 7.14482C18.3229 6.82368 18.7992 6.47617 19.3588 6.10224C19.8905 5.74687 20.466 5.46403 21.0866 5.25385C21.7012 5.04567 22.2954 4.94434 22.8714 4.94434C25.0708 4.94434 26.7305 5.56011 27.9165 6.73678C29.1015 7.91239 29.7216 9.56328 29.7216 11.7568C29.7216 13.8773 28.6421 16.101 26.3471 18.4341L16.7707 27.8057L16.7706 27.8057L16.764 27.8124C16.6749 27.903 16.5783 27.9443 16.4438 27.9443C16.3093 27.9443 16.2127 27.903 16.1236 27.8124Z" stroke="white"/>
</g>
</g>
<defs>
<filter id="filter0_d_3075_17846" x="-0.333984" y="2.44434" width="33.5547" height="30" filterUnits="userSpaceOnUse" color-interpolation-filters="sRGB">
<feFlood flood-opacity="0" result="BackgroundImageFix"/>
<feColorMatrix in="SourceAlpha" type="matrix" values="0 0 0 0 0 0 0 0 0 0 0 0 0 0 0 0 0 0 127 0" result="hardAlpha"/>
<feOffset dy="1"/>
<feGaussianBlur stdDeviation="1.5"/>
<feComposite in2="hardAlpha" operator="out"/>
<feColorMatrix type="matrix" values="0 0 0 0 0 0 0 0 0 0 0 0 0 0 0 0 0 0 0.1 0"/>
<feBlend mode="normal" in2="BackgroundImageFix" result="effect1_dropShadow_3075_17846"/>
<feBlend mode="normal" in="SourceGraphic" in2="effect1_dropShadow_3075_17846" result="shape"/>
</filter>
<clipPath id="clip0_3075_17846">
<rect width="32" height="32" fill="white"/>
</clipPath>
</defs>
</svg>
