<svg width="16" height="16" viewBox="0 0 16 16" fill="none" xmlns="http://www.w3.org/2000/svg">
<g id="Heart">
<path id="Vector" d="M7.93328 14.6666C7.83072 14.6666 7.73548 14.6446 7.64024 14.5933C7.35453 14.4395 0.717163 10.8497 0.717163 5.25267C0.717163 3.09149 2.53401 1.33325 4.77577 1.33325C6.02119 1.33325 7.1787 1.8827 7.93328 2.79113C8.68786 1.8827 9.84537 1.33325 11.0908 1.33325C13.3252 1.33325 15.1494 3.09149 15.1494 5.25267C15.1494 10.8497 8.50471 14.4468 8.22632 14.5933C8.13841 14.6446 8.03584 14.6666 7.93328 14.6666ZM4.77577 2.57867C3.22266 2.57867 1.96258 3.78014 1.96258 5.25267C1.96258 9.4871 6.69518 12.586 7.93328 13.3259C9.17138 12.586 13.904 9.4871 13.904 5.25267C13.904 3.78014 12.6439 2.57867 11.0908 2.57867C9.95526 2.57867 8.94427 3.22336 8.49738 4.21237C8.29958 4.65926 7.55965 4.65926 7.36185 4.21237C6.92229 3.22336 5.90398 2.57867 4.76845 2.57867H4.77577Z" fill="#787C85"/>
</g>
</svg>
