<svg width="14" height="14" viewBox="0 0 14 14" fill="none" xmlns="http://www.w3.org/2000/svg">
<g id="wrapper">
<path id="Union" d="M6.94154 12.8334C6.8518 12.8334 6.76847 12.8142 6.68513 12.7693C6.43513 12.6347 0.627441 9.49367 0.627441 4.59623C0.627441 2.70521 2.21718 1.16675 4.17872 1.16675C5.26847 1.16675 6.28129 1.64752 6.94154 2.44239C7.6018 1.64752 8.61462 1.16675 9.70436 1.16675C11.6595 1.16675 13.2556 2.70521 13.2556 4.59623C13.2556 9.49367 7.44154 12.6411 7.19795 12.7693C7.12103 12.8142 7.03129 12.8334 6.94154 12.8334ZM4.17872 2.25649C2.81975 2.25649 1.71718 3.30777 1.71718 4.59623C1.71718 8.30136 5.85821 11.0129 6.94154 11.6603C8.02488 11.0129 12.1659 8.30136 12.1659 4.59623C12.1659 3.30777 11.0633 2.25649 9.70436 2.25649C8.71077 2.25649 7.82616 2.82059 7.43513 3.68598C7.26206 4.077 6.61462 4.077 6.44154 3.68598C6.05693 2.82059 5.1659 2.25649 4.17231 2.25649H4.17872Z" fill="#AD9CEB"/>
</g>
</svg>
