<svg width="16" height="16" viewBox="0 0 16 16" fill="none" xmlns="http://www.w3.org/2000/svg">
<g id="Heart">
<path id="Vector" d="M7.93291 14.6666C7.83035 14.6666 7.73511 14.6446 7.63987 14.5933C7.35416 14.4395 0.716797 10.8497 0.716797 5.25267C0.716797 3.09149 2.53365 1.33325 4.7754 1.33325C6.02083 1.33325 7.17834 1.8827 7.93291 2.79113C8.68749 1.8827 9.845 1.33325 11.0904 1.33325C13.3249 1.33325 15.149 3.09149 15.149 5.25267C15.149 10.8497 8.50434 14.4468 8.22595 14.5933C8.13804 14.6446 8.03548 14.6666 7.93291 14.6666ZM4.7754 2.57867C3.22229 2.57867 1.96222 3.78014 1.96222 5.25267C1.96222 9.4871 6.69482 12.586 7.93291 13.3259C9.17101 12.586 13.9036 9.4871 13.9036 5.25267C13.9036 3.78014 12.6435 2.57867 11.0904 2.57867C9.95489 2.57867 8.9439 3.22336 8.49702 4.21237C8.29921 4.65926 7.55929 4.65926 7.36148 4.21237C6.92192 3.22336 5.90361 2.57867 4.76808 2.57867H4.7754Z" fill="#6B56CA"/>
</g>
</svg>
