<svg width="14" height="14" viewBox="0 0 14 14" fill="none" xmlns="http://www.w3.org/2000/svg">
<g id="wrapper">
<path id="Union" d="M6.91429 12.1601L6.9103 12.1584L6.89775 12.1515C6.82434 12.1111 6.75152 12.0697 6.6793 12.0272C5.81109 11.5113 4.99972 10.9052 4.25865 10.2191C2.94623 8.99452 1.55566 7.17732 1.55566 4.93919C1.55566 3.26914 2.96106 1.94474 4.65734 1.94474C5.12889 1.94243 5.5949 2.04646 6.02071 2.2491C6.44651 2.45173 6.82116 2.74775 7.11678 3.11514C7.41246 2.74767 7.78719 2.45161 8.2131 2.24897C8.63901 2.04634 9.10513 1.94235 9.57678 1.94474C11.2725 1.94474 12.6779 3.26914 12.6779 4.93919C12.6779 7.17789 11.2873 8.99509 9.9749 10.2185C9.23385 10.9047 8.42247 11.5107 7.55425 12.0266C7.48204 12.0693 7.40921 12.1109 7.3358 12.1515L7.32325 12.1584L7.31926 12.1606L7.31755 12.1612C7.2557 12.194 7.18677 12.2111 7.11678 12.2111C7.04678 12.2111 6.97786 12.194 6.916 12.1612L6.91429 12.1601Z" fill="#513FAD"/>
</g>
</svg>
