<svg width="16" height="16" viewBox="0 0 16 16" fill="none" xmlns="http://www.w3.org/2000/svg">
<g id="home-modern">
<path id="Vector" d="M14.41 14.6666H1.2817C0.945079 14.6666 0.675781 14.3973 0.675781 14.0607C0.675781 13.724 0.945079 13.4547 1.2817 13.4547H1.68565V6.47993L1.49041 6.55399C1.17398 6.66844 0.830628 6.50686 0.716176 6.19044C0.601724 5.87401 0.763303 5.53066 1.07973 5.41621L1.69238 5.19403V1.94226C1.68565 1.60564 1.95495 1.33634 2.29157 1.33634H4.3113C4.64792 1.33634 4.91722 1.60564 4.91722 1.94226V4.01586L11.1582 1.74702C11.1582 1.74702 11.1784 1.74029 11.1851 1.74029L12.1815 1.37C12.498 1.25555 12.8413 1.41713 12.9558 1.73356C13.0702 2.04998 12.9086 2.39334 12.5922 2.50779L11.9796 2.72996V6.04906L13.5684 6.58092C13.5684 6.58092 13.5886 6.58092 13.5953 6.58765L14.5917 6.91754C14.9082 7.02526 15.0832 7.36861 14.9755 7.68504C14.8678 8.00146 14.5244 8.17651 14.208 8.06879L13.9926 7.99473V13.448H14.3965C14.7331 13.448 15.0024 13.7173 15.0024 14.0539C15.0024 14.3906 14.7331 14.6599 14.3965 14.6599L14.41 14.6666ZM11.9863 13.4547H12.7942V7.59752L11.9863 7.32822V13.4547ZM8.95669 13.4547H10.7745V3.1743L4.53347 5.44313C4.53347 5.44313 4.51328 5.44313 4.50654 5.44987L2.89749 6.03559V13.448H4.71525V10.7752C4.71525 10.0212 5.3279 9.40855 6.0752 9.40855H7.59C8.34404 9.40855 8.95669 10.0212 8.95669 10.7752V13.448V13.4547ZM5.92709 13.4547H7.74485V10.782C7.74485 10.7012 7.67753 10.6339 7.59 10.6339H6.0752C5.99441 10.6339 5.92036 10.7012 5.92036 10.782V13.4547H5.92709ZM2.89749 2.54818V4.74969L3.70538 4.45347V2.54818H2.89749Z" fill="#6B56CA"/>
</g>
</svg>
