<svg width="14" height="14" viewBox="0 0 14 14" fill="none" xmlns="http://www.w3.org/2000/svg">
<g id="home-modern">
<path id="Vector" d="M12.6088 12.8334H1.12155C0.827005 12.8334 0.59137 12.5978 0.59137 12.3032C0.59137 12.0087 0.827005 11.7731 1.12155 11.7731H1.475V5.67009L1.30417 5.73489C1.0273 5.83504 0.72686 5.69366 0.626715 5.41678C0.52657 5.13991 0.667951 4.83948 0.944823 4.73933L1.48089 4.54493V1.69963C1.475 1.40509 1.71064 1.16945 2.00518 1.16945H3.77245C4.06699 1.16945 4.30263 1.40509 4.30263 1.69963V3.51403L9.76349 1.5288C9.76349 1.5288 9.78116 1.52291 9.78705 1.52291L10.6589 1.19891C10.9358 1.09876 11.2362 1.24014 11.3364 1.51701C11.4365 1.79389 11.2951 2.09432 11.0182 2.19447L10.4822 2.38887V5.29308L11.8724 5.75846C11.8724 5.75846 11.8901 5.75846 11.896 5.76435L12.7678 6.053C13.0447 6.14725 13.1979 6.44769 13.1036 6.72456C13.0094 7.00143 12.7089 7.1546 12.4321 7.06034L12.2436 6.99554V11.7672H12.597C12.8915 11.7672 13.1272 12.0028 13.1272 12.2973C13.1272 12.5919 12.8915 12.8275 12.597 12.8275L12.6088 12.8334ZM10.4881 11.7731H11.195V6.64798L10.4881 6.41234V11.7731ZM7.83716 11.7731H9.42771V2.77767L3.96685 4.76289C3.96685 4.76289 3.94918 4.7629 3.94329 4.76879L2.53536 5.28129V11.7672H4.1259V9.42848C4.1259 8.7687 4.66198 8.23263 5.31586 8.23263H6.64131C7.30109 8.23263 7.83716 8.7687 7.83716 9.42848V11.7672V11.7731ZM5.18626 11.7731H6.7768V9.43437C6.7768 9.36368 6.7179 9.30477 6.64131 9.30477H5.31586C5.24517 9.30477 5.18037 9.36368 5.18037 9.43437V11.7731H5.18626ZM2.53536 2.22981V4.15613L3.24227 3.89693V2.22981H2.53536Z" fill="black" fill-opacity="0.85"/>
</g>
</svg>
