<svg width="32" height="32" viewBox="0 0 32 32" fill="none" xmlns="http://www.w3.org/2000/svg">
<path d="M31.9945 16.0383C31.9945 18.9615 32.0069 21.8889 31.9945 24.8121C31.9739 28.3126 29.6691 31.1452 26.2634 31.8543C25.7563 31.9615 25.2203 31.9904 24.7008 31.9904C18.8997 31.9986 13.1026 31.9986 7.30149 31.9945C3.53301 31.9945 0.638623 29.5001 0.0613938 25.7811C0.0119171 25.4512 0.00366494 25.109 0.00366494 24.7709C0.00366494 18.9203 -0.00458118 13.0738 0.00366494 7.22317C0.0119111 3.70619 2.32495 0.853034 5.73885 0.143868C6.23774 0.0407911 6.75725 0.00780657 7.26438 0.00780657C13.0903 -0.000439556 18.912 -0.00456262 24.7379 0.00780657C28.2879 0.0119296 31.141 2.30848 31.8543 5.74299C31.9615 6.26249 31.9904 6.81086 31.9904 7.34273C32.0028 10.2412 31.9945 13.1439 31.9945 16.0424V16.0383ZM26.3583 16.0259C26.3748 10.3113 21.7569 5.66465 16.0424 5.63991C10.3072 5.61929 5.64814 10.2412 5.63577 15.9682C5.6234 21.6827 10.2412 26.3336 15.9517 26.3542C21.6868 26.3748 26.3418 21.757 26.3583 16.0218V16.0259ZM28.7703 5.33068C28.7703 4.11438 27.8055 3.14133 26.5892 3.13721C25.377 3.13721 24.3998 4.10613 24.3957 5.31831C24.3957 6.52637 25.3729 7.51178 26.5768 7.5159C27.7849 7.5159 28.7662 6.54286 28.7703 5.33068Z" fill="#513FAD"/>
<path d="M21.8641 15.9898C21.8682 19.2346 19.2624 21.8569 16.0176 21.8692C12.7603 21.8816 10.1298 19.2552 10.1298 15.9939C10.1298 12.749 12.7438 10.135 15.9928 10.135C19.2418 10.135 21.8558 12.7449 21.8641 15.9898Z" fill="#513FAD"/>
</svg>
