<svg width="20" height="20" viewBox="0 0 20 20" fill="none" xmlns="http://www.w3.org/2000/svg">
<g id="Instagram">
<g id="Group 36701">
<path id="Vector" d="M19.9966 10.0248C19.9966 11.852 20.0043 13.6817 19.9966 15.5089C19.9837 17.6969 18.5432 19.4674 16.4147 19.9107C16.0977 19.9777 15.7627 19.9957 15.438 19.9957C11.8123 20.0009 8.18915 20.0009 4.56343 19.9983C2.20813 19.9983 0.399139 18.4391 0.0383712 16.1146C0.00744819 15.9084 0.00229059 15.6945 0.00229059 15.4832C0.00229059 11.8262 -0.00286324 8.17183 0.00229059 4.51487C0.00744442 2.31657 1.45309 0.533193 3.58678 0.0899251C3.89859 0.0254966 4.22328 0.00487953 4.54024 0.00487953C8.18142 -0.000274746 11.82 -0.00285188 15.4612 0.00487953C17.6799 0.00745666 19.4631 1.44292 19.9089 3.58968C19.976 3.9144 19.994 4.25716 19.994 4.58961C20.0017 6.40133 19.9966 8.21564 19.9966 10.0274V10.0248ZM16.4739 10.0171C16.4842 6.44515 13.5981 3.54071 10.0265 3.52525C6.442 3.51236 3.53009 6.40133 3.52236 9.98098C3.51463 13.5529 6.40077 16.4599 9.96979 16.4728C13.5543 16.4857 16.4636 13.5993 16.4739 10.0145V10.0171ZM17.9814 3.33196C17.9814 2.57171 17.3784 1.9635 16.6182 1.96093C15.8606 1.96093 15.2499 2.56655 15.2473 3.32423C15.2473 4.07933 15.858 4.69527 16.6105 4.69785C17.3655 4.69785 17.9788 4.08964 17.9814 3.33196Z" fill="#513FAD"/>
<path id="Vector_2" d="M13.8372 10.0249C13.8399 12.1298 12.1498 13.8309 10.0453 13.8389C7.93267 13.8469 6.22656 12.1432 6.22656 10.0276C6.22656 7.92264 7.92198 6.22693 10.0292 6.22693C12.1364 6.22693 13.8319 7.91996 13.8372 10.0249Z" fill="#513FAD"/>
</g>
</g>
</svg>
