<svg width="14" height="14" viewBox="0 0 14 14" fill="none" xmlns="http://www.w3.org/2000/svg">
<g id="key">
<path id="Vector" d="M3.7136 12.8279H1.65961C1.38575 12.8279 1.16666 12.6088 1.16666 12.335V10.7903C1.16666 10.3357 1.35288 9.89198 1.67057 9.5688L5.23082 6.00841C5.32393 5.91529 5.3568 5.75644 5.32941 5.58664C5.24177 5.06627 5.25821 4.54591 5.38418 4.0365C5.51016 3.52709 5.74021 3.05602 6.05789 2.63973C6.37558 2.22343 6.77542 1.88383 7.24099 1.63186C7.70109 1.37989 8.205 1.22652 8.72534 1.1827C9.25116 1.13341 9.77151 1.19914 10.2699 1.36894C10.7684 1.53874 11.2175 1.80714 11.6064 2.16318C11.9953 2.51922 12.2965 2.94099 12.5102 3.42301C12.7238 3.90504 12.8278 4.41445 12.8333 4.94577C12.8333 5.49352 12.7128 6.04675 12.4828 6.53973C12.2527 7.03818 11.9077 7.48734 11.4914 7.8379C11.0751 8.18847 10.5712 8.45139 10.0454 8.5938C9.51955 8.73622 8.94991 8.76361 8.41313 8.67049C8.23786 8.63762 8.07902 8.67597 7.99138 8.76909L6.53442 10.2261C6.4413 10.3192 6.31533 10.3685 6.18387 10.3685H5.44443V11.108C5.44443 11.3819 5.22534 11.601 4.95148 11.601H4.21204V12.3404C4.21204 12.6143 3.99295 12.8334 3.71908 12.8334L3.7136 12.8279ZM2.15257 11.842H3.22065V11.1025C3.22065 10.8286 3.43974 10.6095 3.7136 10.6095H4.45304V9.87007C4.45304 9.59619 4.67213 9.37709 4.946 9.37709H5.97573L7.28481 8.06796C7.60249 7.75026 8.0845 7.61333 8.57198 7.69549C8.97182 7.7667 9.3881 7.74479 9.78246 7.64071C10.1714 7.53664 10.5438 7.33945 10.856 7.08201C11.1627 6.81908 11.4202 6.49043 11.59 6.12344C11.7598 5.75644 11.8529 5.35111 11.8529 4.94577C11.8529 4.54043 11.7707 4.17891 11.6174 3.82287C11.4585 3.46683 11.2339 3.15461 10.9491 2.89169C10.6643 2.62877 10.3302 2.43158 9.96321 2.3056C9.59623 2.17961 9.21282 2.13579 8.82393 2.16866C8.43504 2.20152 8.06806 2.31655 7.72299 2.50279C7.3834 2.68902 7.08763 2.94099 6.8521 3.24773C6.61658 3.55447 6.44678 3.90504 6.35367 4.28299C6.26055 4.66094 6.24412 5.04984 6.31533 5.43327C6.39749 5.92077 6.26055 6.40279 5.94287 6.72049L2.38262 10.2809C2.24569 10.4178 2.16353 10.6095 2.16353 10.8012V11.8529L2.15257 11.842ZM10.6972 5.43327C10.4233 5.43327 10.2042 5.21417 10.2042 4.94029C10.2042 4.63355 10.0837 4.34324 9.86462 4.12414C9.64553 3.90504 9.36071 3.79001 9.05398 3.79001C8.78011 3.79001 8.56102 3.57091 8.56102 3.29703C8.56102 3.02315 8.78011 2.80405 9.05398 2.80405C9.62362 2.80405 10.1604 3.02863 10.5657 3.42849C10.971 3.83383 11.1901 4.37063 11.1901 4.94029C11.1901 5.21417 10.971 5.43327 10.6972 5.43327Z" fill="black" fill-opacity="0.85"/>
</g>
</svg>
