<svg width="16" height="16" viewBox="0 0 16 16" fill="none" xmlns="http://www.w3.org/2000/svg">
<g id="key">
<path id="Vector" d="M4.24478 14.6603H1.89736C1.58438 14.6603 1.33398 14.4099 1.33398 14.0969V12.3316C1.33398 11.812 1.54682 11.3049 1.90988 10.9356L5.97874 6.86658C6.08516 6.76016 6.12272 6.57862 6.09142 6.38456C5.99126 5.78985 6.01004 5.19515 6.15402 4.61297C6.29799 4.03078 6.5609 3.49242 6.92397 3.01666C7.28704 2.54089 7.744 2.15277 8.27608 1.86481C8.8019 1.57685 9.3778 1.40157 9.97248 1.35149C10.5734 1.29515 11.1681 1.37027 11.7377 1.56433C12.3074 1.75839 12.8207 2.06513 13.2651 2.47203C13.7096 2.87894 14.0539 3.36096 14.298 3.91184C14.5421 4.46273 14.6611 5.04491 14.6673 5.65213C14.6673 6.27814 14.5296 6.9104 14.2667 7.4738C14.0038 8.04347 13.6094 8.55679 13.1337 8.95743C12.6579 9.35807 12.082 9.65856 11.4811 9.82132C10.8802 9.98408 10.2291 10.0154 9.61568 9.90896C9.41536 9.8714 9.23383 9.91522 9.13367 10.0216L7.46857 11.6868C7.36215 11.7932 7.21818 11.8496 7.06794 11.8496H6.22287V12.6947C6.22287 13.0077 5.97248 13.2581 5.65949 13.2581H4.81442V14.1032C4.81442 14.4162 4.56403 14.6666 4.25104 14.6666L4.24478 14.6603ZM2.46075 13.5335H3.6814V12.6884C3.6814 12.3754 3.93179 12.125 4.24478 12.125H5.08985V11.2799C5.08985 10.9669 5.34024 10.7165 5.65323 10.7165H6.83007L8.32616 9.22035C8.68923 8.85727 9.24009 8.70077 9.79721 8.79467C10.2542 8.87605 10.7299 8.85101 11.1806 8.73207C11.6251 8.61313 12.0507 8.38777 12.4075 8.09355C12.7581 7.79307 13.0523 7.41746 13.2463 6.99804C13.4404 6.57862 13.5468 6.11537 13.5468 5.65213C13.5468 5.18889 13.4529 4.77573 13.2776 4.36882C13.0961 3.96192 12.8395 3.6051 12.514 3.30462C12.1884 3.00414 11.8066 2.77877 11.3872 2.63479C10.9678 2.49081 10.5296 2.44073 10.0852 2.47829C9.64071 2.51585 9.22131 2.64731 8.82694 2.86016C8.43884 3.073 8.10081 3.36096 7.83164 3.71152C7.56247 4.06208 7.36841 4.46273 7.262 4.89467C7.15558 5.32661 7.1368 5.77107 7.21818 6.20928C7.31208 6.76642 7.15558 7.3173 6.79251 7.68038L2.72366 11.7494C2.56716 11.9059 2.47326 12.125 2.47326 12.3441V13.546L2.46075 13.5335ZM12.226 6.20928C11.913 6.20928 11.6626 5.95887 11.6626 5.64587C11.6626 5.29531 11.5249 4.96353 11.2745 4.71313C11.0241 4.46273 10.6986 4.33126 10.3481 4.33126C10.0351 4.33126 9.78469 4.08086 9.78469 3.76786C9.78469 3.45486 10.0351 3.20446 10.3481 3.20446C10.9991 3.20446 11.6125 3.46112 12.0758 3.9181C12.539 4.38134 12.7894 4.99483 12.7894 5.64587C12.7894 5.95887 12.539 6.20928 12.226 6.20928Z" fill="#6B56CA"/>
</g>
</svg>
