<svg width="12" height="12" viewBox="0 0 12 12" fill="none" xmlns="http://www.w3.org/2000/svg">
<g id="Left">
<g id="Vector">
<mask id="path-1-inside-1_2708_31469" fill="white">
<path d="M8.39468 11.133C8.25134 11.133 8.10801 11.0796 7.99801 10.9696L3.49801 6.46964C3.27801 6.24964 3.27801 5.89297 3.49801 5.67297L7.99467 1.16964C8.21467 0.949639 8.57134 0.949639 8.79134 1.16964C9.01134 1.38964 9.01134 1.74631 8.79134 1.96631L4.68801 6.06964L8.79134 10.173C9.01134 10.393 9.01134 10.7496 8.79134 10.9696C8.68134 11.0796 8.53801 11.133 8.39468 11.133Z"/>
</mask>
<path d="M8.39468 11.133C8.25134 11.133 8.10801 11.0796 7.99801 10.9696L3.49801 6.46964C3.27801 6.24964 3.27801 5.89297 3.49801 5.67297L7.99467 1.16964C8.21467 0.949639 8.57134 0.949639 8.79134 1.16964C9.01134 1.38964 9.01134 1.74631 8.79134 1.96631L4.68801 6.06964L8.79134 10.173C9.01134 10.393 9.01134 10.7496 8.79134 10.9696C8.68134 11.0796 8.53801 11.133 8.39468 11.133Z" fill="black"/>
<path d="M7.99801 10.9696L7.07877 11.8889L7.99801 10.9696ZM3.49801 6.46964L4.41725 5.5504L3.49801 6.46964ZM3.49801 5.67297L4.41725 6.59221L4.41793 6.59153L3.49801 5.67297ZM7.99467 1.16964L7.07543 0.2504L7.07475 0.251081L7.99467 1.16964ZM8.79134 1.96631L7.8721 1.04707L7.8721 1.04707L8.79134 1.96631ZM4.68801 6.06964L3.76877 5.1504L2.84953 6.06964L3.76877 6.98888L4.68801 6.06964ZM8.79134 10.173L7.8721 11.0922L7.8721 11.0922L8.79134 10.173ZM8.79134 10.9696L9.71058 11.8889L8.79134 10.9696ZM8.39468 9.83297C8.57496 9.83297 8.76888 9.90204 8.91725 10.0504L7.07877 11.8889C7.44713 12.2572 7.92772 12.433 8.39468 12.433V9.83297ZM8.91725 10.0504L4.41725 5.5504L2.57877 7.38888L7.07877 11.8889L8.91725 10.0504ZM4.41725 5.5504C4.70493 5.83808 4.70493 6.30453 4.41725 6.59221L2.57877 4.75373C1.85109 5.48141 1.85109 6.6612 2.57877 7.38888L4.41725 5.5504ZM4.41793 6.59153L8.91459 2.0882L7.07475 0.251081L2.57809 4.75441L4.41793 6.59153ZM8.91391 2.08888C8.62623 2.37656 8.15979 2.37656 7.8721 2.08888L9.71058 0.2504C8.9829 -0.477282 7.80311 -0.477282 7.07543 0.2504L8.91391 2.08888ZM7.8721 2.08888C7.58442 1.8012 7.58442 1.33475 7.8721 1.04707L9.71058 2.88554C10.4383 2.15786 10.4383 0.978081 9.71058 0.2504L7.8721 2.08888ZM7.8721 1.04707L3.76877 5.1504L5.60725 6.98888L9.71058 2.88554L7.8721 1.04707ZM3.76877 6.98888L7.8721 11.0922L9.71058 9.25373L5.60725 5.1504L3.76877 6.98888ZM7.8721 11.0922C7.58442 10.8045 7.58442 10.3381 7.8721 10.0504L9.71058 11.8889C10.4383 11.1612 10.4383 9.98141 9.71058 9.25373L7.8721 11.0922ZM7.8721 10.0504C8.02047 9.90203 8.21439 9.83297 8.39468 9.83297V12.433C8.86163 12.433 9.34222 12.2572 9.71058 11.8889L7.8721 10.0504Z" fill="#6B56CA" mask="url(#path-1-inside-1_2708_31469)"/>
</g>
</g>
</svg>
