<svg width="32" height="32" viewBox="0 0 32 32" fill="none" xmlns="http://www.w3.org/2000/svg">
<path d="M15.9979 0C24.8257 0 31.9917 7.15371 32 15.9856C32.0124 24.8215 24.8215 32.0082 15.9856 32C7.15785 31.9876 -0.00823924 24.8174 7.10997e-06 15.9979C0.0123766 7.16608 7.17021 0.00412318 15.9979 0ZM16.0763 6.69192C13.3302 6.74964 10.8893 7.44234 8.83185 9.18232C7.22794 10.5388 6.23425 12.2335 6.18477 14.3816C6.13942 16.4309 6.98879 18.109 8.44015 19.4944C10.143 21.123 12.2252 21.9436 14.5301 22.2404C15.0578 22.3105 15.2269 22.5084 15.1692 23.0279C15.1115 23.5186 15.029 24.0134 15.0125 24.504C15.0043 24.7267 15.0702 24.9988 15.2063 25.1679C15.3836 25.3864 15.6557 25.2916 15.8866 25.1638C16.938 24.5824 18.0142 24.0422 19.0367 23.4155C21.3746 21.9765 23.4238 20.2201 24.8793 17.8492C25.4606 16.9009 25.7905 15.8701 25.8235 14.7569C25.8812 12.7282 25.0978 11.0295 23.6712 9.63587C21.5395 7.55366 18.9007 6.75789 16.0804 6.68779L16.0763 6.69192Z" fill="#513FAD"/>
<path d="M15.7878 14.0774C15.7878 14.7577 15.7878 15.438 15.7878 16.1142C15.7878 16.5307 15.6023 16.7533 15.2766 16.7451C14.9632 16.7368 14.79 16.5307 14.79 16.1266C14.7859 14.9474 14.79 13.7723 14.79 12.593C14.79 12.325 14.8436 12.0859 15.1199 11.9911C15.4085 11.888 15.6106 12.0364 15.7837 12.2673C16.3197 12.9806 16.8681 13.6857 17.4124 14.3907C17.4866 14.4856 17.5649 14.5763 17.7051 14.7495C17.7051 13.9496 17.6886 13.2486 17.7175 12.5518C17.7257 12.3704 17.8371 12.1312 17.9814 12.0323C18.3071 11.8055 18.6947 12.0735 18.6988 12.5147C18.7112 13.294 18.6988 14.0774 18.6988 14.8567C18.6988 15.2896 18.6988 15.7267 18.6988 16.1596C18.6988 16.4193 18.6081 16.6255 18.3525 16.7162C18.0927 16.8069 17.9072 16.6874 17.7464 16.4812C17.1238 15.6648 16.4888 14.8567 15.8621 14.0444C15.8373 14.0526 15.8085 14.065 15.7837 14.0733L15.7878 14.0774Z" fill="#513FAD"/>
<path d="M20.484 12.9556V13.8462C20.9417 13.8462 21.3829 13.8462 21.824 13.8462C22.2281 13.8462 22.4714 14.04 22.4714 14.3533C22.4714 14.6667 22.2363 14.8564 21.824 14.8605C21.3911 14.8646 20.9582 14.8605 20.4964 14.8605V15.7511C20.9458 15.7511 21.387 15.7511 21.8323 15.7511C22.2487 15.7552 22.4755 15.9407 22.4755 16.2541C22.4755 16.5675 22.2405 16.7489 21.8282 16.7489C21.2344 16.7489 20.6407 16.753 20.0469 16.7489C19.6511 16.7448 19.4656 16.5798 19.4614 16.1881C19.4532 14.9636 19.4532 13.739 19.4614 12.5103C19.4614 12.1392 19.647 11.966 20.0181 11.9578C20.6489 11.9454 21.2798 11.9495 21.9106 11.9578C22.2652 11.9619 22.4796 12.168 22.4755 12.4608C22.4714 12.7494 22.2487 12.9473 21.8941 12.9514C21.4365 12.9597 20.9788 12.9514 20.484 12.9514V12.9556Z" fill="#513FAD"/>
<path d="M10.539 15.75C11.0379 15.75 11.4832 15.7458 11.9244 15.75C12.3161 15.7541 12.5346 15.9355 12.5388 16.2406C12.5429 16.5581 12.312 16.7478 11.9038 16.7478C11.3101 16.7478 10.7163 16.7519 10.1226 16.7478C9.71439 16.7436 9.53297 16.5663 9.52885 16.1581C9.52473 14.9583 9.52473 13.7543 9.52885 12.5545C9.52885 12.1669 9.71852 11.9566 10.036 11.9608C10.3494 11.9608 10.5308 12.171 10.5349 12.5669C10.5432 13.4698 10.5349 14.3728 10.5349 15.2799C10.5349 15.416 10.5349 15.5479 10.5349 15.75H10.539Z" fill="#513FAD"/>
<path d="M14.0311 14.3823C14.0311 15.0008 14.0353 15.6192 14.0311 16.2377C14.027 16.6377 13.8992 16.7572 13.5199 16.7531C13.157 16.7531 13.0251 16.617 13.0251 16.2212C13.0251 14.9843 13.0251 13.7473 13.0251 12.5104C13.0251 12.0857 13.1488 11.9537 13.5322 11.9579C13.9116 11.9579 14.027 12.0857 14.0311 12.5269C14.0353 13.1453 14.0311 13.7638 14.0311 14.3823Z" fill="#513FAD"/>
</svg>
