<svg width="14" height="14" viewBox="0 0 14 14" fill="none" xmlns="http://www.w3.org/2000/svg">
<g id="Lock">
<path id="Vector" d="M12 6.25189H10.9375V2.75189C10.9375 1.6472 10.0422 0.751892 8.9375 0.751892H5.0625C3.95781 0.751892 3.0625 1.6472 3.0625 2.75189V6.25189H2C1.72344 6.25189 1.5 6.47533 1.5 6.75189V12.7519C1.5 13.0285 1.72344 13.2519 2 13.2519H12C12.2766 13.2519 12.5 13.0285 12.5 12.7519V6.75189C12.5 6.47533 12.2766 6.25189 12 6.25189ZM4.1875 2.75189C4.1875 2.26908 4.57969 1.87689 5.0625 1.87689H8.9375C9.42031 1.87689 9.8125 2.26908 9.8125 2.75189V6.25189H4.1875V2.75189ZM11.375 12.1269H2.625V7.37689H11.375V12.1269ZM6.5625 9.95502V10.7831C6.5625 10.8519 6.61875 10.9081 6.6875 10.9081H7.3125C7.38125 10.9081 7.4375 10.8519 7.4375 10.7831V9.95502C7.56648 9.86242 7.66275 9.73128 7.71245 9.58048C7.76216 9.42968 7.76273 9.267 7.71409 9.11585C7.66545 8.96471 7.57011 8.83289 7.44179 8.73938C7.31346 8.64588 7.15878 8.5955 7 8.5955C6.84122 8.5955 6.68654 8.64588 6.55821 8.73938C6.42989 8.83289 6.33455 8.96471 6.28591 9.11585C6.23727 9.267 6.23784 9.42968 6.28755 9.58048C6.33725 9.73128 6.43352 9.86242 6.5625 9.95502V9.95502Z" fill="#AD9CEB"/>
</g>
</svg>
