<svg width="10" height="14" viewBox="0 0 10 14" fill="none" xmlns="http://www.w3.org/2000/svg">
<g id="_&#229;&#156;&#150;&#229;&#177;&#164;_1" clip-path="url(#clip0_2021_10547)">
<path id="Vector" d="M8.7404 13.2223H1.29126C0.636906 13.2223 0.111084 12.6906 0.111084 12.0363V1.95801C0.111084 1.3095 0.642748 0.777832 1.29126 0.777832H4.14238C5.68479 0.777832 7.13957 1.37961 8.23211 2.47215C9.32465 3.56469 9.92642 5.01946 9.92642 6.56187V12.0421C9.92642 12.6965 9.39476 13.2281 8.7404 13.2281V13.2223ZM1.29126 1.82948C1.22115 1.82948 1.15688 1.8879 1.15688 1.96385V12.0363C1.15688 12.1064 1.21531 12.1648 1.29126 12.1648H8.7404C8.81051 12.1648 8.86893 12.1064 8.86893 12.0363V6.77804C8.86893 6.39244 8.71703 6.03021 8.44828 5.75561C8.17368 5.48101 7.81145 5.33495 7.42585 5.33495H6.54948C6.23398 5.33495 5.93602 5.21226 5.71401 4.99025C5.49199 4.76823 5.3693 4.47027 5.3693 4.15478V3.27841C5.3693 2.8928 5.2174 2.53057 4.9428 2.25597C4.6682 1.98138 4.30597 1.83532 3.92037 1.83532H1.29126V1.82948ZM6.22814 2.3144C6.35668 2.61821 6.42094 2.93954 6.42094 3.27841V4.15478C6.42094 4.18983 6.43263 4.22488 6.46184 4.24825C6.48521 4.27162 6.52026 4.28915 6.55532 4.28915H7.43169C7.77055 4.28915 8.09189 4.35342 8.3957 4.48195C8.16784 4.0204 7.86403 3.5939 7.49011 3.21998C7.1162 2.84606 6.6897 2.54226 6.22814 2.3144ZM5.01875 11.0314H2.82783C2.53571 11.0314 2.30201 10.7977 2.30201 10.5055C2.30201 10.2134 2.53571 9.97971 2.82783 9.97971H5.01875C5.31088 9.97971 5.54457 10.2134 5.54457 10.5055C5.54457 10.7977 5.31088 11.0314 5.01875 11.0314ZM7.20968 9.27861H2.82783C2.53571 9.27861 2.30201 9.04492 2.30201 8.75279C2.30201 8.46067 2.53571 8.22697 2.82783 8.22697H7.20968C7.5018 8.22697 7.7355 8.46067 7.7355 8.75279C7.7355 9.04492 7.5018 9.27861 7.20968 9.27861Z" fill="#787C85"/>
</g>
<defs>
<clipPath id="clip0_2021_10547">
<rect width="9.81534" height="12.4444" fill="white" transform="translate(0.111084 0.777832)"/>
</clipPath>
</defs>
</svg>
