<svg width="16" height="16" viewBox="0 0 16 16" fill="none" xmlns="http://www.w3.org/2000/svg">
<g id="wrapper">
<path id="Union" d="M11.7406 14.2223H4.29151C3.63715 14.2223 3.11133 13.6906 3.11133 13.0363V2.95801C3.11133 2.3095 3.64299 1.77783 4.29151 1.77783H7.14263C8.68504 1.77783 10.1398 2.37961 11.2324 3.47215C12.3249 4.56469 12.9267 6.01946 12.9267 7.56187V13.0421C12.9267 13.6965 12.395 14.2281 11.7406 14.2281V14.2223ZM4.29151 2.82948C4.2214 2.82948 4.15713 2.8879 4.15713 2.96385V13.0363C4.15713 13.1064 4.21555 13.1648 4.29151 13.1648H11.7406C11.8108 13.1648 11.8692 13.1064 11.8692 13.0363V7.77804C11.8692 7.39244 11.7173 7.03021 11.4485 6.75561C11.1739 6.48101 10.8117 6.33495 10.4261 6.33495H9.54972C9.23423 6.33495 8.93626 6.21226 8.71425 5.99025C8.49224 5.76823 8.36954 5.47027 8.36954 5.15478V4.27841C8.36954 3.8928 8.21764 3.53057 7.94304 3.25597C7.66845 2.98138 7.30622 2.83532 6.92061 2.83532H4.29151V2.82948ZM9.22839 3.3144C9.35692 3.61821 9.42119 3.93954 9.42119 4.27841V5.15478C9.42119 5.18983 9.43287 5.22488 9.46208 5.24825C9.48545 5.27162 9.52051 5.28915 9.55556 5.28915H10.4319C10.7708 5.28915 11.0921 5.35342 11.3959 5.48195C11.1681 5.0204 10.8643 4.5939 10.4904 4.21998C10.1164 3.84606 9.68994 3.54226 9.22839 3.3144ZM8.019 12.0314H5.82807C5.53595 12.0314 5.30225 11.7977 5.30225 11.5055C5.30225 11.2134 5.53595 10.9797 5.82807 10.9797H8.019C8.31112 10.9797 8.54482 11.2134 8.54482 11.5055C8.54482 11.7977 8.31112 12.0314 8.019 12.0314ZM10.2099 10.2786H5.82807C5.53595 10.2786 5.30225 10.0449 5.30225 9.75279C5.30225 9.46067 5.53595 9.22697 5.82807 9.22697H10.2099C10.502 9.22697 10.7357 9.46067 10.7357 9.75279C10.7357 10.0449 10.502 10.2786 10.2099 10.2786Z" fill="#6B56CA"/>
</g>
</svg>
