<svg width="14" height="14" viewBox="0 0 14 14" fill="none" xmlns="http://www.w3.org/2000/svg">
<g id="Phone" clip-path="url(#clip0_1848_2746)">
<path id="Vector" d="M12.7049 2.73158L11.0409 1.06908C10.8377 0.865955 10.5659 0.751892 10.2784 0.751892C9.99087 0.751892 9.719 0.864392 9.51587 1.06908L7.72368 2.85814C7.52056 3.06127 7.40649 3.33471 7.40649 3.62221C7.40649 3.91127 7.51899 4.18158 7.72368 4.38627L9.12368 5.78783C8.80475 6.53093 8.3465 7.20611 7.77368 7.77689C7.20024 8.35346 6.52993 8.80814 5.78618 9.13002L4.38618 7.72846C4.18306 7.52533 3.91118 7.41127 3.62368 7.41127C3.48187 7.41074 3.34139 7.43853 3.21046 7.49299C3.07952 7.54746 2.96078 7.62751 2.86118 7.72846L1.06743 9.51752C0.864307 9.72064 0.750244 9.99408 0.750244 10.2816C0.750244 10.5706 0.862744 10.841 1.06743 11.0456L2.72993 12.7081C3.07681 13.055 3.55493 13.2535 4.04556 13.2535C4.14712 13.2535 4.24556 13.2456 4.34556 13.2285C6.41431 12.8878 8.46743 11.7863 10.1252 10.13C11.7815 8.47064 12.8815 6.41752 13.2252 4.34721C13.3237 3.75971 13.1268 3.15502 12.7049 2.73158V2.73158ZM12.1174 4.16127C11.8127 6.00346 10.8221 7.84096 9.32993 9.33314C7.83774 10.8253 6.00181 11.816 4.15962 12.1206C3.92837 12.1597 3.69087 12.0816 3.52212 11.9144L1.88931 10.2816L3.62056 8.54877L5.49243 10.4238L5.50649 10.4378L5.84399 10.3128C6.86732 9.93659 7.7966 9.34233 8.56742 8.57124C9.33824 7.80014 9.93218 6.87066 10.3081 5.84721L10.4331 5.50971L8.54556 3.62377L10.2768 1.89095L11.9096 3.52377C12.0784 3.69252 12.1565 3.93002 12.1174 4.16127Z" fill="#AD9CEB"/>
</g>
<defs>
<clipPath id="clip0_1848_2746">
<rect width="14" height="14" fill="white"/>
</clipPath>
</defs>
</svg>
