<svg width="22" height="22" viewBox="0 0 22 22" fill="none" xmlns="http://www.w3.org/2000/svg">
<g id="play-circle">
<path id="Vector" opacity="0.9" d="M11 1.375C5.68477 1.375 1.375 5.68477 1.375 11C1.375 16.3152 5.68477 20.625 11 20.625C16.3152 20.625 20.625 16.3152 20.625 11C20.625 5.68477 16.3152 1.375 11 1.375ZM14.0959 11.1482L9.40371 14.5621C9.37799 14.5806 9.34767 14.5916 9.31608 14.594C9.28449 14.5964 9.25286 14.59 9.22466 14.5756C9.19646 14.5611 9.17279 14.5392 9.15624 14.5122C9.13969 14.4852 9.13091 14.4541 9.13086 14.4225V7.59902C9.13076 7.56728 9.13944 7.53613 9.15596 7.50903C9.17247 7.48192 9.19617 7.45992 9.22443 7.44546C9.25268 7.431 9.28439 7.42464 9.31603 7.4271C9.34768 7.42956 9.37803 7.44073 9.40371 7.45937L14.0959 10.8711C14.1181 10.8868 14.1361 10.9075 14.1486 10.9316C14.1611 10.9558 14.1676 10.9825 14.1676 11.0097C14.1676 11.0368 14.1611 11.0636 14.1486 11.0877C14.1361 11.1118 14.1181 11.1326 14.0959 11.1482Z" fill="white"/>
</g>
</svg>
