<svg width="15" height="14" viewBox="0 0 15 14" fill="none" xmlns="http://www.w3.org/2000/svg">
<g id="wrapper">
<path id="Union" d="M7.69455 12.8334C7.35891 12.8334 7.09039 12.5649 7.09039 12.2293V7.79872H2.65983C2.32418 7.79872 2.05566 7.5302 2.05566 7.19455C2.05566 6.8589 2.32418 6.59039 2.65983 6.59039H7.09039V2.15983C7.09039 1.82418 7.35891 1.55566 7.69455 1.55566C8.0302 1.55566 8.29872 1.82418 8.29872 2.15983V6.59039H12.7293C13.0649 6.59039 13.3334 6.8589 13.3334 7.19455C13.3334 7.5302 13.0649 7.79872 12.7293 7.79872H8.29872V12.2293C8.29872 12.5649 8.0302 12.8334 7.69455 12.8334Z" fill="#917FDD"/>
</g>
</svg>
