<svg width="12" height="12" viewBox="0 0 12 12" fill="none" xmlns="http://www.w3.org/2000/svg">
<g id="Right">
<g id="Vector">
<mask id="path-1-inside-1_2708_31699" fill="white">
<path d="M3.89468 11.133C3.75134 11.133 3.60801 11.0796 3.49801 10.9696C3.27801 10.7496 3.27801 10.393 3.49801 10.173L7.60134 6.06964L3.49801 1.96631C3.27801 1.74631 3.27801 1.38964 3.49801 1.16964C3.71801 0.949639 4.07468 0.949639 4.29468 1.16964L8.79468 5.66964C9.01468 5.88964 9.01468 6.2463 8.79468 6.4663L4.29468 10.9663C4.18468 11.0763 4.04135 11.1296 3.89801 11.1296L3.89468 11.133Z"/>
</mask>
<path d="M3.89468 11.133C3.75134 11.133 3.60801 11.0796 3.49801 10.9696C3.27801 10.7496 3.27801 10.393 3.49801 10.173L7.60134 6.06964L3.49801 1.96631C3.27801 1.74631 3.27801 1.38964 3.49801 1.16964C3.71801 0.949639 4.07468 0.949639 4.29468 1.16964L8.79468 5.66964C9.01468 5.88964 9.01468 6.2463 8.79468 6.4663L4.29468 10.9663C4.18468 11.0763 4.04135 11.1296 3.89801 11.1296L3.89468 11.133Z" fill="black"/>
<path d="M3.89468 11.133V12.433H4.43272L4.81339 12.0527L3.89468 11.133ZM3.49801 10.9696L2.57877 11.8889L3.49801 10.9696ZM3.49801 10.173L4.41725 11.0922L4.41725 11.0922L3.49801 10.173ZM7.60134 6.06964L8.52058 6.98888L9.43982 6.06964L8.52058 5.1504L7.60134 6.06964ZM3.49801 1.96631L4.41725 1.04707L4.41725 1.04707L3.49801 1.96631ZM4.29468 1.16964L3.37544 2.08888L3.37544 2.08888L4.29468 1.16964ZM8.79468 5.66964L9.71392 4.7504L9.71392 4.7504L8.79468 5.66964ZM8.79468 6.4663L9.71392 7.38554L9.71392 7.38554L8.79468 6.4663ZM4.29468 10.9663L3.37544 10.0471L3.37544 10.0471L4.29468 10.9663ZM3.89801 11.1296V9.82964H3.35997L2.9793 10.2099L3.89801 11.1296ZM3.89468 9.83297C4.07496 9.83297 4.26888 9.90204 4.41725 10.0504L2.57877 11.8889C2.94713 12.2572 3.42772 12.433 3.89468 12.433V9.83297ZM4.41725 10.0504C4.70493 10.3381 4.70493 10.8045 4.41725 11.0922L2.57877 9.25373C1.85109 9.98141 1.85109 11.1612 2.57877 11.8889L4.41725 10.0504ZM4.41725 11.0922L8.52058 6.98888L6.6821 5.1504L2.57877 9.25373L4.41725 11.0922ZM8.52058 5.1504L4.41725 1.04707L2.57877 2.88554L6.6821 6.98888L8.52058 5.1504ZM4.41725 1.04707C4.70493 1.33475 4.70493 1.8012 4.41725 2.08888L2.57877 0.2504C1.85109 0.978081 1.85109 2.15786 2.57877 2.88554L4.41725 1.04707ZM4.41725 2.08888C4.12957 2.37656 3.66312 2.37656 3.37544 2.08888L5.21392 0.2504C4.48624 -0.477282 3.30645 -0.477282 2.57877 0.2504L4.41725 2.08888ZM3.37544 2.08888L7.87544 6.58888L9.71392 4.7504L5.21392 0.2504L3.37544 2.08888ZM7.87544 6.58888C7.58776 6.3012 7.58776 5.83475 7.87544 5.54707L9.71392 7.38554C10.4416 6.65786 10.4416 5.47808 9.71392 4.7504L7.87544 6.58888ZM7.87544 5.54707L3.37544 10.0471L5.21392 11.8855L9.71392 7.38554L7.87544 5.54707ZM3.37544 10.0471C3.5238 9.8987 3.71772 9.82964 3.89801 9.82964V12.4296C4.36497 12.4296 4.84556 12.2539 5.21392 11.8855L3.37544 10.0471ZM2.9793 10.2099L2.97596 10.2132L4.81339 12.0527L4.81672 12.0494L2.9793 10.2099Z" fill="#6B56CA" mask="url(#path-1-inside-1_2708_31699)"/>
</g>
</g>
</svg>
