<svg width="32" height="33" viewBox="0 0 32 33" fill="none" xmlns="http://www.w3.org/2000/svg">
<g id="RightCircle" clip-path="url(#clip0_2805_7609)">
<path id="Vector" d="M16.3731 1.13892C7.83977 1.13892 0.888672 8.08114 0.888672 16.6234C0.888672 25.1656 7.83088 32.1078 16.3731 32.1078C24.9153 32.1078 31.8575 25.1656 31.8575 16.6234C31.8575 8.08114 24.9153 1.13892 16.3731 1.13892ZM16.3731 29.9389C9.03088 29.9389 3.04867 23.9656 3.04867 16.6145C3.04867 9.26336 9.02199 3.29003 16.3731 3.29003C23.7242 3.29003 29.6975 9.26336 29.6975 16.6145C29.6975 23.9656 23.7242 29.9389 16.3731 29.9389Z" fill="#6B56CA"/>
<path id="Vector_2" d="M23.2087 16.6233C23.2087 16.4811 23.182 16.3388 23.1287 16.2055C23.0842 16.1077 23.0221 16.0188 22.951 15.93C22.9332 15.9033 22.9243 15.8766 22.8976 15.8499L17.1376 10.0899C16.7198 9.67217 16.0354 9.67217 15.6087 10.0899C15.1909 10.5077 15.1909 11.1922 15.6087 11.6188L19.5287 15.5388H10.6132C10.0176 15.5388 9.5376 16.0188 9.5376 16.6144C9.5376 17.2099 10.0176 17.6899 10.6132 17.6899H19.5287L15.6087 21.61C15.1909 22.0277 15.1909 22.7122 15.6087 23.1388C15.8221 23.3522 16.0976 23.4588 16.3732 23.4588C16.6487 23.4588 16.9243 23.3522 17.1376 23.1388L22.8976 17.3788C22.8976 17.3788 22.9243 17.3255 22.951 17.2988C23.0221 17.2188 23.0931 17.1299 23.1287 17.0233C23.182 16.8899 23.2087 16.7477 23.2087 16.6055V16.6233Z" fill="#6B56CA"/>
</g>
<defs>
<clipPath id="clip0_2805_7609">
<rect width="32" height="32" fill="white" transform="translate(0 0.25)"/>
</clipPath>
</defs>
</svg>
