<svg width="16" height="16" viewBox="0 0 16 16" fill="none" xmlns="http://www.w3.org/2000/svg">
<g clip-path="url(#clip0_2021_8377)">
<rect width="16" height="16" fill="white" fill-opacity="0.01"/>
<g clip-path="url(#clip1_2021_8377)">
<path d="M6.6756 14.8888C6.36893 14.8888 6.12004 14.6399 6.12004 14.3333V11.7333C5.5156 11.2533 4.96893 10.7066 4.48893 10.1021H1.88893C1.58226 10.1021 1.33337 9.85325 1.33337 9.54659C1.33337 8.88881 1.48449 8.22659 1.76893 7.63547C2.05782 7.04436 2.48004 6.51547 2.9956 6.10659C3.51115 5.6977 4.12449 5.40881 4.76449 5.26659C5.28449 5.15103 5.83115 5.13325 6.36004 5.20881C7.26671 4.05325 8.42671 3.0977 9.73782 2.43103C11.1512 1.71103 12.7378 1.33325 14.32 1.33325C14.6267 1.34659 14.88 1.5777 14.8845 1.88881C14.8845 3.47547 14.5067 5.06659 13.7867 6.47992C13.12 7.79103 12.1645 8.95103 11.0089 9.8577C11.0889 10.3866 11.0667 10.9333 10.9512 11.4533C10.8089 12.0933 10.5156 12.7066 10.1112 13.2221C9.70226 13.7377 9.17337 14.1644 8.58226 14.4488C7.99115 14.7333 7.32893 14.8888 6.67115 14.8888H6.6756ZM7.23115 11.7155V13.7333C7.53337 13.6799 7.82671 13.5866 8.10226 13.4533C8.54226 13.2399 8.93782 12.9244 9.24449 12.5377C9.55115 12.151 9.76449 11.6977 9.8756 11.2177C9.92004 11.0133 9.94671 10.8044 9.95115 10.5955C9.10671 11.1021 8.1956 11.4799 7.2356 11.7199L7.23115 11.7155ZM5.51115 9.59992C5.84893 10.0044 6.22226 10.3777 6.62671 10.7155C7.8756 10.4533 9.03115 9.9377 10.0667 9.18659C10.0756 9.18214 10.08 9.1777 10.0889 9.17325C11.2267 8.34214 12.1645 7.23992 12.8045 5.98214C13.36 4.89325 13.6845 3.68881 13.7645 2.46659C12.5467 2.54659 11.3423 2.87103 10.2534 3.42659C8.9956 4.06659 7.89337 5.00436 7.06226 6.14214C7.05782 6.15103 7.05337 6.15547 7.04893 6.16436C6.30671 7.18214 5.77782 8.36881 5.5156 9.60436L5.51115 9.59992ZM2.49337 8.99547H4.51115C4.75115 8.04436 5.13337 7.12436 5.6356 6.27992C5.42671 6.28436 5.21337 6.31103 5.00893 6.35547C4.52893 6.46214 4.07115 6.67992 3.68893 6.98214C3.30226 7.28881 2.98671 7.67992 2.77337 8.12436C2.64004 8.39992 2.54671 8.69325 2.49337 8.99547ZM2.84893 14.4133C2.67115 14.4133 2.49337 14.3999 2.3156 14.3733C2.0756 14.3377 1.88893 14.151 1.85337 13.911C1.7556 13.2933 1.83115 12.6621 2.06671 12.0844C2.30226 11.5066 2.69337 11.0044 3.1956 10.631C3.44004 10.4488 3.79115 10.4977 3.97337 10.7466C4.1556 10.991 4.10671 11.3421 3.85782 11.5244C3.52004 11.7777 3.25782 12.1155 3.09782 12.5066C2.9956 12.7599 2.93782 13.031 2.92893 13.3066C3.20004 13.2977 3.47115 13.2399 3.72893 13.1377C4.12004 12.9777 4.45782 12.7155 4.71115 12.3777C4.89337 12.1333 5.24004 12.0799 5.48893 12.2621C5.73337 12.4444 5.78671 12.791 5.60449 13.0399C5.23115 13.5421 4.72893 13.9288 4.15115 14.1688C3.73782 14.3377 3.29782 14.4221 2.85782 14.4221L2.84893 14.4133ZM10.0267 7.71103C9.62671 7.71103 9.24004 7.55103 8.9556 7.26659C8.67115 6.98214 8.51115 6.59992 8.51115 6.19547C8.51115 5.79103 8.66671 5.41325 8.9556 5.12436C9.2356 4.84436 9.62671 4.67992 10.0267 4.67992C10.4267 4.67992 10.8089 4.83547 11.0978 5.12436C11.3823 5.40881 11.5423 5.79103 11.5423 6.19547C11.5423 6.59992 11.3867 6.9777 11.0978 7.26659C10.8134 7.55103 10.4312 7.71103 10.0267 7.71103ZM10.0267 5.79547C9.92004 5.79547 9.81782 5.83992 9.74226 5.91103C9.66671 5.98659 9.62226 6.08881 9.62226 6.19547C9.62226 6.30214 9.66671 6.40436 9.74226 6.47992C9.89337 6.63103 10.16 6.63103 10.3112 6.47992C10.3867 6.40436 10.4267 6.30214 10.4267 6.19547C10.4267 6.08881 10.3823 5.98659 10.3067 5.91103C10.2312 5.83547 10.1289 5.79547 10.0223 5.79547H10.0267Z" fill="#787C85"/>
</g>
</g>
<defs>
<clipPath id="clip0_2021_8377">
<rect width="16" height="16" fill="white"/>
</clipPath>
<clipPath id="clip1_2021_8377">
<rect width="13.5556" height="13.5556" fill="white" transform="translate(1.33337 1.33325)"/>
</clipPath>
</defs>
</svg>
