<svg width="14" height="14" viewBox="0 0 14 14" fill="none" xmlns="http://www.w3.org/2000/svg">
<g id="_&#229;&#156;&#150;&#229;&#177;&#164;_1" clip-path="url(#clip0_2299_9671)">
<path id="Vector" d="M5.67621 13.8888C5.36954 13.8888 5.12065 13.6399 5.12065 13.3333V10.7333C4.51621 10.2533 3.96954 9.70659 3.48954 9.10214H0.88954C0.582873 9.10214 0.333984 8.85325 0.333984 8.54659C0.333984 7.88881 0.485096 7.22659 0.76954 6.63547C1.05843 6.04436 1.48065 5.51547 1.99621 5.10659C2.51176 4.6977 3.1251 4.40881 3.7651 4.26659C4.2851 4.15103 4.83176 4.13325 5.36065 4.20881C6.26732 3.05325 7.42732 2.0977 8.73843 1.43103C10.1518 0.71103 11.7384 0.333252 13.3207 0.333252C13.6273 0.346585 13.8807 0.577696 13.8851 0.888808C13.8851 2.47547 13.5073 4.06659 12.7873 5.47992C12.1207 6.79103 11.1651 7.95103 10.0095 8.8577C10.0895 9.38659 10.0673 9.93325 9.95176 10.4533C9.80954 11.0933 9.51621 11.7066 9.11176 12.2221C8.70287 12.7377 8.17398 13.1644 7.58287 13.4488C6.99176 13.7333 6.32954 13.8888 5.67176 13.8888H5.67621ZM6.23176 10.7155V12.7333C6.53399 12.6799 6.82732 12.5866 7.10287 12.4533C7.54287 12.2399 7.93843 11.9244 8.2451 11.5377C8.55176 11.151 8.7651 10.6977 8.87621 10.2177C8.92065 10.0133 8.94732 9.80436 8.95176 9.59548C8.10732 10.1021 7.19621 10.4799 6.23621 10.7199L6.23176 10.7155ZM4.51176 8.59992C4.84954 9.00436 5.22287 9.3777 5.62732 9.71548C6.87621 9.45325 8.03176 8.9377 9.06732 8.18659C9.07621 8.18214 9.08065 8.1777 9.08954 8.17325C10.2273 7.34214 11.1651 6.23992 11.8051 4.98214C12.3607 3.89325 12.6851 2.68881 12.7651 1.46659C11.5473 1.54659 10.3429 1.87103 9.25398 2.42659C7.99621 3.06659 6.89398 4.00436 6.06287 5.14214C6.05843 5.15103 6.05398 5.15547 6.04954 5.16436C5.30732 6.18214 4.77843 7.36881 4.51621 8.60436L4.51176 8.59992ZM1.49398 7.99547H3.51176C3.75176 7.04436 4.13398 6.12436 4.63621 5.27992C4.42732 5.28436 4.21398 5.31103 4.00954 5.35547C3.52954 5.46214 3.07176 5.67992 2.68954 5.98214C2.30287 6.28881 1.98732 6.67992 1.77398 7.12436C1.64065 7.39992 1.54732 7.69325 1.49398 7.99547ZM1.84954 13.4133C1.67176 13.4133 1.49398 13.3999 1.31621 13.3733C1.07621 13.3377 0.88954 13.151 0.853984 12.911C0.756207 12.2933 0.831762 11.6621 1.06732 11.0844C1.30287 10.5066 1.69398 10.0044 2.19621 9.63103C2.44065 9.44881 2.79176 9.4977 2.97398 9.74659C3.15621 9.99103 3.10732 10.3421 2.85843 10.5244C2.52065 10.7777 2.25843 11.1155 2.09843 11.5066C1.99621 11.7599 1.93843 12.031 1.92954 12.3066C2.20065 12.2977 2.47176 12.2399 2.72954 12.1377C3.12065 11.9777 3.45843 11.7155 3.71176 11.3777C3.89398 11.1333 4.24065 11.0799 4.48954 11.2621C4.73398 11.4444 4.78732 11.791 4.6051 12.0399C4.23176 12.5421 3.72954 12.9288 3.15176 13.1688C2.73843 13.3377 2.29843 13.4221 1.85843 13.4221L1.84954 13.4133ZM9.02732 6.71103C8.62732 6.71103 8.24065 6.55103 7.95621 6.26659C7.67176 5.98214 7.51176 5.59992 7.51176 5.19547C7.51176 4.79103 7.66732 4.41325 7.95621 4.12436C8.23621 3.84436 8.62732 3.67992 9.02732 3.67992C9.42732 3.67992 9.80954 3.83547 10.0984 4.12436C10.3829 4.40881 10.5429 4.79103 10.5429 5.19547C10.5429 5.59992 10.3873 5.9777 10.0984 6.26659C9.81398 6.55103 9.43176 6.71103 9.02732 6.71103ZM9.02732 4.79547C8.92065 4.79547 8.81843 4.83992 8.74287 4.91103C8.66732 4.98659 8.62287 5.08881 8.62287 5.19547C8.62287 5.30214 8.66732 5.40436 8.74287 5.47992C8.89398 5.63103 9.16065 5.63103 9.31176 5.47992C9.38732 5.40436 9.42732 5.30214 9.42732 5.19547C9.42732 5.08881 9.38287 4.98659 9.30732 4.91103C9.23176 4.83547 9.12954 4.79547 9.02287 4.79547H9.02732Z" fill="#6B56CA"/>
</g>
<defs>
<clipPath id="clip0_2299_9671">
<rect width="13.5556" height="13.5556" fill="white" transform="translate(0.333984 0.333252)"/>
</clipPath>
</defs>
</svg>
