<svg width="22" height="21" viewBox="0 0 22 21" fill="none" xmlns="http://www.w3.org/2000/svg">
<g id="_&#229;&#156;&#150;&#229;&#177;&#164;_1" clip-path="url(#clip0_2231_12080)">
<path id="Vector" d="M8.76333 20.3333C8.30333 20.3333 7.93 19.96 7.93 19.5V15.6C7.02333 14.88 6.20333 14.06 5.48333 13.1533H1.58333C1.12333 13.1533 0.75 12.78 0.75 12.32C0.75 11.3333 0.976667 10.34 1.40333 9.45333C1.83667 8.56667 2.47 7.77333 3.24333 7.16C4.01667 6.54667 4.93667 6.11333 5.89667 5.9C6.67667 5.72667 7.49667 5.7 8.29 5.81333C9.65 4.08 11.39 2.64667 13.3567 1.64667C15.4767 0.566667 17.8567 0 20.23 0C20.69 0.02 21.07 0.366667 21.0767 0.833333C21.0767 3.21333 20.51 5.6 19.43 7.72C18.43 9.68667 16.9967 11.4267 15.2633 12.7867C15.3833 13.58 15.35 14.4 15.1767 15.18C14.9633 16.14 14.5233 17.06 13.9167 17.8333C13.3033 18.6067 12.51 19.2467 11.6233 19.6733C10.7367 20.1 9.74333 20.3333 8.75667 20.3333H8.76333ZM9.59667 15.5733V18.6C10.05 18.52 10.49 18.38 10.9033 18.18C11.5633 17.86 12.1567 17.3867 12.6167 16.8067C13.0767 16.2267 13.3967 15.5467 13.5633 14.8267C13.63 14.52 13.67 14.2067 13.6767 13.8933C12.41 14.6533 11.0433 15.22 9.60333 15.58L9.59667 15.5733ZM7.01667 12.4C7.52333 13.0067 8.08333 13.5667 8.69 14.0733C10.5633 13.68 12.2967 12.9067 13.85 11.78C13.8633 11.7733 13.87 11.7667 13.8833 11.76C15.59 10.5133 16.9967 8.86 17.9567 6.97333C18.79 5.34 19.2767 3.53333 19.3967 1.7C17.57 1.82 15.7633 2.30667 14.13 3.14C12.2433 4.1 10.59 5.50667 9.34333 7.21333C9.33667 7.22667 9.33 7.23333 9.32333 7.24667C8.21 8.77333 7.41667 10.5533 7.02333 12.4067L7.01667 12.4ZM2.49 11.4933H5.51667C5.87667 10.0667 6.45 8.68667 7.20333 7.42C6.89 7.42667 6.57 7.46667 6.26333 7.53333C5.54333 7.69333 4.85667 8.02 4.28333 8.47333C3.70333 8.93333 3.23 9.52 2.91 10.1867C2.71 10.6 2.57 11.04 2.49 11.4933ZM3.02333 19.62C2.75667 19.62 2.49 19.6 2.22333 19.56C1.86333 19.5067 1.58333 19.2267 1.53 18.8667C1.38333 17.94 1.49667 16.9933 1.85 16.1267C2.20333 15.26 2.79 14.5067 3.54333 13.9467C3.91 13.6733 4.43667 13.7467 4.71 14.12C4.98333 14.4867 4.91 15.0133 4.53667 15.2867C4.03 15.6667 3.63667 16.1733 3.39667 16.76C3.24333 17.14 3.15667 17.5467 3.14333 17.96C3.55 17.9467 3.95667 17.86 4.34333 17.7067C4.93 17.4667 5.43667 17.0733 5.81667 16.5667C6.09 16.2 6.61 16.12 6.98333 16.3933C7.35 16.6667 7.43 17.1867 7.15667 17.56C6.59667 18.3133 5.84333 18.8933 4.97667 19.2533C4.35667 19.5067 3.69667 19.6333 3.03667 19.6333L3.02333 19.62ZM13.79 9.56667C13.19 9.56667 12.61 9.32667 12.1833 8.9C11.7567 8.47333 11.5167 7.9 11.5167 7.29333C11.5167 6.68667 11.75 6.12 12.1833 5.68667C12.6033 5.26667 13.19 5.02 13.79 5.02C14.39 5.02 14.9633 5.25333 15.3967 5.68667C15.8233 6.11333 16.0633 6.68667 16.0633 7.29333C16.0633 7.9 15.83 8.46667 15.3967 8.9C14.97 9.32667 14.3967 9.56667 13.79 9.56667ZM13.79 6.69333C13.63 6.69333 13.4767 6.76 13.3633 6.86667C13.25 6.98 13.1833 7.13333 13.1833 7.29333C13.1833 7.45333 13.25 7.60667 13.3633 7.72C13.59 7.94667 13.99 7.94667 14.2167 7.72C14.33 7.60667 14.39 7.45333 14.39 7.29333C14.39 7.13333 14.3233 6.98 14.21 6.86667C14.0967 6.75333 13.9433 6.69333 13.7833 6.69333H13.79Z" fill="#917FDD"/>
</g>
<defs>
<clipPath id="clip0_2231_12080">
<rect width="20.3333" height="20.3333" fill="white" transform="translate(0.75)"/>
</clipPath>
</defs>
</svg>
