<svg width="15" height="14" viewBox="0 0 15 14" fill="none" xmlns="http://www.w3.org/2000/svg">
<g id="Shopping">
<path id="Vector" d="M12.5005 3.87689H10.3755V3.62689C10.3755 2.03939 9.08799 0.751892 7.50049 0.751892C5.91299 0.751892 4.62549 2.03939 4.62549 3.62689V3.87689H2.50049C2.22393 3.87689 2.00049 4.10033 2.00049 4.37689V12.7519C2.00049 13.0285 2.22393 13.2519 2.50049 13.2519H12.5005C12.7771 13.2519 13.0005 13.0285 13.0005 12.7519V4.37689C13.0005 4.10033 12.7771 3.87689 12.5005 3.87689ZM5.75049 3.62689C5.75049 2.6597 6.5333 1.87689 7.50049 1.87689C8.46768 1.87689 9.25049 2.6597 9.25049 3.62689V3.87689H5.75049V3.62689ZM11.8755 12.1269H3.12549V5.00189H4.62549V6.37689C4.62549 6.44564 4.68174 6.50189 4.75049 6.50189H5.62549C5.69424 6.50189 5.75049 6.44564 5.75049 6.37689V5.00189H9.25049V6.37689C9.25049 6.44564 9.30674 6.50189 9.37549 6.50189H10.2505C10.3192 6.50189 10.3755 6.44564 10.3755 6.37689V5.00189H11.8755V12.1269Z" fill="#513FAD"/>
</g>
</svg>
