<svg width="11" height="10" viewBox="0 0 11 10" fill="none" xmlns="http://www.w3.org/2000/svg">
<g id="AlignLeft">
<path id="Vector" d="M1.12517 1.85335H6.66089C6.71 1.85335 6.75017 1.81317 6.75017 1.76406V1.13906C6.75017 1.08995 6.71 1.04977 6.66089 1.04977H1.12517C1.07607 1.04977 1.03589 1.08995 1.03589 1.13906V1.76406C1.03589 1.81317 1.07607 1.85335 1.12517 1.85335ZM1.12517 6.58549H6.66089C6.71 6.58549 6.75017 6.54531 6.75017 6.4962V5.8712C6.75017 5.8221 6.71 5.78192 6.66089 5.78192H1.12517C1.07607 5.78192 1.03589 5.8221 1.03589 5.8712V6.4962C1.03589 6.54531 1.07607 6.58549 1.12517 6.58549ZM9.87518 8.14799H1.12517C1.07607 8.14799 1.03589 8.18817 1.03589 8.23728V8.86228C1.03589 8.91138 1.07607 8.95156 1.12517 8.95156H9.87518C9.92428 8.95156 9.96446 8.91138 9.96446 8.86228V8.23728C9.96446 8.18817 9.92428 8.14799 9.87518 8.14799ZM9.87518 3.41585H1.12517C1.07607 3.41585 1.03589 3.45602 1.03589 3.50513V4.13013C1.03589 4.17924 1.07607 4.21942 1.12517 4.21942H9.87518C9.92428 4.21942 9.96446 4.17924 9.96446 4.13013V3.50513C9.96446 3.45602 9.92428 3.41585 9.87518 3.41585Z" fill="black" fill-opacity="0.85"/>
</g>
</svg>
