<svg width="29" height="26" viewBox="0 0 29 26" fill="none" xmlns="http://www.w3.org/2000/svg">
<g id="Group">
<path id="Vector" opacity="0.9" d="M14.8091 0.468506C14.2312 0.468506 13.6928 0.691762 13.2725 1.09888L7.41536 6.95605H4.95955C3.18664 6.95605 1.71578 8.0198 1.26926 9.60885C0.980346 10.7251 0.822754 11.8808 0.822754 13.0627C0.822754 14.2316 0.980346 15.4004 1.2824 16.5298C1.71578 18.1188 3.19977 19.1826 4.97268 19.1826H7.42849L13.2857 25.0397C13.6928 25.4469 14.2443 25.6701 14.8222 25.6701C16.0173 25.6701 16.9891 24.6983 16.9891 23.5032V2.6354C16.9891 2.05756 16.7658 1.51912 16.3587 1.09888C15.9516 0.678629 15.4 0.468506 14.8222 0.468506H14.8091ZM14.6121 23.0173L8.75489 17.1601C8.53164 16.9369 8.22958 16.8187 7.9144 16.8187H4.97268C4.42111 16.8187 3.73821 16.5298 3.56748 15.9125C3.31796 14.9932 3.18664 14.0346 3.18664 13.0759C3.18664 12.1172 3.31796 11.1585 3.56748 10.2392C3.73821 9.60885 4.39484 9.33306 4.97268 9.33306H7.9144C8.22958 9.33306 8.53164 9.21487 8.75489 8.99161L14.6121 3.13444V23.0304V23.0173Z" fill="white"/>
<path id="Vector_2" d="M24.9872 3.86988C24.5275 3.41024 23.779 3.41024 23.3193 3.86988C22.8597 4.32952 22.8597 5.07809 23.3193 5.53773C27.4693 9.68766 27.4693 16.4379 23.3193 20.5878C22.8597 21.0474 22.8597 21.796 23.3193 22.2556C23.5557 22.492 23.8578 22.5971 24.1598 22.5971C24.4619 22.5971 24.7639 22.4789 25.0003 22.2556C30.0695 17.1864 30.0695 8.93909 25.0003 3.86988H24.9872Z" fill="white"/>
<path id="Vector_3" d="M21.5072 7.3501C21.0476 6.89046 20.299 6.89046 19.8394 7.3501C19.3797 7.80975 19.3797 8.55831 19.8394 9.01795C22.0719 11.2505 22.0719 14.8751 19.8394 17.0945C19.3797 17.5542 19.3797 18.3028 19.8394 18.7624C20.0758 18.9988 20.3778 19.1038 20.6799 19.1038C20.9819 19.1038 21.284 18.9857 21.5203 18.7624C24.6722 15.6106 24.6722 10.4888 21.5203 7.33697L21.5072 7.3501Z" fill="white"/>
</g>
</svg>
