<svg width="16" height="16" viewBox="0 0 16 16" fill="none" xmlns="http://www.w3.org/2000/svg">
<g id="truck">
<path id="Vector" d="M11.8989 13.7712C11.4823 13.7712 11.0723 13.5993 10.7748 13.3084C10.6227 13.1563 10.5036 12.9777 10.4243 12.7793H5.9276C5.84825 12.9777 5.72922 13.1563 5.57713 13.3084C4.97537 13.9101 3.93055 13.9101 3.3354 13.3084C3.1833 13.1563 3.06427 12.9777 2.98492 12.7793H2.22445C1.86736 12.7793 1.53011 12.6405 1.27883 12.3892C1.02754 12.1379 0.888672 11.8006 0.888672 11.4436V4.16289C0.888672 3.83886 1.0077 3.52145 1.22592 3.27678C1.44414 3.0321 1.74833 2.88001 2.07236 2.84033C4.31409 2.60889 6.58888 2.60889 8.83061 2.84033C9.50512 2.90646 10.0143 3.48177 10.0143 4.16289V4.20256H11.1848C11.5088 4.21579 11.7997 4.30176 12.0576 4.44062C12.3155 4.58611 12.547 4.78449 12.7123 5.02255C14.0349 6.90719 14.8086 9.11585 14.9474 11.4105C14.9673 11.7676 14.8482 12.1048 14.6036 12.3693C14.3523 12.6338 14.0018 12.7859 13.6381 12.7859H13.3736C13.2942 12.9843 13.1752 13.1629 13.0231 13.315C12.7255 13.6125 12.3155 13.7779 11.8989 13.7779V13.7712ZM11.5022 12.1842C11.5022 12.29 11.5418 12.3892 11.6212 12.4619C11.7667 12.6074 12.0312 12.6074 12.1833 12.4619C12.256 12.3892 12.3023 12.2834 12.3023 12.1842C12.3023 12.085 12.2626 11.9792 12.1833 11.9064C12.0378 11.761 11.7733 11.761 11.6212 11.9064C11.5485 11.9792 11.5022 12.085 11.5022 12.1842ZM4.0628 12.1842C4.0628 12.29 4.10248 12.3892 4.18183 12.4619C4.33393 12.614 4.59182 12.614 4.74392 12.4619C4.81666 12.3892 4.86295 12.2834 4.86295 12.1842C4.86295 12.085 4.82327 11.9792 4.74392 11.9064C4.59182 11.7544 4.33393 11.7544 4.18183 11.9064C4.10909 11.9792 4.0628 12.085 4.0628 12.1842ZM13.367 11.589H13.6315C13.6844 11.589 13.7175 11.5626 13.7307 11.5494C13.7571 11.5229 13.7571 11.4898 13.7571 11.4832C13.6315 9.40682 12.9305 7.40976 11.7402 5.71028C11.6741 5.6177 11.5881 5.53834 11.4823 5.48544C11.3831 5.43254 11.2707 5.39948 11.1517 5.39286H10.0077V11.589H10.4243C10.5036 11.3906 10.6227 11.2121 10.7748 11.06C11.3633 10.4715 12.428 10.4715 13.0165 11.06C13.1686 11.2121 13.2876 11.3906 13.367 11.589ZM5.9276 11.589H8.824V9.80358H2.07897V11.4369C2.07897 11.4766 2.0922 11.5163 2.12526 11.5427C2.15171 11.5692 2.19139 11.589 2.23106 11.589H2.99153C3.07089 11.3906 3.18992 11.2121 3.34201 11.06C3.94377 10.4582 4.98859 10.4582 5.58374 11.06C5.73583 11.2121 5.85486 11.3906 5.93422 11.589H5.9276ZM2.07897 8.61328H8.824V4.16289C8.824 4.09015 8.7711 4.03063 8.70497 4.02402C6.54259 3.79919 4.35377 3.79919 2.198 4.02402C2.16494 4.02402 2.13849 4.04386 2.11203 4.07031C2.0922 4.09676 2.07897 4.12982 2.07897 4.16289V8.6199V8.61328Z" fill="#4B515C"/>
</g>
</svg>
