<svg width="21" height="20" viewBox="0 0 21 20" fill="none" xmlns="http://www.w3.org/2000/svg">
<g id="_&#229;&#156;&#150;&#229;&#177;&#164;_1" clip-path="url(#clip0_2231_11538)">
<path id="Vector" d="M7.24333 19.6668H7.22333C4.90333 19.6668 2.63667 19.0401 0.656667 17.8468C0.403333 17.7001 0.25 17.4334 0.25 17.1401V17.0334C0.25 15.4868 0.77 13.9668 1.71 12.7468C2.65667 11.5334 3.99667 10.6468 5.49 10.2668C6.98333 9.88677 8.58333 10.0134 9.99667 10.6268C11.0567 11.0868 11.99 11.8068 12.7033 12.7134C13.1833 12.2868 13.7433 11.9601 14.35 11.7534C15.3367 11.4201 16.4167 11.4134 17.4033 11.7401C18.39 12.0668 19.2567 12.7134 19.85 13.5734C20.4367 14.4268 20.7433 15.4668 20.6967 16.5068C20.6833 16.8134 20.5033 17.0868 20.23 17.2201C18.8967 17.8734 17.3967 18.2201 15.91 18.2201H15.8833C15.1233 18.2201 14.3633 18.1334 13.6167 17.9534C11.6833 19.0734 9.49 19.6668 7.25667 19.6668H7.24333ZM1.93 16.6601C3.55 17.5401 5.37 18.0001 7.22333 18.0001H7.24333C9.09 18.0001 10.9033 17.5401 12.5167 16.6601C12.4633 15.9001 12.25 15.1601 11.8833 14.4934C11.8833 14.4868 11.87 14.4734 11.87 14.4668C11.3033 13.4468 10.4033 12.6268 9.33667 12.1668C8.26333 11.7001 7.04333 11.6068 5.91 11.8934C4.77667 12.1868 3.75667 12.8534 3.03667 13.7801C2.39667 14.6068 2.01 15.6201 1.93667 16.6668L1.93 16.6601ZM14.1633 16.3801C14.73 16.5001 15.3233 16.5334 15.89 16.5601H15.9033C16.9633 16.5601 18.03 16.3468 19.01 15.9468C18.95 15.4401 18.77 14.9468 18.4767 14.5268C18.09 13.9668 17.5233 13.5468 16.8767 13.3334C16.23 13.1201 15.5233 13.1201 14.8833 13.3401C14.39 13.5068 13.9433 13.8001 13.59 14.1801C13.9033 14.8734 14.0967 15.6201 14.17 16.3801H14.1633ZM15.89 10.2868C14.99 10.2868 14.15 9.9401 13.51 9.3001C12.87 8.6601 12.5233 7.8201 12.5233 6.92677C12.5233 6.03343 12.87 5.18677 13.51 4.55343C14.15 3.9201 14.99 3.56677 15.89 3.56677C16.79 3.56677 17.63 3.91343 18.2633 4.55343C18.8967 5.19343 19.25 6.03343 19.25 6.92677C19.25 7.8201 18.9033 8.66677 18.2633 9.3001C17.6233 9.93343 16.7833 10.2868 15.89 10.2868ZM15.89 5.23343C15.4433 5.23343 15.0033 5.41343 14.69 5.72677C14.3767 6.0401 14.1967 6.4801 14.1967 6.92677C14.1967 7.37343 14.3767 7.80677 14.69 8.12677C15.3233 8.7601 16.45 8.7601 17.0833 8.12677C17.3967 7.81343 17.5767 7.37343 17.5767 6.92677C17.5767 6.4801 17.3967 6.04677 17.0833 5.72677C16.7633 5.40677 16.3367 5.23343 15.8833 5.23343H15.89ZM7.22333 8.84677C6.13 8.84677 5.11 8.4201 4.33667 7.65343C3.56333 6.8801 3.14333 5.85343 3.14333 4.76677C3.14333 3.6801 3.57 2.65343 4.33667 1.8801C5.11 1.10677 6.13667 0.686768 7.22333 0.686768C8.31 0.686768 9.33667 1.11343 10.11 1.8801C10.8833 2.64677 11.3033 3.6801 11.3033 4.76677C11.3033 5.85343 10.8767 6.8801 10.11 7.65343C9.34333 8.42677 8.31667 8.84677 7.22333 8.84677ZM7.22333 2.34677C6.57667 2.34677 5.97 2.6001 5.51667 3.05343C5.06333 3.51343 4.81 4.1201 4.81 4.7601C4.81 5.4001 5.06333 6.01343 5.51667 6.46677C6.43 7.3801 8.02333 7.3801 8.93667 6.46677C9.39 6.00677 9.64333 5.4001 9.64333 4.7601C9.64333 4.1201 9.39 3.50677 8.93667 3.05343C8.48333 2.6001 7.87667 2.34677 7.23 2.34677H7.22333Z" fill="#917FDD"/>
</g>
<defs>
<clipPath id="clip0_2231_11538">
<rect width="20.4467" height="19" fill="white" transform="translate(0.25 0.666748)"/>
</clipPath>
</defs>
</svg>
