<svg width="14" height="12" viewBox="0 0 14 12" fill="none" xmlns="http://www.w3.org/2000/svg">
<g id="_&#229;&#156;&#150;&#229;&#177;&#164;_1" clip-path="url(#clip0_2021_6780)">
<path id="Vector" d="M11.7989 11.4132H2.29836C1.78892 11.4132 1.30669 11.2149 0.948916 10.8532C0.591138 10.4916 0.388916 10.0132 0.388916 9.50378V2.85378C0.388916 2.34434 0.587249 1.866 0.948916 1.50434C1.31058 1.14267 1.78892 0.944336 2.29836 0.944336H11.7989C12.3006 0.944336 12.7945 1.14656 13.1484 1.50434C13.51 1.866 13.7084 2.34434 13.7084 2.85378V9.50378C13.7084 10.0132 13.51 10.4954 13.1484 10.8532C12.7945 11.2071 12.3006 11.4132 11.7989 11.4132ZM2.29836 1.91656C2.04947 1.91656 1.81225 2.01378 1.63336 2.19267C1.45447 2.37156 1.35725 2.60489 1.35725 2.85767V9.50378C1.35725 9.75267 1.45447 9.98989 1.63336 10.1688C1.81225 10.3477 2.04558 10.4449 2.29836 10.4449H11.7989C12.0478 10.4449 12.2889 10.3438 12.4639 10.1688C12.6428 9.98989 12.74 9.75656 12.74 9.50378V2.85378C12.74 2.60489 12.6428 2.36767 12.4639 2.18878C12.2889 2.01378 12.0478 1.91267 11.7989 1.91267H2.29836V1.91656ZM4.91558 9.51545H4.90003C4.12614 9.51545 3.35614 9.32489 2.67558 8.95934C2.46169 8.84656 2.36447 8.58989 2.44614 8.36434C2.6328 7.85878 2.96336 7.42711 3.40669 7.116C4.29336 6.49767 5.52614 6.49767 6.40892 7.116C6.85225 7.42322 7.1828 7.85489 7.36947 8.36434C7.45114 8.59378 7.35392 8.84656 7.14003 8.95934C6.45558 9.32489 5.68558 9.51545 4.91169 9.51545H4.91558ZM4.9078 8.54322H4.91558C5.37058 8.54322 5.82558 8.46156 6.24947 8.29822C6.14058 8.15045 6.00836 8.01822 5.85669 7.90934C5.30058 7.52045 4.5228 7.52045 3.96669 7.90934C3.81114 8.01822 3.67892 8.14656 3.57392 8.29822C3.9978 8.45767 4.4528 8.54322 4.90392 8.54322H4.91169H4.9078ZM11.3206 8.56656H8.94447C8.67614 8.56656 8.45836 8.34878 8.45836 8.08045C8.45836 7.81211 8.67614 7.59434 8.94447 7.59434H11.3206C11.5889 7.59434 11.8067 7.81211 11.8067 8.08045C11.8067 8.34878 11.5889 8.56656 11.3206 8.56656ZM11.3206 6.66489H8.94447C8.67614 6.66489 8.45836 6.44711 8.45836 6.17878C8.45836 5.91045 8.67614 5.69267 8.94447 5.69267H11.3206C11.5889 5.69267 11.8067 5.91045 11.8067 6.17878C11.8067 6.44711 11.5889 6.66489 11.3206 6.66489ZM4.9078 6.19045C4.68614 6.19045 4.47225 6.14767 4.26614 6.06211C4.06003 5.97656 3.87725 5.856 3.72169 5.70045C3.56614 5.54489 3.44558 5.36211 3.36003 5.15989C3.27447 4.95378 3.23169 4.73989 3.23169 4.51822C3.23169 4.071 3.40669 3.651 3.72169 3.336C4.03669 3.021 4.45669 2.846 4.90392 2.846C5.35114 2.846 5.77114 3.021 6.08614 3.336C6.40114 3.651 6.57614 4.07878 6.57614 4.51822C6.57614 4.73989 6.53336 4.95378 6.4478 5.15989C6.36225 5.36211 6.24169 5.54489 6.08614 5.70434C5.93058 5.85989 5.7478 5.98434 5.54169 6.066C5.33947 6.15156 5.12169 6.19434 4.90003 6.19434L4.9078 6.19045ZM4.9078 3.81434C4.72114 3.81434 4.54225 3.88822 4.41392 4.02045C4.28558 4.15267 4.2078 4.33156 4.2078 4.51822C4.2078 4.61156 4.22725 4.701 4.26225 4.78656C4.29725 4.87211 4.3478 4.94989 4.41392 5.01211C4.48003 5.07822 4.55392 5.12878 4.63947 5.16378C4.81058 5.23378 5.00503 5.23378 5.17614 5.16378C5.26169 5.12878 5.33947 5.07822 5.40558 5.01211C5.47169 4.946 5.52225 4.86822 5.55725 4.78656C5.59225 4.701 5.61169 4.61156 5.61169 4.51822C5.61169 4.33545 5.5378 4.15267 5.40558 4.02434C5.27336 3.896 5.09836 3.81822 4.91169 3.81822L4.9078 3.81434ZM11.3206 4.76322H8.94447C8.67614 4.76322 8.45836 4.54545 8.45836 4.27711C8.45836 4.00878 8.67614 3.791 8.94447 3.791H11.3206C11.5889 3.791 11.8067 4.00878 11.8067 4.27711C11.8067 4.54545 11.5889 4.76322 11.3206 4.76322Z" fill="#6B56CA"/>
</g>
<defs>
<clipPath id="clip0_2021_6780">
<rect width="13.3194" height="10.4689" fill="white" transform="translate(0.388916 0.944336)"/>
</clipPath>
</defs>
</svg>
