<svg width="16" height="13" viewBox="0 0 16 13" fill="none" xmlns="http://www.w3.org/2000/svg">
<g id="_&#229;&#156;&#150;&#229;&#177;&#164;_1" clip-path="url(#clip0_2299_7237)">
<path id="Vector" d="M13.4853 12.1866H2.62753C2.04531 12.1866 1.4942 11.9599 1.08531 11.5466C0.676424 11.1333 0.445312 10.5866 0.445312 10.0044V2.40439C0.445312 1.82217 0.671979 1.2755 1.08531 0.862168C1.49865 0.448835 2.04531 0.222168 2.62753 0.222168H13.4853C14.0586 0.222168 14.6231 0.453279 15.0275 0.862168C15.4409 1.2755 15.6675 1.82217 15.6675 2.40439V10.0044C15.6675 10.5866 15.4409 11.1377 15.0275 11.5466C14.6231 11.9511 14.0586 12.1866 13.4853 12.1866ZM2.62753 1.33328C2.34309 1.33328 2.07198 1.44439 1.86753 1.64883C1.66309 1.85328 1.55198 2.11995 1.55198 2.40883V10.0044C1.55198 10.2888 1.66309 10.5599 1.86753 10.7644C2.07198 10.9688 2.33865 11.0799 2.62753 11.0799H13.4853C13.7698 11.0799 14.0453 10.9644 14.2453 10.7644C14.4498 10.5599 14.5609 10.2933 14.5609 10.0044V2.40439C14.5609 2.11995 14.4498 1.84883 14.2453 1.64439C14.0453 1.44439 13.7698 1.32883 13.4853 1.32883H2.62753V1.33328ZM5.61865 10.0177H5.60087C4.71642 10.0177 3.83642 9.79995 3.05865 9.38217C2.8142 9.25328 2.70309 8.95995 2.79642 8.70217C3.00976 8.12439 3.38753 7.63106 3.8942 7.2755C4.90753 6.56883 6.31642 6.56883 7.32531 7.2755C7.83198 7.62661 8.20976 8.11995 8.42309 8.70217C8.51642 8.96439 8.40531 9.25328 8.16087 9.38217C7.37865 9.79995 6.49865 10.0177 5.6142 10.0177H5.61865ZM5.60976 8.90661H5.61865C6.13865 8.90661 6.65865 8.81328 7.14309 8.62661C7.01865 8.45772 6.86753 8.30661 6.6942 8.18217C6.05865 7.73772 5.16976 7.73772 4.5342 8.18217C4.35642 8.30661 4.20531 8.45328 4.08531 8.62661C4.56976 8.80883 5.08976 8.90661 5.60531 8.90661H5.6142H5.60976ZM12.9386 8.93328H10.2231C9.91642 8.93328 9.66753 8.68439 9.66753 8.37772C9.66753 8.07106 9.91642 7.82217 10.2231 7.82217H12.9386C13.2453 7.82217 13.4942 8.07106 13.4942 8.37772C13.4942 8.68439 13.2453 8.93328 12.9386 8.93328ZM12.9386 6.75995H10.2231C9.91642 6.75995 9.66753 6.51106 9.66753 6.20439C9.66753 5.89772 9.91642 5.64883 10.2231 5.64883H12.9386C13.2453 5.64883 13.4942 5.89772 13.4942 6.20439C13.4942 6.51106 13.2453 6.75995 12.9386 6.75995ZM5.60976 6.21772C5.35642 6.21772 5.11198 6.16883 4.87642 6.07106C4.64087 5.97328 4.43198 5.8355 4.2542 5.65772C4.07642 5.47995 3.93865 5.27106 3.84087 5.03995C3.74309 4.80439 3.6942 4.55995 3.6942 4.30661C3.6942 3.7955 3.8942 3.3155 4.2542 2.9555C4.6142 2.5955 5.0942 2.3955 5.60531 2.3955C6.11642 2.3955 6.59642 2.5955 6.95642 2.9555C7.31642 3.3155 7.51642 3.80439 7.51642 4.30661C7.51642 4.55995 7.46753 4.80439 7.36976 5.03995C7.27198 5.27106 7.1342 5.47995 6.95642 5.66217C6.77865 5.83995 6.56976 5.98217 6.3342 6.0755C6.10309 6.17328 5.8542 6.22217 5.60087 6.22217L5.60976 6.21772ZM5.60976 3.50217C5.39642 3.50217 5.19198 3.58661 5.04531 3.73772C4.89865 3.88883 4.80976 4.09328 4.80976 4.30661C4.80976 4.41328 4.83198 4.5155 4.87198 4.61328C4.91198 4.71106 4.96976 4.79995 5.04531 4.87106C5.12087 4.94661 5.20531 5.00439 5.30309 5.04439C5.49865 5.12439 5.72087 5.12439 5.91642 5.04439C6.0142 5.00439 6.10309 4.94661 6.17865 4.87106C6.2542 4.7955 6.31198 4.70661 6.35198 4.61328C6.39198 4.5155 6.4142 4.41328 6.4142 4.30661C6.4142 4.09772 6.32976 3.88883 6.17865 3.74217C6.02753 3.5955 5.82753 3.50661 5.6142 3.50661L5.60976 3.50217ZM12.9386 4.58661H10.2231C9.91642 4.58661 9.66753 4.33772 9.66753 4.03106C9.66753 3.72439 9.91642 3.4755 10.2231 3.4755H12.9386C13.2453 3.4755 13.4942 3.72439 13.4942 4.03106C13.4942 4.33772 13.2453 4.58661 12.9386 4.58661Z" fill="#787C85"/>
</g>
<defs>
<clipPath id="clip0_2299_7237">
<rect width="15.2222" height="11.9644" fill="white" transform="translate(0.445312 0.222168)"/>
</clipPath>
</defs>
</svg>
