<svg width="13" height="12" viewBox="0 0 13 12" fill="none" xmlns="http://www.w3.org/2000/svg">
<g id="User">
<path id="Vector" d="M9.07489 5.96407C8.91346 5.85848 8.73843 5.76979 8.56902 5.68439C8.51224 5.65576 8.45405 5.6262 8.3968 5.59663C9.01811 5.07904 9.38554 4.37468 9.4334 3.60556C9.48267 2.82002 9.19971 2.05043 8.65677 1.49435C8.14622 0.971596 7.46297 0.677839 6.73233 0.667046C6.00076 0.655314 5.30203 0.931709 4.76378 1.44086C4.20677 1.96737 3.89471 2.75807 3.92803 3.55488C3.96135 4.34465 4.33159 5.06965 4.97214 5.60461L4.90738 5.63558C3.16079 6.46524 2.23916 7.84768 2.16783 9.74537C2.15187 10.1691 2.30016 10.5656 2.58547 10.8627C2.87407 11.163 3.27106 11.3291 3.70278 11.3301C4.70794 11.3324 5.70559 11.3334 6.68916 11.3334C7.67273 11.3334 8.69572 11.3324 9.66897 11.3301C10.0899 11.3291 10.4803 11.1668 10.768 10.8725C11.0528 10.5821 11.2053 10.194 11.1974 9.7801C11.1673 8.15176 10.4526 6.86739 9.07442 5.96407H9.07489ZM4.83323 3.43193C4.83042 2.94249 5.02047 2.4798 5.36866 2.12879C5.71685 1.77779 6.17814 1.58304 6.66851 1.5807C6.67133 1.5807 6.67461 1.5807 6.67743 1.5807C7.17344 1.5807 7.63942 1.77263 7.98995 2.12176C8.33955 2.46995 8.53195 2.93217 8.53148 3.42396C8.53101 4.43662 7.70324 5.26299 6.68588 5.26628H6.68025C5.66711 5.26628 4.83886 4.4446 4.83276 3.43146L4.83323 3.43193ZM7.53806 10.4164C7.25368 10.4164 6.96978 10.4159 6.68541 10.4159H6.07208C5.31376 10.4169 4.55496 10.4169 3.79664 10.4159C3.5484 10.4159 3.36257 10.3517 3.24338 10.2264C3.12465 10.1011 3.07116 9.9129 3.08383 9.66654C3.17111 7.98611 4.24009 6.68861 5.87359 6.28035C6.81586 6.04478 7.84073 6.23436 8.68587 6.80029C9.52866 7.36481 10.0922 8.23717 10.2326 9.19352C10.2602 9.38216 10.2771 9.56705 10.2832 9.74162C10.2898 9.94012 10.2321 10.1086 10.1162 10.2292C10.0003 10.3493 9.83415 10.4136 9.63612 10.4145C8.93692 10.4174 8.22599 10.4169 7.53806 10.4164Z" fill="#4B515C"/>
</g>
</svg>
