<svg width="20" height="20" viewBox="0 0 20 20" fill="none" xmlns="http://www.w3.org/2000/svg">
<g id="YouTube">
<path id="YouTube_2" d="M9.95977 3C12.0126 3.08022 14.0655 3.15292 16.1184 3.24568C16.6008 3.26824 17.0857 3.33091 17.5631 3.41865C18.7165 3.62924 19.4552 4.40387 19.6738 5.61221C19.9778 7.28933 20.0381 8.984 19.9803 10.6787C19.9401 11.8594 19.8271 13.0377 19.7115 14.2134C19.6261 15.0758 19.2743 15.8078 18.5129 16.2967C18.0481 16.595 17.5229 16.6827 16.9903 16.7379C14.7766 16.9685 12.5554 17.0086 10.3342 16.9986C8.37678 16.9886 6.42191 16.9209 4.46453 16.8532C3.83636 16.8306 3.20568 16.7529 2.58254 16.6602C1.34127 16.4772 0.584955 15.7401 0.338712 14.5118C0.107545 13.3611 0.0522666 12.1929 0.017089 11.0246C-0.0306519 9.44026 0.0170898 7.85589 0.218104 6.27904C0.26082 5.9381 0.321124 5.59466 0.406555 5.26124C0.675412 4.21084 1.53475 3.5064 2.68053 3.3635C4.62786 3.12033 6.58524 3.10028 8.5401 3.06769C9.01249 3.06017 9.48487 3.06769 9.95475 3.06769C9.95475 3.04763 9.95475 3.02507 9.95475 3.00501L9.95977 3ZM8.02249 7.04867V13.0051C9.75624 12.0099 11.4699 11.0246 13.2112 10.0269C11.4649 9.02412 9.75373 8.04141 8.02249 7.04867Z" fill="#513FAD"/>
</g>
</svg>
