<svg width="36" height="36" viewBox="0 0 36 36" fill="none" xmlns="http://www.w3.org/2000/svg">
<path fill-rule="evenodd" clip-rule="evenodd" d="M20.5 17.1667C20.0392 17.1667 19.6667 17.54 19.6667 18C19.6667 18.9192 18.9192 19.6667 18 19.6667C17.0808 19.6667 16.3333 18.9192 16.3333 18C16.3333 17.54 15.9608 17.1667 15.5 17.1667C15.0392 17.1667 14.6667 17.54 14.6667 18C14.6667 19.8383 16.1617 21.3333 18 21.3333C19.8383 21.3333 21.3333 19.8383 21.3333 18C21.3333 17.54 20.9608 17.1667 20.5 17.1667ZM23 23.8333H13C12.54 23.8333 12.1667 23.4592 12.1667 23V15.5H23.8333V23C23.8333 23.4592 23.46 23.8333 23 23.8333ZM14.7675 12.4108C14.9233 12.2558 15.1375 12.1667 15.3567 12.1667H20.6433C20.8625 12.1667 21.0767 12.2558 21.2325 12.4108L22.655 13.8333H13.345L14.7675 12.4108ZM24.7675 13.5892L22.4108 11.2325C21.9392 10.76 21.3108 10.5 20.6433 10.5H15.3567C14.6892 10.5 14.0608 10.76 13.5892 11.2325L11.2325 13.5892C10.76 14.0608 10.5 14.6892 10.5 15.3575V23C10.5 24.3783 11.6217 25.5 13 25.5H23C24.3783 25.5 25.5 24.3783 25.5 23V15.3575C25.5 14.6892 25.24 14.0608 24.7675 13.5892Z" fill="#33301E"/>
<mask id="mask0_1292_2632" style="mask-type:luminance" maskUnits="userSpaceOnUse" x="10" y="10" width="16" height="16">
<path fill-rule="evenodd" clip-rule="evenodd" d="M20.5 17.1667C20.0392 17.1667 19.6667 17.54 19.6667 18C19.6667 18.9192 18.9192 19.6667 18 19.6667C17.0808 19.6667 16.3333 18.9192 16.3333 18C16.3333 17.54 15.9608 17.1667 15.5 17.1667C15.0392 17.1667 14.6667 17.54 14.6667 18C14.6667 19.8383 16.1617 21.3333 18 21.3333C19.8383 21.3333 21.3333 19.8383 21.3333 18C21.3333 17.54 20.9608 17.1667 20.5 17.1667ZM23 23.8333H13C12.54 23.8333 12.1667 23.4592 12.1667 23V15.5H23.8333V23C23.8333 23.4592 23.46 23.8333 23 23.8333ZM14.7675 12.4108C14.9233 12.2558 15.1375 12.1667 15.3567 12.1667H20.6433C20.8625 12.1667 21.0767 12.2558 21.2325 12.4108L22.655 13.8333H13.345L14.7675 12.4108ZM24.7675 13.5892L22.4108 11.2325C21.9392 10.76 21.3108 10.5 20.6433 10.5H15.3567C14.6892 10.5 14.0608 10.76 13.5892 11.2325L11.2325 13.5892C10.76 14.0608 10.5 14.6892 10.5 15.3575V23C10.5 24.3783 11.6217 25.5 13 25.5H23C24.3783 25.5 25.5 24.3783 25.5 23V15.3575C25.5 14.6892 25.24 14.0608 24.7675 13.5892Z" fill="white"/>
</mask>
<g mask="url(#mask0_1292_2632)">
<rect x="8" y="8" width="20" height="20" fill="#33301E"/>
</g>
</svg>
