<svg width="36" height="36" viewBox="0 0 36 36" fill="none" xmlns="http://www.w3.org/2000/svg">
<path fill-rule="evenodd" clip-rule="evenodd" d="M12.5955 21.3334L13.5788 20.3484C13.8938 20.0334 14.0672 19.6151 14.0672 19.1701V15.2726C14.0672 14.1418 14.5588 13.0609 15.4172 12.3093C16.2822 11.5509 17.3838 11.2176 18.5313 11.3684C20.4705 11.6259 21.933 13.3793 21.933 15.4476V19.1701C21.933 19.6151 22.1063 20.0334 22.4205 20.3476L23.4047 21.3334H12.5955ZM19.6663 23.2843C19.6663 24.0334 18.903 24.6668 17.9997 24.6668C17.0963 24.6668 16.333 24.0334 16.333 23.2843V23.0001H19.6663V23.2843ZM25.1005 20.6734L23.5997 19.1701V15.4476C23.5997 12.5468 21.5147 10.0826 18.7497 9.71677C17.148 9.50344 15.5313 9.99261 14.3188 11.0559C13.0988 12.1243 12.4005 13.6609 12.4005 15.2726L12.3997 19.1701L10.8988 20.6734C10.508 21.0651 10.3922 21.6476 10.6038 22.1584C10.8163 22.6701 11.3105 23.0001 11.8638 23.0001H14.6663V23.2843C14.6663 24.9659 16.1613 26.3334 17.9997 26.3334C19.838 26.3334 21.333 24.9659 21.333 23.2843V23.0001H24.1355C24.6888 23.0001 25.1822 22.6701 25.3938 22.1593C25.6063 21.6476 25.4913 21.0643 25.1005 20.6734Z" fill="#33301E"/>
<mask id="mask0_1718_3189" style="mask-type:luminance" maskUnits="userSpaceOnUse" x="10" y="9" width="16" height="18">
<path fill-rule="evenodd" clip-rule="evenodd" d="M12.5955 21.3334L13.5788 20.3484C13.8938 20.0334 14.0672 19.6151 14.0672 19.1701V15.2726C14.0672 14.1418 14.5588 13.0609 15.4172 12.3093C16.2822 11.5509 17.3838 11.2176 18.5313 11.3684C20.4705 11.6259 21.933 13.3793 21.933 15.4476V19.1701C21.933 19.6151 22.1063 20.0334 22.4205 20.3476L23.4047 21.3334H12.5955ZM19.6663 23.2843C19.6663 24.0334 18.903 24.6668 17.9997 24.6668C17.0963 24.6668 16.333 24.0334 16.333 23.2843V23.0001H19.6663V23.2843ZM25.1005 20.6734L23.5997 19.1701V15.4476C23.5997 12.5468 21.5147 10.0826 18.7497 9.71677C17.148 9.50344 15.5313 9.99261 14.3188 11.0559C13.0988 12.1243 12.4005 13.6609 12.4005 15.2726L12.3997 19.1701L10.8988 20.6734C10.508 21.0651 10.3922 21.6476 10.6038 22.1584C10.8163 22.6701 11.3105 23.0001 11.8638 23.0001H14.6663V23.2843C14.6663 24.9659 16.1613 26.3334 17.9997 26.3334C19.838 26.3334 21.333 24.9659 21.333 23.2843V23.0001H24.1355C24.6888 23.0001 25.1822 22.6701 25.3938 22.1593C25.6063 21.6476 25.4913 21.0643 25.1005 20.6734Z" fill="white"/>
</mask>
<g mask="url(#mask0_1718_3189)">
<rect x="8" y="8" width="20" height="20" fill="#33301E"/>
</g>
</svg>
