<svg width="16" height="16" viewBox="0 0 16 16" fill="none" xmlns="http://www.w3.org/2000/svg">
<path fill-rule="evenodd" clip-rule="evenodd" d="M4.66667 10.6666C4.66667 10.2999 4.96667 9.99992 5.33333 9.99992C5.7 9.99992 6 10.2999 6 10.6666C6 11.0333 5.7 11.3333 5.33333 11.3333C4.96667 11.3333 4.66667 11.0333 4.66667 10.6666ZM8 9.99992H10.6667C11.0333 9.99992 11.3333 10.2999 11.3333 10.6666C11.3333 11.0333 11.0333 11.3333 10.6667 11.3333H8C7.63333 11.3333 7.33333 11.0333 7.33333 10.6666C7.33333 10.2999 7.63333 9.99992 8 9.99992ZM12 13.3333H4C3.63267 13.3333 3.33333 13.0339 3.33333 12.6666V8.66659H12.6667V12.6666C12.6667 13.0339 12.3673 13.3333 12 13.3333ZM4 3.99992H4.66667V4.66659C4.66667 5.03325 4.96667 5.33325 5.33333 5.33325C5.7 5.33325 6 5.03325 6 4.66659V3.99992H10V4.66659C10 5.03325 10.3 5.33325 10.6667 5.33325C11.0333 5.33325 11.3333 5.03325 11.3333 4.66659V3.99992H12C12.3673 3.99992 12.6667 4.29925 12.6667 4.66659V7.33325H3.33333V4.66659C3.33333 4.29925 3.63267 3.99992 4 3.99992ZM12 2.66659H11.3333V1.99992C11.3333 1.63325 11.0333 1.33325 10.6667 1.33325C10.3 1.33325 10 1.63325 10 1.99992V2.66659H6V1.99992C6 1.63325 5.7 1.33325 5.33333 1.33325C4.96667 1.33325 4.66667 1.63325 4.66667 1.99992V2.66659H4C2.89733 2.66659 2 3.56392 2 4.66659V12.6666C2 13.7693 2.89733 14.6666 4 14.6666H12C13.1027 14.6666 14 13.7693 14 12.6666V4.66659C14 3.56392 13.1027 2.66659 12 2.66659Z" fill="#3D3C29"/>
<mask id="mask0_1591_7025" style="mask-type:luminance" maskUnits="userSpaceOnUse" x="2" y="1" width="12" height="14">
<path fill-rule="evenodd" clip-rule="evenodd" d="M4.66667 10.6666C4.66667 10.2999 4.96667 9.99992 5.33333 9.99992C5.7 9.99992 6 10.2999 6 10.6666C6 11.0333 5.7 11.3333 5.33333 11.3333C4.96667 11.3333 4.66667 11.0333 4.66667 10.6666ZM8 9.99992H10.6667C11.0333 9.99992 11.3333 10.2999 11.3333 10.6666C11.3333 11.0333 11.0333 11.3333 10.6667 11.3333H8C7.63333 11.3333 7.33333 11.0333 7.33333 10.6666C7.33333 10.2999 7.63333 9.99992 8 9.99992ZM12 13.3333H4C3.63267 13.3333 3.33333 13.0339 3.33333 12.6666V8.66659H12.6667V12.6666C12.6667 13.0339 12.3673 13.3333 12 13.3333ZM4 3.99992H4.66667V4.66659C4.66667 5.03325 4.96667 5.33325 5.33333 5.33325C5.7 5.33325 6 5.03325 6 4.66659V3.99992H10V4.66659C10 5.03325 10.3 5.33325 10.6667 5.33325C11.0333 5.33325 11.3333 5.03325 11.3333 4.66659V3.99992H12C12.3673 3.99992 12.6667 4.29925 12.6667 4.66659V7.33325H3.33333V4.66659C3.33333 4.29925 3.63267 3.99992 4 3.99992ZM12 2.66659H11.3333V1.99992C11.3333 1.63325 11.0333 1.33325 10.6667 1.33325C10.3 1.33325 10 1.63325 10 1.99992V2.66659H6V1.99992C6 1.63325 5.7 1.33325 5.33333 1.33325C4.96667 1.33325 4.66667 1.63325 4.66667 1.99992V2.66659H4C2.89733 2.66659 2 3.56392 2 4.66659V12.6666C2 13.7693 2.89733 14.6666 4 14.6666H12C13.1027 14.6666 14 13.7693 14 12.6666V4.66659C14 3.56392 13.1027 2.66659 12 2.66659Z" fill="white"/>
</mask>
<g mask="url(#mask0_1591_7025)">
<rect width="16" height="16" fill="#3D3C29"/>
</g>
</svg>
