<svg width="16" height="16" viewBox="0 0 16 16" fill="none" xmlns="http://www.w3.org/2000/svg">
<path fill-rule="evenodd" clip-rule="evenodd" d="M8.00008 7.33292C7.44875 7.33292 7.00008 6.88425 7.00008 6.33292C7.00008 5.78158 7.44875 5.33292 8.00008 5.33292C8.55141 5.33292 9.00008 5.78158 9.00008 6.33292C9.00008 6.88425 8.55141 7.33292 8.00008 7.33292ZM8.00008 3.99959C6.71341 3.99959 5.66675 5.04625 5.66675 6.33292C5.66675 7.61959 6.71341 8.66625 8.00008 8.66625C9.28675 8.66625 10.3334 7.61959 10.3334 6.33292C10.3334 5.04625 9.28675 3.99959 8.00008 3.99959ZM8.00008 13.0973C6.88341 12.0413 4.00008 9.07658 4.00008 6.61458C4.00008 4.43792 5.79408 2.66659 8.00008 2.66659C10.2061 2.66659 12.0001 4.43792 12.0001 6.61458C12.0001 9.07658 9.11675 12.0413 8.00008 13.0973ZM8.00008 1.33325C5.05941 1.33325 2.66675 3.70192 2.66675 6.61459C2.66675 10.2646 7.36608 14.3339 7.56608 14.5053C7.69141 14.6126 7.84541 14.6666 8.00008 14.6666C8.15475 14.6666 8.30875 14.6126 8.43408 14.5053C8.63408 14.3339 13.3334 10.2646 13.3334 6.61459C13.3334 3.70192 10.9407 1.33325 8.00008 1.33325Z" fill="#3D3C29"/>
<mask id="mask0_1591_5143" style="mask-type:luminance" maskUnits="userSpaceOnUse" x="2" y="1" width="12" height="14">
<path fill-rule="evenodd" clip-rule="evenodd" d="M8.00008 7.33292C7.44875 7.33292 7.00008 6.88425 7.00008 6.33292C7.00008 5.78158 7.44875 5.33292 8.00008 5.33292C8.55141 5.33292 9.00008 5.78158 9.00008 6.33292C9.00008 6.88425 8.55141 7.33292 8.00008 7.33292ZM8.00008 3.99959C6.71341 3.99959 5.66675 5.04625 5.66675 6.33292C5.66675 7.61959 6.71341 8.66625 8.00008 8.66625C9.28675 8.66625 10.3334 7.61959 10.3334 6.33292C10.3334 5.04625 9.28675 3.99959 8.00008 3.99959ZM8.00008 13.0973C6.88341 12.0413 4.00008 9.07658 4.00008 6.61458C4.00008 4.43792 5.79408 2.66659 8.00008 2.66659C10.2061 2.66659 12.0001 4.43792 12.0001 6.61458C12.0001 9.07658 9.11675 12.0413 8.00008 13.0973ZM8.00008 1.33325C5.05941 1.33325 2.66675 3.70192 2.66675 6.61459C2.66675 10.2646 7.36608 14.3339 7.56608 14.5053C7.69141 14.6126 7.84541 14.6666 8.00008 14.6666C8.15475 14.6666 8.30875 14.6126 8.43408 14.5053C8.63408 14.3339 13.3334 10.2646 13.3334 6.61459C13.3334 3.70192 10.9407 1.33325 8.00008 1.33325Z" fill="white"/>
</mask>
<g mask="url(#mask0_1591_5143)">
<rect width="16" height="16" fill="#3D3C29"/>
</g>
</svg>
