<svg width="16" height="16" viewBox="0 0 16 16" fill="none" xmlns="http://www.w3.org/2000/svg">
<path fill-rule="evenodd" clip-rule="evenodd" d="M8.20373 11.1379C7.9964 11.0239 7.74573 11.0259 7.54373 11.1466L5.04506 12.6133L6.02373 8.80658C6.60706 9.13992 7.28106 9.33325 7.99973 9.33325C8.7184 9.33325 9.3924 9.13992 9.9764 8.80658L10.9691 12.6679L8.20373 11.1379ZM7.99973 2.66659C9.4704 2.66659 10.6664 3.86259 10.6664 5.33325C10.6664 6.80392 9.4704 7.99992 7.99973 7.99992C6.52906 7.99992 5.33306 6.80392 5.33306 5.33325C5.33306 3.86259 6.52906 2.66659 7.99973 2.66659ZM12.6457 13.8339L11.1064 7.84792C11.6637 7.15992 11.9997 6.28592 11.9997 5.33325C11.9997 3.12725 10.2057 1.33325 7.99973 1.33325C5.7944 1.33325 3.99973 3.12725 3.99973 5.33325C3.99973 6.28592 4.33573 7.15992 4.89306 7.84792L3.3544 13.8339C3.28706 14.0953 3.38373 14.3706 3.59906 14.5326C3.81373 14.6946 4.10573 14.7093 4.33706 14.5746L7.8904 12.4886L11.6771 14.5833C11.7777 14.6393 11.8891 14.6666 11.9997 14.6666C12.1444 14.6666 12.2884 14.6199 12.4084 14.5273C12.6184 14.3646 12.7124 14.0919 12.6457 13.8339Z" fill="#3D3C29"/>
<mask id="mask0_1591_5183" style="mask-type:luminance" maskUnits="userSpaceOnUse" x="3" y="1" width="10" height="14">
<path fill-rule="evenodd" clip-rule="evenodd" d="M8.20373 11.1379C7.9964 11.0239 7.74573 11.0259 7.54373 11.1466L5.04506 12.6133L6.02373 8.80658C6.60706 9.13992 7.28106 9.33325 7.99973 9.33325C8.7184 9.33325 9.3924 9.13992 9.9764 8.80658L10.9691 12.6679L8.20373 11.1379ZM7.99973 2.66659C9.4704 2.66659 10.6664 3.86259 10.6664 5.33325C10.6664 6.80392 9.4704 7.99992 7.99973 7.99992C6.52906 7.99992 5.33306 6.80392 5.33306 5.33325C5.33306 3.86259 6.52906 2.66659 7.99973 2.66659ZM12.6457 13.8339L11.1064 7.84792C11.6637 7.15992 11.9997 6.28592 11.9997 5.33325C11.9997 3.12725 10.2057 1.33325 7.99973 1.33325C5.7944 1.33325 3.99973 3.12725 3.99973 5.33325C3.99973 6.28592 4.33573 7.15992 4.89306 7.84792L3.3544 13.8339C3.28706 14.0953 3.38373 14.3706 3.59906 14.5326C3.81373 14.6946 4.10573 14.7093 4.33706 14.5746L7.8904 12.4886L11.6771 14.5833C11.7777 14.6393 11.8891 14.6666 11.9997 14.6666C12.1444 14.6666 12.2884 14.6199 12.4084 14.5273C12.6184 14.3646 12.7124 14.0919 12.6457 13.8339Z" fill="white"/>
</mask>
<g mask="url(#mask0_1591_5183)">
<rect width="16" height="16" fill="#3D3C29"/>
</g>
</svg>
