<svg width="36" height="37" viewBox="0 0 36 37" fill="none" xmlns="http://www.w3.org/2000/svg">
<path fill-rule="evenodd" clip-rule="evenodd" d="M21.6515 20.4889H15.3032L13.939 15.4889H24.1515L21.6515 20.4889ZM25.569 14.6123C25.2632 14.1173 24.7332 13.8223 24.1515 13.8223H13.4848L12.9707 11.9364C12.8715 11.5739 12.5423 11.3223 12.1665 11.3223H10.4998C10.039 11.3223 9.6665 11.6956 9.6665 12.1556C9.6665 12.6156 10.039 12.9889 10.4998 12.9889H11.5298L13.8623 21.5414C13.9615 21.9039 14.2907 22.1556 14.6665 22.1556H22.1665C22.4823 22.1556 22.7707 21.9773 22.9123 21.6948L25.6423 16.2339C25.9032 15.7131 25.8748 15.1073 25.569 14.6123ZM14.25 23.8223C13.56 23.8223 13 24.3814 13 25.0723C13 25.7631 13.56 26.3223 14.25 26.3223C14.94 26.3223 15.5 25.7631 15.5 25.0723C15.5 24.3814 14.94 23.8223 14.25 23.8223ZM21.3333 25.0723C21.3333 24.3814 21.8933 23.8223 22.5833 23.8223C23.2733 23.8223 23.8333 24.3814 23.8333 25.0723C23.8333 25.7631 23.2733 26.3223 22.5833 26.3223C21.8933 26.3223 21.3333 25.7631 21.3333 25.0723Z" fill="#461B09"/>
<mask id="mask0_1264_822" style="mask-type:luminance" maskUnits="userSpaceOnUse" x="9" y="11" width="17" height="16">
<path fill-rule="evenodd" clip-rule="evenodd" d="M21.6515 20.4889H15.3032L13.939 15.4889H24.1515L21.6515 20.4889ZM25.569 14.6123C25.2632 14.1173 24.7332 13.8223 24.1515 13.8223H13.4848L12.9707 11.9364C12.8715 11.5739 12.5423 11.3223 12.1665 11.3223H10.4998C10.039 11.3223 9.6665 11.6956 9.6665 12.1556C9.6665 12.6156 10.039 12.9889 10.4998 12.9889H11.5298L13.8623 21.5414C13.9615 21.9039 14.2907 22.1556 14.6665 22.1556H22.1665C22.4823 22.1556 22.7707 21.9773 22.9123 21.6948L25.6423 16.2339C25.9032 15.7131 25.8748 15.1073 25.569 14.6123ZM14.25 23.8223C13.56 23.8223 13 24.3814 13 25.0723C13 25.7631 13.56 26.3223 14.25 26.3223C14.94 26.3223 15.5 25.7631 15.5 25.0723C15.5 24.3814 14.94 23.8223 14.25 23.8223ZM21.3333 25.0723C21.3333 24.3814 21.8933 23.8223 22.5833 23.8223C23.2733 23.8223 23.8333 24.3814 23.8333 25.0723C23.8333 25.7631 23.2733 26.3223 22.5833 26.3223C21.8933 26.3223 21.3333 25.7631 21.3333 25.0723Z" fill="white"/>
</mask>
<g mask="url(#mask0_1264_822)">
<rect x="8" y="8.82227" width="20" height="20" fill="#461B09"/>
</g>
</svg>
