<svg width="36" height="37" viewBox="0 0 36 37" fill="none" xmlns="http://www.w3.org/2000/svg">
<path fill-rule="evenodd" clip-rule="evenodd" d="M13.8335 17.9882C13.8335 17.5282 14.2068 17.1549 14.6668 17.1549C15.1268 17.1549 15.5001 17.5282 15.5001 17.9882C15.5001 18.4482 15.1268 18.8216 14.6668 18.8216C14.2068 18.8216 13.8335 18.4482 13.8335 17.9882ZM18.0001 17.1549C17.5401 17.1549 17.1668 17.5282 17.1668 17.9882C17.1668 18.4482 17.5401 18.8216 18.0001 18.8216C18.4601 18.8216 18.8335 18.4482 18.8335 17.9882C18.8335 17.5282 18.4601 17.1549 18.0001 17.1549ZM21.3335 17.1549C20.8735 17.1549 20.5001 17.5282 20.5001 17.9882C20.5001 18.4482 20.8735 18.8216 21.3335 18.8216C21.7935 18.8216 22.1668 18.4482 22.1668 17.9882C22.1668 17.5282 21.7935 17.1549 21.3335 17.1549ZM24.5821 19.0673C24.1596 21.779 21.9738 24.0282 19.2663 24.5357C17.9588 24.7823 16.6271 24.6415 15.4188 24.1298C15.0763 23.9848 14.7221 23.9115 14.3746 23.9115C14.2163 23.9115 14.0596 23.9265 13.9055 23.9573L11.5621 24.4257L12.0313 22.0782C12.1296 21.5907 12.0696 21.069 11.8588 20.5698C11.3471 19.3615 11.2071 18.0307 11.453 16.7223C11.9605 14.0148 14.2088 11.829 16.9213 11.4065C19.0796 11.0707 21.1905 11.7507 22.7138 13.274C24.238 14.7982 24.9188 16.9098 24.5821 19.0673ZM23.893 12.0957C21.9888 10.1923 19.3555 9.34316 16.6646 9.75899C13.2671 10.289 10.4505 13.0257 9.81463 16.4148C9.50796 18.0465 9.68463 19.7082 10.3238 21.219C10.4046 21.4115 10.4296 21.5907 10.398 21.7515L9.68296 25.3248C9.62796 25.5982 9.71379 25.8807 9.91129 26.0773C10.0688 26.2357 10.2813 26.3215 10.5005 26.3215C10.5546 26.3215 10.6088 26.3165 10.6638 26.3057L14.233 25.5915C14.438 25.5523 14.6363 25.6098 14.7688 25.6648C16.2813 26.304 17.943 26.4798 19.573 26.174C22.963 25.5382 25.6996 22.7215 26.2296 19.324C26.648 16.6348 25.7971 13.9998 23.893 12.0957Z" fill="#33301E"/>
<mask id="mask0_1264_802" style="mask-type:luminance" maskUnits="userSpaceOnUse" x="9" y="9" width="18" height="18">
<path fill-rule="evenodd" clip-rule="evenodd" d="M13.8335 17.9882C13.8335 17.5282 14.2068 17.1549 14.6668 17.1549C15.1268 17.1549 15.5001 17.5282 15.5001 17.9882C15.5001 18.4482 15.1268 18.8216 14.6668 18.8216C14.2068 18.8216 13.8335 18.4482 13.8335 17.9882ZM18.0001 17.1549C17.5401 17.1549 17.1668 17.5282 17.1668 17.9882C17.1668 18.4482 17.5401 18.8216 18.0001 18.8216C18.4601 18.8216 18.8335 18.4482 18.8335 17.9882C18.8335 17.5282 18.4601 17.1549 18.0001 17.1549ZM21.3335 17.1549C20.8735 17.1549 20.5001 17.5282 20.5001 17.9882C20.5001 18.4482 20.8735 18.8216 21.3335 18.8216C21.7935 18.8216 22.1668 18.4482 22.1668 17.9882C22.1668 17.5282 21.7935 17.1549 21.3335 17.1549ZM24.5821 19.0673C24.1596 21.779 21.9738 24.0282 19.2663 24.5357C17.9588 24.7823 16.6271 24.6415 15.4188 24.1298C15.0763 23.9848 14.7221 23.9115 14.3746 23.9115C14.2163 23.9115 14.0596 23.9265 13.9055 23.9573L11.5621 24.4257L12.0313 22.0782C12.1296 21.5907 12.0696 21.069 11.8588 20.5698C11.3471 19.3615 11.2071 18.0307 11.453 16.7223C11.9605 14.0148 14.2088 11.829 16.9213 11.4065C19.0796 11.0707 21.1905 11.7507 22.7138 13.274C24.238 14.7982 24.9188 16.9098 24.5821 19.0673ZM23.893 12.0957C21.9888 10.1923 19.3555 9.34316 16.6646 9.75899C13.2671 10.289 10.4505 13.0257 9.81463 16.4148C9.50796 18.0465 9.68463 19.7082 10.3238 21.219C10.4046 21.4115 10.4296 21.5907 10.398 21.7515L9.68296 25.3248C9.62796 25.5982 9.71379 25.8807 9.91129 26.0773C10.0688 26.2357 10.2813 26.3215 10.5005 26.3215C10.5546 26.3215 10.6088 26.3165 10.6638 26.3057L14.233 25.5915C14.438 25.5523 14.6363 25.6098 14.7688 25.6648C16.2813 26.304 17.943 26.4798 19.573 26.174C22.963 25.5382 25.6996 22.7215 26.2296 19.324C26.648 16.6348 25.7971 13.9998 23.893 12.0957Z" fill="white"/>
</mask>
<g mask="url(#mask0_1264_802)">
<rect x="8" y="8.82227" width="20" height="20" fill="#33301E"/>
</g>
</svg>
