<svg width="20" height="20" viewBox="0 0 20 20" fill="none" xmlns="http://www.w3.org/2000/svg">
<path d="M2.99468 10.032C2.79268 10.2103 2.63034 10.356 2.46501 10.4986C2.04134 10.8646 1.47034 10.8473 1.12801 10.4593C0.769344 10.0533 0.814677 9.49764 1.23768 9.11431C3.92801 6.67798 6.61801 4.24131 9.30834 1.80498C9.75101 1.40431 10.228 1.40364 10.675 1.80631C11.693 2.72331 12.7087 3.64231 13.7257 4.56064C13.8003 4.62798 13.876 4.69431 13.987 4.79298C13.987 4.58598 13.9867 4.41331 13.987 4.24064C13.988 3.82864 14.173 3.63998 14.5817 3.63931C15.1867 3.63798 15.7917 3.63798 16.3967 3.63931C16.7967 3.64031 16.982 3.82764 16.9823 4.22964C16.9833 5.26164 16.9853 6.29364 16.9793 7.32564C16.9787 7.45764 17.02 7.54331 17.1163 7.62931C17.6787 8.13031 18.237 8.63598 18.794 9.14298C19.0607 9.38564 19.1693 9.68598 19.0847 10.0423C19.003 10.3856 18.7977 10.6273 18.4537 10.7243C18.125 10.817 17.8193 10.7573 17.556 10.529C17.3777 10.3743 17.2007 10.2176 16.986 10.029C16.986 10.1373 16.986 10.2043 16.986 10.2713C16.986 12.6556 16.9867 15.04 16.9853 17.424C16.9853 17.9463 16.7137 18.33 16.2527 18.4523C16.1283 18.4853 15.995 18.494 15.8657 18.494C11.951 18.496 8.03634 18.4963 4.12168 18.495C3.39168 18.495 2.99501 18.0896 2.99501 17.3536C2.99501 14.999 2.99501 12.6443 2.99501 10.29C2.99501 10.22 2.99501 10.1496 2.99501 10.0323L2.99468 10.032ZM9.99501 8.03031C7.51501 8.02531 5.50701 10.0246 5.49334 12.5123C5.47968 14.983 7.49801 17.011 9.97435 17.0153C12.4597 17.0193 14.4753 15.0203 14.4847 12.542C14.494 10.0546 12.4847 8.03531 9.99501 8.03031Z" fill="white"/>
<path d="M10.0126 12.0103C9.51595 11.9926 9.09695 12.2063 8.94595 12.6439C8.80362 13.0563 8.57995 13.3543 8.20128 13.5719C7.90828 13.7406 7.80195 14.0439 7.84528 14.3789C7.89095 14.7313 8.09562 14.9709 8.43095 15.0853C8.83428 15.2229 9.23228 15.1866 9.59028 14.9609C9.88162 14.7773 10.1363 14.7709 10.4266 14.9609C10.729 15.1586 11.0753 15.2046 11.431 15.1339C11.8213 15.0563 12.1116 14.7693 12.1673 14.4166C12.2286 14.0299 12.0766 13.6873 11.7136 13.5043C11.3986 13.3453 11.2223 13.1089 11.136 12.7736C11.0226 12.3329 10.722 12.0886 10.273 12.0286C10.187 12.0173 10.0996 12.0159 10.0126 12.0103ZM11.556 10.4296C11.5453 10.3863 11.5326 10.3433 11.5166 10.3016C11.3513 9.86794 10.7773 9.77294 10.4706 10.1216C10.1643 10.4693 10.0936 10.8826 10.2473 11.3249C10.42 11.8213 10.949 11.9243 11.3016 11.5359C11.4053 11.4216 11.478 11.2953 11.528 11.1586C11.613 10.9253 11.616 10.6706 11.556 10.4296ZM8.42628 10.5083C8.40295 10.6089 8.39662 10.7129 8.40762 10.8159C8.44462 11.1643 8.55228 11.4276 8.79695 11.6273C9.09562 11.8706 9.48562 11.7993 9.68562 11.4729C9.94995 11.0413 9.82528 10.3343 9.42928 10.0209C9.11128 9.76928 8.67995 9.86228 8.51328 10.2323C8.47162 10.3249 8.44562 10.4246 8.42628 10.5083ZM8.46162 12.1043C8.45228 11.8359 8.33062 11.5556 8.05495 11.3566C7.76428 11.1473 7.39762 11.2626 7.27062 11.5976C7.14395 11.9319 7.27995 12.4213 7.56562 12.6349C7.70762 12.7409 7.86495 12.8183 8.05062 12.7776C8.30628 12.7213 8.45995 12.4909 8.46162 12.1043ZM11.5363 12.1473C11.539 12.1993 11.5393 12.2409 11.544 12.2823C11.591 12.7123 11.9643 12.9069 12.3406 12.6976C12.6656 12.5169 12.8543 12.0343 12.747 11.6583C12.6326 11.2573 12.2313 11.1263 11.906 11.3866C11.6603 11.5833 11.55 11.8476 11.5366 12.1473H11.5363Z" fill="#33301E"/>
</svg>
