<svg width="161" height="256" viewBox="0 0 161 256" fill="none" xmlns="http://www.w3.org/2000/svg">
<g clip-path="url(#clip0_1534_5648)">
<path d="M99.3119 242.701C98.1789 242.82 96.3012 243.002 94.4288 243.217C93.2077 243.358 91.9836 243.491 90.7821 243.737C89.2252 244.058 87.9343 244.972 86.642 245.844C85.2595 246.777 83.9318 247.802 82.5024 248.652C80.469 249.861 78.2793 250.454 75.9129 249.62C73.0773 248.619 71.2902 246.587 70.4907 243.692C69.586 240.412 70.1037 237.259 71.6085 234.327C73.0771 231.464 74.0098 228.444 74.6424 225.298C74.9617 223.71 75.3389 222.139 76.1222 220.71C78.2798 216.77 82.6575 215.532 86.6305 217.834C88.0512 218.657 89.3526 219.7 90.6786 220.682C92.7474 222.212 94.8778 223.615 97.2668 224.582C99.8402 225.624 102.043 227.201 103.664 229.523C105.765 232.535 106.225 236.153 104.292 239.341C103.301 240.977 101.79 241.888 99.3132 242.698L99.3119 242.701Z" fill="#FEF6F2" fill-opacity="0.1"/>
<path d="M90.1923 201.315C91.3815 204.988 91.4749 208.181 89.8368 211.223C88.8002 213.148 87.2307 214.386 84.93 214.277C83.2099 214.196 81.8612 213.288 80.7421 212.011C77.7948 208.648 77.0957 203.038 79.179 199.158C80.2825 197.101 81.953 195.831 84.3836 196.057C86.3301 196.238 87.76 197.42 88.856 198.987C89.4503 199.836 89.8949 200.79 90.193 201.317L90.1923 201.315Z" fill="#FEF6F2" fill-opacity="0.1"/>
<path d="M62.3531 211.935C61.7482 210.06 61.4959 208.193 61.9499 206.287C62.6856 203.191 65.4656 201.603 68.5046 202.499C71.1468 203.279 73.0445 205.022 74.4997 207.308C75.6854 209.172 76.3945 211.21 76.3709 213.44C76.3482 215.531 75.758 217.38 73.9289 218.569C72.4658 219.519 70.8689 219.506 69.2596 218.976C66.9742 218.222 65.2399 216.701 63.906 214.714C63.3178 213.836 62.867 212.866 62.3539 211.937L62.3531 211.935Z" fill="#FEF6F2" fill-opacity="0.1"/>
<path d="M106.464 209.325C107.571 212.933 107.254 216.18 105.172 219.145C103.754 221.163 101.459 222.085 99.3712 221.493C97.4863 220.96 96.2299 219.636 95.499 217.886C93.8867 214.025 94.2318 210.355 96.8048 207.063C97.8802 205.687 99.3439 204.88 101.142 204.925C103.095 204.974 104.509 206.029 105.559 207.624C105.937 208.196 106.209 208.838 106.464 209.325Z" fill="#FEF6F2" fill-opacity="0.1"/>
<path d="M54.9805 228.164C54.5003 226.798 54.3366 225.424 54.6313 224.02C55.169 221.443 57.4021 219.811 60.1344 220.047C63.3148 220.32 65.6864 222.017 67.4929 224.603C68.5067 226.055 69.1259 227.666 69.1479 229.462C69.1902 233.029 66.7016 235.337 63.1985 234.907C60.0591 234.521 57.7474 232.756 56.0129 230.148C55.6027 229.533 55.3224 228.83 54.9812 228.166L54.9805 228.164Z" fill="#FEF6F2" fill-opacity="0.1"/>
</g>
<g clip-path="url(#clip1_1534_5648)">
<path d="M143.41 164.665C142.277 164.784 140.4 164.966 138.527 165.181C137.306 165.322 136.082 165.455 134.881 165.701C133.324 166.022 132.033 166.936 130.74 167.808C129.358 168.741 128.03 169.766 126.601 170.616C124.567 171.824 122.378 172.418 120.011 171.584C117.176 170.583 115.389 168.551 114.589 165.656C113.684 162.376 114.202 159.223 115.707 156.291C117.176 153.428 118.108 150.408 118.741 147.262C119.06 145.674 119.437 144.103 120.221 142.674C122.378 138.733 126.756 137.496 130.729 139.798C132.15 140.621 133.451 141.664 134.777 142.645C136.846 144.176 138.976 145.579 141.365 146.546C143.939 147.588 146.142 149.165 147.763 151.487C149.863 154.499 150.323 158.117 148.391 161.305C147.399 162.941 145.888 163.852 143.412 164.662L143.41 164.665Z" fill="#FEF6F2" fill-opacity="0.1"/>
<path d="M134.291 123.279C135.48 126.952 135.573 130.145 133.935 133.187C132.899 135.112 131.329 136.35 129.028 136.241C127.308 136.16 125.96 135.252 124.84 133.975C121.893 130.612 121.194 125.002 123.277 121.122C124.381 119.065 126.051 117.795 128.482 118.021C130.428 118.201 131.858 119.384 132.954 120.951C133.549 121.8 133.993 122.754 134.291 123.281L134.291 123.279Z" fill="#FEF6F2" fill-opacity="0.1"/>
<path d="M106.452 133.899C105.847 132.024 105.594 130.157 106.048 128.251C106.784 125.155 109.564 123.567 112.603 124.463C115.245 125.243 117.143 126.986 118.598 129.272C119.784 131.136 120.493 133.174 120.469 135.404C120.447 137.495 119.856 139.344 118.027 140.532C116.564 141.483 114.967 141.469 113.358 140.94C111.073 140.185 109.338 138.665 108.004 136.678C107.416 135.8 106.965 134.83 106.452 133.901L106.452 133.899Z" fill="#FEF6F2" fill-opacity="0.1"/>
<path d="M150.563 131.289C151.669 134.897 151.353 138.144 149.271 141.109C147.853 143.127 145.557 144.049 143.47 143.456C141.585 142.924 140.328 141.6 139.597 139.85C137.985 135.989 138.33 132.318 140.903 129.027C141.979 127.651 143.442 126.844 145.241 126.889C147.193 126.938 148.607 127.993 149.657 129.588C150.035 130.16 150.307 130.802 150.563 131.289Z" fill="#FEF6F2" fill-opacity="0.1"/>
<path d="M99.0788 150.128C98.5987 148.762 98.435 147.388 98.7297 145.984C99.2674 143.407 101.501 141.775 104.233 142.01C107.413 142.284 109.785 143.981 111.591 146.567C112.605 148.019 113.224 149.63 113.246 151.426C113.289 154.993 110.8 157.301 107.297 156.871C104.157 156.484 101.846 154.72 100.111 152.112C99.7011 151.497 99.4208 150.794 99.0796 150.13L99.0788 150.128Z" fill="#FEF6F2" fill-opacity="0.1"/>
</g>
<g clip-path="url(#clip2_1534_5648)">
<path d="M51.4101 147.665C50.2771 147.784 48.3994 147.966 46.527 148.181C45.306 148.322 44.0818 148.455 42.8804 148.701C41.3234 149.022 40.0326 149.936 38.7403 150.808C37.3577 151.741 36.0301 152.766 34.6007 153.616C32.5673 154.825 30.3776 155.418 28.0112 154.584C25.1756 153.583 23.3884 151.551 22.589 148.656C21.6843 145.376 22.202 142.223 23.7068 139.291C25.1754 136.428 26.1081 133.408 26.7406 130.262C27.0599 128.674 27.4372 127.103 28.2205 125.674C30.3781 121.734 34.7558 120.496 38.7288 122.798C40.1494 123.621 41.4509 124.664 42.7768 125.645C44.8457 127.176 46.976 128.579 49.3651 129.546C51.9384 130.588 54.1417 132.165 55.7624 134.487C57.8629 137.499 58.3231 141.117 56.3906 144.305C55.3988 145.941 53.8882 146.852 51.4114 147.662L51.4101 147.665Z" fill="#FEF6F2" fill-opacity="0.1"/>
<path d="M42.2907 106.279C43.4799 109.952 43.5733 113.145 41.9352 116.187C40.8986 118.112 39.3291 119.35 37.0284 119.241C35.3083 119.16 33.9596 118.252 32.8405 116.975C29.8932 113.612 29.1941 108.002 31.2774 104.122C32.3809 102.065 34.0514 100.795 36.4819 101.021C38.4285 101.202 39.8584 102.384 40.9544 103.951C41.5487 104.8 41.9933 105.754 42.2914 106.281L42.2907 106.279Z" fill="#FEF6F2" fill-opacity="0.1"/>
<path d="M14.4514 116.899C13.8464 115.024 13.5941 113.157 14.0481 111.251C14.7838 108.155 17.5639 106.567 20.6029 107.463C23.2451 108.243 25.1428 109.986 26.598 112.272C27.7837 114.136 28.4927 116.174 28.4692 118.404C28.4465 120.495 27.8563 122.344 26.0271 123.533C24.5641 124.483 22.9672 124.47 21.3578 123.94C19.0724 123.186 17.3382 121.665 16.0043 119.678C15.416 118.8 14.9652 117.83 14.4522 116.901L14.4514 116.899Z" fill="#FEF6F2" fill-opacity="0.1"/>
<path d="M58.5627 114.289C59.6694 117.897 59.3527 121.144 57.2708 124.109C55.8527 126.127 53.5573 127.049 51.4696 126.457C49.5847 125.924 48.3283 124.6 47.5974 122.85C45.9851 118.989 46.3302 115.319 48.9032 112.027C49.9786 110.651 51.4422 109.844 53.2409 109.889C55.1935 109.938 56.6072 110.993 57.6573 112.588C58.0353 113.16 58.3072 113.802 58.5627 114.289Z" fill="#FEF6F2" fill-opacity="0.1"/>
<path d="M7.07872 133.128C6.59853 131.762 6.43485 130.388 6.72955 128.984C7.26731 126.407 9.50041 124.775 12.2327 125.011C15.413 125.284 17.7847 126.981 19.5912 129.567C20.605 131.019 21.2242 132.63 21.2461 134.426C21.2885 137.993 18.7998 140.301 15.2967 139.871C12.1573 139.485 9.84563 137.72 8.11115 135.112C7.70097 134.497 7.42069 133.794 7.07949 133.13L7.07872 133.128Z" fill="#FEF6F2" fill-opacity="0.1"/>
</g>
<g clip-path="url(#clip3_1534_5648)">
<path d="M105.41 52.6652C104.277 52.7838 102.399 52.9656 100.527 53.1813C99.306 53.3223 98.0818 53.455 96.8804 53.7012C95.3234 54.0218 94.0326 54.936 92.7403 55.8076C91.3577 56.7408 90.0301 57.7662 88.6007 58.6161C86.5673 59.8244 84.3776 60.4183 82.0112 59.5837C79.1756 58.583 77.3884 56.551 76.589 53.6556C75.6843 50.3756 76.202 47.2228 77.7068 44.2913C79.1754 41.4278 80.1081 38.4083 80.7406 35.2615C81.0599 33.6738 81.4372 32.1034 82.2205 30.6741C84.3781 26.7334 88.7558 25.4959 92.7288 27.7977C94.1494 28.6206 95.4509 29.6637 96.7768 30.6454C98.8457 32.1759 100.976 33.579 103.365 34.5463C105.938 35.5875 108.142 37.1647 109.762 39.4866C111.863 42.4985 112.323 46.117 110.391 49.3046C109.399 50.9411 107.888 51.8516 105.411 52.6623L105.41 52.6652Z" fill="#FEF6F2" fill-opacity="0.1"/>
<path d="M96.2905 11.2784C97.4798 14.9517 97.5732 18.1448 95.9351 21.187C94.8985 23.1121 93.329 24.3498 91.0283 24.2413C89.3081 24.1603 87.9595 23.2514 86.8403 21.9748C83.8931 18.6117 83.1939 13.0021 85.2773 9.12182C86.3808 7.06485 88.0513 5.79518 90.4818 6.02125C92.4283 6.20136 93.8583 7.38402 94.9543 8.95096C95.5485 9.80001 95.9932 10.7537 96.2913 11.2805L96.2905 11.2784Z" fill="#FEF6F2" fill-opacity="0.1"/>
<path d="M68.4514 21.8988C67.8464 20.0241 67.5941 18.1573 68.0481 16.2507C68.7838 13.1547 71.5639 11.5672 74.6029 12.4628C77.2451 13.2425 79.1428 14.9858 80.598 17.2724C81.7837 19.1363 82.4927 21.1737 82.4692 23.4037C82.4465 25.4949 81.8563 27.3436 80.0271 28.5324C78.5641 29.483 76.9672 29.4694 75.3578 28.9397C73.0724 28.1854 71.3382 26.6645 70.0043 24.6777C69.416 23.8002 68.9652 22.8297 68.4522 21.9009L68.4514 21.8988Z" fill="#FEF6F2" fill-opacity="0.1"/>
<path d="M112.563 19.2891C113.669 22.8968 113.353 26.1436 111.271 29.1085C109.853 31.1271 107.557 32.0485 105.469 31.4564C103.585 30.9243 102.328 29.5996 101.597 27.8496C99.985 23.9888 100.33 20.3184 102.903 17.0267C103.978 15.6512 105.442 14.8437 107.241 14.889C109.193 14.9379 110.607 15.9927 111.657 17.5882C112.035 18.1601 112.307 18.8016 112.563 19.2891Z" fill="#FEF6F2" fill-opacity="0.1"/>
<path d="M61.0787 38.1278C60.5985 36.7619 60.4348 35.3883 60.7296 33.984C61.2673 31.4068 63.5004 29.7747 66.2327 30.0104C69.413 30.2836 71.7847 31.9811 73.5912 34.5673C74.605 36.0185 75.2242 37.63 75.2461 39.4255C75.2885 42.993 72.7998 45.301 69.2967 44.8705C66.1573 44.4844 63.8456 42.7198 62.1111 40.1121C61.701 39.497 61.4207 38.794 61.0795 38.1299L61.0787 38.1278Z" fill="#FEF6F2" fill-opacity="0.1"/>
</g>
<defs>
<clipPath id="clip0_1534_5648">
<rect width="54.8225" height="49.5002" fill="white" transform="matrix(0.939693 -0.34202 0.343127 0.939289 47.9017 208.786)"/>
</clipPath>
<clipPath id="clip1_1534_5648">
<rect width="54.8225" height="49.5002" fill="white" transform="matrix(0.939693 -0.34202 0.343127 0.939289 92 130.75)"/>
</clipPath>
<clipPath id="clip2_1534_5648">
<rect width="54.8225" height="49.5002" fill="white" transform="matrix(0.939693 -0.34202 0.343127 0.939289 0 113.75)"/>
</clipPath>
<clipPath id="clip3_1534_5648">
<rect width="54.8225" height="49.5002" fill="white" transform="matrix(0.939693 -0.34202 0.343127 0.939289 54 18.7504)"/>
</clipPath>
</defs>
</svg>
