<svg width="40" height="41" viewBox="0 0 40 41" fill="none" xmlns="http://www.w3.org/2000/svg">
<rect y="0.822266" width="40" height="40" rx="20" fill="#FFEAE1"/>
<path fill-rule="evenodd" clip-rule="evenodd" d="M11.9482 14.8223H28.0512C28.5732 14.8223 29.0002 15.2493 29.0002 15.7713V15.8733C29.0002 16.3953 28.5732 16.8223 28.0512 16.8223H11.9482C11.4262 16.8223 11.0002 16.3953 11.0002 15.8733V15.7713C11.0002 15.2493 11.4262 14.8223 11.9482 14.8223ZM28.0512 19.8223H11.9482C11.4262 19.8223 11.0002 20.2493 11.0002 20.7713V20.8733C11.0002 21.3953 11.4262 21.8223 11.9482 21.8223H28.0512C28.5732 21.8223 29.0002 21.3953 29.0002 20.8733V20.7713C29.0002 20.2493 28.5732 19.8223 28.0512 19.8223ZM28.0512 24.8223H11.9482C11.4262 24.8223 11.0002 25.2493 11.0002 25.7713V25.8733C11.0002 26.3953 11.4262 26.8223 11.9482 26.8223H28.0512C28.5732 26.8223 29.0002 26.3953 29.0002 25.8733V25.7713C29.0002 25.2493 28.5732 24.8223 28.0512 24.8223Z" fill="#9B3F19"/>
<mask id="mask0_1264_852" style="mask-type:luminance" maskUnits="userSpaceOnUse" x="11" y="14" width="19" height="13">
<path fill-rule="evenodd" clip-rule="evenodd" d="M11.9482 14.8223H28.0512C28.5732 14.8223 29.0002 15.2493 29.0002 15.7713V15.8733C29.0002 16.3953 28.5732 16.8223 28.0512 16.8223H11.9482C11.4262 16.8223 11.0002 16.3953 11.0002 15.8733V15.7713C11.0002 15.2493 11.4262 14.8223 11.9482 14.8223ZM28.0512 19.8223H11.9482C11.4262 19.8223 11.0002 20.2493 11.0002 20.7713V20.8733C11.0002 21.3953 11.4262 21.8223 11.9482 21.8223H28.0512C28.5732 21.8223 29.0002 21.3953 29.0002 20.8733V20.7713C29.0002 20.2493 28.5732 19.8223 28.0512 19.8223ZM28.0512 24.8223H11.9482C11.4262 24.8223 11.0002 25.2493 11.0002 25.7713V25.8733C11.0002 26.3953 11.4262 26.8223 11.9482 26.8223H28.0512C28.5732 26.8223 29.0002 26.3953 29.0002 25.8733V25.7713C29.0002 25.2493 28.5732 24.8223 28.0512 24.8223Z" fill="white"/>
</mask>
<g mask="url(#mask0_1264_852)">
<rect x="8" y="8.82227" width="24" height="24" fill="#9B3F19"/>
</g>
</svg>
