<svg width="20" height="20" viewBox="0 0 20 20" fill="none" xmlns="http://www.w3.org/2000/svg">
<path fill-rule="evenodd" clip-rule="evenodd" d="M16.6666 15C16.6666 15.4592 16.2925 15.8333 15.8333 15.8333H14.1666V7.5H15.8333C16.2925 7.5 16.6666 7.87417 16.6666 8.33333V15ZM3.33329 15V8.33333C3.33329 7.87417 3.70746 7.5 4.16663 7.5H5.83329V15.8333H4.16663C3.70746 15.8333 3.33329 15.4592 3.33329 15ZM8.33329 4.58333C8.33329 4.35333 8.51996 4.16667 8.74996 4.16667H11.25C11.48 4.16667 11.6666 4.35333 11.6666 4.58333V5.83333H8.33329V4.58333ZM7.49996 15.8333H12.5V7.5H7.49996V15.8333ZM15.8333 5.83333H13.3333V4.58333C13.3333 3.435 12.3983 2.5 11.25 2.5H8.74996C7.60163 2.5 6.66663 3.435 6.66663 4.58333V5.83333H4.16663C2.78829 5.83333 1.66663 6.955 1.66663 8.33333V15C1.66663 16.3783 2.78829 17.5 4.16663 17.5H15.8333C17.2116 17.5 18.3333 16.3783 18.3333 15V8.33333C18.3333 6.955 17.2116 5.83333 15.8333 5.83333Z" fill="#FFECBC"/>
<mask id="mask0_1718_6199" style="mask-type:luminance" maskUnits="userSpaceOnUse" x="1" y="2" width="18" height="16">
<path fill-rule="evenodd" clip-rule="evenodd" d="M16.6666 15C16.6666 15.4592 16.2925 15.8333 15.8333 15.8333H14.1666V7.5H15.8333C16.2925 7.5 16.6666 7.87417 16.6666 8.33333V15ZM3.33329 15V8.33333C3.33329 7.87417 3.70746 7.5 4.16663 7.5H5.83329V15.8333H4.16663C3.70746 15.8333 3.33329 15.4592 3.33329 15ZM8.33329 4.58333C8.33329 4.35333 8.51996 4.16667 8.74996 4.16667H11.25C11.48 4.16667 11.6666 4.35333 11.6666 4.58333V5.83333H8.33329V4.58333ZM7.49996 15.8333H12.5V7.5H7.49996V15.8333ZM15.8333 5.83333H13.3333V4.58333C13.3333 3.435 12.3983 2.5 11.25 2.5H8.74996C7.60163 2.5 6.66663 3.435 6.66663 4.58333V5.83333H4.16663C2.78829 5.83333 1.66663 6.955 1.66663 8.33333V15C1.66663 16.3783 2.78829 17.5 4.16663 17.5H15.8333C17.2116 17.5 18.3333 16.3783 18.3333 15V8.33333C18.3333 6.955 17.2116 5.83333 15.8333 5.83333Z" fill="white"/>
</mask>
<g mask="url(#mask0_1718_6199)">
<rect width="20" height="20" fill="#FFECBC"/>
</g>
</svg>
