<svg width="20" height="20" viewBox="0 0 20 20" fill="none" xmlns="http://www.w3.org/2000/svg">
<path fill-rule="evenodd" clip-rule="evenodd" d="M15.8333 15H4.16663C3.70746 15 3.33329 14.6266 3.33329 14.1666V6.04165L9.49996 10.6666C9.64829 10.7783 9.82413 10.8333 9.99996 10.8333C10.1758 10.8333 10.3516 10.7783 10.5 10.6666L16.6666 6.04165V14.1666C16.6666 14.6266 16.2925 15 15.8333 15ZM15.2775 4.99998L9.99996 8.95831L4.72246 4.99998H15.2775ZM15.8333 3.33331H4.16663C2.78829 3.33331 1.66663 4.45498 1.66663 5.83331V14.1666C1.66663 15.545 2.78829 16.6666 4.16663 16.6666H15.8333C17.2116 16.6666 18.3333 15.545 18.3333 14.1666V5.83331C18.3333 4.45498 17.2116 3.33331 15.8333 3.33331Z" fill="#FFECBC"/>
<mask id="mask0_1718_6216" style="mask-type:luminance" maskUnits="userSpaceOnUse" x="1" y="3" width="18" height="14">
<path fill-rule="evenodd" clip-rule="evenodd" d="M15.8333 15H4.16663C3.70746 15 3.33329 14.6266 3.33329 14.1666V6.04165L9.49996 10.6666C9.64829 10.7783 9.82413 10.8333 9.99996 10.8333C10.1758 10.8333 10.3516 10.7783 10.5 10.6666L16.6666 6.04165V14.1666C16.6666 14.6266 16.2925 15 15.8333 15ZM15.2775 4.99998L9.99996 8.95831L4.72246 4.99998H15.2775ZM15.8333 3.33331H4.16663C2.78829 3.33331 1.66663 4.45498 1.66663 5.83331V14.1666C1.66663 15.545 2.78829 16.6666 4.16663 16.6666H15.8333C17.2116 16.6666 18.3333 15.545 18.3333 14.1666V5.83331C18.3333 4.45498 17.2116 3.33331 15.8333 3.33331Z" fill="white"/>
</mask>
<g mask="url(#mask0_1718_6216)">
<rect width="20" height="20" fill="#FFECBC"/>
</g>
</svg>
