<svg width="357" height="39" viewBox="0 0 357 39" fill="none" xmlns="http://www.w3.org/2000/svg">
<path d="M0.5 16.8842V82.8842H89.5V16.8842C82.3391 17.3842 77.2241 18.032 68.5287 10.8603C50.3707 -4.1158 39.1178 -3.11585 21.4713 10.8603C13.4956 17.1771 4.08046 16.7175 0.5 16.8842Z" fill="white" fill-opacity="0.08"/>
<path d="M89.5 16.8842V82.8842H178.5V16.8842C171.339 17.3842 166.224 18.032 157.529 10.8603C139.371 -4.1158 128.118 -3.11585 110.471 10.8603C102.496 17.1771 93.0805 16.7175 89.5 16.8842Z" fill="white" fill-opacity="0.08"/>
<path d="M178.5 16.8842V82.8842H267.5V16.8842C260.339 17.3842 255.224 18.032 246.529 10.8603C228.371 -4.1158 217.118 -3.11585 199.471 10.8603C191.496 17.1771 182.08 16.7175 178.5 16.8842Z" fill="white" fill-opacity="0.08"/>
<path d="M267.5 16.8842V82.8842H356.5V16.8842C349.339 17.3842 344.224 18.032 335.529 10.8603C317.371 -4.1158 306.118 -3.11585 288.471 10.8603C280.496 17.1771 271.08 16.7175 267.5 16.8842Z" fill="white" fill-opacity="0.08"/>
<path d="M115.52 35.4961H116.375C116.375 36.1094 116.199 36.5703 115.848 36.8789C115.5 37.1836 115.027 37.3359 114.43 37.3359C114.016 37.3359 113.656 37.2402 113.352 37.0488C113.051 36.8574 112.816 36.5918 112.648 36.252C112.484 35.9121 112.402 35.5176 112.402 35.0684V34.3945C112.402 33.9453 112.484 33.5508 112.648 33.2109C112.816 32.8711 113.051 32.6055 113.352 32.4141C113.656 32.2227 114.016 32.127 114.43 32.127C115.027 32.127 115.502 32.2793 115.854 32.584C116.205 32.8887 116.381 33.3477 116.381 33.9609H115.525C115.525 33.5742 115.432 33.2969 115.244 33.1289C115.061 32.9609 114.789 32.877 114.43 32.877C114.172 32.877 113.955 32.9414 113.779 33.0703C113.604 33.1992 113.471 33.3789 113.381 33.6094C113.291 33.8359 113.246 34.0957 113.246 34.3887V35.0684C113.246 35.3652 113.291 35.6289 113.381 35.8594C113.471 36.0859 113.604 36.2637 113.779 36.3926C113.955 36.5215 114.172 36.5859 114.43 36.5859C114.789 36.5859 115.061 36.502 115.244 36.334C115.428 36.166 115.52 35.8867 115.52 35.4961ZM111.025 34.7285C111.025 35.248 111.115 35.7324 111.295 36.1816C111.475 36.6309 111.725 37.0234 112.045 37.3594C112.365 37.6953 112.736 37.957 113.158 38.1445C113.58 38.332 114.031 38.4258 114.512 38.4258C114.992 38.4258 115.441 38.332 115.859 38.1445C116.281 37.957 116.65 37.6953 116.967 37.3594C117.287 37.0234 117.537 36.6309 117.717 36.1816C117.896 35.7324 117.986 35.248 117.986 34.7285C117.986 34.2051 117.896 33.7207 117.717 33.2754C117.537 32.8301 117.287 32.4414 116.967 32.1094C116.65 31.7734 116.281 31.5137 115.859 31.3301C115.441 31.1426 114.992 31.0488 114.512 31.0488C114.031 31.0488 113.58 31.1426 113.158 31.3301C112.736 31.5137 112.365 31.7734 112.045 32.1094C111.725 32.4414 111.475 32.8301 111.295 33.2754C111.115 33.7207 111.025 34.2051 111.025 34.7285ZM110.352 34.7285C110.352 34.1074 110.459 33.5312 110.674 33C110.889 32.4688 111.188 32.0059 111.57 31.6113C111.953 31.2129 112.395 30.9043 112.895 30.6855C113.398 30.4629 113.938 30.3516 114.512 30.3516C115.086 30.3516 115.623 30.4629 116.123 30.6855C116.627 30.9043 117.068 31.2129 117.447 31.6113C117.83 32.0059 118.129 32.4688 118.344 33C118.559 33.5312 118.666 34.1074 118.666 34.7285C118.666 35.3496 118.559 35.9258 118.344 36.457C118.129 36.9883 117.83 37.4551 117.447 37.8574C117.068 38.2559 116.627 38.5664 116.123 38.7891C115.623 39.0117 115.086 39.123 114.512 39.123C113.938 39.123 113.398 39.0117 112.895 38.7891C112.395 38.5664 111.953 38.2559 111.57 37.8574C111.188 37.4551 110.889 36.9883 110.674 36.457C110.459 35.9258 110.352 35.3496 110.352 34.7285ZM128.521 38.1094V39H122.938V38.2207L125.732 35.1094C126.076 34.7266 126.342 34.4023 126.529 34.1367C126.721 33.8672 126.854 33.627 126.928 33.416C127.006 33.2012 127.045 32.9824 127.045 32.7598C127.045 32.4785 126.986 32.2246 126.869 31.998C126.756 31.7676 126.588 31.584 126.365 31.4473C126.143 31.3105 125.873 31.2422 125.557 31.2422C125.178 31.2422 124.861 31.3164 124.607 31.4648C124.357 31.6094 124.17 31.8125 124.045 32.0742C123.92 32.3359 123.857 32.6367 123.857 32.9766H122.773C122.773 32.4961 122.879 32.0566 123.09 31.6582C123.301 31.2598 123.613 30.9434 124.027 30.709C124.441 30.4707 124.951 30.3516 125.557 30.3516C126.096 30.3516 126.557 30.4473 126.939 30.6387C127.322 30.8262 127.615 31.0918 127.818 31.4355C128.025 31.7754 128.129 32.1738 128.129 32.6309C128.129 32.8809 128.086 33.1348 128 33.3926C127.918 33.6465 127.803 33.9004 127.654 34.1543C127.51 34.4082 127.34 34.6582 127.145 34.9043C126.953 35.1504 126.748 35.3926 126.529 35.6309L124.244 38.1094H128.521ZM135.037 34.0547V35.3555C135.037 36.0547 134.975 36.6445 134.85 37.125C134.725 37.6055 134.545 37.9922 134.311 38.2852C134.076 38.5781 133.793 38.791 133.461 38.9238C133.133 39.0527 132.762 39.1172 132.348 39.1172C132.02 39.1172 131.717 39.0762 131.439 38.9941C131.162 38.9121 130.912 38.7812 130.689 38.6016C130.471 38.418 130.283 38.1797 130.127 37.8867C129.971 37.5938 129.852 37.2383 129.77 36.8203C129.688 36.4023 129.646 35.9141 129.646 35.3555V34.0547C129.646 33.3555 129.709 32.7695 129.834 32.2969C129.963 31.8242 130.145 31.4453 130.379 31.1602C130.613 30.8711 130.895 30.6641 131.223 30.5391C131.555 30.4141 131.926 30.3516 132.336 30.3516C132.668 30.3516 132.973 30.3926 133.25 30.4746C133.531 30.5527 133.781 30.6797 134 30.8555C134.219 31.0273 134.404 31.2578 134.557 31.5469C134.713 31.832 134.832 32.1816 134.914 32.5957C134.996 33.0098 135.037 33.4961 135.037 34.0547ZM133.947 35.5312V33.873C133.947 33.4902 133.924 33.1543 133.877 32.8652C133.834 32.5723 133.77 32.3223 133.684 32.1152C133.598 31.9082 133.488 31.7402 133.355 31.6113C133.227 31.4824 133.076 31.3887 132.904 31.3301C132.736 31.2676 132.547 31.2363 132.336 31.2363C132.078 31.2363 131.85 31.2852 131.65 31.3828C131.451 31.4766 131.283 31.627 131.146 31.834C131.014 32.041 130.912 32.3125 130.842 32.6484C130.771 32.9844 130.736 33.3926 130.736 33.873V35.5312C130.736 35.9141 130.758 36.252 130.801 36.5449C130.848 36.8379 130.916 37.0918 131.006 37.3066C131.096 37.5176 131.205 37.6914 131.334 37.8281C131.463 37.9648 131.611 38.0664 131.779 38.1328C131.951 38.1953 132.141 38.2266 132.348 38.2266C132.613 38.2266 132.846 38.1758 133.045 38.0742C133.244 37.9727 133.41 37.8145 133.543 37.5996C133.68 37.3809 133.781 37.1016 133.848 36.7617C133.914 36.418 133.947 36.0078 133.947 35.5312ZM142.021 38.1094V39H136.438V38.2207L139.232 35.1094C139.576 34.7266 139.842 34.4023 140.029 34.1367C140.221 33.8672 140.354 33.627 140.428 33.416C140.506 33.2012 140.545 32.9824 140.545 32.7598C140.545 32.4785 140.486 32.2246 140.369 31.998C140.256 31.7676 140.088 31.584 139.865 31.4473C139.643 31.3105 139.373 31.2422 139.057 31.2422C138.678 31.2422 138.361 31.3164 138.107 31.4648C137.857 31.6094 137.67 31.8125 137.545 32.0742C137.42 32.3359 137.357 32.6367 137.357 32.9766H136.273C136.273 32.4961 136.379 32.0566 136.59 31.6582C136.801 31.2598 137.113 30.9434 137.527 30.709C137.941 30.4707 138.451 30.3516 139.057 30.3516C139.596 30.3516 140.057 30.4473 140.439 30.6387C140.822 30.8262 141.115 31.0918 141.318 31.4355C141.525 31.7754 141.629 32.1738 141.629 32.6309C141.629 32.8809 141.586 33.1348 141.5 33.3926C141.418 33.6465 141.303 33.9004 141.154 34.1543C141.01 34.4082 140.84 34.6582 140.645 34.9043C140.453 35.1504 140.248 35.3926 140.029 35.6309L137.744 38.1094H142.021ZM144.764 34.2012H145.537C145.916 34.2012 146.229 34.1387 146.475 34.0137C146.725 33.8848 146.91 33.7109 147.031 33.4922C147.156 33.2695 147.219 33.0195 147.219 32.7422C147.219 32.4141 147.164 32.1387 147.055 31.916C146.945 31.6934 146.781 31.5254 146.562 31.4121C146.344 31.2988 146.066 31.2422 145.73 31.2422C145.426 31.2422 145.156 31.3027 144.922 31.4238C144.691 31.541 144.51 31.709 144.377 31.9277C144.248 32.1465 144.184 32.4043 144.184 32.7012H143.1C143.1 32.2676 143.209 31.873 143.428 31.5176C143.646 31.1621 143.953 30.8789 144.348 30.668C144.746 30.457 145.207 30.3516 145.73 30.3516C146.246 30.3516 146.697 30.4434 147.084 30.627C147.471 30.8066 147.771 31.0762 147.986 31.4355C148.201 31.791 148.309 32.2344 148.309 32.7656C148.309 32.9805 148.258 33.2109 148.156 33.457C148.059 33.6992 147.904 33.9258 147.693 34.1367C147.486 34.3477 147.217 34.5215 146.885 34.6582C146.553 34.791 146.154 34.8574 145.689 34.8574H144.764V34.2012ZM144.764 35.0918V34.4414H145.689C146.232 34.4414 146.682 34.5059 147.037 34.6348C147.393 34.7637 147.672 34.9355 147.875 35.1504C148.082 35.3652 148.227 35.6016 148.309 35.8594C148.395 36.1133 148.438 36.3672 148.438 36.6211C148.438 37.0195 148.369 37.373 148.232 37.6816C148.1 37.9902 147.91 38.252 147.664 38.4668C147.422 38.6816 147.137 38.8438 146.809 38.9531C146.48 39.0625 146.123 39.1172 145.736 39.1172C145.365 39.1172 145.016 39.0645 144.688 38.959C144.363 38.8535 144.076 38.7012 143.826 38.502C143.576 38.2988 143.381 38.0508 143.24 37.7578C143.1 37.4609 143.029 37.123 143.029 36.7441H144.113C144.113 37.041 144.178 37.3008 144.307 37.5234C144.439 37.7461 144.627 37.9199 144.869 38.0449C145.115 38.166 145.404 38.2266 145.736 38.2266C146.068 38.2266 146.354 38.1699 146.592 38.0566C146.834 37.9395 147.02 37.7637 147.148 37.5293C147.281 37.2949 147.348 37 147.348 36.6445C147.348 36.2891 147.273 35.998 147.125 35.7715C146.977 35.541 146.766 35.3711 146.492 35.2617C146.223 35.1484 145.904 35.0918 145.537 35.0918H144.764ZM156.348 31.2246L153.523 39H152.369L155.621 30.4688H156.365L156.348 31.2246ZM158.715 39L155.885 31.2246L155.867 30.4688H156.611L159.875 39H158.715ZM158.568 35.8418V36.7676H153.775V35.8418H158.568ZM162.031 30V39H160.941V30H162.031ZM164.949 30V39H163.859V30H164.949ZM170.75 33.6562V39H169.666V32.6602H170.721L170.75 33.6562ZM172.73 32.625L172.725 33.6328C172.635 33.6133 172.549 33.6016 172.467 33.5977C172.389 33.5898 172.299 33.5859 172.197 33.5859C171.947 33.5859 171.727 33.625 171.535 33.7031C171.344 33.7812 171.182 33.8906 171.049 34.0312C170.916 34.1719 170.811 34.3398 170.732 34.5352C170.658 34.7266 170.609 34.9375 170.586 35.168L170.281 35.3438C170.281 34.9609 170.318 34.6016 170.393 34.2656C170.471 33.9297 170.59 33.6328 170.75 33.375C170.91 33.1133 171.113 32.9102 171.359 32.7656C171.609 32.6172 171.906 32.543 172.25 32.543C172.328 32.543 172.418 32.5527 172.52 32.5723C172.621 32.5879 172.691 32.6055 172.73 32.625ZM174.91 32.6602V39H173.82V32.6602H174.91ZM173.738 30.9785C173.738 30.8027 173.791 30.6543 173.896 30.5332C174.006 30.4121 174.166 30.3516 174.377 30.3516C174.584 30.3516 174.742 30.4121 174.852 30.5332C174.965 30.6543 175.021 30.8027 175.021 30.9785C175.021 31.1465 174.965 31.291 174.852 31.4121C174.742 31.5293 174.584 31.5879 174.377 31.5879C174.166 31.5879 174.006 31.5293 173.896 31.4121C173.791 31.291 173.738 31.1465 173.738 30.9785ZM180.758 32.6602H181.742V38.8652C181.742 39.4238 181.629 39.9004 181.402 40.2949C181.176 40.6895 180.859 40.9883 180.453 41.1914C180.051 41.3984 179.586 41.502 179.059 41.502C178.84 41.502 178.582 41.4668 178.285 41.3965C177.992 41.3301 177.703 41.2148 177.418 41.0508C177.137 40.8906 176.9 40.6738 176.709 40.4004L177.277 39.7559C177.543 40.0762 177.82 40.2988 178.109 40.4238C178.402 40.5488 178.691 40.6113 178.977 40.6113C179.32 40.6113 179.617 40.5469 179.867 40.418C180.117 40.2891 180.311 40.0977 180.447 39.8438C180.588 39.5938 180.658 39.2852 180.658 38.918V34.0547L180.758 32.6602ZM176.393 35.9004V35.7773C176.393 35.293 176.449 34.8535 176.562 34.459C176.68 34.0605 176.846 33.7188 177.061 33.4336C177.279 33.1484 177.543 32.9297 177.852 32.7773C178.16 32.6211 178.508 32.543 178.895 32.543C179.293 32.543 179.641 32.6133 179.938 32.7539C180.238 32.8906 180.492 33.0918 180.699 33.3574C180.91 33.6191 181.076 33.9355 181.197 34.3066C181.318 34.6777 181.402 35.0977 181.449 35.5664V36.1055C181.406 36.5703 181.322 36.9883 181.197 37.3594C181.076 37.7305 180.91 38.0469 180.699 38.3086C180.492 38.5703 180.238 38.7715 179.938 38.9121C179.637 39.0488 179.285 39.1172 178.883 39.1172C178.504 39.1172 178.16 39.0371 177.852 38.877C177.547 38.7168 177.285 38.4922 177.066 38.2031C176.848 37.9141 176.68 37.5742 176.562 37.1836C176.449 36.7891 176.393 36.3613 176.393 35.9004ZM177.477 35.7773V35.9004C177.477 36.2168 177.508 36.5137 177.57 36.791C177.637 37.0684 177.736 37.3125 177.869 37.5234C178.006 37.7344 178.18 37.9004 178.391 38.0215C178.602 38.1387 178.854 38.1973 179.146 38.1973C179.506 38.1973 179.803 38.1211 180.037 37.9688C180.271 37.8164 180.457 37.6152 180.594 37.3652C180.734 37.1152 180.844 36.8438 180.922 36.5508V35.1387C180.879 34.9238 180.812 34.7168 180.723 34.5176C180.637 34.3145 180.523 34.1348 180.383 33.9785C180.246 33.8184 180.076 33.6914 179.873 33.5977C179.67 33.5039 179.432 33.457 179.158 33.457C178.861 33.457 178.605 33.5195 178.391 33.6445C178.18 33.7656 178.006 33.9336 177.869 34.1484C177.736 34.3594 177.637 34.6055 177.57 34.8867C177.508 35.1641 177.477 35.4609 177.477 35.7773ZM184.473 30V39H183.389V30H184.473ZM184.215 35.5898L183.764 35.5723C183.768 35.1387 183.832 34.7383 183.957 34.3711C184.082 34 184.258 33.6777 184.484 33.4043C184.711 33.1309 184.98 32.9199 185.293 32.7715C185.609 32.6191 185.959 32.543 186.342 32.543C186.654 32.543 186.936 32.5859 187.186 32.6719C187.436 32.7539 187.648 32.8867 187.824 33.0703C188.004 33.2539 188.141 33.4922 188.234 33.7852C188.328 34.0742 188.375 34.4277 188.375 34.8457V39H187.285V34.834C187.285 34.502 187.236 34.2363 187.139 34.0371C187.041 33.834 186.898 33.6875 186.711 33.5977C186.523 33.5039 186.293 33.457 186.02 33.457C185.75 33.457 185.504 33.5137 185.281 33.627C185.062 33.7402 184.873 33.8965 184.713 34.0957C184.557 34.2949 184.434 34.5234 184.344 34.7812C184.258 35.0352 184.215 35.3047 184.215 35.5898ZM192.652 32.6602V33.4922H189.225V32.6602H192.652ZM190.385 31.1191H191.469V37.4297C191.469 37.6445 191.502 37.8066 191.568 37.916C191.635 38.0254 191.721 38.0977 191.826 38.1328C191.932 38.168 192.045 38.1855 192.166 38.1855C192.256 38.1855 192.35 38.1777 192.447 38.1621C192.549 38.1426 192.625 38.127 192.676 38.1152L192.682 39C192.596 39.0273 192.482 39.0527 192.342 39.0762C192.205 39.1035 192.039 39.1172 191.844 39.1172C191.578 39.1172 191.334 39.0645 191.111 38.959C190.889 38.8535 190.711 38.6777 190.578 38.4316C190.449 38.1816 190.385 37.8457 190.385 37.4238V31.1191ZM197.615 37.3184C197.615 37.1621 197.58 37.0176 197.51 36.8848C197.443 36.748 197.305 36.625 197.094 36.5156C196.887 36.4023 196.574 36.3047 196.156 36.2227C195.805 36.1484 195.486 36.0605 195.201 35.959C194.92 35.8574 194.68 35.7344 194.48 35.5898C194.285 35.4453 194.135 35.2754 194.029 35.0801C193.924 34.8848 193.871 34.6562 193.871 34.3945C193.871 34.1445 193.926 33.9082 194.035 33.6855C194.148 33.4629 194.307 33.2656 194.51 33.0938C194.717 32.9219 194.965 32.7871 195.254 32.6895C195.543 32.5918 195.865 32.543 196.221 32.543C196.729 32.543 197.162 32.6328 197.521 32.8125C197.881 32.9922 198.156 33.2324 198.348 33.5332C198.539 33.8301 198.635 34.1602 198.635 34.5234H197.551C197.551 34.3477 197.498 34.1777 197.393 34.0137C197.291 33.8457 197.141 33.707 196.941 33.5977C196.746 33.4883 196.506 33.4336 196.221 33.4336C195.92 33.4336 195.676 33.4805 195.488 33.5742C195.305 33.6641 195.17 33.7793 195.084 33.9199C195.002 34.0605 194.961 34.209 194.961 34.3652C194.961 34.4824 194.98 34.5879 195.02 34.6816C195.062 34.7715 195.137 34.8555 195.242 34.9336C195.348 35.0078 195.496 35.0781 195.688 35.1445C195.879 35.2109 196.123 35.2773 196.42 35.3438C196.939 35.4609 197.367 35.6016 197.703 35.7656C198.039 35.9297 198.289 36.1309 198.453 36.3691C198.617 36.6074 198.699 36.8965 198.699 37.2363C198.699 37.5137 198.641 37.7676 198.523 37.998C198.41 38.2285 198.244 38.4277 198.025 38.5957C197.811 38.7598 197.553 38.8887 197.252 38.9824C196.955 39.0723 196.621 39.1172 196.25 39.1172C195.691 39.1172 195.219 39.0176 194.832 38.8184C194.445 38.6191 194.152 38.3613 193.953 38.0449C193.754 37.7285 193.654 37.3945 193.654 37.043H194.744C194.76 37.3398 194.846 37.5762 195.002 37.752C195.158 37.9238 195.35 38.0469 195.576 38.1211C195.803 38.1914 196.027 38.2266 196.25 38.2266C196.547 38.2266 196.795 38.1875 196.994 38.1094C197.197 38.0312 197.352 37.9238 197.457 37.7871C197.562 37.6504 197.615 37.4941 197.615 37.3184ZM204.184 33.6562V39H203.1V32.6602H204.154L204.184 33.6562ZM206.164 32.625L206.158 33.6328C206.068 33.6133 205.982 33.6016 205.9 33.5977C205.822 33.5898 205.732 33.5859 205.631 33.5859C205.381 33.5859 205.16 33.625 204.969 33.7031C204.777 33.7812 204.615 33.8906 204.482 34.0312C204.35 34.1719 204.244 34.3398 204.166 34.5352C204.092 34.7266 204.043 34.9375 204.02 35.168L203.715 35.3438C203.715 34.9609 203.752 34.6016 203.826 34.2656C203.904 33.9297 204.023 33.6328 204.184 33.375C204.344 33.1133 204.547 32.9102 204.793 32.7656C205.043 32.6172 205.34 32.543 205.684 32.543C205.762 32.543 205.852 32.5527 205.953 32.5723C206.055 32.5879 206.125 32.6055 206.164 32.625ZM209.68 39.1172C209.238 39.1172 208.838 39.043 208.479 38.8945C208.123 38.7422 207.816 38.5293 207.559 38.2559C207.305 37.9824 207.109 37.6582 206.973 37.2832C206.836 36.9082 206.768 36.498 206.768 36.0527V35.8066C206.768 35.291 206.844 34.832 206.996 34.4297C207.148 34.0234 207.355 33.6797 207.617 33.3984C207.879 33.1172 208.176 32.9043 208.508 32.7598C208.84 32.6152 209.184 32.543 209.539 32.543C209.992 32.543 210.383 32.6211 210.711 32.7773C211.043 32.9336 211.314 33.1523 211.525 33.4336C211.736 33.7109 211.893 34.0391 211.994 34.418C212.096 34.793 212.146 35.2031 212.146 35.6484V36.1348H207.412V35.25H211.062V35.168C211.047 34.8867 210.988 34.6133 210.887 34.3477C210.789 34.082 210.633 33.8633 210.418 33.6914C210.203 33.5195 209.91 33.4336 209.539 33.4336C209.293 33.4336 209.066 33.4863 208.859 33.5918C208.652 33.6934 208.475 33.8457 208.326 34.0488C208.178 34.252 208.062 34.5 207.98 34.793C207.898 35.0859 207.857 35.4238 207.857 35.8066V36.0527C207.857 36.3535 207.898 36.6367 207.98 36.9023C208.066 37.1641 208.189 37.3945 208.35 37.5938C208.514 37.793 208.711 37.9492 208.941 38.0625C209.176 38.1758 209.441 38.2324 209.738 38.2324C210.121 38.2324 210.445 38.1543 210.711 37.998C210.977 37.8418 211.209 37.6328 211.408 37.3711L212.064 37.8926C211.928 38.0996 211.754 38.2969 211.543 38.4844C211.332 38.6719 211.072 38.8242 210.764 38.9414C210.459 39.0586 210.098 39.1172 209.68 39.1172ZM217.104 37.3184C217.104 37.1621 217.068 37.0176 216.998 36.8848C216.932 36.748 216.793 36.625 216.582 36.5156C216.375 36.4023 216.062 36.3047 215.645 36.2227C215.293 36.1484 214.975 36.0605 214.689 35.959C214.408 35.8574 214.168 35.7344 213.969 35.5898C213.773 35.4453 213.623 35.2754 213.518 35.0801C213.412 34.8848 213.359 34.6562 213.359 34.3945C213.359 34.1445 213.414 33.9082 213.523 33.6855C213.637 33.4629 213.795 33.2656 213.998 33.0938C214.205 32.9219 214.453 32.7871 214.742 32.6895C215.031 32.5918 215.354 32.543 215.709 32.543C216.217 32.543 216.65 32.6328 217.01 32.8125C217.369 32.9922 217.645 33.2324 217.836 33.5332C218.027 33.8301 218.123 34.1602 218.123 34.5234H217.039C217.039 34.3477 216.986 34.1777 216.881 34.0137C216.779 33.8457 216.629 33.707 216.43 33.5977C216.234 33.4883 215.994 33.4336 215.709 33.4336C215.408 33.4336 215.164 33.4805 214.977 33.5742C214.793 33.6641 214.658 33.7793 214.572 33.9199C214.49 34.0605 214.449 34.209 214.449 34.3652C214.449 34.4824 214.469 34.5879 214.508 34.6816C214.551 34.7715 214.625 34.8555 214.73 34.9336C214.836 35.0078 214.984 35.0781 215.176 35.1445C215.367 35.2109 215.611 35.2773 215.908 35.3438C216.428 35.4609 216.855 35.6016 217.191 35.7656C217.527 35.9297 217.777 36.1309 217.941 36.3691C218.105 36.6074 218.188 36.8965 218.188 37.2363C218.188 37.5137 218.129 37.7676 218.012 37.998C217.898 38.2285 217.732 38.4277 217.514 38.5957C217.299 38.7598 217.041 38.8887 216.74 38.9824C216.443 39.0723 216.109 39.1172 215.738 39.1172C215.18 39.1172 214.707 39.0176 214.32 38.8184C213.934 38.6191 213.641 38.3613 213.441 38.0449C213.242 37.7285 213.143 37.3945 213.143 37.043H214.232C214.248 37.3398 214.334 37.5762 214.49 37.752C214.646 37.9238 214.838 38.0469 215.064 38.1211C215.291 38.1914 215.516 38.2266 215.738 38.2266C216.035 38.2266 216.283 38.1875 216.482 38.1094C216.686 38.0312 216.84 37.9238 216.945 37.7871C217.051 37.6504 217.104 37.4941 217.104 37.3184ZM222.242 39.1172C221.801 39.1172 221.4 39.043 221.041 38.8945C220.686 38.7422 220.379 38.5293 220.121 38.2559C219.867 37.9824 219.672 37.6582 219.535 37.2832C219.398 36.9082 219.33 36.498 219.33 36.0527V35.8066C219.33 35.291 219.406 34.832 219.559 34.4297C219.711 34.0234 219.918 33.6797 220.18 33.3984C220.441 33.1172 220.738 32.9043 221.07 32.7598C221.402 32.6152 221.746 32.543 222.102 32.543C222.555 32.543 222.945 32.6211 223.273 32.7773C223.605 32.9336 223.877 33.1523 224.088 33.4336C224.299 33.7109 224.455 34.0391 224.557 34.418C224.658 34.793 224.709 35.2031 224.709 35.6484V36.1348H219.975V35.25H223.625V35.168C223.609 34.8867 223.551 34.6133 223.449 34.3477C223.352 34.082 223.195 33.8633 222.98 33.6914C222.766 33.5195 222.473 33.4336 222.102 33.4336C221.855 33.4336 221.629 33.4863 221.422 33.5918C221.215 33.6934 221.037 33.8457 220.889 34.0488C220.74 34.252 220.625 34.5 220.543 34.793C220.461 35.0859 220.42 35.4238 220.42 35.8066V36.0527C220.42 36.3535 220.461 36.6367 220.543 36.9023C220.629 37.1641 220.752 37.3945 220.912 37.5938C221.076 37.793 221.273 37.9492 221.504 38.0625C221.738 38.1758 222.004 38.2324 222.301 38.2324C222.684 38.2324 223.008 38.1543 223.273 37.998C223.539 37.8418 223.771 37.6328 223.971 37.3711L224.627 37.8926C224.49 38.0996 224.316 38.2969 224.105 38.4844C223.895 38.6719 223.635 38.8242 223.326 38.9414C223.021 39.0586 222.66 39.1172 222.242 39.1172ZM227.059 33.6562V39H225.975V32.6602H227.029L227.059 33.6562ZM229.039 32.625L229.033 33.6328C228.943 33.6133 228.857 33.6016 228.775 33.5977C228.697 33.5898 228.607 33.5859 228.506 33.5859C228.256 33.5859 228.035 33.625 227.844 33.7031C227.652 33.7812 227.49 33.8906 227.357 34.0312C227.225 34.1719 227.119 34.3398 227.041 34.5352C226.967 34.7266 226.918 34.9375 226.895 35.168L226.59 35.3438C226.59 34.9609 226.627 34.6016 226.701 34.2656C226.779 33.9297 226.898 33.6328 227.059 33.375C227.219 33.1133 227.422 32.9102 227.668 32.7656C227.918 32.6172 228.215 32.543 228.559 32.543C228.637 32.543 228.727 32.5527 228.828 32.5723C228.93 32.5879 229 32.6055 229.039 32.625ZM232.074 38.0215L233.809 32.6602H234.916L232.637 39H231.91L232.074 38.0215ZM230.627 32.6602L232.414 38.0508L232.537 39H231.811L229.514 32.6602H230.627ZM238.508 39.1172C238.066 39.1172 237.666 39.043 237.307 38.8945C236.951 38.7422 236.645 38.5293 236.387 38.2559C236.133 37.9824 235.938 37.6582 235.801 37.2832C235.664 36.9082 235.596 36.498 235.596 36.0527V35.8066C235.596 35.291 235.672 34.832 235.824 34.4297C235.977 34.0234 236.184 33.6797 236.445 33.3984C236.707 33.1172 237.004 32.9043 237.336 32.7598C237.668 32.6152 238.012 32.543 238.367 32.543C238.82 32.543 239.211 32.6211 239.539 32.7773C239.871 32.9336 240.143 33.1523 240.354 33.4336C240.564 33.7109 240.721 34.0391 240.822 34.418C240.924 34.793 240.975 35.2031 240.975 35.6484V36.1348H236.24V35.25H239.891V35.168C239.875 34.8867 239.816 34.6133 239.715 34.3477C239.617 34.082 239.461 33.8633 239.246 33.6914C239.031 33.5195 238.738 33.4336 238.367 33.4336C238.121 33.4336 237.895 33.4863 237.688 33.5918C237.48 33.6934 237.303 33.8457 237.154 34.0488C237.006 34.252 236.891 34.5 236.809 34.793C236.727 35.0859 236.686 35.4238 236.686 35.8066V36.0527C236.686 36.3535 236.727 36.6367 236.809 36.9023C236.895 37.1641 237.018 37.3945 237.178 37.5938C237.342 37.793 237.539 37.9492 237.77 38.0625C238.004 38.1758 238.27 38.2324 238.566 38.2324C238.949 38.2324 239.273 38.1543 239.539 37.998C239.805 37.8418 240.037 37.6328 240.236 37.3711L240.893 37.8926C240.756 38.0996 240.582 38.2969 240.371 38.4844C240.16 38.6719 239.9 38.8242 239.592 38.9414C239.287 39.0586 238.926 39.1172 238.508 39.1172ZM246.236 37.7695V30H247.326V39H246.33L246.236 37.7695ZM241.971 35.9004V35.7773C241.971 35.293 242.029 34.8535 242.146 34.459C242.268 34.0605 242.438 33.7188 242.656 33.4336C242.879 33.1484 243.143 32.9297 243.447 32.7773C243.756 32.6211 244.1 32.543 244.479 32.543C244.877 32.543 245.225 32.6133 245.521 32.7539C245.822 32.8906 246.076 33.0918 246.283 33.3574C246.494 33.6191 246.66 33.9355 246.781 34.3066C246.902 34.6777 246.986 35.0977 247.033 35.5664V36.1055C246.99 36.5703 246.906 36.9883 246.781 37.3594C246.66 37.7305 246.494 38.0469 246.283 38.3086C246.076 38.5703 245.822 38.7715 245.521 38.9121C245.221 39.0488 244.869 39.1172 244.467 39.1172C244.096 39.1172 243.756 39.0371 243.447 38.877C243.143 38.7168 242.879 38.4922 242.656 38.2031C242.438 37.9141 242.268 37.5742 242.146 37.1836C242.029 36.7891 241.971 36.3613 241.971 35.9004ZM243.061 35.7773V35.9004C243.061 36.2168 243.092 36.5137 243.154 36.791C243.221 37.0684 243.322 37.3125 243.459 37.5234C243.596 37.7344 243.77 37.9004 243.98 38.0215C244.191 38.1387 244.443 38.1973 244.736 38.1973C245.096 38.1973 245.391 38.1211 245.621 37.9688C245.855 37.8164 246.043 37.6152 246.184 37.3652C246.324 37.1152 246.434 36.8438 246.512 36.5508V35.1387C246.465 34.9238 246.396 34.7168 246.307 34.5176C246.221 34.3145 246.107 34.1348 245.967 33.9785C245.83 33.8184 245.66 33.6914 245.457 33.5977C245.258 33.5039 245.021 33.457 244.748 33.457C244.451 33.457 244.195 33.5195 243.98 33.6445C243.77 33.7656 243.596 33.9336 243.459 34.1484C243.322 34.3594 243.221 34.6055 243.154 34.8867C243.092 35.1641 243.061 35.4609 243.061 35.7773Z" fill="white"/>
</svg>
