<svg width="145" height="48" viewBox="0 0 145 48" fill="none" xmlns="http://www.w3.org/2000/svg">
<path d="M12 19.8806V24.2579C13.507 24.2569 14.9994 24.5508 16.3918 25.1229C17.7842 25.695 19.0494 26.5339 20.1148 27.5918C21.1799 28.6493 22.0247 29.9048 22.6007 31.2866C23.1767 32.6683 23.4726 34.1492 23.4716 35.6446H27.8785C27.8745 31.4655 26.2004 27.4586 23.2236 24.5032C20.2467 21.5479 16.2103 19.8854 12 19.8806H12Z" fill="#461B09"/>
<path d="M34.0386 12.0002H27.0547C30.5877 14.2226 33.5813 17.1936 35.8208 20.7002V13.768C35.8204 13.299 35.6325 12.8494 35.2983 12.5179C34.9642 12.1864 34.511 12.0002 34.0386 12.0002Z" fill="#461B09"/>
<path d="M16.3881 12H12V15.9412C17.263 15.9466 22.3089 18.0242 26.0305 21.7181C29.752 25.412 31.8453 30.4204 31.8509 35.6445H35.8209V31.2889C34.9233 26.5018 32.5863 22.0968 29.1175 18.6537C25.6487 15.2107 21.2108 12.8909 16.3881 12Z" fill="#461B09"/>
<path d="M46.6225 14.6028H43.8254V28.5966H46.6225V14.6028Z" fill="#461B09"/>
<path d="M56.9067 20.6659C56.4411 20.2458 55.8961 19.9215 55.3032 19.712C54.0297 19.2682 52.6419 19.2682 51.3684 19.712C50.7753 19.9214 50.23 20.2456 49.7642 20.6659C49.3074 21.0839 48.9425 21.591 48.6923 22.1555C48.4337 22.7713 48.3005 23.4319 48.3005 24.099C48.3005 24.7662 48.4337 25.4267 48.6923 26.0425C48.9416 26.6086 49.3066 27.1172 49.7642 27.5359C50.2292 27.9565 50.7742 28.2806 51.3671 28.4891C52.6405 28.9338 54.0286 28.9338 55.302 28.4891C55.8951 28.2806 56.4403 27.9565 56.9055 27.5359C57.3629 27.117 57.7279 26.6085 57.9774 26.0425C58.236 25.4267 58.3692 24.7662 58.3692 24.099C58.3692 23.4319 58.236 22.7713 57.9774 22.1555C57.7274 21.5912 57.363 21.0842 56.9067 20.6659ZM54.986 25.747C54.5331 26.152 53.9451 26.3761 53.3355 26.3761C52.7259 26.3761 52.1379 26.152 51.685 25.747C51.3043 25.2805 51.0965 24.6984 51.0965 24.0981C51.0965 23.4978 51.3043 22.9157 51.685 22.4492C52.1379 22.0442 52.7259 21.8201 53.3355 21.8201C53.9451 21.8201 54.5331 22.0442 54.986 22.4492C55.3667 22.9157 55.5744 23.4978 55.5744 24.0981C55.5744 24.6984 55.3667 25.2805 54.986 25.747Z" fill="#461B09"/>
<path d="M66.9486 20.7861H66.9135C66.7841 20.6058 66.6339 20.4412 66.4659 20.2958C66.2624 20.117 66.037 19.9644 65.7951 19.8415C65.1838 19.5302 64.5051 19.3715 63.818 19.3792C63.2159 19.3688 62.6204 19.5055 62.0841 19.7774C61.5844 20.0343 61.1431 20.3903 60.7877 20.8234C60.4253 21.2698 60.1473 21.7776 59.9672 22.3223C59.7756 22.8835 59.678 23.472 59.6782 24.0646C59.6711 24.7006 59.7785 25.3327 59.9954 25.9312C60.1919 26.4774 60.4981 26.9783 60.8956 27.4034C61.2915 27.8194 61.7721 28.1471 62.3054 28.3647C62.8852 28.5993 63.5066 28.7157 64.1327 28.707C64.5958 28.699 65.0536 28.6082 65.4842 28.4388C65.9671 28.257 66.3854 27.9382 66.6872 27.5222H66.7248V28.3934C66.7353 28.6839 66.687 28.9736 66.5829 29.2454C66.4788 29.5171 66.3209 29.7654 66.1186 29.9757C65.8619 30.2011 65.5617 30.3725 65.2363 30.4795C64.9109 30.5864 64.567 30.6267 64.2255 30.5979C63.6839 30.6039 63.1472 30.4966 62.6502 30.283C62.1557 30.0637 61.6943 29.7772 61.2792 29.4318L59.7315 31.7247C60.3641 32.2305 61.1036 32.588 61.8948 32.7707C62.6777 32.9494 63.4785 33.0393 64.2819 33.0389C66.0471 33.0389 67.3617 32.5977 68.2255 31.7154C69.0893 30.8331 69.5214 29.5405 69.5219 27.8377V19.6014H66.9517L66.9486 20.7861ZM66.7806 24.8859C66.6702 25.1493 66.5085 25.3884 66.3048 25.5896C66.0974 25.7948 65.8542 25.9609 65.587 26.0799C65.3096 26.2022 65.0095 26.2654 64.706 26.2654C64.4024 26.2654 64.1023 26.2022 63.8249 26.0799C63.5613 25.9592 63.3213 25.7932 63.1159 25.5896C62.9113 25.3867 62.749 25.1458 62.6382 24.8806C62.5274 24.6154 62.4704 24.3311 62.4704 24.044C62.4704 23.7569 62.5274 23.4727 62.6382 23.2075C62.749 22.9422 62.9113 22.7013 63.1159 22.4984C63.3214 22.2948 63.5614 22.1286 63.8249 22.0075C64.1024 21.8856 64.4025 21.8227 64.706 21.8227C65.0094 21.8227 65.3095 21.8856 65.587 22.0075C65.8541 22.127 66.0972 22.2933 66.3048 22.4984C66.6125 22.8054 66.8218 23.1959 66.9065 23.6207C66.9912 24.0455 66.9474 24.4857 66.7806 24.8859Z" fill="#461B09"/>
<path d="M80.03 20.6659C79.5644 20.2458 79.0193 19.9215 78.4265 19.712C77.153 19.2682 75.7652 19.2682 74.4917 19.712C73.8986 19.9214 73.3533 20.2456 72.8875 20.6659C72.4307 21.0839 72.0658 21.591 71.8156 22.1555C71.557 22.7713 71.4238 23.4319 71.4238 24.099C71.4238 24.7662 71.557 25.4267 71.8156 26.0425C72.0649 26.6086 72.4299 27.1172 72.8875 27.5359C73.3529 27.9566 73.8983 28.2807 74.4917 28.4891C75.765 28.9338 77.1532 28.9338 78.4265 28.4891C79.0197 28.2806 79.5648 27.9565 80.03 27.5359C80.4877 27.1172 80.8527 26.6086 81.102 26.0425C81.3606 25.4267 81.4937 24.7662 81.4937 24.099C81.4937 23.4319 81.3606 22.7713 81.102 22.1555C80.8518 21.591 80.4868 21.0839 80.03 20.6659ZM78.1093 25.747C77.6564 26.152 77.0684 26.3761 76.4588 26.3761C75.8492 26.3761 75.2612 26.152 74.8082 25.747C74.4276 25.2805 74.2198 24.6984 74.2198 24.0981C74.2198 23.4978 74.4276 22.9157 74.8082 22.4492C75.2612 22.0442 75.8492 21.8201 76.4588 21.8201C77.0684 21.8201 77.6564 22.0442 78.1093 22.4492C78.49 22.9157 78.6977 23.4978 78.6977 24.0981C78.6977 24.6984 78.49 25.2805 78.1093 25.747Z" fill="#461B09"/>
<path d="M85.2042 19.6636H83.7041V28.5968H85.2042V19.6636Z" fill="#461B09"/>
<path d="M84.4545 15.0825C84.3091 15.0797 84.1646 15.1071 84.0305 15.163C83.8963 15.2188 83.7753 15.3018 83.6753 15.4066C83.5228 15.5593 83.4192 15.7533 83.3776 15.9643C83.336 16.1753 83.3583 16.3938 83.4415 16.5922C83.5248 16.7907 83.6655 16.9602 83.8457 17.0794C84.0259 17.1987 84.2376 17.2623 84.4542 17.2623C84.6708 17.2623 84.8825 17.1987 85.0627 17.0794C85.2429 16.9602 85.3835 16.7907 85.4668 16.5922C85.5501 16.3938 85.5724 16.1753 85.5308 15.9643C85.4892 15.7533 85.3856 15.5593 85.2331 15.4066C85.1332 15.3017 85.0124 15.2187 84.8783 15.1629C84.7442 15.107 84.5999 15.0797 84.4545 15.0825Z" fill="#461B09"/>
<path d="M96.3003 20.7734C95.8783 20.3458 95.3707 20.0107 94.8102 19.7897C94.1951 19.549 93.5387 19.4292 92.8776 19.4369C92.2548 19.4298 91.6389 19.5672 91.0791 19.8382C90.5278 20.1104 90.0397 20.4937 89.6461 20.9638H89.606V19.6634H88.1078V32.9491H89.606V27.0131H89.6442C89.9627 27.5575 90.4268 28.0037 90.9851 28.3023C91.6333 28.6625 92.3669 28.8439 93.1095 28.8275C93.7176 28.8313 94.3199 28.711 94.8792 28.474C95.4192 28.2467 95.9066 27.9121 96.3116 27.4909C96.7228 27.0605 97.0461 26.555 97.2638 26.0026C97.7252 24.7973 97.7252 23.4658 97.2638 22.2605C97.0442 21.7068 96.7168 21.2014 96.3003 20.7734ZM95.7712 25.4401C95.6314 25.829 95.4127 26.1854 95.1285 26.4871C94.8444 26.7888 94.501 27.0294 94.1194 27.1941C93.2758 27.5371 92.3302 27.5371 91.4866 27.1941C91.1045 27.0294 90.7606 26.7886 90.4761 26.4866C90.1917 26.1845 89.9727 25.8277 89.8329 25.4382C89.5385 24.5916 89.5385 23.6715 89.8329 22.8249C89.9727 22.4354 90.1917 22.0786 90.4761 21.7765C90.7606 21.4745 91.1045 21.2336 91.4866 21.069C92.3302 20.726 93.2758 20.726 94.1194 21.069C94.5015 21.2336 94.8454 21.4745 95.1299 21.7765C95.4144 22.0786 95.6333 22.4354 95.7731 22.8249C96.0676 23.6715 96.0676 24.5916 95.7731 25.4382L95.7712 25.4401Z" fill="#461B09"/>
<path d="M105.166 24.1336C104.881 23.922 104.564 23.7577 104.226 23.647C103.855 23.5228 103.476 23.4238 103.091 23.3508C102.803 23.3019 102.517 23.2384 102.235 23.1604C101.984 23.0927 101.74 23.0032 101.505 22.8929C101.316 22.808 101.146 22.6881 101.003 22.5395C100.882 22.4065 100.816 22.2323 100.821 22.0529C100.818 21.8592 100.875 21.6694 100.984 21.5091C101.092 21.3507 101.233 21.2172 101.397 21.1177C101.573 21.0121 101.765 20.9348 101.965 20.8887C102.17 20.8383 102.381 20.8126 102.592 20.8122C102.994 20.7997 103.391 20.9026 103.736 21.1083C104.047 21.3027 104.308 21.5676 104.496 21.8811L105.746 21.0604C105.469 20.518 105.019 20.0816 104.466 19.8191C103.91 19.5623 103.302 19.432 102.688 19.4377C102.272 19.4367 101.857 19.4945 101.458 19.6094C101.074 19.7179 100.71 19.8859 100.38 20.1072C100.064 20.319 99.8008 20.5997 99.6108 20.9279C99.414 21.2774 99.3145 21.6725 99.3224 22.0728C99.3068 22.4646 99.3963 22.8535 99.5819 23.1996C99.7513 23.4891 99.9877 23.7344 100.271 23.9152C100.585 24.1113 100.925 24.2624 101.281 24.3638C101.666 24.4783 102.07 24.5801 102.492 24.6693C102.737 24.7203 102.974 24.7776 103.204 24.8411C103.42 24.8986 103.627 24.9853 103.82 25.0987C103.989 25.1985 104.136 25.3317 104.252 25.49C104.368 25.6654 104.425 25.8724 104.416 26.0818C104.423 26.3017 104.362 26.5187 104.243 26.704C104.123 26.8796 103.966 27.0264 103.781 27.1333C103.582 27.2513 103.364 27.3354 103.137 27.3822C102.906 27.4325 102.671 27.4581 102.435 27.4587C101.967 27.4767 101.504 27.3642 101.098 27.1339C100.725 26.898 100.396 26.5985 100.127 26.2491L98.9363 27.1657C99.305 27.734 99.8284 28.1871 100.446 28.4723C101.079 28.7216 101.755 28.8418 102.436 28.8258C102.879 28.8261 103.321 28.775 103.752 28.6733C104.163 28.5792 104.553 28.4145 104.907 28.1867C105.244 27.9645 105.523 27.6659 105.721 27.3156C105.937 26.9181 106.043 26.4713 106.03 26.0202C106.042 25.6323 105.963 25.2469 105.799 24.8946C105.65 24.5959 105.433 24.3354 105.166 24.1336Z" fill="#461B09"/>
<path d="M115.973 26.4782V19.6636H114.473V24.0191C114.478 24.4887 114.423 24.957 114.309 25.4129C114.213 25.8037 114.043 26.1728 113.808 26.5006C113.585 26.8052 113.287 27.0483 112.942 27.2068C112.546 27.3814 112.116 27.4664 111.683 27.4557C111.39 27.4792 111.095 27.4325 110.824 27.3196C110.553 27.2066 110.313 27.0307 110.125 26.8067C109.765 26.2863 109.588 25.662 109.624 25.0315V19.6636H108.124V25.1802C108.119 25.6803 108.187 26.1784 108.325 26.6592C108.446 27.0855 108.66 27.4801 108.952 27.8147C109.245 28.1418 109.609 28.3974 110.018 28.5613C110.505 28.7499 111.024 28.8409 111.547 28.8289C111.898 28.8317 112.248 28.7833 112.586 28.6852C112.89 28.5972 113.181 28.4689 113.451 28.3037C113.696 28.1537 113.919 27.9707 114.114 27.7599C114.289 27.5724 114.435 27.3599 114.547 27.1296H114.585C114.585 27.3847 114.592 27.6336 114.605 27.8763C114.618 28.119 114.624 28.3608 114.623 28.6018H116.047C116.047 28.3085 116.034 27.9839 116.008 27.628C115.982 27.2721 115.971 26.8888 115.973 26.4782Z" fill="#461B09"/>
<path d="M132.185 21.6204C132.085 21.1881 131.888 20.784 131.608 20.4382C131.326 20.1036 130.961 19.8465 130.55 19.6915C130.033 19.5061 129.485 19.4187 128.935 19.4339C128.338 19.408 127.747 19.5646 127.242 19.8825C126.775 20.2156 126.382 20.6415 126.089 21.1332C126.012 20.9801 125.913 20.8051 125.791 20.608C125.655 20.3953 125.482 20.2079 125.281 20.0543C125.034 19.8678 124.759 19.7209 124.466 19.6187C124.073 19.4874 123.659 19.4259 123.244 19.437C122.893 19.4342 122.543 19.4826 122.206 19.5808C121.902 19.6688 121.61 19.7971 121.34 19.9622C121.095 20.1124 120.872 20.2954 120.677 20.506C120.502 20.6935 120.356 20.906 120.245 21.1363H120.206C120.206 20.8812 120.2 20.6336 120.187 20.3896C120.175 20.1457 120.168 19.9062 120.168 19.6641H118.745C118.745 19.9574 118.757 20.282 118.783 20.6379C118.808 20.9938 118.821 21.3757 118.821 21.7834V28.5974H120.322V24.2456C120.318 23.7758 120.373 23.3073 120.486 22.8512C120.582 22.4602 120.752 22.091 120.988 21.7635C121.211 21.4587 121.508 21.2156 121.853 21.0573C122.249 20.8826 122.679 20.7976 123.113 20.8084C123.369 20.7866 123.627 20.8327 123.86 20.942C124.093 21.0513 124.293 21.2199 124.439 21.4306C124.761 22.0853 124.901 22.8136 124.843 23.54V28.5986H126.34V23.4429C126.336 23.0755 126.398 22.7103 126.523 22.3646C126.635 22.0581 126.805 21.7762 127.025 21.5345C127.233 21.3083 127.484 21.1265 127.765 21C128.049 20.8725 128.358 20.8073 128.669 20.809C129.04 20.7957 129.408 20.8674 129.746 21.0187C130.012 21.1465 130.243 21.3368 130.419 21.5731C130.588 21.8071 130.706 22.0735 130.765 22.3552C130.83 22.6501 130.862 22.9509 130.861 23.2525V28.5974H132.358V23.176C132.364 22.6524 132.306 22.1301 132.185 21.6204Z" fill="#461B09"/>
</svg>
