<svg width="20" height="20" viewBox="0 0 20 20" fill="none" xmlns="http://www.w3.org/2000/svg">
<g id="Menu">
<path id="Vector" d="M17.9279 18.3671H2.07208C1.54355 18.3671 1.11111 17.9347 1.11111 17.4061C1.11111 16.8776 1.54355 16.4452 2.07208 16.4452H17.9279C18.4565 16.4452 18.8889 16.8776 18.8889 17.4061C18.8889 17.9347 18.4565 18.3671 17.9279 18.3671ZM17.9279 11.0998H2.07208C1.54355 11.0998 1.11111 10.6674 1.11111 10.1389C1.11111 9.61034 1.54355 9.17791 2.07208 9.17791H17.9279C18.4565 9.17791 18.8889 9.61034 18.8889 10.1389C18.8889 10.6674 18.4565 11.0998 17.9279 11.0998ZM17.9279 3.83257H2.07208C1.54355 3.83257 1.11111 3.40013 1.11111 2.87161C1.11111 2.34308 1.54355 1.91064 2.07208 1.91064H17.9279C18.4565 1.91064 18.8889 2.34308 18.8889 2.87161C18.8889 3.40013 18.4565 3.83257 17.9279 3.83257Z" fill="#513FAD"/>
</g>
</svg>
