<svg width="36" height="37" viewBox="0 0 36 37" fill="none" xmlns="http://www.w3.org/2000/svg">
<path fill-rule="evenodd" clip-rule="evenodd" d="M19.6666 14.6556C19.6666 13.7364 18.9191 12.9889 18 12.9889C17.0808 12.9889 16.3333 13.7364 16.3333 14.6556C16.3333 15.5748 17.0808 16.3223 18 16.3223C18.9191 16.3223 19.6666 15.5748 19.6666 14.6556ZM21.3333 14.6556C21.3333 16.4939 19.8383 17.9889 18 17.9889C16.1616 17.9889 14.6666 16.4939 14.6666 14.6556C14.6666 12.8173 16.1616 11.3223 18 11.3223C19.8383 11.3223 21.3333 12.8173 21.3333 14.6556ZM12.1666 25.4889C12.1666 22.2723 14.7841 19.6556 18 19.6556C21.2158 19.6556 23.8333 22.2723 23.8333 25.4889C23.8333 25.9489 23.4608 26.3223 23 26.3223C22.5391 26.3223 22.1666 25.9489 22.1666 25.4889C22.1666 23.1914 20.2975 21.3223 18 21.3223C15.7025 21.3223 13.8333 23.1914 13.8333 25.4889C13.8333 25.9489 13.4608 26.3223 13 26.3223C12.5391 26.3223 12.1666 25.9489 12.1666 25.4889Z" fill="#461B09"/>
<mask id="mask0_1264_838" style="mask-type:luminance" maskUnits="userSpaceOnUse" x="12" y="11" width="12" height="16">
<path fill-rule="evenodd" clip-rule="evenodd" d="M19.6666 14.6556C19.6666 13.7364 18.9191 12.9889 18 12.9889C17.0808 12.9889 16.3333 13.7364 16.3333 14.6556C16.3333 15.5748 17.0808 16.3223 18 16.3223C18.9191 16.3223 19.6666 15.5748 19.6666 14.6556ZM21.3333 14.6556C21.3333 16.4939 19.8383 17.9889 18 17.9889C16.1616 17.9889 14.6666 16.4939 14.6666 14.6556C14.6666 12.8173 16.1616 11.3223 18 11.3223C19.8383 11.3223 21.3333 12.8173 21.3333 14.6556ZM12.1666 25.4889C12.1666 22.2723 14.7841 19.6556 18 19.6556C21.2158 19.6556 23.8333 22.2723 23.8333 25.4889C23.8333 25.9489 23.4608 26.3223 23 26.3223C22.5391 26.3223 22.1666 25.9489 22.1666 25.4889C22.1666 23.1914 20.2975 21.3223 18 21.3223C15.7025 21.3223 13.8333 23.1914 13.8333 25.4889C13.8333 25.9489 13.4608 26.3223 13 26.3223C12.5391 26.3223 12.1666 25.9489 12.1666 25.4889Z" fill="white"/>
</mask>
<g mask="url(#mask0_1264_838)">
<rect x="8" y="8.82227" width="20" height="20" fill="#461B09"/>
</g>
</svg>
