<svg width="18" height="18" viewBox="0 0 18 18" fill="none" xmlns="http://www.w3.org/2000/svg">
<g id="Plus">
<path id="Vector" d="M9.25 16.5C8.81845 16.5 8.47322 16.1548 8.47322 15.7232V10.0268H2.77679C2.34524 10.0268 2 9.68155 2 9.25C2 8.81845 2.34524 8.47321 2.77679 8.47321H8.47322V2.77679C8.47322 2.34524 8.81845 2 9.25 2C9.68155 2 10.0268 2.34524 10.0268 2.77679V8.47321H15.7232C16.1548 8.47321 16.5 8.81845 16.5 9.25C16.5 9.68155 16.1548 10.0268 15.7232 10.0268H10.0268V15.7232C10.0268 16.1548 9.68155 16.5 9.25 16.5Z" fill="#6B56CA"/>
</g>
</svg>
