<svg width="36" height="36" viewBox="0 0 36 36" fill="none" xmlns="http://www.w3.org/2000/svg">
<path fill-rule="evenodd" clip-rule="evenodd" d="M21.6515 19.6667H15.3032L13.939 14.6667H24.1515L21.6515 19.6667ZM25.569 13.79C25.2632 13.295 24.7332 13 24.1515 13H13.4848L12.9707 11.1142C12.8715 10.7517 12.5423 10.5 12.1665 10.5H10.4998C10.039 10.5 9.6665 10.8733 9.6665 11.3333C9.6665 11.7933 10.039 12.1667 10.4998 12.1667H11.5298L13.8623 20.7192C13.9615 21.0817 14.2907 21.3333 14.6665 21.3333H22.1665C22.4823 21.3333 22.7707 21.155 22.9123 20.8725L25.6423 15.4117C25.9032 14.8908 25.8748 14.285 25.569 13.79ZM14.25 23C13.56 23 13 23.5592 13 24.25C13 24.9408 13.56 25.5 14.25 25.5C14.94 25.5 15.5 24.9408 15.5 24.25C15.5 23.5592 14.94 23 14.25 23ZM21.3333 24.25C21.3333 23.5592 21.8933 23 22.5833 23C23.2733 23 23.8333 23.5592 23.8333 24.25C23.8333 24.9408 23.2733 25.5 22.5833 25.5C21.8933 25.5 21.3333 24.9408 21.3333 24.25Z" fill="#33301E"/>
<mask id="mask0_1718_3171" style="mask-type:luminance" maskUnits="userSpaceOnUse" x="9" y="10" width="17" height="16">
<path fill-rule="evenodd" clip-rule="evenodd" d="M21.6515 19.6667H15.3032L13.939 14.6667H24.1515L21.6515 19.6667ZM25.569 13.79C25.2632 13.295 24.7332 13 24.1515 13H13.4848L12.9707 11.1142C12.8715 10.7517 12.5423 10.5 12.1665 10.5H10.4998C10.039 10.5 9.6665 10.8733 9.6665 11.3333C9.6665 11.7933 10.039 12.1667 10.4998 12.1667H11.5298L13.8623 20.7192C13.9615 21.0817 14.2907 21.3333 14.6665 21.3333H22.1665C22.4823 21.3333 22.7707 21.155 22.9123 20.8725L25.6423 15.4117C25.9032 14.8908 25.8748 14.285 25.569 13.79ZM14.25 23C13.56 23 13 23.5592 13 24.25C13 24.9408 13.56 25.5 14.25 25.5C14.94 25.5 15.5 24.9408 15.5 24.25C15.5 23.5592 14.94 23 14.25 23ZM21.3333 24.25C21.3333 23.5592 21.8933 23 22.5833 23C23.2733 23 23.8333 23.5592 23.8333 24.25C23.8333 24.9408 23.2733 25.5 22.5833 25.5C21.8933 25.5 21.3333 24.9408 21.3333 24.25Z" fill="white"/>
</mask>
<g mask="url(#mask0_1718_3171)">
<rect x="8" y="8" width="20" height="20" fill="#33301E"/>
</g>
</svg>
