<svg width="20" height="20" viewBox="0 0 20 20" fill="none" xmlns="http://www.w3.org/2000/svg">
<g id="ShoppingCart">
<path id="Vector" d="M15.1049 18.3334C14.435 18.3334 13.8943 17.7927 13.8943 17.1228C13.8943 16.4529 14.435 15.9121 15.1049 15.9121C15.7748 15.9121 16.3156 16.4529 16.3156 17.1228C16.3156 17.7927 15.7748 18.3334 15.1049 18.3334ZM4.81437 18.3334C4.14448 18.3334 3.60372 17.7927 3.60372 17.1228C3.60372 16.4529 4.14448 15.9121 4.81437 15.9121C5.48427 15.9121 6.02503 16.4529 6.02503 17.1228C6.02503 17.7927 5.48427 18.3334 4.81437 18.3334ZM16.9209 15.4278H4.20905C3.80549 15.4278 3.48265 15.105 3.48265 14.7015C3.48265 13.3939 4.35432 11.5215 5.73447 10.9323L3.9992 4.42704C3.9992 4.42704 3.9992 4.4109 3.99113 4.39475L3.68443 3.24867C3.66022 3.16796 3.58758 3.11146 3.50687 3.11146H2.39306C1.98951 3.11146 1.66667 2.78862 1.66667 2.38507C1.66667 1.98152 1.98951 1.66675 2.39306 1.66675H3.51494C4.25747 1.66675 4.90315 2.16715 5.09686 2.8774L5.25828 3.48273C9.63277 3.40202 13.9911 3.91856 18.2284 5.00008C18.4221 5.04851 18.5916 5.17764 18.6885 5.35521C18.7853 5.53277 18.8015 5.74262 18.7369 5.93632C18.067 7.92986 17.2599 9.89919 16.3398 11.7878C16.2187 12.038 15.9685 12.1994 15.686 12.1994H6.64649C6.64649 12.1994 6.63035 12.1994 6.62228 12.1994C5.98467 12.2075 5.32285 13.0953 5.0565 13.9751H16.9209C17.3245 13.9751 17.6473 14.2979 17.6473 14.7015C17.6473 15.105 17.3245 15.4278 16.9209 15.4278ZM7.18725 10.7467H15.226C15.9282 9.27773 16.5496 7.76037 17.0985 6.22688C13.3454 5.33906 9.50364 4.88709 5.63762 4.93551L7.18725 10.7467Z" fill="#513FAD"/>
</g>
</svg>
