<svg width="18" height="18" viewBox="0 0 18 18" fill="none" xmlns="http://www.w3.org/2000/svg">
<g id="wrapper">
<path id="Union" d="M12.8623 8.94607C12.6202 8.78769 12.3576 8.65466 12.1035 8.52655C12.0184 8.48361 11.9311 8.43927 11.8452 8.39492C12.7772 7.61853 13.3283 6.56199 13.4001 5.40831C13.474 4.22999 13.0496 3.07561 12.2352 2.2415C11.4693 1.45736 10.4445 1.01673 9.3485 1.00054C8.25114 0.982941 7.20304 1.39753 6.39568 2.16126C5.56016 2.95102 5.09207 4.13708 5.14205 5.33229C5.19202 6.51694 5.74739 7.60445 6.70821 8.40689L6.61107 8.45334C3.99118 9.69783 2.60874 11.7715 2.50175 14.618C2.47782 15.2536 2.70025 15.8484 3.12821 16.294C3.56111 16.7445 4.1566 16.9937 4.80418 16.9951C6.31191 16.9986 7.80839 17 9.28375 17C10.7591 17 12.2936 16.9986 13.7535 16.9951C14.3848 16.9937 14.9705 16.7501 15.402 16.3088C15.8292 15.8731 16.058 15.2909 16.046 14.6701C16.001 12.2276 14.929 10.3011 12.8616 8.94607H12.8623ZM6.49985 5.14787C6.49563 4.41371 6.78071 3.71967 7.30299 3.19316C7.82528 2.66665 8.51721 2.37453 9.25277 2.37102C9.257 2.37102 9.26193 2.37102 9.26615 2.37102C10.0102 2.37102 10.7091 2.65891 11.2349 3.1826C11.7593 3.70489 12.0479 4.39822 12.0472 5.1359C12.0465 6.6549 10.8049 7.89445 9.27882 7.89938H9.27037C7.75067 7.89938 6.5083 6.66687 6.49915 5.14716L6.49985 5.14787ZM10.5571 15.6246C10.1305 15.6246 9.70467 15.6239 9.27811 15.6239H8.35813C7.22064 15.6253 6.08245 15.6253 4.94496 15.6239C4.5726 15.6239 4.29386 15.5275 4.11507 15.3395C3.93698 15.1516 3.85674 14.8693 3.87575 14.4998C4.00667 11.9791 5.61013 10.0329 8.06038 9.42049C9.4738 9.06714 11.0111 9.35151 12.2788 10.2004C13.543 11.0472 14.3884 12.3557 14.5988 13.7903C14.6404 14.0732 14.6657 14.3506 14.6749 14.6124C14.6847 14.9101 14.5981 15.1628 14.4243 15.3437C14.2504 15.5239 14.0012 15.6204 13.7042 15.6218C12.6554 15.626 11.589 15.6253 10.5571 15.6246Z" fill="white"/>
</g>
</svg>
