<svg width="1360" height="61" viewBox="0 0 1360 61" fill="none" xmlns="http://www.w3.org/2000/svg">
<path d="M0 17.7684V83.7684H174V17.7684C160 18.2684 150 18.9162 133 11.7446C97.5 -3.23158 75.5 -2.23163 41 11.7445C25.4071 18.0613 7 17.6017 0 17.7684Z" fill="white" fill-opacity="0.08"/>
<path d="M174 17.7684V83.7684H348V17.7684C334 18.2684 324 18.9162 307 11.7446C271.5 -3.23158 249.5 -2.23163 215 11.7445C199.407 18.0613 181 17.6017 174 17.7684Z" fill="white" fill-opacity="0.08"/>
<path d="M348 17.7684V83.7684H522V17.7684C508 18.2684 498 18.9162 481 11.7446C445.5 -3.23158 423.5 -2.23163 389 11.7445C373.407 18.0613 355 17.6017 348 17.7684Z" fill="white" fill-opacity="0.08"/>
<path d="M522 17.7684V83.7684H696V17.7684C682 18.2684 672 18.9162 655 11.7446C619.5 -3.23158 597.5 -2.23163 563 11.7445C547.407 18.0613 529 17.6017 522 17.7684Z" fill="white" fill-opacity="0.08"/>
<path d="M696 17.7684V83.7684H870V17.7684C856 18.2684 846 18.9162 829 11.7446C793.5 -3.23158 771.5 -2.23163 737 11.7445C721.407 18.0613 703 17.6017 696 17.7684Z" fill="white" fill-opacity="0.08"/>
<path d="M870 17.7684V83.7684H1044V17.7684C1030 18.2684 1020 18.9162 1003 11.7446C967.5 -3.23158 945.5 -2.23163 911 11.7445C895.407 18.0613 877 17.6017 870 17.7684Z" fill="white" fill-opacity="0.08"/>
<path d="M1044 17.7684V83.7684H1218V17.7684C1204 18.2684 1194 18.9162 1177 11.7446C1141.5 -3.23158 1119.5 -2.23163 1085 11.7445C1069.41 18.0613 1051 17.6017 1044 17.7684Z" fill="white" fill-opacity="0.08"/>
<path d="M1218 17.7684V83.7684H1392V17.7684C1378 18.2684 1368 18.9162 1351 11.7446C1315.5 -3.23158 1293.5 -2.23163 1259 11.7445C1243.41 18.0613 1225 17.6017 1218 17.7684Z" fill="white" fill-opacity="0.08"/>
<path d="M617.02 36.3803H617.875C617.875 36.9936 617.699 37.4545 617.348 37.7631C617 38.0678 616.527 38.2202 615.93 38.2202C615.516 38.2202 615.156 38.1245 614.852 37.933C614.551 37.7416 614.316 37.476 614.148 37.1362C613.984 36.7963 613.902 36.4018 613.902 35.9526V35.2787C613.902 34.8295 613.984 34.435 614.148 34.0952C614.316 33.7553 614.551 33.4897 614.852 33.2983C615.156 33.1069 615.516 33.0112 615.93 33.0112C616.527 33.0112 617.002 33.1635 617.354 33.4682C617.705 33.7729 617.881 34.2319 617.881 34.8452H617.025C617.025 34.4584 616.932 34.1811 616.744 34.0131C616.561 33.8452 616.289 33.7612 615.93 33.7612C615.672 33.7612 615.455 33.8256 615.279 33.9545C615.104 34.0834 614.971 34.2631 614.881 34.4936C614.791 34.7202 614.746 34.9799 614.746 35.2729V35.9526C614.746 36.2495 614.791 36.5131 614.881 36.7436C614.971 36.9702 615.104 37.1479 615.279 37.2768C615.455 37.4057 615.672 37.4702 615.93 37.4702C616.289 37.4702 616.561 37.3862 616.744 37.2182C616.928 37.0502 617.02 36.7709 617.02 36.3803ZM612.525 35.6127C612.525 36.1323 612.615 36.6166 612.795 37.0659C612.975 37.5151 613.225 37.9077 613.545 38.2436C613.865 38.5795 614.236 38.8412 614.658 39.0287C615.08 39.2162 615.531 39.31 616.012 39.31C616.492 39.31 616.941 39.2162 617.359 39.0287C617.781 38.8412 618.15 38.5795 618.467 38.2436C618.787 37.9077 619.037 37.5151 619.217 37.0659C619.396 36.6166 619.486 36.1323 619.486 35.6127C619.486 35.0893 619.396 34.6049 619.217 34.1596C619.037 33.7143 618.787 33.3256 618.467 32.9936C618.15 32.6577 617.781 32.3979 617.359 32.2143C616.941 32.0268 616.492 31.933 616.012 31.933C615.531 31.933 615.08 32.0268 614.658 32.2143C614.236 32.3979 613.865 32.6577 613.545 32.9936C613.225 33.3256 612.975 33.7143 612.795 34.1596C612.615 34.6049 612.525 35.0893 612.525 35.6127ZM611.852 35.6127C611.852 34.9916 611.959 34.4155 612.174 33.8842C612.389 33.353 612.688 32.8901 613.07 32.4955C613.453 32.0971 613.895 31.7885 614.395 31.5698C614.898 31.3471 615.438 31.2358 616.012 31.2358C616.586 31.2358 617.123 31.3471 617.623 31.5698C618.127 31.7885 618.568 32.0971 618.947 32.4955C619.33 32.8901 619.629 33.353 619.844 33.8842C620.059 34.4155 620.166 34.9916 620.166 35.6127C620.166 36.2338 620.059 36.81 619.844 37.3412C619.629 37.8725 619.33 38.3393 618.947 38.7416C618.568 39.1401 618.127 39.4506 617.623 39.6733C617.123 39.8959 616.586 40.0073 616.012 40.0073C615.438 40.0073 614.898 39.8959 614.395 39.6733C613.895 39.4506 613.453 39.1401 613.07 38.7416C612.688 38.3393 612.389 37.8725 612.174 37.3412C611.959 36.81 611.852 36.2338 611.852 35.6127ZM630.021 38.9936V39.8842H624.438V39.1049L627.232 35.9936C627.576 35.6108 627.842 35.2866 628.029 35.0209C628.221 34.7514 628.354 34.5112 628.428 34.3002C628.506 34.0854 628.545 33.8666 628.545 33.644C628.545 33.3627 628.486 33.1088 628.369 32.8823C628.256 32.6518 628.088 32.4682 627.865 32.3315C627.643 32.1948 627.373 32.1264 627.057 32.1264C626.678 32.1264 626.361 32.2006 626.107 32.3491C625.857 32.4936 625.67 32.6967 625.545 32.9584C625.42 33.2202 625.357 33.5209 625.357 33.8608H624.273C624.273 33.3803 624.379 32.9409 624.59 32.5424C624.801 32.144 625.113 31.8276 625.527 31.5932C625.941 31.3549 626.451 31.2358 627.057 31.2358C627.596 31.2358 628.057 31.3315 628.439 31.5229C628.822 31.7104 629.115 31.976 629.318 32.3198C629.525 32.6596 629.629 33.058 629.629 33.5151C629.629 33.7651 629.586 34.019 629.5 34.2768C629.418 34.5307 629.303 34.7846 629.154 35.0385C629.01 35.2924 628.84 35.5424 628.645 35.7885C628.453 36.0346 628.248 36.2768 628.029 36.5151L625.744 38.9936H630.021ZM636.537 34.9389V36.2397C636.537 36.9389 636.475 37.5287 636.35 38.0092C636.225 38.4897 636.045 38.8764 635.811 39.1694C635.576 39.4623 635.293 39.6752 634.961 39.808C634.633 39.937 634.262 40.0014 633.848 40.0014C633.52 40.0014 633.217 39.9604 632.939 39.8784C632.662 39.7963 632.412 39.6655 632.189 39.4858C631.971 39.3022 631.783 39.0639 631.627 38.7709C631.471 38.478 631.352 38.1225 631.27 37.7045C631.188 37.2866 631.146 36.7983 631.146 36.2397V34.9389C631.146 34.2397 631.209 33.6537 631.334 33.1811C631.463 32.7084 631.645 32.3295 631.879 32.0444C632.113 31.7553 632.395 31.5483 632.723 31.4233C633.055 31.2983 633.426 31.2358 633.836 31.2358C634.168 31.2358 634.473 31.2768 634.75 31.3588C635.031 31.437 635.281 31.5639 635.5 31.7397C635.719 31.9116 635.904 32.142 636.057 32.4311C636.213 32.7162 636.332 33.0659 636.414 33.4799C636.496 33.894 636.537 34.3803 636.537 34.9389ZM635.447 36.4155V34.7573C635.447 34.3745 635.424 34.0385 635.377 33.7495C635.334 33.4565 635.27 33.2065 635.184 32.9995C635.098 32.7924 634.988 32.6245 634.855 32.4955C634.727 32.3666 634.576 32.2729 634.404 32.2143C634.236 32.1518 634.047 32.1205 633.836 32.1205C633.578 32.1205 633.35 32.1694 633.15 32.267C632.951 32.3608 632.783 32.5112 632.646 32.7182C632.514 32.9252 632.412 33.1967 632.342 33.5327C632.271 33.8686 632.236 34.2768 632.236 34.7573V36.4155C632.236 36.7983 632.258 37.1362 632.301 37.4291C632.348 37.7221 632.416 37.976 632.506 38.1909C632.596 38.4018 632.705 38.5756 632.834 38.7123C632.963 38.8491 633.111 38.9506 633.279 39.017C633.451 39.0795 633.641 39.1108 633.848 39.1108C634.113 39.1108 634.346 39.06 634.545 38.9584C634.744 38.8569 634.91 38.6987 635.043 38.4838C635.18 38.2651 635.281 37.9858 635.348 37.6459C635.414 37.3022 635.447 36.892 635.447 36.4155ZM643.521 38.9936V39.8842H637.938V39.1049L640.732 35.9936C641.076 35.6108 641.342 35.2866 641.529 35.0209C641.721 34.7514 641.854 34.5112 641.928 34.3002C642.006 34.0854 642.045 33.8666 642.045 33.644C642.045 33.3627 641.986 33.1088 641.869 32.8823C641.756 32.6518 641.588 32.4682 641.365 32.3315C641.143 32.1948 640.873 32.1264 640.557 32.1264C640.178 32.1264 639.861 32.2006 639.607 32.3491C639.357 32.4936 639.17 32.6967 639.045 32.9584C638.92 33.2202 638.857 33.5209 638.857 33.8608H637.773C637.773 33.3803 637.879 32.9409 638.09 32.5424C638.301 32.144 638.613 31.8276 639.027 31.5932C639.441 31.3549 639.951 31.2358 640.557 31.2358C641.096 31.2358 641.557 31.3315 641.939 31.5229C642.322 31.7104 642.615 31.976 642.818 32.3198C643.025 32.6596 643.129 33.058 643.129 33.5151C643.129 33.7651 643.086 34.019 643 34.2768C642.918 34.5307 642.803 34.7846 642.654 35.0385C642.51 35.2924 642.34 35.5424 642.145 35.7885C641.953 36.0346 641.748 36.2768 641.529 36.5151L639.244 38.9936H643.521ZM646.264 35.0854H647.037C647.416 35.0854 647.729 35.0229 647.975 34.8979C648.225 34.769 648.41 34.5952 648.531 34.3764C648.656 34.1537 648.719 33.9037 648.719 33.6264C648.719 33.2983 648.664 33.0229 648.555 32.8002C648.445 32.5776 648.281 32.4096 648.062 32.2963C647.844 32.183 647.566 32.1264 647.23 32.1264C646.926 32.1264 646.656 32.187 646.422 32.308C646.191 32.4252 646.01 32.5932 645.877 32.812C645.748 33.0307 645.684 33.2885 645.684 33.5854H644.6C644.6 33.1518 644.709 32.7573 644.928 32.4018C645.146 32.0463 645.453 31.7631 645.848 31.5522C646.246 31.3412 646.707 31.2358 647.23 31.2358C647.746 31.2358 648.197 31.3276 648.584 31.5112C648.971 31.6909 649.271 31.9604 649.486 32.3198C649.701 32.6752 649.809 33.1186 649.809 33.6498C649.809 33.8647 649.758 34.0952 649.656 34.3412C649.559 34.5834 649.404 34.81 649.193 35.0209C648.986 35.2319 648.717 35.4057 648.385 35.5424C648.053 35.6752 647.654 35.7416 647.189 35.7416H646.264V35.0854ZM646.264 35.976V35.3256H647.189C647.732 35.3256 648.182 35.3901 648.537 35.519C648.893 35.6479 649.172 35.8198 649.375 36.0346C649.582 36.2495 649.727 36.4858 649.809 36.7436C649.895 36.9975 649.938 37.2514 649.938 37.5053C649.938 37.9037 649.869 38.2573 649.732 38.5659C649.6 38.8745 649.41 39.1362 649.164 39.351C648.922 39.5659 648.637 39.728 648.309 39.8373C647.98 39.9467 647.623 40.0014 647.236 40.0014C646.865 40.0014 646.516 39.9487 646.188 39.8432C645.863 39.7377 645.576 39.5854 645.326 39.3862C645.076 39.183 644.881 38.935 644.74 38.642C644.6 38.3452 644.529 38.0073 644.529 37.6284H645.613C645.613 37.9252 645.678 38.185 645.807 38.4077C645.939 38.6303 646.127 38.8041 646.369 38.9291C646.615 39.0502 646.904 39.1108 647.236 39.1108C647.568 39.1108 647.854 39.0541 648.092 38.9409C648.334 38.8237 648.52 38.6479 648.648 38.4135C648.781 38.1791 648.848 37.8842 648.848 37.5287C648.848 37.1733 648.773 36.8823 648.625 36.6557C648.477 36.4252 648.266 36.2553 647.992 36.1459C647.723 36.0327 647.404 35.976 647.037 35.976H646.264ZM657.848 32.1088L655.023 39.8842H653.869L657.121 31.353H657.865L657.848 32.1088ZM660.215 39.8842L657.385 32.1088L657.367 31.353H658.111L661.375 39.8842H660.215ZM660.068 36.726V37.6518H655.275V36.726H660.068ZM663.531 30.8842V39.8842H662.441V30.8842H663.531ZM666.449 30.8842V39.8842H665.359V30.8842H666.449ZM672.25 34.5405V39.8842H671.166V33.5444H672.221L672.25 34.5405ZM674.23 33.5092L674.225 34.517C674.135 34.4975 674.049 34.4858 673.967 34.4819C673.889 34.4741 673.799 34.4702 673.697 34.4702C673.447 34.4702 673.227 34.5092 673.035 34.5873C672.844 34.6655 672.682 34.7748 672.549 34.9155C672.416 35.0561 672.311 35.2241 672.232 35.4194C672.158 35.6108 672.109 35.8217 672.086 36.0522L671.781 36.228C671.781 35.8452 671.818 35.4858 671.893 35.1498C671.971 34.8139 672.09 34.517 672.25 34.2592C672.41 33.9975 672.613 33.7944 672.859 33.6498C673.109 33.5014 673.406 33.4272 673.75 33.4272C673.828 33.4272 673.918 33.437 674.02 33.4565C674.121 33.4721 674.191 33.4897 674.23 33.5092ZM676.41 33.5444V39.8842H675.32V33.5444H676.41ZM675.238 31.8627C675.238 31.687 675.291 31.5385 675.396 31.4174C675.506 31.2963 675.666 31.2358 675.877 31.2358C676.084 31.2358 676.242 31.2963 676.352 31.4174C676.465 31.5385 676.521 31.687 676.521 31.8627C676.521 32.0307 676.465 32.1752 676.352 32.2963C676.242 32.4135 676.084 32.4721 675.877 32.4721C675.666 32.4721 675.506 32.4135 675.396 32.2963C675.291 32.1752 675.238 32.0307 675.238 31.8627ZM682.258 33.5444H683.242V39.7495C683.242 40.308 683.129 40.7846 682.902 41.1791C682.676 41.5737 682.359 41.8725 681.953 42.0756C681.551 42.2827 681.086 42.3862 680.559 42.3862C680.34 42.3862 680.082 42.351 679.785 42.2807C679.492 42.2143 679.203 42.0991 678.918 41.935C678.637 41.7748 678.4 41.558 678.209 41.2846L678.777 40.6401C679.043 40.9604 679.32 41.183 679.609 41.308C679.902 41.433 680.191 41.4955 680.477 41.4955C680.82 41.4955 681.117 41.4311 681.367 41.3022C681.617 41.1733 681.811 40.9819 681.947 40.728C682.088 40.478 682.158 40.1694 682.158 39.8022V34.9389L682.258 33.5444ZM677.893 36.7846V36.6616C677.893 36.1772 677.949 35.7377 678.062 35.3432C678.18 34.9448 678.346 34.603 678.561 34.3178C678.779 34.0327 679.043 33.8139 679.352 33.6616C679.66 33.5053 680.008 33.4272 680.395 33.4272C680.793 33.4272 681.141 33.4975 681.438 33.6381C681.738 33.7748 681.992 33.976 682.199 34.2416C682.41 34.5034 682.576 34.8198 682.697 35.1909C682.818 35.562 682.902 35.9819 682.949 36.4506V36.9897C682.906 37.4545 682.822 37.8725 682.697 38.2436C682.576 38.6147 682.41 38.9311 682.199 39.1928C681.992 39.4545 681.738 39.6557 681.438 39.7963C681.137 39.933 680.785 40.0014 680.383 40.0014C680.004 40.0014 679.66 39.9213 679.352 39.7612C679.047 39.601 678.785 39.3764 678.566 39.0873C678.348 38.7983 678.18 38.4584 678.062 38.0678C677.949 37.6733 677.893 37.2455 677.893 36.7846ZM678.977 36.6616V36.7846C678.977 37.101 679.008 37.3979 679.07 37.6752C679.137 37.9526 679.236 38.1967 679.369 38.4077C679.506 38.6186 679.68 38.7846 679.891 38.9057C680.102 39.0229 680.354 39.0815 680.646 39.0815C681.006 39.0815 681.303 39.0053 681.537 38.853C681.771 38.7006 681.957 38.4995 682.094 38.2495C682.234 37.9995 682.344 37.728 682.422 37.435V36.0229C682.379 35.808 682.312 35.601 682.223 35.4018C682.137 35.1987 682.023 35.019 681.883 34.8627C681.746 34.7026 681.576 34.5756 681.373 34.4819C681.17 34.3881 680.932 34.3412 680.658 34.3412C680.361 34.3412 680.105 34.4037 679.891 34.5287C679.68 34.6498 679.506 34.8178 679.369 35.0327C679.236 35.2436 679.137 35.4897 679.07 35.7709C679.008 36.0483 678.977 36.3452 678.977 36.6616ZM685.973 30.8842V39.8842H684.889V30.8842H685.973ZM685.715 36.4741L685.264 36.4565C685.268 36.0229 685.332 35.6225 685.457 35.2553C685.582 34.8842 685.758 34.562 685.984 34.2885C686.211 34.0151 686.48 33.8041 686.793 33.6557C687.109 33.5034 687.459 33.4272 687.842 33.4272C688.154 33.4272 688.436 33.4702 688.686 33.5561C688.936 33.6381 689.148 33.7709 689.324 33.9545C689.504 34.1381 689.641 34.3764 689.734 34.6694C689.828 34.9584 689.875 35.312 689.875 35.7299V39.8842H688.785V35.7182C688.785 35.3862 688.736 35.1205 688.639 34.9213C688.541 34.7182 688.398 34.5717 688.211 34.4819C688.023 34.3881 687.793 34.3412 687.52 34.3412C687.25 34.3412 687.004 34.3979 686.781 34.5112C686.562 34.6245 686.373 34.7807 686.213 34.9799C686.057 35.1791 685.934 35.4077 685.844 35.6655C685.758 35.9194 685.715 36.1889 685.715 36.4741ZM694.152 33.5444V34.3764H690.725V33.5444H694.152ZM691.885 32.0034H692.969V38.3139C692.969 38.5287 693.002 38.6909 693.068 38.8002C693.135 38.9096 693.221 38.9819 693.326 39.017C693.432 39.0522 693.545 39.0698 693.666 39.0698C693.756 39.0698 693.85 39.062 693.947 39.0463C694.049 39.0268 694.125 39.0112 694.176 38.9995L694.182 39.8842C694.096 39.9116 693.982 39.937 693.842 39.9604C693.705 39.9877 693.539 40.0014 693.344 40.0014C693.078 40.0014 692.834 39.9487 692.611 39.8432C692.389 39.7377 692.211 39.562 692.078 39.3159C691.949 39.0659 691.885 38.7299 691.885 38.308V32.0034ZM699.115 38.2026C699.115 38.0463 699.08 37.9018 699.01 37.769C698.943 37.6323 698.805 37.5092 698.594 37.3998C698.387 37.2866 698.074 37.1889 697.656 37.1069C697.305 37.0327 696.986 36.9448 696.701 36.8432C696.42 36.7416 696.18 36.6186 695.98 36.4741C695.785 36.3295 695.635 36.1596 695.529 35.9643C695.424 35.769 695.371 35.5405 695.371 35.2787C695.371 35.0287 695.426 34.7924 695.535 34.5698C695.648 34.3471 695.807 34.1498 696.01 33.978C696.217 33.8061 696.465 33.6713 696.754 33.5737C697.043 33.476 697.365 33.4272 697.721 33.4272C698.229 33.4272 698.662 33.517 699.021 33.6967C699.381 33.8764 699.656 34.1166 699.848 34.4174C700.039 34.7143 700.135 35.0444 700.135 35.4077H699.051C699.051 35.2319 698.998 35.062 698.893 34.8979C698.791 34.7299 698.641 34.5912 698.441 34.4819C698.246 34.3725 698.006 34.3178 697.721 34.3178C697.42 34.3178 697.176 34.3647 696.988 34.4584C696.805 34.5483 696.67 34.6635 696.584 34.8041C696.502 34.9448 696.461 35.0932 696.461 35.2495C696.461 35.3666 696.48 35.4721 696.52 35.5659C696.562 35.6557 696.637 35.7397 696.742 35.8178C696.848 35.892 696.996 35.9623 697.188 36.0287C697.379 36.0952 697.623 36.1616 697.92 36.228C698.439 36.3452 698.867 36.4858 699.203 36.6498C699.539 36.8139 699.789 37.0151 699.953 37.2534C700.117 37.4916 700.199 37.7807 700.199 38.1205C700.199 38.3979 700.141 38.6518 700.023 38.8823C699.91 39.1127 699.744 39.312 699.525 39.4799C699.311 39.644 699.053 39.7729 698.752 39.8666C698.455 39.9565 698.121 40.0014 697.75 40.0014C697.191 40.0014 696.719 39.9018 696.332 39.7026C695.945 39.5034 695.652 39.2455 695.453 38.9291C695.254 38.6127 695.154 38.2787 695.154 37.9272H696.244C696.26 38.2241 696.346 38.4604 696.502 38.6362C696.658 38.808 696.85 38.9311 697.076 39.0053C697.303 39.0756 697.527 39.1108 697.75 39.1108C698.047 39.1108 698.295 39.0717 698.494 38.9936C698.697 38.9155 698.852 38.808 698.957 38.6713C699.062 38.5346 699.115 38.3784 699.115 38.2026ZM705.684 34.5405V39.8842H704.6V33.5444H705.654L705.684 34.5405ZM707.664 33.5092L707.658 34.517C707.568 34.4975 707.482 34.4858 707.4 34.4819C707.322 34.4741 707.232 34.4702 707.131 34.4702C706.881 34.4702 706.66 34.5092 706.469 34.5873C706.277 34.6655 706.115 34.7748 705.982 34.9155C705.85 35.0561 705.744 35.2241 705.666 35.4194C705.592 35.6108 705.543 35.8217 705.52 36.0522L705.215 36.228C705.215 35.8452 705.252 35.4858 705.326 35.1498C705.404 34.8139 705.523 34.517 705.684 34.2592C705.844 33.9975 706.047 33.7944 706.293 33.6498C706.543 33.5014 706.84 33.4272 707.184 33.4272C707.262 33.4272 707.352 33.437 707.453 33.4565C707.555 33.4721 707.625 33.4897 707.664 33.5092ZM711.18 40.0014C710.738 40.0014 710.338 39.9272 709.979 39.7787C709.623 39.6264 709.316 39.4135 709.059 39.1401C708.805 38.8666 708.609 38.5424 708.473 38.1674C708.336 37.7924 708.268 37.3823 708.268 36.937V36.6909C708.268 36.1752 708.344 35.7162 708.496 35.3139C708.648 34.9077 708.855 34.5639 709.117 34.2827C709.379 34.0014 709.676 33.7885 710.008 33.644C710.34 33.4995 710.684 33.4272 711.039 33.4272C711.492 33.4272 711.883 33.5053 712.211 33.6616C712.543 33.8178 712.814 34.0366 713.025 34.3178C713.236 34.5952 713.393 34.9233 713.494 35.3022C713.596 35.6772 713.646 36.0873 713.646 36.5327V37.019H708.912V36.1342H712.562V36.0522C712.547 35.7709 712.488 35.4975 712.387 35.2319C712.289 34.9662 712.133 34.7475 711.918 34.5756C711.703 34.4037 711.41 34.3178 711.039 34.3178C710.793 34.3178 710.566 34.3705 710.359 34.476C710.152 34.5776 709.975 34.7299 709.826 34.933C709.678 35.1362 709.562 35.3842 709.48 35.6772C709.398 35.9702 709.357 36.308 709.357 36.6909V36.937C709.357 37.2377 709.398 37.5209 709.48 37.7866C709.566 38.0483 709.689 38.2787 709.85 38.478C710.014 38.6772 710.211 38.8334 710.441 38.9467C710.676 39.06 710.941 39.1166 711.238 39.1166C711.621 39.1166 711.945 39.0385 712.211 38.8823C712.477 38.726 712.709 38.517 712.908 38.2553L713.564 38.7768C713.428 38.9838 713.254 39.1811 713.043 39.3686C712.832 39.5561 712.572 39.7084 712.264 39.8256C711.959 39.9428 711.598 40.0014 711.18 40.0014ZM718.604 38.2026C718.604 38.0463 718.568 37.9018 718.498 37.769C718.432 37.6323 718.293 37.5092 718.082 37.3998C717.875 37.2866 717.562 37.1889 717.145 37.1069C716.793 37.0327 716.475 36.9448 716.189 36.8432C715.908 36.7416 715.668 36.6186 715.469 36.4741C715.273 36.3295 715.123 36.1596 715.018 35.9643C714.912 35.769 714.859 35.5405 714.859 35.2787C714.859 35.0287 714.914 34.7924 715.023 34.5698C715.137 34.3471 715.295 34.1498 715.498 33.978C715.705 33.8061 715.953 33.6713 716.242 33.5737C716.531 33.476 716.854 33.4272 717.209 33.4272C717.717 33.4272 718.15 33.517 718.51 33.6967C718.869 33.8764 719.145 34.1166 719.336 34.4174C719.527 34.7143 719.623 35.0444 719.623 35.4077H718.539C718.539 35.2319 718.486 35.062 718.381 34.8979C718.279 34.7299 718.129 34.5912 717.93 34.4819C717.734 34.3725 717.494 34.3178 717.209 34.3178C716.908 34.3178 716.664 34.3647 716.477 34.4584C716.293 34.5483 716.158 34.6635 716.072 34.8041C715.99 34.9448 715.949 35.0932 715.949 35.2495C715.949 35.3666 715.969 35.4721 716.008 35.5659C716.051 35.6557 716.125 35.7397 716.23 35.8178C716.336 35.892 716.484 35.9623 716.676 36.0287C716.867 36.0952 717.111 36.1616 717.408 36.228C717.928 36.3452 718.355 36.4858 718.691 36.6498C719.027 36.8139 719.277 37.0151 719.441 37.2534C719.605 37.4916 719.688 37.7807 719.688 38.1205C719.688 38.3979 719.629 38.6518 719.512 38.8823C719.398 39.1127 719.232 39.312 719.014 39.4799C718.799 39.644 718.541 39.7729 718.24 39.8666C717.943 39.9565 717.609 40.0014 717.238 40.0014C716.68 40.0014 716.207 39.9018 715.82 39.7026C715.434 39.5034 715.141 39.2455 714.941 38.9291C714.742 38.6127 714.643 38.2787 714.643 37.9272H715.732C715.748 38.2241 715.834 38.4604 715.99 38.6362C716.146 38.808 716.338 38.9311 716.564 39.0053C716.791 39.0756 717.016 39.1108 717.238 39.1108C717.535 39.1108 717.783 39.0717 717.982 38.9936C718.186 38.9155 718.34 38.808 718.445 38.6713C718.551 38.5346 718.604 38.3784 718.604 38.2026ZM723.742 40.0014C723.301 40.0014 722.9 39.9272 722.541 39.7787C722.186 39.6264 721.879 39.4135 721.621 39.1401C721.367 38.8666 721.172 38.5424 721.035 38.1674C720.898 37.7924 720.83 37.3823 720.83 36.937V36.6909C720.83 36.1752 720.906 35.7162 721.059 35.3139C721.211 34.9077 721.418 34.5639 721.68 34.2827C721.941 34.0014 722.238 33.7885 722.57 33.644C722.902 33.4995 723.246 33.4272 723.602 33.4272C724.055 33.4272 724.445 33.5053 724.773 33.6616C725.105 33.8178 725.377 34.0366 725.588 34.3178C725.799 34.5952 725.955 34.9233 726.057 35.3022C726.158 35.6772 726.209 36.0873 726.209 36.5327V37.019H721.475V36.1342H725.125V36.0522C725.109 35.7709 725.051 35.4975 724.949 35.2319C724.852 34.9662 724.695 34.7475 724.48 34.5756C724.266 34.4037 723.973 34.3178 723.602 34.3178C723.355 34.3178 723.129 34.3705 722.922 34.476C722.715 34.5776 722.537 34.7299 722.389 34.933C722.24 35.1362 722.125 35.3842 722.043 35.6772C721.961 35.9702 721.92 36.308 721.92 36.6909V36.937C721.92 37.2377 721.961 37.5209 722.043 37.7866C722.129 38.0483 722.252 38.2787 722.412 38.478C722.576 38.6772 722.773 38.8334 723.004 38.9467C723.238 39.06 723.504 39.1166 723.801 39.1166C724.184 39.1166 724.508 39.0385 724.773 38.8823C725.039 38.726 725.271 38.517 725.471 38.2553L726.127 38.7768C725.99 38.9838 725.816 39.1811 725.605 39.3686C725.395 39.5561 725.135 39.7084 724.826 39.8256C724.521 39.9428 724.16 40.0014 723.742 40.0014ZM728.559 34.5405V39.8842H727.475V33.5444H728.529L728.559 34.5405ZM730.539 33.5092L730.533 34.517C730.443 34.4975 730.357 34.4858 730.275 34.4819C730.197 34.4741 730.107 34.4702 730.006 34.4702C729.756 34.4702 729.535 34.5092 729.344 34.5873C729.152 34.6655 728.99 34.7748 728.857 34.9155C728.725 35.0561 728.619 35.2241 728.541 35.4194C728.467 35.6108 728.418 35.8217 728.395 36.0522L728.09 36.228C728.09 35.8452 728.127 35.4858 728.201 35.1498C728.279 34.8139 728.398 34.517 728.559 34.2592C728.719 33.9975 728.922 33.7944 729.168 33.6498C729.418 33.5014 729.715 33.4272 730.059 33.4272C730.137 33.4272 730.227 33.437 730.328 33.4565C730.43 33.4721 730.5 33.4897 730.539 33.5092ZM733.574 38.9057L735.309 33.5444H736.416L734.137 39.8842H733.41L733.574 38.9057ZM732.127 33.5444L733.914 38.935L734.037 39.8842H733.311L731.014 33.5444H732.127ZM740.008 40.0014C739.566 40.0014 739.166 39.9272 738.807 39.7787C738.451 39.6264 738.145 39.4135 737.887 39.1401C737.633 38.8666 737.438 38.5424 737.301 38.1674C737.164 37.7924 737.096 37.3823 737.096 36.937V36.6909C737.096 36.1752 737.172 35.7162 737.324 35.3139C737.477 34.9077 737.684 34.5639 737.945 34.2827C738.207 34.0014 738.504 33.7885 738.836 33.644C739.168 33.4995 739.512 33.4272 739.867 33.4272C740.32 33.4272 740.711 33.5053 741.039 33.6616C741.371 33.8178 741.643 34.0366 741.854 34.3178C742.064 34.5952 742.221 34.9233 742.322 35.3022C742.424 35.6772 742.475 36.0873 742.475 36.5327V37.019H737.74V36.1342H741.391V36.0522C741.375 35.7709 741.316 35.4975 741.215 35.2319C741.117 34.9662 740.961 34.7475 740.746 34.5756C740.531 34.4037 740.238 34.3178 739.867 34.3178C739.621 34.3178 739.395 34.3705 739.188 34.476C738.98 34.5776 738.803 34.7299 738.654 34.933C738.506 35.1362 738.391 35.3842 738.309 35.6772C738.227 35.9702 738.186 36.308 738.186 36.6909V36.937C738.186 37.2377 738.227 37.5209 738.309 37.7866C738.395 38.0483 738.518 38.2787 738.678 38.478C738.842 38.6772 739.039 38.8334 739.27 38.9467C739.504 39.06 739.77 39.1166 740.066 39.1166C740.449 39.1166 740.773 39.0385 741.039 38.8823C741.305 38.726 741.537 38.517 741.736 38.2553L742.393 38.7768C742.256 38.9838 742.082 39.1811 741.871 39.3686C741.66 39.5561 741.4 39.7084 741.092 39.8256C740.787 39.9428 740.426 40.0014 740.008 40.0014ZM747.736 38.6537V30.8842H748.826V39.8842H747.83L747.736 38.6537ZM743.471 36.7846V36.6616C743.471 36.1772 743.529 35.7377 743.646 35.3432C743.768 34.9448 743.938 34.603 744.156 34.3178C744.379 34.0327 744.643 33.8139 744.947 33.6616C745.256 33.5053 745.6 33.4272 745.979 33.4272C746.377 33.4272 746.725 33.4975 747.021 33.6381C747.322 33.7748 747.576 33.976 747.783 34.2416C747.994 34.5034 748.16 34.8198 748.281 35.1909C748.402 35.562 748.486 35.9819 748.533 36.4506V36.9897C748.49 37.4545 748.406 37.8725 748.281 38.2436C748.16 38.6147 747.994 38.9311 747.783 39.1928C747.576 39.4545 747.322 39.6557 747.021 39.7963C746.721 39.933 746.369 40.0014 745.967 40.0014C745.596 40.0014 745.256 39.9213 744.947 39.7612C744.643 39.601 744.379 39.3764 744.156 39.0873C743.938 38.7983 743.768 38.4584 743.646 38.0678C743.529 37.6733 743.471 37.2455 743.471 36.7846ZM744.561 36.6616V36.7846C744.561 37.101 744.592 37.3979 744.654 37.6752C744.721 37.9526 744.822 38.1967 744.959 38.4077C745.096 38.6186 745.27 38.7846 745.48 38.9057C745.691 39.0229 745.943 39.0815 746.236 39.0815C746.596 39.0815 746.891 39.0053 747.121 38.853C747.355 38.7006 747.543 38.4995 747.684 38.2495C747.824 37.9995 747.934 37.728 748.012 37.435V36.0229C747.965 35.808 747.896 35.601 747.807 35.4018C747.721 35.1987 747.607 35.019 747.467 34.8627C747.33 34.7026 747.16 34.5756 746.957 34.4819C746.758 34.3881 746.521 34.3412 746.248 34.3412C745.951 34.3412 745.695 34.4037 745.48 34.5287C745.27 34.6498 745.096 34.8178 744.959 35.0327C744.822 35.2436 744.721 35.4897 744.654 35.7709C744.592 36.0483 744.561 36.3452 744.561 36.6616Z" fill="white"/>
</svg>
