<svg width="24" height="24" viewBox="0 0 24 24" fill="none" xmlns="http://www.w3.org/2000/svg">
<path fill-rule="evenodd" clip-rule="evenodd" d="M11.664 3.31898C11.7683 3.26671 11.8834 3.2395 12 3.2395C12.1167 3.2395 12.2317 3.26671 12.336 3.31898C15.276 4.79216 18.0284 6.61321 20.534 8.74298C20.6358 8.82941 20.7126 8.94144 20.7566 9.06749C20.8006 9.19355 20.8101 9.32907 20.7842 9.46004C20.7584 9.59102 20.698 9.71271 20.6093 9.81255C20.5207 9.91239 20.407 9.98676 20.28 10.028C17.4941 10.9315 14.8484 12.2207 12.42 13.858C12.296 13.9418 12.1497 13.9866 12 13.9866C11.8503 13.9866 11.704 13.9418 11.58 13.858C10.9036 13.4022 10.2097 12.9729 9.50001 12.571V11.394C9.50001 11.15 9.61601 10.931 9.80201 10.802C10.8658 10.0646 11.9691 9.38589 13.107 8.76898C13.279 8.67273 13.4062 8.51265 13.4611 8.32336C13.516 8.13407 13.4941 7.93078 13.4003 7.75745C13.3065 7.58413 13.1482 7.4547 12.9597 7.39716C12.7712 7.33962 12.5676 7.35859 12.393 7.44998C11.2065 8.09326 10.0562 8.80099 8.94701 9.56998C8.65374 9.77484 8.41442 10.0477 8.24951 10.3651C8.08459 10.6826 7.99899 11.0352 8.00001 11.393V11.773C6.61834 11.0863 5.18777 10.5027 3.72001 10.027C3.59302 9.98576 3.47933 9.91139 3.39069 9.81155C3.30205 9.71171 3.24166 9.59002 3.21577 9.45904C3.18988 9.32807 3.19943 9.19255 3.24342 9.06649C3.28741 8.94044 3.36425 8.82841 3.46601 8.74198C5.97161 6.61221 8.724 4.79116 11.664 3.31798V3.31898ZM8.00001 13.459C7.19966 13.0359 6.38048 12.6495 5.54501 12.301C5.37534 13.3336 5.24525 14.3724 5.15501 15.415C5.14173 15.5662 5.17468 15.718 5.24949 15.8501C5.32431 15.9822 5.43747 16.0885 5.57401 16.155C6.10201 16.411 6.62001 16.685 7.12801 16.975C6.91801 17.299 6.67301 17.605 6.38901 17.889C6.31532 17.9576 6.25622 18.0404 6.21523 18.1324C6.17424 18.2244 6.15219 18.3238 6.15042 18.4245C6.14864 18.5252 6.16717 18.6252 6.20489 18.7186C6.24261 18.812 6.29875 18.8968 6.36997 18.968C6.44119 19.0392 6.52602 19.0954 6.61941 19.1331C6.7128 19.1708 6.81283 19.1893 6.91353 19.1876C7.01424 19.1858 7.11355 19.1638 7.20555 19.1228C7.29755 19.0818 7.38035 19.0227 7.44901 18.949C7.81901 18.58 8.13901 18.179 8.40901 17.756C9.49651 18.4622 10.5309 19.2469 11.504 20.104C11.641 20.2248 11.8174 20.2914 12 20.2914C12.1827 20.2914 12.359 20.2248 12.496 20.104C14.2862 18.5268 16.2808 17.1982 18.426 16.154C18.5626 16.0878 18.6758 15.9817 18.7508 15.8497C18.8258 15.7178 18.859 15.5662 18.846 15.415C18.7557 14.3724 18.6257 13.3336 18.456 12.301C16.6349 13.0609 14.8934 13.9992 13.257 15.102C12.8856 15.3522 12.4479 15.4858 12 15.4858C11.5521 15.4858 11.1145 15.3522 10.743 15.102C10.333 14.827 9.91701 14.561 9.49301 14.305C9.44079 15.5302 9.06693 16.7211 8.40901 17.756C7.98945 17.4839 7.56228 17.2228 7.12801 16.975C7.6986 16.0877 8.00136 15.0548 8.00001 14V13.46V13.459Z" fill="white"/>
</svg>
