<svg width="49" height="56" viewBox="0 0 49 56" fill="none" xmlns="http://www.w3.org/2000/svg">
<g id="_&#229;&#156;&#150;&#229;&#177;&#164;_1">
<rect width="48" height="56" transform="translate(0.5)" fill="white"/>
<path id="Vector" d="M24.3003 55.0002C24.1884 55.0002 24.1461 54.9833 24.0616 54.9452C18.7799 52.615 13.8067 49.7819 9.54541 45.8269C7.00175 43.4671 4.83626 40.8135 3.35104 37.6445C2.2271 35.2466 1.58485 32.76 1.60597 30.0769C1.65668 23.629 1.62288 17.1812 1.62288 10.7312V10.0889C10.4517 10.7776 17.9032 8.02482 23.8884 1.49876C24.0384 1.35932 24.1926 1.21777 24.3003 1.21777V55.0002Z" fill="#FEBEA3"/>
<path id="Vector_2" d="M24.3008 55.0002C24.4128 55.0002 24.455 54.9833 24.5395 54.9452C29.8212 52.615 34.7944 49.7819 39.0557 45.8269C41.5994 43.4671 43.7649 40.8135 45.2501 37.6445C46.374 35.2466 47.0163 32.76 46.9951 30.0769C46.9444 23.629 46.9782 17.1812 46.9782 10.7312V10.0889C38.1494 10.7776 30.698 8.02482 24.7128 1.49876C24.5628 1.35932 24.4085 1.21777 24.3008 1.21777V55.0002Z" fill="#F27541"/>
<g id="Group">
<path id="Vector_3" d="M24.2891 14.0014C31.7975 13.8598 38.1673 20.1302 38.3004 27.7971C38.4335 35.5232 32.2433 41.895 24.4328 41.9943C16.9708 42.0873 10.5673 36.2774 10.3053 28.4901C10.037 20.4767 16.2166 14.1556 24.2891 14.0035V14.0014Z" fill="white"/>
<g id="Group_2">
<path id="Vector_4" d="M27.1047 23.3902C27.1047 24.9398 25.8485 26.196 24.2989 26.196C22.7493 26.196 21.4931 24.9398 21.4931 23.3902C21.4931 21.8406 22.7493 20.5844 24.2989 20.5844C25.8485 20.5844 27.1047 21.8406 27.1047 23.3902Z" stroke="#F27541" stroke-width="1.58"/>
<path id="Vector_5" d="M20.4752 35.4114C19.4524 35.4114 18.6168 34.6052 18.5695 33.594V33.5035C18.5695 30.961 20.6306 28.8999 23.1731 28.8999H25.421C27.9636 28.8999 30.0247 30.961 30.0247 33.5035C30.0247 34.5567 29.1699 35.4114 28.1168 35.4114H20.4752Z" stroke="#F27541" stroke-width="1.58"/>
</g>
</g>
<path id="Vector_6" d="M46.9778 10.6188V9.9766C38.1489 10.6653 30.6975 7.91251 24.7123 1.38645C24.613 1.28505 24.4081 1.10547 24.3003 1.10547C24.1926 1.10547 24.0405 1.24702 23.8884 1.38645C17.9032 7.91251 10.4539 10.6653 1.62288 9.9766V10.6188C1.62288 17.0667 1.65668 23.5167 1.60597 29.9646C1.58485 32.6477 2.2271 35.1343 3.35104 37.5322C4.83414 40.6991 7.00175 43.3527 9.54541 45.7146C13.8046 49.6696 18.7778 52.5027 24.0616 54.8329C24.1482 54.871 24.1905 54.8879 24.3003 54.8879C24.4123 54.8879 24.4546 54.871 24.5391 54.8329C29.8208 52.5027 34.794 49.6696 39.0553 45.7146C41.5989 43.3548 43.7644 40.7012 45.2496 37.5322C46.3736 35.1343 47.0158 32.6477 46.9947 29.9646C46.944 23.5167 46.9778 17.0688 46.9778 10.6188Z" stroke="#33301E" stroke-width="1.58" stroke-miterlimit="10"/>
</g>
</svg>
