<svg width="23" height="22" viewBox="0 0 23 22" fill="none" xmlns="http://www.w3.org/2000/svg">
<g id="RightCircle" clip-path="url(#clip0_1971_3916)">
<path id="Vector" d="M11.7566 0.611084C5.88996 0.611084 1.11108 5.38387 1.11108 11.2566C1.11108 17.1294 5.88385 21.9022 11.7566 21.9022C17.6294 21.9022 22.4022 17.1294 22.4022 11.2566C22.4022 5.38387 17.6294 0.611084 11.7566 0.611084ZM11.7566 20.4111C6.70885 20.4111 2.59608 16.3044 2.59608 11.2505C2.59608 6.19664 6.70274 2.08998 11.7566 2.08998C16.8105 2.08998 20.9172 6.19664 20.9172 11.2505C20.9172 16.3044 16.8105 20.4111 11.7566 20.4111Z" fill="white"/>
<path id="Vector_2" d="M16.456 11.2566C16.456 11.1589 16.4377 11.0611 16.401 10.9694C16.3704 10.9022 16.3277 10.8411 16.2788 10.78C16.2666 10.7616 16.2605 10.7433 16.2421 10.725L12.2821 6.76498C11.9949 6.47775 11.5244 6.47775 11.231 6.76498C10.9438 7.0522 10.9438 7.52276 11.231 7.81609L13.926 10.5111H7.79659C7.38714 10.5111 7.05713 10.8411 7.05713 11.2505C7.05713 11.66 7.38714 11.99 7.79659 11.99H13.926L11.231 14.685C10.9438 14.9722 10.9438 15.4428 11.231 15.7361C11.3777 15.8828 11.5671 15.9561 11.7566 15.9561C11.946 15.9561 12.1355 15.8828 12.2821 15.7361L16.2421 11.7761C16.2421 11.7761 16.2605 11.7394 16.2788 11.7211C16.3277 11.6661 16.3766 11.605 16.401 11.5316C16.4377 11.44 16.456 11.3422 16.456 11.2444V11.2566Z" fill="white"/>
</g>
<defs>
<clipPath id="clip0_1971_3916">
<rect width="22" height="22" fill="white" transform="translate(0.5)"/>
</clipPath>
</defs>
</svg>
