<svg width="17" height="16" viewBox="0 0 17 16" fill="none" xmlns="http://www.w3.org/2000/svg">
<g id="RightCircle" clip-path="url(#clip0_1958_9523)">
<path id="Vector" d="M8.68655 0.444458C4.41988 0.444458 0.944336 3.91557 0.944336 8.18668C0.944336 12.4578 4.41544 15.9289 8.68655 15.9289C12.9577 15.9289 16.4288 12.4578 16.4288 8.18668C16.4288 3.91557 12.9577 0.444458 8.68655 0.444458ZM8.68655 14.8445C5.01544 14.8445 2.02433 11.8578 2.02433 8.18224C2.02433 4.50668 5.01099 1.52002 8.68655 1.52002C12.3621 1.52002 15.3488 4.50668 15.3488 8.18224C15.3488 11.8578 12.3621 14.8445 8.68655 14.8445Z" fill="#0F85FC"/>
<path id="Vector_2" d="M12.1044 8.18664C12.1044 8.11553 12.091 8.04442 12.0643 7.97775C12.0421 7.92886 12.011 7.88442 11.9755 7.83998C11.9666 7.82664 11.9621 7.81331 11.9488 7.79997L9.06879 4.91997C8.8599 4.71108 8.5177 4.71108 8.30436 4.91997C8.09547 5.12886 8.09547 5.47108 8.30436 5.68442L10.2643 7.64442H5.80659C5.50881 7.64442 5.2688 7.88442 5.2688 8.1822C5.2688 8.47997 5.50881 8.71997 5.80659 8.71997H10.2643L8.30436 10.68C8.09547 10.8889 8.09547 11.2311 8.30436 11.4444C8.41103 11.5511 8.5488 11.6044 8.68658 11.6044C8.82436 11.6044 8.96213 11.5511 9.06879 11.4444L11.9488 8.56442C11.9488 8.56442 11.9621 8.53775 11.9755 8.52442C12.011 8.48442 12.0466 8.43997 12.0643 8.38664C12.091 8.31997 12.1044 8.24886 12.1044 8.17775V8.18664Z" fill="#0F85FC"/>
</g>
<defs>
<clipPath id="clip0_1958_9523">
<rect width="16" height="16" fill="white" transform="translate(0.5)"/>
</clipPath>
</defs>
</svg>
