<svg width="32" height="32" viewBox="0 0 32 32" fill="none" xmlns="http://www.w3.org/2000/svg">
<g id="Serve icon">
<path id="Vector" d="M8.51235 27.6347C8.34648 26.7659 8.12995 25.9318 8.03662 25.0848C7.77475 22.7035 8.47715 20.5718 9.84995 18.6475C11.3204 16.5867 13.2686 15.0747 15.4569 13.8576C16.2804 13.3995 16.7246 12.7398 16.8244 11.807C16.8862 11.2294 16.9817 10.6523 17.1124 10.0864C17.5145 8.34616 18.203 6.74883 19.4921 5.4619C19.5662 5.38776 19.6062 5.2347 19.594 5.1259C19.4777 4.1003 19.7465 3.21123 20.4889 2.4811C20.8953 2.08163 21.2905 1.66883 21.715 1.28963C22.139 0.911497 22.586 1.04056 22.7716 1.5755C22.9012 1.94776 23.0094 2.32803 23.131 2.71576C23.5145 2.48216 23.8798 2.23576 24.2665 2.0299C24.9577 1.6619 25.3534 1.8891 25.4041 2.6795C25.4345 3.15523 25.4196 3.6331 25.4446 4.10936C25.4505 4.21656 25.5166 4.34243 25.5945 4.4203C25.874 4.6987 26.1524 4.9851 26.4654 5.22243C26.9902 5.6203 27.5161 6.02776 28.0878 6.34883C28.7646 6.72856 29.4921 7.01816 30.195 7.35256C30.6526 7.57016 30.7913 7.86403 30.5662 8.31096C30.4025 8.63576 30.1492 8.91789 29.9172 9.20323C29.7369 9.42456 29.5022 9.60376 29.3358 9.83416C28.427 11.0918 27.1934 11.376 25.7524 11.0683C25.6052 11.0368 25.459 11.0027 25.3124 10.9707C25.3033 10.9686 25.2916 10.9766 25.251 10.9899C25.3497 11.5536 25.4537 12.1211 25.5486 12.6902C25.8478 14.4811 25.7422 16.247 25.4009 18.0336C24.9625 20.327 24.8089 22.6555 25.0697 24.9904C25.1033 25.2902 25.2153 25.6128 25.3844 25.8603C26.2585 27.1376 27.163 28.3942 28.0574 29.6582C28.1316 29.7627 28.2148 29.8614 28.282 29.9696C28.5476 30.399 28.314 30.895 27.8158 30.903C26.6878 30.9211 25.5593 30.9099 24.4313 30.9088C24.1524 30.9088 23.9785 30.7494 23.8697 30.5094C22.9417 28.4662 22.0089 26.4256 21.0974 24.3755C20.9908 24.1355 20.8905 24.0368 20.6249 24.047C20.0692 24.0683 19.5124 24.0534 18.9438 24.0534C18.9182 24.6235 18.9289 25.1691 18.8601 25.7046C18.7924 26.2299 18.6441 26.7451 18.5252 27.2918C18.5838 27.3163 18.6766 27.3568 18.7705 27.3936C19.9246 27.8507 20.6718 28.9584 20.6606 30.1979C20.6564 30.6784 20.4393 30.9094 19.9593 30.9104C17.6793 30.9142 15.3988 30.9563 13.1204 30.8966C11.6089 30.8571 10.4014 30.0955 9.43822 28.9526C9.27822 28.7627 9.15288 28.7264 8.91342 28.7776C6.02008 29.3995 3.62968 28.12 2.38808 25.2944C1.74808 23.8384 1.46382 22.2971 1.33102 20.7232C1.29102 20.2523 1.50115 19.9686 1.87235 19.9392C2.24088 19.9099 2.47822 20.1728 2.52195 20.6406C2.66382 22.1547 2.91395 23.6454 3.58328 25.0283C4.21475 26.3328 5.13902 27.3152 6.61528 27.6395C7.26808 27.783 7.92195 27.7771 8.51235 27.6352V27.6347ZM23.5929 7.88003C24.114 7.88856 24.5561 7.45443 24.5566 6.93496C24.5566 6.42936 24.1342 6.00163 23.626 5.99363C23.1065 5.9851 22.69 6.38296 22.6745 6.90243C22.659 7.44109 23.0633 7.87149 23.5929 7.88056V7.88003Z" fill="#F27541"/>
<path id="Vector_2" d="M9.61781 4.40368C10.3506 4.91462 11.0637 5.41222 11.7773 5.90982C12.2066 6.20902 12.6397 6.50342 13.0647 6.80902C13.4178 7.06288 13.4967 7.38022 13.2989 7.67622C13.0914 7.98662 12.7431 8.03462 12.3837 7.78555C11.2466 6.99782 10.1127 6.20528 8.93514 5.38448C8.61087 5.85168 8.29674 6.30395 7.96501 6.78182C8.83221 7.38822 9.67754 7.97968 10.5229 8.57062C10.8087 8.77062 11.0973 8.96688 11.381 9.17008C11.7533 9.43675 11.8471 9.79462 11.6295 10.0895C11.4135 10.3823 11.0711 10.4117 10.7031 10.1557C9.66207 9.43248 8.62367 8.70448 7.58367 7.97915C7.49034 7.91408 7.39274 7.85488 7.27007 7.77542C6.95167 8.23728 6.64394 8.68475 6.32021 9.15355C6.41354 9.22822 6.48874 9.29488 6.57034 9.35195C7.62901 10.0911 8.68927 10.8277 9.74687 11.5685C10.0749 11.7983 10.1709 12.1205 10.013 12.4079C9.82421 12.7514 9.44021 12.809 9.05087 12.5391C8.07541 11.8639 7.10367 11.1834 6.12981 10.5055C5.96874 10.3935 5.80607 10.2831 5.61994 10.1551C5.29727 10.6213 4.98741 11.0682 4.66261 11.5375C4.75327 11.6085 4.82901 11.6746 4.91114 11.7317C5.95967 12.465 7.00981 13.1962 8.05727 13.9306C8.44821 14.2047 8.54154 14.5354 8.32554 14.8442C8.11221 15.1493 7.75914 15.1775 7.37514 14.9114C6.34314 14.1957 5.31327 13.4762 4.28234 12.7583C4.18794 12.6927 4.09141 12.6309 3.96661 12.5471C3.76927 12.8346 3.56181 13.0991 3.39647 13.3877C3.17621 13.7717 3.29674 14.1461 3.71167 14.4373C4.57781 15.0453 5.44821 15.6474 6.31701 16.2527C6.39327 16.3061 6.47274 16.3557 6.54261 16.417C6.80341 16.6447 6.85247 16.9701 6.67007 17.2293C6.49087 17.4837 6.15114 17.5578 5.86261 17.3877C5.67274 17.2757 5.49674 17.1402 5.31541 17.0143C4.55167 16.4831 3.78634 15.9535 3.02474 15.4186C2.01194 14.7077 1.80287 13.5711 2.50901 12.5503C4.70847 9.37275 6.91167 6.19782 9.11754 3.02502C9.81461 2.02182 10.9517 1.80848 11.9538 2.49488C12.8845 3.13222 13.8077 3.78128 14.7287 4.43302C15.1202 4.71035 15.1666 5.12902 14.8573 5.40902C14.6253 5.61915 14.3533 5.62075 14.0295 5.39622C13.1693 4.79995 12.3127 4.19782 11.4546 3.59888C10.7815 3.12902 10.4562 3.18822 9.98474 3.86715C9.86634 4.03782 9.75061 4.20955 9.61834 4.40368H9.61781Z" fill="#F27541"/>
</g>
</svg>
