<svg width="34" height="34" viewBox="0 0 34 34" fill="none" xmlns="http://www.w3.org/2000/svg">
<path id="Mask" fill-rule="evenodd" clip-rule="evenodd" d="M31.9952 15.2902H32.0002C32.9186 15.2902 33.6652 16.0335 33.6669 16.9519C33.6802 21.4035 31.9586 25.5952 28.8186 28.7519C25.6802 31.9085 21.5002 33.6535 17.0486 33.6669H17.0002C12.5652 33.6669 8.39357 31.9469 5.24857 28.8185C2.09191 25.6802 0.346906 21.5002 0.333573 17.0485C0.32024 12.5952 2.04191 8.4052 5.18191 5.24854C8.32024 2.09187 12.5002 0.346871 16.9519 0.333538C18.2769 0.353538 19.6269 0.486871 20.9202 0.796871C21.8136 1.01354 22.3652 1.91354 22.1486 2.80854C21.9336 3.70187 21.0286 4.25187 20.1386 4.03854C19.1036 3.78854 18.0052 3.68354 16.9619 3.66687C13.4002 3.67687 10.0552 5.07354 7.54524 7.59854C5.03357 10.1235 3.65691 13.4769 3.66691 17.0385C3.67691 20.6002 5.07357 23.9435 7.59857 26.4552C10.1152 28.9569 13.4519 30.3335 17.0002 30.3335H17.0386C20.6002 30.3235 23.9452 28.9269 26.4552 26.4019C28.9669 23.8752 30.3436 20.5235 30.3336 16.9619C30.3319 16.0419 31.0752 15.2919 31.9952 15.2902ZM10.8218 15.8217C11.4735 15.1701 12.5268 15.1701 13.1785 15.8217L16.9185 19.5617L27.4135 7.5684C28.0201 6.88007 29.0718 6.80673 29.7651 7.4134C30.4568 8.0184 30.5268 9.07173 29.9201 9.76507L18.2535 23.0984C17.9501 23.4451 17.5168 23.6501 17.0551 23.6667H17.0001C16.5585 23.6667 16.1351 23.4917 15.8218 23.1784L10.8218 18.1784C10.1701 17.5267 10.1701 16.4734 10.8218 15.8217Z" fill="#45B919"/>
</svg>
