<svg width="10" height="10" viewBox="0 0 10 10" fill="none" xmlns="http://www.w3.org/2000/svg">
<g id="Close">
<path id="Vector" d="M8.13924 8.61136C8.01886 8.61136 7.89849 8.56426 7.80429 8.47529L4.99914 5.67014L2.19399 8.47529C2.01081 8.65847 1.7125 8.65847 1.52933 8.47529C1.34616 8.29212 1.34616 7.99381 1.52933 7.81064L4.33448 5.00025L1.5241 2.1951C1.34093 2.01193 1.34093 1.71362 1.5241 1.52521C1.70727 1.33681 2.01081 1.34204 2.19399 1.52521L4.99914 4.3356L7.80429 1.52521C7.98746 1.34204 8.28577 1.34204 8.46895 1.52521C8.65212 1.70839 8.65212 2.00669 8.46895 2.18987L5.66379 4.99502L8.46895 7.80017C8.65212 7.98335 8.65212 8.28165 8.46895 8.46483C8.37474 8.55903 8.25437 8.6009 8.134 8.6009L8.13924 8.61136Z" fill="black"/>
</g>
</svg>
