<svg width="24" height="20" viewBox="0 0 24 20" fill="none" xmlns="http://www.w3.org/2000/svg">
<path id="Vector (Stroke)" fill-rule="evenodd" clip-rule="evenodd" d="M11.2485 0.0837019C11.5038 -0.0278903 11.7941 -0.027901 12.0494 0.0836722C15.7624 1.7062 19.3041 3.69522 22.622 6.02116C22.939 6.24334 23.0992 6.62845 23.0335 7.00987C22.9677 7.39129 22.6878 7.70052 22.3148 7.80376C21.6998 7.97398 21.089 8.15576 20.4835 8.34842C20.702 10.2172 20.8345 12.0952 20.8807 13.9765C20.8908 14.3887 20.6469 14.7648 20.2664 14.9238C17.4465 16.1015 14.7464 17.5479 12.2037 19.2431C11.8678 19.467 11.4302 19.467 11.0943 19.243C9.63433 18.2697 8.12254 17.3783 6.56597 16.5727C6.24288 17.1733 5.83289 17.7245 5.34824 18.208C4.95723 18.598 4.32407 18.5972 3.93403 18.2062C3.54398 17.8152 3.54476 17.1821 3.93577 16.792C4.26405 16.4646 4.54432 16.0935 4.76911 15.6901C4.19563 15.4232 3.61667 15.1677 3.03256 14.9237C2.65211 14.7648 2.4082 14.3887 2.4183 13.9765C2.46443 12.0953 2.59695 10.2175 2.81541 8.34876C2.20847 8.15576 1.59784 7.97445 0.983865 7.80493C0.61068 7.7019 0.330496 7.39272 0.264596 7.01122C0.198696 6.62972 0.358921 6.24446 0.675916 6.0222C3.99379 3.69593 7.53554 1.70657 11.2485 0.0837019ZM4.25906 6.71704C4.23908 6.70959 4.21877 6.70276 4.19815 6.69656C3.98626 6.62547 3.77391 6.55575 3.56113 6.48743C6.13764 4.8144 8.84181 3.34502 11.649 2.09311C14.4565 3.34489 17.1609 4.81417 19.7377 6.48715C19.5149 6.55873 19.2928 6.63171 19.0715 6.70608C16.5191 7.56432 14.0367 8.62067 11.649 9.86527C10.7385 9.39073 9.8144 8.94356 8.87791 8.52429C9.92696 7.93139 10.9956 7.37342 12.0821 6.85134C12.5799 6.61214 12.7895 6.01469 12.5503 5.51689C12.3111 5.01909 11.7137 4.80946 11.2159 5.04866C9.6281 5.81162 8.07706 6.64851 6.56788 7.55655C5.8053 7.25857 5.03548 6.97864 4.25906 6.71704ZM4.75338 9.00937C4.59539 10.4514 4.49025 11.8988 4.43816 13.3486C4.75152 13.4846 5.06341 13.6239 5.37378 13.7663C5.39079 13.5979 5.39925 13.4284 5.399 13.2584L5.399 13.1931C5.31471 13.1345 5.23519 13.0681 5.16156 12.9944C4.83338 12.6662 4.649 12.2211 4.649 11.757C4.649 11.2929 4.83338 10.8478 5.16156 10.5196C5.23519 10.4459 5.31471 10.3795 5.399 10.3209V9.24949C5.18437 9.16796 4.96916 9.08792 4.75338 9.00937ZM7.399 10.0592V10.3209C7.4833 10.3795 7.56281 10.4459 7.63644 10.5196C7.96463 10.8478 8.149 11.2929 8.149 11.757C8.149 12.2211 7.96463 12.6662 7.63644 12.9944C7.56281 13.0681 7.4833 13.1345 7.399 13.1931V13.2563L7.3004 13.257M7.399 10.0592C8.68303 10.6118 9.94374 11.2186 11.1777 11.878C11.4722 12.0354 11.8259 12.0353 12.1204 11.8779C14.1917 10.7709 16.3393 9.81223 18.5456 9.00905C18.7036 10.4512 18.8087 11.8986 18.8608 13.3486C16.3546 14.4364 13.9424 15.7295 11.649 17.2145C10.2279 16.2942 8.76114 15.4476 7.25465 14.6779" fill="#3D3C29"/>
</svg>
