<svg width="20" height="20" viewBox="0 0 20 20" fill="none" xmlns="http://www.w3.org/2000/svg">
<g id="Frame">
<path id="Vector" fill-rule="evenodd" clip-rule="evenodd" d="M9.66413 1.31873C9.76843 1.26647 9.88348 1.23926 10.0001 1.23926C10.1168 1.23926 10.2318 1.26647 10.3361 1.31873C13.2761 2.79192 16.0285 4.61296 18.5341 6.74273C18.6359 6.82916 18.7127 6.94119 18.7567 7.06725C18.8007 7.19331 18.8103 7.32882 18.7844 7.4598C18.7585 7.59078 18.6981 7.71247 18.6095 7.81231C18.5208 7.91215 18.4071 7.98652 18.2801 8.02773C15.4942 8.93125 12.8485 10.2204 10.4201 11.8577C10.2961 11.9416 10.1498 11.9864 10.0001 11.9864C9.85043 11.9864 9.70416 11.9416 9.58013 11.8577C8.90372 11.402 8.20986 10.9726 7.50013 10.5707V9.39373C7.50013 9.14973 7.61613 8.93073 7.80213 8.80173C8.86592 8.06433 9.96923 7.38565 11.1071 6.76873C11.2791 6.67249 11.4063 6.51241 11.4612 6.32311C11.5161 6.13382 11.4943 5.93053 11.4004 5.75721C11.3066 5.58388 11.1483 5.45446 10.9598 5.39692C10.7713 5.33938 10.5678 5.35835 10.3931 5.44973C9.20666 6.09302 8.05627 6.80075 6.94713 7.56973C6.65386 7.77459 6.41454 8.04741 6.24963 8.36487C6.08471 8.68233 5.99911 9.035 6.00013 9.39273V9.77273C4.61846 9.08601 3.18789 8.50242 1.72013 8.02673C1.59314 7.98552 1.47945 7.91115 1.39081 7.81131C1.30217 7.71147 1.24179 7.58978 1.2159 7.4588C1.19001 7.32782 1.19955 7.19231 1.24354 7.06625C1.28753 6.94019 1.36437 6.82816 1.46613 6.74173C3.97173 4.61196 6.72412 2.79092 9.66413 1.31773V1.31873ZM6.00013 11.4587C5.19978 11.0357 4.3806 10.6493 3.54513 10.3007C3.37547 11.3334 3.24537 12.3721 3.15513 13.4147C3.14185 13.566 3.1748 13.7177 3.24962 13.8499C3.32443 13.982 3.43759 14.0883 3.57413 14.1547C4.10213 14.4107 4.62013 14.6847 5.12813 14.9747C4.91813 15.2987 4.67313 15.6047 4.38913 15.8887C4.31545 15.9574 4.25634 16.0402 4.21535 16.1322C4.17436 16.2242 4.15232 16.3235 4.15054 16.4242C4.14876 16.5249 4.16729 16.6249 4.20501 16.7183C4.24273 16.8117 4.29888 16.8966 4.37009 16.9678C4.44131 17.039 4.52615 17.0951 4.61953 17.1329C4.71292 17.1706 4.81295 17.1891 4.91365 17.1873C5.01436 17.1855 5.11367 17.1635 5.20567 17.1225C5.29767 17.0815 5.38047 17.0224 5.44913 16.9487C5.81913 16.5797 6.13913 16.1787 6.40913 15.7557C7.49663 16.4619 8.53105 17.2467 9.50413 18.1037C9.64113 18.2245 9.81749 18.2912 10.0001 18.2912C10.1828 18.2912 10.3591 18.2245 10.4961 18.1037C12.2863 16.5266 14.2809 15.1979 16.4261 14.1537C16.5627 14.0875 16.6759 13.9814 16.7509 13.8495C16.8259 13.7175 16.8591 13.5659 16.8461 13.4147C16.7559 12.3721 16.6258 11.3334 16.4561 10.3007C14.635 11.0607 12.8935 11.9989 11.2571 13.1017C10.8857 13.3519 10.448 13.4856 10.0001 13.4856C9.55227 13.4856 9.11459 13.3519 8.74313 13.1017C8.33313 12.8267 7.91713 12.5607 7.49313 12.3047C7.44092 13.53 7.06705 14.7208 6.40913 15.7557C5.98958 15.4837 5.5624 15.2226 5.12813 14.9747C5.69873 14.0875 6.00148 13.0546 6.00013 11.9997V11.4597V11.4587Z" fill="#B77F2C"/>
</g>
</svg>
