<svg width="32" height="32" viewBox="0 0 32 32" fill="none" xmlns="http://www.w3.org/2000/svg">
<g id="icon">
<path id="Union" fill-rule="evenodd" clip-rule="evenodd" d="M29.3418 3.38929C27.6319 1.95249 24.0474 1.55196 22.4549 4.26982L22.4543 4.26929C21.4986 2.50076 19.5045 1.99142 17.7349 2.38716C15.8559 2.80742 14.5925 3.95249 14.0426 5.78396C13.4645 7.70822 13.9263 9.43889 15.3327 10.8714C17.0323 12.6026 18.7533 14.3127 20.4743 16.0229C20.7845 16.3311 21.0947 16.6393 21.4047 16.9477C22.0874 17.6261 22.8469 17.625 23.5343 16.9605C23.9129 16.5947 24.2839 16.2208 24.6548 15.8468C24.7939 15.7066 24.933 15.5664 25.0725 15.4266C25.5523 14.9455 26.036 14.4679 26.5197 13.9903C27.6289 12.895 28.7382 11.7996 29.8015 10.6613C31.7658 8.55836 31.5146 5.21489 29.3418 3.38929ZM0.867662 21.4282V16.0159C0.867662 15.4596 1.07779 15.2522 1.64206 15.249C3.27886 15.2399 4.88686 15.4287 6.441 15.9684C7.18286 16.226 7.49486 16.802 7.28366 17.5487C6.41166 20.634 5.53486 23.7183 4.65753 26.802C4.54339 27.2036 4.3626 27.3354 3.93646 27.337C3.05646 27.3396 2.17699 27.3396 1.29699 27.337C0.948195 27.3359 0.868195 27.2527 0.867662 26.897C0.86695 25.6817 0.867187 24.4664 0.867425 23.2511L0.867662 21.4282ZM9.19394 17.4587C10.2329 17.5403 11.2782 17.6987 12.2569 18.1259C12.8782 18.3973 13.4894 18.7056 14.0675 19.0587C14.5902 19.3776 15.1427 19.5173 15.7347 19.6245C16.6521 19.7899 17.5673 19.9925 18.4601 20.2571C18.8795 20.3815 19.2661 20.6568 19.6303 20.9164L19.6304 20.9164L19.6339 20.9189C19.9737 21.1605 20.1705 21.5269 20.2249 21.9493C20.331 22.7707 19.9966 23.2939 19.1998 23.5397C18.4142 23.7819 17.6057 23.7451 16.8067 23.6619C15.8707 23.5649 14.937 23.447 14.0063 23.3294C13.6107 23.2794 13.2156 23.2295 12.8211 23.1813C12.8179 23.1771 12.8313 23.2059 12.8542 23.2197C14.1705 24.0213 15.547 24.6677 17.0899 24.9051C17.9358 25.0352 18.7587 24.9211 19.5443 24.6277C20.2609 24.3602 20.9714 24.0764 21.6819 23.7927C22.4092 23.5022 23.1364 23.2117 23.8702 22.9387C24.8414 22.5776 25.8286 22.2491 26.8281 21.9776C27.5571 21.7797 28.2969 21.8864 28.979 22.2373C29.4542 22.4816 29.7806 22.8512 29.9033 23.3909C29.971 23.6891 29.9209 23.9429 29.691 24.1349C29.6098 24.2027 29.5291 24.2715 29.4483 24.3404L29.4482 24.3405C29.1401 24.6032 28.8309 24.8667 28.4899 25.0784C25.3587 27.0208 22.0361 28.5333 18.4686 29.4971C17.0627 29.8768 15.6825 29.7776 14.2974 29.4112C11.6761 28.7173 9.18808 27.6704 6.71981 26.5701C6.70432 26.5631 6.69095 26.5513 6.67165 26.5343C6.66039 26.5244 6.64711 26.5128 6.63021 26.4992L9.19287 17.4581L9.19394 17.4587Z" fill="#F27541"/>
</g>
</svg>
