<svg width="18" height="20" viewBox="0 0 18 20" fill="none" xmlns="http://www.w3.org/2000/svg">
<path id="Mask" fill-rule="evenodd" clip-rule="evenodd" d="M9 2.14651L2 6.08451V6.22951C2 10.9695 4.566 15.3585 8.698 17.6835L9 17.8535L9.302 17.6835C13.434 15.3585 16 10.9695 16 6.22951V6.08451L9 2.14651ZM9 19.8505C8.661 19.8505 8.322 19.7665 8.021 19.5965L7.718 19.4255C2.957 16.7485 0 11.6915 0 6.2295V6.0845C0 5.3655 0.39 4.6975 1.018 4.3425L8.02 0.404503C8.625 0.0645026 9.376 0.0635026 9.979 0.403503L16.98 4.3415C17.61 4.6975 18 5.3655 18 6.0845V6.2295C18 11.6915 15.043 16.7485 10.282 19.4255L9.98 19.5955C9.678 19.7655 9.339 19.8505 9 19.8505Z" fill="#3D3C29"/>
</svg>
