<svg width="20" height="20" viewBox="0 0 20 20" fill="none" xmlns="http://www.w3.org/2000/svg">
<path id="Vector" d="M19.2838 7.27552L13.333 6.41068L10.6728 1.01771C10.6002 0.87005 10.4806 0.750518 10.333 0.677862C9.96267 0.49505 9.51267 0.647393 9.32751 1.01771L6.66735 6.41068L0.716572 7.27552C0.55251 7.29896 0.40251 7.3763 0.287666 7.49349C0.148826 7.63619 0.0723193 7.82818 0.0749561 8.02726C0.0775929 8.22634 0.159158 8.41623 0.301728 8.55521L4.6072 12.7529L3.59001 18.6802C3.56616 18.8181 3.58141 18.9599 3.63405 19.0896C3.68669 19.2192 3.77461 19.3315 3.88783 19.4137C4.00105 19.496 4.13504 19.5448 4.27462 19.5548C4.41419 19.5647 4.55377 19.5354 4.67751 19.4701L10.0002 16.6716L15.3228 19.4701C15.4681 19.5474 15.6369 19.5732 15.7986 19.5451C16.2064 19.4747 16.4806 19.088 16.4103 18.6802L15.3931 12.7529L19.6986 8.55521C19.8158 8.44036 19.8931 8.29036 19.9166 8.1263C19.9799 7.71614 19.6939 7.33646 19.2838 7.27552Z" fill="#FFC658"/>
</svg>
