<svg width="15" height="18" viewBox="0 0 15 18" fill="none" xmlns="http://www.w3.org/2000/svg">
<path id="Mask" fill-rule="evenodd" clip-rule="evenodd" d="M9.75 4C9.75 2.897 8.853 2 7.75 2C6.647 2 5.75 2.897 5.75 4C5.75 5.103 6.647 6 7.75 6C8.853 6 9.75 5.103 9.75 4ZM11.75 4C11.75 6.206 9.956 8 7.75 8C5.544 8 3.75 6.206 3.75 4C3.75 1.794 5.544 0 7.75 0C9.956 0 11.75 1.794 11.75 4ZM0.75 17C0.75 13.14 3.891 10 7.75 10C11.609 10 14.75 13.14 14.75 17C14.75 17.552 14.303 18 13.75 18C13.197 18 12.75 17.552 12.75 17C12.75 14.243 10.507 12 7.75 12C4.993 12 2.75 14.243 2.75 17C2.75 17.552 2.303 18 1.75 18C1.197 18 0.75 17.552 0.75 17Z" fill="#3D3C29"/>
</svg>
