<svg width="50" height="50" viewBox="0 0 50 50" fill="none" xmlns="http://www.w3.org/2000/svg">
<g id="User">
<path id="Vector" d="M35.7287 24.8502C35.0561 24.4103 34.3268 24.0407 33.621 23.6849C33.3844 23.5656 33.1419 23.4424 32.9034 23.3192C35.4921 21.1626 37.0231 18.2277 37.2225 15.0231C37.4278 11.75 36.2488 8.54336 33.9866 6.22638C31.8593 4.04823 29.0124 2.82424 25.9681 2.77927C22.9198 2.73038 20.0085 3.88203 17.7658 6.00348C15.4449 8.19728 14.1447 11.4919 14.2835 14.8119C14.4223 18.1026 15.965 21.1235 18.6339 23.3525L18.3641 23.4815C11.0866 26.9384 7.24651 32.6986 6.94931 40.6056C6.88284 42.3712 7.5007 44.0234 8.68949 45.2611C9.89197 46.5125 11.5461 47.2046 13.345 47.2085C17.5331 47.2183 21.69 47.2222 25.7882 47.2222C29.8864 47.2222 34.1489 47.2183 38.2041 47.2085C39.9579 47.2046 41.5847 46.5281 42.7833 45.3022C43.9701 44.0919 44.6056 42.4749 44.5723 40.7503C44.4472 33.9656 41.4693 28.6141 35.7268 24.8502H35.7287ZM18.0552 14.2996C18.0434 12.2603 18.8353 10.3324 20.2861 8.86988C21.7369 7.40735 23.6589 6.59592 25.7022 6.58615C25.7139 6.58615 25.7276 6.58615 25.7393 6.58615C27.806 6.58615 29.7476 7.38585 31.2082 8.84056C32.6648 10.2914 33.4665 12.2173 33.4645 14.2664C33.4626 18.4858 30.0135 21.929 25.7745 21.9427H25.7511C21.5297 21.9427 18.0786 18.5191 18.0532 14.2977L18.0552 14.2996ZM29.3253 43.4016C28.1404 43.4016 26.9574 43.3997 25.7726 43.3997H23.217C20.0573 43.4036 16.8957 43.4036 13.736 43.3997C12.7017 43.3997 11.9274 43.1318 11.4308 42.6098C10.9361 42.0877 10.7132 41.3037 10.766 40.2771C11.1297 33.2754 15.5837 27.8691 22.39 26.168C26.3161 25.1865 30.5864 25.9764 34.1078 28.3344C37.6194 30.6866 39.9677 34.3214 40.5523 38.3063C40.6677 39.0923 40.7381 39.8626 40.7635 40.59C40.7909 41.4171 40.5504 42.119 40.0674 42.6215C39.5845 43.122 38.8923 43.3899 38.0672 43.3938C35.1539 43.4056 32.1917 43.4036 29.3253 43.4016Z" fill="#33301E"/>
</g>
</svg>
