<svg width="17" height="16" viewBox="0 0 17 16" fill="none" xmlns="http://www.w3.org/2000/svg">
<g id="Icon">
<path id="Vector (Stroke)" fill-rule="evenodd" clip-rule="evenodd" d="M2.58579 2.75278C2.96086 2.37771 3.46957 2.16699 4 2.16699H13C13.5304 2.16699 14.0391 2.37771 14.4142 2.75278C14.7893 3.12785 15 3.63656 15 4.16699V12.167C15 12.6974 14.7893 13.2061 14.4142 13.5812C14.0391 13.9563 13.5304 14.167 13 14.167H4C3.46957 14.167 2.96086 13.9563 2.58579 13.5812C2.21071 13.2061 2 12.6974 2 12.167V4.16699C2 3.63656 2.21071 3.12785 2.58579 2.75278ZM3 4.43494V4.16699C3 3.90178 3.10536 3.64742 3.29289 3.45989C3.48043 3.27235 3.73478 3.16699 4 3.16699H13C13.2652 3.16699 13.5196 3.27235 13.7071 3.45989C13.8946 3.64742 14 3.90178 14 4.16699V4.43494C13.6985 4.2609 13.3541 4.16699 13 4.16699H4C3.64588 4.16699 3.30145 4.2609 3 4.43494ZM14 6.16699C14 5.90178 13.8946 5.64742 13.7071 5.45989C13.5196 5.27235 13.2652 5.16699 13 5.16699H4C3.73478 5.16699 3.48043 5.27235 3.29289 5.45989C3.10536 5.64742 3 5.90178 3 6.16699V6.43494C3.30145 6.2609 3.64588 6.16699 4 6.16699H6.5C6.77614 6.16699 7 6.39085 7 6.66699C7 7.06482 7.15804 7.44635 7.43934 7.72765C7.72064 8.00896 8.10217 8.16699 8.5 8.16699C8.89783 8.16699 9.27936 8.00896 9.56066 7.72765C9.84196 7.44635 10 7.06482 10 6.66699C10 6.39085 10.2239 6.16699 10.5 6.16699H13C13.3541 6.16699 13.6985 6.2609 14 6.43494V6.16699ZM14 8.16699C14 7.90178 13.8946 7.64742 13.7071 7.45989C13.5196 7.27235 13.2652 7.16699 13 7.16699H10.9495C10.8522 7.64371 10.617 8.08557 10.2678 8.43476C9.79893 8.9036 9.16304 9.16699 8.5 9.16699C7.83696 9.16699 7.20107 8.9036 6.73223 8.43476C6.38304 8.08557 6.14782 7.64371 6.0505 7.16699H4C3.73478 7.16699 3.48043 7.27235 3.29289 7.45989C3.10536 7.64742 3 7.90178 3 8.16699V12.167C3 12.4322 3.10536 12.6866 3.29289 12.8741C3.48043 13.0616 3.73478 13.167 4 13.167H13C13.2652 13.167 13.5196 13.0616 13.7071 12.8741C13.8946 12.6866 14 12.4322 14 12.167V8.16699Z" fill="#858378"/>
</g>
</svg>
