<svg width="12" height="12" viewBox="0 0 12 12" fill="none" xmlns="http://www.w3.org/2000/svg" class="group-hover:fill-orange-500"  >
      <g clip-path="url(#clip0_2954_2758)">
        <g clip-path="url(#clip1_2954_2758)">
          <path d="M3.19213 10.3631C3.12993 10.0373 3.04873 9.72452 3.01373 9.40692C2.91553 8.51392 3.17893 7.71452 3.69373 6.99292C4.24513 6.22012 4.97573 5.65312 5.79633 5.19672C6.10513 5.02492 6.27173 4.77752 6.30913 4.42772C6.33233 4.21112 6.36813 3.99472 6.41713 3.78252C6.56793 3.12992 6.82613 2.53092 7.30953 2.04832C7.33733 2.02052 7.35233 1.96312 7.34773 1.92232C7.30413 1.53772 7.40493 1.20432 7.68333 0.930518C7.83573 0.780718 7.98393 0.625918 8.14313 0.483718C8.30213 0.341918 8.46973 0.390318 8.53933 0.590918C8.58793 0.730518 8.62853 0.873118 8.67413 1.01852C8.81793 0.930918 8.95493 0.838518 9.09993 0.761318C9.35913 0.623318 9.50753 0.708518 9.52653 1.00492C9.53793 1.18332 9.53233 1.36252 9.54173 1.54112C9.54393 1.58132 9.56873 1.62852 9.59793 1.65772C9.70273 1.76212 9.80713 1.86952 9.92453 1.95852C10.1213 2.10772 10.3185 2.26052 10.5329 2.38092C10.7867 2.52332 11.0595 2.63192 11.3231 2.75732C11.4947 2.83892 11.5467 2.94912 11.4623 3.11672C11.4009 3.23852 11.3059 3.34432 11.2189 3.45132C11.1513 3.53432 11.0633 3.60152 11.0009 3.68792C10.6601 4.15952 10.1975 4.26612 9.65713 4.15072C9.60193 4.13892 9.54713 4.12612 9.49213 4.11412C9.48873 4.11332 9.48433 4.11632 9.46913 4.12132C9.50613 4.33272 9.54513 4.54552 9.58073 4.75892C9.69293 5.43052 9.65333 6.09272 9.52533 6.76272C9.36093 7.62272 9.30333 8.49592 9.40113 9.37152C9.41373 9.48392 9.45573 9.60492 9.51913 9.69772C9.84693 10.1767 10.1861 10.6479 10.5215 11.1219C10.5493 11.1611 10.5805 11.1981 10.6057 11.2387C10.7053 11.3997 10.6177 11.5857 10.4309 11.5887C10.0079 11.5955 9.58473 11.5913 9.16173 11.5909C9.05713 11.5909 8.99193 11.5311 8.95113 11.4411C8.60313 10.6749 8.25333 9.90972 7.91153 9.14092C7.87153 9.05092 7.83393 9.01392 7.73433 9.01772C7.52593 9.02572 7.31713 9.02012 7.10393 9.02012C7.09433 9.23392 7.09833 9.43852 7.07253 9.63932C7.04713 9.83632 6.99153 10.0295 6.94693 10.2345C6.96893 10.2437 7.00373 10.2589 7.03893 10.2727C7.47173 10.4441 7.75193 10.8595 7.74773 11.3243C7.74613 11.5045 7.66473 11.5911 7.48473 11.5915C6.62973 11.5929 5.77453 11.6087 4.92013 11.5863C4.35333 11.5715 3.90053 11.2859 3.53933 10.8573C3.47933 10.7861 3.43233 10.7725 3.34253 10.7917C2.25753 11.0249 1.36113 10.5451 0.895531 9.48552C0.655531 8.93952 0.548931 8.36152 0.499131 7.77132C0.484131 7.59472 0.562931 7.48832 0.702131 7.47732C0.840331 7.46632 0.929331 7.56492 0.945731 7.74032C0.998931 8.30812 1.09273 8.86712 1.34373 9.38572C1.58053 9.87492 1.92713 10.2433 2.48073 10.3649C2.72553 10.4187 2.97073 10.4165 3.19213 10.3633V10.3631ZM8.84733 2.95512C9.04273 2.95832 9.20853 2.79552 9.20873 2.60072C9.20873 2.41112 9.05033 2.25072 8.85973 2.24772C8.66493 2.24452 8.50873 2.39372 8.50293 2.58852C8.49713 2.79052 8.64873 2.95192 8.84733 2.95532V2.95512Z"  fill="currentColor"  />
          <path d="M3.60692 1.65134C3.88172 1.84294 4.14912 2.02954 4.41672 2.21614C4.57772 2.32834 4.74012 2.43874 4.89952 2.55334C5.03192 2.64854 5.06152 2.76754 4.98732 2.87854C4.90952 2.99494 4.77892 3.01294 4.64412 2.91954C4.21772 2.62414 3.79252 2.32694 3.35092 2.01914C3.22932 2.19434 3.11152 2.36394 2.98712 2.54314C3.31232 2.77054 3.62932 2.99234 3.94632 3.21394C4.05352 3.28893 4.16172 3.36254 4.26812 3.43874C4.40772 3.53874 4.44292 3.67293 4.36132 3.78353C4.28032 3.89333 4.15192 3.90434 4.01392 3.80833C3.62352 3.53713 3.23412 3.26414 2.84412 2.99214C2.80912 2.96774 2.77252 2.94553 2.72652 2.91574C2.60712 3.08893 2.49172 3.25674 2.37032 3.43254C2.40532 3.46054 2.43352 3.48554 2.46412 3.50694C2.86112 3.78414 3.25872 4.06033 3.65532 4.33814C3.77832 4.42434 3.81432 4.54513 3.75512 4.65293C3.68432 4.78173 3.54032 4.80333 3.39432 4.70213C3.02852 4.44893 2.66412 4.19373 2.29892 3.93953C2.23852 3.89753 2.17752 3.85614 2.10772 3.80814C1.98672 3.98293 1.87052 4.15053 1.74872 4.32653C1.78272 4.35313 1.81112 4.37793 1.84192 4.39933C2.23512 4.67433 2.62892 4.94853 3.02172 5.22394C3.16832 5.32674 3.20332 5.45073 3.12232 5.56653C3.04232 5.68093 2.90992 5.69153 2.76592 5.59173C2.37892 5.32333 1.99272 5.05353 1.60612 4.78433C1.57072 4.75973 1.53452 4.73653 1.48772 4.70513C1.41372 4.81293 1.33592 4.91213 1.27392 5.02033C1.19132 5.16433 1.23652 5.30473 1.39212 5.41393C1.71692 5.64193 2.04332 5.86773 2.36912 6.09473C2.39772 6.11473 2.42752 6.13333 2.45372 6.15633C2.55152 6.24173 2.56992 6.36373 2.50152 6.46093C2.43432 6.55633 2.30692 6.58413 2.19872 6.52033C2.12752 6.47833 2.06152 6.42753 1.99352 6.38033C1.70712 6.18113 1.42012 5.98253 1.13452 5.78193C0.754721 5.51533 0.676321 5.08913 0.941121 4.70633C1.76592 3.51474 2.59212 2.32414 3.41932 1.13434C3.68072 0.758136 4.10712 0.678136 4.48292 0.935536C4.83192 1.17454 5.17812 1.41794 5.52352 1.66234C5.67032 1.76634 5.68772 1.92334 5.57172 2.02834C5.48472 2.10714 5.38272 2.10774 5.26132 2.02354C4.93872 1.79994 4.61752 1.57414 4.29572 1.34954C4.04332 1.17334 3.92132 1.19554 3.74452 1.45014C3.70012 1.51414 3.65672 1.57854 3.60712 1.65134H3.60692Z" class="group-hover:fill-orange-500" fill="currentColor" />
        </g>
      </g>
      <defs>
        <clipPath id="clip0_2954_2758">
          <rect width="12" height="12" fill="white"/>
        </clipPath>
        <clipPath id="clip1_2954_2758">
          <rect width="12" height="12" fill="white"/>
        </clipPath>
      </defs>
    </svg>