<svg width="20" height="20" viewBox="0 0 20 20" fill="none" xmlns="http://www.w3.org/2000/svg" class="hover:fill-orange-500">
    <g id="icon">
        <path id="Vector" d="M18.338 2.11835C17.2694 1.22035 15.029 0.970019 14.0337 2.66869L14.0334 2.66835C13.436 1.56302 12.1897 1.24469 11.0837 1.49202C9.90935 1.75469 9.11969 2.47035 8.77602 3.61502C8.41469 4.81769 8.70335 5.89935 9.58235 6.79468C10.6446 7.87669 11.7202 8.94554 12.7959 10.0144C12.9897 10.207 13.1836 10.3996 13.3774 10.5924C13.804 11.0164 14.2787 11.0157 14.7084 10.6004C14.945 10.3717 15.1768 10.138 15.4086 9.90432C15.4956 9.81668 15.5825 9.72905 15.6697 9.64168C15.9696 9.34098 16.2719 9.04249 16.5742 8.744C17.2675 8.05942 17.9608 7.3748 18.6254 6.66335C19.853 5.34902 19.696 3.25935 18.338 2.11835ZM0.541678 13.3926V10.01C0.541678 9.66232 0.673011 9.53265 1.02568 9.53065C2.04868 9.52498 3.05368 9.64298 4.02501 9.98032C4.48868 10.1413 4.68368 10.5013 4.55168 10.968C4.00668 12.8963 3.45868 14.824 2.91034 16.7513C2.83901 17.0023 2.72601 17.0847 2.45968 17.0856C1.90968 17.0873 1.36001 17.0873 0.810011 17.0856C0.592011 17.085 0.542011 17.033 0.541678 16.8106C0.541234 16.0512 0.541382 15.2917 0.54153 14.5322V14.532L0.541678 13.3926ZM5.7456 10.9117C6.39494 10.9627 7.04827 11.0617 7.65994 11.3287C8.04827 11.4984 8.43027 11.691 8.7916 11.9117C9.11827 12.111 9.4636 12.1984 9.8336 12.2654C10.4069 12.3687 10.9789 12.4954 11.5369 12.6607C11.7991 12.7385 12.0407 12.9106 12.2684 13.0728L12.2706 13.0744C12.4829 13.2254 12.6059 13.4544 12.6399 13.7184C12.7063 14.2317 12.4973 14.5587 11.9993 14.7124C11.5083 14.8637 11.0029 14.8407 10.5036 14.7887C9.91859 14.7281 9.33505 14.6544 8.75334 14.5809C8.50609 14.5497 8.25917 14.5185 8.0126 14.4884C8.0106 14.4857 8.01894 14.5037 8.03327 14.5124C8.85594 15.0134 9.71627 15.4174 10.6806 15.5657C11.2093 15.647 11.7236 15.5757 12.2146 15.3924C12.6625 15.2252 13.1065 15.0478 13.5506 14.8705L13.5507 14.8704C14.0052 14.6889 14.4597 14.5073 14.9183 14.3367C15.5253 14.111 16.1423 13.9057 16.7669 13.736C17.2226 13.6124 17.6849 13.679 18.1113 13.8984C18.4083 14.051 18.6123 14.282 18.6889 14.6194C18.7313 14.8057 18.6999 14.9644 18.5563 15.0844C18.5055 15.1268 18.455 15.1698 18.4045 15.2129L18.4045 15.2129C18.2119 15.377 18.0187 15.5418 17.8056 15.674C15.8486 16.888 13.7719 17.8334 11.5423 18.4357C10.6636 18.673 9.80094 18.611 8.93527 18.382C7.29694 17.9484 5.74194 17.294 4.19927 16.6064C4.18959 16.602 4.18124 16.5946 4.16918 16.584L4.16917 16.584L4.16917 16.584C4.16213 16.5778 4.15383 16.5705 4.14327 16.562L5.74494 10.9114L5.7456 10.9117Z"  fill="currentColor"/>
    </g>
</svg>