<svg width="20" height="20" viewBox="0 0 20 20" fill="none" xmlns="http://www.w3.org/2000/svg">
<g id="clock-circle">
<path id="Vector" d="M10 1.25195C5.16797 1.25195 1.25 5.16992 1.25 10.002C1.25 14.834 5.16797 18.752 10 18.752C14.832 18.752 18.75 14.834 18.75 10.002C18.75 5.16992 14.832 1.25195 10 1.25195ZM13.4473 12.6914L12.8887 13.4531C12.8765 13.4697 12.8612 13.4837 12.8436 13.4944C12.826 13.505 12.8065 13.5121 12.7862 13.5152C12.7659 13.5183 12.7451 13.5173 12.7252 13.5124C12.7052 13.5074 12.6864 13.4986 12.6699 13.4863L9.43945 11.1309C9.41933 11.1164 9.40297 11.0973 9.39175 11.0752C9.38054 11.0531 9.37479 11.0287 9.375 11.0039V5.62695C9.375 5.54102 9.44531 5.4707 9.53125 5.4707H10.4707C10.5566 5.4707 10.627 5.54102 10.627 5.62695V10.4609L13.4121 12.4746C13.4824 12.5234 13.498 12.6211 13.4473 12.6914Z" fill="white"/>
</g>
</svg>
