<svg width="20" height="20" viewBox="0 0 20 20" fill="none" xmlns="http://www.w3.org/2000/svg">
<g id="container">
<path id="Vector" d="M16.25 1.25195H3.75C3.4043 1.25195 3.125 1.53125 3.125 1.87695V12.209C3.125 12.1973 3.13281 12.1895 3.14453 12.1895H7.42773L7.5293 12.6719C7.76562 13.8398 8.80469 14.6895 10 14.6895C11.1953 14.6895 12.2344 13.8398 12.4688 12.6719L12.5703 12.1895H16.8555C16.8672 12.1895 16.875 12.1973 16.875 12.209V1.87695C16.875 1.53125 16.5957 1.25195 16.25 1.25195ZM13.9062 9.63086C13.9062 9.7168 13.8359 9.78711 13.75 9.78711H6.25C6.16406 9.78711 6.09375 9.7168 6.09375 9.63086V8.69336C6.09375 8.60742 6.16406 8.53711 6.25 8.53711H13.75C13.8359 8.53711 13.9062 8.60742 13.9062 8.69336V9.63086ZM13.9062 6.50586C13.9062 6.5918 13.8359 6.66211 13.75 6.66211H6.25C6.16406 6.66211 6.09375 6.5918 6.09375 6.50586V5.56836C6.09375 5.48242 6.16406 5.41211 6.25 5.41211H13.75C13.8359 5.41211 13.9062 5.48242 13.9062 5.56836V6.50586ZM16.8555 13.4199H13.5566C13.3301 14.0605 12.9316 14.6367 12.4023 15.0742C11.7285 15.6328 10.875 15.9395 10 15.9395C9.125 15.9395 8.27148 15.6309 7.59766 15.0742C7.07049 14.6372 6.67159 14.0655 6.44336 13.4199H3.14453C3.13281 13.4199 3.125 13.4121 3.125 13.4004V18.127C3.125 18.4727 3.4043 18.752 3.75 18.752H16.25C16.5957 18.752 16.875 18.4727 16.875 18.127V13.4004C16.875 13.4121 16.8672 13.4199 16.8555 13.4199Z" fill="white"/>
</g>
</svg>
