<svg width="20" height="20" viewBox="0 0 20 20" fill="none" xmlns="http://www.w3.org/2000/svg">
<g id="fb">
<path id="fb_2" d="M11.9447 19.9996V12.8227H13.9007C14.0501 11.8795 14.1945 10.9518 14.3439 10.0009H11.3881C11.3804 9.93128 11.3727 9.87974 11.3727 9.8282C11.3727 9.23549 11.3675 8.64278 11.3727 8.05007C11.3804 7.25121 11.8623 6.69458 12.6534 6.63273C13.2693 6.58635 13.8904 6.60438 14.5089 6.59408C14.5887 6.59408 14.666 6.59408 14.7537 6.59408V4.11759C14.3774 4.07378 14.0063 4.01967 13.6327 3.98617C12.8209 3.91659 12.0066 3.86762 11.2026 4.07636C9.77493 4.44487 8.83175 5.47566 8.62817 6.93166C8.56632 7.36975 8.55601 7.81557 8.5457 8.25881C8.53282 8.82317 8.54313 9.38753 8.54313 9.97766H6.28053V12.8046H8.53024V19.9867C4.34779 19.4455 0.0519552 15.8352 0.000415425 10.0859C-0.0485473 4.62268 4.23698 0.275305 9.48373 0.0150289C15.1067 -0.265863 19.5623 4.01709 19.9669 9.16849C20.454 15.3378 15.8901 19.2522 11.9422 19.9996H11.9447Z" fill="white"/>
</g>
</svg>
