<svg width="20" height="20" viewBox="0 0 20 20" fill="none" xmlns="http://www.w3.org/2000/svg">
<g id="Instagram">
<path id="Vector" d="M19.9966 10.0259C19.9966 11.8529 20.0043 13.6825 19.9966 15.5095C19.9837 17.6973 18.5432 19.4677 16.4147 19.9109C16.0977 19.9779 15.7627 19.996 15.438 19.996C11.8123 20.0011 8.18915 20.0011 4.56343 19.9985C2.20813 19.9985 0.399139 18.4395 0.0383712 16.1151C0.00744819 15.909 0.00229059 15.6951 0.00229059 15.4838C0.00229059 11.8271 -0.00286324 8.17307 0.00229059 4.51643C0.00744442 2.31832 1.45309 0.5351 3.58678 0.0918704C3.89859 0.0274475 4.22328 0.00683223 4.54024 0.00683223C8.18142 0.0016784 11.82 -0.000898511 15.4612 0.00683223C17.6799 0.00940914 19.4631 1.44475 19.9089 3.59132C19.976 3.91601 19.994 4.25874 19.994 4.59116C20.0017 6.40273 19.9966 8.21688 19.9966 10.0285V10.0259ZM16.4739 10.0181C16.4842 6.44654 13.5981 3.54236 10.0265 3.5269C6.442 3.51401 3.53009 6.40273 3.52236 9.98207C3.51463 13.5537 6.40077 16.4604 9.96979 16.4733C13.5543 16.4862 16.4636 13.6001 16.4739 10.0156V10.0181ZM17.9814 3.33363C17.9814 2.57344 17.3784 1.96529 16.6182 1.96271C15.8606 1.96271 15.2499 2.56828 15.2473 3.3259C15.2473 4.08093 15.858 4.69682 16.6105 4.69939C17.3655 4.69939 17.9788 4.09124 17.9814 3.33363Z" fill="white"/>
<path id="Vector_2" d="M13.665 9.99552C13.6675 12.0236 12.0389 13.6625 10.0109 13.6702C7.97513 13.6779 6.33105 12.0364 6.33105 9.9981C6.33105 7.97007 7.96482 6.3363 9.99543 6.3363C12.026 6.3363 13.6598 7.96749 13.665 9.99552Z" fill="white"/>
</g>
</svg>
