<svg width="20" height="20" viewBox="0 0 20 20" fill="none" xmlns="http://www.w3.org/2000/svg">
<g id="line">
<path id="Vector" d="M9.99871 0.00195312C15.516 0.00195312 19.9948 4.47302 20 9.99293C20.0077 15.5154 15.5135 20.0071 9.99098 20.0019C4.47365 19.9942 -0.00514953 15.5128 4.44373e-06 10.0007C0.0077354 4.48075 4.48138 0.00453011 9.99871 0.00195312ZM10.0477 4.1844C8.3314 4.22048 6.80582 4.65341 5.51991 5.7409C4.51746 6.58873 3.89641 7.64787 3.86548 8.99048C3.83714 10.2712 4.368 11.3201 5.27509 12.1859C6.33939 13.2039 7.64077 13.7167 9.0813 13.9022C9.41116 13.946 9.51681 14.0697 9.48074 14.3944C9.44466 14.7011 9.39312 15.0103 9.38281 15.317C9.37766 15.4561 9.41889 15.6262 9.50393 15.7319C9.61474 15.8685 9.78482 15.8092 9.92913 15.7293C10.5863 15.3659 11.2589 15.0284 11.8979 14.6367C13.3591 13.7373 14.6399 12.6395 15.5495 11.1577C15.9129 10.565 16.1191 9.92077 16.1397 9.22499C16.1757 7.95711 15.6861 6.89539 14.7945 6.02437C13.4622 4.72299 11.8129 4.22563 10.0502 4.18182L10.0477 4.1844Z" fill="white"/>
<path id="Vector_2" d="M9.86696 8.80035C9.86696 9.22555 9.86696 9.65075 9.86696 10.0734C9.86696 10.3337 9.751 10.4728 9.54742 10.4677C9.35157 10.4625 9.24333 10.3337 9.24333 10.0811C9.24076 9.34409 9.24333 8.60965 9.24333 7.87263C9.24333 7.70513 9.27683 7.55566 9.44949 7.49639C9.62988 7.43197 9.75615 7.52474 9.86439 7.66905C10.1994 8.11487 10.5421 8.55553 10.8823 8.9962C10.9287 9.05547 10.9776 9.11216 11.0653 9.2204C11.0653 8.72046 11.055 8.28237 11.073 7.84686C11.0781 7.73348 11.1477 7.58401 11.2379 7.52216C11.4415 7.38043 11.6837 7.54793 11.6863 7.82367C11.694 8.31072 11.6863 8.80035 11.6863 9.2874C11.6863 9.55798 11.6863 9.83114 11.6863 10.1017C11.6863 10.2641 11.6296 10.3929 11.4698 10.4496C11.3075 10.5063 11.1915 10.4316 11.091 10.3027C10.7019 9.79249 10.3051 9.2874 9.91335 8.77973C9.89789 8.78489 9.87985 8.79262 9.86439 8.79777L9.86696 8.80035Z" fill="white"/>
<path id="Vector_3" d="M12.8021 8.09921V8.65584C13.0882 8.65584 13.3639 8.65584 13.6397 8.65584C13.8922 8.65584 14.0442 8.77696 14.0442 8.97281C14.0442 9.16866 13.8974 9.2872 13.6397 9.28978C13.3691 9.29236 13.0985 9.28978 12.8099 9.28978V9.84641C13.0908 9.84641 13.3665 9.84641 13.6448 9.84641C13.9051 9.84899 14.0468 9.96495 14.0468 10.1608C14.0468 10.3567 13.8999 10.47 13.6422 10.47C13.2712 10.47 12.9001 10.4726 12.529 10.47C12.2816 10.4675 12.1656 10.3644 12.163 10.1196C12.1579 9.3542 12.1579 8.58884 12.163 7.8209C12.163 7.58897 12.279 7.48074 12.5109 7.47558C12.9052 7.46785 13.2995 7.47043 13.6938 7.47558C13.9154 7.47816 14.0494 7.60701 14.0468 7.78997C14.0442 7.97036 13.9051 8.09406 13.6835 8.09664C13.3974 8.10179 13.1114 8.09664 12.8021 8.09664V8.09921Z" fill="white"/>
<path id="Vector_4" d="M6.58642 9.8457C6.89823 9.8457 7.17655 9.84313 7.45229 9.8457C7.6971 9.84828 7.83368 9.96167 7.83626 10.1524C7.83884 10.3508 7.69452 10.4693 7.4394 10.4693C7.06832 10.4693 6.69723 10.4719 6.32614 10.4693C6.07102 10.4668 5.95763 10.3559 5.95506 10.1008C5.95248 9.35092 5.95248 8.59844 5.95506 7.84854C5.95506 7.6063 6.0736 7.47488 6.27203 7.47745C6.46788 7.47745 6.58127 7.60888 6.58384 7.85627C6.589 8.42063 6.58384 8.98499 6.58384 9.55193C6.58384 9.63697 6.58384 9.71943 6.58384 9.8457H6.58642Z" fill="white"/>
<path id="Vector_5" d="M8.76941 8.99091C8.76941 9.37746 8.77199 9.76401 8.76941 10.1506C8.76683 10.4005 8.68695 10.4753 8.44986 10.4727C8.22309 10.4727 8.14062 10.3876 8.14062 10.1402C8.14062 9.36715 8.14062 8.59406 8.14062 7.82096C8.14062 7.55553 8.21793 7.47307 8.45759 7.47564C8.69468 7.47564 8.76683 7.55553 8.76941 7.83127C8.77199 8.21782 8.76941 8.60436 8.76941 8.99091Z" fill="white"/>
</g>
</svg>
