<svg width="20" height="20" viewBox="0 0 20 20" fill="none" xmlns="http://www.w3.org/2000/svg">
<g id="mail">
<path id="Vector" d="M18.125 3.12695H1.875C1.5293 3.12695 1.25 3.40625 1.25 3.75195V16.252C1.25 16.5977 1.5293 16.877 1.875 16.877H18.125C18.4707 16.877 18.75 16.5977 18.75 16.252V3.75195C18.75 3.40625 18.4707 3.12695 18.125 3.12695ZM16.5469 5.25391L10.3848 10.0488C10.2324 10.168 10.0195 10.168 9.86719 10.0488L3.70312 5.25391C3.67989 5.23597 3.66285 5.21122 3.65438 5.18312C3.64592 5.15501 3.64647 5.12496 3.65594 5.09718C3.66542 5.0694 3.68335 5.04528 3.70722 5.02821C3.73109 5.01113 3.75971 5.00195 3.78906 5.00195H16.4609C16.4903 5.00195 16.5189 5.01113 16.5428 5.02821C16.5667 5.04528 16.5846 5.0694 16.5941 5.09718C16.6035 5.12496 16.6041 5.15501 16.5956 5.18312C16.5872 5.21122 16.5701 5.23597 16.5469 5.25391Z" fill="white"/>
</g>
</svg>
