<svg width="22" height="20" viewBox="0 0 22 20" fill="none" xmlns="http://www.w3.org/2000/svg">
<g id="YouTube">
<path id="YouTube_2" d="M11.0574 2.83667C13.1628 2.91913 15.2682 2.99387 17.3736 3.08921C17.8684 3.11241 18.3658 3.17683 18.8554 3.26703C20.0382 3.48349 20.7959 4.27978 21.0201 5.52189C21.3319 7.24589 21.3937 8.98793 21.3344 10.73C21.2932 11.9437 21.1773 13.1549 21.0587 14.3635C20.9711 15.25 20.6103 16.0025 19.8295 16.505C19.3527 16.8117 18.8142 16.9019 18.2678 16.9586C15.9975 17.1956 13.7195 17.2369 11.4414 17.2266C9.43393 17.2163 7.42904 17.1467 5.42156 17.0771C4.77732 17.0539 4.1305 16.974 3.4914 16.8787C2.21837 16.6905 1.4427 15.9329 1.19015 14.6702C0.953071 13.4874 0.896378 12.2865 0.8603 11.0856C0.811337 9.45695 0.860301 7.82829 1.06646 6.20737C1.11027 5.8569 1.17212 5.50385 1.25973 5.16111C1.53547 4.08135 2.4168 3.35722 3.59191 3.21033C5.58907 2.96037 7.59654 2.93975 9.60143 2.90625C10.0859 2.89852 10.5704 2.90625 11.0523 2.90625C11.0523 2.88563 11.0523 2.86244 11.0523 2.84182L11.0574 2.83667ZM9.07058 6.9985V13.1214C10.8487 12.0984 12.6062 11.0856 14.3921 10.06C12.601 9.02917 10.8461 8.01899 9.07058 6.9985Z" fill="white"/>
</g>
</svg>
