<svg width="128" height="136" viewBox="0 0 128 136" fill="none" xmlns="http://www.w3.org/2000/svg">
<g id="Group 5">
<path id="Vector" opacity="0.32" d="M6.30493 79.235C6.30493 65.0194 11.9521 51.386 22.004 41.3341C32.056 31.2821 45.6893 25.635 59.9049 25.635H68.1899C82.4047 25.6363 96.0368 31.284 106.088 41.3359C116.138 51.3877 121.785 65.0203 121.785 79.235V79.735" stroke="#A5A5A5" stroke-width="2" stroke-linecap="round" stroke-linejoin="round" stroke-dasharray="2 10"/>
<path id="Vector_2" d="M12.2401 94.16C12.2401 94.16 10.4001 92.7 8.48007 93.16C6.56007 93.62 8.02007 94.925 8.02007 94.925C8.02007 94.925 5.71507 94.085 5.40507 96.005C5.09507 97.925 12.2401 97.46 12.2401 97.46V94.16Z" fill="#F4A28C"/>
<path id="Vector_3" d="M52.875 45.835C52.875 45.835 38.11 47.645 36.315 65.795C34.52 83.945 25.605 95.185 11.475 93.405V98.155C11.475 98.155 44.655 103.215 49.57 71.155L52.875 45.835Z" fill="#6B56CA"/>
<path id="Vector_4" opacity="0.46" d="M52.875 45.835C52.875 45.835 38.11 47.645 36.315 65.795C34.52 83.945 25.605 95.185 11.475 93.405V98.155C11.475 98.155 44.655 103.215 49.57 71.155L52.875 45.835Z" fill="white"/>
<path id="Vector_5" d="M118.385 94.16C118.385 94.16 120.23 92.7 122.15 93.16C124.07 93.62 122.61 94.925 122.61 94.925C122.61 94.925 124.915 94.085 125.22 96.005C125.525 97.925 118.385 97.46 118.385 97.46V94.16Z" fill="#F4A28C"/>
<path id="Vector_6" d="M77.755 45.835C77.755 45.835 92.515 47.645 94.315 65.795C96.115 83.945 105.02 95.185 119.155 93.405V98.155C119.155 98.155 85.975 103.215 81.055 71.155L77.755 45.835Z" fill="#6B56CA"/>
<path id="Vector_7" opacity="0.46" d="M77.755 45.835C77.755 45.835 92.515 47.645 94.315 65.795C96.115 83.945 105.02 95.185 119.155 93.405V98.155C119.155 98.155 85.975 103.215 81.055 71.155L77.755 45.835Z" fill="white"/>
<path id="Vector_8" d="M61.34 45.28C61.34 45.28 43.53 43.695 41.19 55.72C38.85 67.745 55.75 86.855 55.75 86.855H78.465C78.465 86.855 114.44 39.135 61.34 45.28Z" fill="#6B56CA"/>
<path id="Vector_9" opacity="0.45" d="M68.8 135.86C92.0899 135.86 110.97 132.836 110.97 129.105C110.97 125.374 92.0899 122.35 68.8 122.35C45.5102 122.35 26.63 125.374 26.63 129.105C26.63 132.836 45.5102 135.86 68.8 135.86Z" fill="#E6E6E6"/>
<path id="Vector_10" opacity="0.15" d="M63.81 25.06C70.7302 25.06 76.34 19.4501 76.34 12.53C76.34 5.60987 70.7302 0 63.81 0C56.8899 0 51.28 5.60987 51.28 12.53C51.28 19.4501 56.8899 25.06 63.81 25.06Z" fill="#FFD200"/>
<path id="Vector_11" d="M61.6899 117.16C61.6899 117.16 62.6899 118.48 62.0349 119.73C61.3799 120.98 62.3249 122.04 63.3199 121.17C64.3149 120.3 64.7149 116.67 64.7149 116.67L62.4799 115.365L61.6899 117.16Z" fill="#6B56CA"/>
<path id="Vector_12" d="M71.25 127.84C71.25 127.84 70.25 129.165 70.91 130.415C71.57 131.665 70.615 132.725 69.625 131.855C68.635 130.985 68.225 127.355 68.225 127.355L70.46 126.05L71.25 127.84Z" fill="#6B56CA"/>
<path id="Vector_13" d="M60.83 45.165C60.83 45.165 58.58 48.705 60.785 49.97C62.99 51.235 63.695 49.79 63.695 49.79C63.695 49.79 65.335 51.73 66.805 50.225C68.275 48.72 68.065 45.725 66.57 44.355C65.075 42.985 60.83 45.165 60.83 45.165Z" fill="white"/>
<path id="Vector_14" d="M61.3401 45.28C61.4421 45.9308 61.5072 46.5869 61.5351 47.245C61.5651 48.15 61.8551 49.495 63.2851 49.745C65.4851 50.15 66.0701 46.67 66.0701 46.67C66.0701 46.67 67.4551 43.41 65.0701 42.96C62.9251 42.575 60.9051 42.285 61.3401 45.28Z" fill="#F4A28C"/>
<path id="Vector_15" d="M65.9299 46.83C65.9299 46.83 66.0599 45.77 66.9799 45.83C67.8999 45.89 67.5399 47.835 65.9299 46.83Z" fill="#F4A28C"/>
<path id="Vector_16" d="M61.87 46.24C61.87 46.24 62.195 45.24 61.34 44.885C60.485 44.53 59.99 46.49 61.87 46.24Z" fill="#F4A28C"/>
<path id="Vector_17" d="M61.3399 45.28C61.3399 45.28 57.7749 44.78 59.3699 42.145C60.9649 39.51 61.3149 41.49 62.0699 39.455C62.8249 37.42 63.4999 37.03 64.6049 37.9C65.7099 38.77 64.6399 40.585 66.3099 40.075C67.9799 39.565 69.12 39.075 69.435 40.47C69.75 41.865 69.4349 42.515 68.3599 42.97C67.2849 43.425 68.9749 45.305 66.2699 46.065C63.5649 46.825 62.1899 43.905 62.1899 43.905L61.3399 45.28Z" fill="#24285B"/>
<path id="Vector_18" d="M55.76 86.855C55.76 86.855 43.45 97.605 49.76 106.29C56.07 114.975 61.26 117.735 61.26 117.735L63.35 115.265C63.35 115.265 48.665 99.175 64.73 92.46L78.48 86.855H55.76Z" fill="#24285B"/>
<path id="Vector_19" d="M78.4749 86.855C78.4749 86.855 91.4749 114.855 71.5249 128.39L69.5549 125.405C69.5549 125.405 85.4799 108.46 64.5549 91L78.4749 86.855Z" fill="#24285B"/>
<path id="Vector_20" d="M72.565 11.935C72.5609 10.517 72.2099 9.12156 71.5426 7.87041C70.8752 6.61926 69.9119 5.55042 68.7365 4.75715C67.5612 3.96388 66.2096 3.47028 64.7996 3.31941C63.3897 3.16854 61.9642 3.36499 60.6477 3.89162C59.3311 4.41825 58.1634 5.25906 57.2465 6.34068C56.3295 7.42231 55.6912 8.71189 55.3871 10.0969C55.0831 11.4819 55.1226 12.9203 55.5023 14.2865C55.8819 15.6528 56.5901 16.9054 57.565 17.935C58.7999 19.2483 59.4805 20.9874 59.465 22.79V23.09H68.09V22.87C68.0977 21.0424 68.8147 19.2891 70.09 17.98C71.6743 16.3665 72.5629 14.1962 72.565 11.935Z" fill="#FFD200"/>
<path id="Vector_21" d="M61.5401 23.105C61.4683 23.1056 61.3987 23.0801 61.3444 23.0332C61.2901 22.9862 61.2548 22.9211 61.2451 22.85L59.4251 11.85C59.4182 11.7734 59.4404 11.697 59.4875 11.6361C59.5345 11.5752 59.6028 11.5344 59.6787 11.5217C59.7546 11.5091 59.8324 11.5256 59.8967 11.5679C59.9609 11.6102 60.0067 11.6753 60.0251 11.75L61.8401 22.75C61.8465 22.7891 61.8451 22.829 61.836 22.8676C61.8268 22.9061 61.8102 22.9425 61.7869 22.9746C61.7637 23.0066 61.7343 23.0338 61.7005 23.0545C61.6668 23.0751 61.6292 23.0889 61.5901 23.095L61.5401 23.105Z" fill="white"/>
<path id="Vector_22" d="M66.075 23.105H66.025C65.9858 23.0989 65.9483 23.0852 65.9145 23.0645C65.8807 23.0438 65.8513 23.0167 65.8281 22.9846C65.8048 22.9525 65.7882 22.9162 65.779 22.8776C65.7699 22.8391 65.7685 22.7991 65.775 22.76L67.59 11.76C67.5937 11.7182 67.6061 11.6776 67.6263 11.6408C67.6465 11.604 67.674 11.5717 67.7072 11.5461C67.7405 11.5204 67.7786 11.5019 67.8193 11.4916C67.8601 11.4814 67.9024 11.4797 67.9439 11.4866C67.9853 11.4935 68.0248 11.5089 68.06 11.5317C68.0952 11.5546 68.1253 11.5845 68.1484 11.6196C68.1715 11.6547 68.1871 11.6941 68.1943 11.7355C68.2014 11.7768 68.1999 11.8192 68.19 11.86L66.37 22.86C66.358 22.9293 66.3218 22.9921 66.2677 23.037C66.2136 23.0819 66.1453 23.106 66.075 23.105Z" fill="white"/>
<path id="Vector_23" d="M68.7999 21.75H58.95V29.525H68.7999V21.75Z" fill="#24285B"/>
<path id="Vector_24" d="M64.7651 14.085C64.546 14.0608 64.3353 13.987 64.149 13.8691C63.9627 13.7513 63.8058 13.5926 63.6901 13.405C63.5451 13.22 63.4051 13.13 63.2801 13.145C62.9851 13.17 62.6551 13.645 62.5351 13.87C62.4986 13.9409 62.4354 13.9945 62.3595 14.0188C62.2835 14.0432 62.201 14.0364 62.1301 14C62.0591 13.9635 62.0056 13.9003 61.9812 13.8244C61.9568 13.7484 61.9636 13.6659 62.0001 13.595C62.0501 13.495 62.5001 12.595 63.2201 12.54C63.4084 12.5322 63.5955 12.5744 63.7623 12.6622C63.9291 12.75 64.0698 12.8803 64.1701 13.04C64.3351 13.26 64.5851 13.54 64.8301 13.49C65.0751 13.44 65.3551 13.075 65.4201 12.94C65.4372 12.9039 65.4613 12.8716 65.491 12.845C65.5207 12.8184 65.5554 12.7979 65.5932 12.7849C65.6309 12.7719 65.6708 12.7665 65.7106 12.7691C65.7505 12.7716 65.7894 12.7822 65.8251 12.8C65.861 12.8165 65.8931 12.8402 65.9197 12.8694C65.9463 12.8987 65.9667 12.933 65.9798 12.9703C65.9928 13.0076 65.9983 13.0472 65.9957 13.0866C65.9932 13.1261 65.9828 13.1646 65.9651 13.2C65.8681 13.4212 65.7209 13.6169 65.5352 13.7714C65.3495 13.9258 65.1303 14.0349 64.8951 14.09L64.7651 14.085Z" fill="white"/>
<path id="Vector_25" opacity="0.21" d="M69.3903 8.23379C69.8538 7.16463 69.1205 5.81706 67.7524 5.22389C66.3843 4.63072 64.8994 5.01657 64.4359 6.08573C63.9723 7.15488 64.7056 8.50247 66.0737 9.09564C67.4419 9.68881 68.9267 9.30294 69.3903 8.23379Z" fill="white"/>
<path id="Vector_26" d="M66.47 29.525H61.28V32.125H66.47V29.525Z" fill="#24285B"/>
<path id="Vector_27" opacity="0.17" d="M66.47 29.525H61.28V32.125H66.47V29.525Z" fill="white"/>
<path id="Vector_28" d="M6.305 88.185C9.51101 88.185 12.11 85.586 12.11 82.38C12.11 79.174 9.51101 76.575 6.305 76.575C3.09899 76.575 0.5 79.174 0.5 82.38C0.5 85.586 3.09899 88.185 6.305 88.185Z" fill="#FFD200"/>
<path id="Vector_29" d="M121.805 85.55C125.011 85.55 127.61 82.951 127.61 79.745C127.61 76.539 125.011 73.94 121.805 73.94C118.599 73.94 116 76.539 116 79.745C116 82.951 118.599 85.55 121.805 85.55Z" fill="#FFD200"/>
<path id="Vector_30" d="M24.855 48.865C29.2788 48.865 32.865 45.2788 32.865 40.855C32.865 36.4312 29.2788 32.845 24.855 32.845C20.4312 32.845 16.845 36.4312 16.845 40.855C16.845 45.2788 20.4312 48.865 24.855 48.865Z" fill="#24285B"/>
<path id="Vector_31" d="M103.65 48.145C108.074 48.145 111.66 44.5588 111.66 40.135C111.66 35.7112 108.074 32.125 103.65 32.125C99.2262 32.125 95.64 35.7112 95.64 40.135C95.64 44.5588 99.2262 48.145 103.65 48.145Z" fill="#24285B"/>
<path id="Vector_32" d="M82.645 57.55H73.605V60.675H82.645V57.55Z" fill="white"/>
<path id="Vector_33" opacity="0.08" d="M89.69 64.365C89.69 64.365 76.545 86.725 51 80.805L55.765 86.855H78.48C78.48 86.855 87.755 73.94 89.69 64.365Z" fill="black"/>
</g>
</svg>
