<svg width="375" height="127" viewBox="0 0 375 127" fill="none" xmlns="http://www.w3.org/2000/svg">
<g opacity="0.8" clip-path="url(#clip0_2716_25127)">
<path d="M0 127C29.9479 101.765 80.8594 90.5789 112.109 117.56C205.859 87.6382 343.75 87.0841 375 121.825L375 43L-1.90191e-06 43.0001L-3.27233e-07 109.808L0 127Z" fill="#E5DEFA"/>
<path d="M0 110C29.9479 84.765 80.8594 73.5789 112.109 100.56C205.859 70.6382 343.75 70.0842 375 104.825L375 26L-2.66107e-06 26.0001L-4.82606e-07 92.8079L0 110Z" fill="#CCBFF6"/>
<path d="M5.14024e-05 97C29.948 72.0899 80.8594 61.0479 112.109 87.6814C205.859 58.1451 343.75 57.5981 375 91.8918L375 0.49991L-0.000125131 0.5L5.08641e-05 80.0293L5.14024e-05 97Z" fill="#917FDD"/>
</g>
<defs>
<clipPath id="clip0_2716_25127">
<rect width="375" height="127" fill="white" transform="translate(375 127) rotate(-180)"/>
</clipPath>
</defs>
</svg>
