<svg width="1440" height="261" viewBox="0 0 1440 261" fill="none" xmlns="http://www.w3.org/2000/svg">
<g opacity="0.8">
<path d="M0 250.963C115 197.5 310.5 173.801 430.5 230.963C790.5 167.571 1320 166.397 1440 239.999L1440 72.9997L-2.36531e-06 73.0004L-2.45918e-07 214.54L0 250.963Z" fill="#E5DEFA"/>
<path d="M0 213.963C115 160.5 310.5 136.801 430.5 193.963C790.5 130.571 1320 129.397 1440 202.999L1440 35.9997L-2.36531e-06 36.0004L-2.45918e-07 177.54L0 213.963Z" fill="#CCBFF6"/>
<path d="M0 177.963C115 124.5 310.5 100.801 430.5 157.963C790.5 94.5706 1320 93.3966 1440 166.999L1440 -0.000307736L-2.36531e-06 0.000427246L-2.45918e-07 141.54L0 177.963Z" fill="#917FDD"/>
</g>
</svg>
