<svg width="17" height="16" viewBox="0 0 17 16" fill="none" xmlns="http://www.w3.org/2000/svg">
<path fill-rule="evenodd" clip-rule="evenodd" d="M10.3043 6.19534C10.0437 5.93468 9.62234 5.93468 9.36167 6.19534L8.49967 7.05734L7.63767 6.19534C7.37701 5.93468 6.95567 5.93468 6.69501 6.19534C6.43434 6.45601 6.43434 6.87734 6.69501 7.13801L7.55701 8.00001L6.69501 8.86201C6.43434 9.12268 6.43434 9.54401 6.69501 9.80468C6.82501 9.93468 6.99567 10 7.16634 10C7.33701 10 7.50767 9.93468 7.63767 9.80468L8.49967 8.94268L9.36167 9.80468C9.49167 9.93468 9.66234 10 9.83301 10C10.0037 10 10.1743 9.93468 10.3043 9.80468C10.565 9.54401 10.565 9.12268 10.3043 8.86201L9.44234 8.00001L10.3043 7.13801C10.565 6.87734 10.565 6.45601 10.3043 6.19534ZM8.49967 13.3333C5.55901 13.3333 3.16634 10.9407 3.16634 8.00001C3.16634 5.05934 5.55901 2.66668 8.49967 2.66668C11.4403 2.66668 13.833 5.05934 13.833 8.00001C13.833 10.9407 11.4403 13.3333 8.49967 13.3333ZM8.49967 1.33334C4.82367 1.33334 1.83301 4.32401 1.83301 8.00001C1.83301 11.676 4.82367 14.6667 8.49967 14.6667C12.1757 14.6667 15.1663 11.676 15.1663 8.00001C15.1663 4.32401 12.1757 1.33334 8.49967 1.33334Z" fill="#C2C1BB"/>
<mask id="mask0_952_93926" style="mask-type:luminance" maskUnits="userSpaceOnUse" x="1" y="1" width="15" height="14">
<path fill-rule="evenodd" clip-rule="evenodd" d="M10.3043 6.19534C10.0437 5.93468 9.62234 5.93468 9.36167 6.19534L8.49967 7.05734L7.63767 6.19534C7.37701 5.93468 6.95567 5.93468 6.69501 6.19534C6.43434 6.45601 6.43434 6.87734 6.69501 7.13801L7.55701 8.00001L6.69501 8.86201C6.43434 9.12268 6.43434 9.54401 6.69501 9.80468C6.82501 9.93468 6.99567 10 7.16634 10C7.33701 10 7.50767 9.93468 7.63767 9.80468L8.49967 8.94268L9.36167 9.80468C9.49167 9.93468 9.66234 10 9.83301 10C10.0037 10 10.1743 9.93468 10.3043 9.80468C10.565 9.54401 10.565 9.12268 10.3043 8.86201L9.44234 8.00001L10.3043 7.13801C10.565 6.87734 10.565 6.45601 10.3043 6.19534ZM8.49967 13.3333C5.55901 13.3333 3.16634 10.9407 3.16634 8.00001C3.16634 5.05934 5.55901 2.66668 8.49967 2.66668C11.4403 2.66668 13.833 5.05934 13.833 8.00001C13.833 10.9407 11.4403 13.3333 8.49967 13.3333ZM8.49967 1.33334C4.82367 1.33334 1.83301 4.32401 1.83301 8.00001C1.83301 11.676 4.82367 14.6667 8.49967 14.6667C12.1757 14.6667 15.1663 11.676 15.1663 8.00001C15.1663 4.32401 12.1757 1.33334 8.49967 1.33334Z" fill="white"/>
</mask>
<g mask="url(#mask0_952_93926)">
<rect x="0.5" width="16" height="16" fill="#C2C1BB"/>
</g>
</svg>
