<svg width="36" height="36" viewBox="0 0 36 36" fill="none" xmlns="http://www.w3.org/2000/svg">
<rect width="36" height="36" rx="18" fill="#FEF6F2"/>
<path fill-rule="evenodd" clip-rule="evenodd" d="M19.1785 18L22.756 14.4225C23.0819 14.0967 23.0819 13.57 22.756 13.2442C22.4302 12.9183 21.9035 12.9183 21.5777 13.2442L18.0002 16.8217L14.4227 13.2442C14.0969 12.9183 13.5702 12.9183 13.2444 13.2442C12.9185 13.57 12.9185 14.0967 13.2444 14.4225L16.8219 18L13.2444 21.5775C12.9185 21.9033 12.9185 22.43 13.2444 22.7558C13.4069 22.9183 13.6202 23 13.8335 23C14.0469 23 14.2602 22.9183 14.4227 22.7558L18.0002 19.1783L21.5777 22.7558C21.7402 22.9183 21.9535 23 22.1669 23C22.3802 23 22.5935 22.9183 22.756 22.7558C23.0819 22.43 23.0819 21.9033 22.756 21.5775L19.1785 18Z" fill="#9B3F19"/>
<mask id="mask0_945_38340" style="mask-type:luminance" maskUnits="userSpaceOnUse" x="13" y="12" width="10" height="11">
<path fill-rule="evenodd" clip-rule="evenodd" d="M19.1785 18L22.756 14.4225C23.0819 14.0967 23.0819 13.57 22.756 13.2442C22.4302 12.9183 21.9035 12.9183 21.5777 13.2442L18.0002 16.8217L14.4227 13.2442C14.0969 12.9183 13.5702 12.9183 13.2444 13.2442C12.9185 13.57 12.9185 14.0967 13.2444 14.4225L16.8219 18L13.2444 21.5775C12.9185 21.9033 12.9185 22.43 13.2444 22.7558C13.4069 22.9183 13.6202 23 13.8335 23C14.0469 23 14.2602 22.9183 14.4227 22.7558L18.0002 19.1783L21.5777 22.7558C21.7402 22.9183 21.9535 23 22.1669 23C22.3802 23 22.5935 22.9183 22.756 22.7558C23.0819 22.43 23.0819 21.9033 22.756 21.5775L19.1785 18Z" fill="white"/>
</mask>
<g mask="url(#mask0_945_38340)">
<rect x="8" y="8" width="20" height="20" fill="#9B3F19"/>
</g>
</svg>
