<svg width="16" height="16" viewBox="0 0 16 16" fill="none" xmlns="http://www.w3.org/2000/svg">
<path fill-rule="evenodd" clip-rule="evenodd" d="M13.998 7.31606H14C14.3673 7.31606 14.666 7.6134 14.6667 7.98073C14.672 9.7614 13.9833 11.4381 12.7273 12.7007C11.472 13.9634 9.80001 14.6614 8.01934 14.6667H8.00001C6.22601 14.6667 4.55734 13.9787 3.29934 12.7274C2.03668 11.4721 1.33868 9.80006 1.33334 8.0194C1.32801 6.23806 2.01668 4.56206 3.27268 3.2994C4.52801 2.03673 6.20001 1.33873 7.98068 1.3334C8.51068 1.3414 9.05068 1.39473 9.56801 1.51873C9.92534 1.6054 10.146 1.9654 10.0593 2.3234C9.97334 2.68073 9.61134 2.90073 9.25534 2.8154C8.84134 2.7154 8.40201 2.6734 7.98468 2.66673C6.56001 2.67073 5.22201 3.2294 4.21801 4.2394C3.21334 5.2494 2.66268 6.59073 2.66668 8.0154C2.67068 9.44006 3.22934 10.7774 4.23934 11.7821C5.24601 12.7827 6.58068 13.3334 8.00001 13.3334H8.01534C9.44001 13.3294 10.778 12.7707 11.782 11.7607C12.7867 10.7501 13.3373 9.4094 13.3333 7.98473C13.3327 7.61673 13.63 7.31673 13.998 7.31606ZM5.52868 7.52866C5.78934 7.268 6.21068 7.268 6.47134 7.52866L7.96734 9.02466L12.1653 4.22733C12.408 3.952 12.8287 3.92266 13.106 4.16533C13.3827 4.40733 13.4107 4.82866 13.168 5.106L8.50134 10.4393C8.38001 10.578 8.20668 10.66 8.02201 10.6667H8.00001C7.82334 10.6667 7.65401 10.5967 7.52868 10.4713L5.52868 8.47133C5.26801 8.21066 5.26801 7.78933 5.52868 7.52866Z" fill="#3D3C29"/>
<mask id="mask0_2984_16400" style="mask-type:luminance" maskUnits="userSpaceOnUse" x="1" y="1" width="14" height="14">
<path fill-rule="evenodd" clip-rule="evenodd" d="M13.998 7.31606H14C14.3673 7.31606 14.666 7.6134 14.6667 7.98073C14.672 9.7614 13.9833 11.4381 12.7273 12.7007C11.472 13.9634 9.80001 14.6614 8.01934 14.6667H8.00001C6.22601 14.6667 4.55734 13.9787 3.29934 12.7274C2.03668 11.4721 1.33868 9.80006 1.33334 8.0194C1.32801 6.23806 2.01668 4.56206 3.27268 3.2994C4.52801 2.03673 6.20001 1.33873 7.98068 1.3334C8.51068 1.3414 9.05068 1.39473 9.56801 1.51873C9.92534 1.6054 10.146 1.9654 10.0593 2.3234C9.97334 2.68073 9.61134 2.90073 9.25534 2.8154C8.84134 2.7154 8.40201 2.6734 7.98468 2.66673C6.56001 2.67073 5.22201 3.2294 4.21801 4.2394C3.21334 5.2494 2.66268 6.59073 2.66668 8.0154C2.67068 9.44006 3.22934 10.7774 4.23934 11.7821C5.24601 12.7827 6.58068 13.3334 8.00001 13.3334H8.01534C9.44001 13.3294 10.778 12.7707 11.782 11.7607C12.7867 10.7501 13.3373 9.4094 13.3333 7.98473C13.3327 7.61673 13.63 7.31673 13.998 7.31606ZM5.52868 7.52866C5.78934 7.268 6.21068 7.268 6.47134 7.52866L7.96734 9.02466L12.1653 4.22733C12.408 3.952 12.8287 3.92266 13.106 4.16533C13.3827 4.40733 13.4107 4.82866 13.168 5.106L8.50134 10.4393C8.38001 10.578 8.20668 10.66 8.02201 10.6667H8.00001C7.82334 10.6667 7.65401 10.5967 7.52868 10.4713L5.52868 8.47133C5.26801 8.21066 5.26801 7.78933 5.52868 7.52866Z" fill="white"/>
</mask>
<g mask="url(#mask0_2984_16400)">
<rect width="16" height="16" fill="#3D3C29"/>
</g>
</svg>
