<svg width="14" height="14" viewBox="0 0 14 14" fill="none" xmlns="http://www.w3.org/2000/svg">
<path fill-rule="evenodd" clip-rule="evenodd" d="M6.34491 10.1833L7.52674 11.0775V8.42159C7.52674 8.32476 7.55124 8.22968 7.59674 8.14451L10.1051 3.50001H3.87507L6.27957 8.15384C6.32274 8.23668 6.34491 8.32884 6.34491 8.42159V10.1833ZM8.11007 12.8333C7.98582 12.8333 7.86157 12.7937 7.75832 12.7149L5.40982 10.9387C5.26399 10.8284 5.17824 10.6563 5.17824 10.4738V8.56393L2.39866 3.18443C2.30474 3.00359 2.31232 2.78718 2.41849 2.61334C2.52407 2.43951 2.71307 2.33334 2.91666 2.33334H11.0833C11.2887 2.33334 11.4788 2.44126 11.5844 2.61801C11.6894 2.79418 11.6941 3.01293 11.5967 3.19376L8.69341 8.56918V12.25C8.69341 12.4711 8.56857 12.6735 8.37024 12.7721C8.28799 12.8129 8.19874 12.8333 8.11007 12.8333Z" fill="#33301E"/>
<mask id="mask0_2984_16371" style="mask-type:luminance" maskUnits="userSpaceOnUse" x="2" y="2" width="10" height="11">
<path fill-rule="evenodd" clip-rule="evenodd" d="M6.34491 10.1833L7.52674 11.0775V8.42159C7.52674 8.32476 7.55124 8.22968 7.59674 8.14451L10.1051 3.50001H3.87507L6.27957 8.15384C6.32274 8.23668 6.34491 8.32884 6.34491 8.42159V10.1833ZM8.11007 12.8333C7.98582 12.8333 7.86157 12.7937 7.75832 12.7149L5.40982 10.9387C5.26399 10.8284 5.17824 10.6563 5.17824 10.4738V8.56393L2.39866 3.18443C2.30474 3.00359 2.31232 2.78718 2.41849 2.61334C2.52407 2.43951 2.71307 2.33334 2.91666 2.33334H11.0833C11.2887 2.33334 11.4788 2.44126 11.5844 2.61801C11.6894 2.79418 11.6941 3.01293 11.5967 3.19376L8.69341 8.56918V12.25C8.69341 12.4711 8.56857 12.6735 8.37024 12.7721C8.28799 12.8129 8.19874 12.8333 8.11007 12.8333Z" fill="white"/>
</mask>
<g mask="url(#mask0_2984_16371)">
<rect width="14" height="14" fill="#33301E"/>
</g>
</svg>
