<svg width="21" height="20" viewBox="0 0 21 20" fill="none" xmlns="http://www.w3.org/2000/svg">
<path fill-rule="evenodd" clip-rule="evenodd" d="M9.66602 15.8333C9.20602 15.8333 8.83268 15.46 8.83268 15C8.83268 14.54 9.20602 14.1667 9.66602 14.1667C10.126 14.1667 10.4993 14.54 10.4993 15C10.4993 15.46 10.126 15.8333 9.66602 15.8333ZM17.9993 14.1667H12.0118C11.6668 13.1992 10.751 12.5 9.66602 12.5C8.58102 12.5 7.66518 13.1992 7.32018 14.1667H2.99935C2.53852 14.1667 2.16602 14.5392 2.16602 15C2.16602 15.4608 2.53852 15.8333 2.99935 15.8333H7.32018C7.66518 16.8008 8.58102 17.5 9.66602 17.5C10.751 17.5 11.6668 16.8008 12.0118 15.8333H17.9993C18.4602 15.8333 18.8327 15.4608 18.8327 15C18.8327 14.5392 18.4602 14.1667 17.9993 14.1667ZM16.3327 10.8333C15.8727 10.8333 15.4993 10.46 15.4993 10C15.4993 9.54 15.8727 9.16667 16.3327 9.16667C16.7927 9.16667 17.166 9.54 17.166 10C17.166 10.46 16.7927 10.8333 16.3327 10.8333ZM16.3327 7.5C15.2477 7.5 14.3319 8.19917 13.9868 9.16667H2.99935C2.53852 9.16667 2.16602 9.53917 2.16602 10C2.16602 10.4608 2.53852 10.8333 2.99935 10.8333H13.9868C14.3319 11.8008 15.2477 12.5 16.3327 12.5C17.711 12.5 18.8327 11.3783 18.8327 10C18.8327 8.62167 17.711 7.5 16.3327 7.5ZM6.33268 4.16667C6.79268 4.16667 7.16602 4.54 7.16602 5C7.16602 5.46 6.79268 5.83333 6.33268 5.83333C5.87268 5.83333 5.49935 5.46 5.49935 5C5.49935 4.54 5.87268 4.16667 6.33268 4.16667ZM2.99935 5.83333H3.98685C4.33185 6.80083 5.24768 7.5 6.33268 7.5C7.41768 7.5 8.33352 6.80083 8.67852 5.83333H17.9993C18.4602 5.83333 18.8327 5.46083 18.8327 5C18.8327 4.53917 18.4602 4.16667 17.9993 4.16667H8.67852C8.33352 3.19917 7.41768 2.5 6.33268 2.5C5.24768 2.5 4.33185 3.19917 3.98685 4.16667H2.99935C2.53852 4.16667 2.16602 4.53917 2.16602 5C2.16602 5.46083 2.53852 5.83333 2.99935 5.83333Z" fill="#33301E"/>
<mask id="mask0_3012_7821" style="mask-type:luminance" maskUnits="userSpaceOnUse" x="2" y="2" width="17" height="16">
<path fill-rule="evenodd" clip-rule="evenodd" d="M9.66602 15.8333C9.20602 15.8333 8.83268 15.46 8.83268 15C8.83268 14.54 9.20602 14.1667 9.66602 14.1667C10.126 14.1667 10.4993 14.54 10.4993 15C10.4993 15.46 10.126 15.8333 9.66602 15.8333ZM17.9993 14.1667H12.0118C11.6668 13.1992 10.751 12.5 9.66602 12.5C8.58102 12.5 7.66518 13.1992 7.32018 14.1667H2.99935C2.53852 14.1667 2.16602 14.5392 2.16602 15C2.16602 15.4608 2.53852 15.8333 2.99935 15.8333H7.32018C7.66518 16.8008 8.58102 17.5 9.66602 17.5C10.751 17.5 11.6668 16.8008 12.0118 15.8333H17.9993C18.4602 15.8333 18.8327 15.4608 18.8327 15C18.8327 14.5392 18.4602 14.1667 17.9993 14.1667ZM16.3327 10.8333C15.8727 10.8333 15.4993 10.46 15.4993 10C15.4993 9.54 15.8727 9.16667 16.3327 9.16667C16.7927 9.16667 17.166 9.54 17.166 10C17.166 10.46 16.7927 10.8333 16.3327 10.8333ZM16.3327 7.5C15.2477 7.5 14.3319 8.19917 13.9868 9.16667H2.99935C2.53852 9.16667 2.16602 9.53917 2.16602 10C2.16602 10.4608 2.53852 10.8333 2.99935 10.8333H13.9868C14.3319 11.8008 15.2477 12.5 16.3327 12.5C17.711 12.5 18.8327 11.3783 18.8327 10C18.8327 8.62167 17.711 7.5 16.3327 7.5ZM6.33268 4.16667C6.79268 4.16667 7.16602 4.54 7.16602 5C7.16602 5.46 6.79268 5.83333 6.33268 5.83333C5.87268 5.83333 5.49935 5.46 5.49935 5C5.49935 4.54 5.87268 4.16667 6.33268 4.16667ZM2.99935 5.83333H3.98685C4.33185 6.80083 5.24768 7.5 6.33268 7.5C7.41768 7.5 8.33352 6.80083 8.67852 5.83333H17.9993C18.4602 5.83333 18.8327 5.46083 18.8327 5C18.8327 4.53917 18.4602 4.16667 17.9993 4.16667H8.67852C8.33352 3.19917 7.41768 2.5 6.33268 2.5C5.24768 2.5 4.33185 3.19917 3.98685 4.16667H2.99935C2.53852 4.16667 2.16602 4.53917 2.16602 5C2.16602 5.46083 2.53852 5.83333 2.99935 5.83333Z" fill="white"/>
</mask>
<g mask="url(#mask0_3012_7821)">
<rect x="0.499023" width="20" height="20" fill="#33301E"/>
</g>
</svg>
