<svg width="16" height="20" viewBox="0 0 16 20" fill="none" xmlns="http://www.w3.org/2000/svg">
<path d="M6.30021 6.99546C6.43132 6.77653 6.71835 6.69967 6.94131 6.82377L10.5967 8.85842C10.8197 8.98252 10.8942 9.2606 10.7631 9.47953L4.84373 19.3638C4.66801 19.6572 4.23982 19.6745 4.04901 19.3959L2.98024 17.8353C2.89934 17.7172 2.76553 17.6438 2.61884 17.637L0.76009 17.5511C0.411685 17.535 0.209031 17.1667 0.385982 16.8712L6.30021 6.99546Z" fill="#90ADE8"/>
<path d="M9.69954 6.99546C9.56844 6.77653 9.28141 6.69967 9.05844 6.82377L5.40302 8.85842C5.18005 8.98252 5.10559 9.2606 5.23669 9.47953L11.156 19.3638C11.3317 19.6572 11.7599 19.6745 11.9508 19.3959L13.0195 17.8353C13.1004 17.7172 13.2342 17.6438 13.3809 17.637L15.2397 17.5511C15.5881 17.535 15.7907 17.1667 15.6138 16.8712L9.69954 6.99546Z" fill="#90ADE8"/>
<mask id="mask0_2984_16385" style="mask-type:alpha" maskUnits="userSpaceOnUse" x="0" y="6" width="16" height="14">
<path d="M6.30021 6.99546C6.43132 6.77653 6.71835 6.69967 6.94131 6.82377L10.5967 8.85842C10.8197 8.98252 10.8942 9.2606 10.7631 9.47953L4.84373 19.3638C4.66801 19.6572 4.23982 19.6745 4.04901 19.3959L2.98024 17.8353C2.89934 17.7172 2.76553 17.6438 2.61884 17.637L0.76009 17.5511C0.411685 17.535 0.209031 17.1667 0.385982 16.8712L6.30021 6.99546Z" fill="#F7F9FF"/>
<path d="M9.69954 6.99546C9.56844 6.77653 9.28141 6.69967 9.05844 6.82377L5.40302 8.85842C5.18005 8.98252 5.10559 9.2606 5.23669 9.47953L11.156 19.3638C11.3317 19.6572 11.7599 19.6745 11.9508 19.3959L13.0195 17.8353C13.1004 17.7172 13.2342 17.6438 13.3809 17.637L15.2397 17.5511C15.5881 17.535 15.7907 17.1667 15.6138 16.8712L9.69954 6.99546Z" fill="#F7F9FF"/>
</mask>
<g mask="url(#mask0_2984_16385)">
<path d="M7.22886 2.32312C7.67538 1.87838 8.39746 1.87838 8.84398 2.32312L8.99659 2.47513C9.3088 2.78609 9.77182 2.89017 10.1871 2.74272L10.4034 2.66592C11.0031 2.45298 11.6613 2.77021 11.8684 3.37197L11.9179 3.51586C12.0642 3.94127 12.4463 4.24143 12.8943 4.28298L13.077 4.29993C13.7245 4.35998 14.1919 4.94686 14.1055 5.59139L14.094 5.67676C14.0327 6.13439 14.2524 6.58404 14.6511 6.81691L14.7468 6.87279C15.3179 7.20641 15.4881 7.95341 15.1178 8.50153L15.0802 8.55718C14.8188 8.94423 14.8188 9.45134 15.0803 9.83839L15.1178 9.89404C15.4881 10.4422 15.3179 11.1892 14.7468 11.5228L14.6511 11.5787C14.2524 11.8115 14.0327 12.2612 14.094 12.7188L14.1055 12.8042C14.1919 13.4487 13.7245 14.0356 13.077 14.0956L12.8943 14.1126C12.4463 14.1541 12.0642 14.4543 11.9179 14.8797L11.8684 15.0236C11.6613 15.6254 11.0031 15.9426 10.4034 15.7297L10.1871 15.6528C9.77182 15.5054 9.3088 15.6095 8.99659 15.9204L8.84398 16.0724C8.39746 16.5172 7.67538 16.5172 7.22886 16.0724L7.07624 15.9204C6.76404 15.6095 6.30102 15.5054 5.88577 15.6528L5.66947 15.7297C5.06977 15.9426 4.41154 15.6254 4.20448 15.0236L4.15497 14.8797C4.00859 14.4543 3.62653 14.1541 3.17857 14.1126L2.99588 14.0956C2.34837 14.0356 1.88098 13.4487 1.96735 12.8042L1.9788 12.7188C2.04012 12.2612 1.82043 11.8115 1.42174 11.5787L1.32608 11.5228C0.75489 11.1892 0.584699 10.4422 0.954996 9.89404L0.992588 9.83839C1.25407 9.45134 1.25407 8.94423 0.992589 8.55718L0.954996 8.50153C0.584699 7.95341 0.754891 7.20641 1.32608 6.87278L1.42174 6.81691C1.82043 6.58404 2.04012 6.13439 1.9788 5.67676L1.96735 5.59139C1.88098 4.94686 2.34837 4.35998 2.99588 4.29993L3.17857 4.28298C3.62653 4.24143 4.00859 3.94126 4.15497 3.51586L4.20448 3.37197C4.41154 2.77021 5.06977 2.45298 5.66947 2.66592L5.88577 2.74272C6.30102 2.89017 6.76404 2.78609 7.07624 2.47513L7.22886 2.32312Z" fill="#5375BB"/>
</g>
<path d="M7.36847 0.946043C7.73696 0.579028 8.33283 0.579028 8.70132 0.946043L8.85393 1.09805C9.2207 1.46336 9.76464 1.58562 10.2525 1.41241L10.4688 1.33561C10.9637 1.15988 11.5068 1.42167 11.6777 1.91826L11.7272 2.06215C11.8992 2.5619 12.348 2.91453 12.8743 2.96334L13.057 2.98029C13.5913 3.02985 13.977 3.51416 13.9057 4.04604L13.8943 4.13141C13.8222 4.66902 14.0803 5.19726 14.5487 5.47083L14.6444 5.5267C15.1157 5.80202 15.2562 6.41846 14.9506 6.87079L14.913 6.92644C14.6058 7.38113 14.6058 7.97687 14.913 8.43157L14.9506 8.48721C15.2562 8.93954 15.1157 9.55599 14.6444 9.8313L14.5487 9.88718C14.0803 10.1607 13.8222 10.689 13.8943 11.2266L13.9057 11.312C13.977 11.8438 13.5913 12.3282 13.057 12.3777L12.8743 12.3947C12.348 12.4435 11.8992 12.7961 11.7272 13.2959L11.6777 13.4397C11.5068 13.9363 10.9637 14.1981 10.4688 14.0224L10.2525 13.9456C9.76464 13.7724 9.2207 13.8946 8.85393 14.26L8.70132 14.412C8.33283 14.779 7.73696 14.779 7.36847 14.412L7.21586 14.26C6.84908 13.8946 6.30515 13.7724 5.81733 13.9456L5.60103 14.0224C5.10613 14.1981 4.56294 13.9363 4.39207 13.4397L4.34256 13.2959C4.1706 12.7961 3.72177 12.4435 3.19551 12.3947L3.01283 12.3777C2.47848 12.3282 2.09277 11.8438 2.16406 11.312L2.1755 11.2266C2.24754 10.689 1.98946 10.1607 1.52109 9.88718L1.42022 10.0599L1.52109 9.88718L1.42543 9.8313C0.954063 9.55599 0.813616 8.93954 1.1192 8.48721L1.15679 8.43157C1.46396 7.97687 1.46396 7.38113 1.15679 6.92644L1.1192 6.87079C0.813616 6.41846 0.954064 5.80202 1.42543 5.5267L1.52109 5.47083C1.98946 5.19726 2.24754 4.66902 2.1755 4.13141L2.16406 4.04604C2.09277 3.51416 2.47848 3.02985 3.01283 2.98029L3.19551 2.96334C3.72177 2.91453 4.1706 2.5619 4.34256 2.06215L4.39207 1.91826C4.56294 1.42167 5.10613 1.15988 5.60103 1.33561L5.81733 1.41241C6.30515 1.58562 6.84908 1.46336 7.21586 1.09805L7.36847 0.946043Z" fill="#FFC658" stroke="#F27541" stroke-width="0.4"/>
<path d="M7.59573 5.27906C7.78567 4.93199 8.28416 4.93199 8.4741 5.27906L8.9334 6.11832C9.00715 6.25308 9.13869 6.34652 9.29021 6.3718L10.2299 6.52855C10.6324 6.5957 10.7898 7.09041 10.5001 7.37782L9.8577 8.01505C9.74454 8.1273 9.69159 8.28672 9.71511 8.44436L9.84894 9.34154C9.90802 9.73765 9.5012 10.0394 9.13931 9.8678L8.24937 9.44594C8.11364 9.3816 7.95619 9.3816 7.82046 9.44594L6.93053 9.8678C6.56864 10.0394 6.16181 9.73765 6.22089 9.34154L6.35473 8.44436C6.37824 8.28672 6.32529 8.1273 6.21213 8.01505L5.56973 7.37782C5.27999 7.09041 5.43739 6.5957 5.83994 6.52855L6.77962 6.3718C6.93115 6.34652 7.06268 6.25308 7.13643 6.11832L7.59573 5.27906Z" fill="white"/>
<ellipse cx="8.03654" cy="7.679" rx="4.82194" ry="4.64872" stroke="white" stroke-width="0.5"/>
</svg>
