<svg width="100" height="133" viewBox="0 0 100 133" fill="none" xmlns="http://www.w3.org/2000/svg">
<g clip-path="url(#clip0_949_61558)">
<path d="M50 93.0004C73.4721 93.0004 92.5 73.9726 92.5 50.5005C92.5 27.0283 73.4721 8.00045 50 8.00045C26.5279 8.00045 7.5 27.0283 7.5 50.5005C7.5 73.9726 26.5279 93.0004 50 93.0004Z" fill="#FFD6C5"/>
<path fill-rule="evenodd" clip-rule="evenodd" d="M40.099 60.5004C40.0338 60.9352 40.0002 61.3794 40.0002 61.8311C40.0002 67.039 44.4773 71.2608 50.0002 71.2608C55.523 71.2608 60.0002 67.039 60.0002 61.8311C60.0002 61.3794 59.9665 60.9352 59.9014 60.5004H84.1668V81.4764C84.1668 82.7783 83.0475 83.8338 81.6668 83.8338H18.3335C16.9528 83.8338 15.8335 82.7783 15.8335 81.4764V60.5004H40.099Z" fill="#FEF6F2"/>
<path fill-rule="evenodd" clip-rule="evenodd" d="M60.8335 60.5004C60.8335 66.4835 55.9832 71.3338 50.0002 71.3338C44.0171 71.3338 39.1668 66.4835 39.1668 60.5004C39.1668 60.3066 39.1719 60.114 39.182 59.9226H15.8335L23.8005 36.3662C24.144 35.3506 25.0967 34.6671 26.1688 34.6671H73.8316C74.9036 34.6671 75.8563 35.3506 76.1998 36.3662L84.1668 59.9226H60.8184C60.8284 60.114 60.8335 60.3066 60.8335 60.5004Z" fill="#FFEAE1"/>
<path fill-rule="evenodd" clip-rule="evenodd" d="M59.2481 61.2959C59.2481 65.9192 55.1077 70.5004 50.0002 70.5004C44.8927 70.5004 40.7522 65.9192 40.7522 61.2959C40.7522 61.1461 40.7565 60.1639 40.7651 60.0161H23.3335L30.1346 43.48C30.4278 42.6953 31.2411 42.1671 32.1563 42.1671H67.8441C68.7592 42.1671 69.5725 42.6953 69.8657 43.48L76.6668 60.0161H59.2352C59.2438 60.1639 59.2481 61.1461 59.2481 61.2959Z" fill="#FFD6C5"/>
<path fill-rule="evenodd" clip-rule="evenodd" d="M16.875 60.094V82.1671C16.875 82.9725 17.5279 83.6255 18.3333 83.6255H81.6667C82.4721 83.6255 83.125 82.9725 83.125 82.1671V60.094L75.2129 36.6999C75.0125 36.1075 74.4568 35.7088 73.8314 35.7088H26.1686C25.5432 35.7088 24.9875 36.1075 24.7871 36.6999L16.875 60.094Z" stroke="#FEBEA3" stroke-width="2.08333"/>
<path d="M17.5 59.6671C20.7805 59.6671 34.3207 59.6671 38.1208 59.6671C39.6843 59.6671 39.6843 60.7659 39.6843 61.3338C39.6843 66.8566 44.2645 71.3338 49.9144 71.3338C55.5643 71.3338 60.1445 66.8566 60.1445 61.3338C60.1445 60.7659 60.1445 59.6671 61.708 59.6671H82.5" stroke="#FEBEA3" stroke-width="2.08333" stroke-linecap="round" stroke-linejoin="round"/>
<path d="M49.2497 10.5004V24.4637M27.5 17.4194L36.7497 27.797M70.9163 17.4194L61.6667 27.797" stroke="#FEBEA3" stroke-width="2.08333" stroke-linecap="round" stroke-linejoin="round"/>
<path d="M13.744 126.38H22.112V123.756H13.744V126.38ZM22.112 119.996H13.744V122.62H22.112V119.996ZM22.112 116.268H13.744V118.86H22.112V116.268ZM12.576 115.116H23.344V128.636H22.112V127.548H13.744V128.636H12.576V115.116ZM29.008 124.268H32.576V122.668H29.056V122.94C29.056 123.372 29.04 123.804 29.008 124.268ZM32.576 120.124H29.056V121.74H32.576V120.124ZM33.728 119.148V127.356C33.728 127.964 33.584 128.268 33.152 128.46C32.704 128.652 32.016 128.652 30.928 128.652C30.864 128.348 30.688 127.9 30.544 127.612C31.344 127.644 32.064 127.644 32.272 127.628C32.512 127.612 32.576 127.548 32.576 127.34V125.212H28.928C28.752 126.476 28.416 127.788 27.68 128.78C27.52 128.572 27.056 128.204 26.784 128.092C27.856 126.588 27.968 124.54 27.968 122.94V119.148H33.728ZM38.88 127.228V118.828H40.048V127.228C40.048 127.948 39.888 128.268 39.408 128.46C38.896 128.652 38.096 128.684 36.88 128.668C36.816 128.348 36.624 127.852 36.448 127.532C37.424 127.564 38.288 127.564 38.528 127.548C38.8 127.532 38.88 127.468 38.88 127.228ZM36.768 119.308V125.804H35.664V119.308H36.768ZM37.376 116.636H41.104V117.724H26.912V116.636H30.832C30.544 116.012 29.92 115.148 29.376 114.508L30.464 114.092C31.088 114.764 31.76 115.708 32.064 116.332L31.28 116.636H36.048C36.592 115.868 37.2 114.812 37.552 114.044L38.8 114.46C38.368 115.196 37.84 115.98 37.376 116.636ZM56.544 117.02H45.408C44.8 117.772 44.128 118.444 43.44 118.988C43.312 118.764 42.944 118.284 42.704 118.06C44.048 117.1 45.328 115.58 46.096 114.012L47.152 114.348C46.88 114.892 46.56 115.436 46.208 115.948H56.544V117.02ZM44.336 128.732L43.216 128.284C43.776 127.516 44.432 126.268 44.832 125.228L45.952 125.516C45.552 126.556 44.928 127.884 44.336 128.732ZM47.504 125.676L48.608 125.58C48.816 126.508 48.992 127.708 49.008 128.428L47.84 128.604C47.84 127.868 47.696 126.636 47.504 125.676ZM50.8 125.644L51.888 125.452C52.336 126.364 52.768 127.58 52.928 128.332L51.76 128.572C51.616 127.82 51.2 126.588 50.8 125.644ZM54.096 125.58L55.168 125.148C55.76 126.108 56.496 127.42 56.848 128.204L55.696 128.7C55.392 127.9 54.672 126.572 54.096 125.58ZM46.48 120.78V123.5H48.144V120.78H46.48ZM51.024 120.78H49.168V123.5H51.024V120.78ZM53.808 120.78H52.048V123.5H53.808V120.78ZM54.912 123.5H57.056V124.572H42.96V123.5H45.408V120.78H43.488V119.708H45.408V117.948H46.48V119.708H48.144V117.948H49.168V119.708H51.024V117.948H52.048V119.708H53.808V117.948H54.912V119.708H56.72V120.78H54.912V123.5ZM67.568 116.124H65.92C65.568 116.732 65.152 117.292 64.72 117.724C64.528 117.548 64.08 117.244 63.824 117.116C64.656 116.364 65.312 115.244 65.664 114.076L66.736 114.316C66.64 114.62 66.512 114.908 66.4 115.196H71.76L71.952 115.148L72.752 115.42C72.352 116.236 71.84 117.164 71.408 117.724L70.464 117.388C70.704 117.052 70.992 116.588 71.216 116.124H68.672V116.332C68.672 116.492 68.656 116.668 68.624 116.86C69.472 117.82 71.216 118.444 73.312 118.62C73.088 118.844 72.784 119.276 72.64 119.564C70.816 119.308 69.28 118.668 68.288 117.692C67.76 118.476 66.496 119.212 63.68 119.644C63.552 119.388 63.248 118.956 63.04 118.764C67.184 118.204 67.568 117.116 67.568 116.284V116.124ZM62.08 124.268V125.388H70.096V124.268H62.08ZM62.08 122.412V123.5H70.096V122.412H62.08ZM62.08 120.556V121.644H70.096V120.556H62.08ZM60.928 126.172V119.756H71.28V126.172H60.928ZM63.008 115.068V115.996H59.184V115.068H63.008ZM63.408 117.548V118.508H58.832V117.548H63.408ZM63.6 126.284L64.672 126.764C63.392 127.532 61.376 128.284 59.792 128.716C59.584 128.476 59.184 128.028 58.912 127.82C60.544 127.484 62.464 126.908 63.6 126.284ZM67.504 126.908L68.32 126.268C70.032 126.796 71.904 127.484 73.024 127.996L71.984 128.684C70.96 128.172 69.232 127.484 67.504 126.908ZM85.376 117.196L84.768 118.108C84.256 117.5 83.168 116.636 82.256 116.044L82.864 115.244C83.76 115.788 84.864 116.604 85.376 117.196ZM84.688 121.02L84.096 121.98C83.536 121.388 82.4 120.572 81.44 120.06L82 119.228C82.944 119.724 84.128 120.444 84.688 121.02ZM80.064 115.084L81.088 115.34C80.704 116.54 80.208 118.028 79.776 118.924L78.992 118.668C79.376 117.724 79.824 116.156 80.064 115.084ZM76.736 118.652L75.808 118.892C75.712 117.948 75.36 116.476 74.928 115.356L75.792 115.148C76.256 116.252 76.624 117.692 76.736 118.652ZM76.192 121.5L77.056 121.772C76.72 123.548 76.048 125.788 75.216 126.94C75.088 126.54 74.816 125.98 74.608 125.628C75.264 124.7 75.92 122.924 76.192 121.5ZM81.104 120.572H78.48V128.732H77.376V120.572H74.816V119.452H77.376V114.124H78.48V119.452H81.104V120.572ZM78.56 121.98L79.216 121.516C79.52 121.98 80.672 124.156 80.912 124.7L80.064 125.58C79.776 124.7 78.896 122.668 78.56 121.98ZM89.392 123.852L87.328 124.22V128.716H86.208V124.428L81.248 125.324L81.056 124.22L86.208 123.308V114.124H87.328V123.1L89.216 122.764L89.392 123.852Z" fill="#FB976E"/>
</g>
<defs>
<clipPath id="clip0_949_61558">
<rect width="100" height="132" fill="white" transform="translate(0 0.500488)"/>
</clipPath>
</defs>
</svg>
