<svg width="12" height="12" viewBox="0 0 12 12" fill="none" xmlns="http://www.w3.org/2000/svg">
<path d="M11.305 4.42327L7.95768 3.9368L6.46134 0.903252C6.42047 0.820195 6.35323 0.752959 6.27017 0.71209C6.06187 0.609258 5.80875 0.694951 5.7046 0.903252L4.20826 3.9368L0.860946 4.42327C0.768661 4.43646 0.684286 4.47996 0.619686 4.54588C0.541589 4.62615 0.498554 4.73414 0.500037 4.84613C0.50152 4.95811 0.547401 5.06492 0.627597 5.1431L3.04942 7.50428L2.47725 10.8384C2.46384 10.916 2.47242 10.9957 2.50203 11.0687C2.53164 11.1416 2.58109 11.2048 2.64478 11.251C2.70846 11.2973 2.78384 11.3248 2.86235 11.3304C2.94086 11.336 3.01937 11.3194 3.08897 11.2827L6.08297 9.70858L9.07696 11.2827C9.1587 11.3262 9.25362 11.3407 9.34459 11.3249C9.57398 11.2853 9.72823 11.0678 9.68868 10.8384L9.11651 7.50428L11.5383 5.1431C11.6043 5.0785 11.6478 4.99412 11.6609 4.90184C11.6965 4.67112 11.5357 4.45755 11.305 4.42327Z" fill="#FFC658"/>
</svg>
