<svg width="241" height="206" viewBox="0 0 241 206" fill="none" xmlns="http://www.w3.org/2000/svg">
<g id="Group 4">
<path id="Vector" opacity="0.18" d="M67.8866 8.02192C76.7458 10.272 84.986 15.2241 94.174 15.1928C103.068 15.165 111.018 10.4876 119.192 7.26379C131.16 2.54114 144.283 0.812748 157.287 0.186771C168.007 -0.3314 179.223 -0.0323214 188.765 4.51992C198.306 9.07217 205.14 17.6376 209.012 26.909C212.883 36.1805 214.017 46.217 214.454 56.1387C214.804 64.5338 214.716 73.0262 216.745 81.2195C219.543 92.5323 226.247 102.635 231.62 113.134C235.918 121.529 239.444 130.428 240.308 139.686C241.171 148.943 239.174 158.66 233.285 166.206C224.471 177.505 208.602 182.186 193.563 183.393C185.131 184.068 176.425 183.915 168.535 186.718C163.215 188.602 158.542 191.743 153.457 194.111C143.314 198.837 131.772 200.402 120.423 200.948C91.5611 202.333 62.7361 197.549 35.8913 186.919C31.8971 185.327 27.8959 183.563 24.6747 180.868C21.0827 177.87 18.6589 173.882 16.7668 169.768C13.3626 162.329 11.5245 154.277 11.3657 146.107C11.207 137.936 12.7308 129.819 15.8434 122.256C20.5091 111.016 28.7843 100.197 27.4342 88.2305C25.4092 70.404 7.49835 54.6329 15.0285 35.7666C22.9959 15.8432 44.6036 2.11339 67.8866 8.02192Z" fill="#6B56CA"/>
<path id="Vector_2" opacity="0.52" d="M58.4087 198.048C56.8138 198.496 55.0021 199.14 54.446 200.691C53.9389 202.113 54.7958 203.737 56.0724 204.565C57.349 205.393 58.9088 205.608 60.4233 205.726C64.9701 206.095 69.5168 205.893 74.0636 205.695L102.187 204.454C107.689 204.214 113.523 203.862 118.038 200.726C118.737 200.242 119.437 199.526 119.287 198.702C119.164 198.083 118.587 197.658 118.031 197.366C113.134 194.654 107.143 195.165 101.537 194.758C94.1394 194.219 86.8261 191.903 79.3694 192.209C72.2869 192.483 65.2394 196.118 58.4087 198.048Z" fill="url(#paint0_linear_1922_4006)"/>
<path id="Vector_3" d="M0.5 40.3154L1.93398 39.6859H67.6874V86.3213C67.6874 86.3213 67.6874 93.7808 62.2453 96.8029C60.0209 98.0444 0.5 40.3154 0.5 40.3154Z" fill="#6B56CA"/>
<path id="Vector_4" d="M66.6976 40.3154V88.7556C66.6967 91.2868 65.6848 93.714 63.8844 95.5035C62.084 97.293 59.6426 98.2983 57.0969 98.2983H0.5V40.3154H66.6976Z" fill="#6B56CA"/>
<path id="Vector_5" d="M66.6976 40.3154V88.7556C66.6967 91.2868 65.6848 93.714 63.8844 95.5035C62.084 97.293 59.6426 98.2983 57.0969 98.2983H0.5V40.3154H66.6976Z" fill="url(#paint1_linear_1922_4006)"/>
<path id="Vector_6" d="M66.6976 88.7556C66.6967 91.2868 65.6848 93.714 63.8844 95.5035C62.084 97.293 59.6426 98.2983 57.0969 98.2983H55.5825C58.9366 97.2237 58.5029 91.3082 58.5029 91.3082C64.7775 92.3828 66.6976 88.7556 66.6976 88.7556Z" fill="#6B56CA"/>
<path id="Vector_7" d="M154.29 54.2956H88.0957V112.278H154.29V54.2956Z" fill="#6B56CA"/>
<path id="Vector_8" d="M154.29 54.2956H88.0957V112.278H154.29V54.2956Z" fill="url(#paint2_linear_1922_4006)"/>
<path id="Vector_9" d="M229.277 30.8527H163.083V88.8356H229.277V30.8527Z" fill="#6B56CA"/>
<path id="Vector_10" d="M229.277 30.8527H163.083V88.8356H229.277V30.8527Z" fill="url(#paint3_linear_1922_4006)"/>
<path id="Vector_11" opacity="0.34" d="M42.6348 31.7291L33.2579 53.1097C33.2579 52.8906 33.2579 52.6715 33.2369 52.4559C32.7123 52.6506 32.3556 52.0629 32.1877 51.5274C31.9009 50.6788 31.5406 49.6425 30.7152 49.7016C30.285 49.7329 29.8688 50.0772 29.4876 50.3971C29.1562 50.759 28.739 51.0328 28.274 51.1935C28.1878 51.213 28.0987 51.2155 28.0116 51.2007C27.9245 51.1859 27.8412 51.1542 27.7665 51.1073C27.6918 51.0605 27.6271 50.9995 27.5761 50.9277C27.5252 50.856 27.4889 50.7749 27.4695 50.6892C27.452 50.6043 27.452 50.5168 27.4695 50.4319L26.5916 51.0057C25.7487 51.5517 26.151 50.2858 25.9586 49.865C25.4426 50.0515 24.9728 50.3455 24.5806 50.7275L34.4611 28.168L42.6348 31.7291Z" fill="#6B56CA"/>
<path id="Vector_12" opacity="0.34" d="M110.165 58.8652C110.364 58.7783 110.56 58.6809 110.756 58.5766C110.361 58.1801 110.756 57.6202 111.172 57.2342C111.833 56.6291 112.634 55.8779 112.242 55.1476C112.036 54.7685 111.543 54.5286 111.085 54.3234C110.618 54.1724 110.197 53.9069 109.861 53.5513C109.794 53.4652 109.75 53.3642 109.732 53.2572C109.714 53.1502 109.723 53.0404 109.757 52.9375C109.792 52.8346 109.851 52.7416 109.93 52.6667C110.009 52.5919 110.105 52.5374 110.21 52.5081C109.913 52.3237 109.619 52.1359 109.325 51.9482C108.476 51.4091 109.805 51.2526 110.109 50.9049C109.728 50.5112 109.267 50.2039 108.755 50.0041L131.685 49.7433C131.478 50.0272 131.357 50.3637 131.335 50.7136C131.335 51.0926 131.926 51.3569 132.101 51.6456C132.122 51.6838 132.14 51.7221 132.157 51.7604L132.252 52.202C132.234 52.502 132.132 52.7912 131.958 53.0367C131.685 53.3815 131.468 53.7663 131.314 54.1773C131.235 54.681 131.335 55.1966 131.598 55.6345C131.947 56.33 132.486 56.9768 133.235 57.182H133.304L133.598 58.5731L110.165 58.8652Z" fill="#6B56CA"/>
<path id="Vector_13" opacity="0.34" d="M184.298 29.6321C184.519 29.6321 184.739 29.6564 184.959 29.6564C184.802 29.1243 185.414 28.8148 185.967 28.6757C186.838 28.4566 187.904 28.1749 187.908 27.3542C187.908 26.923 187.593 26.4848 187.282 26.0814C186.947 25.7258 186.707 25.2932 186.582 24.8225C186.554 24.6486 186.596 24.4707 186.7 24.3279C186.804 24.1851 186.96 24.089 187.135 24.0609C187.223 24.0434 187.313 24.0434 187.401 24.0609L186.89 23.1462C186.404 22.2699 187.645 22.7637 188.083 22.6037C187.935 22.0777 187.677 21.5892 187.324 21.1709L207.588 31.816C207.273 31.9724 207.008 32.2133 206.822 32.5115C206.641 32.8593 207.039 33.3566 207.05 33.694C207.057 33.7366 207.057 33.78 207.05 33.8226L206.931 34.2504C206.766 34.5033 206.539 34.7094 206.27 34.8485C205.863 35.018 205.487 35.253 205.158 35.5441C204.845 35.9489 204.686 36.4497 204.706 36.9595C204.682 37.7315 204.843 38.5627 205.406 39.0982C205.422 39.1162 205.441 39.1314 205.462 39.1434L205.046 40.5101L184.298 29.6321Z" fill="#6B56CA"/>
<path id="Vector_14" opacity="0.34" d="M42.6348 31.7291L33.2579 53.1097C33.2579 52.8906 33.2579 52.6715 33.2369 52.4559C32.7123 52.6506 32.3556 52.0629 32.1877 51.5274C31.9009 50.6788 31.5406 49.6425 30.7152 49.7016C30.285 49.7329 29.8688 50.0772 29.4876 50.3971C29.1562 50.759 28.739 51.0328 28.274 51.1935C28.1878 51.213 28.0987 51.2155 28.0116 51.2007C27.9245 51.1859 27.8412 51.1542 27.7665 51.1073C27.6918 51.0605 27.6271 50.9995 27.5761 50.9277C27.5252 50.856 27.4889 50.7749 27.4695 50.6892C27.452 50.6043 27.452 50.5168 27.4695 50.4319L26.5916 51.0057C25.7487 51.5517 26.151 50.2858 25.9586 49.865C25.4426 50.0515 24.9728 50.3455 24.5806 50.7275L34.4611 28.168L42.6348 31.7291Z" fill="white"/>
<path id="Vector_15" opacity="0.34" d="M110.165 58.8652C110.364 58.7783 110.56 58.6809 110.756 58.5766C110.361 58.1801 110.756 57.6202 111.172 57.2342C111.833 56.6291 112.634 55.8779 112.242 55.1476C112.036 54.7685 111.543 54.5286 111.085 54.3234C110.618 54.1724 110.197 53.9069 109.861 53.5513C109.794 53.4652 109.75 53.3642 109.732 53.2572C109.714 53.1502 109.723 53.0404 109.757 52.9375C109.792 52.8346 109.851 52.7416 109.93 52.6667C110.009 52.5919 110.105 52.5374 110.21 52.5081C109.913 52.3237 109.619 52.1359 109.325 51.9482C108.476 51.4091 109.805 51.2526 110.109 50.9049C109.728 50.5112 109.267 50.2039 108.755 50.0041L131.685 49.7433C131.478 50.0272 131.357 50.3637 131.335 50.7136C131.335 51.0926 131.926 51.3569 132.101 51.6456C132.122 51.6838 132.14 51.7221 132.157 51.7604L132.252 52.202C132.234 52.502 132.132 52.7912 131.958 53.0367C131.685 53.3815 131.468 53.7663 131.314 54.1773C131.235 54.681 131.335 55.1966 131.598 55.6345C131.947 56.33 132.486 56.9768 133.235 57.182H133.304L133.598 58.5731L110.165 58.8652Z" fill="white"/>
<path id="Vector_16" opacity="0.34" d="M184.298 29.6321C184.519 29.6321 184.739 29.6564 184.959 29.6564C184.802 29.1243 185.414 28.8148 185.967 28.6757C186.838 28.4566 187.904 28.1749 187.908 27.3542C187.908 26.923 187.593 26.4848 187.282 26.0814C186.947 25.7258 186.707 25.2932 186.582 24.8225C186.554 24.6486 186.596 24.4707 186.7 24.3279C186.804 24.1851 186.96 24.089 187.135 24.0609C187.223 24.0434 187.313 24.0434 187.401 24.0609L186.89 23.1462C186.404 22.2699 187.645 22.7637 188.083 22.6037C187.935 22.0777 187.677 21.5892 187.324 21.1709L207.588 31.816C207.273 31.9724 207.008 32.2133 206.822 32.5115C206.641 32.8593 207.039 33.3566 207.05 33.694C207.057 33.7366 207.057 33.78 207.05 33.8226L206.931 34.2504C206.766 34.5033 206.539 34.7094 206.27 34.8485C205.863 35.018 205.487 35.253 205.158 35.5441C204.845 35.9489 204.686 36.4497 204.706 36.9595C204.682 37.7315 204.843 38.5627 205.406 39.0982C205.422 39.1162 205.441 39.1314 205.462 39.1434L205.046 40.5101L184.298 29.6321Z" fill="white"/>
<path id="Vector_17" d="M218.732 53.7043H173.627V54.8902H218.732V53.7043Z" fill="url(#paint4_linear_1922_4006)"/>
<path id="Vector_18" d="M218.732 62.6037H173.627V63.7895H218.732V62.6037Z" fill="url(#paint5_linear_1922_4006)"/>
<path id="Vector_19" d="M218.732 71.5065H173.627V72.6924H218.732V71.5065Z" fill="url(#paint6_linear_1922_4006)"/>
<path id="Vector_20" d="M50.1577 59.8111H17.0361V60.997H50.1577V59.8111Z" fill="url(#paint7_linear_1922_4006)"/>
<path id="Vector_21" d="M50.1577 68.7139H17.0361V69.8998H50.1577V68.7139Z" fill="url(#paint8_linear_1922_4006)"/>
<path id="Vector_22" d="M50.1577 77.6167H17.0361V78.8026H50.1577V77.6167Z" fill="url(#paint9_linear_1922_4006)"/>
<path id="Vector_23" d="M137.222 69.3086H104.1V70.4945H137.222V69.3086Z" fill="url(#paint10_linear_1922_4006)"/>
<path id="Vector_24" d="M137.222 78.2114H104.1V79.3972H137.222V78.2114Z" fill="url(#paint11_linear_1922_4006)"/>
<path id="Vector_25" d="M137.222 87.1107H104.1V88.2966H137.222V87.1107Z" fill="url(#paint12_linear_1922_4006)"/>
<path id="Vector_26" d="M66.6978 102.937C66.6978 102.937 78.6103 82.2976 82.7864 75.7666L85.4655 72.5393L88.0921 76.9803L88.1516 80.5553L77.1623 101.146C77.1623 101.146 69.3069 108.29 66.6978 102.937Z" fill="#6B56CA"/>
<path id="Vector_27" d="M88.2706 73.0853L75.1724 99.5468L84.5422 87.7054L88.1622 80.5692L88.2706 73.0853Z" fill="url(#paint13_linear_1922_4006)"/>
<path id="Vector_28" d="M103.653 71.503C104.152 72.1855 104.391 73.0225 104.328 73.8643C105.922 72.5637 105.947 69.8302 107.762 68.853C107.762 69.9008 107.576 70.9403 107.213 71.9238C107.79 70.7414 108.5 69.4373 109.77 69.0617C109.602 70.4084 109.106 71.694 108.325 72.8071L109.98 71.1448C110.126 70.9953 110.329 70.8318 110.529 70.9327C110.728 71.0335 110.676 71.3778 110.567 71.6073L108.741 75.4884C109.319 75.0262 109.947 74.6297 110.613 74.306L108.609 77.5889C108.381 78.006 108.101 78.3927 107.776 78.74C107.031 79.4842 105.845 79.9189 105.59 80.9379C105.646 80.7188 102.708 79.7868 102.502 79.4703C102.152 78.9243 102.796 77.7767 102.869 77.1229C103.079 75.2867 102.575 73.1653 103.653 71.503Z" fill="url(#paint14_linear_1922_4006)"/>
<path id="Vector_29" d="M86.1441 138.183L90.1802 167.417C90.3481 168.647 90.2186 169.9 89.8025 171.072L85.3222 191.652L78.3761 190.922L81.5553 169.893C81.625 169.46 81.5976 169.017 81.4749 168.596L75.9978 149.816L74.9485 171.086L65.9703 189.169L59.6748 186.665L67.6701 170.404L66.3866 150.317C65.2499 143.327 67.3274 138.166 67.3274 138.166L86.1441 138.183Z" fill="#3F3D56"/>
<path id="Vector_30" d="M86.1437 135.071H67.313V138.183H86.1437V135.071Z" fill="#6B56CA"/>
<path id="Vector_31" d="M86.1437 135.071H67.313V138.183H86.1437V135.071Z" fill="url(#paint15_linear_1922_4006)"/>
<path id="Vector_32" d="M106.825 81.5847L89.1096 110.679L88.1863 132.515C88.1863 134.601 88.1023 136.34 86.5424 136.817C86.2387 136.902 85.9242 136.943 85.6086 136.938H69.9362C68.75 136.938 67.6122 136.471 66.7718 135.639C65.9314 134.806 65.457 133.677 65.4524 132.498V112.424C65.4524 112.424 64.2982 101.049 69.7263 101.049H80.5931C81.8903 101.051 83.1708 100.76 84.3383 100.198C85.5058 99.6355 86.5297 98.8172 87.3329 97.8044L101.834 78.806L106.825 81.5847Z" fill="#6B56CA"/>
<path id="Vector_33" d="M79.7262 87.4167H74.291V101.157H79.7262V87.4167Z" fill="url(#paint16_linear_1922_4006)"/>
<path id="Vector_34" d="M74.2979 85.9144V101.16H77.1658V100.232C77.1658 99.6858 77.384 99.1622 77.7723 98.7761C78.1606 98.39 78.6872 98.1731 79.2364 98.1731H79.4007C80.7662 98.1731 82.0757 97.6338 83.0412 96.6737C84.0067 95.7137 84.5491 94.4117 84.5491 93.054V85.9144H74.2979Z" fill="url(#paint17_linear_1922_4006)"/>
<path id="Vector_35" d="M86.672 72.581C86.7805 72.355 86.8609 72.1185 86.9798 71.8855C87.2261 71.471 87.5325 71.0949 87.8892 70.7692L89.0224 69.6216C89.0996 69.5237 89.2082 69.455 89.3301 69.4268C89.5645 69.399 89.7289 69.6842 89.6799 69.9137C89.6108 70.1329 89.491 70.333 89.3301 70.4979C88.7524 71.2467 88.3898 72.1373 88.2809 73.0749C88.1783 74.0067 88.1351 74.9441 88.1515 75.8813C88.1723 76.1889 88.1095 76.4965 87.9696 76.7716C87.614 75.9955 87.2195 75.2375 86.7875 74.5007C86.6371 74.2503 86.1789 73.76 86.1649 73.4783C86.1509 73.1966 86.5741 72.828 86.672 72.581Z" fill="url(#paint18_linear_1922_4006)"/>
<path id="Vector_36" d="M85.0386 83.5148C84.9415 82.9861 84.7334 82.4836 84.4278 82.0402C84.1223 81.5968 83.7262 81.2224 83.2654 80.9413V81.7238C81.2333 80.7466 78.8025 81.5152 76.5746 81.15C76.8329 81.4174 77.0413 81.7282 77.1902 82.0681C75.7334 82.0683 74.2965 82.4052 72.9932 83.0523L73.3429 83.56C73.3851 83.6123 73.4128 83.6747 73.4234 83.7409C73.4234 83.8765 73.2939 83.9669 73.1855 84.0504C72.556 84.5268 72.486 85.4414 72.521 86.2274C72.6364 88.6061 73.2555 90.9257 73.871 93.2279C74.1054 94.1008 74.3362 94.9667 74.5705 95.8466L75.0602 95.1754L75.5254 95.4988C76.1619 94.5181 78.939 94.3129 79.1908 93.1722C78.4913 93.0123 77.6554 92.0698 77.7323 91.3569C77.8093 90.644 78.0401 90.484 78.7221 90.7135C79.1978 90.87 78.4178 89.9033 78.3339 89.5103C78.2499 89.1173 78.0716 88.7174 78.2674 88.38C78.5367 87.9106 79.2397 88.0323 79.7434 88.227C79.9626 87.6043 80.3791 87.069 80.9303 86.7016C81.4814 86.3341 82.1376 86.1543 82.8002 86.1891C83.4997 86.2413 84.1747 86.6621 84.6364 86.0013C85.0981 85.3406 85.175 84.2799 85.0386 83.5148Z" fill="#3F3D56"/>
<path id="Vector_37" d="M106.825 81.5847L89.1099 110.679L88.1865 132.515C88.1865 134.602 88.225 136.626 86.0251 136.938H83.0767C83.0767 136.938 85.5669 111.969 85.1087 109.549C84.6505 107.128 105.604 80.9344 105.604 80.9344L106.825 81.5847Z" fill="url(#paint19_linear_1922_4006)"/>
<path id="Vector_38" d="M79.5442 191.033L78.3306 196.25H94.0694C94.0694 196.25 94.2338 193.669 90.9881 192.772C89.0296 192.24 86.9712 192.184 84.9864 192.609L84.5701 191.565L79.5442 191.033Z" fill="#3F3D56"/>
<path id="Vector_39" d="M60.9614 187.17L58.1914 191.343L61.4371 193.224L62.4619 192.689L64.7877 195.054L72.9545 195.321C72.9545 195.321 72.4158 191.259 68.628 191.249C64.8402 191.239 65.176 188.849 65.176 188.849L60.9614 187.17Z" fill="#3F3D56"/>
</g>
<defs>
<linearGradient id="paint0_linear_1922_4006" x1="98.8261" y1="179.421" x2="39.6558" y2="282.235" gradientUnits="userSpaceOnUse">
<stop stop-opacity="0"/>
<stop offset="0.98"/>
</linearGradient>
<linearGradient id="paint1_linear_1922_4006" x1="32.8626" y1="60.0024" x2="44.7828" y2="212.209" gradientUnits="userSpaceOnUse">
<stop stop-opacity="0"/>
<stop offset="0.98"/>
</linearGradient>
<linearGradient id="paint2_linear_1922_4006" x1="122.634" y1="79.1016" x2="84.7871" y2="190.327" gradientUnits="userSpaceOnUse">
<stop stop-opacity="0"/>
<stop offset="0.98"/>
</linearGradient>
<linearGradient id="paint3_linear_1922_4006" x1="189.884" y1="43.9739" x2="245.046" y2="184.623" gradientUnits="userSpaceOnUse">
<stop stop-opacity="0"/>
<stop offset="0.98"/>
</linearGradient>
<linearGradient id="paint4_linear_1922_4006" x1="194.417" y1="25.2398" x2="203.401" y2="174.952" gradientUnits="userSpaceOnUse">
<stop stop-opacity="0"/>
<stop offset="0.98"/>
</linearGradient>
<linearGradient id="paint5_linear_1922_4006" x1="193.878" y1="25.2711" x2="202.862" y2="174.983" gradientUnits="userSpaceOnUse">
<stop stop-opacity="0"/>
<stop offset="0.98"/>
</linearGradient>
<linearGradient id="paint6_linear_1922_4006" x1="193.339" y1="25.3057" x2="202.324" y2="175.015" gradientUnits="userSpaceOnUse">
<stop stop-opacity="0"/>
<stop offset="0.98"/>
</linearGradient>
<linearGradient id="paint7_linear_1922_4006" x1="32.0545" y1="34.9808" x2="41.0384" y2="184.692" gradientUnits="userSpaceOnUse">
<stop stop-opacity="0"/>
<stop offset="0.98"/>
</linearGradient>
<linearGradient id="paint8_linear_1922_4006" x1="31.5159" y1="35.0154" x2="40.4999" y2="184.728" gradientUnits="userSpaceOnUse">
<stop stop-opacity="0"/>
<stop offset="0.98"/>
</linearGradient>
<linearGradient id="paint9_linear_1922_4006" x1="30.9773" y1="35.0466" x2="39.9613" y2="184.759" gradientUnits="userSpaceOnUse">
<stop stop-opacity="0"/>
<stop offset="0.98"/>
</linearGradient>
<linearGradient id="paint10_linear_1922_4006" x1="118.23" y1="29.8093" x2="127.211" y2="179.522" gradientUnits="userSpaceOnUse">
<stop stop-opacity="0"/>
<stop offset="0.98"/>
</linearGradient>
<linearGradient id="paint11_linear_1922_4006" x1="117.691" y1="29.8444" x2="126.672" y2="179.556" gradientUnits="userSpaceOnUse">
<stop stop-opacity="0"/>
<stop offset="0.98"/>
</linearGradient>
<linearGradient id="paint12_linear_1922_4006" x1="117.153" y1="29.8757" x2="126.133" y2="179.587" gradientUnits="userSpaceOnUse">
<stop stop-opacity="0"/>
<stop offset="0.98"/>
</linearGradient>
<linearGradient id="paint13_linear_1922_4006" x1="78.3306" y1="81.9047" x2="91.3348" y2="99.0132" gradientUnits="userSpaceOnUse">
<stop stop-opacity="0"/>
<stop offset="0.98"/>
</linearGradient>
<linearGradient id="paint14_linear_1922_4006" x1="102.397" y1="74.8937" x2="110.665" y2="74.8937" gradientUnits="userSpaceOnUse">
<stop stop-color="#ECC4D7"/>
<stop offset="0.42" stop-color="#EFD4D1"/>
<stop offset="1" stop-color="#F2EAC9"/>
</linearGradient>
<linearGradient id="paint15_linear_1922_4006" x1="76.7633" y1="127.674" x2="76.6561" y2="155.826" gradientUnits="userSpaceOnUse">
<stop stop-opacity="0"/>
<stop offset="0.98"/>
</linearGradient>
<linearGradient id="paint16_linear_1922_4006" x1="78.6839" y1="94.3164" x2="69.7618" y2="94.1511" gradientUnits="userSpaceOnUse">
<stop stop-color="#ECC4D7"/>
<stop offset="0.42" stop-color="#EFD4D1"/>
<stop offset="1" stop-color="#F2EAC9"/>
</linearGradient>
<linearGradient id="paint17_linear_1922_4006" x1="78.1696" y1="92.8801" x2="80.0047" y2="93.8555" gradientUnits="userSpaceOnUse">
<stop stop-color="#ECC4D7"/>
<stop offset="0.42" stop-color="#EFD4D1"/>
<stop offset="1" stop-color="#F2EAC9"/>
</linearGradient>
<linearGradient id="paint18_linear_1922_4006" x1="86.1509" y1="73.0992" x2="89.6939" y2="73.0992" gradientUnits="userSpaceOnUse">
<stop stop-color="#ECC4D7"/>
<stop offset="0.42" stop-color="#EFD4D1"/>
<stop offset="1" stop-color="#F2EAC9"/>
</linearGradient>
<linearGradient id="paint19_linear_1922_4006" x1="80.8278" y1="95.9996" x2="122.155" y2="135.254" gradientUnits="userSpaceOnUse">
<stop stop-opacity="0"/>
<stop offset="0.98"/>
</linearGradient>
</defs>
</svg>
