<svg width="315" height="171" viewBox="0 0 315 171" fill="none" xmlns="http://www.w3.org/2000/svg">
<g clip-path="url(#clip0_3259_33947)">
<g clip-path="url(#clip1_3259_33947)">
<path opacity="0.24" d="M302.416 148.091C301.46 149.083 300.474 150.034 299.425 150.956C298.258 151.975 297.038 152.931 295.77 153.821C284.459 162.038 270.334 165.854 256.468 168.015C234.906 171.349 212.983 171.132 191.187 170.92C140.557 170.415 89.9249 169.842 39.2911 169.201C26.1753 169 10.6414 167.436 3.93159 156.354C3.7885 156.139 3.65653 155.918 3.53622 155.689C-9.58538 132.093 20.1416 111.454 32.4782 96.9227C40.5002 87.5198 40.9471 74.1173 43.3651 62.0156C46.7344 45.2611 54.9282 29.0854 68.2618 18.3875C81.5954 7.68958 100.35 3.22019 116.393 9.12781C127.561 13.2362 137.021 21.9916 148.819 23.6992C155.913 24.7306 163.064 23.0517 170.129 21.7911C201.363 16.17 237.496 20.0721 258.296 44.0349C265.951 52.8476 270.942 63.7059 278.723 72.3697C287.805 82.4602 300.68 89.7373 308.336 100.447C310.254 103.071 311.797 105.95 312.919 109.001C317.761 122.404 312.375 137.749 302.416 148.091Z" fill="#6B56CA"/>
<path d="M213.98 72.3583L144.499 23.3325L201.81 0L228.689 62.3824L213.98 72.3583Z" fill="url(#paint0_linear_3259_33947)"/>
<path d="M218.879 115.528L138.253 140.087L127.761 100.756L215.332 95.0089L218.879 115.528Z" fill="url(#paint1_linear_3259_33947)"/>
<path d="M302.416 148.092L268.569 117.551L269.091 99.7362L308.341 100.441C310.26 103.065 311.803 105.945 312.925 108.996C317.761 122.404 312.375 137.749 302.416 148.092Z" fill="url(#paint2_linear_3259_33947)"/>
<path opacity="0.43" d="M295.769 153.799C284.458 162.015 270.334 165.832 256.468 167.992C234.906 171.327 212.983 171.109 191.186 170.897C140.556 170.393 89.9244 169.82 39.2907 169.178C26.1748 168.977 10.6409 167.413 3.93115 156.331H4.05721C10.6868 155.38 17.3507 154.893 24.0146 154.44C110.722 148.427 197.706 147.447 284.527 151.507C288.372 151.656 292.526 152.017 295.769 153.799Z" fill="#6B56CA"/>
<path opacity="0.45" d="M20.5938 158.807C21.224 160.927 23.9171 161.494 26.1232 161.672C39.6688 162.76 53.245 163.257 66.8517 163.161C70.4157 163.133 74.06 163.053 77.3833 161.775C79.618 160.915 81.635 159.54 83.9212 158.835C86.2075 158.131 88.7688 158.136 91.2212 158.171L157.116 159.019C158.823 158.97 160.531 159.134 162.198 159.506C164.347 160.079 166.249 161.311 168.283 162.199C173.48 164.491 179.377 164.433 185.032 164.021C194.289 163.358 203.464 161.824 212.433 159.437C205.794 158.313 199.099 157.548 192.378 157.145C154.13 154.326 115.74 154.28 77.3891 154.223C67.0751 154.223 56.7039 154.223 46.4473 155.512C37.6404 156.595 29.183 155.724 20.5938 158.807Z" fill="#6B56CA"/>
<path d="M99.1691 108.314L96.3442 115.007H98.7394L101.564 108.497L99.1691 108.314Z" fill="#6B56CA"/>
<path d="M140.069 108.217L137.245 114.915H139.64L142.465 108.406L140.069 108.217Z" fill="#6B56CA"/>
<path d="M169.893 108.337C167.4 110.861 164.648 113.116 161.682 115.064C160.536 115.809 159.293 116.634 158.955 117.929C158.797 118.86 158.918 119.817 159.304 120.679C161.138 125.767 164.616 130.082 167.109 134.884C167.191 135.01 167.231 135.158 167.223 135.308C167.17 135.478 167.053 135.622 166.897 135.709L165.252 136.924C161.052 133.744 157.803 129.503 154.692 125.235C152.56 122.289 150.4 119.081 150.228 115.448C150.134 114.508 150.274 113.56 150.635 112.687C150.995 111.814 151.566 111.044 152.297 110.446C153.29 109.546 154.461 108.867 155.735 108.451C157.712 107.81 159.837 107.833 161.917 107.878C164.209 107.913 166.748 108.068 168.283 109.752" fill="#606161"/>
<path d="M169.893 108.337C167.4 110.861 164.648 113.116 161.682 115.064C160.536 115.809 159.293 116.634 158.955 117.929C158.797 118.86 158.918 119.817 159.304 120.679C161.138 125.767 164.616 130.082 167.109 134.884C167.191 135.01 167.231 135.158 167.223 135.308C167.17 135.478 167.053 135.622 166.897 135.709L165.252 136.924C161.052 133.744 157.803 129.503 154.692 125.235C152.56 122.289 150.4 119.081 150.228 115.448C150.134 114.508 150.274 113.56 150.635 112.687C150.995 111.814 151.566 111.044 152.297 110.446C153.29 109.546 154.461 108.867 155.735 108.451C157.712 107.81 159.837 107.833 161.917 107.878C164.209 107.913 166.748 108.068 168.283 109.752" fill="url(#paint3_linear_3259_33947)"/>
<path d="M165.55 139.078C165.627 139.405 165.645 139.743 165.602 140.075C165.518 140.42 165.375 140.748 165.178 141.044C164.678 141.913 164.246 142.819 163.883 143.754C163.763 143.981 163.735 144.245 163.803 144.493C163.963 144.883 164.502 144.917 164.92 144.848C166.146 144.652 167.299 144.134 168.26 143.347C168.449 143.212 168.604 143.036 168.713 142.831C168.799 142.626 168.842 142.406 168.839 142.184C168.902 140.28 168.294 138.414 167.12 136.912C167.011 136.747 166.858 136.614 166.679 136.528C166.215 136.345 165.533 136.821 165.355 137.256C165.178 137.692 165.459 138.557 165.55 139.078Z" fill="#606161"/>
<path d="M166.118 146.716C166.118 146.716 162.004 141.674 161.603 141.72C161.202 141.766 160.68 142.493 160.68 142.493L165.362 146.9L166.118 146.716Z" fill="#606161"/>
<path d="M164.926 145.788L165.711 148.137L170.174 146.063L169.533 143.943L164.926 145.788Z" fill="#6B56CA"/>
<path d="M164.926 145.788L165.711 148.137L170.174 146.063L169.533 143.943L164.926 145.788Z" fill="url(#paint4_linear_3259_33947)"/>
<path d="M122.885 145.983C122.885 145.983 118.771 140.941 118.37 140.986C117.969 141.032 117.448 141.754 117.448 141.754L122.123 146.161L122.885 145.983Z" fill="#606161"/>
<path d="M121.693 145.049L122.478 147.398L126.942 145.33L126.3 143.21L121.693 145.049Z" fill="#6B56CA"/>
<path d="M121.693 145.049L122.478 147.398L126.942 145.33L126.3 143.21L121.693 145.049Z" fill="url(#paint5_linear_3259_33947)"/>
<path d="M85.5769 146.441C85.5769 146.441 81.4628 141.399 81.0617 141.445C80.6606 141.491 80.1392 142.218 80.1392 142.218L84.8148 146.625L85.5769 146.441Z" fill="#606161"/>
<path d="M128.437 108.337C125.946 110.864 123.194 113.119 120.226 115.064C119.08 115.809 117.837 116.634 117.498 117.929C117.339 118.861 117.463 119.819 117.854 120.679C119.687 125.767 123.165 130.082 125.658 134.884C125.741 135.009 125.779 135.158 125.767 135.308C125.714 135.477 125.599 135.62 125.446 135.709L123.801 136.924C119.596 133.744 116.352 129.503 113.241 125.235C111.104 122.289 108.949 119.081 108.772 115.448C108.678 114.508 108.819 113.559 109.181 112.686C109.543 111.813 110.115 111.044 110.846 110.446C111.837 109.544 113.009 108.864 114.284 108.451C116.261 107.81 118.381 107.833 120.461 107.878C122.753 107.913 125.297 108.068 126.827 109.752" fill="#606161"/>
<path d="M128.437 108.337C125.946 110.864 123.194 113.119 120.226 115.064C119.08 115.809 117.837 116.634 117.498 117.929C117.339 118.861 117.463 119.819 117.854 120.679C119.687 125.767 123.165 130.082 125.658 134.884C125.741 135.009 125.779 135.158 125.767 135.308C125.714 135.477 125.599 135.62 125.446 135.709L123.801 136.924C119.596 133.744 116.352 129.503 113.241 125.235C111.104 122.289 108.949 119.081 108.772 115.448C108.678 114.508 108.819 113.559 109.181 112.686C109.543 111.813 110.115 111.044 110.846 110.446C111.837 109.544 113.009 108.864 114.284 108.451C116.261 107.81 118.381 107.833 120.461 107.878C122.753 107.913 125.297 108.068 126.827 109.752" fill="url(#paint6_linear_3259_33947)"/>
<path d="M124.284 138.465C124.36 138.792 124.378 139.129 124.335 139.462C124.248 139.798 124.107 140.117 123.917 140.408C123.416 141.277 122.983 142.183 122.622 143.118C122.501 143.343 122.471 143.605 122.536 143.851C122.702 144.247 123.241 144.281 123.682 144.212C124.908 144.015 126.061 143.498 127.022 142.711C127.211 142.576 127.366 142.4 127.475 142.195C127.561 141.991 127.602 141.77 127.595 141.548C127.659 139.643 127.05 137.777 125.876 136.276C125.764 136.109 125.61 135.975 125.429 135.887C124.965 135.703 124.284 136.185 124.112 136.62C123.94 137.056 124.192 137.944 124.284 138.465Z" fill="#606161"/>
<path d="M89.955 111.683L88.8721 114.766C88.8721 114.766 89.68 115.459 90.1613 115.184C90.6426 114.909 91.8803 111.746 91.8803 111.746L89.955 111.683Z" fill="#6B56CA"/>
<path d="M87.3708 109.695C86.9124 109.884 86.4024 110.159 86.3107 110.646C86.29 110.856 86.3276 111.068 86.4197 111.258C86.5117 111.448 86.6544 111.609 86.8322 111.723C87.6687 112.365 88.8262 112.296 89.8805 112.222C90.6884 112.176 91.4964 112.176 92.3043 112.222C92.9046 112.279 93.5089 112.279 94.1092 112.222C94.7123 112.154 95.2723 111.876 95.6907 111.437C95.9505 111.118 96.1055 110.727 96.1342 110.316C96.1629 109.906 96.064 109.497 95.8511 109.145C95.3125 108.285 94.1837 108.05 93.2383 108.171C91.9576 108.336 90.6941 108.614 89.4622 109.002C88.7574 109.162 88.0584 109.414 87.3708 109.695Z" fill="#606161"/>
<path d="M87.3708 109.695C86.9124 109.884 86.4024 110.159 86.3107 110.646C86.29 110.856 86.3276 111.068 86.4197 111.258C86.5117 111.448 86.6544 111.609 86.8322 111.723C87.6687 112.365 88.8262 112.296 89.8805 112.222C90.6884 112.176 91.4964 112.176 92.3043 112.222C92.9046 112.279 93.5089 112.279 94.1092 112.222C94.7123 112.154 95.2723 111.876 95.6907 111.437C95.9505 111.118 96.1055 110.727 96.1342 110.316C96.1629 109.906 96.064 109.497 95.8511 109.145C95.3125 108.285 94.1837 108.05 93.2383 108.171C91.9576 108.336 90.6941 108.614 89.4622 109.002C88.7574 109.162 88.0584 109.414 87.3708 109.695Z" fill="url(#paint7_linear_3259_33947)"/>
<path d="M124.959 111.683L123.876 114.766C123.876 114.766 124.684 115.459 125.171 115.184C125.658 114.909 126.89 111.746 126.89 111.746L124.959 111.683Z" fill="#6B56CA"/>
<path d="M122.375 109.695C121.917 109.884 121.407 110.159 121.315 110.646C121.294 110.856 121.332 111.068 121.424 111.258C121.516 111.448 121.659 111.609 121.837 111.723C122.673 112.365 123.831 112.296 124.885 112.222C125.693 112.176 126.501 112.176 127.309 112.222C127.909 112.279 128.513 112.279 129.114 112.222C129.717 112.154 130.277 111.876 130.695 111.437C130.955 111.118 131.11 110.727 131.139 110.316C131.167 109.906 131.068 109.497 130.856 109.145C130.317 108.285 129.188 108.05 128.248 108.171C126.977 108.322 125.721 108.585 124.495 108.956C123.762 109.162 123.063 109.414 122.375 109.695Z" fill="#606161"/>
<path d="M122.375 109.695C121.917 109.884 121.407 110.159 121.315 110.646C121.294 110.856 121.332 111.068 121.424 111.258C121.516 111.448 121.659 111.609 121.837 111.723C122.673 112.365 123.831 112.296 124.885 112.222C125.693 112.176 126.501 112.176 127.309 112.222C127.909 112.279 128.513 112.279 129.114 112.222C129.717 112.154 130.277 111.876 130.695 111.437C130.955 111.118 131.11 110.727 131.139 110.316C131.167 109.906 131.068 109.497 130.856 109.145C130.317 108.285 129.188 108.05 128.248 108.171C126.977 108.322 125.721 108.585 124.495 108.956C123.762 109.162 123.063 109.414 122.375 109.695Z" fill="url(#paint8_linear_3259_33947)"/>
<path d="M168.072 111.683L166.989 114.766C166.989 114.766 167.797 115.459 168.278 115.184C168.76 114.909 169.997 111.746 169.997 111.746L168.072 111.683Z" fill="#6B56CA"/>
<path d="M165.487 109.695C165.028 109.884 164.518 110.159 164.427 110.646C164.405 110.856 164.442 111.067 164.533 111.257C164.624 111.447 164.766 111.609 164.943 111.723C165.785 112.365 166.942 112.296 167.997 112.222C168.805 112.176 169.612 112.176 170.42 112.222C171.021 112.279 171.625 112.279 172.225 112.222C172.828 112.154 173.388 111.876 173.807 111.437C174.067 111.118 174.222 110.727 174.25 110.316C174.279 109.906 174.18 109.497 173.967 109.145C173.429 108.285 172.3 108.05 171.354 108.171C170.074 108.336 168.81 108.614 167.578 109.002C166.896 109.162 166.174 109.414 165.487 109.695Z" fill="#606161"/>
<path d="M165.487 109.695C165.028 109.884 164.518 110.159 164.427 110.646C164.405 110.856 164.442 111.067 164.533 111.257C164.624 111.447 164.766 111.609 164.943 111.723C165.785 112.365 166.942 112.296 167.997 112.222C168.805 112.176 169.612 112.176 170.42 112.222C171.021 112.279 171.625 112.279 172.225 112.222C172.828 112.154 173.388 111.876 173.807 111.437C174.067 111.118 174.222 110.727 174.25 110.316C174.279 109.906 174.18 109.497 173.967 109.145C173.429 108.285 172.3 108.05 171.354 108.171C170.074 108.336 168.81 108.614 167.578 109.002C166.896 109.162 166.174 109.414 165.487 109.695Z" fill="url(#paint9_linear_3259_33947)"/>
<path d="M48.9972 159.087C45.2885 159.084 41.664 157.981 38.5821 155.918C35.5001 153.855 33.099 150.924 31.6824 147.497C30.2657 144.069 29.8971 140.299 30.6231 136.662C31.3492 133.025 33.1373 129.685 35.7613 127.064C38.3854 124.443 41.7276 122.659 45.3655 121.937C49.0033 121.216 52.7735 121.589 56.1992 123.01C59.625 124.431 62.5526 126.835 64.6119 129.92C66.6712 133.004 67.7697 136.63 67.7686 140.339C67.7625 145.313 65.7821 150.082 62.2625 153.597C58.7428 157.113 53.9717 159.087 48.9972 159.087ZM48.9972 124.203C45.8057 124.202 42.6855 125.147 40.0312 126.92C37.377 128.692 35.308 131.212 34.0858 134.16C32.8637 137.108 32.5433 140.353 33.1653 143.483C33.7872 146.614 35.3235 149.489 37.5799 151.746C39.8363 154.004 42.7113 155.541 45.8415 156.164C48.9716 156.787 52.2163 156.468 55.165 155.247C58.1137 154.026 60.6341 151.958 62.4073 149.304C64.1806 146.65 65.127 143.53 65.127 140.339C65.121 136.062 63.4198 131.962 60.3964 128.938C57.3729 125.913 53.2738 124.211 48.9972 124.203Z" fill="#606161"/>
<path d="M184.958 159.087C181.249 159.087 177.623 157.987 174.538 155.926C171.454 153.865 169.05 150.936 167.631 147.509C166.212 144.082 165.841 140.31 166.565 136.672C167.289 133.034 169.076 129.692 171.699 127.07C174.323 124.447 177.665 122.662 181.303 121.939C184.941 121.216 188.712 121.588 192.139 123.008C195.566 124.428 198.495 126.833 200.555 129.918C202.615 133.003 203.714 136.629 203.712 140.339C203.706 145.31 201.728 150.076 198.212 153.591C194.696 157.106 189.93 159.083 184.958 159.087ZM184.958 124.203C181.767 124.203 178.647 125.15 175.994 126.923C173.34 128.696 171.272 131.216 170.051 134.164C168.83 137.112 168.51 140.357 169.133 143.487C169.755 146.617 171.292 149.492 173.549 151.748C175.805 154.005 178.68 155.542 181.81 156.164C184.94 156.787 188.185 156.467 191.133 155.246C194.081 154.025 196.601 151.957 198.374 149.303C200.147 146.65 201.094 143.53 201.094 140.339C201.089 136.061 199.388 131.959 196.363 128.934C193.338 125.909 189.236 124.208 184.958 124.203Z" fill="#606161"/>
<path d="M48.9972 159.087C45.2885 159.084 41.664 157.981 38.5821 155.918C35.5001 153.855 33.099 150.924 31.6824 147.497C30.2657 144.069 29.8971 140.299 30.6231 136.662C31.3492 133.025 33.1373 129.685 35.7613 127.064C38.3854 124.443 41.7276 122.659 45.3655 121.937C49.0033 121.216 52.7735 121.589 56.1992 123.01C59.625 124.431 62.5526 126.835 64.6119 129.92C66.6712 133.004 67.7697 136.63 67.7686 140.339C67.7625 145.313 65.7821 150.082 62.2625 153.597C58.7428 157.113 53.9717 159.087 48.9972 159.087ZM48.9972 124.203C45.8057 124.202 42.6855 125.147 40.0312 126.92C37.377 128.692 35.308 131.212 34.0858 134.16C32.8637 137.108 32.5433 140.353 33.1653 143.483C33.7872 146.614 35.3235 149.489 37.5799 151.746C39.8363 154.004 42.7113 155.541 45.8415 156.164C48.9716 156.787 52.2163 156.468 55.165 155.247C58.1137 154.026 60.6341 151.958 62.4073 149.304C64.1806 146.65 65.127 143.53 65.127 140.339C65.121 136.062 63.4198 131.962 60.3964 128.938C57.3729 125.913 53.2738 124.211 48.9972 124.203Z" fill="url(#paint10_linear_3259_33947)"/>
<path d="M184.958 159.087C181.249 159.087 177.623 157.987 174.538 155.926C171.454 153.865 169.05 150.936 167.631 147.509C166.212 144.082 165.841 140.31 166.565 136.672C167.289 133.034 169.076 129.692 171.699 127.07C174.323 124.447 177.665 122.662 181.303 121.939C184.941 121.216 188.712 121.588 192.139 123.008C195.566 124.428 198.495 126.833 200.555 129.918C202.615 133.003 203.714 136.629 203.712 140.339C203.706 145.31 201.728 150.076 198.212 153.591C194.696 157.106 189.93 159.083 184.958 159.087ZM184.958 124.203C181.767 124.203 178.647 125.15 175.994 126.923C173.34 128.696 171.272 131.216 170.051 134.164C168.83 137.112 168.51 140.357 169.133 143.487C169.755 146.617 171.292 149.492 173.549 151.748C175.805 154.005 178.68 155.542 181.81 156.164C184.94 156.787 188.185 156.467 191.133 155.246C194.081 154.025 196.601 151.957 198.374 149.303C200.147 146.65 201.094 143.53 201.094 140.339C201.089 136.061 199.388 131.959 196.363 128.934C193.338 125.909 189.236 124.208 184.958 124.203Z" fill="url(#paint11_linear_3259_33947)"/>
<path d="M70.3816 90.6197C68.2042 92.8029 65.0241 93.542 62.2221 94.8256C61.1277 95.3298 59.9989 96.0117 59.5462 97.1175C59.3513 97.6686 59.2676 98.2529 59.2998 98.8365C59.2595 98.9846 59.257 99.1404 59.2924 99.2896C59.3279 99.4389 59.4003 99.5769 59.5029 99.6909C59.6056 99.8049 59.7352 99.8914 59.8799 99.9423C60.0246 99.9933 60.1798 100.007 60.3312 99.9825C63.3613 100.022 66.3789 99.5887 69.2757 98.699C72.4558 97.7249 75.5786 96.0976 77.4924 93.3701C77.9112 92.8041 78.2202 92.1647 78.4035 91.485C78.5382 90.7809 78.5729 90.0614 78.5066 89.3477C78.4991 87.9287 78.3378 86.5146 78.0253 85.1304C77.7503 84.1047 77.1716 82.4545 76.2032 81.87C75.2348 81.2856 74.4326 83.4515 74.0659 84.162C72.9715 86.4139 72.1521 88.8434 70.3816 90.6197Z" fill="#6B56CA"/>
<path d="M81.303 75.7849C81.303 75.7849 81.3545 77.9794 81.303 79.5838C81.303 80.7814 80.8732 83.0791 78.3234 83.0791C75.7736 83.0791 75.4584 80.1511 75.5214 79.5838C75.4538 78.7352 75.4538 77.8826 75.5214 77.034C75.7163 75.6359 81.1654 74.8108 81.303 75.7849Z" fill="#F0CAC5"/>
<path d="M81.3433 79.3833C81.5261 79.308 81.7303 79.304 81.9159 79.3718C82.1015 79.4397 82.255 79.5746 82.3461 79.75C82.73 80.3917 82.7529 81.6753 82.3461 83.4286C82.226 84.2002 81.972 84.9449 81.5954 85.629C81.5954 85.629 79.928 83.2682 78.7305 83.1708C78.7534 83.1708 81.0683 82.7181 81.3433 79.3833Z" fill="#F1FCFF"/>
<path d="M73.6017 68.0435C73.6017 68.0435 74.2377 69.9974 73.6475 70.9085C71.4587 74.3465 72.7078 73.9912 73.5215 74.0657C73.6246 74.0657 73.4814 74.7304 73.7736 75.991C74.0085 76.988 73.3095 79.2514 76.375 78.283C77.2517 78.0137 81.5033 76.8161 81.807 74.1803C82.1852 70.8856 84.2078 66.7313 80.2198 65.3218C75.441 63.6887 73.8824 64.9837 73.6017 68.0435Z" fill="#F0CAC5"/>
<path d="M75.7909 63.4652C75.7909 63.4652 73.602 63.6199 72.8514 64.4508C71.9289 65.4765 71.7627 66.611 72.7311 67.5278C73.6995 68.4446 76.2378 67.5736 78.0084 68.6738C79.7789 69.7739 77.8938 72.5816 78.7762 73.1833C79.6586 73.7849 79.1314 71.9743 80.3004 71.5159C81.4693 71.0575 81.9449 73.0228 80.7187 74.4725C79.4924 75.9222 80.6442 76.8505 81.4406 77.0911C82.2371 77.3318 84.1681 70.7882 84.0076 68.393C83.8472 65.9979 82.6668 66.038 82.6668 66.038C82.6668 66.038 82.6153 62.2963 75.7909 63.4652Z" fill="#606161"/>
<path d="M75.4868 78.5237C75.4868 78.5237 78.5982 77.3777 80.002 76.7302C80.002 76.7302 77.0797 79.5093 75.567 79.4921L75.4868 78.5237Z" fill="#E3B3AF"/>
<path d="M73.5674 74.272C73.5674 74.272 75.8594 74.4382 77.183 73.6073C78.5066 72.7765 79.1484 72.2551 79.3031 73.0974C79.4578 73.9397 80.0537 75.355 79.4578 76.3577C78.8619 77.3605 75.6989 79.6926 74.8738 79.0852C74.0487 78.4778 73.4986 77.7444 73.6419 76.8964C73.7099 76.0214 73.6849 75.1417 73.5674 74.272Z" fill="#606161"/>
<path d="M73.9858 75.3607C73.9858 75.3607 74.427 75.8878 75.4871 75.3607C76.5471 74.8335 76.7018 74.0141 77.2061 74.8335C77.7103 75.6529 76.5586 77.2745 75.2063 77.3203C73.854 77.3662 74.0718 76.4379 73.9858 75.3607Z" fill="#F0CAC5"/>
<path d="M79.1546 80.4146C79.018 80.9436 78.7612 81.4338 78.404 81.8471C77.831 82.4545 76.9084 82.6207 76.2266 83.1135C74.2096 84.5861 75.4588 88.0756 75.8083 90.0639C76.373 92.8148 76.7558 95.5999 76.9543 98.4011C77.0173 100.046 76.9543 101.73 77.4643 103.289C77.8245 104.279 78.3842 105.184 79.1086 105.949C79.8331 106.714 80.7068 107.322 81.6758 107.735C83.6188 108.544 85.7552 108.769 87.824 108.383C89.2911 108.212 90.6627 107.568 91.7319 106.549C92.6764 105.421 93.2151 104.009 93.2617 102.538C93.5654 98.7277 92.0756 95.0261 90.6202 91.4907C88.758 86.9812 86.8557 81.9789 82.8905 78.8847C82.2316 78.3748 81.3664 77.9335 80.5985 78.2315C80.2771 78.4006 79.996 78.6371 79.7745 78.9249C79.553 79.2127 79.3963 79.545 79.315 79.8989C79.2635 80.0708 79.2291 80.2427 79.1546 80.4146Z" fill="#6B56CA"/>
<path d="M79.1546 80.4146C79.018 80.9436 78.7612 81.4338 78.404 81.8471C77.831 82.4545 76.9084 82.6207 76.2266 83.1135C74.2096 84.5861 75.4588 88.0756 75.8083 90.0639C76.373 92.8148 76.7558 95.5999 76.9543 98.4011C77.0173 100.046 76.9543 101.73 77.4643 103.289C77.8245 104.279 78.3842 105.184 79.1086 105.949C79.8331 106.714 80.7068 107.322 81.6758 107.735C83.6188 108.544 85.7552 108.769 87.824 108.383C89.2911 108.212 90.6627 107.568 91.7319 106.549C92.6764 105.421 93.2151 104.009 93.2617 102.538C93.5654 98.7277 92.0756 95.0261 90.6202 91.4907C88.758 86.9812 86.8557 81.9789 82.8905 78.8847C82.2316 78.3748 81.3664 77.9335 80.5985 78.2315C80.2771 78.4006 79.996 78.6371 79.7745 78.9249C79.553 79.2127 79.3963 79.545 79.315 79.8989C79.2635 80.0708 79.2291 80.2427 79.1546 80.4146Z" fill="url(#paint12_linear_3259_33947)"/>
<path d="M89.9213 109.208C87.4291 111.733 84.6768 113.988 81.7103 115.935C80.5643 116.68 79.3209 117.499 78.9829 118.8C78.8233 119.732 78.9471 120.69 79.3381 121.55C81.1717 126.644 84.6498 130.959 87.1423 135.761C87.2254 135.886 87.2638 136.035 87.2512 136.185C87.198 136.354 87.0835 136.497 86.9303 136.586L85.2858 137.8C81.08 134.62 77.8369 130.38 74.7255 126.111C72.5882 123.166 70.4338 119.957 70.2561 116.319C70.1627 115.379 70.3031 114.43 70.665 113.557C71.0269 112.684 71.599 111.915 72.3304 111.316C73.3234 110.419 74.495 109.741 75.7684 109.328C77.7452 108.686 79.8653 108.709 81.9453 108.755C84.2372 108.79 86.7813 108.939 88.3112 110.629" fill="#606161"/>
<path d="M89.9213 109.208C87.4291 111.733 84.6768 113.988 81.7103 115.935C80.5643 116.68 79.3209 117.499 78.9829 118.8C78.8233 119.732 78.9471 120.69 79.3381 121.55C81.1717 126.644 84.6498 130.959 87.1423 135.761C87.2254 135.886 87.2638 136.035 87.2512 136.185C87.198 136.354 87.0835 136.497 86.9303 136.586L85.2858 137.8C81.08 134.62 77.8369 130.38 74.7255 126.111C72.5882 123.166 70.4338 119.957 70.2561 116.319C70.1627 115.379 70.3031 114.43 70.665 113.557C71.0269 112.684 71.599 111.915 72.3304 111.316C73.3234 110.419 74.495 109.741 75.7684 109.328C77.7452 108.686 79.8653 108.709 81.9453 108.755C84.2372 108.79 86.7813 108.939 88.3112 110.629" fill="url(#paint13_linear_3259_33947)"/>
<path d="M85.7615 139.325C85.8434 139.65 85.8629 139.989 85.8188 140.322C85.7333 140.656 85.5919 140.974 85.4006 141.261C84.9006 142.133 84.4658 143.041 84.0999 143.977C83.9809 144.203 83.9522 144.465 84.0196 144.711C84.1858 145.106 84.7244 145.141 85.1656 145.072C86.3914 144.872 87.5433 144.355 88.5062 143.571C88.6902 143.431 88.8442 143.255 88.9589 143.055C89.0448 142.85 89.0858 142.629 89.0792 142.407C89.1425 140.503 88.534 138.637 87.3602 137.136C87.2501 136.967 87.0954 136.832 86.9133 136.746C86.4491 136.563 85.7673 137.044 85.5954 137.474C85.3604 138.007 85.6756 138.809 85.7615 139.325Z" fill="#606161"/>
<path d="M57.2024 100.561C57.0388 101.087 56.9845 101.641 57.0426 102.189C57.1007 102.737 57.2702 103.267 57.5405 103.747C57.6807 104.005 57.8764 104.228 58.1135 104.4C58.642 104.675 59.2488 104.76 59.8324 104.641C59.9608 104.645 60.0858 104.6 60.182 104.515C60.2312 104.455 60.2611 104.381 60.2679 104.303C60.3825 103.69 60.0674 103.042 60.2278 102.441C60.4341 101.679 61.3165 101.255 61.5514 100.504C61.8666 99.4669 60.6977 98.063 59.6319 98.0802C58.5661 98.0974 57.4946 99.6273 57.2024 100.561Z" fill="#F0CAC5"/>
<path d="M49.8511 141.124C49.6327 141.125 49.4176 141.072 49.2254 140.968C49.0333 140.864 48.8703 140.714 48.7516 140.53C48.6329 140.347 48.5622 140.137 48.546 139.919C48.5299 139.702 48.5688 139.483 48.6593 139.285L62.1705 108.956C62.2401 108.799 62.3399 108.657 62.4643 108.539C62.5886 108.421 62.735 108.328 62.8952 108.266C63.0553 108.204 63.2261 108.175 63.3977 108.179C63.5693 108.183 63.7383 108.221 63.8952 108.291C64.0521 108.361 64.1937 108.46 64.312 108.585C64.4304 108.709 64.523 108.856 64.5847 109.016C64.6465 109.176 64.676 109.347 64.6718 109.518C64.6675 109.69 64.6295 109.859 64.5599 110.016L51.0486 140.385C50.9404 140.609 50.7701 140.798 50.5579 140.929C50.3457 141.06 50.1004 141.128 49.8511 141.124Z" fill="#6B56CA"/>
<path d="M78.4154 142.665L58.9965 118.462C58.78 118.191 58.6798 117.846 58.7179 117.501C58.7561 117.157 58.9295 116.842 59.2 116.625C59.4705 116.409 59.8159 116.308 60.1603 116.347C60.5047 116.385 60.8199 116.558 61.0364 116.829L77.7908 137.703L88.3339 114.462C88.4775 114.146 88.7408 113.9 89.0659 113.778C89.3909 113.656 89.7511 113.668 90.0672 113.812C90.3833 113.955 90.6294 114.219 90.7514 114.544C90.8733 114.869 90.8612 115.229 90.7176 115.545L78.4154 142.665Z" fill="#6B56CA"/>
<path d="M78.49 142.258C78.1435 142.258 77.8112 142.121 77.5662 141.876C77.3212 141.631 77.1836 141.298 77.1836 140.952C77.1836 140.605 77.3212 140.273 77.5662 140.028C77.8112 139.783 78.1435 139.645 78.49 139.645L113.913 139.611L122.691 114.932C122.747 114.769 122.836 114.619 122.951 114.491C123.066 114.363 123.205 114.259 123.361 114.185C123.517 114.111 123.686 114.07 123.858 114.062C124.03 114.055 124.202 114.081 124.364 114.141C124.69 114.259 124.956 114.501 125.105 114.815C125.253 115.128 125.271 115.488 125.155 115.814L115.758 142.23L78.5129 142.258H78.49Z" fill="#6B56CA"/>
<path d="M115.104 142.258C114.757 142.258 114.425 142.121 114.18 141.876C113.935 141.631 113.797 141.298 113.797 140.952C113.797 140.605 113.935 140.273 114.18 140.028C114.425 139.783 114.757 139.646 115.104 139.646L158.124 139.611L166.897 114.932C166.953 114.77 167.041 114.621 167.156 114.493C167.271 114.365 167.41 114.261 167.565 114.188C167.72 114.114 167.888 114.072 168.06 114.064C168.232 114.056 168.403 114.082 168.564 114.141C168.891 114.258 169.159 114.5 169.308 114.813C169.458 115.127 169.476 115.487 169.361 115.815L159.964 142.23L122.719 142.258H115.104Z" fill="#6B56CA"/>
<path d="M124.037 116.68L60.7782 116.193C60.446 116.171 60.1345 116.023 59.9069 115.78C59.6793 115.537 59.5527 115.216 59.5527 114.883C59.5527 114.55 59.6793 114.23 59.9069 113.987C60.1345 113.744 60.446 113.596 60.7782 113.574L125.527 114.073L124.037 116.68Z" fill="#6B56CA"/>
<path d="M158.302 142.723C157.969 142.706 157.655 142.564 157.423 142.324C157.191 142.084 157.059 141.765 157.054 141.432C157.049 141.099 157.171 140.776 157.395 140.529C157.62 140.282 157.93 140.13 158.262 140.104L180.901 139.376L167.51 117.167L104.251 116.685C103.919 116.663 103.608 116.516 103.38 116.273C103.152 116.03 103.026 115.709 103.026 115.376C103.026 115.043 103.152 114.723 103.38 114.48C103.608 114.236 103.919 114.089 104.251 114.067L169 114.56L185.456 141.852L158.354 142.723H158.302Z" fill="#6B56CA"/>
<path d="M66.3936 108.956L60.0907 108.383L60.3199 104.372L58.6009 103.226C58.4603 103.133 58.3398 103.014 58.2463 102.874C58.1529 102.734 58.0885 102.577 58.0569 102.412C58.0254 102.247 58.0274 102.077 58.0627 101.913C58.0981 101.748 58.1662 101.593 58.2628 101.455C58.4626 101.174 58.7643 100.982 59.1035 100.92C59.4428 100.858 59.7929 100.931 60.0792 101.123L63.0187 103.082L62.864 106.108L64.7835 106.274L66.0499 103.455L69.6483 102.933C69.9876 102.88 70.3341 102.963 70.613 103.164C70.8918 103.364 71.0804 103.666 71.1381 104.005C71.1615 104.172 71.1515 104.343 71.1088 104.507C71.0662 104.67 70.9916 104.824 70.8893 104.959C70.7871 105.093 70.6592 105.206 70.5131 105.292C70.367 105.377 70.2055 105.432 70.0379 105.455L67.8605 105.77L66.3936 108.956Z" fill="#6B56CA"/>
<path d="M66.3936 108.956L60.0907 108.383L60.3199 104.372L58.6009 103.226C58.4603 103.133 58.3398 103.014 58.2463 102.874C58.1529 102.734 58.0885 102.577 58.0569 102.412C58.0254 102.247 58.0274 102.077 58.0627 101.913C58.0981 101.748 58.1662 101.593 58.2628 101.455C58.4626 101.174 58.7643 100.982 59.1035 100.92C59.4428 100.858 59.7929 100.931 60.0792 101.123L63.0187 103.082L62.864 106.108L64.7835 106.274L66.0499 103.455L69.6483 102.933C69.9876 102.88 70.3341 102.963 70.613 103.164C70.8918 103.364 71.0804 103.666 71.1381 104.005C71.1615 104.172 71.1515 104.343 71.1088 104.507C71.0662 104.67 70.9916 104.824 70.8893 104.959C70.7871 105.093 70.6592 105.206 70.5131 105.292C70.367 105.377 70.2055 105.432 70.0379 105.455L67.8605 105.77L66.3936 108.956Z" fill="url(#paint14_linear_3259_33947)"/>
<path d="M103.489 108.956L97.186 108.383L97.398 104.337L95.6791 103.191C95.538 103.099 95.4169 102.98 95.3229 102.841C95.2289 102.701 95.164 102.544 95.1319 102.379C95.0998 102.214 95.1013 102.044 95.1362 101.879C95.1712 101.715 95.2389 101.559 95.3353 101.421C95.5361 101.139 95.8387 100.947 96.1789 100.885C96.5191 100.823 96.8701 100.896 97.1574 101.088L100.097 103.048L99.9364 106.073L101.862 106.24L103.122 103.438L106.726 102.916C107.065 102.862 107.412 102.944 107.69 103.145C107.968 103.346 108.156 103.649 108.21 103.988C108.235 104.155 108.225 104.326 108.183 104.49C108.141 104.654 108.066 104.808 107.964 104.943C107.861 105.078 107.733 105.191 107.587 105.276C107.44 105.361 107.278 105.416 107.11 105.437L104.939 105.753L103.489 108.956Z" fill="#6B56CA"/>
<path d="M103.489 108.956L97.186 108.383L97.398 104.337L95.6791 103.191C95.538 103.099 95.4169 102.98 95.3229 102.841C95.2289 102.701 95.164 102.544 95.1319 102.379C95.0998 102.214 95.1013 102.044 95.1362 101.879C95.1712 101.715 95.2389 101.559 95.3353 101.421C95.5361 101.139 95.8387 100.947 96.1789 100.885C96.5191 100.823 96.8701 100.896 97.1574 101.088L100.097 103.048L99.9364 106.073L101.862 106.24L103.122 103.438L106.726 102.916C107.065 102.862 107.412 102.944 107.69 103.145C107.968 103.346 108.156 103.649 108.21 103.988C108.235 104.155 108.225 104.326 108.183 104.49C108.141 104.654 108.066 104.808 107.964 104.943C107.861 105.078 107.733 105.191 107.587 105.276C107.44 105.361 107.278 105.416 107.11 105.437L104.939 105.753L103.489 108.956Z" fill="url(#paint15_linear_3259_33947)"/>
<path d="M144.654 108.956L138.351 108.383L138.563 104.337L136.844 103.191C136.703 103.099 136.582 102.979 136.489 102.84C136.396 102.7 136.331 102.543 136.3 102.378C136.268 102.212 136.27 102.043 136.305 101.878C136.341 101.714 136.409 101.558 136.506 101.421C136.705 101.14 137.007 100.948 137.346 100.886C137.685 100.823 138.036 100.896 138.322 101.088L141.261 103.048L141.112 106.091L143.032 106.257L144.298 103.455L147.897 102.933C148.236 102.88 148.583 102.963 148.861 103.164C149.14 103.364 149.329 103.666 149.386 104.005C149.41 104.172 149.4 104.343 149.357 104.507C149.315 104.67 149.24 104.824 149.138 104.958C149.035 105.093 148.908 105.206 148.762 105.292C148.615 105.377 148.454 105.432 148.286 105.455L146.109 105.77L144.654 108.956Z" fill="#6B56CA"/>
<path d="M144.654 108.956L138.351 108.383L138.563 104.337L136.844 103.191C136.703 103.099 136.582 102.979 136.489 102.84C136.396 102.7 136.331 102.543 136.3 102.378C136.268 102.212 136.27 102.043 136.305 101.878C136.341 101.714 136.409 101.558 136.506 101.421C136.705 101.14 137.007 100.948 137.346 100.886C137.685 100.823 138.036 100.896 138.322 101.088L141.261 103.048L141.112 106.091L143.032 106.257L144.298 103.455L147.897 102.933C148.236 102.88 148.583 102.963 148.861 103.164C149.14 103.364 149.329 103.666 149.386 104.005C149.41 104.172 149.4 104.343 149.357 104.507C149.315 104.67 149.24 104.824 149.138 104.958C149.035 105.093 148.908 105.206 148.762 105.292C148.615 105.377 148.454 105.432 148.286 105.455L146.109 105.77L144.654 108.956Z" fill="url(#paint16_linear_3259_33947)"/>
<path d="M58.2172 121.218C58.1542 121.218 56.1258 120.777 56.0628 120.765C55.8107 120.714 55.6731 120.513 55.7648 120.324L59.9019 111.643C59.9665 111.543 60.0608 111.465 60.1718 111.421C60.2827 111.377 60.4047 111.368 60.5207 111.397C60.7728 111.454 62.8642 112.096 62.7726 112.285L58.6413 120.989C58.5942 121.058 58.5311 121.115 58.4573 121.155C58.3835 121.195 58.3011 121.217 58.2172 121.218Z" fill="#6B56CA"/>
<path d="M57.9079 120.908C57.8448 120.908 55.8164 120.467 55.7477 120.456C55.4955 120.399 55.3638 120.204 55.4554 120.015L59.5867 111.334C59.6517 111.232 59.747 111.154 59.8591 111.109C59.9713 111.065 60.0945 111.057 60.2113 111.087C60.4634 111.139 62.5549 111.786 62.4632 111.975L58.3261 120.656C58.2831 120.73 58.2222 120.792 58.1491 120.836C58.0761 120.88 57.9931 120.905 57.9079 120.908Z" fill="url(#paint17_linear_3259_33947)"/>
<path d="M81.8872 82.2195C80.6668 82.9415 80.0135 84.3282 79.5437 85.6575C78.4951 88.6543 77.9909 91.886 76.3234 94.5849C75.3683 96.1262 74.0702 97.4263 72.5302 98.3838C71.5504 98.9969 70.4502 99.484 69.6652 100.343C68.8802 101.203 68.5193 102.635 69.2928 103.506C70.0663 104.377 71.3441 104.326 72.4271 104.045C77.0626 102.842 80.3344 98.7792 82.9416 94.7625C84.1406 93.0604 85.0792 91.189 85.7263 89.2101C86.391 86.9124 86.1045 79.7327 81.8872 82.2195Z" fill="#6B56CA"/>
<path d="M67.1557 103.226C66.6117 103.719 66.215 104.354 66.0097 105.059C65.9078 105.411 65.8878 105.781 65.9514 106.142C66.015 106.503 66.1604 106.844 66.3764 107.139C66.5989 107.432 66.9093 107.645 67.262 107.748C67.6146 107.851 67.9911 107.839 68.3361 107.712C68.577 107.594 68.8022 107.446 69.0065 107.271L71.1036 105.592C71.3765 105.398 71.6115 105.155 71.797 104.876C72.2955 103.999 71.6193 102.154 70.651 101.776C69.5451 101.329 67.9006 102.51 67.1557 103.226Z" fill="#F0CAC5"/>
<path d="M69.3338 109.357C68.6225 109.665 67.9709 110.095 67.4085 110.629C66.5295 111.678 66.0974 113.029 66.2052 114.393C66.3357 116.159 66.7217 117.896 67.3512 119.55L70.4282 128.908C70.4845 129.11 70.5694 129.303 70.6803 129.481C71.2877 130.403 72.8634 130.002 73.4078 129.039C73.9521 128.077 73.7859 126.891 73.6427 125.796C73.195 122.418 73.0417 119.007 73.1843 115.603C73.1623 115.358 73.234 115.114 73.3848 114.921C73.5493 114.793 73.7499 114.721 73.9578 114.714C76.6108 114.445 79.2867 114.749 81.9454 114.669C84.6041 114.588 87.3831 114.096 89.4746 112.434C91.566 110.772 92.7234 107.735 91.5545 105.34C91.3435 104.855 90.9792 104.452 90.5174 104.194C90.0105 103.999 89.4634 103.932 88.9245 103.999C85.8074 104.143 82.8794 104.16 79.8883 105.105C78.0719 105.678 76.2785 106.303 74.5079 107.013C73.2072 107.54 70.7147 109.357 69.3338 109.357Z" fill="#606161"/>
<path d="M69.3338 109.357C68.6225 109.665 67.9709 110.095 67.4085 110.629C66.5295 111.678 66.0974 113.029 66.2052 114.393C66.3357 116.159 66.7217 117.896 67.3512 119.55L70.4282 128.908C70.4845 129.11 70.5694 129.303 70.6803 129.481C71.2877 130.403 72.8634 130.002 73.4078 129.039C73.9521 128.077 73.7859 126.891 73.6427 125.796C73.195 122.418 73.0417 119.007 73.1843 115.603C73.1623 115.358 73.234 115.114 73.3848 114.921C73.5493 114.793 73.7499 114.721 73.9578 114.714C76.6108 114.445 79.2867 114.749 81.9454 114.669C84.6041 114.588 87.3831 114.096 89.4746 112.434C91.566 110.772 92.7234 107.735 91.5545 105.34C91.3435 104.855 90.9792 104.452 90.5174 104.194C90.0105 103.999 89.4634 103.932 88.9245 103.999C85.8074 104.143 82.8794 104.16 79.8883 105.105C78.0719 105.678 76.2785 106.303 74.5079 107.013C73.2072 107.54 70.7147 109.357 69.3338 109.357Z" fill="url(#paint18_linear_3259_33947)"/>
<path d="M71.8196 131.795C71.7132 132.054 71.5553 132.288 71.3555 132.483C70.7764 133.113 70.1199 133.668 69.4016 134.133C69.0618 134.317 68.7634 134.569 68.5249 134.872C68.4379 135.007 68.3785 135.157 68.3499 135.314C68.3214 135.472 68.3244 135.633 68.3587 135.789C68.3912 135.987 68.5003 136.164 68.6624 136.282C68.9078 136.398 69.1878 136.419 69.4474 136.339C70.8464 136.049 72.197 135.561 73.4584 134.89C73.6739 134.788 73.8808 134.669 74.0772 134.534C74.5056 134.217 74.8371 133.787 75.0345 133.292C75.2319 132.797 75.2873 132.257 75.1946 131.732C75.166 131.58 75.1178 131.431 75.0513 131.291C74.9656 131.129 74.8638 130.975 74.7476 130.833C74.3918 130.281 73.9789 129.768 73.5157 129.303C73.4801 129.264 73.4345 129.237 73.3839 129.223C73.3204 129.224 73.2586 129.244 73.2063 129.28C72.9484 129.429 72.6963 129.589 72.4499 129.756C72.2035 129.922 71.9972 129.996 71.8769 130.185C71.6821 130.638 71.9915 131.303 71.8196 131.795Z" fill="#606161"/>
<path d="M108.898 89.7545C106.721 91.9319 103.541 92.6711 100.744 93.9603C99.6443 94.4646 98.5155 95.1407 98.0628 96.2523C97.867 96.8031 97.7851 97.3879 97.8222 97.9713C97.8001 98.1629 97.8252 98.3569 97.895 98.5367C97.9649 98.7164 98.0776 98.8764 98.2232 99.0027C98.4171 99.0973 98.6327 99.1388 98.8478 99.123C101.88 99.1621 104.899 98.7291 107.798 97.8395C110.972 96.8654 114.101 95.2381 116.009 92.5106C116.428 91.9446 116.737 91.3052 116.92 90.6255C117.055 89.9214 117.09 89.2019 117.023 88.4882C117.016 87.0692 116.854 85.6551 116.542 84.2709C116.267 83.251 115.688 81.595 114.72 81.0106C113.751 80.4261 112.949 82.592 112.583 83.3025C111.488 85.543 110.669 87.9782 108.898 89.7545Z" fill="#6B56CA"/>
<path d="M114.485 78.495C113.425 80.3057 113.43 82.5404 113.648 84.6261C114.089 88.9523 115.287 93.2211 115.459 97.5358C115.522 99.1746 115.459 100.859 115.969 102.418C116.329 103.408 116.889 104.313 117.613 105.078C118.338 105.843 119.211 106.451 120.18 106.864C122.131 107.68 124.279 107.907 126.357 107.517C127.823 107.346 129.194 106.705 130.265 105.69C131.208 104.561 131.747 103.149 131.795 101.679C132.099 97.8681 130.615 94.1666 129.153 90.6369C127.589 86.8494 125.973 82.9759 123.383 79.7499C122.278 78.3747 120.948 76.7245 119.16 76.3463C118.255 76.1764 117.318 76.2919 116.481 76.6768C115.643 77.0616 114.946 77.697 114.485 78.495Z" fill="#6B56CA"/>
<path d="M114.485 78.495C113.425 80.3057 113.43 82.5404 113.648 84.6261C114.089 88.9523 115.287 93.2211 115.459 97.5358C115.522 99.1746 115.459 100.859 115.969 102.418C116.329 103.408 116.889 104.313 117.613 105.078C118.338 105.843 119.211 106.451 120.18 106.864C122.131 107.68 124.279 107.907 126.357 107.517C127.823 107.346 129.194 106.705 130.265 105.69C131.208 104.561 131.747 103.149 131.795 101.679C132.099 97.8681 130.615 94.1666 129.153 90.6369C127.589 86.8494 125.973 82.9759 123.383 79.7499C122.278 78.3747 120.948 76.7245 119.16 76.3463C118.255 76.1764 117.318 76.2919 116.481 76.6768C115.643 77.0616 114.946 77.697 114.485 78.495Z" fill="url(#paint19_linear_3259_33947)"/>
<path d="M105.673 102.355C105.131 102.848 104.735 103.48 104.527 104.183C104.425 104.534 104.405 104.905 104.469 105.265C104.532 105.626 104.677 105.967 104.894 106.263C105.116 106.555 105.426 106.768 105.779 106.872C106.132 106.975 106.508 106.962 106.853 106.836C107.095 106.719 107.321 106.571 107.524 106.394L109.621 104.716C109.894 104.521 110.129 104.278 110.314 103.999C110.813 103.123 110.136 101.283 109.168 100.899C108.062 100.458 106.418 101.644 105.673 102.355Z" fill="#F0CAC5"/>
<path d="M95.0895 99.0027C94.9247 99.5289 94.8703 100.083 94.9294 100.631C94.9886 101.18 95.1601 101.71 95.4333 102.189C95.573 102.446 95.7688 102.67 96.0063 102.842C96.5351 103.116 97.1416 103.2 97.7252 103.082C97.8518 103.086 97.9749 103.041 98.0691 102.956C98.1177 102.895 98.1493 102.822 98.1607 102.744C98.2696 102.131 97.9544 101.484 98.1206 100.882C98.3212 100.12 99.2093 99.6961 99.4385 98.9397C99.7537 97.9083 98.5847 96.5045 97.519 96.5216C96.4532 96.5388 95.3874 98.0687 95.0895 99.0027Z" fill="#F0CAC5"/>
<path d="M107.878 108.486C107.168 108.796 106.517 109.226 105.953 109.758C105.074 110.809 104.642 112.162 104.75 113.528C104.879 115.294 105.265 117.031 105.896 118.685L108.973 128.042C109.033 128.243 109.117 128.435 109.225 128.615C109.832 129.532 111.408 129.131 111.952 128.168C112.496 127.206 112.33 126.02 112.187 124.925C111.739 121.547 111.586 118.136 111.729 114.732C111.707 114.487 111.779 114.244 111.929 114.05C112.093 113.922 112.294 113.852 112.502 113.849C115.149 113.574 117.825 113.878 120.484 113.803C123.143 113.729 125.922 113.23 128.013 111.563C130.105 109.895 131.262 106.864 130.093 104.469C129.885 103.982 129.52 103.579 129.056 103.323C128.55 103.124 128.002 103.055 127.463 103.123C124.346 103.266 121.418 103.289 118.433 104.228C116.611 104.801 114.817 105.426 113.047 106.137C111.723 106.664 109.23 108.486 107.878 108.486Z" fill="#606161"/>
<path d="M150.349 89.7545C148.171 91.9319 144.991 92.6711 142.195 93.9603C141.1 94.4646 139.972 95.1407 139.519 96.2523C139.319 96.8021 139.235 97.3874 139.273 97.9713C139.251 98.1634 139.277 98.3577 139.348 98.5375C139.419 98.7172 139.533 98.8769 139.679 99.0027C139.871 99.0974 140.085 99.1389 140.298 99.123C143.33 99.1621 146.35 98.7291 149.248 97.8395C152.429 96.8654 155.551 95.2381 157.465 92.5106C157.882 91.9444 158.189 91.305 158.37 90.6255C158.504 89.9214 158.541 89.2022 158.479 88.4882C158.47 87.069 158.307 85.6549 157.992 84.2709C157.723 83.251 157.144 81.595 156.17 81.0106C155.196 80.4261 154.4 82.592 154.039 83.3025C152.938 85.543 152.119 87.9782 150.349 89.7545Z" fill="#6B56CA"/>
<path d="M155.941 78.4951C154.876 80.3058 154.887 82.5405 155.099 84.6262C155.546 88.9524 156.738 93.2212 156.91 97.5359C156.979 99.1747 156.91 100.859 157.42 102.418C157.781 103.407 158.341 104.312 159.065 105.077C159.79 105.842 160.663 106.45 161.631 106.864C163.584 107.68 165.733 107.907 167.814 107.518C169.279 107.343 170.649 106.702 171.722 105.69C172.663 104.56 173.201 103.148 173.252 101.679C173.55 97.8682 172.065 94.1666 170.604 90.637C169.046 86.8495 167.424 82.976 164.84 79.75C163.728 78.3748 162.405 76.7246 160.611 76.3464C159.706 76.1761 158.771 76.2914 157.934 76.6763C157.097 77.0613 156.401 77.6969 155.941 78.4951Z" fill="#6B56CA"/>
<path d="M155.941 78.4951C154.876 80.3058 154.887 82.5405 155.099 84.6262C155.546 88.9524 156.738 93.2212 156.91 97.5359C156.979 99.1747 156.91 100.859 157.42 102.418C157.781 103.407 158.341 104.312 159.065 105.077C159.79 105.842 160.663 106.45 161.631 106.864C163.584 107.68 165.733 107.907 167.814 107.518C169.279 107.343 170.649 106.702 171.722 105.69C172.663 104.56 173.201 103.148 173.252 101.679C173.55 97.8682 172.065 94.1666 170.604 90.637C169.046 86.8495 167.424 82.976 164.84 79.75C163.728 78.3748 162.405 76.7246 160.611 76.3464C159.706 76.1761 158.771 76.2914 157.934 76.6763C157.097 77.0613 156.401 77.6969 155.941 78.4951Z" fill="url(#paint20_linear_3259_33947)"/>
<path d="M161.86 81.3543C160.64 82.0706 159.981 83.4572 159.517 84.7923C158.468 87.7834 157.964 91.0208 156.291 93.7197C155.334 95.2584 154.039 96.5578 152.503 97.5186C151.518 98.1317 150.423 98.6131 149.638 99.4726C148.853 100.332 148.521 101.765 149.266 102.636C150.011 103.506 151.317 103.461 152.4 103.18C157.035 101.977 160.307 97.914 162.914 93.8973C164.115 92.1938 165.053 90.3204 165.699 88.3392C166.358 86.0357 166.077 78.8733 161.86 81.3543Z" fill="#6B56CA"/>
<path d="M147.129 102.355C146.589 102.849 146.193 103.481 145.983 104.183C145.882 104.535 145.863 104.905 145.928 105.266C145.992 105.627 146.139 105.968 146.356 106.263C146.578 106.555 146.889 106.768 147.241 106.872C147.594 106.975 147.97 106.962 148.315 106.836C148.556 106.72 148.78 106.572 148.98 106.394L151.077 104.716C151.351 104.523 151.587 104.28 151.77 103.999C152.275 103.123 151.593 101.283 150.624 100.899C149.519 100.458 147.868 101.644 147.129 102.355Z" fill="#C8A59C"/>
<path d="M136.529 99.0027C136.367 99.5294 136.314 100.083 136.374 100.631C136.433 101.179 136.602 101.708 136.872 102.189C137.013 102.446 137.208 102.669 137.445 102.842C137.974 103.116 138.581 103.201 139.164 103.082C139.293 103.086 139.418 103.041 139.514 102.956C139.563 102.896 139.593 102.822 139.6 102.744C139.714 102.131 139.399 101.484 139.56 100.882C139.766 100.12 140.648 99.6961 140.878 98.9397C141.198 97.9083 140.03 96.5045 138.964 96.5216C137.898 96.5388 136.838 98.0687 136.529 99.0027Z" fill="#C8A59C"/>
<path d="M149.3 108.486C148.592 108.798 147.943 109.228 147.381 109.758C146.942 110.276 146.609 110.876 146.403 111.523C146.196 112.17 146.12 112.852 146.177 113.528C146.309 115.293 146.695 117.03 147.323 118.685L150.4 128.042C150.462 128.243 150.549 128.436 150.658 128.615C151.265 129.532 152.841 129.131 153.38 128.168C153.918 127.206 153.764 126.02 153.615 124.925C153.167 121.547 153.014 118.136 153.156 114.732C153.14 114.487 153.213 114.244 153.363 114.05C153.526 113.922 153.728 113.851 153.936 113.849C156.583 113.574 159.259 113.878 161.923 113.803C164.588 113.729 167.361 113.23 169.447 111.563C171.532 109.895 172.696 106.864 171.532 104.469C171.322 103.984 170.958 103.581 170.495 103.323C169.989 103.124 169.442 103.055 168.902 103.123C165.785 103.266 162.851 103.289 159.866 104.229C158.05 104.802 156.251 105.426 154.48 106.137C153.174 106.664 150.687 108.486 149.3 108.486Z" fill="#606161"/>
<path d="M107.878 108.486C107.168 108.796 106.517 109.226 105.953 109.758C105.074 110.809 104.642 112.162 104.75 113.528C104.879 115.294 105.265 117.031 105.896 118.685L108.973 128.042C109.033 128.243 109.117 128.435 109.225 128.615C109.832 129.532 111.408 129.131 111.952 128.168C112.496 127.206 112.33 126.02 112.187 124.925C111.739 121.547 111.586 118.136 111.729 114.732C111.707 114.487 111.779 114.244 111.929 114.05C112.093 113.922 112.294 113.852 112.502 113.849C115.149 113.574 117.825 113.878 120.484 113.803C123.143 113.729 125.922 113.23 128.013 111.563C130.105 109.895 131.262 106.864 130.093 104.469C129.885 103.982 129.52 103.579 129.056 103.323C128.55 103.124 128.002 103.055 127.463 103.123C124.346 103.266 121.418 103.289 118.433 104.228C116.611 104.801 114.817 105.426 113.047 106.137C111.723 106.664 109.23 108.486 107.878 108.486Z" fill="url(#paint21_linear_3259_33947)"/>
<path d="M149.3 108.486C148.592 108.798 147.943 109.228 147.381 109.758C146.942 110.276 146.609 110.876 146.403 111.523C146.196 112.17 146.12 112.852 146.177 113.528C146.309 115.293 146.695 117.03 147.323 118.685L150.4 128.042C150.462 128.243 150.549 128.436 150.658 128.615C151.265 129.532 152.841 129.131 153.38 128.168C153.918 127.206 153.764 126.02 153.615 124.925C153.167 121.547 153.014 118.136 153.156 114.732C153.14 114.487 153.213 114.244 153.363 114.05C153.526 113.922 153.728 113.851 153.936 113.849C156.583 113.574 159.259 113.878 161.923 113.803C164.588 113.729 167.361 113.23 169.447 111.563C171.532 109.895 172.696 106.864 171.532 104.469C171.322 103.984 170.958 103.581 170.495 103.323C169.989 103.124 169.442 103.055 168.902 103.123C165.785 103.266 162.851 103.289 159.866 104.229C158.05 104.802 156.251 105.426 154.48 106.137C153.174 106.664 150.687 108.486 149.3 108.486Z" fill="url(#paint22_linear_3259_33947)"/>
<path d="M110.337 130.93C110.231 131.187 110.073 131.419 109.873 131.612C109.293 132.242 108.636 132.799 107.919 133.268C107.578 133.448 107.28 133.698 107.042 134.001C106.869 134.273 106.81 134.603 106.876 134.918C106.909 135.116 107.018 135.293 107.18 135.411C107.425 135.527 107.705 135.548 107.965 135.468C109.364 135.18 110.714 134.694 111.976 134.024C112.19 133.918 112.397 133.798 112.595 133.663C113.022 133.347 113.353 132.918 113.55 132.424C113.748 131.93 113.804 131.391 113.712 130.867C113.685 130.714 113.637 130.566 113.569 130.426C113.482 130.262 113.38 130.107 113.265 129.962C112.909 129.413 112.499 128.903 112.039 128.438C112.003 128.396 111.955 128.368 111.901 128.357C111.837 128.354 111.774 128.374 111.724 128.415C111.466 128.564 111.214 128.718 110.973 128.885C110.733 129.051 110.515 129.131 110.4 129.314C110.2 129.773 110.509 130.432 110.337 130.93Z" fill="#606161"/>
<path d="M151.604 131.543C151.499 131.799 151.343 132.031 151.146 132.225C150.562 132.854 149.904 133.41 149.186 133.881C148.845 134.063 148.547 134.315 148.31 134.62C148.136 134.89 148.076 135.218 148.144 135.531C148.18 135.729 148.291 135.905 148.453 136.024C148.697 136.143 148.978 136.165 149.238 136.087C150.636 135.795 151.987 135.307 153.249 134.638C153.463 134.532 153.67 134.411 153.868 134.277C154.295 133.96 154.626 133.531 154.823 133.037C155.021 132.543 155.077 132.004 154.985 131.48C154.958 131.328 154.911 131.18 154.848 131.039C154.761 130.874 154.657 130.719 154.538 130.575C154.182 130.026 153.772 129.516 153.312 129.051C153.275 129.011 153.227 128.983 153.174 128.971C153.11 128.967 153.047 128.988 152.997 129.028C152.739 129.177 152.493 129.332 152.246 129.498C152 129.664 151.788 129.744 151.673 129.927C151.467 130.386 151.776 131.045 151.604 131.543Z" fill="#606161"/>
<path d="M163.338 67.843C162.92 66.2959 161.619 64.4394 158.422 64.0555C156.13 63.7862 155.121 64.3591 154.944 65.0467C154.827 65.2041 154.748 65.3866 154.715 65.5796L154.64 65.1098C154.537 66.399 154.159 69.8657 154.193 71.8311C154.227 73.7964 155.013 75.842 156.451 75.7332C157.889 75.6243 161.31 73.4412 162.043 72.5187C162.777 71.5961 163.762 69.4187 163.338 67.843Z" fill="#C8A59C"/>
<path d="M158.233 76.9881C158.424 77.2263 158.691 77.3921 158.99 77.4579L160.05 77.8132C160.355 77.9334 160.678 78.0012 161.006 78.0138C161.172 78.0207 161.336 77.986 161.484 77.913C161.632 77.8399 161.76 77.7307 161.855 77.5955C161.971 77.3533 162.021 77.0841 161.998 76.8162C162.069 75.3928 161.912 73.9672 161.534 72.5932C161.483 72.3771 161.349 72.1897 161.161 72.0718C161.008 72.0256 160.845 72.0256 160.691 72.0718C159.74 72.2609 158.462 73.0057 158.17 74.0085C158.115 74.3894 158.124 74.7769 158.199 75.1545C158.222 75.6759 157.929 76.4781 158.233 76.9881Z" fill="#C8A59C"/>
<path d="M110.01 71.5446C110.044 72.4614 111.082 72.9599 111.586 73.722C112.09 74.4841 112.067 75.653 112.766 76.3005C113.465 76.948 114.64 76.7531 115.631 76.352C115.941 76.2203 116.204 78.0309 116.445 78.2601C117.281 79.0451 118.737 78.0195 119.608 77.5152C119.776 77.4338 119.921 77.3092 120.026 77.1542C120.036 76.4947 119.992 75.8355 119.894 75.1831C119.831 73.4641 119.74 71.6936 119.619 69.9516C119.581 68.9389 119.439 67.9328 119.195 66.9491C119.014 66.2224 118.667 65.5477 118.181 64.978C117.771 64.5515 117.268 64.2259 116.712 64.027C116.155 63.8281 115.559 63.7614 114.972 63.832C113.783 63.9927 112.702 64.609 111.958 65.551C111.286 66.4675 110.888 67.5567 110.812 68.691C110.658 69.5907 109.976 70.6335 110.01 71.5446Z" fill="#F0CAC5"/>
<path d="M108.36 63.322C108.435 64.1908 108.815 65.0047 109.435 65.6187C110.054 66.2326 110.871 66.6066 111.74 66.6741C112.709 66.7428 113.838 66.4964 114.531 67.1726C114.697 67.3387 114.84 67.5507 115.069 67.5966C115.216 67.6164 115.364 67.6164 115.511 67.5966C116.273 67.5622 116.657 68.5019 116.771 69.2525C117.293 69.1379 116.966 67.9862 117.499 67.9748C117.61 67.9776 117.715 68.0203 117.797 68.0951C117.969 68.2431 118.108 68.4255 118.205 68.6306C118.302 68.8357 118.355 69.0588 118.36 69.2857C118.366 69.5125 118.324 69.7379 118.236 69.9474C118.149 70.1568 118.019 70.3457 117.854 70.5017C118.47 71.2629 118.827 72.2 118.874 73.1776C118.903 74.0027 118.914 75.1143 119.716 75.2805C119.896 75.304 120.079 75.2828 120.249 75.2189C120.419 75.1549 120.571 75.0501 120.691 74.9138C121.722 73.8938 121.332 72.0832 122.123 70.8741C122.616 70.1235 123.527 69.6651 123.842 68.8228C124.002 68.3157 124.002 67.7714 123.842 67.2642C123.497 65.9577 122.704 64.8139 121.602 64.0325C121.131 63.7563 120.69 63.4339 120.284 63.0699C119.99 62.7087 119.723 62.3256 119.487 61.9239C117.9 59.5517 115.476 59.8038 112.972 59.884C110.892 59.9012 108.279 60.7091 108.36 63.322Z" fill="#EDB607"/>
<path d="M78.5015 145.301C77.5439 145.301 76.6077 145.017 75.8115 144.485C75.0153 143.953 74.3947 143.197 74.0282 142.312C73.6618 141.427 73.5659 140.454 73.7527 139.515C73.9395 138.575 74.4007 137.713 75.0778 137.035C75.7549 136.358 76.6177 135.897 77.5569 135.71C78.4961 135.524 79.4696 135.619 80.3544 135.986C81.2391 136.352 81.9953 136.973 82.5273 137.769C83.0593 138.565 83.3433 139.502 83.3433 140.459C83.3418 141.743 82.8312 142.973 81.9235 143.881C81.0158 144.789 79.7851 145.299 78.5015 145.301ZM78.5015 138.236C78.0618 138.236 77.6319 138.366 77.2663 138.611C76.9007 138.855 76.6158 139.202 76.4475 139.608C76.2792 140.015 76.2352 140.462 76.321 140.893C76.4068 141.324 76.6185 141.72 76.9294 142.031C77.2403 142.342 77.6365 142.554 78.0678 142.64C78.499 142.725 78.946 142.681 79.3523 142.513C79.7585 142.345 80.1057 142.06 80.35 141.694C80.5943 141.329 80.7247 140.899 80.7247 140.459C80.7247 139.87 80.4905 139.304 80.0735 138.887C79.6566 138.47 79.0911 138.236 78.5015 138.236Z" fill="#6B56CA"/>
<path d="M78.5015 145.851C77.5436 145.851 76.6073 145.567 75.8109 145.035C75.0146 144.502 74.394 143.746 74.0277 142.861C73.6614 141.976 73.5658 141.002 73.7531 140.063C73.9404 139.123 74.4021 138.261 75.0798 137.584C75.7575 136.907 76.6208 136.446 77.5604 136.26C78.5 136.074 79.4737 136.17 80.3583 136.538C81.243 136.905 81.9988 137.527 82.5301 138.324C83.0614 139.121 83.3444 140.057 83.3433 141.015C83.3418 142.298 82.831 143.528 81.9231 144.435C81.0153 145.342 79.7846 145.851 78.5015 145.851ZM78.5015 138.792C78.0618 138.792 77.6319 138.922 77.2663 139.167C76.9007 139.411 76.6158 139.758 76.4475 140.164C76.2792 140.57 76.2352 141.018 76.321 141.449C76.4068 141.88 76.6185 142.276 76.9294 142.587C77.2403 142.898 77.6365 143.11 78.0678 143.196C78.499 143.281 78.946 143.237 79.3523 143.069C79.7585 142.901 80.1057 142.616 80.35 142.25C80.5943 141.885 80.7247 141.455 80.7247 141.015C80.7247 140.425 80.4905 139.86 80.0735 139.443C79.6566 139.026 79.0911 138.792 78.5015 138.792Z" fill="url(#paint23_linear_3259_33947)"/>
<path d="M115.717 145.301C114.759 145.301 113.823 145.017 113.027 144.485C112.231 143.953 111.61 143.197 111.244 142.312C110.877 141.427 110.781 140.454 110.968 139.515C111.155 138.575 111.616 137.713 112.293 137.035C112.97 136.358 113.833 135.897 114.772 135.71C115.711 135.524 116.685 135.619 117.57 135.986C118.454 136.352 119.211 136.973 119.743 137.769C120.275 138.565 120.559 139.502 120.559 140.459C120.557 141.743 120.047 142.973 119.139 143.881C118.231 144.789 117 145.299 115.717 145.301ZM115.717 138.236C115.277 138.236 114.847 138.366 114.482 138.611C114.116 138.855 113.831 139.202 113.663 139.608C113.495 140.015 113.451 140.462 113.536 140.893C113.622 141.324 113.834 141.72 114.145 142.031C114.456 142.342 114.852 142.554 115.283 142.64C115.714 142.725 116.161 142.681 116.568 142.513C116.974 142.345 117.321 142.06 117.565 141.694C117.81 141.329 117.94 140.899 117.94 140.459C117.94 139.87 117.706 139.304 117.289 138.887C116.872 138.47 116.306 138.236 115.717 138.236Z" fill="#6B56CA"/>
<path d="M115.717 145.851C114.759 145.851 113.823 145.567 113.026 145.035C112.23 144.502 111.609 143.746 111.243 142.861C110.877 141.976 110.781 141.002 110.968 140.063C111.156 139.123 111.617 138.261 112.295 137.584C112.973 136.907 113.836 136.446 114.776 136.26C115.715 136.074 116.689 136.17 117.574 136.538C118.458 136.905 119.214 137.527 119.745 138.324C120.277 139.121 120.56 140.057 120.559 141.015C120.557 142.298 120.046 143.528 119.138 144.435C118.231 145.342 117 145.851 115.717 145.851ZM115.717 138.792C115.277 138.792 114.847 138.922 114.482 139.167C114.116 139.411 113.831 139.758 113.663 140.164C113.495 140.57 113.451 141.018 113.536 141.449C113.622 141.88 113.834 142.276 114.145 142.587C114.456 142.898 114.852 143.11 115.283 143.196C115.714 143.281 116.161 143.237 116.568 143.069C116.974 142.901 117.321 142.616 117.565 142.25C117.81 141.885 117.94 141.455 117.94 141.015C117.94 140.425 117.706 139.86 117.289 139.443C116.872 139.026 116.306 138.792 115.717 138.792Z" fill="url(#paint24_linear_3259_33947)"/>
<path d="M158.187 145.301C157.23 145.302 156.293 145.019 155.496 144.488C154.699 143.956 154.077 143.201 153.71 142.316C153.343 141.431 153.246 140.458 153.432 139.518C153.618 138.578 154.079 137.715 154.756 137.037C155.433 136.36 156.296 135.898 157.235 135.711C158.174 135.523 159.148 135.619 160.033 135.985C160.918 136.352 161.675 136.972 162.207 137.769C162.739 138.565 163.023 139.501 163.023 140.459C163.022 141.742 162.512 142.972 161.606 143.879C160.699 144.787 159.47 145.298 158.187 145.301ZM158.187 138.236C157.748 138.236 157.318 138.366 156.952 138.611C156.587 138.855 156.302 139.202 156.133 139.608C155.965 140.015 155.921 140.462 156.007 140.893C156.093 141.324 156.304 141.72 156.615 142.031C156.926 142.342 157.322 142.554 157.754 142.64C158.185 142.725 158.632 142.681 159.038 142.513C159.444 142.345 159.792 142.06 160.036 141.694C160.28 141.329 160.411 140.899 160.411 140.459C160.411 139.87 160.176 139.304 159.759 138.887C159.343 138.47 158.777 138.236 158.187 138.236Z" fill="#6B56CA"/>
<path d="M158.187 145.851C157.229 145.852 156.292 145.569 155.495 145.038C154.698 144.506 154.077 143.75 153.709 142.865C153.342 141.98 153.246 141.006 153.433 140.066C153.619 139.126 154.08 138.263 154.758 137.586C155.435 136.908 156.299 136.447 157.238 136.26C158.178 136.074 159.152 136.17 160.037 136.537C160.922 136.904 161.678 137.526 162.21 138.323C162.741 139.12 163.025 140.057 163.023 141.015C163.02 142.297 162.51 143.525 161.604 144.431C160.697 145.338 159.469 145.848 158.187 145.851ZM158.187 138.792C157.748 138.792 157.318 138.922 156.952 139.167C156.587 139.411 156.302 139.758 156.133 140.164C155.965 140.57 155.921 141.018 156.007 141.449C156.093 141.88 156.304 142.276 156.615 142.587C156.926 142.898 157.322 143.11 157.754 143.196C158.185 143.281 158.632 143.237 159.038 143.069C159.444 142.901 159.792 142.616 160.036 142.25C160.28 141.885 160.411 141.455 160.411 141.015C160.411 140.425 160.176 139.86 159.759 139.443C159.343 139.026 158.777 138.792 158.187 138.792Z" fill="url(#paint25_linear_3259_33947)"/>
<path d="M73.9917 136.563C73.9917 136.563 77.9225 141.748 78.3178 141.72C78.7132 141.691 79.269 140.981 79.269 140.981L74.7595 136.397L73.9917 136.563Z" fill="#606161"/>
<path d="M69.8315 136.116L70.6108 138.465L75.0802 136.391L74.4384 134.271L69.8315 136.116Z" fill="#6B56CA"/>
<path d="M69.8315 136.116L70.6108 138.465L75.0802 136.391L74.4384 134.271L69.8315 136.116Z" fill="url(#paint26_linear_3259_33947)"/>
<path d="M84.3857 145.513L85.165 147.862L89.6344 145.788L88.9926 143.668L84.3857 145.513Z" fill="#6B56CA"/>
<path d="M84.3857 145.513L85.165 147.862L89.6344 145.788L88.9926 143.668L84.3857 145.513Z" fill="url(#paint27_linear_3259_33947)"/>
<path d="M111.316 136.099C111.316 136.099 115.247 141.29 115.643 141.256C116.038 141.221 116.594 140.516 116.594 140.516L112.084 135.932L111.316 136.099Z" fill="#606161"/>
<path d="M107.139 135.657L107.918 138.001L112.388 135.932L111.74 133.812L107.139 135.657Z" fill="#6B56CA"/>
<path d="M107.139 135.657L107.918 138.001L112.388 135.932L111.74 133.812L107.139 135.657Z" fill="url(#paint28_linear_3259_33947)"/>
<path d="M154.532 136.838C154.532 136.838 158.462 142.029 158.864 141.995C159.265 141.96 159.815 141.261 159.815 141.261L155.3 136.677L154.532 136.838Z" fill="#606161"/>
<path d="M150.372 136.391L151.157 138.74L155.62 136.666L154.978 134.552L150.372 136.391Z" fill="#6B56CA"/>
<path d="M150.372 136.391L151.157 138.74L155.62 136.666L154.978 134.552L150.372 136.391Z" fill="url(#paint29_linear_3259_33947)"/>
<path d="M120.404 81.3543C119.184 82.0706 118.531 83.4572 118.061 84.7923C117.012 87.7834 116.508 91.0208 114.841 93.7197C113.883 95.2571 112.588 96.5563 111.053 97.5186C110.068 98.1317 108.967 98.6131 108.188 99.4726C107.409 100.332 107.042 101.765 107.816 102.636C108.589 103.506 109.867 103.461 110.95 103.18C115.585 101.977 118.857 97.914 121.464 93.8973C122.662 92.1925 123.601 90.3194 124.249 88.3392C124.908 86.0357 124.622 78.8733 120.404 81.3543Z" fill="#6B56CA"/>
<path d="M157.586 63.1502C156.469 63.2419 155.082 63.2934 154.452 64.2504C153.684 65.425 154.658 65.935 155.661 66.2387C157.477 66.8117 157.672 68.7484 158.171 70.2955C158.369 71.1036 158.84 71.8183 159.506 72.3182C159.884 72.5703 160.336 72.6333 160.715 72.8912C161.263 73.2828 161.654 73.8581 161.815 74.5128C161.957 75.1968 162.178 75.8621 162.474 76.4953C162.965 77.2169 163.637 77.7976 164.422 78.1799C165.071 78.5947 165.789 78.8915 166.542 79.0566C167.705 79.1685 168.878 78.9708 169.94 78.4836C170.257 78.3312 170.602 78.2436 170.954 78.2258C172.071 78.2258 172.713 79.5953 173.79 79.8932C174.61 80.1167 175.509 79.7958 176.335 79.962C177.344 80.2561 178.381 80.448 179.429 80.535C180.585 80.608 181.731 80.2734 182.666 79.5895C183.12 79.2369 183.443 78.7422 183.584 78.1845C183.724 77.6267 183.673 77.0381 183.44 76.5125C182.907 75.5384 181.721 75.1889 180.792 74.5414C180.321 74.2 179.921 73.7685 179.618 73.2718C179.314 72.7751 179.111 72.2232 179.022 71.6478C178.89 70.7195 179.022 69.734 178.661 68.8859C178.411 68.4401 178.074 68.0494 177.669 67.7373C177.264 67.4251 176.801 67.198 176.306 67.0695C175.2 66.6921 174.036 66.5155 172.868 66.5481C171.149 66.6054 169.361 67.1211 167.654 66.7429C165.946 66.3647 164.496 65.0239 162.972 64.0383C161.351 62.9898 160.027 62.8923 158.193 63.1502H157.586Z" fill="#606161"/>
<path d="M157.586 63.1502C156.469 63.2419 155.082 63.2934 154.452 64.2504C153.684 65.425 154.658 65.935 155.661 66.2387C157.477 66.8117 157.672 68.7484 158.171 70.2955C158.369 71.1036 158.84 71.8183 159.506 72.3182C159.884 72.5703 160.336 72.6333 160.715 72.8912C161.263 73.2828 161.654 73.8581 161.815 74.5128C161.957 75.1968 162.178 75.8621 162.474 76.4953C162.965 77.2169 163.637 77.7976 164.422 78.1799C165.071 78.5947 165.789 78.8915 166.542 79.0566C167.705 79.1685 168.878 78.9708 169.94 78.4836C170.257 78.3312 170.602 78.2436 170.954 78.2258C172.071 78.2258 172.713 79.5953 173.79 79.8932C174.61 80.1167 175.509 79.7958 176.335 79.962C177.344 80.2561 178.381 80.448 179.429 80.535C180.585 80.608 181.731 80.2734 182.666 79.5895C183.12 79.2369 183.443 78.7422 183.584 78.1845C183.724 77.6267 183.673 77.0381 183.44 76.5125C182.907 75.5384 181.721 75.1889 180.792 74.5414C180.321 74.2 179.921 73.7685 179.618 73.2718C179.314 72.7751 179.111 72.2232 179.022 71.6478C178.89 70.7195 179.022 69.734 178.661 68.8859C178.411 68.4401 178.074 68.0494 177.669 67.7373C177.264 67.4251 176.801 67.198 176.306 67.0695C175.2 66.6921 174.036 66.5155 172.868 66.5481C171.149 66.6054 169.361 67.1211 167.654 66.7429C165.946 66.3647 164.496 65.0239 162.972 64.0383C161.351 62.9898 160.027 62.8923 158.193 63.1502H157.586Z" fill="url(#paint30_linear_3259_33947)"/>
<path d="M276.425 85.9097C276.425 105.34 259.865 138.981 240.429 138.981C220.993 138.981 206.05 105.34 206.05 85.9097C205.99 81.2506 206.857 76.6261 208.598 72.3044C210.34 67.9828 212.923 64.05 216.197 60.7343C219.47 57.4186 223.37 54.786 227.669 52.9892C231.968 51.1923 236.581 50.2671 241.24 50.2671C245.9 50.2671 250.513 51.1923 254.812 52.9892C259.111 54.786 263.01 57.4186 266.284 60.7343C269.558 64.05 272.14 67.9828 273.882 72.3044C275.624 76.6261 276.49 81.2506 276.431 85.9097H276.425Z" fill="#6B56CA"/>
<path d="M276.425 85.9097C276.425 105.34 259.865 138.981 240.429 138.981C220.993 138.981 206.05 105.34 206.05 85.9097C205.99 81.2506 206.857 76.6261 208.598 72.3044C210.34 67.9828 212.923 64.05 216.197 60.7343C219.47 57.4186 223.37 54.786 227.669 52.9892C231.968 51.1923 236.581 50.2671 241.24 50.2671C245.9 50.2671 250.513 51.1923 254.812 52.9892C259.111 54.786 263.01 57.4186 266.284 60.7343C269.558 64.05 272.14 67.9828 273.882 72.3044C275.624 76.6261 276.49 81.2506 276.431 85.9097H276.425Z" fill="url(#paint31_linear_3259_33947)"/>
<path d="M259.482 130.478H225.675C222.618 130.478 220.14 132.956 220.14 136.013V136.018C220.14 139.075 222.618 141.554 225.675 141.554H259.482C262.539 141.554 265.017 139.075 265.017 136.018V136.013C265.017 132.956 262.539 130.478 259.482 130.478Z" fill="#6B56CA"/>
<path d="M259.482 130.478H225.675C222.618 130.478 220.14 132.956 220.14 136.013V136.018C220.14 139.075 222.618 141.554 225.675 141.554H259.482C262.539 141.554 265.017 139.075 265.017 136.018V136.013C265.017 132.956 262.539 130.478 259.482 130.478Z" fill="url(#paint32_linear_3259_33947)"/>
<path d="M259.482 142.705H225.675C222.618 142.705 220.14 145.183 220.14 148.24V148.246C220.14 151.303 222.618 153.781 225.675 153.781H259.482C262.539 153.781 265.017 151.303 265.017 148.246V148.24C265.017 145.183 262.539 142.705 259.482 142.705Z" fill="#6B56CA"/>
<path d="M259.482 142.705H225.675C222.618 142.705 220.14 145.183 220.14 148.24V148.246C220.14 151.303 222.618 153.781 225.675 153.781H259.482C262.539 153.781 265.017 151.303 265.017 148.246V148.24C265.017 145.183 262.539 142.705 259.482 142.705Z" fill="url(#paint33_linear_3259_33947)"/>
<path d="M263.475 134.729H222.351C218.633 134.729 215.619 137.744 215.619 141.462V141.468C215.619 145.186 218.633 148.2 222.351 148.2H263.475C267.194 148.2 270.208 145.186 270.208 141.468V141.462C270.208 137.744 267.194 134.729 263.475 134.729Z" fill="#6B56CA"/>
<path d="M263.475 134.729H222.351C218.633 134.729 215.619 137.744 215.619 141.462V141.468C215.619 145.186 218.633 148.2 222.351 148.2H263.475C267.194 148.2 270.208 145.186 270.208 141.468V141.462C270.208 137.744 267.194 134.729 263.475 134.729Z" fill="url(#paint34_linear_3259_33947)"/>
<path d="M251.196 131.268L249.477 130.993C250.285 126.014 251.739 121.162 253.803 116.559C254.182 115.723 254.583 114.892 254.984 114.055C256.221 111.471 257.511 108.801 258.078 105.999C258.725 102.842 258.387 98.5958 255.499 96.1663C254.689 95.4101 253.616 94.999 252.508 95.0203C251.506 95.1975 250.59 95.7035 249.907 96.4586C250.815 98.0787 251.299 99.902 251.314 101.759C251.329 103.616 250.875 105.447 249.993 107.082C249.679 107.734 249.122 108.236 248.44 108.48C248.177 108.555 247.9 108.573 247.629 108.531C247.358 108.49 247.099 108.39 246.87 108.239C246.474 107.948 246.14 107.582 245.886 107.161C245.632 106.74 245.464 106.273 245.392 105.787C245.099 104.127 245.157 102.424 245.563 100.787C245.968 99.151 246.712 97.6179 247.747 96.2867C247.324 95.7191 246.829 95.2087 246.274 94.7682C245.816 94.3797 245.275 94.1014 244.693 93.9546C242.974 93.5477 241.467 95.2954 240.607 97.1462C241.927 98.5292 242.948 100.17 243.606 101.965C244.263 103.76 244.544 105.672 244.429 107.58C244.413 108.761 244.01 109.904 243.283 110.835C242.406 111.838 240.705 112.342 239.484 111.408C238.918 110.919 238.517 110.266 238.338 109.54C237.09 105.639 237.169 101.434 238.562 97.5816C238.039 97.0659 237.378 96.7118 236.659 96.5617C235.784 96.5283 234.928 96.8226 234.259 97.3868C230.746 99.9882 230.311 105.139 230.362 107.976C230.562 116.2 233.833 124.051 239.53 129.985L238.281 131.188C232.286 124.935 228.846 116.665 228.637 108.004C228.534 102.532 230.167 98.2635 233.221 95.9715C234.249 95.1374 235.557 94.7274 236.877 94.8255C237.763 94.972 238.593 95.3517 239.284 95.9257C240.43 93.7769 242.538 91.7943 245.014 92.2413C245.866 92.4358 246.661 92.8284 247.334 93.3873C247.923 93.8509 248.456 94.3817 248.921 94.9688C249.408 94.4431 249.995 94.0204 250.648 93.7257C251.3 93.4311 252.006 93.2704 252.722 93.2533C253.438 93.2362 254.15 93.363 254.816 93.6262C255.482 93.8893 256.089 94.2835 256.6 94.7854C260.072 97.702 260.507 102.647 259.763 106.303C259.155 109.305 257.826 112.079 256.537 114.76C256.141 115.58 255.752 116.399 255.391 117.224C253.381 121.701 251.97 126.423 251.196 131.268ZM239.925 99.0027C238.925 102.272 238.949 105.769 239.994 109.024C240.085 109.415 240.284 109.772 240.567 110.056C240.945 110.342 241.667 110.102 242.017 109.712C242.491 109.069 242.739 108.287 242.722 107.489C242.908 104.407 241.907 101.37 239.925 99.0027ZM248.727 97.9369C247.22 100.156 246.642 102.877 247.117 105.518C247.18 106.016 247.422 106.474 247.798 106.807C248.125 106.807 248.291 106.606 248.497 106.234C249.186 104.966 249.565 103.554 249.605 102.113C249.645 100.671 249.344 99.2404 248.727 97.9369Z" fill="#6B56CA"/>
</g>
</g>
<defs>
<linearGradient id="paint0_linear_3259_33947" x1="170.53" y1="5.68988" x2="204.566" y2="83.2165" gradientUnits="userSpaceOnUse">
<stop stop-color="white" stop-opacity="0"/>
<stop offset="0.95" stop-color="white"/>
</linearGradient>
<linearGradient id="paint1_linear_3259_33947" x1="119.498" y1="112.43" x2="226.118" y2="121.919" gradientUnits="userSpaceOnUse">
<stop stop-color="white" stop-opacity="0"/>
<stop offset="0.95" stop-color="white"/>
</linearGradient>
<linearGradient id="paint2_linear_3259_33947" x1="310.438" y1="125.504" x2="270.208" y2="115.694" gradientUnits="userSpaceOnUse">
<stop stop-color="white" stop-opacity="0"/>
<stop offset="0.95" stop-color="white"/>
</linearGradient>
<linearGradient id="paint3_linear_3259_33947" x1="155.563" y1="129.263" x2="163.298" y2="117.104" gradientUnits="userSpaceOnUse">
<stop stop-color="#010101" stop-opacity="0"/>
<stop offset="0.47" stop-color="#010101" stop-opacity="0.47"/>
<stop offset="0.95" stop-color="#010101"/>
</linearGradient>
<linearGradient id="paint4_linear_3259_33947" x1="164.926" y1="146.04" x2="170.174" y2="146.04" gradientUnits="userSpaceOnUse">
<stop stop-color="#010101" stop-opacity="0"/>
<stop offset="0.47" stop-color="#010101" stop-opacity="0.47"/>
<stop offset="0.95" stop-color="#010101"/>
</linearGradient>
<linearGradient id="paint5_linear_3259_33947" x1="121.693" y1="145.307" x2="126.942" y2="145.307" gradientUnits="userSpaceOnUse">
<stop stop-color="#010101" stop-opacity="0"/>
<stop offset="0.47" stop-color="#010101" stop-opacity="0.47"/>
<stop offset="0.95" stop-color="#010101"/>
</linearGradient>
<linearGradient id="paint6_linear_3259_33947" x1="113.167" y1="130.42" x2="126.065" y2="111.076" gradientUnits="userSpaceOnUse">
<stop stop-color="#010101" stop-opacity="0"/>
<stop offset="0.47" stop-color="#010101" stop-opacity="0.47"/>
<stop offset="0.95" stop-color="#010101"/>
</linearGradient>
<linearGradient id="paint7_linear_3259_33947" x1="91.737" y1="112.153" x2="90.7686" y2="108.835" gradientUnits="userSpaceOnUse">
<stop stop-color="#010101" stop-opacity="0"/>
<stop offset="0.47" stop-color="#010101" stop-opacity="0.47"/>
<stop offset="0.95" stop-color="#010101"/>
</linearGradient>
<linearGradient id="paint8_linear_3259_33947" x1="126.741" y1="112.153" x2="125.773" y2="108.835" gradientUnits="userSpaceOnUse">
<stop stop-color="#010101" stop-opacity="0"/>
<stop offset="0.47" stop-color="#010101" stop-opacity="0.47"/>
<stop offset="0.95" stop-color="#010101"/>
</linearGradient>
<linearGradient id="paint9_linear_3259_33947" x1="169.853" y1="112.153" x2="168.885" y2="108.835" gradientUnits="userSpaceOnUse">
<stop stop-color="#010101" stop-opacity="0"/>
<stop offset="0.47" stop-color="#010101" stop-opacity="0.47"/>
<stop offset="0.95" stop-color="#010101"/>
</linearGradient>
<linearGradient id="paint10_linear_3259_33947" x1="48.4242" y1="162.881" x2="49.9026" y2="104.418" gradientUnits="userSpaceOnUse">
<stop stop-color="#010101" stop-opacity="0"/>
<stop offset="0.47" stop-color="#010101" stop-opacity="0.47"/>
<stop offset="0.95" stop-color="#010101"/>
</linearGradient>
<linearGradient id="paint11_linear_3259_33947" x1="184.334" y1="165.184" x2="185.812" y2="106.721" gradientUnits="userSpaceOnUse">
<stop stop-color="#010101" stop-opacity="0"/>
<stop offset="0.47" stop-color="#010101" stop-opacity="0.47"/>
<stop offset="0.95" stop-color="#010101"/>
</linearGradient>
<linearGradient id="paint12_linear_3259_33947" x1="78.742" y1="77.9106" x2="131.802" y2="265.092" gradientUnits="userSpaceOnUse">
<stop stop-color="#010101" stop-opacity="0"/>
<stop offset="0.47" stop-color="#010101" stop-opacity="0.47"/>
<stop offset="0.95" stop-color="#010101"/>
</linearGradient>
<linearGradient id="paint13_linear_3259_33947" x1="75.8085" y1="131.887" x2="83.9737" y2="113.769" gradientUnits="userSpaceOnUse">
<stop stop-color="#010101" stop-opacity="0"/>
<stop offset="0.47" stop-color="#010101" stop-opacity="0.47"/>
<stop offset="0.95" stop-color="#010101"/>
</linearGradient>
<linearGradient id="paint14_linear_3259_33947" x1="65.4482" y1="100.504" x2="60.2454" y2="116.227" gradientUnits="userSpaceOnUse">
<stop stop-color="#010101" stop-opacity="0"/>
<stop offset="0.47" stop-color="#010101" stop-opacity="0.47"/>
<stop offset="0.95" stop-color="#010101"/>
</linearGradient>
<linearGradient id="paint15_linear_3259_33947" x1="102.538" y1="100.504" x2="97.3407" y2="116.227" gradientUnits="userSpaceOnUse">
<stop stop-color="#010101" stop-opacity="0"/>
<stop offset="0.47" stop-color="#010101" stop-opacity="0.47"/>
<stop offset="0.95" stop-color="#010101"/>
</linearGradient>
<linearGradient id="paint16_linear_3259_33947" x1="143.708" y1="100.504" x2="138.505" y2="116.227" gradientUnits="userSpaceOnUse">
<stop stop-color="#010101" stop-opacity="0"/>
<stop offset="0.47" stop-color="#010101" stop-opacity="0.47"/>
<stop offset="0.95" stop-color="#010101"/>
</linearGradient>
<linearGradient id="paint17_linear_3259_33947" x1="60.2858" y1="116.812" x2="52.791" y2="112.881" gradientUnits="userSpaceOnUse">
<stop stop-color="#010101" stop-opacity="0"/>
<stop offset="0.47" stop-color="#010101" stop-opacity="0.47"/>
<stop offset="0.95" stop-color="#010101"/>
</linearGradient>
<linearGradient id="paint18_linear_3259_33947" x1="66.2052" y1="116.989" x2="92.0588" y2="116.989" gradientUnits="userSpaceOnUse">
<stop stop-color="#010101" stop-opacity="0"/>
<stop offset="0.47" stop-color="#010101" stop-opacity="0.47"/>
<stop offset="0.95" stop-color="#010101"/>
</linearGradient>
<linearGradient id="paint19_linear_3259_33947" x1="123.618" y1="87.726" x2="111.213" y2="140.052" gradientUnits="userSpaceOnUse">
<stop stop-color="#010101" stop-opacity="0"/>
<stop offset="0.47" stop-color="#010101" stop-opacity="0.47"/>
<stop offset="0.95" stop-color="#010101"/>
</linearGradient>
<linearGradient id="paint20_linear_3259_33947" x1="167.424" y1="89.0612" x2="130.019" y2="118.909" gradientUnits="userSpaceOnUse">
<stop stop-color="#010101" stop-opacity="0"/>
<stop offset="0.47" stop-color="#010101" stop-opacity="0.47"/>
<stop offset="0.95" stop-color="#010101"/>
</linearGradient>
<linearGradient id="paint21_linear_3259_33947" x1="104.721" y1="116.124" x2="130.574" y2="116.124" gradientUnits="userSpaceOnUse">
<stop stop-color="#010101" stop-opacity="0"/>
<stop offset="0.47" stop-color="#010101" stop-opacity="0.47"/>
<stop offset="0.95" stop-color="#010101"/>
</linearGradient>
<linearGradient id="paint22_linear_3259_33947" x1="146.172" y1="116.124" x2="172.031" y2="116.124" gradientUnits="userSpaceOnUse">
<stop stop-color="#010101" stop-opacity="0"/>
<stop offset="0.47" stop-color="#010101" stop-opacity="0.47"/>
<stop offset="0.95" stop-color="#010101"/>
</linearGradient>
<linearGradient id="paint23_linear_3259_33947" x1="73.6654" y1="141.015" x2="83.3433" y2="141.015" gradientUnits="userSpaceOnUse">
<stop stop-color="#010101" stop-opacity="0"/>
<stop offset="0.47" stop-color="#010101" stop-opacity="0.47"/>
<stop offset="0.95" stop-color="#010101"/>
</linearGradient>
<linearGradient id="paint24_linear_3259_33947" x1="110.881" y1="141.015" x2="120.559" y2="141.015" gradientUnits="userSpaceOnUse">
<stop stop-color="#010101" stop-opacity="0"/>
<stop offset="0.47" stop-color="#010101" stop-opacity="0.47"/>
<stop offset="0.95" stop-color="#010101"/>
</linearGradient>
<linearGradient id="paint25_linear_3259_33947" x1="153.346" y1="141.015" x2="163.023" y2="141.015" gradientUnits="userSpaceOnUse">
<stop stop-color="#010101" stop-opacity="0"/>
<stop offset="0.47" stop-color="#010101" stop-opacity="0.47"/>
<stop offset="0.95" stop-color="#010101"/>
</linearGradient>
<linearGradient id="paint26_linear_3259_33947" x1="69.8315" y1="136.368" x2="75.0802" y2="136.368" gradientUnits="userSpaceOnUse">
<stop stop-color="#010101" stop-opacity="0"/>
<stop offset="0.47" stop-color="#010101" stop-opacity="0.47"/>
<stop offset="0.95" stop-color="#010101"/>
</linearGradient>
<linearGradient id="paint27_linear_3259_33947" x1="84.3857" y1="145.765" x2="89.6344" y2="145.765" gradientUnits="userSpaceOnUse">
<stop stop-color="#010101" stop-opacity="0"/>
<stop offset="0.47" stop-color="#010101" stop-opacity="0.47"/>
<stop offset="0.95" stop-color="#010101"/>
</linearGradient>
<linearGradient id="paint28_linear_3259_33947" x1="107.139" y1="135.91" x2="112.388" y2="135.91" gradientUnits="userSpaceOnUse">
<stop stop-color="#010101" stop-opacity="0"/>
<stop offset="0.47" stop-color="#010101" stop-opacity="0.47"/>
<stop offset="0.95" stop-color="#010101"/>
</linearGradient>
<linearGradient id="paint29_linear_3259_33947" x1="150.372" y1="136.643" x2="155.62" y2="136.643" gradientUnits="userSpaceOnUse">
<stop stop-color="#010101" stop-opacity="0"/>
<stop offset="0.47" stop-color="#010101" stop-opacity="0.47"/>
<stop offset="0.95" stop-color="#010101"/>
</linearGradient>
<linearGradient id="paint30_linear_3259_33947" x1="174.873" y1="57.1796" x2="161.608" y2="88.8663" gradientUnits="userSpaceOnUse">
<stop stop-color="#010101" stop-opacity="0"/>
<stop offset="0.47" stop-color="#010101" stop-opacity="0.47"/>
<stop offset="0.95" stop-color="#010101"/>
</linearGradient>
<linearGradient id="paint31_linear_3259_33947" x1="194.481" y1="97.8052" x2="265.515" y2="93.2442" gradientUnits="userSpaceOnUse">
<stop stop-color="white" stop-opacity="0"/>
<stop offset="0.95" stop-color="white"/>
</linearGradient>
<linearGradient id="paint32_linear_3259_33947" x1="242.67" y1="130.707" x2="242.274" y2="152.905" gradientUnits="userSpaceOnUse">
<stop stop-color="#010101" stop-opacity="0"/>
<stop offset="0.47" stop-color="#010101" stop-opacity="0.47"/>
<stop offset="0.95" stop-color="#010101"/>
</linearGradient>
<linearGradient id="paint33_linear_3259_33947" x1="243.495" y1="142.035" x2="237.822" y2="180.495" gradientUnits="userSpaceOnUse">
<stop stop-color="#010101" stop-opacity="0"/>
<stop offset="0.47" stop-color="#010101" stop-opacity="0.47"/>
<stop offset="0.95" stop-color="#010101"/>
</linearGradient>
<linearGradient id="paint34_linear_3259_33947" x1="243.208" y1="139.118" x2="238.155" y2="179.131" gradientUnits="userSpaceOnUse">
<stop stop-color="#010101" stop-opacity="0"/>
<stop offset="0.47" stop-color="#010101" stop-opacity="0.47"/>
<stop offset="0.95" stop-color="#010101"/>
</linearGradient>
<clipPath id="clip0_3259_33947">
<rect width="314.46" height="171" fill="white" transform="translate(0.27002)"/>
</clipPath>
<clipPath id="clip1_3259_33947">
<rect width="314.46" height="171" fill="white" transform="translate(0.27002)"/>
</clipPath>
</defs>
</svg>
