<svg width="225" height="226" viewBox="0 0 225 226" fill="none" xmlns="http://www.w3.org/2000/svg">
<g id="illustration" opacity="0.6" clip-path="url(#clip0_2469_86083)">
<path id="Vector" opacity="0.18" d="M218.917 108.71C215.28 125.533 211.641 142.345 208.001 159.145C206.579 165.712 205.145 172.32 202.587 178.511C200.73 183.001 198.286 187.221 195.319 191.058C186.338 202.725 172.835 210.906 158.282 212.901C149.004 214.175 139.522 213.101 130.261 214.492C118.57 216.252 107.776 221.839 96.2311 224.38C79.7495 228.013 62.3004 225.219 46.6929 218.741C34.4016 213.641 13.3683 204.474 5.16826 191.07C3.54494 188.501 2.45276 185.629 1.95702 182.625C-2.12259 156.158 2.9303 123.681 11.6315 98.6336C28.5328 49.9242 72.5868 11.8135 122.947 2.27114C142.045 -1.34392 162.245 -1.01528 180.382 6.00944C198.519 13.0342 214.33 27.2714 220.805 45.7223C227.863 65.7988 223.422 87.9 218.917 108.71Z" fill="#6B56CA"/>
<path id="Vector_2" d="M195.319 191.07C186.338 202.737 172.835 210.918 158.282 212.913C149.004 214.187 139.522 213.113 130.261 214.503C118.57 216.264 107.776 221.851 96.231 224.392C79.7494 228.025 62.3003 225.231 46.6929 218.752C34.4016 213.641 13.3682 204.474 5.16821 191.07H195.319Z" fill="#6B56CA"/>
<path id="Vector_3" d="M111.267 194.468C92.5012 190.09 72.9307 191.886 53.7565 193.699C52.0081 193.864 50.1956 194.051 48.7036 194.979C47.2116 195.906 46.1684 197.825 46.8037 199.474C47.3865 200.923 48.9367 201.663 50.4054 202.156C59.7302 205.331 69.8477 204.574 79.6795 204.122C111.536 202.666 143.788 204.826 175.02 198.2C178.202 197.526 181.606 196.616 183.651 194.092C177.794 191.094 170.731 191.915 164.419 193.734C158.107 195.554 151.999 198.318 145.472 199.046C141.806 199.45 140.577 195.577 137.54 194.175C135.209 193.095 133.688 193.365 131.298 194.092C123.891 196.334 118.931 196.258 111.267 194.468Z" fill="url(#paint0_linear_2469_86083)"/>
<path id="Vector_4" d="M88.3281 191.135C87.4338 191.129 86.5577 190.88 85.7928 190.413C85.028 189.946 84.4031 189.28 83.9846 188.484C83.5661 187.688 83.3696 186.793 83.4161 185.893C83.4626 184.994 83.7503 184.124 84.2485 183.376C84.7253 182.661 85.3781 182.082 86.1433 181.696C86.9086 181.311 87.76 181.132 88.6145 181.177C89.469 181.221 90.2974 181.488 91.0188 181.952C91.7401 182.415 92.3298 183.059 92.7302 183.821C93.1306 184.582 93.3281 185.435 93.3033 186.296C93.2786 187.158 93.0324 187.998 92.5889 188.735C92.1454 189.472 91.5197 190.08 90.7729 190.501C90.0261 190.921 89.1838 191.14 88.3281 191.135ZM86.6438 185.014C86.4199 185.35 86.3 185.745 86.2993 186.15C86.2985 186.555 86.4169 186.951 86.6395 187.288C86.8621 187.625 87.179 187.889 87.55 188.044C87.921 188.2 88.3297 188.242 88.7242 188.164C89.1188 188.086 89.4816 187.893 89.7668 187.607C90.052 187.322 90.2468 186.958 90.3267 186.561C90.4065 186.164 90.3678 185.753 90.2154 185.378C90.063 185.003 89.8038 184.682 89.4704 184.456C89.0219 184.153 88.4726 184.042 87.9427 184.147C87.4129 184.251 86.9458 184.563 86.6438 185.014Z" fill="#2E2E3F"/>
<path id="Vector_5" d="M52.0722 191.135C51.1771 191.131 50.2997 190.883 49.5337 190.417C48.7677 189.951 48.1418 189.283 47.7229 188.487C47.3041 187.69 47.1079 186.794 47.1554 185.894C47.2029 184.994 47.4923 184.124 47.9926 183.376C48.4694 182.661 49.1222 182.082 49.8874 181.696C50.6527 181.311 51.5041 181.132 52.3586 181.177C53.2131 181.221 54.0415 181.488 54.7629 181.952C55.4842 182.415 56.0739 183.059 56.4743 183.821C56.8747 184.582 57.0722 185.435 57.0474 186.296C57.0227 187.158 56.7765 187.998 56.333 188.735C55.8895 189.472 55.2638 190.08 54.517 190.501C53.7702 190.921 52.9279 191.14 52.0722 191.135ZM50.3938 185.014C50.1691 185.35 50.0486 185.746 50.0474 186.151C50.0462 186.556 50.1643 186.952 50.3869 187.29C50.6095 187.628 50.9266 187.891 51.2979 188.047C51.6693 188.203 52.0782 188.245 52.4731 188.167C52.868 188.089 53.231 187.894 53.5162 187.609C53.8014 187.323 53.996 186.958 54.0754 186.561C54.1547 186.164 54.1153 185.752 53.9621 185.377C53.8088 185.002 53.5487 184.682 53.2145 184.456C52.7669 184.154 52.2185 184.043 51.6896 184.147C51.1607 184.252 50.6946 184.563 50.3938 185.014Z" fill="#2E2E3F"/>
<path id="Vector_6" d="M128.775 87.6946C128.599 88.2743 128.342 88.8257 128.011 89.3319C127.358 90.1141 126.531 90.7312 125.598 91.1336C121.903 93.0409 116.274 95.0949 113.138 97.8531C112.757 98.1578 112.442 98.5371 112.211 98.9682C111.763 99.9482 112.211 101.081 112.625 102.067C112.811 102.625 113.141 103.123 113.581 103.51C114.379 104.097 115.487 103.845 116.437 103.563C120.08 102.47 123.664 101.183 127.172 99.7076C129.135 98.9105 131.041 97.9792 132.878 96.92C133.614 96.5387 134.254 95.9926 134.748 95.3238C135.096 94.7213 135.327 94.0583 135.43 93.3695C136.093 89.8127 136.539 86.2183 136.765 82.6065L137.464 74.1322C137.604 72.5008 142.535 66.7906 141.048 65.6697C138.134 63.4749 133.897 69.4491 133.233 70.6756C131.356 74.1322 129.503 85.6054 128.775 87.6946Z" fill="#6B56CA"/>
<path id="Vector_7" d="M128.775 87.6946C128.599 88.2743 128.342 88.8257 128.011 89.3319C127.358 90.1141 126.531 90.7312 125.598 91.1336C121.903 93.0409 116.274 95.0949 113.138 97.8531C112.757 98.1578 112.442 98.5371 112.211 98.9682C111.763 99.9482 112.211 101.081 112.625 102.067C112.811 102.625 113.141 103.123 113.581 103.51C114.379 104.097 115.487 103.845 116.437 103.563C120.08 102.47 123.664 101.183 127.172 99.7076C129.135 98.9105 131.041 97.9792 132.878 96.92C133.614 96.5387 134.254 95.9926 134.748 95.3238C135.096 94.7213 135.327 94.0583 135.43 93.3695C136.093 89.8127 136.539 86.2183 136.765 82.6065L137.464 74.1322C137.604 72.5008 142.535 66.7906 141.048 65.6697C138.134 63.4749 133.897 69.4491 133.233 70.6756C131.356 74.1322 129.503 85.6054 128.775 87.6946Z" fill="url(#paint1_linear_2469_86083)"/>
<path id="Vector_8" d="M174.035 179.48C174.506 180.237 174.751 181.115 174.74 182.009C174.685 182.345 174.56 182.665 174.374 182.948C174.187 183.232 173.942 183.472 173.656 183.653C173.371 183.835 173.05 183.953 172.715 184C172.381 184.048 172.04 184.023 171.716 183.928C171.188 183.708 170.708 183.385 170.305 182.977C165.427 178.611 161.563 173.229 158.066 167.654C157.122 166.14 156.207 164.609 155.403 163.018C152.686 157.629 151.259 151.674 151.236 145.629C151.199 145.283 151.284 144.934 151.475 144.644C151.676 144.439 151.934 144.302 152.215 144.25C154.628 143.57 158.387 143.505 160.52 145.09C162.915 146.85 162.338 152.396 162.233 154.919C162.112 155.996 162.219 157.086 162.548 158.118C162.985 159 163.577 159.796 164.297 160.465C169.186 165.753 170.882 173.083 174.035 179.48Z" fill="#F3BD8F"/>
<path id="Vector_9" d="M143.788 167.443C144.293 174.299 143.394 181.186 141.148 187.678C141.011 188.266 140.697 188.796 140.25 189.198C139.947 189.386 139.601 189.489 139.245 189.497C138.89 189.505 138.539 189.418 138.228 189.245C136.648 188.47 136.095 186.78 135.827 185.137C134.654 177.885 134.097 170.547 134.16 163.2C134.16 159.732 134.259 156.428 133.991 152.977C133.723 149.426 133.326 145.882 133.326 142.314C133.261 141.96 133.327 141.594 133.513 141.287C133.66 141.151 133.835 141.049 134.025 140.989C134.216 140.929 134.417 140.913 134.614 140.94C137.144 140.94 141.76 139.473 143.729 141.093C146.323 143.223 142.173 152.59 141.76 155.301C141.066 159.826 143.018 161.17 143.595 165.636C143.671 166.269 143.735 166.856 143.788 167.443Z" fill="#F5BD8D"/>
<path id="Vector_10" d="M131.054 142.355C130.994 143.042 131.164 143.73 131.537 144.309C131.925 144.713 132.421 144.994 132.965 145.119C135.739 145.987 138.665 146.169 141.561 146.351C142.447 146.404 143.426 146.428 144.108 145.864C144.531 145.451 144.845 144.939 145.023 144.374L148.24 136.445C148 139.243 147.928 142.054 148.025 144.861C147.978 145.463 148.155 146.061 148.52 146.539C148.989 146.903 149.574 147.078 150.164 147.032C154.629 147.201 159.098 146.875 163.492 146.058C165.194 139.737 165.241 133.053 164.396 126.562C164.063 124.033 163.568 121.457 162.233 119.285C161.907 118.692 161.443 118.186 160.881 117.812C160.04 117.406 159.107 117.23 158.177 117.302C151.428 117.231 144.575 117.073 137.867 118.035C135.774 118.335 134.679 118.992 133.95 121.052C132.901 124.298 132.169 127.639 131.765 131.028C131.229 134.779 130.992 138.566 131.054 142.355Z" fill="#2E2E3F"/>
<path id="Vector_11" d="M163.492 146.058L162.443 146.24C158.387 146.923 154.273 147.188 150.164 147.032C149.574 147.078 148.988 146.903 148.52 146.539C148.155 146.061 147.978 145.463 148.025 144.861C147.934 142.25 147.993 139.636 148.2 137.032C148.2 136.967 148.2 136.897 148.2 136.832C148.2 136.768 148.2 136.574 148.229 136.445C147.156 139.08 146.09 141.727 145.017 144.362C144.839 144.927 144.525 145.439 144.102 145.852C143.421 146.439 142.441 146.392 141.556 146.34H141.153C138.391 146.164 135.611 145.958 132.994 145.131C132.45 145.008 131.953 144.726 131.566 144.321C131.193 143.742 131.023 143.054 131.083 142.367C131.019 138.568 131.257 134.771 131.794 131.011C132.197 127.638 132.925 124.312 133.967 121.081C134.696 119.021 135.792 118.364 137.884 118.065C144.592 117.102 151.446 117.261 158.195 117.331C159.036 117.282 159.879 117.414 160.666 117.718C160.746 117.754 160.824 117.795 160.899 117.842C161.461 118.216 161.925 118.721 162.251 119.315C163.585 121.486 164.081 124.062 164.413 126.592C165.252 133.053 165.194 139.737 163.492 146.058Z" fill="url(#paint2_linear_2469_86083)"/>
<path id="Vector_12" d="M163.492 146.058L162.443 146.24C162.193 146.11 161.95 145.967 161.715 145.811C161.137 145.491 160.652 145.026 160.304 144.462C160.05 143.89 159.926 143.268 159.943 142.642C159.751 137.408 160.741 132.079 159.687 126.967C159.308 125.125 158.55 123.446 158.008 121.686C157.513 120.06 158.62 119.092 159.92 118.164C160.149 117.993 160.393 117.841 160.648 117.713C160.729 117.748 160.807 117.789 160.881 117.836C161.443 118.21 161.907 118.715 162.233 119.309C163.568 121.48 164.063 124.056 164.396 126.586C165.252 133.053 165.194 139.737 163.492 146.058Z" fill="url(#paint3_linear_2469_86083)"/>
<path id="Vector_13" d="M148.235 136.457C147.162 139.092 146.096 141.739 145.023 144.374C144.845 144.939 144.531 145.451 144.108 145.864C143.426 146.451 142.447 146.404 141.561 146.351H141.159C141.008 146.27 140.866 146.173 140.734 146.064C140.24 145.643 139.888 145.078 139.728 144.447C139.567 143.816 139.605 143.151 139.836 142.543C140.122 141.958 140.482 141.413 140.909 140.923C143.45 137.642 144.837 133.634 146.189 129.702C146.916 130.549 147.47 131.532 147.821 132.595C148.196 133.845 148.337 135.155 148.235 136.457Z" fill="url(#paint4_linear_2469_86083)"/>
<path id="Vector_14" d="M146.923 60.6344C146.896 61.6936 146.481 62.7052 145.758 63.4749C144.685 64.449 143.059 64.3904 141.713 64.9361C141.543 64.9928 141.389 65.0894 141.264 65.2178C141.164 65.3363 141.095 65.4772 141.06 65.6286C140.888 66.3357 140.943 67.0796 141.218 67.7531C141.629 68.7612 142.254 69.6665 143.049 70.4055C143.845 71.1446 144.791 71.6995 145.822 72.0313C147.894 72.6848 150.09 72.8395 152.233 72.4832C152.943 72.4414 153.636 72.2409 154.261 71.8963C154.923 71.3884 155.45 70.723 155.793 69.9597C156.21 69.263 156.489 68.4918 156.615 67.6885C156.673 67.2842 156.624 66.8718 156.475 66.492C156.326 66.1122 156.081 65.7782 155.764 65.523C155.467 65.3413 155.15 65.1936 154.82 65.0829C154.301 64.8823 153.804 64.6307 153.334 64.3317C152.852 64.0831 152.477 63.6656 152.279 63.158C152.198 62.7293 152.216 62.2874 152.332 61.8669C152.597 60.4395 152.597 58.9749 152.332 57.5476C152.268 57.1246 152.138 56.7145 151.947 56.3328C151.767 56.0081 151.516 55.7289 151.213 55.5167C150.91 55.3045 150.563 55.1647 150.198 55.1081C149.833 55.0515 149.461 55.0795 149.108 55.1901C148.756 55.3006 148.433 55.4907 148.165 55.7459C146.789 57.0076 147.086 59.003 146.923 60.6344Z" fill="#F3BD8F"/>
<path id="Vector_15" d="M140.472 53.0463C140.393 54.0194 140.474 54.9988 140.711 55.9454C141.398 58.1931 143.759 59.6426 146.096 59.7365C146.862 59.797 147.631 59.6491 148.322 59.3081C148.717 59.0809 149.082 58.8027 149.406 58.4807C151.038 56.9783 152.541 55.1825 153.037 53.0111C153.206 52.1873 153.277 51.346 153.247 50.5052C153.267 49.267 153.054 48.0362 152.617 46.8784C152.181 45.8556 151.49 44.9636 150.611 44.289C149.732 43.6145 148.694 43.1803 147.599 43.0286C145.344 42.7411 143.228 43.8913 141.579 45.3174C140.751 46.0334 140.874 47.4418 140.769 48.5158C140.623 50.0123 140.524 51.5322 140.472 53.0463Z" fill="#F3BD8F"/>
<path id="Vector_16" d="M140.752 40.5285C140.122 41.6142 139.697 42.876 138.723 43.6565C138.321 43.9734 137.849 44.2023 137.476 44.5485C136.996 45.0581 136.717 45.7256 136.689 46.4272C136.661 47.1287 136.887 47.8166 137.325 48.3631C137.785 48.8915 138.381 49.2809 139.048 49.4882C139.715 49.6954 140.425 49.7122 141.101 49.5369C142.455 49.1563 143.612 48.268 144.336 47.0544C144.819 46.2915 145.251 45.3643 146.084 45.0826C146.454 44.9981 146.838 45.0024 147.205 45.0952C147.573 45.1879 147.914 45.3666 148.2 45.6166C148.812 46.0626 149.325 46.6495 149.948 47.0486C150.32 47.241 150.677 47.4627 151.015 47.7117C152.017 48.5861 151.866 50.1648 151.632 51.4794C152.052 51.6085 152.134 50.8514 152.501 50.6108C152.868 50.3702 153.293 50.7223 153.358 51.1155C153.379 51.513 153.266 51.906 153.037 52.2305C152.081 53.9148 150.951 55.5698 150.63 57.4771C150.565 57.7311 150.577 57.9989 150.665 58.2459C150.858 58.5395 151.153 58.7491 151.493 58.8327C152.076 59.087 152.705 59.2169 153.34 59.2142C153.658 59.209 153.97 59.1282 154.25 58.9782C154.531 58.8283 154.772 58.6135 154.954 58.3515C155.134 58.0115 155.243 57.638 155.275 57.2541C155.354 55.9814 155.526 54.7163 155.788 53.4688C156.493 51.0157 158.585 48.8796 158.276 46.3502C158.05 45.2069 157.574 44.1285 156.883 43.1929C156.48 42.4819 155.986 41.827 155.415 41.2445C154.853 40.76 154.234 40.3462 153.573 40.0121C152.208 39.1926 150.714 38.6149 149.156 38.3043C147.308 38.0226 145.659 38.6271 143.852 38.7151C142.43 38.7797 141.544 39.1259 140.752 40.5285Z" fill="#2E2E3F"/>
<path id="Vector_17" d="M161.89 119.819C160.845 120.551 159.65 121.034 158.393 121.234C151.691 122.73 144.744 122.718 138.047 121.198C136.648 120.876 135.092 120.359 134.486 119.045C134.215 118.323 134.113 117.547 134.189 116.779C134.348 109.526 134.508 102.27 134.667 95.0127C134.848 86.7673 135.028 78.4926 136.229 70.3352C136.583 68.6493 137.247 67.0449 138.187 65.6052C138.968 64.5312 142.506 65.1063 145.46 63.1814C146.271 62.6532 144.51 65.3821 147.156 66.5089C149.901 67.6826 152.984 62.1838 154.651 64.3904C155.59 65.6228 158.573 64.7073 159.518 65.9338C160.275 66.9197 160.742 69.0031 161.039 71.5148C161.668 76.8494 161.511 84.0913 161.622 86.7263C162.117 95.9458 161.348 107.707 164.372 115.318C165.066 116.973 163.253 118.734 161.89 119.819Z" fill="#6B56CA"/>
<path id="Vector_18" d="M161.89 119.819C160.845 120.551 159.649 121.034 158.393 121.234C156.719 121.607 155.026 121.887 153.322 122.073L152.844 122.008C154.092 117.9 154.15 113.581 154.115 109.309C154.115 106.961 154.045 104.584 153.998 102.225C153.969 100.735 153.917 99.1677 153.153 97.8942C152.39 96.6207 150.653 95.8108 149.383 96.5796C151.568 95.2533 153.357 89.6429 154.255 87.3424C155.546 84.0098 156.449 80.5379 156.947 76.9961C157.285 74.5665 157.157 70.2941 160.852 71.4444L161.056 71.5148C161.686 76.8494 161.528 84.0912 161.639 86.7262C162.134 95.9458 161.365 107.707 164.39 115.318C165.066 116.973 163.253 118.734 161.89 119.819Z" fill="url(#paint5_linear_2469_86083)"/>
<path id="Vector_19" d="M141.008 185.812C141.219 185.83 141.415 185.928 141.556 186.088C141.644 186.269 141.679 186.473 141.655 186.674C141.655 187.848 142.395 188.91 142.354 190.072C142.325 191.111 141.684 192.085 141.771 193.124C141.771 193.329 141.824 193.57 141.678 193.711C141.583 193.789 141.468 193.838 141.346 193.852C138.42 194.415 135.481 194.906 132.528 195.325C131.983 195.471 131.404 195.408 130.902 195.149C130.675 194.974 130.496 194.744 130.383 194.48C129.585 192.842 130.296 190.835 131.38 189.374C134.032 185.777 136.59 184.914 141.008 185.812Z" fill="#2E2E3F"/>
<path id="Vector_20" d="M177.835 185.354C177.629 186.29 177.101 187.121 176.343 187.701C174.467 189.447 172.321 190.874 169.991 191.927C169.521 192.192 168.982 192.307 168.446 192.256C168.04 192.137 167.683 191.887 167.431 191.545C167.18 191.202 167.047 190.786 167.053 190.36C167.082 189.508 167.301 188.674 167.694 187.919C168.819 185.301 169.6 181.463 172.601 180.424C175.224 179.538 178.115 182.748 177.835 185.354Z" fill="#2E2E3F"/>
<path id="Vector_21" d="M141.008 185.812C141.219 185.83 141.415 185.928 141.556 186.088C141.644 186.269 141.679 186.473 141.655 186.674C141.655 187.848 142.395 188.91 142.354 190.072C142.325 191.111 141.684 192.085 141.771 193.124C141.771 193.329 141.824 193.57 141.678 193.711C141.583 193.789 141.468 193.838 141.346 193.852C138.42 194.415 135.481 194.906 132.528 195.325C131.983 195.471 131.404 195.408 130.902 195.149C130.675 194.974 130.496 194.744 130.383 194.48C129.585 192.842 130.296 190.835 131.38 189.374C134.032 185.777 136.59 184.914 141.008 185.812Z" fill="url(#paint6_linear_2469_86083)"/>
<path id="Vector_22" d="M176.343 187.713C174.467 189.459 172.321 190.886 169.991 191.939C169.521 192.204 168.982 192.319 168.446 192.267" fill="url(#paint7_linear_2469_86083)"/>
<path id="Vector_23" d="M156.172 87.0431C156.273 87.7787 156.195 88.5278 155.945 89.2263C155.525 90.1946 154.552 90.7814 153.614 91.3038L132.942 103.082C131.974 103.634 130.937 104.256 130.523 105.3C129.614 107.648 132.464 109.755 134.941 109.942C137.534 110.136 140.087 109.356 142.546 108.493C150.316 105.795 157.819 102.377 164.961 98.2815C165.843 97.9514 166.583 97.3203 167.052 96.498C167.52 95.6757 167.688 94.7141 167.525 93.7803C167.546 88.0345 167.109 82.2962 166.22 76.6205C165.736 73.516 165.054 70.2707 162.974 67.9174C159.896 64.3962 154.278 64.2906 153.794 69.4491C153.258 75.3059 155.782 81.2802 156.172 87.0431Z" fill="#6B56CA"/>
<path id="Vector_24" d="M156.172 87.0431C156.273 87.7787 156.195 88.5278 155.945 89.2263C155.525 90.1946 154.552 90.7814 153.614 91.3038L132.942 103.082C131.974 103.634 130.937 104.256 130.523 105.3C129.614 107.648 132.464 109.755 134.941 109.942C137.534 110.136 140.087 109.356 142.546 108.493C150.316 105.795 157.819 102.377 164.961 98.2815C165.843 97.9514 166.583 97.3203 167.052 96.498C167.52 95.6757 167.688 94.7141 167.525 93.7803C167.546 88.0345 167.109 82.2962 166.22 76.6205C165.736 73.516 165.054 70.2707 162.974 67.9174C159.896 64.3962 154.278 64.2906 153.794 69.4491C153.258 75.3059 155.782 81.2802 156.172 87.0431Z" fill="url(#paint8_linear_2469_86083)"/>
<path id="Vector_25" d="M127.865 105.036C126.374 105.032 124.937 105.598 123.844 106.621C123.312 107.143 122.953 107.818 122.818 108.554C122.682 109.289 122.776 110.049 123.087 110.729C123.308 111.184 123.693 111.537 124.165 111.715C124.581 111.83 125.022 111.816 125.429 111.674C126.595 111.316 127.557 110.406 128.699 109.913C128.976 109.776 129.291 109.741 129.591 109.813C129.783 109.912 129.967 110.028 130.138 110.16C130.378 110.292 130.646 110.365 130.919 110.374C131.192 110.384 131.464 110.328 131.712 110.212C132.206 109.972 132.622 109.595 132.913 109.127C133.334 108.538 133.54 107.821 133.495 107.096C133.379 105.981 132.738 105.623 131.782 105.512C130.471 105.371 129.212 104.989 127.865 105.036Z" fill="#F3BD8F"/>
<path id="Vector_26" d="M108.662 101.415C108.111 102.096 107.733 102.902 107.561 103.763C107.469 104.17 107.483 104.595 107.601 104.995C107.77 105.385 108.05 105.715 108.406 105.943C108.763 106.171 109.179 106.286 109.6 106.275C110.446 106.239 111.267 105.982 111.984 105.529C113.316 104.756 114.588 103.883 115.79 102.918C116.039 102.747 116.261 102.539 116.448 102.302C116.672 101.935 116.764 101.502 116.71 101.075C116.656 100.648 116.459 100.253 116.151 99.9541C114.181 97.9646 110.142 99.5668 108.662 101.415Z" fill="#F3BD8F"/>
<path id="Vector_27" d="M89.9777 169.204H40.8591L21.7957 116.914H104.763L89.9777 169.204ZM42.8931 166.269H87.7689L100.899 119.837H25.9685L42.8931 166.269Z" fill="#6B56CA"/>
<path id="Vector_28" d="M109.361 169.204H60.2371L41.1794 116.914H125.569L109.361 169.204ZM62.2827 166.269H107.158L120.289 119.837H45.3814L62.2827 166.269Z" fill="#6B56CA"/>
<path id="Vector_29" d="M109.653 169.233H86.3877L96.8082 132.231L105.41 105.359L128.874 105.676L109.653 169.233ZM90.24 166.299H107.497L124.981 108.558L107.543 108.323L99.5823 133.082L90.24 166.299Z" fill="#6B56CA"/>
<path id="Vector_30" d="M109.606 183.846H52.655V180.912H106.692V167.748H109.606V183.846Z" fill="#6B56CA"/>
<path id="Vector_31" d="M90.543 183.846H44.1753V180.912H87.629V167.748H90.543V183.846Z" fill="#6B56CA"/>
<path id="Vector_32" d="M100.212 191.135C99.233 191.135 98.2764 190.842 97.4627 190.295C96.649 189.747 96.0148 188.969 95.6403 188.059C95.2658 187.148 95.1678 186.147 95.3587 185.18C95.5497 184.214 96.0209 183.326 96.7129 182.629C97.4049 181.932 98.2865 181.458 99.2464 181.265C100.206 181.073 101.201 181.172 102.105 181.549C103.009 181.926 103.782 182.565 104.326 183.384C104.869 184.203 105.16 185.167 105.16 186.152C105.16 187.474 104.638 188.741 103.71 189.675C102.783 190.61 101.524 191.135 100.212 191.135ZM100.212 184.092C99.8094 184.092 99.4161 184.212 99.0817 184.437C98.7472 184.663 98.4865 184.982 98.3325 185.357C98.1786 185.731 98.1383 186.143 98.2168 186.54C98.2953 186.937 98.489 187.302 98.7734 187.589C99.0579 187.875 99.4203 188.07 99.8149 188.149C100.209 188.228 100.618 188.188 100.99 188.033C101.362 187.878 101.679 187.615 101.903 187.278C102.126 186.942 102.246 186.546 102.246 186.14C102.243 185.599 102.027 185.081 101.646 184.7C101.265 184.318 100.749 184.104 100.212 184.104V184.092Z" fill="#2E2E3F"/>
<path id="Vector_33" d="M64.8647 191.135C63.9696 191.131 63.0922 190.883 62.3262 190.417C61.5602 189.951 60.9343 189.283 60.5154 188.487C60.0965 187.69 59.9004 186.794 59.9479 185.894C59.9954 184.994 60.2848 184.124 60.7851 183.376C61.2618 182.661 61.9147 182.082 62.6799 181.696C63.4451 181.311 64.2966 181.132 65.1511 181.177C66.0056 181.221 66.834 181.488 67.5554 181.952C68.2767 182.415 68.8664 183.059 69.2668 183.821C69.6672 184.582 69.8647 185.435 69.8399 186.296C69.8151 187.158 69.569 187.998 69.1255 188.735C68.682 189.472 68.0563 190.08 67.3095 190.501C66.5627 190.921 65.7204 191.14 64.8647 191.135ZM63.1804 185.014C62.9558 185.35 62.8352 185.746 62.834 186.151C62.8328 186.556 62.951 186.952 63.1736 187.29C63.3962 187.628 63.7132 187.891 64.0846 188.047C64.4559 188.203 64.8649 188.245 65.2597 188.167C65.6546 188.089 66.0176 187.894 66.3028 187.609C66.588 187.323 66.7826 186.958 66.862 186.561C66.9414 186.164 66.902 185.752 66.7487 185.377C66.5955 185.002 66.3353 184.682 66.0012 184.456C65.5531 184.155 65.0051 184.045 64.4767 184.15C63.9483 184.254 63.4823 184.565 63.1804 185.014Z" fill="#2E2E3F"/>
<path id="Vector_34" d="M120.429 127.396H28.3171V129.608H120.429V127.396Z" fill="#6B56CA"/>
<path id="Vector_35" d="M118.022 134.831H30.2871V137.044H118.022V134.831Z" fill="#6B56CA"/>
<path id="Vector_36" d="M115.615 142.267H33.1311V144.479H115.615V142.267Z" fill="#6B56CA"/>
<path id="Vector_37" d="M113.208 149.702H35.9751V151.915H113.208V149.702Z" fill="#6B56CA"/>
<path id="Vector_38" d="M110.801 157.138H38.8193V159.35H110.801V157.138Z" fill="#6B56CA"/>
<path id="Vector_39" d="M34.1579 117.773L32.0938 118.531L49.8122 167.445L51.8764 166.687L34.1579 117.773Z" fill="#6B56CA"/>
<path id="Vector_40" d="M59.7815 117.836L57.6738 118.461L71.7857 166.711L73.8934 166.086L59.7815 117.836Z" fill="#6B56CA"/>
<path id="Vector_41" d="M81.3251 117.452L79.1292 117.526L80.7684 166.766L82.9643 166.691L81.3251 117.452Z" fill="#6B56CA"/>
<path id="Vector_42" d="M106.575 118.808L91.8157 167.058L93.9155 167.71L108.675 119.459L106.575 118.808Z" fill="#6B56CA"/>
</g>
<defs>
<linearGradient id="paint0_linear_2469_86083" x1="115.901" y1="169.063" x2="114.24" y2="226.891" gradientUnits="userSpaceOnUse">
<stop offset="0.01"/>
<stop offset="0.13" stop-opacity="0.69"/>
<stop offset="1" stop-opacity="0"/>
</linearGradient>
<linearGradient id="paint1_linear_2469_86083" x1="134.766" y1="97.4482" x2="129.796" y2="89.051" gradientUnits="userSpaceOnUse">
<stop offset="0.01"/>
<stop offset="0.13" stop-opacity="0.69"/>
<stop offset="1" stop-opacity="0"/>
</linearGradient>
<linearGradient id="paint2_linear_2469_86083" x1="156.056" y1="117.272" x2="141.671" y2="148.7" gradientUnits="userSpaceOnUse">
<stop offset="0.01"/>
<stop offset="0.13" stop-opacity="0.69"/>
<stop offset="1" stop-opacity="0"/>
</linearGradient>
<linearGradient id="paint3_linear_2469_86083" x1="157.886" y1="131.961" x2="164.938" y2="131.961" gradientUnits="userSpaceOnUse">
<stop offset="0.01"/>
<stop offset="0.13" stop-opacity="0.69"/>
<stop offset="1" stop-opacity="0"/>
</linearGradient>
<linearGradient id="paint4_linear_2469_86083" x1="140.938" y1="135.588" x2="155.151" y2="148.143" gradientUnits="userSpaceOnUse">
<stop offset="0.01"/>
<stop offset="0.13" stop-opacity="0.69"/>
<stop offset="1" stop-opacity="0"/>
</linearGradient>
<linearGradient id="paint5_linear_2469_86083" x1="186.973" y1="98.3872" x2="120.828" y2="94.6886" gradientUnits="userSpaceOnUse">
<stop offset="0.01"/>
<stop offset="0.13" stop-opacity="0.69"/>
<stop offset="1" stop-opacity="0"/>
</linearGradient>
<linearGradient id="paint6_linear_2469_86083" x1="130.039" y1="190.424" x2="142.36" y2="190.424" gradientUnits="userSpaceOnUse">
<stop offset="0.01"/>
<stop offset="0.13" stop-opacity="0.69"/>
<stop offset="1" stop-opacity="0"/>
</linearGradient>
<linearGradient id="paint7_linear_2469_86083" x1="168.446" y1="190.002" x2="176.343" y2="190.002" gradientUnits="userSpaceOnUse">
<stop offset="0.01"/>
<stop offset="0.13" stop-opacity="0.69"/>
<stop offset="1" stop-opacity="0"/>
</linearGradient>
<linearGradient id="paint8_linear_2469_86083" x1="157.996" y1="109.127" x2="147.544" y2="89.0272" gradientUnits="userSpaceOnUse">
<stop offset="0.01"/>
<stop offset="0.13" stop-opacity="0.69"/>
<stop offset="1" stop-opacity="0"/>
</linearGradient>
<clipPath id="clip0_2469_86083">
<rect width="224" height="226" fill="white" transform="translate(0.5)"/>
</clipPath>
</defs>
</svg>
