<svg width="101" height="85" viewBox="0 0 101 85" fill="none" xmlns="http://www.w3.org/2000/svg">
<g id="_&#229;&#156;&#150;&#229;&#177;&#164;_1" clip-path="url(#clip0_1790_98411)">
<g id="Group">
<g id="Vector">
<path d="M15.9863 28.4058C15.9863 28.4058 22.1535 20.1388 23.1982 18.4562C24.2429 16.7736 24.1838 14.7451 23.1982 13.9316C22.2126 13.1182 19.999 11 15.9863 14.9999" fill="#FFEAE1"/>
<path d="M15.9863 28.4058C15.9863 28.4058 22.1535 20.1388 23.1982 18.4562C24.2429 16.7736 24.1838 14.7451 23.1982 13.9316C22.2126 13.1182 19.999 11 15.9863 14.9999" stroke="#FEBEA3" stroke-width="1.04293" stroke-miterlimit="10"/>
</g>
<g id="Vector_2">
<path d="M18.5512 44.0829C18.5512 44.0829 15.4276 37.7714 15.6588 32.8418C15.89 27.9122 17.1085 17.9365 17.3988 16.1375C17.689 14.3384 17.5726 11.2652 15.1947 10.7438C12.8168 10.2223 7.5 14 2.5 29" fill="#FFEAE1"/>
<path d="M18.5512 44.0829C18.5512 44.0829 15.4276 37.7714 15.6588 32.8418C15.89 27.9122 17.1085 17.9365 17.3988 16.1375C17.689 14.3384 17.5726 11.2652 15.1947 10.7438C12.8168 10.2223 7.5 14 2.5 29" stroke="#FEBEA3" stroke-width="1.04293" stroke-miterlimit="10"/>
</g>
<g id="Vector_3">
<path d="M44.8311 73.1808C44.8311 73.1808 45.7019 55.1728 41.9265 49.1689C38.1511 43.1651 26.8231 34.6461 24.5947 32.8053C22.3663 30.9645 19.5608 30.8689 19.8511 32.8053C20.1413 34.7417 22.1751 38.6145 25.177 41.2287C28.1789 43.843 33.2128 48.491 26.9204 47.8131C20.628 47.1352 14.3339 41.4234 12.6878 35.9046C11.0417 30.3857 9.3435 18.0287 9.29831 15.0876C9.27745 13.6675 8.60649 11.1053 6.1556 11.0271C4.42085 10.9715 2.46187 12.4733 1.82221 17.6828C0.666289 27.1022 0.768844 35.4213 2.08468 40.1858C3.56738 45.5552 10.9479 55.6491 15.5907 59.6244C22.1455 65.2354 22.7991 73.179 22.7991 73.179" fill="#FFEAE1"/>
<path d="M44.8311 73.1808C44.8311 73.1808 45.7019 55.1728 41.9265 49.169C38.1511 43.1651 26.8231 34.6461 24.5947 32.8053C22.3663 30.9645 19.5608 30.8689 19.8511 32.8053C20.1413 34.7417 22.1751 38.6145 25.177 41.2287C28.1789 43.843 33.2128 48.491 26.9204 47.8131C20.628 47.1352 14.3339 41.4234 12.6878 35.9046C11.0417 30.3857 9.3435 18.0287 9.29831 15.0876C9.27745 13.6675 8.60649 11.1053 6.1556 11.0271C4.42085 10.9715 2.46187 12.4733 1.82221 17.6828C0.666289 27.1022 0.768844 35.4213 2.08468 40.1858C3.56738 45.5552 10.9479 55.649 15.5907 59.6244C22.1455 65.2354 22.7991 73.179 22.7991 73.179" stroke="#FEBEA3" stroke-width="1.04293" stroke-miterlimit="10"/>
</g>
<path id="Vector_4" d="M46.4448 73.6936H20.7747C19.9164 73.6936 19.2207 74.3893 19.2207 75.2476V82.8766C19.2207 83.7349 19.9164 84.4306 20.7747 84.4306H46.4448C47.303 84.4306 47.9987 83.7349 47.9987 82.8766V75.2476C47.9987 74.3893 47.303 73.6936 46.4448 73.6936Z" fill="#FFD6C5" stroke="#FEBEA3" stroke-width="1.04293" stroke-miterlimit="10"/>
</g>
<g id="Group_2">
<g id="Vector_5">
<path d="M84.5195 28.7081C84.5195 28.7081 78.3462 20.4411 77.3005 18.7585C76.2548 17.0759 76.3139 15.0474 77.3005 14.2339C78.287 13.4204 80.5029 11.3022 84.5195 15.3022" fill="#FFEAE1"/>
<path d="M84.5195 28.7081C84.5195 28.7081 78.3462 20.4411 77.3005 18.7585C76.2548 17.0759 76.3139 15.0474 77.3005 14.2339C78.287 13.4204 80.5029 11.3022 84.5195 15.3022" stroke="#FEBEA3" stroke-width="1.04293" stroke-miterlimit="10"/>
</g>
<g id="Vector_6">
<path d="M81.9524 44.3851C81.9524 44.3851 85.0791 38.0736 84.8477 33.144C84.6163 28.2144 83.3965 18.2388 83.106 16.4397C82.8154 14.6406 82.932 11.5675 85.3122 11.046C87.6925 10.5245 93.0146 14.3022 98.0195 29.3022" fill="#FFEAE1"/>
<path d="M81.9524 44.3851C81.9524 44.3851 85.0791 38.0736 84.8477 33.144C84.6163 28.2144 83.3965 18.2388 83.106 16.4397C82.8154 14.6406 82.932 11.5675 85.3122 11.046C87.6925 10.5245 93.0146 14.3022 98.0195 29.3022" stroke="#FEBEA3" stroke-width="1.04293" stroke-miterlimit="10"/>
</g>
<g id="Vector_7">
<path d="M55.6469 73.483C55.6469 73.483 54.7752 55.475 58.5544 49.4712C62.3335 43.4674 73.6728 34.9483 75.9034 33.1076C78.134 31.2668 80.9423 31.1712 80.6517 33.1076C80.3611 35.0439 78.3254 38.9167 75.3205 41.531C72.3156 44.1453 67.2767 48.7933 73.5753 48.1154C79.874 47.4375 86.1743 41.7257 87.8221 36.2068C89.4698 30.688 91.1697 18.3309 91.215 15.3899C91.2358 13.9697 91.9075 11.4076 94.3608 11.3294C96.0973 11.2737 98.0582 12.7756 98.6985 17.985C99.8555 27.4045 99.7529 35.7236 98.4357 40.4881C96.9516 45.8574 89.5637 55.9513 84.9163 59.9266C78.355 65.5376 77.7008 73.4813 77.7008 73.4813" fill="#FFEAE1"/>
<path d="M55.6469 73.483C55.6469 73.483 54.7752 55.475 58.5544 49.4712C62.3335 43.4674 73.6728 34.9483 75.9034 33.1076C78.134 31.2668 80.9423 31.1712 80.6517 33.1076C80.3611 35.0439 78.3254 38.9167 75.3205 41.531C72.3156 44.1453 67.2767 48.7933 73.5753 48.1154C79.874 47.4375 86.1743 41.7257 87.8221 36.2068C89.4698 30.688 91.1697 18.3309 91.215 15.3898C91.2358 13.9697 91.9075 11.4076 94.3608 11.3294C96.0973 11.2737 98.0582 12.7756 98.6985 17.985C99.8555 27.4045 99.7529 35.7236 98.4357 40.4881C96.9516 45.8574 89.5637 55.9513 84.9163 59.9266C78.355 65.5376 77.7008 73.4813 77.7008 73.4813" stroke="#FEBEA3" stroke-width="1.04293" stroke-miterlimit="10"/>
</g>
<path id="Vector_8" d="M54.0321 73.9958H79.7277C80.5868 73.9958 81.2832 74.6916 81.2832 75.5498V83.1789C81.2832 84.0371 80.5868 84.7329 79.7277 84.7329H54.0321C53.173 84.7329 52.4766 84.0371 52.4766 83.1789V75.5498C52.4766 74.6916 53.173 73.9958 54.0321 73.9958Z" fill="#FFD6C5" stroke="#FEBEA3" stroke-width="1.04293" stroke-miterlimit="10"/>
</g>
<path id="Vector_9" d="M44.7047 7.35775L50.2219 9.07338C50.9884 9.31152 51.1501 10.3266 50.493 10.7907L45.7755 14.1264C45.5148 14.3106 45.3618 14.6114 45.3653 14.9295L45.4383 20.7073C45.4487 21.5104 44.5327 21.9762 43.8895 21.4965L39.2589 18.0409C39.0034 17.8497 38.6696 17.7975 38.3689 17.9001L32.897 19.7548C32.1357 20.012 31.4108 19.2872 31.6681 18.5258L33.5228 13.0539C33.6253 12.7515 33.5732 12.4195 33.382 12.1639L29.9264 7.53331C29.4466 6.89017 29.9125 5.97413 30.7155 5.98456L36.4934 6.05756C36.8115 6.06104 37.1122 5.90807 37.2964 5.64734L40.6321 0.929801C41.0962 0.274491 42.1096 0.434408 42.3495 1.20096L44.0651 6.71809C44.1589 7.02228 44.3988 7.26041 44.703 7.35601L44.7047 7.35775Z" fill="#FFEAE1"/>
<path id="Vector_10" d="M49.2896 33.5041L52.5957 34.5314C53.0546 34.6739 53.1519 35.2823 52.7591 35.5604L49.9328 37.5594C49.7763 37.6689 49.6842 37.8497 49.6877 38.0409L49.7311 41.5017C49.7381 41.9831 49.1888 42.2613 48.8029 41.9745L46.0287 39.9042C45.8757 39.7895 45.6758 39.7582 45.4951 39.8191L42.2168 40.9298C41.7614 41.0845 41.3268 40.6499 41.4798 40.1928L42.5905 36.9145C42.6513 36.7337 42.62 36.5338 42.5053 36.3809L40.4351 33.6066C40.1466 33.2208 40.4264 32.6732 40.9079 32.6784L44.3687 32.7219C44.5599 32.7236 44.7389 32.6332 44.8502 32.4768L46.8491 29.6505C47.1273 29.2576 47.7339 29.3532 47.8782 29.8138L48.9055 33.1199C48.9628 33.3025 49.1054 33.445 49.2879 33.5024L49.2896 33.5041Z" fill="#FFD6C5"/>
<path id="Vector_11" d="M68.6686 18.0619L72.6666 18.5138C73.2228 18.5764 73.4644 19.2491 73.0768 19.6524L70.2852 22.55C70.1305 22.7099 70.0662 22.9359 70.1096 23.1531L70.9144 27.0954C71.0257 27.643 70.4608 28.081 69.9584 27.8377L66.3412 26.0786C66.1413 25.9812 65.9066 25.9882 65.7137 26.0977L62.2129 28.081C61.7262 28.3574 61.1352 27.9541 61.2117 27.4014L61.7662 23.4174C61.7974 23.1966 61.7175 22.9759 61.5541 22.8264L58.5869 20.1113C58.175 19.7341 58.3731 19.0475 58.9242 18.9484L62.8856 18.2444C63.1046 18.2062 63.2906 18.0619 63.381 17.8603L65.0462 14.1978C65.2774 13.6885 65.9918 13.6659 66.256 14.1596L68.1489 17.709C68.2532 17.9055 68.4479 18.0376 68.6686 18.0619Z" fill="#FEBEA3"/>
</g>
<defs>
<clipPath id="clip0_1790_98411">
<rect width="100" height="84.9522" fill="white" transform="translate(0.5)"/>
</clipPath>
</defs>
</svg>
