<svg width="65" height="72" viewBox="0 0 65 72" fill="none" xmlns="http://www.w3.org/2000/svg">
<g id="_&#229;&#156;&#150;&#229;&#177;&#164;_1" clip-path="url(#clip0_1290_97399)">
<path id="Vector" d="M48.0276 0.59375H5.62141C2.97469 0.59375 0.829102 2.73934 0.829102 5.38606V66.6136C0.829102 69.2603 2.97469 71.4059 5.62141 71.4059H48.0276C50.6743 71.4059 52.8199 69.2603 52.8199 66.6136V5.38606C52.8199 2.73934 50.6743 0.59375 48.0276 0.59375Z" fill="#FFEAE1"/>
<path id="Vector_2" d="M12.3852 8.37891H8.01547C7.79335 8.37891 7.61328 8.55897 7.61328 8.78109V13.1508C7.61328 13.373 7.79335 13.553 8.01547 13.553H12.3852C12.6073 13.553 12.7874 13.373 12.7874 13.1508V8.78109C12.7874 8.55897 12.6073 8.37891 12.3852 8.37891Z" fill="#FEBEA3"/>
<path id="Vector_3" d="M12.3852 39.8496H8.01547C7.79335 39.8496 7.61328 40.0297 7.61328 40.2518V44.6216C7.61328 44.8437 7.79335 45.0237 8.01547 45.0237H12.3852C12.6073 45.0237 12.7874 44.8437 12.7874 44.6216V40.2518C12.7874 40.0297 12.6073 39.8496 12.3852 39.8496Z" fill="#FEBEA3"/>
<path id="Vector_4" d="M12.3852 28.9922H8.01547C7.79335 28.9922 7.61328 29.1723 7.61328 29.3944V33.7641C7.61328 33.9863 7.79335 34.1663 8.01547 34.1663H12.3852C12.6073 34.1663 12.7874 33.9863 12.7874 33.7641V29.3944C12.7874 29.1723 12.6073 28.9922 12.3852 28.9922Z" fill="#FEBEA3"/>
<path id="Vector_5" d="M12.3852 18.8047H8.01547C7.79335 18.8047 7.61328 18.9848 7.61328 19.2069V23.5766C7.61328 23.7988 7.79335 23.9788 8.01547 23.9788H12.3852C12.6073 23.9788 12.7874 23.7988 12.7874 23.5766V19.2069C12.7874 18.9848 12.6073 18.8047 12.3852 18.8047Z" fill="#FEBEA3"/>
<path id="Vector_6" d="M12.3852 60.5605H8.01547C7.79335 60.5605 7.61328 60.7406 7.61328 60.9627V65.3325C7.61328 65.5546 7.79335 65.7347 8.01547 65.7347H12.3852C12.6073 65.7347 12.7874 65.5546 12.7874 65.3325V60.9627C12.7874 60.7406 12.6073 60.5605 12.3852 60.5605Z" fill="#FEBEA3"/>
<path id="Vector_7" d="M12.3852 50.373H8.01547C7.79335 50.373 7.61328 50.5531 7.61328 50.7752V55.145C7.61328 55.3671 7.79335 55.5472 8.01547 55.5472H12.3852C12.6073 55.5472 12.7874 55.3671 12.7874 55.145V50.7752C12.7874 50.5531 12.6073 50.373 12.3852 50.373Z" fill="#FEBEA3"/>
<path id="Vector_8" d="M18.8198 10.8691H44.6056" stroke="#FEBEA3" stroke-width="1.4976" stroke-linecap="round" stroke-linejoin="round"/>
<path id="Vector_9" d="M18.8198 53.791H41.7326" stroke="#FEBEA3" stroke-width="1.4976" stroke-linecap="round" stroke-linejoin="round"/>
<path id="Vector_10" d="M18.8198 63.4824H44.6056" stroke="#FEBEA3" stroke-width="1.4976" stroke-linecap="round" stroke-linejoin="round"/>
<g id="Vector_11">
<path d="M48.3224 38.5273L62.3022 51.7435C64.7476 54.0548 64.8019 57.9274 62.4227 60.3065C60.0435 62.6857 56.171 62.6314 53.8597 60.1861L40.8403 46.415" fill="#FFD6C5"/>
<path d="M48.3224 38.5273L62.3022 51.7435C64.7476 54.0548 64.8019 57.9274 62.4227 60.3065C60.0435 62.6857 56.171 62.6314 53.8597 60.1861L40.8403 46.415" stroke="#FEBEA3" stroke-width="1.4976" stroke-linecap="round" stroke-linejoin="round"/>
</g>
<path id="Vector_12" d="M49.5987 31.2275C49.5987 34.0327 48.9232 36.6817 47.7252 39.0184C44.8912 44.5455 39.1367 48.3281 32.4981 48.3281C23.0543 48.3281 15.3975 40.6713 15.3975 31.2275C15.3975 21.7838 23.0543 14.127 32.4981 14.127C41.9418 14.127 49.5987 21.7838 49.5987 31.2275Z" fill="#FFD6C5" stroke="#FEBEA3" stroke-width="1.4976" stroke-linecap="round" stroke-linejoin="round"/>
<path id="Vector_13" d="M45.4598 31.6801C45.4598 33.7469 44.9621 35.6988 44.0794 37.4205C41.9912 41.493 37.7512 44.2801 32.8598 44.2801C25.9014 44.2801 20.2598 38.6384 20.2598 31.6801C20.2598 24.7218 25.9014 19.0801 32.8598 19.0801C39.8181 19.0801 45.4598 24.7218 45.4598 31.6801Z" fill="#FEF6F2"/>
<path id="Vector_14" d="M26.3589 32.1609L31.795 36.5615L38.5222 28.4414" stroke="#FFD6C5" stroke-width="1.4976" stroke-linecap="round" stroke-linejoin="round"/>
</g>
<defs>
<clipPath id="clip0_1290_97399">
<rect width="64.5298" height="72" fill="white" transform="translate(0.234863)"/>
</clipPath>
</defs>
</svg>
