<svg width="269" height="493" viewBox="0 0 269 493" fill="none" xmlns="http://www.w3.org/2000/svg">
<g opacity="0.1" clip-path="url(#clip0_1818_90571)">
<path d="M354.085 367.142C324.451 355.006 299.749 333.403 284.371 306.8C276.121 292.53 270.881 276.994 268.44 260.926C265.543 241.884 266.422 222.461 268.554 203.404C272.899 164.482 283.085 125.758 279.896 86.3938C278.594 70.4163 274.9 54.5914 268.196 39.8184C261.784 25.6857 252.313 11.8274 239.523 2.0245C236.659 -0.17087 232.46 -0.155624 229.921 2.52761C228.652 3.85397 227.952 5.71394 227.123 7.29948C226.26 8.94601 225.381 10.5773 224.535 12.2238C222.143 16.767 219.8 21.3407 217.538 25.9449C215.146 30.8082 212.835 35.7021 210.492 40.5807C209.564 42.5321 208.62 44.4683 207.693 46.4197C207.09 46.0843 206.488 45.7489 205.886 45.4288C200.89 42.776 195.537 40.413 189.825 39.544C179.54 37.9737 168.784 39.2086 158.743 41.5869C145.302 44.758 132.462 50.4293 121.234 58.0369C114.643 62.5039 108.557 67.5959 103.138 73.2673C100.323 76.2097 97.8823 79.457 95.0019 82.3384C92.2355 85.0826 89.1274 87.5067 85.7589 89.5801C79.0869 93.6812 71.5851 96.4559 63.8066 98.0414C59.8034 98.8647 55.7352 99.3373 51.6506 99.5202C47.7777 99.6879 43.7094 99.0476 40.2433 101.03C37.0049 102.89 35.101 106.167 35.1823 109.72C35.2637 113.622 35.8821 117.571 36.5981 121.413C37.7535 127.633 39.6249 133.686 42.0496 139.555C34.8894 141.735 27.7293 143.915 20.5692 146.111C17.5912 147.01 18.8605 151.432 21.871 150.517C29.2264 148.276 36.5818 146.035 43.9372 143.794C45.9551 148.093 48.3472 152.255 51.016 156.249C44.6532 159.344 38.4369 162.652 32.3834 166.25C29.7309 167.821 32.1881 171.784 34.8406 170.199C40.9755 166.555 47.2732 163.201 53.7173 160.091C59.3478 167.683 66.1011 174.544 73.847 180.246C80.34 185.018 88.151 188.631 93.5211 194.622C98.6634 200.37 101.609 208.908 101.007 216.363C100.698 220.266 98.8749 223.238 96.792 226.516C94.6277 229.931 92.6424 233.438 90.8035 237.005C86.7841 244.78 83.3342 252.845 80.3237 261.017C77.2806 269.28 74.6932 277.681 72.5615 286.188C72.5452 286.264 72.5452 286.34 72.5289 286.416C65.7593 285.486 58.8596 285.974 52.2527 288.551C39.869 293.399 31.5697 304.269 27.4527 316.008C27.1598 316.099 26.8668 316.237 26.5902 316.465C16.5986 324.332 8.36442 334.166 2.68514 345.188C0.553371 349.35 -2.42459 356.409 3.75916 358.97C6.57439 360.129 9.7639 359.245 12.6279 358.726C16.4684 358.025 20.3251 357.308 24.1655 356.607C24.4584 362.538 24.8327 368.468 25.1582 374.399C25.6138 382.723 25.8416 391.093 26.6716 399.386C27.355 406.171 28.543 412.985 31.407 419.297C33.5062 423.901 36.8585 428.78 41.3824 431.829C41.6753 435 43.1073 438.217 45.1252 440.702C49.2585 445.779 54.8727 449.941 60.4055 453.6C65.9546 457.274 71.878 460.415 77.9967 463.143C103.887 474.7 133.471 480.112 162.079 479.883C168.344 479.837 174.593 479.456 180.793 478.694C184.715 480.417 188.718 481.941 192.835 483.237C209.076 488.375 226.26 490.403 243.298 491.378C251.809 491.866 260.336 492.08 268.863 492.247C274.884 492.369 282.662 492.247 286.975 487.597C292.996 481.103 285.868 474.059 281.214 469.227C274.754 462.518 268.261 455.841 261.719 449.194C248.652 435.9 235.454 422.712 222.127 409.647C195.472 383.516 168.296 357.842 140.599 332.671C133.764 326.467 126.913 320.277 120.014 314.133C113.586 308.4 107.174 302.638 100.014 297.698C93.3096 293.063 85.4497 289.191 77.2318 287.255C81.3977 270.698 87.1421 254.309 95.0996 239.002C96.8896 235.557 98.8098 232.157 100.909 228.849C144.553 228.117 188.067 221.394 229.629 208.908C241.394 205.371 252.997 201.361 264.42 196.924C260.287 229.809 259.538 264.005 273.126 295.152C284.875 322.106 305.591 345.447 331.774 361.135C338.088 364.916 344.728 368.24 351.595 371.045C354.443 372.219 356.932 368.27 354.052 367.096L354.085 367.142ZM22.8799 352.186C19.7881 352.75 16.6962 353.314 13.6043 353.893C12.0584 354.183 10.5125 354.473 8.96652 354.747C7.99014 354.915 6.59066 355.281 5.64682 354.823C3.90561 353.954 5.15863 351.027 5.69564 349.808C6.72084 347.475 8.02269 345.219 9.32453 343.008C13.6043 335.827 19.0232 329.348 25.3209 323.661C23.7587 331.376 23.4983 339.303 23.7261 347.14C23.775 348.832 23.8401 350.509 23.9214 352.201C23.6122 352.14 23.2542 352.125 22.8962 352.201L22.8799 352.186ZM284.306 482.627C283.883 484.975 281.409 486.18 279.212 486.805C276.283 487.658 273.257 487.78 270.23 487.719C266.275 487.643 262.321 487.552 258.35 487.445C242.517 486.988 226.586 486.103 211.045 483.085C195.878 480.158 181.119 475.142 168.296 466.879C156.612 459.332 146.799 449.27 139.623 437.836C124.358 413.519 121.999 383.058 133.618 356.988C136.091 351.439 139.248 346.164 142.893 341.209C146.994 344.959 151.079 348.71 155.163 352.476C155.049 352.658 154.968 352.857 154.903 353.101C149.24 376.533 155.651 401.292 169.63 421.157C184.276 441.983 206.846 456.496 231.695 464.82C246.016 469.623 261.052 472.337 276.202 473.419C277.016 473.48 277.618 473.206 278.008 472.779C278.366 473.145 278.724 473.51 279.066 473.876C281.263 476.163 284.924 479.212 284.322 482.643L284.306 482.627ZM206.195 400.758C229.189 423.032 251.776 445.687 273.989 468.647C249.221 466.604 224.6 459.759 203.82 446.754C183.202 433.872 167.417 414.647 160.826 392.145C157.409 380.451 156.693 368.133 159.199 356.241C175.033 370.923 190.704 385.757 206.195 400.774V400.758ZM111.454 312.867C117.817 318.463 124.098 324.149 130.396 329.821C133.39 332.519 136.352 335.248 139.33 337.962C120.713 362.797 116.287 395.865 127.45 424.359C132.739 437.851 141.234 450.215 152.185 460.293C158.418 466.04 165.432 470.873 172.95 474.883C149.696 476.636 125.758 473.648 103.545 467.412C91.129 463.936 79.0218 459.256 67.9887 452.837C62.8953 449.865 58.0622 446.526 53.701 442.669C51.4391 440.671 48.2333 437.577 46.7525 434.299C51.8622 435.549 58.4853 434.588 59.12 428.734C59.836 422.072 50.4627 418.794 45.3693 422.529C43.8396 423.657 42.7818 425.014 42.1309 426.493C40.1293 424.633 38.502 422.377 37.2816 420.303C30.3981 408.564 31.049 393.745 30.333 380.771C29.8773 372.295 29.4054 363.834 28.9498 355.357C28.5104 347.14 28.2012 338.876 29.1125 330.674C30.5771 317.456 36.1587 303.385 48.3635 295.64C62.0003 286.996 79.1358 290.578 92.2681 298.277C99.2818 302.394 105.465 307.562 111.47 312.852L111.454 312.867ZM46.1666 429.313C46.4433 428.383 46.9315 427.469 47.7777 426.615C49.4538 424.907 52.985 425.029 54.059 427.393C55.068 429.618 52.1226 430.381 50.3813 430.335C48.8842 430.289 47.4685 429.923 46.1666 429.313ZM84.5384 181.877C77.8827 177.639 71.6827 173.019 66.1987 167.485C63.2533 164.512 60.552 161.341 58.0459 158.018C69.4859 152.743 81.3489 148.291 93.5699 144.739C96.5642 143.87 95.2786 139.449 92.2681 140.333C79.5589 144.022 67.1914 148.672 55.2795 154.191C52.7247 150.41 50.4953 146.446 48.5588 142.376C63.3184 137.878 78.078 133.381 92.8376 128.868C95.8156 127.969 94.5463 123.547 91.5358 124.462C76.5809 129.02 61.6097 133.579 46.6548 138.153C45.3367 134.997 44.1813 131.78 43.2375 128.517C42.1797 124.828 41.3335 121.093 40.7803 117.312C40.5199 115.574 40.3246 113.836 40.1944 112.083C40.048 110.345 39.7551 108.576 40.6664 106.991C42.554 103.682 46.427 104.231 49.7955 104.17C53.701 104.094 57.5903 103.728 61.447 103.133C76.5972 100.77 91.5033 93.9708 101.218 82.5976C110.868 71.2853 122.194 61.7721 135.847 54.8658C146.62 49.4079 158.516 45.5812 170.688 44.0872C179.117 43.0505 187.986 42.8828 195.911 45.9624C199.247 47.2583 202.55 48.7981 205.675 50.6275C205.463 51.0697 205.252 51.527 205.024 51.9691C203.608 54.9268 202.436 57.8844 202.746 61.1775C203.331 67.3367 209.889 73.5112 216.919 71.8342C220.467 70.9957 223.054 68.0685 223.477 64.6992C223.803 62.0922 222.713 59.6834 221.15 57.5795C218.644 54.2255 215.357 51.3898 211.761 48.981C213.925 44.4531 216.089 39.9404 218.254 35.4124C222.81 25.9296 227.627 16.5688 232.574 7.25375C233.176 6.11033 233.827 4.61625 235.519 5.05838C237.033 5.45476 238.676 7.45194 239.799 8.45815C242.761 11.1109 245.527 13.9313 248.098 16.9195C253.143 22.7433 257.374 29.1922 260.905 35.9003C268.131 49.6213 272.443 64.7602 274.331 79.9296C278.741 115.498 271.027 150.959 265.901 186.115C225.821 199.836 183.592 207.856 140.973 209.746C129.159 210.264 117.312 210.31 105.498 209.899C104.847 205.675 103.35 201.529 101.316 197.732C97.5568 190.72 91.308 186.207 84.5221 181.877H84.5384ZM209.727 53.2498C211.5 54.5304 213.193 55.9025 214.723 57.4118C216.073 58.7534 217.619 60.4915 218.303 62.0465C219.393 64.5163 217.57 67.9923 214.169 67.4282C211.191 66.9403 208.636 64.9432 207.872 62.199C207.09 59.4395 208.051 56.7868 209.255 54.2712C209.417 53.9358 209.58 53.6004 209.743 53.265L209.727 53.2498ZM263.216 192.534C223.038 208.161 180.403 218.299 137.1 222.339C125.986 223.376 114.839 223.985 103.659 224.245C104.457 222.659 105.107 221.028 105.449 219.198C105.742 217.628 105.856 216.042 105.872 214.457C148.784 215.89 191.924 211.225 233.355 200.629C244.112 197.885 254.722 194.714 265.201 191.177C265.185 191.299 265.169 191.421 265.153 191.543C265.104 191.878 265.055 192.229 265.022 192.579C264.55 192.32 263.932 192.259 263.232 192.534H263.216Z" fill="#FFEAE1"/>
<path d="M141.852 112.83C145.871 112.83 149.126 109.781 149.126 106.015C149.126 102.249 145.871 99.2003 141.852 99.2003C137.833 99.2003 134.578 102.249 134.578 106.015C134.578 109.781 137.833 112.83 141.852 112.83Z" fill="#FFEAE1"/>
<path d="M59.0712 325.461C59.0712 329.226 62.3258 332.275 66.3452 332.275C70.3646 332.275 73.6192 329.226 73.6192 325.461C73.6192 321.695 70.3646 318.646 66.3452 318.646C62.3258 318.646 59.0712 321.695 59.0712 325.461Z" fill="#FFEAE1"/>
</g>
<defs>
<clipPath id="clip0_1818_90571">
<rect width="356" height="493" fill="white"/>
</clipPath>
</defs>
</svg>
