<svg width="268" height="566" viewBox="0 0 268 566" fill="none" xmlns="http://www.w3.org/2000/svg">
<g opacity="0.1">
<path d="M263.385 62.3048C260.252 56.5394 255.283 52.2122 249.158 49.8624C242.211 47.2044 234.507 47.2686 227.188 47.641C220.562 47.9748 213.936 48.4114 207.298 48.7966C203.369 49.0277 199.452 49.2589 195.523 49.49C195.292 49.5028 195.048 49.5157 194.817 49.5285C194.804 49.4772 194.778 49.4258 194.766 49.3744C185.379 25.3628 162.331 7.36048 136.65 4.49706C132.721 4.06048 128.458 3.85504 124.387 4.47138C121.78 2.62235 118.635 1.49239 115.296 1.09434C107.579 0.182669 100.196 3.26438 93.6856 7.12935C81.1918 14.5383 69.5841 23.7192 59.0678 33.7091C48.59 43.6604 39.1522 54.7032 30.9215 66.5806C22.4468 78.8176 14.6013 92.1973 9.69624 106.296C4.85539 120.19 4.162 137.036 14.306 148.849C15.5001 150.236 16.8098 151.469 18.1966 152.599C-4.77495 172.771 -24.3951 196.757 -39.5982 223.285C-44.0667 231.08 -48.1371 239.079 -51.8223 247.271C-52.8367 249.518 -49.511 251.47 -48.4966 249.21C-35.515 220.358 -17.5769 193.817 4.40598 171.038C9.85033 165.401 15.5386 160.021 21.4453 154.872C30.0098 160.136 40.9884 161.42 50.7215 159.302C65.1798 156.156 77.4553 146.461 87.2782 135.778C97.2039 124.979 105.049 112.37 110.442 98.7331C113.087 92.0304 115.103 85.0966 116.477 78.0215C116.952 75.5946 113.229 74.5674 112.766 76.9942C107.72 103.022 93.4545 128.074 72.3576 144.419C62.2008 152.278 49.5786 157.889 36.4942 156.117C32.3083 155.552 28.1351 154.242 24.4242 152.149C25.4386 150.544 23.0246 148.413 21.3168 149.877C21.2655 149.915 21.2269 149.954 21.1756 149.992C20.9059 149.787 20.6234 149.581 20.3538 149.363C15.3974 145.241 12.3028 139.514 10.9289 133.261C7.80869 119.111 13.5997 104.974 19.9044 92.5697C25.8624 80.8335 32.9503 69.6495 41.0526 59.2744C49.1549 48.8993 58.246 39.2947 68.1459 30.6402C73.1024 26.3001 78.277 22.204 83.6315 18.3776C89.1914 14.397 94.9568 10.3395 101.197 7.50172C106.654 5.01068 113.306 3.66243 119.058 5.89667C118.031 6.30756 117.029 6.7955 116.092 7.38616C111.316 10.378 108.054 16.5542 109.813 22.1912C111.855 28.727 119.906 31.0768 125.53 27.4943C130.769 24.1558 132.361 17.5044 130.178 11.8546C129.626 10.4037 128.881 9.10678 127.995 7.95114C131.077 7.79705 134.223 8.0667 137.112 8.4134C142.852 9.09394 148.54 10.6733 153.869 12.9076C164.629 17.4017 174.157 24.7464 181.424 33.8375C185.045 38.3702 188.076 43.4293 190.374 48.7452C190.541 49.1305 190.695 49.5157 190.849 49.9009C189.95 50.1063 189.103 50.453 188.371 51.0437C184.776 53.9328 185.559 60.3402 190.104 61.8168C192.852 62.7028 196.075 61.5472 196.91 58.5939C197.334 57.0659 196.871 55.6149 196.435 54.1511C196.345 53.8686 196.255 53.5861 196.165 53.3036C197.822 53.2009 199.491 53.111 201.147 53.0083C208.274 52.5845 215.4 52.1736 222.527 51.7499C225.454 51.583 228.472 51.3647 231.515 51.2877C229.589 57.2713 231.091 64.218 236.099 68.3269C241.299 72.59 248.76 73.3732 254.512 69.7265C256.798 68.2756 258.647 66.2981 259.956 63.974C263.436 70.2658 264.374 78.1114 262.704 84.9938C259.802 97.0125 250.134 106.309 239.412 111.779C226.173 118.533 210.803 120.344 196.178 121.474C181.411 122.616 165.977 122.218 152.212 116.145C146.267 113.525 140.81 109.93 136.252 105.269C134.518 103.497 131.796 106.219 133.529 107.991C143.545 118.251 157.361 123.361 171.37 125.095C158.607 131.155 147.859 141.055 140.9 153.369C140.258 152.265 139.462 151.251 138.46 150.403C136.149 148.426 133.042 147.501 130.024 147.668C126.339 147.874 123.347 149.62 120.432 151.738C96.7801 168.958 86.251 197.733 77.07 224.351C65.5779 257.698 55.9989 291.712 48.423 326.163C47.4857 330.439 46.574 334.715 45.688 339.004C45.1872 341.418 48.8981 342.458 49.3989 340.031C55.7806 308.983 63.7417 278.268 73.295 248.042C77.7249 234.02 82.3346 219.998 87.7019 206.298C92.3887 194.317 97.9358 182.53 105.563 172.116C109.325 166.98 113.64 162.242 118.493 158.12C122.833 154.435 129.292 148.888 135.186 152.753C139.282 155.437 139.487 161.42 139.166 165.799C138.666 172.707 136.855 179.705 134.672 186.254C134.48 186.844 134.249 187.422 134.03 188.013C128.316 190.529 123.039 194.009 118.596 198.426C115.129 201.868 110.751 208.095 113.935 213.077C115.527 215.568 118.853 216.454 121.614 215.71C124.939 214.798 126.583 211.922 128.265 209.174C131.796 203.396 134.749 197.258 137.099 190.915C140.271 189.643 143.558 188.68 146.922 188.064C158.864 185.856 171.28 188.218 181.399 194.972C191.337 201.598 198.733 212.012 201.764 223.568C202.534 226.496 202.996 229.462 203.176 232.479C203.24 233.506 204.011 234.418 205.102 234.405C212.614 234.29 220.113 234.174 227.624 234.071C230.5 245.756 229.024 258.366 223.348 269.023C217.801 279.437 208.312 287.565 197.257 291.648C191.851 293.638 186.355 294.447 180.641 294.781C175.685 295.076 170.523 295.269 165.862 297.144C160.97 299.121 157.22 303.127 156.141 308.379C155.435 311.769 155.936 315.082 156.424 318.459C157.541 326.304 158.979 334.124 160.61 341.88C161.432 345.809 162.318 349.725 163.396 353.59C164.103 356.146 164.809 358.906 166.157 361.218C167.891 364.209 169.804 366.983 171.242 370.155C173.117 374.263 174.529 378.578 175.685 382.944C178.432 393.267 179.639 403.989 179.639 414.66C179.639 426.614 178.086 438.568 174.67 450.035C171.999 458.998 167.698 467.267 164.154 475.896C160.43 484.935 157.066 494.129 154.113 503.451C151.904 510.424 149.824 517.524 148.566 524.753C146.871 524.869 145.189 525.383 143.596 526.487C139.513 529.312 138.139 535.668 143.147 538.326C144.932 539.276 147.294 539.546 149.105 538.531C151.159 537.401 151.301 535.758 151.365 533.665C151.416 532.06 151.557 530.468 151.75 528.862C153.638 529.312 155.448 530.236 157.015 531.225C167.3 537.735 176.905 545.221 186.329 552.887C187.241 553.632 189.398 554.749 189.771 555.853C190.092 556.803 189.064 557.933 188.371 558.46C187.28 559.281 186.073 559.243 184.763 559.346C183.222 559.461 181.668 559.577 180.127 559.68C175.646 560.001 171.178 560.322 166.696 560.578C158.645 561.041 150.607 561.208 142.543 561.233C133.286 561.272 123.963 561.503 114.705 561.002C110.879 560.797 107.014 560.437 103.29 559.436C101.403 558.922 97.7175 557.972 97.3194 555.635C97.2167 555.018 97.4478 554.441 97.6147 553.863C98.077 552.36 98.5906 550.871 99.0786 549.369C100.029 546.402 100.953 543.436 101.852 540.445C103.727 534.127 105.435 527.758 106.809 521.299C108.863 511.695 110.186 501.885 110.378 492.062C110.378 492.023 110.378 491.997 110.378 491.959C110.455 488.184 110.378 484.422 110.083 480.647C109.544 473.559 108.337 466.535 106.475 459.665C105.82 457.277 102.109 458.291 102.764 460.692C105.409 470.426 106.488 480.223 106.423 489.982C99.9517 490.893 93.3389 491.073 86.8159 491.086C78.8677 491.086 70.8553 490.765 62.9841 489.622C59.9409 489.185 56.9106 488.608 53.9572 487.76C54.6763 481.931 54.7791 476.037 54.2911 470.259C52.7888 452.667 45.8934 435.654 34.0417 422.492C32.3853 420.643 29.6631 423.378 31.3195 425.214C50.1436 446.119 55.7164 477.526 46.1117 503.849C44.8919 507.188 43.4281 510.462 41.6818 513.557C40.295 515.996 38.6386 518.449 36.4557 520.259C34.2343 517.884 31.769 515.727 28.9441 514.25C24.681 512.016 19.6989 512.362 17.9783 517.627C16.0009 523.649 23.474 526.307 28.0452 526.718C30.883 526.975 33.4382 526.384 35.6981 525.241C35.8394 525.408 35.9935 525.588 36.1347 525.755C40.2051 530.634 43.595 536.156 46.3044 541.896C48.3845 546.313 50.2464 551.179 50.6444 556.123C35.3001 557.111 19.9044 557.291 4.53438 556.957C-7.68973 556.688 -19.8881 555.892 -32.0994 555.519C-46.5449 555.083 -61.3885 556.174 -75.3845 551.86C-88.1736 547.918 -99.8071 539.43 -108.23 529.106C-112.314 524.099 -115.691 518.385 -117.886 512.298C-120.018 506.392 -120.917 500.254 -121.084 494.001C-121.443 481.07 -119.325 467.215 -113.148 455.698C-109.758 449.393 -104.892 443.833 -99.9483 438.697C-94.7736 433.33 -89.1623 428.424 -83.3713 423.738C-71.2499 413.928 -58.525 404.798 -45.569 396.118C-19.4516 378.604 8.05266 363.182 36.6098 350.046C40.1409 348.428 43.6721 346.836 47.2289 345.283C49.4888 344.294 47.537 340.968 45.2899 341.957C15.7698 354.862 -12.6975 370.154 -39.7395 387.669C-53.2348 396.413 -66.3834 405.71 -79.1211 415.52C-91.3067 424.906 -103.133 434.947 -112.339 447.364C-120.416 458.253 -123.819 471.902 -124.73 485.256C-125.18 491.766 -125.026 498.405 -123.87 504.838C-122.702 511.297 -120.262 517.537 -116.962 523.2C-110.246 534.705 -99.974 544.066 -88.3405 550.46C-81.8818 554.017 -74.8966 556.392 -67.6417 557.612C-60.3099 558.858 -52.8624 559.089 -45.4278 559.166C-32.4846 559.307 -19.58 560.001 -6.64965 560.463C8.92581 561.028 24.5141 561.169 40.0767 560.527C44.2756 560.36 48.4744 560.116 52.6732 559.834C53.7133 559.757 54.5993 559.012 54.5993 557.908C54.5736 552.155 52.5962 546.531 50.2849 541.343C47.6526 535.424 44.237 529.838 40.2437 524.728C39.8199 524.176 39.3833 523.636 38.9339 523.084C41.3223 521.094 43.3125 518.475 44.9048 515.701C49.1549 508.305 51.9413 500.074 53.3923 491.599C59.6841 493.384 66.3611 494.013 72.8327 494.463C81.0378 495.028 89.307 495.092 97.512 494.63C100.465 494.463 103.406 494.219 106.346 493.847C105.679 511.823 101.3 529.697 95.7914 547.019C94.6229 550.704 92.0163 555.275 94.7 558.871C96.6902 561.554 100.324 562.684 103.444 563.403C111.534 565.252 119.996 565.008 128.239 565.034C138.37 565.073 148.527 565.137 158.658 564.777C162.767 564.623 166.876 564.405 170.985 564.135C176.378 563.788 181.938 563.711 187.28 562.941C191.774 562.299 196.075 556.457 192.133 552.63C189.514 550.075 186.342 547.905 183.479 545.619C181.09 543.719 178.689 541.831 176.262 539.982C171.332 536.233 166.273 532.676 161.098 529.26C158.504 527.553 155.448 525.806 152.315 525.062C153.419 518.77 155.333 512.542 157.182 506.559C160.238 496.659 163.794 486.9 167.711 477.321C171.512 468.024 176.121 459.152 178.869 449.444C185.238 426.884 185.328 401.639 178.638 379.117C177.328 374.687 175.698 370.321 173.63 366.187C172.231 363.388 170.112 360.884 168.905 358.033C167.595 354.926 166.812 351.497 166.003 348.21C164.937 343.819 164.013 339.389 163.152 334.946C161.791 327.948 160.302 320.822 159.698 313.695C159.185 307.673 162.151 302.498 167.903 300.469C173.052 298.646 178.676 298.813 184.057 298.402C196.281 297.452 207.914 292.329 216.825 283.892C226.083 275.122 231.605 263.091 232.748 250.443C233.313 244.126 232.696 237.718 231.001 231.606C230.783 230.797 229.987 230.181 229.139 230.194C221.718 230.309 214.296 230.412 206.887 230.527C204.319 204.346 181.489 182.864 154.845 183.429C149.387 183.544 143.943 184.507 138.756 186.241C140.951 179.448 142.723 172.206 143.083 165.08C143.198 162.897 143.108 160.534 142.659 158.274C149.503 144.638 161.124 133.518 175.222 127.586C176.07 127.226 176.686 126.533 176.635 125.621C184.609 126.147 192.608 125.737 200.557 124.979C208.697 124.196 216.851 123.181 224.799 121.204C238.808 117.698 252.342 110.713 260.714 98.579C268.059 87.9343 269.69 73.8868 263.411 62.3304L263.385 62.3048ZM127.032 19.3021C125.658 24.7079 117.993 27.9694 114.294 22.7305C111.303 18.4931 114.577 12.7149 118.468 10.4422C119.996 9.5562 121.652 8.95269 123.386 8.55464C126.313 11.264 128.047 15.2959 127.032 19.2893V19.3021ZM190.104 57.0273C189.617 55.8845 190.015 54.318 191.183 53.7659C191.504 53.6118 191.864 53.5604 192.223 53.5347C192.647 54.6519 193.109 55.846 193.212 56.9503C193.392 58.9919 190.695 58.3756 190.117 57.0273H190.104ZM242.429 67.595C236.073 65.4635 232.683 58.0546 235.328 51.827C235.406 51.6472 235.457 51.4803 235.495 51.3005C241.338 51.4674 247.103 52.4433 252.111 55.5635C254.165 56.8476 255.937 58.4655 257.44 60.2888C255.283 66.3752 248.554 69.6495 242.442 67.5822L242.429 67.595ZM27.5444 522.802C25.7339 522.558 22.9476 521.98 21.8176 520.349C21.4581 519.836 21.4324 519.412 21.625 518.783C21.7791 518.269 22.1129 517.794 22.434 517.383C22.5624 517.229 22.7036 517.024 22.8577 516.908C22.8962 516.869 22.755 516.934 23.1145 516.805C23.4869 516.677 24.1803 516.651 24.4114 516.69C25.0791 516.78 25.9009 517.062 26.3503 517.268C28.867 518.397 31.0756 520.246 33.053 522.288C31.3067 522.93 29.4577 523.071 27.5573 522.815L27.5444 522.802ZM147.256 535.103C146.909 535.231 146.64 535.296 146.254 535.27C145.458 535.231 144.457 534.808 144.007 534.127C142.428 531.777 145.741 529.183 147.718 528.721C147.795 528.708 147.859 528.708 147.936 528.683C147.885 529.068 147.821 529.466 147.782 529.851C147.59 531.495 147.628 533.151 147.487 534.795C147.461 535.141 147.77 534.897 147.269 535.09L147.256 535.103ZM125.697 205.989C124.272 208.403 122.422 212.833 118.904 212.076C116.131 211.485 116.644 208.416 117.466 206.426C119.585 201.264 125.376 197.245 129.973 194.471C130.653 194.061 131.334 193.675 132.027 193.303C130.204 197.669 128.111 201.932 125.697 206.002V205.989Z" fill="#FFEAE1"/>
<path d="M170.484 224.685C170.484 221.578 167.967 219.048 164.86 219.048C161.753 219.048 159.236 221.565 159.236 224.685C159.236 227.805 161.753 230.309 164.86 230.309C167.967 230.309 170.484 227.793 170.484 224.685Z" fill="#FFEAE1"/>
<path d="M156.911 62.048C160.019 62.048 162.536 59.5312 162.536 56.4238C162.536 53.3164 160.019 50.7869 156.911 50.7869C153.804 50.7869 151.287 53.3036 151.287 56.4238C151.287 59.5441 153.804 62.048 156.911 62.048Z" fill="#FFEAE1"/>
</g>
</svg>
