<svg width="375" height="200" viewBox="0 0 375 200" fill="none" xmlns="http://www.w3.org/2000/svg">
<g clip-path="url(#clip0_1913_27884)">
<mask id="mask0_1913_27884" style="mask-type:luminance" maskUnits="userSpaceOnUse" x="0" y="0" width="375" height="201">
<path d="M375 0H0V9.25H375V0Z" fill="white"/>
<path d="M375 5.5H0V14.5H375V5.5Z" fill="white"/>
<path d="M375 11H0V19.75H375V11Z" fill="white"/>
<path d="M375 16.75H0V25.25H375V16.75Z" fill="white"/>
<path d="M375 22.25H0V30.5H375V22.25Z" fill="white"/>
<path d="M375 27.75H0V35.75H375V27.75Z" fill="white"/>
<path d="M375 33.25H0V41H375V33.25Z" fill="white"/>
<path d="M375 39H0V46.5H375V39Z" fill="white"/>
<path d="M375 44.5H0V51.75H375V44.5Z" fill="white"/>
<path d="M375 50H0V57H375V50Z" fill="white"/>
<path d="M375 55.5H0V62.25H375V55.5Z" fill="white"/>
<path d="M375 61H0V67.5H375V61Z" fill="white"/>
<path d="M375 66.75H0V73H375V66.75Z" fill="white"/>
<path d="M375 72.25H0V78.25H375V72.25Z" fill="white"/>
<path d="M375 77.75H0V83.5H375V77.75Z" fill="white"/>
<path d="M375 83.25H0V88.75H375V83.25Z" fill="white"/>
<path d="M375 89H0V94.25H375V89Z" fill="white"/>
<path d="M375 94.5H0V99.5H375V94.5Z" fill="white"/>
<path d="M375 100H0V104.75H375V100Z" fill="white"/>
<path d="M375 105.5H0V110H375V105.5Z" fill="white"/>
<path d="M375 111H0V115.25H375V111Z" fill="white"/>
<path d="M375 116.75H0V120.75H375V116.75Z" fill="white"/>
<path d="M375 122.25H0V126H375V122.25Z" fill="white"/>
<path d="M375 127.75H0V131.25H375V127.75Z" fill="white"/>
<path d="M375 133.25H0V136.5H375V133.25Z" fill="white"/>
<path d="M375 139H0V142H375V139Z" fill="white"/>
<path d="M375 144.5H0V147.25H375V144.5Z" fill="white"/>
<path d="M375 150H0V152.5H375V150Z" fill="white"/>
<path d="M375 155.5H0V157.75H375V155.5Z" fill="white"/>
<path d="M375 161H0V163H375V161Z" fill="white"/>
<path d="M375 166.75H0V168.5H375V166.75Z" fill="white"/>
<path d="M375 172.25H0V173.75H375V172.25Z" fill="white"/>
<path d="M375 177.75H0V179H375V177.75Z" fill="white"/>
<path d="M375 183.25H0V184.25H375V183.25Z" fill="white"/>
<path d="M375 189H0V189.75H375V189Z" fill="white"/>
<path d="M375 194.5H0V195H375V194.5Z" fill="white"/>
</mask>
<g mask="url(#mask0_1913_27884)">
<path d="M375 0H0V200H375V0Z" fill="url(#paint0_linear_1913_27884)"/>
</g>
<mask id="mask1_1913_27884" style="mask-type:luminance" maskUnits="userSpaceOnUse" x="0" y="0" width="375" height="201">
<path d="M375 0H0V9.25H375V0Z" fill="white"/>
<path d="M375 5.5H0V14.5H375V5.5Z" fill="white"/>
<path d="M375 11H0V19.75H375V11Z" fill="white"/>
<path d="M375 16.75H0V25.25H375V16.75Z" fill="white"/>
<path d="M375 22.25H0V30.5H375V22.25Z" fill="white"/>
<path d="M375 27.75H0V35.75H375V27.75Z" fill="white"/>
<path d="M375 33.25H0V41H375V33.25Z" fill="white"/>
<path d="M375 39H0V46.5H375V39Z" fill="white"/>
<path d="M375 44.5H0V51.75H375V44.5Z" fill="white"/>
<path d="M375 50H0V57H375V50Z" fill="white"/>
<path d="M375 55.5H0V62.25H375V55.5Z" fill="white"/>
<path d="M375 61H0V67.5H375V61Z" fill="white"/>
<path d="M375 66.75H0V73H375V66.75Z" fill="white"/>
<path d="M375 72.25H0V78.25H375V72.25Z" fill="white"/>
<path d="M375 77.75H0V83.5H375V77.75Z" fill="white"/>
<path d="M375 83.25H0V88.75H375V83.25Z" fill="white"/>
<path d="M375 89H0V94.25H375V89Z" fill="white"/>
<path d="M375 94.5H0V99.5H375V94.5Z" fill="white"/>
<path d="M375 100H0V104.75H375V100Z" fill="white"/>
<path d="M375 105.5H0V110H375V105.5Z" fill="white"/>
<path d="M375 111H0V115.25H375V111Z" fill="white"/>
<path d="M375 116.75H0V120.75H375V116.75Z" fill="white"/>
<path d="M375 122.25H0V126H375V122.25Z" fill="white"/>
<path d="M375 127.75H0V131.25H375V127.75Z" fill="white"/>
<path d="M375 133.25H0V136.5H375V133.25Z" fill="white"/>
<path d="M375 139H0V142H375V139Z" fill="white"/>
<path d="M375 144.5H0V147.25H375V144.5Z" fill="white"/>
<path d="M375 150H0V152.5H375V150Z" fill="white"/>
<path d="M375 155.5H0V157.75H375V155.5Z" fill="white"/>
<path d="M375 161H0V163H375V161Z" fill="white"/>
<path d="M375 166.75H0V168.5H375V166.75Z" fill="white"/>
<path d="M375 172.25H0V173.75H375V172.25Z" fill="white"/>
<path d="M375 177.75H0V179H375V177.75Z" fill="white"/>
<path d="M375 183.25H0V184.25H375V183.25Z" fill="white"/>
<path d="M375 189H0V189.75H375V189Z" fill="white"/>
<path d="M375 194.5H0V195H375V194.5Z" fill="white"/>
</mask>
<g mask="url(#mask1_1913_27884)">
<path d="M187.5 200C291.053 200 375 116.053 375 12.5C375 -91.0534 291.053 -175 187.5 -175C83.9466 -175 0 -91.0534 0 12.5C0 116.053 83.9466 200 187.5 200Z" fill="url(#paint1_linear_1913_27884)"/>
</g>
</g>
<defs>
<linearGradient id="paint0_linear_1913_27884" x1="18750" y1="0" x2="18750" y2="20000" gradientUnits="userSpaceOnUse">
<stop offset="0.25" stop-color="#F27541"/>
<stop offset="1" stop-color="#FFC3AA"/>
</linearGradient>
<linearGradient id="paint1_linear_1913_27884" x1="18750" y1="-175" x2="18750" y2="37325" gradientUnits="userSpaceOnUse">
<stop stop-color="#FFB366"/>
<stop offset="0.75" stop-color="#FF8000"/>
</linearGradient>
<clipPath id="clip0_1913_27884">
<rect width="375" height="200" fill="white"/>
</clipPath>
</defs>
</svg>
