<svg width="1440" height="200" viewBox="0 0 1440 200" fill="none" xmlns="http://www.w3.org/2000/svg">
<g clip-path="url(#clip0_1822_38918)">
<mask id="mask0_1822_38918" style="mask-type:luminance" maskUnits="userSpaceOnUse" x="0" y="0" width="1440" height="201">
<path d="M1440 0H0V9.25H1440V0Z" fill="white"/>
<path d="M1440 5.5H0V14.5H1440V5.5Z" fill="white"/>
<path d="M1440 11H0V19.75H1440V11Z" fill="white"/>
<path d="M1440 16.75H0V25.25H1440V16.75Z" fill="white"/>
<path d="M1440 22.25H0V30.5H1440V22.25Z" fill="white"/>
<path d="M1440 27.75H0V35.75H1440V27.75Z" fill="white"/>
<path d="M1440 33.25H0V41H1440V33.25Z" fill="white"/>
<path d="M1440 39H0V46.5H1440V39Z" fill="white"/>
<path d="M1440 44.5H0V51.75H1440V44.5Z" fill="white"/>
<path d="M1440 50H0V57H1440V50Z" fill="white"/>
<path d="M1440 55.5H0V62.25H1440V55.5Z" fill="white"/>
<path d="M1440 61H0V67.5H1440V61Z" fill="white"/>
<path d="M1440 66.75H0V73H1440V66.75Z" fill="white"/>
<path d="M1440 72.25H0V78.25H1440V72.25Z" fill="white"/>
<path d="M1440 77.75H0V83.5H1440V77.75Z" fill="white"/>
<path d="M1440 83.25H0V88.75H1440V83.25Z" fill="white"/>
<path d="M1440 89H0V94.25H1440V89Z" fill="white"/>
<path d="M1440 94.5H0V99.5H1440V94.5Z" fill="white"/>
<path d="M1440 100H0V104.75H1440V100Z" fill="white"/>
<path d="M1440 105.5H0V110H1440V105.5Z" fill="white"/>
<path d="M1440 111H0V115.25H1440V111Z" fill="white"/>
<path d="M1440 116.75H0V120.75H1440V116.75Z" fill="white"/>
<path d="M1440 122.25H0V126H1440V122.25Z" fill="white"/>
<path d="M1440 127.75H0V131.25H1440V127.75Z" fill="white"/>
<path d="M1440 133.25H0V136.5H1440V133.25Z" fill="white"/>
<path d="M1440 139H0V142H1440V139Z" fill="white"/>
<path d="M1440 144.5H0V147.25H1440V144.5Z" fill="white"/>
<path d="M1440 150H0V152.5H1440V150Z" fill="white"/>
<path d="M1440 155.5H0V157.75H1440V155.5Z" fill="white"/>
<path d="M1440 161H0V163H1440V161Z" fill="white"/>
<path d="M1440 166.75H0V168.5H1440V166.75Z" fill="white"/>
<path d="M1440 172.25H0V173.75H1440V172.25Z" fill="white"/>
<path d="M1440 177.75H0V179H1440V177.75Z" fill="white"/>
<path d="M1440 183.25H0V184.25H1440V183.25Z" fill="white"/>
<path d="M1440 189H0V189.75H1440V189Z" fill="white"/>
<path d="M1440 194.5H0V195H1440V194.5Z" fill="white"/>
</mask>
<g mask="url(#mask0_1822_38918)">
<path d="M1440 0H0V200H1440V0Z" fill="url(#paint0_linear_1822_38918)"/>
</g>
<mask id="mask1_1822_38918" style="mask-type:luminance" maskUnits="userSpaceOnUse" x="0" y="0" width="1440" height="201">
<path d="M1440 0H0V9.25H1440V0Z" fill="white"/>
<path d="M1440 5.5H0V14.5H1440V5.5Z" fill="white"/>
<path d="M1440 11H0V19.75H1440V11Z" fill="white"/>
<path d="M1440 16.75H0V25.25H1440V16.75Z" fill="white"/>
<path d="M1440 22.25H0V30.5H1440V22.25Z" fill="white"/>
<path d="M1440 27.75H0V35.75H1440V27.75Z" fill="white"/>
<path d="M1440 33.25H0V41H1440V33.25Z" fill="white"/>
<path d="M1440 39H0V46.5H1440V39Z" fill="white"/>
<path d="M1440 44.5H0V51.75H1440V44.5Z" fill="white"/>
<path d="M1440 50H0V57H1440V50Z" fill="white"/>
<path d="M1440 55.5H0V62.25H1440V55.5Z" fill="white"/>
<path d="M1440 61H0V67.5H1440V61Z" fill="white"/>
<path d="M1440 66.75H0V73H1440V66.75Z" fill="white"/>
<path d="M1440 72.25H0V78.25H1440V72.25Z" fill="white"/>
<path d="M1440 77.75H0V83.5H1440V77.75Z" fill="white"/>
<path d="M1440 83.25H0V88.75H1440V83.25Z" fill="white"/>
<path d="M1440 89H0V94.25H1440V89Z" fill="white"/>
<path d="M1440 94.5H0V99.5H1440V94.5Z" fill="white"/>
<path d="M1440 100H0V104.75H1440V100Z" fill="white"/>
<path d="M1440 105.5H0V110H1440V105.5Z" fill="white"/>
<path d="M1440 111H0V115.25H1440V111Z" fill="white"/>
<path d="M1440 116.75H0V120.75H1440V116.75Z" fill="white"/>
<path d="M1440 122.25H0V126H1440V122.25Z" fill="white"/>
<path d="M1440 127.75H0V131.25H1440V127.75Z" fill="white"/>
<path d="M1440 133.25H0V136.5H1440V133.25Z" fill="white"/>
<path d="M1440 139H0V142H1440V139Z" fill="white"/>
<path d="M1440 144.5H0V147.25H1440V144.5Z" fill="white"/>
<path d="M1440 150H0V152.5H1440V150Z" fill="white"/>
<path d="M1440 155.5H0V157.75H1440V155.5Z" fill="white"/>
<path d="M1440 161H0V163H1440V161Z" fill="white"/>
<path d="M1440 166.75H0V168.5H1440V166.75Z" fill="white"/>
<path d="M1440 172.25H0V173.75H1440V172.25Z" fill="white"/>
<path d="M1440 177.75H0V179H1440V177.75Z" fill="white"/>
<path d="M1440 183.25H0V184.25H1440V183.25Z" fill="white"/>
<path d="M1440 189H0V189.75H1440V189Z" fill="white"/>
<path d="M1440 194.5H0V195H1440V194.5Z" fill="white"/>
</mask>
<g mask="url(#mask1_1822_38918)">
<path d="M1532 400C1929.65 400 2252 265.685 2252 100C2252 -65.6854 1929.65 -200 1532 -200C1134.35 -200 812 -65.6854 812 100C812 265.685 1134.35 400 1532 400Z" fill="url(#paint1_linear_1822_38918)"/>
</g>
<mask id="mask2_1822_38918" style="mask-type:luminance" maskUnits="userSpaceOnUse" x="0" y="0" width="1440" height="201">
<path d="M1440 0H0V9.25H1440V0Z" fill="white"/>
<path d="M1440 5.5H0V14.5H1440V5.5Z" fill="white"/>
<path d="M1440 11H0V19.75H1440V11Z" fill="white"/>
<path d="M1440 16.75H0V25.25H1440V16.75Z" fill="white"/>
<path d="M1440 22.25H0V30.5H1440V22.25Z" fill="white"/>
<path d="M1440 27.75H0V35.75H1440V27.75Z" fill="white"/>
<path d="M1440 33.25H0V41H1440V33.25Z" fill="white"/>
<path d="M1440 39H0V46.5H1440V39Z" fill="white"/>
<path d="M1440 44.5H0V51.75H1440V44.5Z" fill="white"/>
<path d="M1440 50H0V57H1440V50Z" fill="white"/>
<path d="M1440 55.5H0V62.25H1440V55.5Z" fill="white"/>
<path d="M1440 61H0V67.5H1440V61Z" fill="white"/>
<path d="M1440 66.75H0V73H1440V66.75Z" fill="white"/>
<path d="M1440 72.25H0V78.25H1440V72.25Z" fill="white"/>
<path d="M1440 77.75H0V83.5H1440V77.75Z" fill="white"/>
<path d="M1440 83.25H0V88.75H1440V83.25Z" fill="white"/>
<path d="M1440 89H0V94.25H1440V89Z" fill="white"/>
<path d="M1440 94.5H0V99.5H1440V94.5Z" fill="white"/>
<path d="M1440 100H0V104.75H1440V100Z" fill="white"/>
<path d="M1440 105.5H0V110H1440V105.5Z" fill="white"/>
<path d="M1440 111H0V115.25H1440V111Z" fill="white"/>
<path d="M1440 116.75H0V120.75H1440V116.75Z" fill="white"/>
<path d="M1440 122.25H0V126H1440V122.25Z" fill="white"/>
<path d="M1440 127.75H0V131.25H1440V127.75Z" fill="white"/>
<path d="M1440 133.25H0V136.5H1440V133.25Z" fill="white"/>
<path d="M1440 139H0V142H1440V139Z" fill="white"/>
<path d="M1440 144.5H0V147.25H1440V144.5Z" fill="white"/>
<path d="M1440 150H0V152.5H1440V150Z" fill="white"/>
<path d="M1440 155.5H0V157.75H1440V155.5Z" fill="white"/>
<path d="M1440 161H0V163H1440V161Z" fill="white"/>
<path d="M1440 166.75H0V168.5H1440V166.75Z" fill="white"/>
<path d="M1440 172.25H0V173.75H1440V172.25Z" fill="white"/>
<path d="M1440 177.75H0V179H1440V177.75Z" fill="white"/>
<path d="M1440 183.25H0V184.25H1440V183.25Z" fill="white"/>
<path d="M1440 189H0V189.75H1440V189Z" fill="white"/>
<path d="M1440 194.5H0V195H1440V194.5Z" fill="white"/>
</mask>
<g mask="url(#mask2_1822_38918)">
<path d="M-92 400C305.645 400 628 265.685 628 100C628 -65.6854 305.645 -200 -92 -200C-489.645 -200 -812 -65.6854 -812 100C-812 265.685 -489.645 400 -92 400Z" fill="url(#paint2_linear_1822_38918)"/>
</g>
</g>
<defs>
<linearGradient id="paint0_linear_1822_38918" x1="72000" y1="0" x2="72000" y2="20000" gradientUnits="userSpaceOnUse">
<stop offset="0.25" stop-color="#F27541"/>
<stop offset="1" stop-color="#FFC3AA"/>
</linearGradient>
<linearGradient id="paint1_linear_1822_38918" x1="72812" y1="-200" x2="72812" y2="59800" gradientUnits="userSpaceOnUse">
<stop stop-color="#FFB366"/>
<stop offset="0.75" stop-color="#FF8000"/>
</linearGradient>
<linearGradient id="paint2_linear_1822_38918" x1="71188" y1="-200" x2="71188" y2="59800" gradientUnits="userSpaceOnUse">
<stop stop-color="#FFB366"/>
<stop offset="0.75" stop-color="#FF8000"/>
</linearGradient>
<clipPath id="clip0_1822_38918">
<rect width="1440" height="200" fill="white"/>
</clipPath>
</defs>
</svg>
