<svg width="36" height="36" viewBox="0 0 36 36" fill="none" xmlns="http://www.w3.org/2000/svg">
<g clip-path="url(#clip0_2449_102871)">
<path d="M35.9987 6.19109C35.9987 6.10941 35.9959 6.02773 35.9931 5.94463C35.9199 4.13069 34.5148 2.528 32.7098 2.32942C31.7017 2.21816 30.6753 2.2745 29.6573 2.25619C29.5222 2.25337 29.3856 2.25619 29.2265 2.25619C29.2265 1.85481 29.2603 1.49991 29.2152 1.15628C29.1814 0.888691 29.0998 0.60139 28.9519 0.381688C28.7112 0.0253781 28.2564 -0.0746141 27.8523 0.05777C27.4243 0.197196 27.1441 0.536606 27.1244 0.990092C27.1061 1.40555 27.1202 1.82242 27.1202 2.23225H22.4387C22.4387 2.1055 22.4387 2.00269 22.4387 1.89847C22.4387 1.62948 22.443 1.35908 22.4373 1.09008C22.4246 0.457739 21.984 0.00284466 21.3898 0.00143632C20.8055 0.00143632 20.3479 0.461964 20.3296 1.08586C20.3183 1.46752 20.3282 1.84918 20.3282 2.23084H15.6721C15.6721 1.85763 15.6763 1.50695 15.6721 1.15768C15.6636 0.478864 15.223 2.79832e-05 14.6105 2.79832e-05C13.9938 2.79832e-05 13.5658 0.469006 13.5602 1.15768C13.5573 1.51681 13.5602 1.87453 13.5602 2.23225H8.88575C8.88575 1.86185 8.88998 1.51259 8.88575 1.16473C8.8759 0.471822 8.45492 0.00566135 7.83964 2.79832e-05C7.23 -0.00419704 6.7879 0.470414 6.77382 1.15064C6.76678 1.50132 6.77382 1.852 6.77382 2.25337C5.81219 2.25337 4.90124 2.24915 3.9903 2.25337C1.68406 2.26887 0.00296642 3.95042 0.00296642 6.2601C0.000150515 14.8355 0.000150515 23.4109 0.00296642 31.9863C0.00296642 34.3157 1.68266 35.9986 4.01282 35.9986C13.3377 36.0014 22.6626 36.0014 31.9875 35.9958C32.324 35.9958 32.6689 35.9676 32.9956 35.8902C34.7949 35.4649 35.9959 33.9382 35.9973 32.0581C36.003 23.4362 36.0001 14.813 35.9987 6.19109ZM33.8882 11.5667C33.8882 18.3507 33.8882 25.1361 33.8882 31.9201C33.8882 33.1665 33.1716 33.8875 31.9312 33.8875C22.6401 33.8875 13.3476 33.8875 4.05647 33.8875C2.83718 33.8875 2.11349 33.1636 2.11349 31.9426C2.11349 25.146 2.11349 18.3507 2.11349 11.5541V11.171H33.8882V11.5667ZM33.8882 9.00918H2.11912C2.11912 7.97969 2.08815 6.97132 2.12898 5.96576C2.16277 5.13625 2.85267 4.43349 3.70166 4.38983C4.70413 4.33772 5.71082 4.37715 6.77382 4.37715C6.77382 4.7743 6.76397 5.15596 6.77664 5.53622C6.79635 6.11786 7.17087 6.55022 7.69181 6.6136C8.31976 6.69106 8.84774 6.25447 8.87871 5.61086C8.89702 5.21511 8.88153 4.81796 8.88153 4.39405H13.563C13.563 4.79684 13.5503 5.2123 13.5658 5.62776C13.5841 6.14744 13.9854 6.5643 14.488 6.61641C15.0146 6.66993 15.4694 6.37418 15.613 5.86858C15.6538 5.72493 15.6651 5.57002 15.6693 5.41932C15.6777 5.08273 15.6721 4.74473 15.6721 4.38842H20.3268C20.3268 4.75177 20.324 5.09963 20.3268 5.4489C20.3324 6.15729 20.7647 6.62909 21.3997 6.62346C22.0206 6.61782 22.4331 6.15589 22.4373 5.46017C22.4401 5.1109 22.4373 4.76304 22.4373 4.39123H27.1216C27.1216 4.81937 27.1019 5.25032 27.1272 5.67846C27.1568 6.18264 27.5665 6.57698 28.0565 6.61923C28.5647 6.6643 29.028 6.36714 29.1645 5.88971C29.2096 5.73479 29.218 5.5672 29.2223 5.40383C29.2307 5.0771 29.2251 4.75036 29.2251 4.39828C29.3363 4.38701 29.425 4.37152 29.5151 4.37011C30.3585 4.3687 31.2018 4.36307 32.0452 4.37011C33.1279 4.37856 33.8784 5.12921 33.8854 6.20799C33.891 7.13328 33.8854 8.05715 33.8854 9.01059L33.8882 9.00918Z" fill="#FEBEA3"/>
<path d="M10.5105 23.7178C9.80791 23.7136 9.10534 23.7178 8.40277 23.7178C7.7002 23.7178 6.99763 23.7136 6.29506 23.7178C5.49816 23.7235 5.08 24.1403 5.07859 24.9346C5.07577 26.3402 5.07577 27.7443 5.07859 29.1498C5.08 29.923 5.50238 30.3553 6.26831 30.3581C7.68471 30.3638 9.10112 30.3638 10.5175 30.3581C11.2877 30.3553 11.7115 29.9314 11.7157 29.1582C11.7213 27.7414 11.7227 26.3247 11.7157 24.9079C11.7115 24.1361 11.2877 23.7235 10.5091 23.7178H10.5105ZM9.5756 28.2301H7.22009V25.8599H9.5756V28.2301Z" fill="#FEBEA3"/>
<path d="M29.7248 23.7178C28.3084 23.7122 26.892 23.7122 25.4756 23.7178C24.7041 23.7207 24.2873 24.1432 24.2831 24.922C24.2774 26.3275 24.2788 27.7316 24.2831 29.1371C24.2859 29.9357 24.7026 30.3525 25.4953 30.3582C26.1979 30.3624 26.9005 30.3582 27.603 30.3582C28.3169 30.3582 29.0307 30.3638 29.7459 30.3568C30.4907 30.3497 30.9188 29.9174 30.9216 29.1695C30.9272 27.7527 30.9258 26.336 30.9216 24.9192C30.9188 24.1474 30.4964 23.7207 29.7262 23.7178H29.7248ZM28.7843 28.2189H26.4218V25.8473H28.7843V28.2189Z" fill="#FEBEA3"/>
<path d="M6.2317 21.3096C7.67204 21.3139 9.11097 21.3125 10.5513 21.3096C11.2722 21.3082 11.7086 20.904 11.7143 20.1928C11.727 18.7296 11.727 17.2663 11.7143 15.803C11.7086 15.1073 11.2736 14.6947 10.5837 14.689C9.8586 14.6834 9.13209 14.689 8.40699 14.689C7.6819 14.689 6.95539 14.6862 6.2303 14.689C5.5235 14.6933 5.08563 15.1172 5.08281 15.8227C5.07437 17.2747 5.07437 18.7253 5.08281 20.1773C5.08704 20.8815 5.52632 21.3068 6.23311 21.3096H6.2317ZM7.20742 16.8269H9.577V19.1732H7.20742V16.8269Z" fill="#FEBEA3"/>
<path d="M25.408 21.3096C26.1331 21.3152 26.8596 21.3096 27.5847 21.3096C28.3098 21.3096 29.0602 21.3138 29.7966 21.3096C30.4611 21.304 30.9103 20.8829 30.9159 20.2195C30.9286 18.7323 30.93 17.2465 30.9159 15.7593C30.9088 15.1143 30.4569 14.6932 29.812 14.6904C28.3365 14.6847 26.8624 14.6847 25.3868 14.6904C24.7392 14.6932 24.2943 15.1087 24.2872 15.7621C24.2703 17.2493 24.2717 18.7351 24.2872 20.2223C24.2943 20.8927 24.7364 21.3054 25.4066 21.3096H25.408ZM26.4231 16.8254H28.7941V19.1745H26.4231V16.8254Z" fill="#FEBEA3"/>
<path d="M20.1887 23.7207C18.7259 23.7095 17.2616 23.7095 15.7987 23.7207C15.1074 23.7264 14.6935 24.1658 14.6893 24.8559C14.685 25.5811 14.6893 26.3079 14.6893 27.0331C14.6893 27.7584 14.6864 28.4851 14.6893 29.2104C14.6935 29.916 15.1159 30.3512 15.8269 30.3554C17.2785 30.3639 18.7301 30.3653 20.1817 30.3554C20.8857 30.3512 21.3066 29.909 21.3095 29.2006C21.3137 27.7613 21.3123 26.3205 21.3095 24.8812C21.3081 24.1644 20.8955 23.7264 20.1887 23.7221V23.7207ZM19.1722 28.2288H16.8279V25.86H19.1722V28.2288Z" fill="#FEBEA3"/>
<path d="M16.4984 20.3716C16.9265 20.7716 17.508 20.7645 17.9261 20.3547C19.0131 19.29 20.0859 18.2098 21.156 17.1268C21.4291 16.8493 21.515 16.5001 21.4052 16.1198C21.1729 15.3185 20.2295 15.0917 19.6128 15.6973C18.8117 16.4846 18.0233 17.2831 17.1616 18.1436C16.8518 17.8084 16.5942 17.4859 16.2915 17.2127C15.8691 16.8296 15.2524 16.8634 14.8596 17.2521C14.471 17.6366 14.4245 18.2732 14.8075 18.6844C15.3496 19.2675 15.9156 19.8294 16.497 20.373L16.4984 20.3716Z" fill="#FB976E"/>
</g>
<defs>
<clipPath id="clip0_2449_102871">
<rect width="36" height="36" fill="white"/>
</clipPath>
</defs>
</svg>
