<svg width="375" height="78" viewBox="0 0 375 78" fill="none" xmlns="http://www.w3.org/2000/svg">
<path d="M323.496 78C342.663 78 340.577 38.7484 375 61.3936L375 5.34058e-05L-2.36986e-05 2.06222e-05L-2.82739e-05 52.3355C14.6036 52.3355 17.2114 78 49.6783 78C82.1453 78 77.7121 52.3355 95.7058 52.3355C113.7 52.3355 125.826 78 145.384 78C164.943 78 168.333 52.3355 187.5 52.3355C206.667 52.3355 213.708 78 234.049 78C254.39 78 259.736 52.3355 277.729 52.3355C295.723 52.3355 304.329 78 323.496 78Z" fill="#FB976E"/>
</svg>
