<svg width="20" height="20" viewBox="0 0 20 20" fill="none" xmlns="http://www.w3.org/2000/svg">
<g id="fb">
<path id="fb_2" d="M11.9448 19.9976V12.8207H13.9007C14.0502 11.8775 14.1945 10.9498 14.3439 9.9989H11.3881C11.3804 9.92932 11.3727 9.87778 11.3727 9.82624C11.3727 9.23354 11.3675 8.64083 11.3727 8.04812C11.3804 7.24926 11.8623 6.69263 12.6534 6.63078C13.2693 6.58439 13.8904 6.60243 14.5089 6.59212C14.5888 6.59212 14.6661 6.59212 14.7537 6.59212V4.11564C14.3774 4.07183 14.0064 4.01771 13.6327 3.98421C12.8209 3.91463 12.0066 3.86567 11.2026 4.07441C9.77494 4.44292 8.83177 5.47371 8.62818 6.92971C8.56634 7.3678 8.55603 7.81362 8.54572 8.25686C8.53284 8.82122 8.54314 9.38558 8.54314 9.97571H6.28055V12.8027H8.53026V19.9847C4.34781 19.4436 0.0519704 15.8332 0.000430684 10.0839C-0.0485321 4.62073 4.237 0.273352 9.48374 0.0130758C15.1067 -0.267816 19.5623 4.01514 19.9669 9.16653C20.454 15.3358 15.8901 19.2503 11.9422 19.9976H11.9448Z" fill="#3C5997"/>
</g>
</svg>
