<svg width="22" height="20" viewBox="0 0 22 20" fill="none" xmlns="http://www.w3.org/2000/svg">
<g id="YouTube">
<path id="YouTube_2" d="M11.0568 2.8345C13.1622 2.91697 15.2676 2.9917 17.373 3.08705C17.8678 3.11024 18.3651 3.17467 18.8548 3.26486C20.0376 3.48133 20.7952 4.27762 21.0194 5.51972C21.3313 7.24373 21.3931 8.98577 21.3338 10.7278C21.2926 11.9416 21.1766 13.1528 21.0581 14.3614C20.9705 15.2478 20.6097 16.0003 19.8289 16.5028C19.3521 16.8095 18.8135 16.8997 18.2672 16.9564C15.9969 17.1935 13.7188 17.2347 11.4408 17.2244C9.43331 17.2141 7.42841 17.1445 5.42094 17.0749C4.77669 17.0517 4.12987 16.9719 3.49078 16.8765C2.21775 16.6884 1.44207 15.9307 1.18953 14.668C0.952445 13.4852 0.895752 12.2843 0.859674 11.0834C0.810711 9.45478 0.859675 7.82613 1.06583 6.2052C1.10964 5.85473 1.17149 5.50168 1.25911 5.15895C1.53485 4.07919 2.41618 3.35505 3.59128 3.20817C5.58845 2.9582 7.59592 2.93758 9.60081 2.90408C10.0853 2.89635 10.5698 2.90408 11.0517 2.90408C11.0517 2.88347 11.0517 2.86027 11.0517 2.83966L11.0568 2.8345ZM9.06995 6.99634V13.1193C10.8481 12.0962 12.6056 11.0834 14.3914 10.0578C12.6004 9.027 10.8455 8.01682 9.06995 6.99634Z" fill="#F02626"/>
</g>
</svg>
