<svg width="32" height="32" viewBox="0 0 32 32" fill="none" xmlns="http://www.w3.org/2000/svg">
<path fill-rule="evenodd" clip-rule="evenodd" d="M13.3327 25.3334C13.0313 25.3334 12.7287 25.2321 12.4793 25.0241C11.914 24.5534 11.838 23.7121 12.3087 23.1468L18.2767 15.9854L12.5233 8.8361C12.062 8.26276 12.1527 7.42276 12.726 6.96143C13.3007 6.5001 14.1393 6.59076 14.602 7.1641L21.0393 15.1641C21.4367 15.6588 21.4313 16.3654 21.0247 16.8534L14.358 24.8534C14.094 25.1694 13.7153 25.3334 13.3327 25.3334Z" fill="white"/>
<mask id="mask0_3204_6981" style="mask-type:luminance" maskUnits="userSpaceOnUse" x="12" y="6" width="10" height="20">
<path fill-rule="evenodd" clip-rule="evenodd" d="M13.3327 25.3334C13.0313 25.3334 12.7287 25.2321 12.4793 25.0241C11.914 24.5534 11.838 23.7121 12.3087 23.1468L18.2767 15.9854L12.5233 8.8361C12.062 8.26276 12.1527 7.42276 12.726 6.96143C13.3007 6.5001 14.1393 6.59076 14.602 7.1641L21.0393 15.1641C21.4367 15.6588 21.4313 16.3654 21.0247 16.8534L14.358 24.8534C14.094 25.1694 13.7153 25.3334 13.3327 25.3334Z" fill="white"/>
</mask>
<g mask="url(#mask0_3204_6981)">
<rect width="32" height="32" fill="white"/>
</g>
</svg>
