<svg width="174" height="351" viewBox="0 0 174 351" fill="none" xmlns="http://www.w3.org/2000/svg">
<g opacity="0.1">
<path d="M238.032 240.462C215.839 231.798 197.69 215.755 187.459 196.183C174.939 172.205 177.206 145.185 181.227 119.721C185.248 94.2563 191.391 66.1697 184.086 39.828C181.07 28.9802 175.888 18.5312 168.07 9.7573C166.093 7.54388 163.96 5.4501 161.648 3.50587C159.581 1.76106 157.225 -0.292843 154.198 1.0731C152.981 1.62147 152.322 2.53875 151.741 3.59561C151.071 4.80202 150.401 6.00844 149.731 7.21485C148.692 9.08929 147.664 10.9737 146.648 12.8581C145.017 15.8891 143.454 18.95 141.912 22.0109C140.874 24.0748 139.835 26.1486 138.796 28.2125C137.445 30.9145 135.825 33.5965 134.731 36.3982C133.067 40.6755 134.921 45.3017 139.779 46.9767C142.471 47.904 145.397 47.4753 147.184 45.3416C148.725 43.4971 148.703 41.164 147.553 39.1699C145.486 35.5806 141.331 32.8387 137.579 30.7749C133.826 28.711 129.582 26.8465 125.148 26.2184C117.374 25.1117 109.221 26.1785 101.727 28.0928C91.3284 30.7549 81.6226 35.441 73.3688 41.6725C71.0568 43.4173 68.8565 45.2917 66.7903 47.2758C64.724 49.26 62.8253 51.593 60.7368 53.6669C56.6936 57.675 51.4777 60.686 45.8486 62.6003C40.1301 64.5545 34.0207 65.5117 27.9002 65.4818C25.0745 65.4718 22.5168 65.8606 20.6516 67.9544C18.6635 70.1878 19.0879 72.8997 19.4118 75.5518C20.7633 86.6389 25.4318 97.387 32.848 106.37C36.5114 110.807 40.7667 114.825 45.6252 118.235C50.4613 121.635 56.7048 124.187 60.1783 128.893C63.4061 133.28 65.4723 139.342 63.6965 144.507C62.7471 147.269 60.3682 149.761 58.5924 152.144C54.1471 158.117 50.0593 164.288 46.865 170.879C42.431 180.012 39.661 189.673 38.7117 199.593C38.1532 205.436 38.2426 211.309 38.8569 217.151C39.0579 219.056 42.4086 219.066 42.2075 217.151C41.0683 206.244 41.8278 195.226 45.0109 184.618C47.3787 176.711 51.0198 169.184 55.5879 162.095C57.3638 159.333 59.2848 156.641 61.2506 153.989C62.8924 151.775 64.8581 149.582 66.1202 147.179C68.6332 142.393 67.8402 136.7 65.6734 131.934C64.5677 129.502 63.1716 127.198 61.217 125.224C59.2625 123.25 56.6378 121.525 54.1136 119.97C49.0541 116.859 44.2961 113.659 40.1301 109.601C35.9641 105.543 32.6135 101.166 29.8547 96.38C27.096 91.5942 25.1638 86.7286 23.8906 81.5939C23.2428 78.9717 22.796 76.3196 22.5615 73.6375C22.461 72.5109 22.2711 71.3443 22.8854 70.3074C23.4996 69.2705 24.6724 68.6125 25.9344 68.4729C27.1965 68.3333 28.6597 68.4928 29.9888 68.443C31.5301 68.3931 33.0714 68.2834 34.6127 68.1139C37.5613 67.7849 40.4875 67.2764 43.3356 66.5087C48.9089 65.0231 54.1583 62.6801 58.7152 59.4397C63.2721 56.1993 66.6228 51.613 70.7999 47.8442C74.9771 44.0754 79.2659 41.0344 84.0909 38.3424C92.1772 33.8358 101.257 30.6851 110.684 29.3491C117.33 28.4019 124.198 28.3022 130.397 30.7649C135.166 32.6593 140.036 35.2416 143.364 38.9207C144.381 40.0373 145.408 41.2836 144.939 42.7294C144.146 45.1721 141.019 44.5838 139.288 43.3375C137.679 42.181 137.21 40.2866 137.534 38.5318C137.746 37.4151 138.282 36.4181 138.796 35.3912C139.522 33.9554 140.248 32.5097 140.974 31.074C142.839 27.365 144.682 23.656 146.57 19.957C148.145 16.8861 149.764 13.8452 151.428 10.8142C152.601 8.6805 153.617 6.3574 155.013 4.34338C155.617 3.46599 156.454 3.42611 157.325 4.04427C158.565 4.9117 159.704 5.95859 160.81 6.94565C169.421 14.7026 175.352 24.5534 179.038 34.9026C187.805 59.5394 183.449 85.6618 179.317 110.668C175.151 135.903 170.951 162.454 179.942 187.27C187.113 207.041 202.079 224.39 221.479 235.836C226.182 238.607 231.152 241.01 236.312 243.034C238.266 243.802 239.975 241.22 237.998 240.452L238.032 240.462Z" fill="#F27541"/>
<path d="M66.6563 140.589C96.4438 141.626 126.399 138.585 155.159 131.575C163.234 129.611 171.22 127.318 179.071 124.736C181.082 124.078 180.21 121.186 178.178 121.854C150.468 130.957 121.261 136.272 91.764 137.518C83.3985 137.867 75.0218 137.887 66.6451 137.598C64.4895 137.518 64.4895 140.509 66.6451 140.589H66.6563Z" fill="#F27541"/>
<path d="M63.6518 150.061C93.8078 149.632 123.897 145.235 152.623 137.009C160.721 134.696 168.695 132.064 176.547 129.153C178.513 128.425 177.653 125.534 175.654 126.271C148.078 136.491 118.815 143.121 89.0946 145.763C80.6397 146.511 72.1402 146.95 63.6406 147.07C61.485 147.099 61.485 150.091 63.6406 150.061H63.6518Z" fill="#F27541"/>
<path d="M57.8328 81.7436C41.5821 86.4596 25.3426 91.1856 9.09181 95.9016C7.04791 96.4898 7.91907 99.3812 9.98531 98.783C26.2361 94.067 42.4757 89.341 58.7264 84.6251C60.7703 84.0368 59.8991 81.1454 57.8328 81.7436Z" fill="#F27541"/>
<path d="M58.3354 92.1327C43.8605 96.1408 30 101.844 17.1893 109.082C15.3687 110.109 17.0552 112.702 18.8758 111.665C31.452 104.556 44.9998 98.9524 59.2178 95.0141C61.2729 94.4458 60.3905 91.5544 58.3243 92.1327H58.3354Z" fill="#F27541"/>
<path d="M92.3559 74.1459C95.1147 74.1459 97.3484 72.1519 97.3484 69.6892C97.3484 67.2265 95.1147 65.2324 92.3559 65.2324C89.5972 65.2324 87.3634 67.2265 87.3634 69.6892C87.3634 72.1519 89.5972 74.1459 92.3559 74.1459Z" fill="#F27541"/>
<path d="M45.536 245.487C48.2947 245.487 50.5285 243.493 50.5285 241.03C50.5285 238.568 48.2947 236.574 45.536 236.574C42.7773 236.574 40.5435 238.568 40.5435 241.03C40.5435 243.493 42.7773 245.487 45.536 245.487Z" fill="#F27541"/>
<path d="M124.277 338.241C106.585 340.355 88.0894 338.431 71.0568 333.884C62.535 331.611 54.2253 328.55 46.6528 324.353C43.157 322.408 39.8398 320.225 36.8465 317.702C34.0543 315.359 29.1958 310.703 32.8034 307.194C33.9538 306.077 36.3774 306.157 37.1145 307.702C37.807 309.158 35.7854 309.656 34.5904 309.626C30.5249 309.527 27.3753 305.987 25.5882 303.076C20.8638 295.399 21.3106 285.707 20.8192 277.223C20.5064 271.679 20.1825 266.145 19.8698 260.602C19.557 255.058 19.356 249.824 19.9815 244.46C20.9867 235.816 24.8176 226.613 33.1942 221.548C42.5538 215.895 54.3147 218.238 63.328 223.273C68.1418 225.965 72.3859 229.345 76.5073 232.805C80.8743 236.464 85.1855 240.183 89.4967 243.892C107.144 259.086 124.489 274.551 141.521 290.284C158.498 305.957 175.173 321.9 191.525 338.092C193.032 339.587 195.545 341.581 195.132 343.825C194.842 345.36 193.144 346.148 191.636 346.557C189.626 347.115 187.548 347.195 185.471 347.155C182.757 347.105 180.043 347.045 177.318 346.975C166.45 346.676 155.516 346.098 144.85 344.124C134.44 342.21 124.31 338.929 115.509 333.525C107.49 328.59 100.755 322.01 95.8294 314.532C85.353 298.629 83.7335 278.708 91.7081 261.659C93.685 257.441 96.2539 253.463 99.2807 249.774C100.554 248.219 97.65 246.723 96.3879 248.269C82.9629 264.61 79.6681 286.724 87.4751 305.728C91.105 314.552 96.9352 322.638 104.452 329.228C112.315 336.128 121.909 341.093 132.329 344.243C143.476 347.604 155.27 348.93 166.964 349.568C172.805 349.887 178.658 350.026 184.511 350.136C188.643 350.216 193.982 350.136 196.941 347.095C201.074 342.848 196.182 338.241 192.988 335.081C188.554 330.694 184.097 326.327 179.607 321.98C170.639 313.285 161.581 304.661 152.433 296.116C134.139 279.027 115.487 262.237 96.4773 245.776C91.7863 241.718 87.0842 237.67 82.3598 233.652C77.948 229.903 73.5475 226.134 68.6332 222.904C59.4077 216.832 46.9879 212.734 35.7966 216.912C26.102 220.521 20.0596 229.255 17.77 238.109C16.318 243.712 16.1059 249.495 16.2734 255.218C16.4409 260.941 16.8877 267.113 17.2227 273.055C17.5355 278.499 17.6918 283.973 18.2614 289.396C18.7305 293.833 19.5459 298.29 21.5116 302.418C23.2651 306.087 26.2807 310.045 30.4802 311.75C33.9984 313.176 40.0632 313.046 40.5546 308.599C41.046 304.153 34.6127 302.099 31.1168 304.541C26.8168 307.552 28.0343 313.026 30.927 316.426C33.8197 319.826 37.6172 322.468 41.4146 324.861C45.212 327.254 49.2887 329.318 53.4882 331.103C71.2579 338.66 91.5629 342.2 111.198 342.05C115.565 342.02 119.932 341.771 124.265 341.252C125.17 341.143 125.93 340.644 125.941 339.757C125.941 339.029 125.159 338.152 124.265 338.261L124.277 338.241Z" fill="#F27541"/>
<path d="M106.306 259.106C102.419 274.431 106.82 290.623 116.414 303.614C126.466 317.234 141.957 326.726 159.012 332.169C168.841 335.31 179.161 337.085 189.559 337.793C191.714 337.942 191.703 334.951 189.559 334.802C172.057 333.615 154.578 329.118 139.891 320.364C125.74 311.94 114.906 299.367 110.383 284.651C107.903 276.594 107.468 268.08 109.534 259.904C110.014 258.03 106.775 257.232 106.306 259.106Z" fill="#F27541"/>
<path d="M18.2056 235.148C11.3479 240.292 5.69647 246.723 1.79852 253.932C0.335398 256.654 -1.70847 261.27 2.53571 262.945C4.46793 263.703 6.65698 263.125 8.6227 262.786C11.2809 262.317 13.9279 261.858 16.5861 261.39C18.6971 261.021 17.8036 258.139 15.6926 258.508C13.5817 258.877 11.4484 259.246 9.32635 259.625C8.2653 259.814 7.20429 260.004 6.14324 260.183C5.47311 260.293 4.51261 260.532 3.86481 260.233C2.66974 259.665 3.52971 257.75 3.89828 256.953C4.60192 255.427 5.49541 253.952 6.38892 252.506C10.03 246.693 14.8438 241.559 20.5511 237.271C22.2041 236.035 19.8251 233.921 18.1833 235.158L18.2056 235.148Z" fill="#F27541"/>
</g>
</svg>
