<svg width="266" height="658" viewBox="0 0 266 658" fill="none" xmlns="http://www.w3.org/2000/svg">
<g opacity="0.1" clip-path="url(#clip0_2302_72726)">
<path d="M156.45 60.8089C159.445 60.8089 162.326 58.17 162.186 55.0722C162.045 51.9743 159.662 49.3354 156.45 49.3354C153.455 49.3354 150.574 51.9743 150.714 55.0722C150.855 58.17 153.238 60.8089 156.45 60.8089Z" fill="#F27541"/>
<path d="M103.517 325.794C106.512 325.794 109.392 323.155 109.252 320.057C109.112 316.959 106.729 314.32 103.517 314.32C100.521 314.32 97.6408 316.959 97.781 320.057C97.9212 323.155 100.305 325.794 103.517 325.794Z" fill="#F27541"/>
<path d="M262.138 60.9236C259.028 55.1996 254.095 50.9035 248.016 48.5705C241.12 45.9317 233.473 45.9954 226.208 46.3651C219.631 46.6965 213.054 47.13 206.464 47.5124C202.564 47.7419 198.677 47.9714 194.776 48.2008C194.547 48.2136 194.305 48.2263 194.075 48.2391C194.063 48.1881 194.037 48.1371 194.024 48.0861C184.707 24.2469 161.829 6.37389 136.337 3.53103C132.437 3.09759 128.205 2.89362 124.165 3.50554C121.577 1.66979 118.455 0.547948 115.141 0.152753C107.481 -0.752372 100.152 2.3072 93.6897 6.14442C81.288 13.5002 69.7658 22.6151 59.327 32.5333C48.9265 42.4131 39.5583 53.3766 31.3883 65.1687C22.9761 77.3178 15.1884 90.6015 10.3195 104.599C5.51435 118.393 4.82608 135.118 14.8952 146.834C16.0806 148.211 17.3807 149.435 18.7572 150.556C-4.04499 170.584 -23.5205 194.398 -38.6116 220.735C-43.0471 228.474 -47.0875 236.416 -50.7455 244.549C-51.7525 246.78 -48.4513 248.718 -47.4444 246.474C-34.5584 217.829 -16.7525 191.478 5.06824 168.863C10.4725 163.266 16.1188 157.925 21.9819 152.813C30.4833 158.04 41.381 159.314 51.0423 157.211C65.394 154.088 77.579 144.463 87.3295 133.856C97.182 123.135 104.97 110.616 110.323 97.0776C112.949 90.423 114.95 83.5389 116.313 76.5147C116.785 74.1052 113.089 73.0854 112.63 75.4948C107.621 101.335 93.4603 126.207 72.5189 142.436C62.437 150.238 49.9079 155.809 36.92 154.049C32.7648 153.488 28.6225 152.188 24.9389 150.11C25.9458 148.517 23.5496 146.4 21.8544 147.854C21.8035 147.892 21.7652 147.93 21.7142 147.969C21.4466 147.765 21.1662 147.561 20.8985 147.344C15.9786 143.252 12.9069 137.566 11.5431 131.358C8.44588 117.309 14.1942 103.273 20.4524 90.9584C26.3664 79.3065 33.4021 68.2028 41.4447 57.9022C49.4873 47.6017 58.5113 38.066 68.3383 29.4737C73.2582 25.1648 78.3947 21.0981 83.7097 17.2991C89.2287 13.3472 94.9515 9.31873 101.146 6.48862C106.563 4.01547 113.178 2.6769 118.875 4.89509C117.856 5.30304 116.862 5.78747 115.931 6.37389C111.19 9.34423 107.952 15.4761 109.698 21.0726C111.725 27.5615 119.717 29.8944 125.299 26.3376C130.499 23.0231 132.08 16.4195 129.913 10.8103C129.365 9.36972 128.626 8.08215 127.746 6.93481C130.805 6.78183 133.928 7.04955 136.796 7.39375C142.493 8.0694 148.14 9.63744 153.429 11.8556C164.11 16.3175 173.567 23.6095 180.782 32.6352C184.376 37.1354 187.384 42.1582 189.665 47.4359C189.831 47.8184 189.984 48.2008 190.137 48.5833C189.245 48.7873 188.404 49.1315 187.677 49.7179C184.108 52.5862 184.886 58.9476 189.398 60.4136C192.125 61.2933 195.325 60.1459 196.153 57.2138C196.574 55.6968 196.115 54.2562 195.681 52.803C195.592 52.5225 195.503 52.242 195.414 51.9616C197.058 51.8596 198.702 51.7703 200.359 51.6684C207.433 51.2477 214.507 50.8397 221.581 50.419C224.487 50.2533 227.482 50.0366 230.503 49.9601C228.591 55.9008 230.082 62.7976 235.053 66.877C240.215 71.1094 247.62 71.8871 253.331 68.2666C255.599 66.826 257.435 64.8628 258.735 62.5553C262.189 68.802 263.119 76.5912 261.462 83.4242C258.582 95.3566 248.984 104.586 238.342 110.017C225.201 116.723 209.944 118.52 195.427 119.642C180.769 120.777 165.448 120.381 151.785 114.351C145.884 111.751 140.467 108.181 135.942 103.554C134.221 101.794 131.519 104.497 133.24 106.256C143.22 116.48 156.985 121.554 170.929 123.262C167.182 125.226 163.74 127.788 160.465 130.427C153.875 135.73 147.897 141.798 142.404 148.223C134.833 157.083 128.142 166.696 122.278 176.767C114.886 189.464 108.806 202.913 103.874 216.745C97.8193 233.7 93.5367 251.267 90.7199 269.051C90.3248 271.55 89.9679 274.048 89.6238 276.547C89.4836 277.58 89.8787 278.587 90.9621 278.893C91.8543 279.148 93.1798 278.574 93.3201 277.554C95.7672 259.49 99.6547 241.617 105.339 224.279C109.966 210.154 115.778 196.412 122.941 183.383C128.613 173.057 135.101 163.139 142.557 154.011C148.101 147.204 154.156 140.779 160.847 135.08C164.811 131.702 168.979 128.425 173.912 126.029C174.09 125.94 174.269 125.863 174.447 125.774C174.613 125.697 175.314 125.404 174.651 125.672C175.492 125.315 176.104 124.626 176.053 123.721C183.968 124.244 191.909 123.836 199.798 123.084C207.879 122.306 215.973 121.299 223.862 119.336C237.768 115.856 251.202 108.921 259.512 96.8736C266.803 86.3053 268.422 72.3587 262.189 60.8853L262.138 60.9236ZM126.79 18.2297C125.427 23.5968 117.817 26.8348 114.147 21.6335C111.177 17.4266 114.427 11.6899 118.289 9.43347C119.806 8.55384 121.45 7.95467 123.171 7.55948C126.077 10.2494 127.797 14.2523 126.79 18.217V18.2297ZM189.398 55.6841C188.913 54.5495 189.309 52.9942 190.468 52.446C190.787 52.293 191.144 52.242 191.501 52.2165C191.921 53.3256 192.38 54.5112 192.482 55.6076C192.661 57.6345 189.984 57.0226 189.411 55.6841H189.398ZM241.337 66.1631C235.028 64.0469 231.663 56.6912 234.288 50.5083C234.365 50.3298 234.416 50.1641 234.441 49.9856C240.241 50.1513 245.964 51.1202 250.934 54.218C252.974 55.4928 254.733 57.0991 256.224 58.9094C254.083 64.952 247.404 68.2028 241.337 66.1504V66.1631Z" fill="#F27541"/>
<path d="M167.297 325.539L145.208 325.87C142.659 299.876 119.997 278.549 93.5496 279.11C88.1326 279.224 82.7284 280.18 77.5791 281.901C79.7587 275.158 81.5176 267.968 81.8745 260.892C82.1294 255.844 81.3646 249.84 77.286 246.359C74.9917 244.396 71.9073 243.478 68.912 243.644C65.254 243.848 62.2842 245.582 59.3909 247.685C35.9132 264.781 25.4616 293.349 16.3484 319.776C4.9409 352.884 -4.56745 386.654 -12.0875 420.857C-13.0179 425.102 -13.9229 429.348 -14.8023 433.605C-15.2994 436.002 -11.6159 437.035 -11.1188 434.625C-4.78413 403.8 3.11826 373.306 12.6011 343.297C16.9984 329.376 21.5742 315.455 26.9019 301.852C31.5541 289.958 37.0603 278.255 44.6313 267.917C48.3658 262.817 52.6484 258.113 57.4663 254.021C61.7744 250.362 68.1855 244.855 74.0358 248.692C78.1017 251.357 78.3056 257.297 77.987 261.645C77.4899 268.503 75.6927 275.451 73.526 281.952C73.3348 282.539 73.1054 283.113 72.8887 283.699C67.2168 286.198 61.9783 289.652 57.5682 294.038C54.1269 297.454 49.7806 303.637 52.9415 308.584C54.522 311.057 57.8232 311.936 60.5635 311.197C63.8647 310.292 65.4961 307.436 67.1658 304.695C70.6709 298.959 73.6024 292.865 75.9349 286.567C79.0831 285.305 82.3461 284.349 85.6855 283.737C97.539 281.545 109.864 283.89 119.908 290.583C129.773 297.161 137.115 307.513 140.123 318.973C140.887 321.88 141.346 324.825 141.525 327.821C141.588 328.84 142.353 329.746 143.437 329.733C150.893 329.618 158.336 329.503 165.793 329.401C168.648 341.002 167.182 353.521 161.548 364.102C156.042 374.441 146.623 382.511 135.649 386.564C130.283 388.54 124.828 389.344 119.156 389.675C114.236 389.968 109.112 390.159 104.485 392.021C99.6293 393.984 95.9076 397.961 94.8369 403.175C94.1359 406.541 94.633 409.83 95.1173 413.183C96.2262 420.972 97.6537 428.736 99.2724 436.436C100.088 440.337 100.968 444.225 102.038 448.062C102.739 450.599 103.44 453.34 104.779 455.634C106.499 458.605 108.398 461.358 109.826 464.507C111.687 468.587 113.089 472.87 114.236 477.204C116.964 487.454 118.162 498.099 118.162 508.693C118.162 520.548 116.619 532.43 113.229 543.814C110.578 552.712 106.308 560.922 102.79 569.489C99.094 578.464 95.7546 587.591 92.8103 596.847C90.6181 603.769 88.5532 610.819 87.3042 617.996C85.6217 618.111 83.952 618.621 82.3715 619.717C78.3184 622.521 76.9546 628.832 81.9254 631.471C83.6971 632.414 86.0423 632.682 87.8395 631.675C89.8788 630.553 90.019 628.921 90.0827 626.843C90.1337 625.25 90.2739 623.669 90.4651 622.075C92.3387 622.521 94.1359 623.439 95.6909 624.421C105.9 630.884 115.434 638.317 124.79 645.927C125.694 646.667 127.836 647.776 128.205 648.872C128.524 649.815 127.504 650.937 126.816 651.447C125.733 652.263 124.535 652.225 123.235 652.327C121.705 652.442 120.163 652.556 118.633 652.658C114.185 652.977 109.749 653.296 105.301 653.551C97.3096 654.01 89.3307 654.175 81.3264 654.201C72.1367 654.239 62.8832 654.469 53.6935 653.971C49.8953 653.767 46.0588 653.41 42.3625 652.416C40.4889 651.906 36.8309 650.963 36.4357 648.643C36.3338 648.031 36.5632 647.457 36.7289 646.883C37.1877 645.392 37.6976 643.913 38.1819 642.421C39.1251 639.477 40.0428 636.532 40.935 633.561C42.7959 627.289 44.4911 620.966 45.8549 614.554C48.6717 601.321 50.1502 587.719 49.1178 574.193C48.5825 567.156 47.3844 560.183 45.5362 553.362C44.8862 550.991 41.2027 551.998 41.8527 554.382C42.9616 558.449 43.7773 562.528 44.3636 566.62C41.0752 570.419 19.1015 591.429 -61.9362 589.81L-62.0127 593.634C-58.941 593.698 -55.9712 593.723 -53.0652 593.723C12.8178 593.723 37.226 578.464 44.9499 571.49C47.2059 594.641 42.0056 617.83 34.919 640.101C33.7591 643.76 31.1717 648.298 33.8356 651.868C35.8112 654.532 39.4183 655.654 42.5155 656.368C50.5453 658.204 58.9448 657.962 67.1276 657.987C77.184 658.025 87.2659 658.089 97.3223 657.732C101.401 657.579 105.48 657.362 109.558 657.095C114.912 656.75 120.43 656.674 125.733 655.909C130.194 655.272 134.451 649.471 130.551 645.672C127.95 643.135 124.802 640.981 121.96 638.712C119.589 636.825 117.206 634.951 114.797 633.115C109.902 629.393 104.881 625.862 99.744 622.47C97.1694 620.775 94.1359 619.041 91.0259 618.302C92.1221 612.055 94.0212 605.872 95.8566 599.932C98.8901 590.103 102.421 580.414 106.308 570.904C110.081 561.674 114.657 552.865 117.384 543.227C123.706 520.829 123.795 495.766 117.155 473.405C115.855 469.007 114.236 464.673 112.184 460.568C110.795 457.789 108.692 455.303 107.493 452.473C106.193 449.388 105.416 445.984 104.613 442.72C103.555 438.361 102.637 433.962 101.783 429.552C100.432 422.604 98.9538 415.528 98.3548 408.453C97.8449 402.474 100.789 397.337 106.499 395.322C111.61 393.512 117.193 393.678 122.533 393.27C134.667 392.327 146.215 387.24 155.061 378.865C164.25 370.157 169.731 358.212 170.865 345.655C171.426 339.383 170.815 333.022 169.132 326.954C168.915 326.151 168.125 325.539 167.284 325.551L167.297 325.539ZM64.6422 301.508C63.2274 303.905 61.392 308.303 57.8996 307.551C55.1465 306.965 55.6564 303.918 56.4721 301.942C58.5879 296.817 64.3235 292.827 68.8865 290.073C69.562 289.665 70.2375 289.283 70.9258 288.913C69.1159 293.247 67.0384 297.48 64.6422 301.521V301.508ZM86.5649 623.057C86.3737 624.689 86.412 626.333 86.2718 627.965C86.2463 628.309 86.5522 628.067 86.0551 628.258C85.7109 628.386 85.4433 628.449 85.0609 628.424C84.2707 628.386 83.2765 627.965 82.8304 627.289C81.2626 624.956 84.5511 622.381 86.5139 621.922C86.5904 621.91 86.6541 621.91 86.7306 621.884C86.6796 622.267 86.6159 622.662 86.5777 623.044L86.5649 623.057Z" fill="#F27541"/>
</g>
<defs>
<clipPath id="clip0_2302_72726">
<rect width="328" height="658" fill="white" transform="translate(-62)"/>
</clipPath>
</defs>
</svg>
