<svg width="263" height="255" viewBox="0 0 263 255" fill="none" xmlns="http://www.w3.org/2000/svg">
<g clip-path="url(#clip0_111_5599)">
<path d="M115.882 220.862C112.888 217.986 107.966 213.188 102.963 208.481C99.6988 205.413 96.451 202.317 92.9416 199.545C88.3892 195.957 82.8169 194.474 77.359 192.888C71.5182 191.194 65.5504 189.864 59.8304 187.848C51.6953 184.978 44.8964 180.26 41.644 171.765C37.7483 161.584 39.1798 151.944 45.3299 143.062C52.2989 133.003 62.2613 127.188 73.9326 124.625C85.33 122.118 95.8991 117.763 106.115 112.282C111.27 109.517 116.513 106.952 122.321 105.84C138.326 102.769 152.058 112.086 155.021 128.42C156.08 134.26 156.249 140.276 156.646 146.218C157.268 155.487 158.388 164.634 161.326 173.497C164.492 183.042 165.301 192.792 162.674 202.637C159.262 215.402 150.308 225.005 136.92 226.968C130.048 227.978 123.969 225.875 115.893 220.859L115.882 220.862Z" fill="#FEF6F2"/>
<path d="M209.218 100.313C201.827 112.068 193.191 119.673 180.899 122.12C173.121 123.669 165.996 122.155 160.884 115.513C157.062 110.548 156.409 104.71 157.318 98.6633C159.711 82.7379 173.626 67.8904 189.289 64.7524C197.591 63.0863 205.042 64.8068 210.133 72.0801C214.213 77.9027 214.297 84.5963 212.53 91.2463C211.573 94.8506 209.974 98.2799 209.214 100.32L209.218 100.313Z" fill="#FEF6F2"/>
<path d="M114.267 47.3945C118.043 41.401 122.627 36.4053 128.984 33.2807C139.301 28.2026 150.245 32.2747 154.911 42.7788C158.964 51.9135 158.594 61.1967 155.675 70.5C153.295 78.0824 149.312 84.7395 143.071 89.8042C137.218 94.5519 130.702 97.1648 123.101 94.8176C117.022 92.9392 113.303 88.4712 110.986 82.7811C107.702 74.6961 107.84 66.3785 110.212 58.1019C111.262 54.4488 112.894 50.9636 114.263 47.4015L114.267 47.3945Z" fill="#FEF6F2"/>
<path d="M225.282 163.952C217.879 175.327 208.129 181.916 195.007 182.952C186.072 183.656 178.116 179.398 174.847 172.235C171.889 165.774 172.607 159.236 175.741 153.179C182.657 139.818 193.649 132.333 208.832 131.909C215.177 131.733 220.86 133.942 224.966 139.044C229.424 144.581 229.825 150.936 227.87 157.524C227.173 159.89 226.033 162.121 225.282 163.952Z" fill="#FEF6F2"/>
<path d="M51.9078 64.2459C54.5666 59.7695 57.9914 56.1547 62.5797 53.743C70.993 49.3082 80.7735 51.7582 86.5478 59.8918C93.2721 69.3569 94.1437 79.8513 91.2204 90.8202C89.5805 96.9754 86.5676 102.403 81.6394 106.594C71.8441 114.919 59.5878 113.314 52.5402 102.591C46.2252 92.9797 45.6811 82.4973 48.8333 71.6791C49.5743 69.1245 50.8646 66.7286 51.9038 64.2529L51.9078 64.2459Z" fill="#FEF6F2"/>
</g>
<defs>
<clipPath id="clip0_111_5599">
<rect width="200" height="178" fill="white" transform="translate(89) rotate(30)"/>
</clipPath>
</defs>
</svg>
