<svg width="240" height="224" viewBox="0 0 240 224" fill="none" xmlns="http://www.w3.org/2000/svg">
<g clip-path="url(#clip0_111_5593)">
<path d="M175.181 188.928C171.031 189.012 164.157 189.099 157.292 189.309C152.814 189.448 148.329 189.555 143.887 190.077C138.131 190.758 133.141 193.649 128.161 196.388C122.833 199.32 117.673 202.599 112.202 205.218C104.42 208.941 96.277 210.413 87.9704 206.706C78.017 202.262 72.2126 194.433 70.2807 183.803C68.0956 171.763 71.0286 160.607 77.4692 150.541C83.7557 140.71 88.1497 130.157 91.4976 119.057C93.1872 113.457 95.0813 107.935 98.4016 103.043C107.548 89.5537 123.845 86.4319 137.49 95.8866C142.369 99.2671 146.742 103.402 151.225 107.323C158.219 113.437 165.479 119.113 173.823 123.303C182.812 127.813 190.278 134.136 195.381 142.954C201.995 154.393 202.454 167.515 194.376 178.37C190.23 183.943 184.445 186.755 175.187 188.918L175.181 188.928Z" fill="#FEF6F2"/>
<path d="M155.939 37.6892C159.025 51.2266 158.296 62.7112 151.334 73.1333C146.929 79.7284 140.821 83.6965 132.51 82.6145C126.296 81.806 121.707 78.139 118.073 73.2214C108.505 60.2677 107.845 39.9301 116.702 26.6353C121.394 19.5873 127.88 15.5348 136.623 17.0778C143.625 18.3101 148.417 22.9839 151.87 28.936C153.742 32.1613 155.036 35.7168 155.941 37.697L155.939 37.6892Z" fill="#FEF6F2"/>
<path d="M51.3793 67.4104C49.8114 60.5022 49.5206 53.728 51.8057 47.024C55.5107 36.1376 66.1283 31.2787 76.8551 35.407C86.1806 38.9999 92.4827 45.8262 96.9973 54.4685C100.676 61.5131 102.567 69.0367 101.735 77.0308C100.953 84.5269 98.1934 90.9821 91.1591 94.6969C85.5329 97.6668 79.7436 97.1374 74.0817 94.7521C66.0422 91.3578 60.2586 85.3786 56.0836 77.8486C54.243 74.523 52.932 70.9051 51.3814 67.4182L51.3793 67.4104Z" fill="#FEF6F2"/>
<path d="M212.298 71.3295C215.106 84.6071 212.871 96.161 204.325 106.172C198.505 112.988 189.868 115.603 182.492 112.849C175.831 110.373 171.716 105.241 169.65 98.7425C165.091 84.4046 167.571 71.3396 178.008 60.3038C182.37 55.6923 187.951 53.236 194.461 53.9399C201.529 54.7033 206.306 58.9134 209.582 64.9545C210.762 67.1201 211.534 69.5037 212.298 71.3295Z" fill="#FEF6F2"/>
<path d="M19.2006 123.421C17.9153 118.375 17.781 113.398 19.32 108.448C22.1333 99.3629 30.7815 94.1795 40.6159 95.8478C52.0635 97.7858 60.1005 104.59 65.7896 114.413C68.9824 119.925 70.6899 125.894 70.1688 132.342C69.1291 145.155 59.3275 152.687 46.7615 150.087C35.5002 147.757 27.7033 140.729 22.2826 130.851C21.0002 128.521 20.2184 125.914 19.2026 123.429L19.2006 123.421Z" fill="#FEF6F2"/>
</g>
<defs>
<clipPath id="clip0_111_5593">
<rect width="200" height="178" fill="white" transform="translate(0 51.7638) rotate(-15)"/>
</clipPath>
</defs>
</svg>
