<svg width="14" height="14" viewBox="0 0 14 14" fill="none" xmlns="http://www.w3.org/2000/svg">
<path fill-rule="evenodd" clip-rule="evenodd" d="M2.91667 6.41667C2.91667 4.48642 4.48642 2.91667 6.41667 2.91667C8.34692 2.91667 9.91667 4.48642 9.91667 6.41667C9.91667 8.34692 8.34692 9.91667 6.41667 9.91667C4.48642 9.91667 2.91667 8.34692 2.91667 6.41667ZM12.0791 11.2542L10.0987 9.27325C10.7129 8.48342 11.0833 7.4935 11.0833 6.41667C11.0833 3.84358 8.98975 1.75 6.41667 1.75C3.84358 1.75 1.75 3.84358 1.75 6.41667C1.75 8.98975 3.84358 11.0833 6.41667 11.0833C7.4935 11.0833 8.48342 10.7129 9.27325 10.0987L11.2542 12.0791C11.368 12.1928 11.5173 12.25 11.6667 12.25C11.816 12.25 11.9653 12.1928 12.0791 12.0791C12.3072 11.851 12.3072 11.4823 12.0791 11.2542Z" fill="white"/>
<mask id="mask0_3168_17018" style="mask-type:luminance" maskUnits="userSpaceOnUse" x="1" y="1" width="12" height="12">
<path fill-rule="evenodd" clip-rule="evenodd" d="M2.91667 6.41667C2.91667 4.48642 4.48642 2.91667 6.41667 2.91667C8.34692 2.91667 9.91667 4.48642 9.91667 6.41667C9.91667 8.34692 8.34692 9.91667 6.41667 9.91667C4.48642 9.91667 2.91667 8.34692 2.91667 6.41667ZM12.0791 11.2542L10.0987 9.27325C10.7129 8.48342 11.0833 7.4935 11.0833 6.41667C11.0833 3.84358 8.98975 1.75 6.41667 1.75C3.84358 1.75 1.75 3.84358 1.75 6.41667C1.75 8.98975 3.84358 11.0833 6.41667 11.0833C7.4935 11.0833 8.48342 10.7129 9.27325 10.0987L11.2542 12.0791C11.368 12.1928 11.5173 12.25 11.6667 12.25C11.816 12.25 11.9653 12.1928 12.0791 12.0791C12.3072 11.851 12.3072 11.4823 12.0791 11.2542Z" fill="white"/>
</mask>
<g mask="url(#mask0_3168_17018)">
<rect width="14" height="14" fill="white"/>
</g>
</svg>
