<svg width="15" height="15" viewBox="0 0 15 15" fill="none" xmlns="http://www.w3.org/2000/svg">
<g id="Calendar">
<path id="Vector" d="M13.1816 2.25598H10.5566V1.25598C10.5566 1.18723 10.5003 1.13098 10.4316 1.13098H9.55658C9.48783 1.13098 9.43158 1.18723 9.43158 1.25598V2.25598H5.43158V1.25598C5.43158 1.18723 5.37533 1.13098 5.30658 1.13098H4.43158C4.36283 1.13098 4.30658 1.18723 4.30658 1.25598V2.25598H1.68158C1.40502 2.25598 1.18158 2.47942 1.18158 2.75598V13.131C1.18158 13.4075 1.40502 13.631 1.68158 13.631H13.1816C13.4581 13.631 13.6816 13.4075 13.6816 13.131V2.75598C13.6816 2.47942 13.4581 2.25598 13.1816 2.25598ZM12.5566 12.506H2.30658V6.56848H12.5566V12.506ZM2.30658 5.50598V3.38098H4.30658V4.13098C4.30658 4.19973 4.36283 4.25598 4.43158 4.25598H5.30658C5.37533 4.25598 5.43158 4.19973 5.43158 4.13098V3.38098H9.43158V4.13098C9.43158 4.19973 9.48783 4.25598 9.55658 4.25598H10.4316C10.5003 4.25598 10.5566 4.19973 10.5566 4.13098V3.38098H12.5566V5.50598H2.30658Z" fill="white"/>
</g>
</svg>
