<svg width="19" height="19" viewBox="0 0 19 19" fill="none" xmlns="http://www.w3.org/2000/svg">
<g id="Heart">
<path id="Vector (Stroke)" fill-rule="evenodd" clip-rule="evenodd" d="M9.25043 14.718L14.1363 9.93659C15.3248 8.72629 15.75 7.70797 15.75 6.86646C15.75 5.82266 15.461 5.16681 15.0211 4.73039C14.5786 4.29131 13.915 4.00317 12.8655 4.00317C12.6571 4.00317 12.4278 4.03956 12.1724 4.12607C11.9021 4.21762 11.655 4.33942 11.4279 4.4912C11.1314 4.68936 10.889 4.86689 10.6958 5.02391C10.5009 5.1824 10.316 5.35053 10.1409 5.5284L9.25 6.43369L8.35907 5.5284C8.18403 5.35053 7.99912 5.1824 7.80416 5.02391C7.611 4.86689 7.3686 4.68936 7.07208 4.4912C6.84496 4.33942 6.59793 4.21762 6.32765 4.12607C6.07224 4.03956 5.84288 4.00317 5.63449 4.00317C4.58496 4.00317 3.92143 4.29131 3.47888 4.73039C3.03899 5.16681 2.75 5.82266 2.75 6.86646C2.75 7.11344 2.7924 7.38703 2.8918 7.6922C3.00666 8.04481 3.12669 8.31133 3.24238 8.50726C3.38593 8.75037 3.55023 8.99015 3.73633 9.22652C3.95564 9.50508 4.08261 9.654 4.13742 9.71128C4.1794 9.75516 4.2117 9.78751 4.23538 9.81025C4.25303 9.82721 4.26186 9.83495 4.26313 9.83608L4.30566 9.87065L9.25043 14.718ZM15.0193 10.8215L9.63058 16.095C9.52678 16.2004 9.39993 16.2532 9.25 16.2532C9.10007 16.2532 8.97321 16.2004 8.86942 16.095L3.4721 10.804C3.41443 10.7571 3.33515 10.6809 3.23424 10.5754C3.13332 10.47 2.97331 10.2781 2.75419 9.99976C2.53506 9.72144 2.33901 9.43579 2.16602 9.14282C1.99302 8.84985 1.83877 8.49536 1.70326 8.07935C1.56775 7.66333 1.5 7.25903 1.5 6.86646C1.5 5.57739 1.86616 4.56958 2.59849 3.84302C3.33082 3.11646 4.34282 2.75317 5.63449 2.75317C5.992 2.75317 6.35672 2.81616 6.72865 2.94214C7.10059 3.06812 7.44657 3.23804 7.7666 3.4519C8.08663 3.66577 8.36198 3.86646 8.59263 4.05396C8.75686 4.18746 8.91525 4.3269 9.06778 4.47229C9.12948 4.53109 9.19022 4.59086 9.25 4.65161C9.30978 4.59087 9.37052 4.53109 9.43221 4.47229C9.58475 4.3269 9.74314 4.18746 9.90737 4.05396C10.138 3.86646 10.4134 3.66577 10.7334 3.4519C11.0534 3.23804 11.3994 3.06812 11.7713 2.94214C12.1433 2.81616 12.508 2.75317 12.8655 2.75317C14.1572 2.75317 15.1692 3.11646 15.9015 3.84302C16.6338 4.56958 17 5.57739 17 6.86646C17 8.16138 16.3398 9.47974 15.0193 10.8215Z" fill="#6B56CA"/>
</g>
</svg>
