<svg width="19" height="19" viewBox="0 0 19 19" fill="none" xmlns="http://www.w3.org/2000/svg">
<g id="heart">
<path id="Vector" d="M9.75 16.5061C9.60007 16.5061 9.47321 16.4534 9.36942 16.3479L3.9721 11.0569C3.91443 11.01 3.83515 10.9338 3.73424 10.8284C3.63332 10.7229 3.47331 10.531 3.25419 10.2527C3.03506 9.97437 2.83901 9.68872 2.66602 9.39575C2.49302 9.10278 2.33877 8.74829 2.20326 8.33228C2.06775 7.91626 2 7.51196 2 7.11938C2 5.83032 2.36616 4.82251 3.09849 4.09595C3.83082 3.36938 4.84282 3.0061 6.13449 3.0061C6.492 3.0061 6.85672 3.06909 7.22865 3.19507C7.60059 3.32104 7.94657 3.49097 8.2666 3.70483C8.58663 3.9187 8.86198 4.11938 9.09263 4.30688C9.32329 4.49438 9.54241 4.6936 9.75 4.90454C9.95759 4.6936 10.1767 4.49438 10.4074 4.30688C10.638 4.11938 10.9134 3.9187 11.2334 3.70483C11.5534 3.49097 11.8994 3.32104 12.2713 3.19507C12.6433 3.06909 13.008 3.0061 13.3655 3.0061C14.6572 3.0061 15.6692 3.36938 16.4015 4.09595C17.1338 4.82251 17.5 5.83032 17.5 7.11938C17.5 8.41431 16.8398 9.73267 15.5193 11.0745L10.1306 16.3479C10.0268 16.4534 9.89993 16.5061 9.75 16.5061Z" fill="#6B56CA"/>
</g>
</svg>
