<svg width="20" height="20" viewBox="0 0 20 20" fill="none" xmlns="http://www.w3.org/2000/svg">
<g id="RightCircle" clip-path="url(#clip0_4062_54929)">
<path id="Vector" d="M10.2334 0.555542C4.9001 0.555542 0.555664 4.89443 0.555664 10.2333C0.555664 15.5722 4.89454 19.9111 10.2334 19.9111C15.5723 19.9111 19.9112 15.5722 19.9112 10.2333C19.9112 4.89443 15.5723 0.555542 10.2334 0.555542ZM10.2334 18.5555C5.64454 18.5555 1.90566 14.8222 1.90566 10.2278C1.90566 5.63332 5.63899 1.89999 10.2334 1.89999C14.8279 1.89999 18.5612 5.63332 18.5612 10.2278C18.5612 14.8222 14.8279 18.5555 10.2334 18.5555Z" fill="#917FDD"/>
<path id="Vector_2" d="M14.5054 10.2333C14.5054 10.1444 14.4887 10.0556 14.4554 9.97222C14.4276 9.91111 14.3887 9.85556 14.3443 9.8C14.3332 9.78333 14.3276 9.76666 14.311 9.75L10.7109 6.15C10.4498 5.88888 10.0221 5.88888 9.75539 6.15C9.49428 6.41111 9.49428 6.83889 9.75539 7.10555L12.2054 9.55555H6.63317C6.26095 9.55555 5.96094 9.85555 5.96094 10.2278C5.96094 10.6 6.26095 10.9 6.63317 10.9H12.2054L9.75539 13.35C9.49428 13.6111 9.49428 14.0389 9.75539 14.3056C9.88872 14.4389 10.0609 14.5056 10.2332 14.5056C10.4054 14.5056 10.5776 14.4389 10.7109 14.3056L14.311 10.7056C14.311 10.7056 14.3276 10.6722 14.3443 10.6556C14.3887 10.6056 14.4331 10.55 14.4554 10.4833C14.4887 10.4 14.5054 10.3111 14.5054 10.2222V10.2333Z" fill="#917FDD"/>
</g>
<defs>
<clipPath id="clip0_4062_54929">
<rect width="20" height="20" fill="white"/>
</clipPath>
</defs>
</svg>
