<svg width="32" height="33" viewBox="0 0 32 33" fill="none" xmlns="http://www.w3.org/2000/svg">
<g id="RightCircle" clip-path="url(#clip0_4112_26397)">
<path id="Vector" d="M16.3733 1.39465C7.84001 1.39465 0.888916 8.33688 0.888916 16.8791C0.888916 25.4213 7.83112 32.3635 16.3733 32.3635C24.9156 32.3635 31.8578 25.4213 31.8578 16.8791C31.8578 8.33688 24.9156 1.39465 16.3733 1.39465ZM16.3733 30.1947C9.03112 30.1947 3.04891 24.2213 3.04891 16.8702C3.04891 9.5191 9.02223 3.54577 16.3733 3.54577C23.7245 3.54577 29.6978 9.5191 29.6978 16.8702C29.6978 24.2213 23.7245 30.1947 16.3733 30.1947Z" fill="#6B56CA"/>
<path id="Vector_2" d="M23.209 16.879C23.209 16.7368 23.1823 16.5946 23.1289 16.4612C23.0845 16.3635 23.0223 16.2746 22.9512 16.1857C22.9334 16.159 22.9245 16.1324 22.8979 16.1057L17.1378 10.3457C16.7201 9.9279 16.0356 9.9279 15.609 10.3457C15.1912 10.7635 15.1912 11.4479 15.609 11.8746L19.5289 15.7946H10.6134C10.0179 15.7946 9.53784 16.2746 9.53784 16.8701C9.53784 17.4657 10.0179 17.9457 10.6134 17.9457H19.5289L15.609 21.8657C15.1912 22.2835 15.1912 22.9679 15.609 23.3946C15.8223 23.6079 16.0978 23.7146 16.3734 23.7146C16.649 23.7146 16.9245 23.6079 17.1378 23.3946L22.8979 17.6346C22.8979 17.6346 22.9245 17.5812 22.9512 17.5546C23.0223 17.4746 23.0934 17.3857 23.1289 17.279C23.1823 17.1457 23.209 17.0035 23.209 16.8612V16.879Z" fill="#6B56CA"/>
</g>
<defs>
<clipPath id="clip0_4112_26397">
<rect width="32" height="32" fill="white" transform="translate(0 0.505737)"/>
</clipPath>
</defs>
</svg>
