<svg width="32" height="32" viewBox="0 0 32 32" fill="none" xmlns="http://www.w3.org/2000/svg">
<g id="RightCircle" clip-path="url(#clip0_4112_26336)">
<path id="Vector" d="M16.3733 0.888916C7.84001 0.888916 0.888916 7.83114 0.888916 16.3734C0.888916 24.9156 7.83112 31.8578 16.3733 31.8578C24.9156 31.8578 31.8578 24.9156 31.8578 16.3734C31.8578 7.83114 24.9156 0.888916 16.3733 0.888916ZM16.3733 29.6889C9.03112 29.6889 3.04891 23.7156 3.04891 16.3645C3.04891 9.01336 9.02223 3.04003 16.3733 3.04003C23.7245 3.04003 29.6978 9.01336 29.6978 16.3645C29.6978 23.7156 23.7245 29.6889 16.3733 29.6889Z" fill="#DDDEE0"/>
<path id="Vector_2" d="M23.2089 16.3733C23.2089 16.2311 23.1822 16.0888 23.1289 15.9555C23.0844 15.8577 23.0222 15.7688 22.9511 15.68C22.9334 15.6533 22.9245 15.6266 22.8978 15.5999L17.1378 9.83994C16.72 9.42217 16.0356 9.42217 15.6089 9.83994C15.1911 10.2577 15.1911 10.9422 15.6089 11.3688L19.5289 15.2888H10.6134C10.0178 15.2888 9.53778 15.7688 9.53778 16.3644C9.53778 16.9599 10.0178 17.4399 10.6134 17.4399H19.5289L15.6089 21.36C15.1911 21.7777 15.1911 22.4622 15.6089 22.8888C15.8222 23.1022 16.0978 23.2088 16.3733 23.2088C16.6489 23.2088 16.9244 23.1022 17.1378 22.8888L22.8978 17.1288C22.8978 17.1288 22.9245 17.0755 22.9511 17.0488C23.0222 16.9688 23.0933 16.8799 23.1289 16.7733C23.1822 16.6399 23.2089 16.4977 23.2089 16.3555V16.3733Z" fill="#DDDEE0"/>
</g>
<defs>
<clipPath id="clip0_4112_26336">
<rect width="32" height="32" fill="white"/>
</clipPath>
</defs>
</svg>
