<svg width="18" height="18" viewBox="0 0 18 18" fill="none" xmlns="http://www.w3.org/2000/svg">
<g id="ShareAlt">
<path id="Vector" d="M13.8212 12.0536C13.2486 12.0536 12.7203 12.2545 12.3064 12.59L8.14392 9.57857C8.21362 9.19601 8.21362 8.804 8.14392 8.42143L12.3064 5.41004C12.7203 5.74554 13.2486 5.94643 13.8212 5.94643C15.1511 5.94643 16.2319 4.86563 16.2319 3.53571C16.2319 2.2058 15.1511 1.125 13.8212 1.125C12.4912 1.125 11.4104 2.2058 11.4104 3.53571C11.4104 3.76875 11.4426 3.99174 11.5049 4.20469L7.55128 7.06741C6.96468 6.28996 6.03253 5.78571 4.98186 5.78571C3.20597 5.78571 1.76758 7.22411 1.76758 9C1.76758 10.7759 3.20597 12.2143 4.98186 12.2143C6.03253 12.2143 6.96468 11.71 7.55128 10.9326L11.5049 13.7953C11.4426 14.0083 11.4104 14.2333 11.4104 14.4643C11.4104 15.7942 12.4912 16.875 13.8212 16.875C15.1511 16.875 16.2319 15.7942 16.2319 14.4643C16.2319 13.1344 15.1511 12.0536 13.8212 12.0536ZM13.8212 2.49107C14.3977 2.49107 14.8658 2.95915 14.8658 3.53571C14.8658 4.11228 14.3977 4.58036 13.8212 4.58036C13.2446 4.58036 12.7765 4.11228 12.7765 3.53571C12.7765 2.95915 13.2446 2.49107 13.8212 2.49107ZM4.98186 10.7679C4.00753 10.7679 3.21401 9.97433 3.21401 9C3.21401 8.02567 4.00753 7.23214 4.98186 7.23214C5.95619 7.23214 6.74972 8.02567 6.74972 9C6.74972 9.97433 5.95619 10.7679 4.98186 10.7679ZM13.8212 15.5089C13.2446 15.5089 12.7765 15.0408 12.7765 14.4643C12.7765 13.8877 13.2446 13.4196 13.8212 13.4196C14.3977 13.4196 14.8658 13.8877 14.8658 14.4643C14.8658 15.0408 14.3977 15.5089 13.8212 15.5089Z" fill="#6B56CA"/>
</g>
</svg>
