<svg width="301" height="600" viewBox="0 0 301 600" fill="none" xmlns="http://www.w3.org/2000/svg">
<g opacity="0.1" clip-path="url(#clip0_189_5026)">
<path d="M296.088 65.2675C292.756 59.1355 287.47 54.533 280.956 52.0338C273.567 49.2067 265.373 49.275 257.589 49.6711C250.541 50.0262 243.494 50.4905 236.434 50.9002C232.254 51.146 228.089 51.3919 223.91 51.6377C223.664 51.6514 223.405 51.665 223.159 51.6787C223.145 51.624 223.118 51.5694 223.104 51.5148C213.121 25.9759 188.606 6.82855 161.292 3.78301C157.113 3.31866 152.579 3.10015 148.249 3.75569C145.477 1.78906 142.131 0.587233 138.58 0.163861C130.372 -0.805797 122.519 2.47192 115.595 6.58273C102.307 14.4629 89.9605 24.2278 78.7753 34.853C67.6311 45.4373 57.593 57.1825 48.8388 69.8154C39.8251 82.8307 31.4805 97.0614 26.2635 112.057C21.1148 126.834 20.3773 144.752 31.1664 157.317C32.4365 158.792 33.8296 160.103 35.3046 161.305C10.8719 182.76 -9.99625 208.272 -26.1663 236.487C-30.919 244.777 -35.2483 253.286 -39.1679 261.999C-40.2469 264.389 -36.7096 266.465 -35.6307 264.061C-21.8233 233.374 -2.7443 205.144 20.6368 180.916C26.4274 174.921 32.4775 169.199 38.7598 163.722C47.8691 169.321 59.546 170.687 69.8982 168.434C85.2761 165.088 98.3324 154.777 108.78 143.414C119.337 131.928 127.682 118.517 133.418 104.013C136.231 96.8839 138.375 89.509 139.836 81.9839C140.342 79.4027 136.381 78.3101 135.89 80.8913C130.522 108.574 115.349 135.22 92.9105 152.605C82.1077 160.963 68.6826 166.931 54.766 165.047C50.3138 164.446 45.8752 163.053 41.9283 160.827C43.0072 159.12 40.4396 156.852 38.6232 158.409C38.5686 158.45 38.5276 158.491 38.473 158.532C38.1862 158.314 37.8858 158.095 37.599 157.863C32.3273 153.479 29.0359 147.388 27.5746 140.737C24.2559 125.687 30.4153 110.65 37.121 97.4575C43.4579 84.9748 50.9966 73.0794 59.6143 62.0445C68.232 51.0095 77.9012 40.7939 88.4309 31.589C93.7026 26.9729 99.2064 22.6162 104.901 18.5464C110.815 14.3127 116.947 9.99702 123.584 6.97878C129.389 4.32929 136.463 2.89529 142.582 5.27164C141.489 5.70867 140.424 6.22764 139.427 6.85587C134.346 10.038 130.877 16.6071 132.748 22.6026C134.92 29.5541 143.483 32.0533 149.465 28.243C155.037 24.6921 156.73 17.6177 154.409 11.6086C153.821 10.0653 153.029 8.68593 152.087 7.45678C155.365 7.2929 158.711 7.5797 161.784 7.94844C167.888 8.67227 173.938 10.3521 179.606 12.7284C191.051 17.5085 201.184 25.3204 208.914 34.9896C212.766 39.8106 215.989 45.1915 218.433 50.8456C218.611 51.2553 218.775 51.665 218.939 52.0747C217.983 52.2932 217.081 52.662 216.303 53.2902C212.479 56.3631 213.312 63.178 218.147 64.7486C221.069 65.6909 224.497 64.4618 225.385 61.3206C225.836 59.6954 225.344 58.1522 224.88 56.5952C224.784 56.2948 224.688 55.9943 224.593 55.6939C226.355 55.5846 228.13 55.489 229.892 55.3798C237.472 54.9291 245.051 54.492 252.631 54.0414C255.745 53.8638 258.954 53.6316 262.191 53.5497C260.142 59.9139 261.74 67.3025 267.067 71.6728C272.598 76.2069 280.533 77.04 286.651 73.1614C289.082 71.6181 291.049 69.5149 292.442 67.043C296.143 73.735 297.14 82.0795 295.364 89.3997C292.278 102.183 281.994 112.071 270.59 117.889C256.51 125.072 240.162 126.998 224.606 128.2C208.901 129.415 192.485 128.992 177.844 122.532C171.521 119.746 165.717 115.922 160.868 110.964C159.025 109.08 156.129 111.975 157.973 113.86C168.626 124.772 183.321 130.207 198.221 132.051C184.646 138.497 173.215 149.027 165.812 162.124C165.13 160.95 164.283 159.871 163.218 158.969C160.759 156.866 157.454 155.883 154.245 156.06C150.325 156.279 147.143 158.136 144.043 160.39C118.886 178.704 107.688 209.31 97.9226 237.621C85.6995 273.089 75.5112 309.266 67.4535 345.909C66.4565 350.456 65.4869 355.004 64.5445 359.566C64.0119 362.133 67.9588 363.239 68.4915 360.658C75.2791 327.635 83.7465 294.967 93.9074 262.818C98.6192 247.905 103.522 232.991 109.231 218.419C114.216 205.677 120.116 193.14 128.228 182.064C132.229 176.601 136.818 171.561 141.981 167.177C146.597 163.258 153.466 157.358 159.735 161.469C164.092 164.323 164.31 170.687 163.969 175.344C163.436 182.692 161.51 190.135 159.189 197.1C158.984 197.728 158.738 198.343 158.506 198.971C152.428 201.648 146.815 205.349 142.09 210.047C138.402 213.707 133.745 220.331 137.132 225.63C138.826 228.279 142.363 229.222 145.299 228.43C148.837 227.46 150.585 224.401 152.374 221.478C156.129 215.332 159.271 208.804 161.77 202.058C165.143 200.706 168.639 199.681 172.218 199.026C184.919 196.677 198.125 199.19 208.887 206.373C219.458 213.42 227.324 224.496 230.547 236.788C231.367 239.902 231.858 243.056 232.05 246.266C232.118 247.358 232.937 248.328 234.098 248.314C242.088 248.192 250.063 248.069 258.053 247.959C261.112 260.387 259.542 273.799 253.505 285.134C247.605 296.21 237.512 304.855 225.754 309.198C220.004 311.315 214.159 312.175 208.081 312.53C202.81 312.845 197.319 313.049 192.362 315.043C187.159 317.147 183.171 321.408 182.023 326.993C181.272 330.599 181.805 334.122 182.324 337.714C183.512 346.059 185.042 354.376 186.776 362.625C187.65 366.804 188.593 370.969 189.74 375.08C190.491 377.798 191.242 380.734 192.676 383.193C194.52 386.375 196.555 389.325 198.084 392.698C200.078 397.068 201.581 401.657 202.81 406.3C205.732 417.281 207.016 428.685 207.016 440.034C207.016 452.748 205.364 465.463 201.731 477.659C198.89 487.192 194.315 495.987 190.546 505.165C186.585 514.779 183.007 524.558 179.866 534.473C177.517 541.889 175.304 549.441 173.966 557.13C172.163 557.253 170.374 557.799 168.68 558.974C164.337 561.978 162.876 568.739 168.202 571.566C170.101 572.576 172.614 572.863 174.539 571.784C176.724 570.582 176.875 568.834 176.943 566.608C176.998 564.901 177.148 563.208 177.353 561.5C179.36 561.978 181.286 562.962 182.952 564.013C193.892 570.938 204.107 578.9 214.131 587.053C215.101 587.845 217.395 589.033 217.792 590.208C218.133 591.218 217.04 592.42 216.303 592.98C215.142 593.854 213.858 593.813 212.465 593.923C210.826 594.045 209.174 594.168 207.535 594.278C202.769 594.619 198.016 594.96 193.25 595.234C184.687 595.725 176.137 595.903 167.561 595.93C157.714 595.971 147.799 596.217 137.952 595.684C133.882 595.466 129.771 595.083 125.811 594.018C123.803 593.472 119.883 592.461 119.46 589.976C119.351 589.32 119.597 588.705 119.774 588.091C120.266 586.493 120.812 584.909 121.331 583.311C122.342 580.156 123.325 577.001 124.281 573.819C126.275 567.1 128.091 560.326 129.553 553.456C131.738 543.241 133.144 532.807 133.349 522.359C133.349 522.318 133.349 522.291 133.349 522.25C133.431 518.235 133.349 514.233 133.035 510.218C132.462 502.679 131.178 495.209 129.198 487.902C128.501 485.362 124.554 486.441 125.251 488.995C128.064 499.347 129.211 509.767 129.143 520.147C122.26 521.116 115.226 521.307 108.288 521.321C99.8347 521.321 91.3126 520.98 82.9407 519.764C79.704 519.3 76.4809 518.685 73.3398 517.784C74.1046 511.584 74.2138 505.315 73.6949 499.169C72.097 480.459 64.763 462.363 52.1575 448.365C50.3957 446.398 47.5004 449.307 49.2622 451.26C69.2836 473.494 75.2108 506.899 64.9952 534.896C63.6978 538.447 62.1409 541.93 60.2835 545.221C58.8085 547.816 57.0468 550.424 54.725 552.35C52.3623 549.824 49.7402 547.529 46.7356 545.959C42.2014 543.582 36.9024 543.951 35.0724 549.55C32.9692 555.956 40.9176 558.783 45.7796 559.22C48.7978 559.493 51.5156 558.865 53.9193 557.649C54.0695 557.827 54.2334 558.018 54.3836 558.195C58.7129 563.385 62.3184 569.258 65.2001 575.362C67.4126 580.06 69.3928 585.237 69.8162 590.495C53.4959 591.546 37.121 591.737 20.7733 591.382C7.77171 591.095 -5.20259 590.249 -18.1906 589.853C-33.5549 589.388 -49.3425 590.549 -64.2288 585.96C-77.8314 581.768 -90.2048 572.74 -99.1639 561.76C-103.507 556.434 -107.099 550.356 -109.434 543.883C-111.701 537.6 -112.657 531.072 -112.835 524.421C-113.217 510.668 -110.964 495.932 -104.395 483.682C-100.789 476.976 -95.613 471.063 -90.355 465.6C-84.8511 459.891 -78.883 454.674 -72.7236 449.689C-59.8312 439.255 -46.297 429.545 -32.5169 420.313C-4.73824 401.684 24.5154 385.282 54.8889 371.311C58.6446 369.59 62.4004 367.897 66.1834 366.244C68.5871 365.192 66.5112 361.655 64.1212 362.707C32.7234 376.432 2.44543 392.698 -26.3166 411.326C-40.6702 420.627 -54.6552 430.515 -68.2031 440.949C-81.1637 450.932 -93.742 461.612 -103.534 474.818C-112.124 486.4 -115.744 500.917 -116.713 515.121C-117.191 522.045 -117.027 529.106 -115.798 535.948C-114.555 542.817 -111.961 549.455 -108.451 555.478C-101.308 567.714 -90.3823 577.67 -78.0089 584.472C-71.1394 588.255 -63.7099 590.781 -55.9936 592.079C-48.1953 593.404 -40.2742 593.649 -32.3667 593.731C-18.6003 593.882 -4.87482 594.619 8.87794 595.111C25.4441 595.712 42.0239 595.862 58.5764 595.179C63.0423 595.001 67.5081 594.742 71.974 594.442C73.0803 594.36 74.0226 593.567 74.0226 592.393C73.9953 586.275 71.8921 580.293 69.4338 574.775C66.6341 568.479 63.0013 562.538 58.7539 557.103C58.3032 556.516 57.8389 555.942 57.3609 555.355C59.9011 553.238 62.018 550.452 63.7115 547.502C68.232 539.635 71.1956 530.881 72.7388 521.867C79.4308 523.766 86.5326 524.435 93.4158 524.913C102.143 525.514 110.938 525.582 119.665 525.09C122.806 524.913 125.933 524.653 129.061 524.257C128.351 543.377 123.694 562.388 117.835 580.812C116.592 584.731 113.82 589.593 116.674 593.417C118.791 596.272 122.656 597.473 125.974 598.238C134.578 600.205 143.579 599.945 152.346 599.973C163.122 600.014 173.925 600.082 184.7 599.699C189.071 599.536 193.441 599.303 197.811 599.017C203.547 598.648 209.461 598.566 215.142 597.747C219.922 597.064 224.497 590.85 220.304 586.78C217.518 584.062 214.145 581.754 211.1 579.323C208.559 577.302 206.005 575.294 203.424 573.328C198.18 569.34 192.799 565.557 187.295 561.924C184.536 560.107 181.286 558.25 177.954 557.458C179.128 550.766 181.163 544.142 183.13 537.778C186.38 527.248 190.163 516.869 194.329 506.681C198.371 496.793 203.274 487.356 206.197 477.031C212.971 453.035 213.066 426.185 205.951 402.231C204.558 397.519 202.823 392.875 200.625 388.478C199.136 385.501 196.882 382.837 195.599 379.806C194.206 376.501 193.373 372.854 192.512 369.358C191.379 364.687 190.395 359.975 189.48 355.25C188.033 347.807 186.448 340.227 185.806 332.647C185.26 326.242 188.415 320.738 194.533 318.581C200.01 316.641 205.992 316.819 211.714 316.382C224.716 315.371 237.089 309.922 246.567 300.949C256.414 291.621 262.287 278.825 263.502 265.372C264.103 258.653 263.447 251.838 261.645 245.337C261.413 244.477 260.566 243.821 259.664 243.835C251.771 243.958 243.877 244.067 235.997 244.19C233.265 216.343 208.983 193.495 180.644 194.096C174.84 194.218 169.049 195.243 163.532 197.086C165.867 189.862 167.752 182.159 168.134 174.579C168.257 172.258 168.161 169.745 167.683 167.341C174.963 152.837 187.322 141.01 202.318 134.701C203.219 134.318 203.875 133.581 203.82 132.611C212.301 133.171 220.81 132.734 229.264 131.928C237.922 131.095 246.595 130.016 255.048 127.913C269.948 124.185 284.343 116.755 293.247 103.849C301.059 92.5272 302.794 77.5863 296.115 65.2949L296.088 65.2675ZM151.063 19.5297C149.601 25.2794 141.448 28.7483 137.515 23.1762C134.333 18.6693 137.815 12.5236 141.953 10.1063C143.579 9.16393 145.34 8.52204 147.184 8.09867C150.298 10.9803 152.142 15.2687 151.063 19.5161V19.5297ZM218.147 59.6544C217.628 58.439 218.051 56.7728 219.294 56.1855C219.635 56.0216 220.018 55.967 220.4 55.9397C220.851 57.1279 221.342 58.398 221.452 59.5725C221.643 61.744 218.775 61.0885 218.16 59.6544H218.147ZM273.8 70.8943C267.039 68.6272 263.434 60.747 266.247 54.1233C266.329 53.9321 266.384 53.7546 266.425 53.5634C272.639 53.7409 278.771 54.7788 284.097 58.0975C286.282 59.4633 288.167 61.1841 289.765 63.1234C287.47 69.5969 280.314 73.0794 273.813 70.8806L273.8 70.8943ZM45.247 555.054C43.3213 554.795 40.3577 554.18 39.1559 552.446C38.7735 551.899 38.7462 551.449 38.951 550.78C39.1149 550.233 39.47 549.728 39.8114 549.291C39.948 549.127 40.0982 548.909 40.2621 548.786C40.3031 548.745 40.1528 548.813 40.5352 548.676C40.9313 548.54 41.6688 548.512 41.9146 548.553C42.6248 548.649 43.4989 548.949 43.9769 549.168C46.6537 550.37 49.0027 552.336 51.1059 554.508C49.2485 555.191 47.2819 555.341 45.2606 555.068L45.247 555.054ZM172.573 568.138C172.204 568.274 171.917 568.343 171.507 568.315C170.661 568.274 169.595 567.824 169.117 567.1C167.438 564.601 170.961 561.842 173.064 561.35C173.146 561.337 173.215 561.337 173.297 561.309C173.242 561.719 173.174 562.142 173.133 562.552C172.928 564.3 172.969 566.062 172.819 567.81C172.791 568.179 173.119 567.919 172.586 568.124L172.573 568.138ZM149.642 218.091C148.126 220.659 146.16 225.37 142.418 224.565C139.468 223.936 140.014 220.672 140.888 218.555C143.142 213.065 149.301 208.791 154.19 205.841C154.914 205.404 155.638 204.994 156.375 204.598C154.436 209.241 152.21 213.775 149.642 218.105V218.091Z" fill="#F27541"/>
<path d="M197.279 237.976C197.279 234.671 194.602 231.981 191.297 231.981C187.992 231.981 185.315 234.657 185.315 237.976C185.315 241.295 187.992 243.958 191.297 243.958C194.602 243.958 197.279 241.281 197.279 237.976Z" fill="#F27541"/>
<path d="M182.843 64.9944C186.148 64.9944 188.825 62.3176 188.825 59.0126C188.825 55.7075 186.148 53.0171 182.843 53.0171C179.538 53.0171 176.861 55.6939 176.861 59.0126C176.861 62.3313 179.538 64.9944 182.843 64.9944Z" fill="#F27541"/>
</g>
<defs>
<clipPath id="clip0_189_5026">
<rect width="417.226" height="600" fill="white" transform="translate(-117)"/>
</clipPath>
</defs>
</svg>
