<svg width="21" height="20" viewBox="0 0 21 20" fill="none" xmlns="http://www.w3.org/2000/svg">
<g clip-path="url(#clip0_113_7605)">
<path d="M14.0396 19.4819C13.6164 19.3759 12.9169 19.195 12.2149 19.027C11.757 18.9176 11.2991 18.8047 10.8345 18.7358C10.2321 18.6471 9.64754 18.8073 9.06801 18.9521C8.44793 19.1071 7.83545 19.3027 7.20945 19.4216C6.31904 19.5905 5.45312 19.5172 4.71139 18.9055C3.82266 18.1723 3.44672 17.2048 3.53965 16.0555C3.64525 14.7537 4.2459 13.6845 5.17265 12.8246C6.07742 11.9846 6.80986 11.0179 7.45107 9.96597C7.77462 9.43525 8.11677 8.91832 8.58648 8.50563C9.88071 7.36751 11.6185 7.49588 12.7454 8.84767C13.1484 9.331 13.4795 9.87809 13.8276 10.4062C14.3708 11.2299 14.9529 12.0156 15.6853 12.6782C16.4744 13.3915 17.0598 14.2497 17.3377 15.2999C17.6976 16.662 17.3876 18.0276 16.2733 18.9236C15.7014 19.3837 15.0382 19.5138 14.0405 19.4811L14.0396 19.4819Z" fill="#FEBEA3"/>
<path d="M16.1981 3.35694C16.1432 4.83796 15.7571 6.00193 14.7678 6.88417C14.1418 7.44246 13.4145 7.68284 12.6009 7.34166C11.9927 7.08664 11.6269 6.58176 11.392 5.97436C10.7736 4.37444 11.2594 2.25931 12.519 1.13325C13.1864 0.536189 13.9543 0.297537 14.7991 0.698163C15.4758 1.01866 15.8348 1.63296 16.0232 2.34202C16.1254 2.72628 16.1601 3.12863 16.1981 3.3578V3.35694Z" fill="#FEBEA3"/>
<path d="M4.78589 3.53268C4.81461 2.77709 4.96921 2.07061 5.38316 1.44253C6.05478 0.422445 7.26368 0.214809 8.23942 0.936797C9.0876 1.56488 9.54126 2.44281 9.76429 3.45859C9.94592 4.28655 9.93325 5.11451 9.63165 5.91576C9.34865 6.66704 8.8933 7.25635 8.07891 7.44503C7.42757 7.5958 6.8548 7.38127 6.34539 6.97892C5.62224 6.40685 5.19815 5.63058 4.97935 4.73887C4.88304 4.34513 4.8484 3.93589 4.78589 3.53354V3.53268Z" fill="#FEBEA3"/>
<path d="M21.0001 8.38242C20.9241 9.82898 20.3834 10.9585 19.2446 11.7546C18.4691 12.2965 17.5221 12.3275 16.8488 11.8399C16.2405 11.4005 15.9626 10.7577 15.9296 10.0306C15.857 8.42636 16.4636 7.1478 17.822 6.2983C18.3897 5.94334 19.0225 5.84426 19.6637 6.0967C20.3598 6.37068 20.7298 6.93672 20.8979 7.65009C20.9587 7.90598 20.9722 8.17306 21.0001 8.38242Z" fill="#FEBEA3"/>
<path d="M0 8.41861C0.00675839 7.8629 0.128409 7.34596 0.41902 6.87813C0.951243 6.01916 1.96923 5.72364 2.92131 6.16735C4.02969 6.68342 4.65991 7.60702 4.96995 8.77701C5.14398 9.43352 5.15496 10.0961 4.92687 10.7465C4.47321 12.0389 3.27444 12.5446 2.0706 11.9295C0.991793 11.3781 0.391987 10.4381 0.110669 9.26983C0.0439295 8.99413 0.0354815 8.70378 0 8.41947L0 8.41861Z" fill="#FEBEA3"/>
</g>
<defs>
<clipPath id="clip0_113_7605">
<rect width="21" height="19" fill="white" transform="translate(0 0.5)"/>
</clipPath>
</defs>
</svg>
