<svg width="1440" height="56" viewBox="0 0 1440 56" fill="none" xmlns="http://www.w3.org/2000/svg">
<path d="M1242.23 56C1315.83 56 1307.82 27.8194 1440 44.0774L1440 0.000125885L4.89566e-06 -3.7885e-09L1.61083e-06 37.5741C56.0779 37.5741 66.0918 55.9999 190.765 55.9999C315.438 55.9999 298.414 37.5741 367.51 37.5741C436.606 37.5741 483.171 55.9999 558.275 55.9999C633.38 55.9999 646.398 37.5742 720 37.5742C793.602 37.5742 820.64 55.9999 898.748 56C976.857 56 997.385 37.5742 1066.48 37.5742C1135.58 37.5742 1168.62 56 1242.23 56Z" fill="#FFEAE1"/>
</svg>
