<svg width="375" height="32" viewBox="0 0 375 32" fill="none" xmlns="http://www.w3.org/2000/svg">
<path d="M323.496 32.0001C342.663 32.0001 340.577 15.8968 375 25.1872L375 6.10352e-05L-2.772e-05 2.82516e-05L-2.95971e-05 21.471C14.6036 21.471 17.2114 32 49.6783 32C82.1453 32 77.7121 21.471 95.7058 21.471C113.7 21.471 125.826 32 145.384 32C164.943 32 168.333 21.471 187.5 21.471C206.667 21.471 213.708 32 234.049 32C254.39 32.0001 259.736 21.471 277.729 21.471C295.723 21.471 304.329 32.0001 323.496 32.0001Z" fill="#FFEAE1"/>
</svg>
