<svg width="44" height="44" viewBox="0 0 44 44" fill="none" xmlns="http://www.w3.org/2000/svg">
<g filter="url(#filter0_d_904_39755)">
<rect x="2.5" y="2" width="39" height="40" rx="19.5" fill="#F27541"/>
<rect x="3" y="2.5" width="38" height="39" rx="19" stroke="#F27541"/>
<path d="M20.926 22.26L20.422 23.828H23.53L23.04 22.26C22.662 21.098 22.34 19.978 22.004 18.788H21.948C21.626 19.992 21.29 21.098 20.926 22.26ZM17.79 28L21.276 17.724H22.718L26.204 28H24.832L23.852 24.864H20.1L19.106 28H17.79Z" fill="white"/>
<g clip-path="url(#clip0_904_39755)">
<rect width="18" height="18" transform="translate(13 13)" fill="#F27541"/>
<path fill-rule="evenodd" clip-rule="evenodd" d="M20.4996 27.2501C20.3301 27.2501 20.1599 27.1931 20.0196 27.0761C19.7016 26.8114 19.6589 26.3381 19.9236 26.0201L23.2806 21.9919L20.0444 17.9704C19.7849 17.6479 19.8359 17.1754 20.1584 16.9159C20.4816 16.6564 20.9534 16.7074 21.2136 17.0299L24.8346 21.5299C25.0581 21.8081 25.0551 22.2056 24.8264 22.4801L21.0764 26.9801C20.9279 27.1579 20.7149 27.2501 20.4996 27.2501Z" fill="white"/>
<mask id="mask0_904_39755" style="mask-type:luminance" maskUnits="userSpaceOnUse" x="19" y="16" width="7" height="12">
<path fill-rule="evenodd" clip-rule="evenodd" d="M20.4996 27.2501C20.3301 27.2501 20.1599 27.1931 20.0196 27.0761C19.7016 26.8114 19.6589 26.3381 19.9236 26.0201L23.2806 21.9919L20.0444 17.9704C19.7849 17.6479 19.8359 17.1754 20.1584 16.9159C20.4816 16.6564 20.9534 16.7074 21.2136 17.0299L24.8346 21.5299C25.0581 21.8081 25.0551 22.2056 24.8264 22.4801L21.0764 26.9801C20.9279 27.1579 20.7149 27.2501 20.4996 27.2501Z" fill="white"/>
</mask>
<g mask="url(#mask0_904_39755)">
<rect x="13" y="13" width="18" height="18" fill="white"/>
</g>
</g>
</g>
<defs>
<filter id="filter0_d_904_39755" x="0.5" y="0" width="43" height="44" filterUnits="userSpaceOnUse" color-interpolation-filters="sRGB">
<feFlood flood-opacity="0" result="BackgroundImageFix"/>
<feColorMatrix in="SourceAlpha" type="matrix" values="0 0 0 0 0 0 0 0 0 0 0 0 0 0 0 0 0 0 127 0" result="hardAlpha"/>
<feOffset/>
<feGaussianBlur stdDeviation="1"/>
<feColorMatrix type="matrix" values="0 0 0 0 0 0 0 0 0 0 0 0 0 0 0 0 0 0 0.06 0"/>
<feBlend mode="normal" in2="BackgroundImageFix" result="effect1_dropShadow_904_39755"/>
<feBlend mode="normal" in="SourceGraphic" in2="effect1_dropShadow_904_39755" result="shape"/>
</filter>
<clipPath id="clip0_904_39755">
<rect width="18" height="18" fill="white" transform="translate(13 13)"/>
</clipPath>
</defs>
</svg>
