<svg width="375" height="104" viewBox="0 0 375 104" fill="none" xmlns="http://www.w3.org/2000/svg">
<rect width="375" height="104" fill="#FB976E"/>
<path d="M126.48 28.272H125.064C124.32 29.28 123.552 30.192 122.76 30.912H127.464C126.912 30.312 126.168 29.592 125.592 29.064L126.48 28.272ZM128.64 33.36V32.568H124.848V33.36H128.64ZM124.848 35.712H128.64V34.896H124.848V35.712ZM131.208 37.344H124.848V47.064H122.28V30.912H122.52C122.088 30.408 121.224 29.52 120.744 29.088C122.184 27.96 123.552 26.208 124.344 24.456L126.864 25.2C126.72 25.488 126.576 25.8 126.408 26.088H131.712V28.272H128.112C128.736 28.8 129.36 29.4 129.72 29.808L128.52 30.912H131.208V37.344ZM133.296 30.912H138.024C137.448 30.312 136.632 29.616 136.008 29.136L137.04 28.248H135.336C134.688 29.28 133.992 30.192 133.296 30.912ZM135.192 33.36H139.08V32.568H135.192V33.36ZM135.192 35.712H139.08V34.896H135.192V35.712ZM130.032 43.416H133.992V42.384H130.032V43.416ZM133.992 39.84H130.032V40.848H133.992V39.84ZM143.016 26.088V28.248H138.672C139.32 28.776 139.992 29.328 140.4 29.76L139.08 30.912H141.744V44.208C141.744 45.528 141.48 46.224 140.616 46.608C139.776 47.04 138.504 47.088 136.728 47.064C136.656 46.464 136.392 45.648 136.128 44.976H130.032V45.816H127.464V38.256H136.512V44.592C137.424 44.64 138.312 44.616 138.6 44.616C138.96 44.616 139.08 44.52 139.08 44.16V37.344H132.624V30.912H133.2C132.696 30.456 131.688 29.64 131.112 29.304C132.456 28.128 133.608 26.304 134.232 24.456L136.824 25.104C136.704 25.44 136.584 25.752 136.44 26.088H143.016ZM162.72 28.704V27.312H159.288V28.704H162.72ZM165.384 25.608V30.408H156.768V25.608H165.384ZM152.64 28.704V27.312H149.28V28.704H152.64ZM155.304 25.608V30.408H146.736V25.608H155.304ZM150.384 38.16H154.44V36.864H150.384V38.16ZM150.384 33.552V34.824H154.44V33.552H150.384ZM161.688 34.824V33.552H157.368V34.824H161.688ZM161.688 38.16V36.864H157.368V38.16H161.688ZM166.704 41.592V44.04H157.368V47.088H154.44V44.04H145.32V41.592H154.44V40.344H147.6V31.344H164.616V40.344H157.368V41.592H166.704Z" fill="white"/>
<path d="M181.44 33.52H189.56V25.8C189.56 24.2 189.68 21.72 189.76 20.08H189.6C188.88 21.6 188.08 23.12 187.24 24.64L181.44 33.52ZM189.56 45V37.08H176.8V34L188.52 15.52H193.88V33.52H197.6V37.08H193.88V45H189.56Z" fill="white"/>
<path d="M229.68 34.272H220.728V40.56C222.84 39.216 224.496 37.44 225.696 35.136L228.48 36.408C224.88 43.008 218.616 45.744 209.568 47.064C209.304 46.248 208.728 45.096 208.128 44.352C212.664 43.8 216.456 42.888 219.48 41.28H217.68V34.272H208.248V31.584H211.536V26.232H214.44V31.584H218.016V24.696H221.088V26.592H228V29.28H221.088V31.584H229.68V34.272ZM213.432 34.968L216.192 35.904C214.824 38.04 212.688 40.224 210.768 41.616C210.312 41.064 209.256 39.984 208.632 39.504C210.432 38.4 212.376 36.672 213.432 34.968ZM247.68 29.736L249.288 28.392C249.744 28.824 250.248 29.328 250.728 29.832C250.992 29.232 251.208 28.56 251.376 27.888H248.28V25.824H252.144L252.528 25.776L253.824 26.112C253.536 28.176 253.008 29.976 252.312 31.44C253.104 32.304 253.848 33.168 254.328 33.84L252.6 35.376C252.24 34.824 251.712 34.128 251.088 33.408C250.44 34.2 249.744 34.872 248.928 35.4C248.664 34.872 248.088 34.032 247.632 33.624C248.376 33.192 249.072 32.544 249.648 31.776C248.976 31.056 248.304 30.336 247.68 29.736ZM243.864 32.064V33.096L245.52 32.856V32.064H243.864ZM245.52 27.48H243.864V28.176H245.52V27.48ZM243.864 29.712V30.528H245.52V29.712H243.864ZM240.984 33.48L241.92 33.36V27.48H241.368V25.512H247.968V27.48H247.464V35.664H245.52V34.704C244.08 34.968 242.664 35.232 241.392 35.448L240.984 33.48ZM233.136 45.624L231.648 45.024C232.08 43.608 232.44 41.352 232.608 39.744L234.024 40.2C233.832 41.856 233.52 44.184 233.136 45.624ZM234.288 40.176L235.44 40.056C235.656 41.448 235.752 43.296 235.68 44.448L234.48 44.616C234.552 43.392 234.456 41.592 234.288 40.176ZM234.936 35.04V36.528H236.496V35.04H234.936ZM236.496 27.84H234.936V29.256H236.496V27.84ZM236.496 32.88V31.416H234.936V32.88H236.496ZM238.56 36.528H241.2C241.2 36.528 241.176 37.2 241.152 37.512C240.888 43.128 240.624 45.336 240.072 46.104C239.688 46.632 239.256 46.848 238.68 46.92C238.2 47.016 237.408 47.016 236.568 46.992C236.52 46.296 236.304 45.384 235.992 44.784C236.688 44.856 237.312 44.856 237.624 44.856C237.888 44.856 238.056 44.808 238.248 44.568C238.392 44.328 238.56 43.752 238.68 42.576L238.08 42.816C237.936 41.952 237.504 40.68 237.096 39.744L238.128 39.36C238.368 39.888 238.608 40.56 238.824 41.184C238.872 40.488 238.92 39.696 238.968 38.736H232.776V25.536H240.72V27.84H238.56V29.256H240.408V31.416H238.56V32.88H240.408V35.04H238.56V36.528ZM237.552 43.656L236.376 43.92C236.328 42.888 236.064 41.28 235.728 40.032L236.856 39.792C237.192 41.04 237.504 42.624 237.552 43.656ZM250.8 37.872L252.504 38.256C252.408 38.832 252.288 39.384 252.144 39.936C252.48 41.304 253.104 42.72 253.896 43.488C253.44 43.824 252.816 44.472 252.504 44.928C252 44.352 251.568 43.512 251.208 42.552C250.752 43.56 250.176 44.4 249.528 45.072C249.432 44.664 249.072 43.752 248.784 43.176V46.992H246.312V44.04L245.04 44.976C244.824 44.304 244.392 43.416 243.912 42.504C243.384 43.656 242.736 44.616 241.968 45.384C241.848 44.856 241.416 43.728 241.104 43.224C242.232 42.144 242.952 40.416 243.312 38.424L245.04 38.832C244.944 39.312 244.824 39.816 244.704 40.32C245.256 41.256 245.904 42.336 246.312 43.224V37.872C245.136 37.992 244.008 38.064 242.904 38.112C242.832 37.632 242.568 36.84 242.304 36.336C245.304 36.168 248.736 35.76 250.656 35.136L252.576 36.768C251.496 37.104 250.152 37.344 248.784 37.56V42.816C249.816 41.664 250.488 39.888 250.8 37.872Z" fill="white"/>
<path d="M98.148 77.424V78.144H109.068V77.424H98.148ZM98.148 75.264V75.984H109.068V75.264H98.148ZM113.052 80.4V83.352C113.052 84.528 112.788 85.08 111.9 85.392C111.036 85.704 109.812 85.704 108.228 85.704C108.06 85.056 107.652 84.24 107.316 83.664C108.348 83.712 109.5 83.712 109.812 83.712C110.148 83.688 110.244 83.616 110.244 83.328V82.368H104.844V86.088H102.036V82.368H97.092V85.68H94.332V80.4H102.036V79.632H95.604V73.776H102.228C102.372 73.416 102.516 73.032 102.612 72.672C99.108 72.936 95.556 73.2 92.964 73.344L92.82 71.64C93.972 71.592 95.388 71.52 96.948 71.448V70.584H93.492V69.144H96.948V68.448H92.94V67.032H96.948V66.288H93.852V64.92H96.948V63.696H99.588V64.92H102.828V66.288H99.588V67.032H103.524V68.448H99.588V69.144H103.044V70.584H99.588V71.304C100.956 71.208 102.348 71.136 103.74 71.04L103.716 72.312L105.468 72.648C105.204 73.056 104.988 73.44 104.772 73.776H111.708V79.632H104.844V80.4H113.052ZM112.092 65.592H114.348V67.656H112.092V71.04C112.092 72.144 111.876 72.624 111.108 72.96C110.316 73.272 109.332 73.296 107.892 73.296C107.724 72.696 107.292 71.832 107.004 71.304C107.844 71.328 108.828 71.328 109.092 71.328C109.404 71.328 109.476 71.232 109.476 70.968V67.656H106.308C107.076 68.472 107.892 69.552 108.276 70.296L106.308 71.352C105.972 70.584 105.156 69.408 104.436 68.544L106.164 67.656H103.692V65.592H109.476V63.696H112.092V65.592ZM121.236 63.768L123.948 64.608C123.324 66.264 122.556 67.944 121.668 69.528V86.04H118.932V73.776C118.404 74.496 117.852 75.144 117.324 75.72C117.06 75 116.268 73.44 115.788 72.744C117.948 70.584 120.036 67.176 121.236 63.768ZM125.676 74.352L128.46 74.928C127.764 77.976 126.54 81 125.196 82.944C124.644 82.488 123.444 81.768 122.748 81.408C124.116 79.728 125.124 77.016 125.676 74.352ZM135.66 70.608H132.444V82.896C132.444 84.264 132.204 85.056 131.34 85.536C130.5 85.992 129.348 86.112 127.812 86.112C127.692 85.272 127.26 84 126.828 83.232C127.836 83.256 128.844 83.256 129.18 83.256C129.492 83.256 129.612 83.16 129.612 82.848V70.608H126.828C126.156 72 125.364 73.272 124.572 74.28C124.068 73.776 122.916 72.84 122.268 72.408C124.092 70.368 125.532 67.056 126.348 63.768L129.132 64.392C128.82 65.616 128.436 66.792 128.004 67.968H136.26L136.716 67.872L138.732 68.256C138.444 70.2 138.036 72.432 137.7 73.824L135.276 73.416C135.396 72.672 135.54 71.664 135.66 70.608ZM133.308 74.976L135.852 74.112C137.1 76.584 138.132 79.776 138.468 81.936L135.732 82.872C135.468 80.736 134.46 77.448 133.308 74.976ZM161.028 67.368L158.724 68.976C158.1 67.992 156.684 66.432 155.652 65.328L157.812 63.912C158.844 64.944 160.332 66.432 161.028 67.368ZM148.74 73.776L149.076 76.392C148.14 76.656 147.228 76.896 146.268 77.16V82.872C146.268 84.264 146.004 84.96 145.188 85.368C144.396 85.824 143.244 85.896 141.564 85.896C141.468 85.152 141.108 84.024 140.748 83.304C141.708 83.328 142.692 83.328 143.004 83.328C143.34 83.328 143.46 83.208 143.46 82.872V77.904L140.916 78.528L140.172 75.816C141.108 75.624 142.26 75.36 143.46 75.072V70.872H140.484V68.232H143.46V63.696H146.268V68.232H148.836V70.872H146.268V74.376L148.74 73.776ZM159.06 72.36L161.412 73.776C160.404 76.032 158.892 78.24 157.092 80.184C157.74 81.528 158.532 82.32 159.468 82.464C160.02 82.512 160.332 81.36 160.5 78.792C161.052 79.416 162.324 80.184 162.876 80.448C162.252 84.888 160.956 86.016 159.612 85.896C157.524 85.68 155.988 84.456 154.836 82.344C153.444 83.544 151.908 84.576 150.348 85.296C149.82 84.576 148.86 83.664 148.044 83.088C150.108 82.272 152.004 81.072 153.708 79.584C153.108 77.616 152.676 75.216 152.364 72.456L149.388 72.768L149.1 70.032L152.124 69.744C151.98 67.896 151.884 65.904 151.812 63.792H154.74C154.764 65.784 154.86 67.68 154.98 69.456L162.18 68.784L162.444 71.448L155.22 72.168C155.436 74.04 155.724 75.72 156.084 77.16C157.308 75.672 158.34 74.016 159.06 72.36ZM172.668 78.504V81.312C174.18 81.048 175.74 80.784 177.252 80.544L177.396 82.992C173.196 83.808 168.66 84.624 165.396 85.2L164.772 82.56C166.212 82.368 168.012 82.08 169.956 81.768V78.504H165.588V76.032H169.956V73.896H172.668V76.032H176.988V78.504H172.668ZM169.068 70.92L173.412 70.68C172.956 69.984 172.476 69.312 172.02 68.712L174.036 67.536H171.156C170.556 68.688 169.812 69.888 169.068 70.92ZM165.012 67.536V65.088H177.492V67.536H174.108C175.356 69.096 176.844 71.232 177.444 72.648L175.284 74.064C175.14 73.704 174.948 73.296 174.732 72.864C168.108 73.416 167.076 73.536 166.38 73.824C166.212 73.248 165.756 71.976 165.468 71.232C165.828 71.136 166.212 70.752 166.572 70.224C166.836 69.864 167.484 68.784 168.06 67.536H165.012ZM181.068 65.904V80.4H178.428V65.904H181.068ZM183.012 63.96H185.796V82.512C185.796 84.024 185.508 84.744 184.596 85.2C183.684 85.632 182.316 85.728 180.444 85.728C180.324 84.984 179.868 83.76 179.484 82.992C180.756 83.04 182.052 83.04 182.46 83.04C182.868 83.04 183.012 82.896 183.012 82.488V63.96ZM193.908 66.384V72.12H191.172V64.392H207.924V72.12H205.044V66.384H193.908ZM204.252 67.32V69H194.7V67.32H204.252ZM194.7 71.712V69.936H204.18V71.712H194.7ZM206.148 78.024H202.74C203.172 78.912 203.748 79.728 204.444 80.448C205.116 79.728 205.692 78.912 206.148 78.024ZM193.26 80.832V82.104C194.268 82.008 195.324 81.936 196.404 81.84V80.832H193.26ZM196.404 74.952H193.26V75.888H196.404V74.952ZM193.26 77.88V78.864H196.404V77.88H193.26ZM207.852 75.744L209.604 76.416C208.932 78.72 207.852 80.592 206.484 82.104C207.684 82.872 209.076 83.448 210.636 83.832C210.06 84.36 209.316 85.392 208.956 86.064C207.252 85.56 205.788 84.84 204.516 83.88C203.292 84.768 201.924 85.488 200.46 86.016C200.172 85.44 199.62 84.624 199.14 84.072V86.088H196.404V84.072C193.644 84.36 190.908 84.648 188.796 84.864L188.532 82.44C189.18 82.392 189.9 82.344 190.668 82.296V74.952H188.796V72.696H210.204V74.952H199.14V83.736C200.388 83.328 201.54 82.776 202.572 82.056C201.684 81 200.94 79.8 200.364 78.456L201.948 78.024H199.644V75.84H207.372L207.852 75.744ZM225.348 71.496V69H220.548V66.336H225.348V63.672H228.252V66.336H233.196V69H228.252V71.496H234.276V74.184H219.444V71.496H225.348ZM217.332 63.768L220.02 64.608C219.42 66.24 218.676 67.92 217.812 69.528V86.088H214.98V73.992C214.524 74.616 214.044 75.168 213.588 75.672C213.324 75 212.532 73.44 212.052 72.744C214.164 70.584 216.18 67.2 217.332 63.768ZM228.252 82.584H234.708V85.32H218.748V82.584H225.348V79.704H220.068V76.992H225.348V74.88H228.252V76.992H233.676V79.704H228.252V82.584ZM241.644 63.72L244.284 64.584C243.636 66.24 242.844 67.944 241.908 69.552V86.016H239.196V73.68C238.644 74.376 238.068 75.024 237.516 75.624C237.252 74.928 236.46 73.392 235.98 72.696C238.212 70.536 240.396 67.128 241.644 63.72ZM245.916 78.408L248.484 79.176C247.5 81.24 246.036 83.568 244.812 85.032C244.308 84.6 243.252 83.832 242.604 83.496C243.804 82.176 245.1 80.184 245.916 78.408ZM247.476 67.224V70.44H254.508V67.224H247.476ZM258.564 77.664H252.348V86.088H249.468V77.664H243.204V75.072H249.468V72.96H244.764V64.704H257.364V72.96H252.348V75.072H258.564V77.664ZM253.164 79.56L255.276 78.384C256.644 79.968 258.108 82.032 258.804 83.448L256.548 84.816C255.9 83.4 254.436 81.192 253.164 79.56ZM272.508 79.608H276.396C276.564 78.36 276.708 76.728 276.852 74.712H266.316C266.052 76.44 265.788 78.12 265.548 79.608H272.148C271.236 78.648 269.532 77.424 268.116 76.584L269.916 74.904C271.404 75.72 273.324 76.968 274.236 77.952L272.508 79.608ZM277.164 67.32H267.276C267.084 68.856 266.868 70.488 266.652 72.072H272.892C272.028 71.184 270.3 70.056 268.908 69.288L270.588 67.584C272.004 68.28 273.828 69.408 274.74 70.296L273.084 72.072H276.972C277.044 70.656 277.116 69.072 277.164 67.32ZM282.348 74.712H279.732C279.612 76.68 279.468 78.312 279.324 79.608H281.772V82.2H278.916C278.676 83.352 278.388 84.072 278.076 84.504C277.404 85.488 276.732 85.824 275.724 85.992C274.788 86.112 273.3 86.088 271.908 86.016C271.86 85.296 271.5 84.216 271.116 83.496C272.532 83.64 273.684 83.64 274.332 83.64C274.836 83.64 275.124 83.544 275.412 83.16C275.58 82.968 275.748 82.68 275.892 82.2H262.02C262.452 80.136 262.908 77.496 263.34 74.712H260.7V72.072H263.724C264.084 69.552 264.348 67.008 264.564 64.728H280.164C280.164 64.728 280.14 65.832 280.14 66.192C280.044 68.424 279.972 70.368 279.876 72.072H282.348V74.712Z" fill="white"/>
</svg>
