<svg width="29" height="28" viewBox="0 0 29 28" fill="none" xmlns="http://www.w3.org/2000/svg">
<path fill-rule="evenodd" clip-rule="evenodd" d="M6.33333 12.8333C6.33333 8.97283 9.47283 5.83333 13.3333 5.83333C17.1938 5.83333 20.3333 8.97283 20.3333 12.8333C20.3333 16.6938 17.1938 19.8333 13.3333 19.8333C9.47283 19.8333 6.33333 16.6938 6.33333 12.8333ZM24.6582 22.5085L20.6973 18.5465C21.9258 16.9668 22.6667 14.987 22.6667 12.8333C22.6667 7.68717 18.4795 3.5 13.3333 3.5C8.18717 3.5 4 7.68717 4 12.8333C4 17.9795 8.18717 22.1667 13.3333 22.1667C15.487 22.1667 17.4668 21.4258 19.0465 20.1973L23.0085 24.1582C23.236 24.3857 23.5347 24.5 23.8333 24.5C24.132 24.5 24.4307 24.3857 24.6582 24.1582C25.1143 23.702 25.1143 22.9647 24.6582 22.5085Z" fill="#9B3F19"/>
<mask id="mask0_269_12133" style="mask-type:luminance" maskUnits="userSpaceOnUse" x="4" y="3" width="22" height="22">
<path fill-rule="evenodd" clip-rule="evenodd" d="M6.33333 12.8333C6.33333 8.97283 9.47283 5.83333 13.3333 5.83333C17.1938 5.83333 20.3333 8.97283 20.3333 12.8333C20.3333 16.6938 17.1938 19.8333 13.3333 19.8333C9.47283 19.8333 6.33333 16.6938 6.33333 12.8333ZM24.6582 22.5085L20.6973 18.5465C21.9258 16.9668 22.6667 14.987 22.6667 12.8333C22.6667 7.68717 18.4795 3.5 13.3333 3.5C8.18717 3.5 4 7.68717 4 12.8333C4 17.9795 8.18717 22.1667 13.3333 22.1667C15.487 22.1667 17.4668 21.4258 19.0465 20.1973L23.0085 24.1582C23.236 24.3857 23.5347 24.5 23.8333 24.5C24.132 24.5 24.4307 24.3857 24.6582 24.1582C25.1143 23.702 25.1143 22.9647 24.6582 22.5085Z" fill="white"/>
</mask>
<g mask="url(#mask0_269_12133)">
<rect x="0.5" width="28" height="28" fill="#9B3F19"/>
</g>
</svg>
