<svg width="375" height="32" viewBox="0 0 375 32" fill="none" xmlns="http://www.w3.org/2000/svg">
<path d="M323.496 32C342.663 32 340.577 15.8968 375 25.1871L375 0L-2.772e-05 -3.27835e-05L-2.95971e-05 21.4709C14.6036 21.4709 17.2114 32 49.6783 32C82.1453 32 77.7121 21.4709 95.7058 21.4709C113.7 21.4709 125.826 32 145.384 32C164.943 32 168.333 21.471 187.5 21.471C206.667 21.471 213.708 32 234.049 32C254.39 32 259.736 21.471 277.729 21.471C295.723 21.471 304.329 32 323.496 32Z" fill="#FB976E"/>
</svg>
