<svg width="1440" height="78" viewBox="0 0 1440 78" fill="none" xmlns="http://www.w3.org/2000/svg">
<path d="M1242.23 78C1315.83 78 1307.82 38.7484 1440 61.3936L1440 5.34058e-05L6.81897e-06 -7.2483e-05L2.24366e-06 52.3354C56.0779 52.3354 66.0918 77.9999 190.765 77.9999C315.438 77.9999 298.414 52.3354 367.511 52.3354C436.606 52.3354 483.171 77.9999 558.275 77.9999C633.38 77.9999 646.398 52.3354 720 52.3354C793.602 52.3354 820.64 77.9999 898.748 78C976.857 78 997.385 52.3355 1066.48 52.3355C1135.58 52.3355 1168.62 78 1242.23 78Z" fill="#FEBEA3"/>
</svg>
